<svg xmlns="http://www.w3.org/2000/svg" viewBox="0 0 744 1038" width="744" height="1038"><defs><clipPath id="alignment-3023285302393774199">
<path d="M36,66 C36,49.44645666662956 49.44645666662956,36 66,36 L750,36 C766.5535433333705,36 780,49.44645666662956 780,66 L780,1044 C780,1060.5535433333705 766.5535433333705,1074 750,1074 L66,1074 C49.44645666662956,1074 36,1060.5535433333705 36,1044 L36,66 Z" fill="#000000"/></clipPath><radialGradient id="15704124125451027801" cx="629.2199299042215" cy="800.1947613873972" r="591.7984072957931" gradientTransform="matrix(0.001449275,0,0,0.00101713,-0.091304348,-0.064361752)"><stop stop-color="#5f7470" /><stop offset="1" stop-color="#889696" /></radialGradient><radialGradient id="9636302497315172506" cx="360.15086202393553" cy="476.89752435285425" r="682.272955256596" gradientTransform="matrix(0.001529052,0,0,0.001054852,-0.123853211,-0.085292009)"><stop stop-color="#f1e9d2" /><stop offset="0.197226" stop-color="#e3d6bc" /><stop offset="1" stop-color="#ae8964" /></radialGradient><clipPath id="alignment-2462927453020462082">
<path d="M80.99999999999977,90.85682441700942 C80.99999999999977,85.33897663921925 85.4821522222096,80.85682441700942 90.99999999999977,80.85682441700942 L724.9999999999998,80.85682441700942 C730.5178477777899,80.85682441700942 734.9999999999998,85.33897663921925 734.9999999999998,90.85682441700942 L734.9999999999998,1018.8568244170094 C734.9999999999998,1024.3746721947996 730.5178477777899,1028.8568244170094 724.9999999999998,1028.8568244170094 L90.99999999999977,1028.8568244170094 C85.4821522222096,1028.8568244170094 80.99999999999977,1024.3746721947996 80.99999999999977,1018.8568244170094 L80.99999999999977,90.85682441700942 Z" fill="#000000"/></clipPath><radialGradient id="18193056171299965257" cx="398.10706204420825" cy="416.62983640391445" r="549.2796145735288" gradientTransform="matrix(0.00152367,0,0,0.001536474,-0.062907093,-0.122649767)"><stop offset="0.020628" stop-color="#181824" /><stop offset="1" stop-color="#303342" /></radialGradient><radialGradient id="8431557591995937673" cx="367.4734678555249" cy="421.77680928479856" r="343.5232375430016" gradientTransform="matrix(0.001474113,0,0,0.001474113,-0.049020856,-0.12232435)"><stop stop-color="#a67219" /><stop offset="0.908866" stop-color="#fad369" /><stop offset="0.956168" stop-color="#c6922b" /><stop offset="1" stop-color="#a67219" /></radialGradient><linearGradient id="3459623578961259045" x1="679.1394456066553" y1="894.3069505268797" x2="779.922675512868" y2="722.4903331552224" gradientTransform="matrix(0.05,0,0,0.004968697,-36.65,-3.587399384)"><stop stop-color="#103020" /><stop offset="1" stop-color="#156b2d" /></linearGradient><linearGradient id="10741361408269600674" x1="155.01925410753373" y1="940.4844407818302" x2="-56.24360041716848" y2="712.7848073385476" gradientTransform="matrix(0.05,0,0,0.004968697,-3.15,-3.587399384)"><stop stop-color="#103020" /><stop offset="1" stop-color="#156b2d" /></linearGradient><radialGradient id="1934739975439387511" cx="407.90099619632326" cy="1068.760557985848" r="496.69987378600166" gradientTransform="matrix(0.002104452,0,0,0.029342467,-0.358619732,-29.705009907)"><stop stop-color="#103020" /><stop offset="1" stop-color="#156b2d" /></radialGradient></defs><g>
<g>
	<g>
		<g transform="matrix(1,0,0,1,-36,-36)">
			<path d="M36,66 C36,49.44645666662956 49.44645666662956,36 66,36 L750,36 C766.5535433333705,36 780,49.44645666662956 780,66 L780,1044 C780,1060.5535433333705 766.5535433333705,1074 750,1074 L66,1074 C49.44645666662956,1074 36,1060.5535433333705 36,1044 L36,66 Z" fill="#000000"/>
			<path d="M36,66 C36,49.44645666662956 49.44645666662956,36 66,36 L750,36 C766.5535433333705,36 780,49.44645666662956 780,66 L780,1044 C780,1060.5535433333705 766.5535433333705,1074 750,1074 L66,1074 C49.44645666662956,1074 36,1060.5535433333705 36,1044 L36,66 Z" clip-path="url(#alignment-3023285302393774199)" fill="none" stroke="#130e0a" stroke-width="4"/>
		</g>
		<g transform="matrix(1,0,0,1,-36,-36)">
			<g>
				<path d="M63.00000000015581,73.0897347965248 C63.00000000015581,67.67564627335815 67.36819919976512,63.27777777777766 72.74576271201585,63.27777777777766 L743.2542372879839,63.27777777777766 C748.6318008002345,63.27777777777766 752.9999999998438,67.67564627335815 752.9999999998438,73.0897347965248 L752.9999999998438,1036.6239140374942 C752.9999999998438,1042.0380025606607 748.6318008002345,1046.4358710562412 743.2542372879839,1046.4358710562412 L72.74576271201585,1046.4358710562412 C67.36819919976512,1046.4358710562412 63.00000000015581,1042.0380025606607 63.00000000015581,1036.6239140374942 L63.00000000015581,73.0897347965248 Z" fill="url('#15704124125451027801')"/>
			</g>
			<g>
				<path d="M80.99999999999977,90.85682441700942 C80.99999999999977,85.33897663921925 85.4821522222096,80.85682441700942 90.99999999999977,80.85682441700942 L724.9999999999998,80.85682441700942 C730.5178477777899,80.85682441700942 734.9999999999998,85.33897663921925 734.9999999999998,90.85682441700942 L734.9999999999998,1018.8568244170094 C734.9999999999998,1024.3746721947996 730.5178477777899,1028.8568244170094 724.9999999999998,1028.8568244170094 L90.99999999999977,1028.8568244170094 C85.4821522222096,1028.8568244170094 80.99999999999977,1024.3746721947996 80.99999999999977,1018.8568244170094 L80.99999999999977,90.85682441700942 Z" fill="url('#9636302497315172506')"/>
				<path d="M80.99999999999977,90.85682441700942 C80.99999999999977,85.33897663921925 85.4821522222096,80.85682441700942 90.99999999999977,80.85682441700942 L724.9999999999998,80.85682441700942 C730.5178477777899,80.85682441700942 734.9999999999998,85.33897663921925 734.9999999999998,90.85682441700942 L734.9999999999998,1018.8568244170094 C734.9999999999998,1024.3746721947996 730.5178477777899,1028.8568244170094 724.9999999999998,1028.8568244170094 L90.99999999999977,1028.8568244170094 C85.4821522222096,1028.8568244170094 80.99999999999977,1024.3746721947996 80.99999999999977,1018.8568244170094 L80.99999999999977,90.85682441700942 Z" clip-path="url(#alignment-2462927453020462082)" fill="none" stroke="#130e0a" stroke-width="4"/>
			</g>
		</g>
	</g>
	<g>
		<g transform="matrix(1,0,0,1,0,-50.517756736)">
			<path d="M369.44163698764777,79.82548411080853 C550.5126112069645,79.82548411080853 697.5967103264676,225.68388240431577 697.5967103264676,405.2459318384715 C697.5967103264676,584.8079812726272 550.5126112069645,730.6663795661345 369.44163698764777,730.6663795661345 C188.37066276833104,730.6663795661345 41.28656364882795,584.8079812726272 41.28656364882795,405.2459318384715 C41.28656364882795,225.68388240431577 188.37066276833104,79.82548411080853 369.44163698764777,79.82548411080853 Z" fill="url('#18193056171299965257')"/>
		</g>
		<g transform="matrix(1,0,0,1,0,-50.517756736)">
			<path d="M372.0000000000031,79.76331698813152 C181.6342516613195,79.76331698813152 26.999999994556788,234.39756865489426 26.999999994556788,424.7633169935779 C26.999999994556788,615.1290653322616 181.6342516613195,769.7633169990243 372.0000000000031,769.7633169990243 C562.3657483386868,769.7633169990243 717.0000000054495,615.1290653322616 717.0000000054495,424.7633169935779 C717.0000000054495,234.39756865489426 562.3657483386868,79.76331698813152 372.0000000000031,79.76331698813152 ZM372.0000000000031,115.0541642471735 C544.3729667322184,115.0541642471735 684.3916673136929,253.870520962056 684.3916673136929,424.7633169935779 C684.3916673136929,595.6561130250998 544.3729667322184,734.4724697399823 372.0000000000031,734.4724697399823 C199.6270332677879,734.4724697399823 59.60833268631336,595.6561130250998 59.60833268631336,424.7633169935779 C59.60833268631336,253.870520962056 199.6270332677879,115.0541642471735 372.0000000000031,115.0541642471735 Z" transform="matrix(0.983151102,0,0,0.983151102,6.709407394,4.562297697)" fill="url('#8431557591995937673')" stroke="#8c6b2a" stroke-width="4"/>
		</g>
	</g>
	<g>
		<g>
			<g transform="matrix(1,0,0,1,-36,-36.189251483)">
				<path d="M753.0000000000048,722.0000000000023 L753.0000000000048,901.9999999999998 C753.0000000000048,901.9999999999998 733.0000000000048,923.2599999999998 733.0000000000048,923.2599999999998 C733.0000000000048,923.2599999999998 732.9999999999998,746.26 732.9999999999998,746.26 L753.0000000000048,722.0000000000023 Z" fill="url('#3459623578961259045')"/>
			</g>
			<g transform="matrix(1,0,0,1,-36,-36.189251483)">
				<path d="M62.999999999999886,721.999999999999 C62.999999999999886,721.999999999999 63,902.0000000000002 63,902.0000000000002 C63,902.0000000000002 82.99999999999994,923.2599999999998 82.99999999999994,923.2599999999998 C82.99999999999994,923.2599999999998 82.99999999999983,745.2645864108044 82.99999999999983,745.2645864108044 L62.999999999999886,721.999999999999 Z" fill="url('#10741361408269600674')"/>
			</g>
			<g transform="matrix(1,0,0,1,-36,-36.189251483)">
				<path d="M360.1236981142017,1026.8568244195296 C360.1236981142018,1026.8568244195296 170.40999999999977,1026.8568244195296 170.40999999999977,1026.8568244195296 C170.40999999999977,1026.8568244195296 185.28999999703368,1046.4358710562415 185.28999999703368,1046.4358710562415 C185.28999999703368,1046.4358710562415 630.3499999974574,1046.4358710562415 630.3499999974574,1046.4358710562415 C630.3499999974574,1046.4358710562415 645.5929999991523,1026.8568244195296 645.5929999991523,1026.8568244195296 C645.5929999991523,1026.8568244195296 456.99554998188967,1026.8568244195296 456.99554998188967,1026.8568244195296 C456.99554998188967,1026.8568244195296 445.6402199194913,1012.3555735991022 445.6402199194913,1012.3555735991022 C445.6402199194913,1012.3555735991022 371.61914921271165,1012.3555735991022 371.61914921271165,1012.3555735991022 C371.61914921271165,1012.3555735991022 360.1236981142017,1026.8568244195296 360.1236981142017,1026.8568244195296 Z" fill="url('#1934739975439387511')"/>
			</g>
			<g transform="matrix(1,0,0,1,-36,-36.189251483)">
				<g transform="matrix(0.072024177,0,0,0.072024177,373.699591887,986.403292938)">
					<g>
						<g>
							<g>
								<g>
									<g>
										<path d="M566.2330557103439,482.1250444636679 C566.2330557103439,482.1250444636679 632.1941629291118,460.7611318814776 632.1941629291118,460.7611318814776 C632.1941629291118,460.7611318814776 611.0972232879642,525.3869793019279 611.0972232879642,525.3869793019279 C611.0972232879642,525.3869793019279 541.1346155871325,586.1802424996625 541.1346155871325,586.1802424996625 C541.1346155871325,586.1802424996625 501.629154807839,546.508746420814 501.629154807839,546.508746420814 C501.629154807839,546.508746420814 566.2330557103439,482.1250444636679 566.2330557103439,482.1250444636679 C566.2330557103439,482.1250444636679 566.2330557103439,482.1250444636679 566.2330557103439,482.1250444636679 Z" fill="#1aa040"/>
									</g>
								</g>
							</g>
							<g>
								<g>
									<g>
										<path d="M382.0907377780878,665.6397182772324 C382.0907377780878,665.6397182772324 333.50378373738306,607.6932932791163 333.50378373738306,607.6932932791163 C333.50378373738306,607.6932932791163 326.25379681590505,644.2992026782389 326.25379681590505,644.2992026782389 C326.25379681590505,644.2992026782389 428.13065754658203,749.8856580542218 428.13065754658203,749.8856580542218 C428.13065754658203,749.8856580542218 469.8247544258762,751.6510499850323 469.8247544258762,751.6510499850323 C469.8247544258762,751.6510499850323 417.0914897184226,693.9661552281553 417.0914897184226,693.9661552281553 C417.0914897184226,693.9661552281553 470.456112801665,647.595543682099 470.456112801665,647.595543682099 C470.456112801665,647.595543682099 432.64454033228424,615.2582481274288 432.64454033228424,615.2582481274288 C432.64454033228424,615.2582481274288 382.0907377780878,665.6397182772324 382.0907377780878,665.6397182772324 C382.0907377780878,665.6397182772324 382.0907377780878,665.6397182772324 382.0907377780878,665.6397182772324 Z" fill="#1ba041"/>
									</g>
								</g>
							</g>
							<g>
								<g>
									<g>
										<path d="M352.25855475802416,698.8954821760875 C352.25855475802416,698.8954821760875 296.813361110212,764.8919482602543 296.813361110212,764.8919482602543 C296.813361110212,764.8919482602543 257.8682396560936,773.9798926492983 257.8682396560936,773.9798926492983 C257.8682396560936,773.9798926492983 256.447897321474,817.5762766933535 257.59286371588166,817.6906020547272 C258.73783011028934,817.8049274161008 301.71090004354244,818.5371044194026 301.71090004354244,818.5371044194026 C301.71090004354244,818.5371044194026 311.4989655438666,783.9573870405976 311.4989655438666,783.9573870405976 C311.4989655438666,783.9573870405976 380.0125518473145,728.0029401189136 380.0125518473145,728.0029401189136 C380.0125518473145,728.0029401189136 352.25855475802416,698.8954821760875 352.25855475802416,698.8954821760875 C352.25855475802416,698.8954821760875 352.25855475802416,698.8954821760875 352.25855475802416,698.8954821760875 Z" fill="#1ba041"/>
									</g>
								</g>
							</g>
						</g>
						<g>
							<g>
								<g>
									<g>
										<path d="M591.7444677440773,665.6397182772325 C591.7444677440773,665.6397182772325 407.60214981182116,482.1250444636679 407.60214981182116,482.1250444636679 C407.60214981182116,482.1250444636679 341.6410425930533,460.7611318814776 341.6410425930533,460.7611318814776 C341.6410425930533,460.7611318814776 362.73798223420084,525.3869793019279 362.73798223420084,525.3869793019279 C362.73798223420084,525.3869793019279 556.7437158037425,693.9661552281553 556.7437158037425,693.9661552281553 C556.7437158037425,693.9661552281553 504.0104510962889,751.6510499850323 504.0104510962889,751.6510499850323 C504.0104510962889,751.6510499850323 545.7045479755831,749.8856580542218 545.7045479755831,749.8856580542218 C545.7045479755831,749.8856580542218 647.58140870626,644.2992026782389 647.58140870626,644.2992026782389 C647.58140870626,644.2992026782389 640.331421784782,607.6932932791163 640.331421784782,607.6932932791163 C640.331421784782,607.6932932791163 591.7444677440773,665.6397182772325 591.7444677440773,665.6397182772325 C591.7444677440773,665.6397182772325 591.7444677440773,665.6397182772325 591.7444677440773,665.6397182772325 Z" fill="#1ba041"/>
									</g>
								</g>
							</g>
							<g>
								<g>
									<g>
										<path d="M621.5766507641409,698.8954821760875 C621.5766507641409,698.8954821760875 677.0218444119531,764.8919482602543 677.0218444119531,764.8919482602543 C677.0218444119531,764.8919482602543 715.9669658660715,773.9798926492983 715.9669658660715,773.9798926492983 C715.9669658660715,773.9798926492983 717.3873082006911,817.5762766933535 716.2423418062834,817.6906020547272 C715.0973754118758,817.8049274161008 672.1243054786227,818.5371044194026 672.1243054786227,818.5371044194026 C672.1243054786227,818.5371044194026 662.3362399782985,783.9573870405976 662.3362399782985,783.9573870405976 C662.3362399782985,783.9573870405976 594.3887258591031,728.0579267179077 594.3887258591031,728.0579267179077 C594.3887258591031,728.0579267179077 621.5766507641409,698.8954821760875 621.5766507641409,698.8954821760875 C621.5766507641409,698.8954821760875 621.5766507641409,698.8954821760875 621.5766507641409,698.8954821760875 Z" fill="#1ba041"/>
									</g>
								</g>
							</g>
						</g>
						<g>
							<g>
								<g>
									<path d="M465.36638934373934,501.6316497299552 C465.36638934373934,501.6316497299552 438.60995483181307,428.13844714892855 438.60995483181307,428.13844714892855 C438.60995483181307,428.13844714892855 414.93883815493257,411.6326399442245 414.93883815493257,411.6326399442245 C414.93883815493257,411.6326399442245 412.3512097308395,442.4024417216009 412.3512097308395,442.4024417216009 C412.3512097308395,442.4024417216009 465.36638934373934,501.6316497299552 465.36638934373934,501.6316497299552 C465.36638934373934,501.6316497299552 465.36638934373934,501.6316497299552 465.36638934373934,501.6316497299552 Z" fill="#1ba041"/>
								</g>
							</g>
						</g>
						<g>
							<g>
								<g>
									<path d="M608.6923444386243,564.139878752164 C608.6923444386243,564.139878752164 686.4113846631881,562.5277256768625 686.4113846631881,562.5277256768625 C686.4113846631881,562.5277256768625 708.274450407444,537.1924532547125 708.274450407444,537.1924532547125 C708.274450407444,537.1924532547125 676.8456337632226,525.9210808893602 676.8456337632226,525.9210808893602 C676.8456337632226,525.9210808893602 608.6923444386243,564.139878752164 608.6923444386243,564.139878752164 C608.6923444386243,564.139878752164 608.6923444386243,564.139878752164 608.6923444386243,564.139878752164 Z" fill="#1ba041"/>
								</g>
							</g>
						</g>
						<g>
							<g>
								<g>
									<path d="M487.03855268658265,479.9894004850988 C487.03855268658265,479.9894004850988 501.45927960323263,403.60294262832156 501.45927960323263,403.60294262832156 C501.45927960323263,403.60294262832156 481.167071891991,376.9928695478642 481.167071891991,376.9928695478642 C481.167071891991,376.9928695478642 463.6675115986569,405.4284063081826 463.6675115986569,405.4284063081826 C463.6675115986569,405.4284063081826 487.03855268658265,479.9894004850988 487.03855268658265,479.9894004850988 C487.03855268658265,479.9894004850988 487.03855268658265,479.9894004850988 487.03855268658265,479.9894004850988 Z" fill="#1ba041"/>
								</g>
							</g>
						</g>
						<g>
							<g>
								<g>
									<path d="M642.1769684213472,586.9493964869938 C642.1769684213472,586.9493964869938 696.9637223873764,624.2302911532455 696.9637223873764,624.2302911532455 C696.9637223873764,624.2302911532455 724.3287429011847,616.966793212477 724.3287429011847,616.966793212477 C724.3287429011847,616.966793212477 708.6295779367996,592.485413877302 708.6295779367996,592.485413877302 C708.6295779367996,592.485413877302 642.1769684213472,586.9493964869938 642.1769684213472,586.9493964869938 C642.1769684213472,586.9493964869938 642.1769684213472,586.9493964869938 642.1769684213472,586.9493964869938 Z" fill="#1ba041"/>
								</g>
							</g>
						</g>
						<g>
							<g>
								<g>
									<path d="M322.12019362143815,584.9168528202113 C322.12019362143815,584.9168528202113 273.1117905630697,617.9079200818045 273.1117905630697,617.9079200818045 C273.1117905630697,617.9079200818045 243.4121108311162,613.2979125052184 243.4121108311162,613.2979125052184 C243.4121108311162,613.2979125052184 260.69180778374596,590.1208643479725 260.69180778374596,590.1208643479725 C260.69180778374596,590.1208643479725 322.12019362143815,584.9168528202113 322.12019362143815,584.9168528202113 C322.12019362143815,584.9168528202113 322.12019362143815,584.9168528202113 322.12019362143815,584.9168528202113 Z" fill="#1ba041"/>
								</g>
							</g>
						</g>
						<g>
							<g>
								<g>
									<path d="M500.60955569751206,500.21136260661785 C500.60955569751206,500.21136260661785 567.720894990977,424.5046735922527 567.720894990977,424.5046735922527 C567.720894990977,424.5046735922527 564.222331144712,394.3971387889881 564.222331144712,394.3971387889881 C564.222331144712,394.3971387889881 532.6538425790064,410.29968083755494 532.6538425790064,410.29968083755494 C532.6538425790064,410.29968083755494 500.60955569751206,500.21136260661785 500.60955569751206,500.21136260661785 C500.60955569751206,500.21136260661785 500.60955569751206,500.21136260661785 500.60955569751206,500.21136260661785 Z" fill="#1ba041"/>
								</g>
							</g>
						</g>
						<g>
							<g>
								<g>
									<path d="M357.7358395405623,565.701975575282 C357.7358395405623,565.701975575282 285.322377103999,515.4930385730411 285.322377103999,515.4930385730411 C285.322377103999,515.4930385730411 252.9949495418856,523.8767720547214 252.9949495418856,523.8767720547214 C252.9949495418856,523.8767720547214 270.61757963601815,550.3550871905375 270.61757963601815,550.3550871905375 C270.61757963601815,550.3550871905375 357.7358395405623,565.701975575282 357.7358395405623,565.701975575282 C357.7358395405623,565.701975575282 357.7358395405623,565.701975575282 357.7358395405623,565.701975575282 Z" fill="#1ba041"/>
								</g>
							</g>
						</g>
					</g>
				</g>
			</g>
		</g>
	</g>
</g></g></svg>