<svg xmlns="http://www.w3.org/2000/svg" xmlns:graphite="https://graphite.art" viewBox="0 0 744 1038" width="744" height="1038"><defs><linearGradient id="11034845909386641798" x1="621.0763493838898" y1="283.61891163173186" x2="814.4154103722128" y2="143.73767065986195" gradientTransform="matrix(0.011135863,0,0,0.008403361,-7.38498768,-1.537815126)"><stop stop-color="#a67219" /><stop offset="0.327219" stop-color="#c6922b" /><stop offset="0.581129" stop-color="#e0b94f" /></linearGradient><linearGradient id="12122220063886009531" x1="598.6250157662753" y1="157.050019611049" x2="753.3499789264541" y2="64.40000189987961" gradientTransform="matrix(0.0056809,0,0,0.008333333,-3.27771751,-0.525)"><stop stop-color="#5b2333" /><stop offset="1" stop-color="#8d213f" /></linearGradient><mask id="mask-13868075991184477976" mask-type="alpha">
<g transform="matrix(0.802074712,0,0,0.802074712,105.03774203,-15.25)">
	<path d="M690.2000414666098,155.99999999999994 C690.2000414666098,155.99999999999994 780,155.99999999999994 780,155.99999999999994 C780,155.99999999999994 779.9999999999999,275 779.9999999999999,275 C779.9999999999999,275 713.1500315455628,275 690.2000414666097,236 C690.2000414666097,236 690.2000414666098,155.99999999999994 690.2000414666098,155.99999999999994 Z" transform="matrix(1,0,0,1,-27.028454034,27)" fill="url('#11034845909386641798')" stroke="#130e0a" stroke-width="4" style="paint-order: stroke;" />
</g>
<g transform="matrix(0.802074712,0,0,0.802074712,105.03774203,-15.25)">
	<path d="M625.6439211854547,58.26329312563365 C625.6439211854547,58.26329312563365 688.3042968750002,53.99999999999994 690.2000414666097,155.99999999999994 C690.2000414666097,155.99999999999994 780,155.99999999999994 780,155.99999999999994 C780,155.99999999999994 780.0284540337068,36.277777777777075 780.0284540337068,36.277777777777075 C710.4692705812985,36.27777777777711 604,35.99999999999999 604,35.99999999999999 C604,35.99999999999999 625.6439211854547,58.26329312563365 625.6439211854547,58.26329312563365 Z" transform="matrix(1,0,0,1,-27.028454034,27)" fill="url('#12122220063886009531')" stroke="#000000" stroke-width="4" style="paint-order: stroke;" />
</g></mask><linearGradient id="6049151632961392147" x1="621.0763493838898" y1="283.61891163173186" x2="814.4154103722128" y2="143.73767065986195" gradientTransform="matrix(0.011135863,0,0,0.008403361,-7.38498768,-1.537815126)"><stop stop-color="#a67219" /><stop offset="0.327219" stop-color="#c6922b" /><stop offset="0.581129" stop-color="#e0b94f" /></linearGradient><linearGradient id="14573623018525708724" x1="598.6250157662753" y1="157.050019611049" x2="753.3499789264541" y2="64.40000189987961" gradientTransform="matrix(0.0056809,0,0,0.008333333,-3.27771751,-0.525)"><stop stop-color="#5b2333" /><stop offset="1" stop-color="#8d213f" /></linearGradient></defs><g>
<rect fill="#ffffff" fill-opacity="0" x="0" y="0" width="744" height="1038"/>
<g>
	<g>
		<g transform="matrix(0.802074712,0,0,0.802074712,105.03774203,-15.25)">
			<path d="M690.2000414666098,155.99999999999994 C690.2000414666098,155.99999999999994 780,155.99999999999994 780,155.99999999999994 C780,155.99999999999994 779.9999999999999,275 779.9999999999999,275 C779.9999999999999,275 713.1500315455628,275 690.2000414666097,236 C690.2000414666097,236 690.2000414666098,155.99999999999994 690.2000414666098,155.99999999999994 Z" transform="matrix(1,0,0,1,-27.028454034,27)" fill="url('#6049151632961392147')" stroke="#130e0a" stroke-width="4" style="paint-order: stroke;" />
		</g>
		<g transform="matrix(0.802074712,0,0,0.802074712,105.03774203,-15.25)">
			<path d="M625.6439211854547,58.26329312563365 C625.6439211854547,58.26329312563365 688.3042968750002,53.99999999999994 690.2000414666097,155.99999999999994 C690.2000414666097,155.99999999999994 780,155.99999999999994 780,155.99999999999994 C780,155.99999999999994 780.0284540337068,36.277777777777075 780.0284540337068,36.277777777777075 C710.4692705812985,36.27777777777711 604,35.99999999999999 604,35.99999999999999 C604,35.99999999999999 625.6439211854547,58.26329312563365 625.6439211854547,58.26329312563365 Z" transform="matrix(1,0,0,1,-27.028454034,27)" fill="url('#14573623018525708724')" stroke="#000000" stroke-width="4" style="paint-order: stroke;" />
		</g>
	</g>
	<g mask="url(#mask-13868075991184477976)"/>
	<g>
		<polyline points="10000000,10000000 -10000000,10000000 -10000000,-10000000 10000000,-10000000" fill="#000000" fill-opacity="0"/>
	</g>
</g></g></svg>