<svg xmlns="http://www.w3.org/2000/svg" xmlns:graphite="https://graphite.art" viewBox="0 0 744 1038" width="744" height="1038"><defs><linearGradient id="18140889201769081340" x1="151.51696270919362" y1="302.35961317237684" x2="55.04504887631549" y2="218.20429272149556" gradientTransform="matrix(-0.011135863,0,0,0.008403361,1.701559344,-1.537815126)"><stop stop-color="#9f7533" /><stop offset="0.477459" stop-color="#c6922b" /><stop offset="1" stop-color="#e0b94f" /></linearGradient><linearGradient id="6789774555492047989" x1="182.58762777679968" y1="132.65524783284485" x2="82.30857608780536" y2="83.11257212154464" gradientTransform="matrix(-0.0056809,0,0,0.008333333,1.357896684,-0.525)"><stop stop-color="#1f3176" /><stop offset="1" stop-color="#3950a3" /></linearGradient><mask id="mask-5602977522622939832" mask-type="alpha">
<g transform="matrix(0.803133049,0,0,0.803133049,-14.597382076,-15.25)">
	<path d="M690.2000414666098,155.99999999999994 C690.2000414666098,155.99999999999994 780,155.99999999999994 780,155.99999999999994 C780,155.99999999999994 779.9999999999999,275 779.9999999999999,275 C779.9999999999999,275 713.1500315455628,275 690.2000414666097,236 C690.2000414666097,236 690.2000414666098,155.99999999999994 690.2000414666098,155.99999999999994 Z" transform="matrix(-1,0,0,1,843,27)" fill="url('#18140889201769081340')" stroke="#130e0a" stroke-width="4" style="paint-order: stroke;" />
</g>
<g transform="matrix(0.803133049,0,0,0.803133049,-14.597382076,-15.25)">
	<path d="M625.2509439111425,58.23395543641187 C625.2509439111425,58.23395543641187 688.3042968750002,53.99999999999994 690.2000414666097,155.99999999999994 C690.2000414666097,155.99999999999994 780,155.99999999999994 780,155.99999999999994 C780,155.99999999999994 780.0284540337068,36.277777777777075 780.0284540337068,36.277777777777075 C710.4692705812985,36.27777777777711 604,35.99999999999999 604,35.99999999999999 C604,35.99999999999999 625.2509439111425,58.23395543641187 625.2509439111425,58.23395543641187 Z" transform="matrix(-1,0,0,1,843.028454034,27)" fill="url('#6789774555492047989')" stroke="#000000" stroke-width="4" style="paint-order: stroke;" />
</g></mask><linearGradient id="12668329042468949434" x1="151.51696270919362" y1="302.35961317237684" x2="55.04504887631549" y2="218.20429272149556" gradientTransform="matrix(-0.011135863,0,0,0.008403361,1.701559344,-1.537815126)"><stop stop-color="#9f7533" /><stop offset="0.477459" stop-color="#c6922b" /><stop offset="1" stop-color="#e0b94f" /></linearGradient><linearGradient id="11286265732122033388" x1="182.58762777679968" y1="132.65524783284485" x2="82.30857608780536" y2="83.11257212154464" gradientTransform="matrix(-0.0056809,0,0,0.008333333,1.357896684,-0.525)"><stop stop-color="#1f3176" /><stop offset="1" stop-color="#3950a3" /></linearGradient></defs><g>
<rect fill="#ffffff" fill-opacity="0" x="0" y="0" width="744" height="1038"/>
<g>
	<g>
		<g transform="matrix(0.803133049,0,0,0.803133049,-14.597382076,-15.25)">
			<path d="M690.2000414666098,155.99999999999994 C690.2000414666098,155.99999999999994 780,155.99999999999994 780,155.99999999999994 C780,155.99999999999994 779.9999999999999,275 779.9999999999999,275 C779.9999999999999,275 713.1500315455628,275 690.2000414666097,236 C690.2000414666097,236 690.2000414666098,155.99999999999994 690.2000414666098,155.99999999999994 Z" transform="matrix(-1,0,0,1,843,27)" fill="url('#12668329042468949434')" stroke="#130e0a" stroke-width="4" style="paint-order: stroke;" />
		</g>
		<g transform="matrix(0.803133049,0,0,0.803133049,-14.597382076,-15.25)">
			<path d="M625.2509439111425,58.23395543641187 C625.2509439111425,58.23395543641187 688.3042968750002,53.99999999999994 690.2000414666097,155.99999999999994 C690.2000414666097,155.99999999999994 780,155.99999999999994 780,155.99999999999994 C780,155.99999999999994 780.0284540337068,36.277777777777075 780.0284540337068,36.277777777777075 C710.4692705812985,36.27777777777711 604,35.99999999999999 604,35.99999999999999 C604,35.99999999999999 625.2509439111425,58.23395543641187 625.2509439111425,58.23395543641187 Z" transform="matrix(-1,0,0,1,843.028454034,27)" fill="url('#11286265732122033388')" stroke="#000000" stroke-width="4" style="paint-order: stroke;" />
		</g>
	</g>
	<g mask="url(#mask-5602977522622939832)"/>
	<g>
		<polyline points="10000000,10000000 -10000000,10000000 -10000000,-10000000 10000000,-10000000" fill="#000000" fill-opacity="0"/>
	</g>
</g></g></svg>