<svg xmlns="http://www.w3.org/2000/svg" viewBox="0 0 744 1038" width="744" height="1038"><defs><linearGradient id="4463807254281881015" x1="649.1007060449725" y1="260.9533723139684" x2="769.5539828877031" y2="204.66508627145606" gradientTransform="matrix(0.011135863,0,0,0.008403361,-7.38498768,-1.537815126)"><stop stop-color="#9f7533" /><stop offset="1" stop-color="#c59f4e" /></linearGradient><linearGradient id="6478610695598274215" x1="598.6250157662753" y1="157.050019611049" x2="753.3499789264541" y2="64.40000189987961" gradientTransform="matrix(0.0056809,0,0,0.008333333,-3.27771751,-0.525)"><stop stop-color="#5a2332" /><stop offset="1" stop-color="#8d213f" /></linearGradient></defs><g>
<g>
	<g>
		<g transform="matrix(0.802074712,0,0,0.802074712,113.03774203,-23.252929064)">
			<path d="M690.2000414666098,155.99999999999994 C690.2000414666098,155.99999999999994 780,155.99999999999994 780,155.99999999999994 C780,155.99999999999994 779.9999999999999,275 779.9999999999999,275 C779.9999999999999,275 713.1500315455628,275 690.2000414666097,236 C690.2000414666097,236 690.2000414666098,155.99999999999994 690.2000414666098,155.99999999999994 Z" transform="matrix(1,0,0,1,-27.028454034,27)" fill="url('#4463807254281881015')" stroke="#130e0a" stroke-width="4" style="paint-order: stroke;" />
		</g>
		<g transform="matrix(0.802074712,0,0,0.802074712,113.03774203,-23.252929064)">
			<path d="M625.6439211854547,58.26329312563365 C625.6439211854547,58.26329312563365 688.3042968750002,53.99999999999994 690.2000414666097,155.99999999999994 C690.2000414666097,155.99999999999994 780,155.99999999999994 780,155.99999999999994 C780,155.99999999999994 780.0284540337068,36.277777777777075 780.0284540337068,36.277777777777075 C710.4692705812985,36.27777777777711 604,35.99999999999999 604,35.99999999999999 C604,35.99999999999999 625.6439211854547,58.26329312563365 625.6439211854547,58.26329312563365 Z" transform="matrix(1,0,0,1,-27.028454034,27)" fill="url('#6478610695598274215')" stroke="#000000" stroke-width="4" style="paint-order: stroke;" />
		</g>
	</g>
</g></g></svg>