<svg xmlns="http://www.w3.org/2000/svg" viewBox="0 0 744 1038" width="744" height="1038"><defs><linearGradient id="1720412433188708452" x1="151.51696270919362" y1="302.35961317237684" x2="32.28515976936649" y2="194.6951188517865" gradientTransform="matrix(-0.011135863,0,0,0.008403361,1.701559344,-1.537815126)"><stop stop-color="#9f7533" /><stop offset="1" stop-color="#c59f4e" /></linearGradient><linearGradient id="17151590968644057843" x1="151.51696270919362" y1="302.35961317237684" x2="55.04504887631549" y2="218.20429272149556" gradientTransform="matrix(-0.011135863,0,0,0.008403361,1.701559344,-1.537815126)"><stop stop-color="#9f7533" /><stop offset="0.477459" stop-color="#c6922b" /><stop offset="1" stop-color="#e0b94f" /></linearGradient><linearGradient id="15017467446913125399" x1="182.58762777679968" y1="132.65524783284485" x2="82.30857608780536" y2="83.11257212154464" gradientTransform="matrix(-0.0056809,0,0,0.008333333,1.357896684,-0.525)"><stop stop-color="#1f3176" /><stop offset="1" stop-color="#3950a3" /></linearGradient></defs><g>
<g>
	<g>
		<g transform="matrix(0.803133049,0,0,0.803133049,-23.597382076,-23.597382076)">
			<path d="M690.2000414666098,155.99999999999994 C690.2000414666098,155.99999999999994 780,155.99999999999994 780,155.99999999999994 C780,155.99999999999994 779.9999999999999,275 779.9999999999999,275 C779.9999999999999,275 713.1500315455628,275 690.2000414666097,236 C690.2000414666097,236 690.2000414666098,155.99999999999994 690.2000414666098,155.99999999999994 Z" transform="matrix(-1,0,0,1,843,27)" fill="url('#1720412433188708452')" stroke="#130e0a" stroke-width="4" style="paint-order: stroke;" />
		</g>
		<g transform="matrix(0.803133049,0,0,0.803133049,-23.597382076,-23.597382076)">
			<path d="M690.2000414666098,155.99999999999994 C690.2000414666098,155.99999999999994 780,155.99999999999994 780,155.99999999999994 C780,155.99999999999994 779.9999999999999,275 779.9999999999999,275 C779.9999999999999,275 713.1500315455628,275 690.2000414666097,236 C690.2000414666097,236 690.2000414666098,155.99999999999994 690.2000414666098,155.99999999999994 Z" transform="matrix(-1,0,0,1,843,27)" fill="url('#17151590968644057843')" stroke="#130e0a" stroke-width="4" style="paint-order: stroke;" />
		</g>
		<g transform="matrix(0.803133049,0,0,0.803133049,-23.597382076,-23.597382076)">
			<path d="M625.2509439111425,58.23395543641187 C625.2509439111425,58.23395543641187 688.3042968750002,53.99999999999994 690.2000414666097,155.99999999999994 C690.2000414666097,155.99999999999994 780,155.99999999999994 780,155.99999999999994 C780,155.99999999999994 780.0284540337068,36.277777777777075 780.0284540337068,36.277777777777075 C710.4692705812985,36.27777777777711 604,35.99999999999999 604,35.99999999999999 C604,35.99999999999999 625.2509439111425,58.23395543641187 625.2509439111425,58.23395543641187 Z" transform="matrix(-1,0,0,1,843.028454034,27)" fill="url('#15017467446913125399')" stroke="#000000" stroke-width="4" style="paint-order: stroke;" />
		</g>
	</g>
</g></g></svg>