<svg xmlns="http://www.w3.org/2000/svg" viewBox="0 0 511 511" width="511" height="511"><defs><linearGradient id="3580937702069243285" x1="57.15258596344851" y1="526.398390628788" x2="178.89275102567544" y2="144.86569210660303" gradientTransform="matrix(0.002084539,0,0,0.002083702,-0.042593199,-0.020662366)"><stop stop-color="#c2530b" /><stop offset="0.998634" stop-color="#e8a415" /></linearGradient><linearGradient id="5699147681749477246" x1="137.59278692722822" y1="28.318038713438177" x2="251.53758721950797" y2="68.15647463053936" gradientTransform="matrix(0.000399273,-0.007168477,0.005228044,0.000547467,-0.12644142,2.047022646)"><stop stop-color="#c2530b" /><stop offset="0.998634" stop-color="#e8a415" /></linearGradient><linearGradient id="6742920712437863427" x1="209.03955702490072" y1="18.586271883021837" x2="296.59555191087145" y2="46.265837356677295" gradientTransform="matrix(0.000563951,-0.009304556,0.007384324,0.000710602,-0.178591535,3.008007859)"><stop stop-color="#c2530b" /><stop offset="0.998634" stop-color="#e8a415" /></linearGradient></defs><g>
<g>
	<g>
		<path d="M249.9415215370049,330.2189538966985 C249.9415215367486,330.21895389284083 293.23333740202435,363.96667479994414 293.23333740202435,363.96667479994414 C293.23333740202435,363.96667479994414 335.7333374006262,362.266662602243 335.7333374006262,362.266662602243 C335.7333374006262,362.266662602243 268.26682952836336,303.7120811903681 268.26682952836336,303.7120811903681 C268.26682952836336,303.7120811903681 475.08504029817783,88.6495426539926 475.08504029817783,88.6495426539926 C475.08504029817783,88.6495426539926 500.15517038355625,9.91618031933071 500.15517038355625,9.91618031933071 C500.15517038355625,9.91618031933071 420.4882025817361,50.119503086256614 420.4882025817361,50.119503086256614 C420.4882025817361,50.119503086256614 229.91067437632245,279.1453213601655 229.91067437632245,279.1453213601655 C229.91067437632245,279.1453213601655 164.59997558895364,226.26666260279274 164.59997558895364,226.26666260279274 C164.59997558895364,226.26666260279274 165.64993197239508,264.51025163687245 165.64993197239508,264.51025163687245 C165.64993197239508,264.51025163687245 249.9415215367486,330.21895389284083 249.9415215370049,330.2189538966985 ZM204.69724114670842,322.69907727317536 C204.69724114670842,322.69907727317536 249.9415215367486,330.21895389284083 249.9415215370049,330.2189538966985 C249.94152153751742,330.21895390441387 256.6630199793735,364.1096014602673 256.6630199793735,364.1096014602673 C256.6630199793735,364.1096014602673 189.46610550715042,438.78059518249955 189.46610550715042,438.78059518249955 C189.46610550715042,438.78059518249955 156.29028499785545,435.4999733016118 156.29028499785545,435.4999733016118 C156.29028499785545,435.4999733016118 149.70416842870185,427.3403178979507 149.70416842870185,427.3403178979506 C149.70416842870185,427.3403178979506 134.03650036685798,444.1944426100617 134.03650036685798,444.1944426100617 C134.03650036685798,444.1944426100617 130.1733869503123,484.4125544571557 130.1733869503123,484.4125544571557 C130.1733869503123,484.4125544571557 81.37155390816,489.7952397876246 80.05757987862461,489.8312101448727 C78.74360584908922,489.86718050212073 74.0506311836497,440.2595507283097 74.0506311836497,440.2595507283097 C74.0506311836497,440.2595507283097 111.02043859959176,430.4323819718902 111.02043859959176,430.4323819718902 C118.05729666098313,421.14459580118506 124.71475491606415,412.38663238578636 130.99281336487942,404.1584917256936 C130.99281336487942,404.1584917256936 113.95183911161342,383.0461296547651 113.95183911161342,383.0461296547651 C113.95183911161342,383.0461296547651 147.06758010994577,331.2524602062791 147.06758010994577,331.2524602062791 C147.06758010994577,331.2524602062791 189.4251121930353,320.1607558663324 189.4251121930353,320.1607558663324 C189.4251121930353,320.1607558663324 196.04263510312705,321.2606287205961 196.04263510316807,321.2606287205385 C197.06049218915572,320.0542871583517 198.01794653284887,318.93229658116843 198.91499813425042,317.89465698898846 C198.91499813425042,317.89465698898846 204.69724114670848,322.69907727317536 204.69724114670842,322.69907727317536 ZM125.63246748213652,321.42007508439974 C125.63246748213652,321.42007508439974 47.29435908489408,256.00000000297473 47.29435908489408,256.00000000297473 C47.29435908489408,256.00000000297473 20.43290571819918,338.0302924666225 20.43290571819918,338.0302924666225 C20.43290571819918,338.0302924666225 96.96968376329687,367.09955388808623 96.96968376329687,367.09955388808623 C96.96968376329687,367.09955388808623 125.63246748213652,321.42007508439974 125.63246748213652,321.42007508439974 Z" fill="url('#3580937702069243285')" stroke="#000000" stroke-width="16" stroke-linejoin="bevel"/>
	</g>
	<g>
		<path d="M545.0310479568034,201.55612055205745 C545.0310479568034,201.55612055205745 585.8788216407961,250.51356473057575 585.8788216407961,250.51356473057575 C585.8788216407961,250.51356473057575 389.8000868120921,360.18832298011023 389.8000868120921,360.18832298011023 C389.8000868120921,360.18832298011023 545.0310479568034,201.55612055205745 545.0310479568034,201.55612055205745 Z" transform="matrix(0.074068812,0.969850019,-0.87429105,0.066770839,433.086066028,-389.142786277)" fill="url('#5699147681749477246')" stroke="#000000" stroke-width="16" stroke-linejoin="round"/>
	</g>
	<g>
		<path d="M545.0310479568034,201.55612055205745 C545.0310479568034,201.55612055205745 578.8939980985407,239.95168703395296 578.8939980985407,239.95168703395296 C578.8939980985407,239.95168703395296 373.98115468774,370.9442629433858 373.98115468774,370.9442629433858 C373.98115468774,370.9442629433858 545.0310479568034,201.55612055205745 545.0310479568034,201.55612055205745 Z" transform="matrix(0.050179368,0.657043902,-0.630805751,0.048175524,431.621661925,-255.93356235)" fill="url('#6742920712437863427')" stroke="#000000" stroke-width="16" stroke-linejoin="round"/>
	</g>
</g></g></svg>