<svg xmlns="http://www.w3.org/2000/svg" xmlns:graphite="https://graphite.art" viewBox="0 0 512 512" width="512" height="512"><defs><linearGradient id="10297240993333891343" x1="265.9237725453302" y1="31.821026853241925" x2="271.84384809997107" y2="479.84288704435426" gradientTransform="matrix(0.002228213,0,0,0.002228213,-0.070422465,-0.070422465)"><stop stop-color="#3950a3" /><stop offset="1" stop-color="#0d1b51" /></linearGradient><linearGradient id="5124738808203081568" x1="57.15258526083127" y1="526.3983900241958" x2="178.89274798763543" y2="144.86569786358996" gradientTransform="matrix(0.00208454,0,0,0.002083702,-0.042593199,-0.020662383)"><stop stop-color="#c2530b" /><stop offset="0.998634" stop-color="#e8a415" /></linearGradient><linearGradient id="4871665756024992940" x1="137.59278692722822" y1="28.31803871343812" x2="251.53758721950797" y2="68.15647463053931" gradientTransform="matrix(0.0066583,0,0,0.005469146,-0.97909414,-0.070852309)"><stop stop-color="#c2530b" /><stop offset="0.998634" stop-color="#e8a415" /></linearGradient><linearGradient id="3800954477084510722" x1="209.03955702490072" y1="18.586271883021837" x2="296.59555191087145" y2="46.265837356677295" gradientTransform="matrix(0.008662945,0,0,0.007792647,-1.87460947,-0.059683175)"><stop stop-color="#c2530b" /><stop offset="0.998634" stop-color="#e8a415" /></linearGradient></defs><g>
<rect fill="#ffffff" fill-opacity="0" x="0" y="0" width="512" height="512"/>
<g>
	<g>
		<path d="M256.0000000000005,31.6049108351003 C379.81779440955677,31.6049108351003 480.39508916490024,132.18220559044374 480.39508916490024,255.99999999999991 C480.39508916490024,379.8177944095561 379.81779440955677,480.39508916489956 256.0000000000005,480.39508916489956 C132.18220559044428,480.39508916489956 31.60491083510078,379.8177944095561 31.60491083510078,255.99999999999991 C31.60491083510078,132.18220559044374 132.18220559044428,31.6049108351003 256.0000000000005,31.6049108351003 Z" fill="url('#10297240993333891343')" stroke="#000000" stroke-width="40" style="paint-order: stroke;" />
	</g>
	<g>
		<g transform="matrix(0.646440065,0,0,0.646440065,87.735508005,95.2012211)">
			<path d="M500.15516118252503,9.91618832643141 C500.1421158311705,9.957178484217648 475.0850403,88.64954265 475.0850403,88.64954265 C475.0850403,88.64954265 268.26682953,303.71208119 268.26682953,303.71208119 C268.26682953,303.71208119 335.7333374,362.2666626 335.7333374,362.2666626 C335.7333374,362.2666626 293.3545751607913,363.961825254766 293.23359691041986,363.9666644195086 C293.23351040694735,363.9666678796724 293.23342390347403,363.96667133983624 293.233330741916,363.9666696097543 C293.2147181463382,363.95216033893144 273.70075973598983,348.7402407429219 249.94152412555908,330.21895916727647 C212.9429918297899,301.37710401859675 165.64993197,264.51025164 165.64993197,264.51025164 C165.64993197,264.51025164 164.60081378982227,226.29719317264534 164.59998328415477,226.26667478818567 C164.64430288554794,226.30255209404095 229.87074206112928,279.11299024883175 229.91067238691275,279.14531146832087 C229.96668480115324,279.0780110498211 420.48820258,50.11950309 420.48820258,50.11950309 C420.48820258,50.11950309 500.09711737292605,9.945476328714218 500.15516118252503,9.91618832643141 ZM249.94152412555908,330.21895916727647 C249.94149724620772,330.2189498622229 249.94147295241527,330.2189458244458 249.94144865862262,330.21894178666867 C249.88999705019486,330.21039021409365 222.60783909348098,325.6759283985006 204.69724116067346,322.6990772799022 C201.29625910328804,319.87322801343896 198.9225225913703,317.9009089975196 198.91499939736923,317.89466440780194 C198.01793741098712,318.9323072774268 197.06048734081062,320.054292910548 196.0426351033078,321.2606287249648 C191.9931044507005,320.5875719183257 189.44015817449286,320.1632566048125 189.42517847365863,320.1607668867502 C189.42515637910566,320.16076321450015 189.42513428455277,320.1607595422501 189.4250911543532,320.1607613783751 C189.37637214039688,320.17351889450043 147.06758011,331.25246021 147.06758011,331.25246021 C147.06758011,331.25246021 113.95183911000001,383.04612965 113.95183911000001,383.04612965 C113.95183911000001,383.04612965 121.94946912840092,392.954533837666 130.99281336763,404.15849172573036 C124.71475491805671,412.3866323882237 118.05729666219331,421.14459580632695 111.0204386,430.43238198 C111.0204386,430.43238198 74.05063119,440.25955072 74.05063119,440.25955072 C74.05063119,440.25955072 78.74360585000001,489.8671805 80.05757988,489.83121015 C81.37155391,489.79523979 130.17338695,484.41255446 130.17338695,484.41255446 C130.17338695,484.41255446 134.03650037,444.19444261 134.03650037,444.19444261 C134.03650037,444.19444261 140.34579890026248,437.4073633936333 149.70416843211913,427.34031789814935 C153.6571337384142,432.2377159903938 156.290285,435.4999733 156.29028499999998,435.4999733 C156.29028499999998,435.4999733 189.39626447094116,438.7736888838682 189.46599520036537,438.78058427192934 C189.46603197024393,438.7805879079529 189.46606874012213,438.78059154397647 189.46611041812204,438.78058972596466 C189.49576070163255,438.7476415444655 256.66301997,364.10960146 256.66301997,364.10960146 C256.66301997,364.10960146 249.9473666893387,330.2484258842958 249.94152412555908,330.21895916727647 ZM47.294362681337255,256.00000827888766 C47.33986489488181,256.0380018599753 125.63246748,321.42007508 125.63246748,321.42007508 C125.63246748,321.42007508 96.9873846578335,367.07134421590126 96.96967502489213,367.0995451785647 C96.91043421810497,367.07705045482726 20.432909626559784,338.03029394374164 20.432905720000054,338.03029246 C20.432907145101428,338.0302881079836 47.28042449789117,256.0425538346856 47.294362681337255,256.00000827888766 Z" fill="url('#5124738808203081568')" fill-rule="evenodd"/>
		</g>
		<g transform="matrix(0.646440065,0,0,0.646440065,87.735508005,95.2012211)">
			<path d="M297.2371559239909,152.91365698629113 C297.2371559239909,152.91365698629113 257.45964671399486,195.79880067107854 257.45964671399486,195.79880067107854 C257.45964671399486,195.79880067107854 147.048668244113,12.954911653638476 147.048668244113,12.954911653638476 C147.048668244113,12.954911653638476 297.2371559239909,152.91365698629113 297.2371559239909,152.91365698629113 Z" fill="url('#4871665756024992940')"/>
		</g>
		<g transform="matrix(0.646440065,0,0,0.646440065,87.735508005,95.2012211)">
			<path d="M331.8282155921728,111.88583595263387 C331.8282155921728,111.88583595263387 309.30729288934856,135.9850073796256 309.30729288934856,135.9850073796256 C309.30729288934856,135.9850073796256 216.39402565431325,7.658909040554278 216.39402565431325,7.658909040554278 C216.39402565431325,7.658909040554278 331.8282155921728,111.88583595263387 331.8282155921728,111.88583595263387 Z" fill="url('#3800954477084510722')"/>
		</g>
	</g>
</g></g></svg>