<svg xmlns="http://www.w3.org/2000/svg" xmlns:graphite="https://graphite.art" viewBox="0 0 100 100" width="100" height="100"><defs><clipPath id="artboard-5090168382671415827"><rect x="0" y="0" width="100" height="100" /></clipPath></defs><g>
<rect fill="#ffffff" fill-opacity="0" x="0" y="0" width="100" height="100"/>
<g clip-path="url(#artboard-5090168382671415827)">
	<g>
		<g>
			<path d="M15.325802570291685,72.88172496033638 C13.601802593179869,79.01572001648873 11.729802375742125,85.68872416687935 6.101802235552,89.9517246551606 C7.730468874880003,90.46239054871529 9.31313555012974,90.89572235616971 10.849802261301207,91.25172007752388 C18.675802157032813,93.0517231292817 25.105802303262877,92.74072357687284 30.139802699991392,90.31872142029732 C35.123801316527846,87.91872243754993 38.81580138773553,83.39305461121529 41.21580291361444,76.74171794129342 C41.73863769144647,75.27894938660592 42.18491149515741,73.78992808533638 42.55280089945428,72.28071940613717 C42.55280089945428,72.28071940613717 31.916803127237486,61.126720077523885 31.916803127237486,61.126720077523885 C19.628802066751646,57.558719284066854 17.632801776834654,64.66372264100045 15.325802570291685,72.88172496033638 C15.325802570291685,72.88172496033638 15.325802570291685,72.88172496033638 15.325802570291685,72.88172496033638 ZM33.87180305094354,58.69972193909615 C33.87180305094354,58.69972193909615 33.87180305094354,58.69972193909615 33.87180305094354,58.69972193909615 C33.751926189371275,58.573741561898885 33.61161590189569,58.46892893982857 33.4568021354162,58.389720565805135 C43.002279048868346,47.63610041810006 53.17395568461053,37.45507395935982 63.918802028604674,27.89972079468697 C73.84879979064894,19.210387832650838 83.09146539937291,12.508054620752034 91.64679885477655,7.79272115899056 C91.93669295878045,7.629346735009847 92.27223373026483,7.565751916894612 92.60180068583124,7.6117211647126055 C93.26874709696405,7.722730285653768 93.78811812967889,8.250986940393148 93.8878037986242,8.919721252450643 C93.92655349344842,9.249726421365438 93.85631728739374,9.583349830636678 93.68779922098749,9.86972106171578 C87.68802810282342,20.141055709848104 80.78650069803827,29.858348495492635 73.0648057517492,38.906722671518025 C63.98577666849725,49.60895503235787 54.28678680033319,59.76940501404732 44.017801052042174,69.33571971131295 C44.017801052042174,69.33571971131295 33.87180305094354,58.69972193909615 33.87180305094354,58.69972193909615 Z" fill="#ffffff"/>
		</g>
	</g>
</g></g></svg>