<svg xmlns="http://www.w3.org/2000/svg" viewBox="0 0 682 511" width="682" height="511"><defs><linearGradient id="6694447438835419048" x1="132.16574248588114" y1="-33.93462827740831" x2="54.921067120519325" y2="559.9249241116222" gradientTransform="matrix(0.00055802,0.002880434,-0.003022733,0.000531751,1.186048861,-0.049008068)"><stop stop-color="#63061a" /><stop offset="0.309189" stop-color="#c4213b" /><stop offset="1" stop-color="#63061a" /></linearGradient><linearGradient id="4249019713680139027" x1="176.4336145256731" y1="252.5414060203552" x2="148.56090177439353" y2="587.9980925426346" gradientTransform="matrix(0.001558961,0.007003949,-0.007413471,0.001472844,3.329432505,-2.212509736)"><stop stop-color="#63061a" /><stop offset="0.521585" stop-color="#c4213b" /><stop offset="1" stop-color="#63061a" /></linearGradient><linearGradient id="13809012379670743760" x1="254.41557648894053" y1="211.42855557528407" x2="664.5454703987416" y2="201.34198077313306" gradientTransform="matrix(0.003050713,0,0,0.003028912,-0.677892275,-0.13636664)"><stop stop-color="#63061a" /><stop offset="0.452531" stop-color="#c4213b" /><stop offset="1" stop-color="#63061a" /></linearGradient><linearGradient id="11215901300777790969" x1="306.27702985491055" y1="22.770572018313626" x2="387.7056171367693" y2="149.43724793273122" gradientTransform="matrix(0.004758472,0,0,0.024075048,-1.214337335,-1.110995921)"><stop stop-color="#63061a" /><stop offset="0.475878" stop-color="#c4213b" /><stop offset="1" stop-color="#63061a" /></linearGradient><linearGradient id="15202087998135665506" x1="574.4372082995127" y1="244.11256468141224" x2="499.9999999999997" y2="244.11256468141224" gradientTransform="matrix(0.024187179,0,0,0.00466306,-12.354304636,-0.605822017)"><stop stop-color="#63061a" /><stop offset="1" stop-color="#c4213b" /><stop offset="1" stop-color="#63061a" /></linearGradient><linearGradient id="6983778233011895036" x1="410.7575651887173" y1="298.917735706676" x2="334.6753405286118" y2="399.26405076856724" gradientTransform="matrix(0.024175843,0,0,0.014680645,-8.548410402,-4.752779164)"><stop stop-color="#63061a" /><stop offset="0.405617" stop-color="#c4213b" /><stop offset="1" stop-color="#63061a" /></linearGradient><linearGradient id="13529771545880009008" x1="155.77923663250795" y1="261.904748693689" x2="298.07358778916364" y2="190.75757311536108" gradientTransform="matrix(0.014599322,0,0,0.022265378,-2.989340115,-4.51148158)"><stop stop-color="#63061a" /><stop offset="0.743915" stop-color="#c4213b" /><stop offset="1" stop-color="#63061a" /></linearGradient></defs><g>
<g>
	<g>
		<g transform="matrix(0.089895177,0.831085198,-0.831085198,0.089895177,500.148445064,138.480227556)">
			<path d="M226.5622472208171,238.5993842213055 C226.5622472208171,238.5993842213055 364.4108704023053,78.26609361774189 364.4108704023053,78.26609361774189 C364.4108704023053,78.26609361774189 430.6333618164061,43.900024414062464 430.6333618164061,43.900024414062464 C430.6333618164061,43.900024414062464 407.73773242645416,112.97441595551209 407.73773242645416,112.97441595551209 C407.73773242645416,112.97441595551209 261.75304309358535,262.9644137798299 261.75304309358535,262.9644137798299 C261.75304309358535,262.9644137798299 315.8388353796787,313.89956700122013 315.8388353796787,313.89956700122013 C315.8388353796787,313.89956700122013 276.19014115000385,315.18817624409877 276.19014115000385,315.18817624409877 C276.19014115000385,315.18817624409877 172.11639432091607,222.33681183967963 172.11639432091607,222.33681183967963 C172.11639432091607,222.33681183967963 176.3883118756379,187.1217515204769 176.3883118756379,187.1217515204769 C176.3883118756379,187.1217515204769 226.5622472208171,238.5993842213055 226.5622472208171,238.5993842213055 Z" transform="matrix(0.228458363,-1.237533814,1.237533814,0.228458363,-147.244277487,585.45284395)" fill="url('#6694447438835419048')" stroke="#000000" stroke-width="12" stroke-linecap="square" stroke-linejoin="round"/>
		</g>
		<g transform="matrix(0.089895177,0.831085198,-0.831085198,0.089895177,500.148445064,138.480227556)">
			<path d="M151.17928647062854,323.0113133640328 C151.17928647062854,323.0113133640328 116.61007951541924,382.46358584678035 116.61007951541924,382.46358584678035 C116.61007951541924,382.46358584678035 79.33160922436855,395.1812277405215 79.33160922436855,395.1812277405215 C79.33160922436855,395.1812277405215 82.20584836546213,438.0464227175794 83.33914914671213,438.0464227175794 C84.47244992796213,438.0464227175794 126.65943942269251,434.55874304155736 126.65943942269251,434.55874304155736 C126.65943942269251,434.55874304155736 132.86825060153444,399.71138132505865 132.86825060153444,399.71138132505865 C132.86825060153444,399.71138132505865 188.01216051587488,352.97184350105874 188.01216051587488,352.97184350105874 C188.01216051587488,352.97184350105874 151.17928647062854,323.0113133640328 151.17928647062854,323.0113133640328 Z" transform="matrix(0.249946991,-1.188595881,1.188595881,0.249946991,-191.683547429,507.26005485)" fill="url('#4249019713680139027')" stroke="#000000" stroke-width="12" stroke-linecap="square" stroke-linejoin="round"/>
		</g>
	</g>
	<g>
		<path d="M498.1168672635954,96.94804402140824 C498.1168672635954,96.94804402140824 406.45022701907453,290.45453752790166 406.45022701907453,290.45453752790166 C406.45022701907453,290.45453752790166 440.5844155844153,278.11687519023934 440.5844155844153,278.11687519023934 C440.5844155844153,278.11687519023934 435.64936650263775,375.1731575309455 435.64936650263775,375.1731575309455 C435.64936650263775,375.1731575309455 549.9999999999998,45.02165162718136 549.9999999999998,45.02165162718136 C549.9999999999998,45.02165162718136 222.2078001344357,164.19911570363223 222.2078001344357,164.19911570363223 C222.2078001344357,164.19911570363223 322.96538910308425,160.4978487089082 322.96538910308425,160.4978487089082 C322.96538910308425,160.4978487089082 306.47186675629035,191.12552791446825 306.47186675629035,191.12552791446825 C306.47186675629035,191.12552791446825 498.1168672635954,96.94804402140824 498.1168672635954,96.94804402140824 Z" fill="url('#13809012379670743760')" stroke="#000000" stroke-width="12" stroke-linecap="square" stroke-linejoin="round"/>
	</g>
	<g>
		<path d="M569.8051948051921,113.18181025517396 C569.8051948051921,113.18181025517396 696.4718509029998,71.64502825055777 696.4718509029998,71.64502825055777 C696.4718509029998,71.64502825055777 486.3203568892026,74.52380688159467 486.3203568892026,74.52380688159467 C486.3203568892026,74.52380688159467 569.8051948051921,113.18181025517396 569.8051948051921,113.18181025517396 Z" transform="matrix(1,0,0,1,-231.125551694,-25.497832856)" fill="url('#11215901300777790969')" stroke="#000000" stroke-width="12" stroke-linecap="square" stroke-linejoin="round"/>
	</g>
	<g>
		<path d="M631.1354704671215,212.357872809041 C631.1354704671215,212.357872809041 635.1968893633017,-2.0935845342216464 635.1968893633017,-2.0935845342216464 C635.1968893633017,-2.0935845342216464 593.8526710921149,124.26639382440588 593.8526710921149,124.26639382440588 C593.8526710921149,124.26639382440588 631.1354704671215,212.357872809041 631.1354704671215,212.357872809041 Z" transform="matrix(1,0,0,1,-83.073603642,132.012998903)" fill="url('#15202087998135665506')" stroke="#000000" stroke-width="12" stroke-linecap="square" stroke-linejoin="round"/>
	</g>
	<g>
		<path d="M675.0216397372064,44.19914344688285 C675.0216397372064,44.19914344688285 658.7878735034408,19.415580452260695 658.7878735034408,19.415580452260695 C658.7878735034408,19.415580452260695 633.6580350801457,87.5324794224299 633.6580350801457,87.5324794224299 C633.6580350801457,87.5324794224299 675.0216397372064,44.19914344688285 675.0216397372064,44.19914344688285 Z" transform="matrix(1,0,0,1,-280.064966772,304.328997723)" fill="url('#6983778233011895036')" stroke="#000000" stroke-width="12" stroke-linecap="square" stroke-linejoin="round"/>
	</g>
	<g>
		<path d="M684.0992886054185,39.46272487204528 C684.0992886054185,39.46272487204528 657.0475615593667,24.549598437404747 657.0475615593667,24.549598437404747 C657.0475615593667,24.549598437404747 615.6029567379213,69.46237724948087 615.6029567379213,69.46237724948087 C615.6029567379213,69.46237724948087 684.0992886054185,39.46272487204528 684.0992886054185,39.46272487204528 Z" transform="matrix(1,0,0,1,-410.844124138,178.073575899)" fill="url('#13529771545880009008')" stroke="#000000" stroke-width="12" stroke-linecap="square" stroke-linejoin="round"/>
	</g>
</g></g></svg>