<svg xmlns="http://www.w3.org/2000/svg" viewBox="0 0 744 1038" width="744" height="1038"><defs><clipPath id="alignment-1185199438097663014">
<path d="M36,66 C36,49.44645666662956 49.44645666662956,36 66,36 L750,36 C766.5535433333705,36 780,49.44645666662956 780,66 L780,1044 C780,1060.5535433333705 766.5535433333705,1074 750,1074 L66,1074 C49.44645666662956,1074 36,1060.5535433333705 36,1044 L36,66 Z" fill="#000000"/></clipPath><radialGradient id="4087313506159501851" cx="629.2199299042215" cy="800.1947613873972" r="591.7984072957931" gradientTransform="matrix(0.001449275,0,0,0.00101713,-0.091304348,-0.064361752)"><stop stop-color="#5f7470" /><stop offset="1" stop-color="#889696" /></radialGradient><radialGradient id="9065171358146593492" cx="360.15086202393576" cy="476.89752435285425" r="682.272955256596" gradientTransform="matrix(0.001529052,0,0,0.001054852,-0.123853211,-0.085292009)"><stop stop-color="#f1e9d2" /><stop offset="0.197226" stop-color="#e3d6bc" /><stop offset="1" stop-color="#ae8964" /></radialGradient><clipPath id="alignment-9972369503829732864">
<path d="M81,90.85682441700942 C81,85.33897663921925 85.48215222220983,80.85682441700942 91,80.85682441700942 L725,80.85682441700942 C730.5178477777902,80.85682441700942 735,85.33897663921925 735,90.85682441700942 L735,1018.8568244170094 C735,1024.3746721947996 730.5178477777902,1028.8568244170094 725,1028.8568244170094 L91,1028.8568244170094 C85.48215222220983,1028.8568244170094 81,1024.3746721947996 81,1018.8568244170094 L81,90.85682441700942 Z" fill="#000000"/></clipPath><linearGradient id="10697398595442256275" x1="568.9257019566758" y1="1115.4829933522137" x2="395.86892382155617" y2="272.5667493949701" gradientTransform="matrix(0.001449275,0,0,0.00101713,-0.091304348,-0.064507381)"><stop stop-color="#525a62" /><stop offset="1" stop-color="#6b7580" /></linearGradient><linearGradient id="17153041055984166051" x1="568.9257019566758" y1="1115.4829933522137" x2="395.86892382155617" y2="272.5667493949701" gradientTransform="matrix(0.001449275,0,0,0.00101713,-0.091304348,-0.064507381)"><stop stop-color="#1a316d" /><stop offset="1" stop-color="#0fa9c9" /></linearGradient><linearGradient id="15849106882837770567" x1="638.7925798791389" y1="510.653540880948" x2="155.7428516968344" y2="184.6756596289818" gradientTransform="matrix(0.0016353,0,0,0.002219887,-0.110447295,-0.271101504)"><stop stop-color="#181825" /><stop offset="0.998634" stop-color="#303342" /></linearGradient><linearGradient id="4833750312968370521" x1="74.05092705910641" y1="179.45921269979004" x2="719.3872711525289" y2="505.02571590872515" gradientTransform="matrix(0.001529052,0,0,0.002030006,-0.068807339,-0.20429411)"><stop stop-color="#ea8e2b" /><stop offset="0.454524" stop-color="#9a4819" /><stop offset="0.796613" stop-color="#ea8e2b" /><stop offset="1" stop-color="#9a4919" /></linearGradient><clipPath id="alignment-5883062732728806545">
<path d="M294.53951253616253,612.36480158275 C294.53951253616253,612.36480158275 303.76187408,621.88352548 303.76187408,621.88352548 C303.76187408,621.88352548 329.8491018541826,621.88352548 329.8491018541826,621.88352548 C329.84910185418266,621.8835254800001 371.99999999,633.24652259 371.99999999,633.24652259 C371.99999999,633.24652259 414.1508981258174,621.88352548 414.1508981258174,621.88352548 C414.1508981258174,621.88352548 445.84276122,621.88352548 445.84276122,621.88352548 C445.84276122,621.88352548 456.86242412622977,610.369394869009 456.86242412622977,610.369394869009 C456.8624241262298,610.369394869009 699,545.09418849 699,545.09418849 C699,545.09418849 699,228.78952026000002 699,228.78952026000002 C699,228.78952026000002 371.99999999,140.63718614 371.99999999,140.63718614 C371.99999999,140.63718614 44.99999998,228.78952026000002 44.99999998,228.78952026000002 C44.99999998,228.78952026000002 44.99999998,545.09418849 44.99999998,545.09418849 C44.99999998,545.09418849 294.5395125361626,612.3648015827501 294.53951253616253,612.36480158275 ZM297.26023169163483,587.9284276976583 C297.26023169163483,587.9284276976583 70.90244997,527.01610678 70.90244997,527.01610678 C70.90244997,527.01610678 70.90244997,244.07424938 70.90244997,244.07424938 C70.90244997,244.07424938 373.47443934,162.65287313000002 373.47443934,162.65287313000002 C373.47443934,162.65287313000002 674.06724536,243.0846577 674.06724536,243.0846577 C674.06724536,243.0846577 676.04642874,527.01610678 676.04642874,527.01610678 C676.04642874,527.01610678 451.7374913667833,587.3770887294697 451.7374913667833,587.3770887294697 C451.73749136678333,587.3770887294697 445.84276122,581.21785379 445.84276122,581.21785379 C445.84276122,581.21785379 303.76187408,581.21785379 303.76187408,581.21785379 C303.76187408,581.21785379 297.26023169163483,587.9284276976583 297.26023169163483,587.9284276976583 Z" fill="#000000"/></clipPath><mask id="mask-3014038151760928153" mask-type="alpha">
<g transform="matrix(1,0,0,1,0.00000001,-54.246522593)">
	<path d="M373.29386636677464,122.12398335630161 C373.29386636677464,122.12398335630161 677.0482447121124,203.40173263253632 677.0482447121124,203.40173263253632 C677.0482447121124,203.40173263253632 679.0482447121125,490.31951338452757 679.0482447121125,490.31951338452757 C679.0482447121125,490.31951338452757 373.29386636677464,572.5972626607622 373.29386636677464,572.5972626607622 C373.29386636677464,572.5972626607622 67.53948802143685,490.3195133845276 67.53948802143685,490.3195133845276 C67.53948802143685,490.3195133845276 67.53948802143668,204.40173263253644 67.53948802143668,204.40173263253644 C67.53948802143668,204.40173263253644 373.29386636677464,122.12398335630161 373.29386636677464,122.12398335630161 Z" transform="matrix(1,0,0,1,0,0)" fill="url('#15849106882837770567')" stroke="#303342" stroke-width="2"/>
</g>
<g transform="matrix(1,0,0,1,0.00000001,-54.246522593)">
	<path d="M294.53951253616253,612.36480158275 C294.53951253616253,612.36480158275 303.76187408,621.88352548 303.76187408,621.88352548 C303.76187408,621.88352548 329.8491018541826,621.88352548 329.8491018541826,621.88352548 C329.84910185418266,621.8835254800001 371.99999999,633.24652259 371.99999999,633.24652259 C371.99999999,633.24652259 414.1508981258174,621.88352548 414.1508981258174,621.88352548 C414.1508981258174,621.88352548 445.84276122,621.88352548 445.84276122,621.88352548 C445.84276122,621.88352548 456.86242412622977,610.369394869009 456.86242412622977,610.369394869009 C456.8624241262298,610.369394869009 699,545.09418849 699,545.09418849 C699,545.09418849 699,228.78952026000002 699,228.78952026000002 C699,228.78952026000002 371.99999999,140.63718614 371.99999999,140.63718614 C371.99999999,140.63718614 44.99999998,228.78952026000002 44.99999998,228.78952026000002 C44.99999998,228.78952026000002 44.99999998,545.09418849 44.99999998,545.09418849 C44.99999998,545.09418849 294.5395125361626,612.3648015827501 294.53951253616253,612.36480158275 ZM297.26023169163483,587.9284276976583 C297.26023169163483,587.9284276976583 70.90244997,527.01610678 70.90244997,527.01610678 C70.90244997,527.01610678 70.90244997,244.07424938 70.90244997,244.07424938 C70.90244997,244.07424938 373.47443934,162.65287313000002 373.47443934,162.65287313000002 C373.47443934,162.65287313000002 674.06724536,243.0846577 674.06724536,243.0846577 C674.06724536,243.0846577 676.04642874,527.01610678 676.04642874,527.01610678 C676.04642874,527.01610678 451.7374913667833,587.3770887294697 451.7374913667833,587.3770887294697 C451.73749136678333,587.3770887294697 445.84276122,581.21785379 445.84276122,581.21785379 C445.84276122,581.21785379 303.76187408,581.21785379 303.76187408,581.21785379 C303.76187408,581.21785379 297.26023169163483,587.9284276976583 297.26023169163483,587.9284276976583 Z" transform="matrix(1,0,0,1,0,-40)" fill="url('#4833750312968370521')"/>
	<path d="M294.53951253616253,612.36480158275 C294.53951253616253,612.36480158275 303.76187408,621.88352548 303.76187408,621.88352548 C303.76187408,621.88352548 329.8491018541826,621.88352548 329.8491018541826,621.88352548 C329.84910185418266,621.8835254800001 371.99999999,633.24652259 371.99999999,633.24652259 C371.99999999,633.24652259 414.1508981258174,621.88352548 414.1508981258174,621.88352548 C414.1508981258174,621.88352548 445.84276122,621.88352548 445.84276122,621.88352548 C445.84276122,621.88352548 456.86242412622977,610.369394869009 456.86242412622977,610.369394869009 C456.8624241262298,610.369394869009 699,545.09418849 699,545.09418849 C699,545.09418849 699,228.78952026000002 699,228.78952026000002 C699,228.78952026000002 371.99999999,140.63718614 371.99999999,140.63718614 C371.99999999,140.63718614 44.99999998,228.78952026000002 44.99999998,228.78952026000002 C44.99999998,228.78952026000002 44.99999998,545.09418849 44.99999998,545.09418849 C44.99999998,545.09418849 294.5395125361626,612.3648015827501 294.53951253616253,612.36480158275 ZM297.26023169163483,587.9284276976583 C297.26023169163483,587.9284276976583 70.90244997,527.01610678 70.90244997,527.01610678 C70.90244997,527.01610678 70.90244997,244.07424938 70.90244997,244.07424938 C70.90244997,244.07424938 373.47443934,162.65287313000002 373.47443934,162.65287313000002 C373.47443934,162.65287313000002 674.06724536,243.0846577 674.06724536,243.0846577 C674.06724536,243.0846577 676.04642874,527.01610678 676.04642874,527.01610678 C676.04642874,527.01610678 451.7374913667833,587.3770887294697 451.7374913667833,587.3770887294697 C451.73749136678333,587.3770887294697 445.84276122,581.21785379 445.84276122,581.21785379 C445.84276122,581.21785379 303.76187408,581.21785379 303.76187408,581.21785379 C303.76187408,581.21785379 297.26023169163483,587.9284276976583 297.26023169163483,587.9284276976583 Z" transform="matrix(1,0,0,1,0,-40)" clip-path="url(#alignment-5883062732728806545)" fill="none" stroke="#6f3a08" stroke-width="8"/>
</g></mask><linearGradient id="3513303322871954722" x1="638.7925798791389" y1="510.653540880948" x2="155.7428516968344" y2="184.6756596289818" gradientTransform="matrix(0.0016353,0,0,0.002219887,-0.110447295,-0.271101504)"><stop stop-color="#181825" /><stop offset="0.998634" stop-color="#303342" /></linearGradient><linearGradient id="10338025244074971169" x1="74.05092705910641" y1="179.45921269979004" x2="719.3872711525289" y2="505.02571590872515" gradientTransform="matrix(0.001529052,0,0,0.002030006,-0.068807339,-0.20429411)"><stop stop-color="#ea8e2b" /><stop offset="0.454524" stop-color="#9a4819" /><stop offset="0.796613" stop-color="#ea8e2b" /><stop offset="1" stop-color="#9a4919" /></linearGradient><clipPath id="alignment-11135390354854691233">
<path d="M294.53951253616253,612.36480158275 C294.53951253616253,612.36480158275 303.76187408,621.88352548 303.76187408,621.88352548 C303.76187408,621.88352548 329.8491018541826,621.88352548 329.8491018541826,621.88352548 C329.84910185418266,621.8835254800001 371.99999999,633.24652259 371.99999999,633.24652259 C371.99999999,633.24652259 414.1508981258174,621.88352548 414.1508981258174,621.88352548 C414.1508981258174,621.88352548 445.84276122,621.88352548 445.84276122,621.88352548 C445.84276122,621.88352548 456.86242412622977,610.369394869009 456.86242412622977,610.369394869009 C456.8624241262298,610.369394869009 699,545.09418849 699,545.09418849 C699,545.09418849 699,228.78952026000002 699,228.78952026000002 C699,228.78952026000002 371.99999999,140.63718614 371.99999999,140.63718614 C371.99999999,140.63718614 44.99999998,228.78952026000002 44.99999998,228.78952026000002 C44.99999998,228.78952026000002 44.99999998,545.09418849 44.99999998,545.09418849 C44.99999998,545.09418849 294.5395125361626,612.3648015827501 294.53951253616253,612.36480158275 ZM297.26023169163483,587.9284276976583 C297.26023169163483,587.9284276976583 70.90244997,527.01610678 70.90244997,527.01610678 C70.90244997,527.01610678 70.90244997,244.07424938 70.90244997,244.07424938 C70.90244997,244.07424938 373.47443934,162.65287313000002 373.47443934,162.65287313000002 C373.47443934,162.65287313000002 674.06724536,243.0846577 674.06724536,243.0846577 C674.06724536,243.0846577 676.04642874,527.01610678 676.04642874,527.01610678 C676.04642874,527.01610678 451.7374913667833,587.3770887294697 451.7374913667833,587.3770887294697 C451.73749136678333,587.3770887294697 445.84276122,581.21785379 445.84276122,581.21785379 C445.84276122,581.21785379 303.76187408,581.21785379 303.76187408,581.21785379 C303.76187408,581.21785379 297.26023169163483,587.9284276976583 297.26023169163483,587.9284276976583 Z" fill="#000000"/></clipPath></defs><g>
<g>
	<g>
		<g transform="matrix(1,0,0,1,-36,-36)">
			<path d="M36,66 C36,49.44645666662956 49.44645666662956,36 66,36 L750,36 C766.5535433333705,36 780,49.44645666662956 780,66 L780,1044 C780,1060.5535433333705 766.5535433333705,1074 750,1074 L66,1074 C49.44645666662956,1074 36,1060.5535433333705 36,1044 L36,66 Z" fill="#000000"/>
			<path d="M36,66 C36,49.44645666662956 49.44645666662956,36 66,36 L750,36 C766.5535433333705,36 780,49.44645666662956 780,66 L780,1044 C780,1060.5535433333705 766.5535433333705,1074 750,1074 L66,1074 C49.44645666662956,1074 36,1060.5535433333705 36,1044 L36,66 Z" clip-path="url(#alignment-1185199438097663014)" fill="none" stroke="#130e0a" stroke-width="4"/>
		</g>
		<g transform="matrix(1,0,0,1,-36,-36)">
			<g>
				<path d="M63.00000000015581,73.0897347965248 C63.00000000015581,67.67564627335815 67.36819919976512,63.27777777777766 72.74576271201585,63.27777777777766 L743.2542372879839,63.27777777777766 C748.6318008002345,63.27777777777766 752.9999999998438,67.67564627335815 752.9999999998438,73.0897347965248 L752.9999999998438,1036.6239140374942 C752.9999999998438,1042.0380025606607 748.6318008002345,1046.4358710562412 743.2542372879839,1046.4358710562412 L72.74576271201585,1046.4358710562412 C67.36819919976512,1046.4358710562412 63.00000000015581,1042.0380025606607 63.00000000015581,1036.6239140374942 L63.00000000015581,73.0897347965248 Z" fill="url('#4087313506159501851')"/>
			</g>
			<g>
				<path d="M81,90.85682441700942 C81,85.33897663921925 85.48215222220983,80.85682441700942 91,80.85682441700942 L725,80.85682441700942 C730.5178477777902,80.85682441700942 735,85.33897663921925 735,90.85682441700942 L735,1018.8568244170094 C735,1024.3746721947996 730.5178477777902,1028.8568244170094 725,1028.8568244170094 L91,1028.8568244170094 C85.48215222220983,1028.8568244170094 81,1024.3746721947996 81,1018.8568244170094 L81,90.85682441700942 Z" fill="url('#9065171358146593492')"/>
				<path d="M81,90.85682441700942 C81,85.33897663921925 85.48215222220983,80.85682441700942 91,80.85682441700942 L725,80.85682441700942 C730.5178477777902,80.85682441700942 735,85.33897663921925 735,90.85682441700942 L735,1018.8568244170094 C735,1024.3746721947996 730.5178477777902,1028.8568244170094 725,1028.8568244170094 L91,1028.8568244170094 C85.48215222220983,1028.8568244170094 81,1024.3746721947996 81,1018.8568244170094 L81,90.85682441700942 Z" clip-path="url(#alignment-9972369503829732864)" fill="none" stroke="#130e0a" stroke-width="4"/>
			</g>
			<g>
				<g>
					<path d="M458.56166731391534,1028.8568244150001 C458.56166731,1028.85682442 445.64021992,1012.3555736000001 445.64021992,1012.3555736000001 C445.64021992,1012.3555736000001 371.61914922,1012.3555736000001 371.61914922,1012.3555736000001 C371.61914922,1012.3555736000001 358.53825542,1028.85682442 358.53825542,1028.85682442 C358.53825543932686,1028.85682441 91,1028.85682441 91,1028.85682441 C85.48215222,1028.85682441 81,1024.37467219 81,1018.8568244200001 C81,1018.8568244200001 81,90.85682442 81,90.85682442 C81,85.33897664 85.48215222,80.85682441 91,80.85682441 C91,80.85682441 725,80.85682441 725,80.85682441 C730.51784778,80.85682441 735,85.33897664 735,90.85682442 C735,90.85682442 735,1018.8568244200001 735,1018.8568244200001 C735,1024.37467219 730.51784778,1028.85682441 725,1028.85682441 C725,1028.85682441 458.5616673178307,1028.85682441 458.56166731391534,1028.8568244150001 ZM63,73.23291038 C63,73.23291038 63,1036.76708962 63,1036.76708962 C63,1042.18117815 67.3681992,1046.5790466400001 72.74576271000001,1046.5790466400001 C72.74576271000001,1046.5790466400001 743.25423729,1046.5790466400001 743.25423729,1046.5790466400001 C748.6318008000001,1046.5790466400001 753,1042.18117815 753,1036.76708962 C753,1036.76708962 753,73.23291038 753,73.23291038 C753,67.81882185 748.6318008000001,63.42095336 743.25423729,63.42095336 C743.25423729,63.42095336 72.74576271000001,63.42095336 72.74576271000001,63.42095336 C67.3681992,63.42095336 63,67.81882185 63,73.23291038 Z" fill="url('#10697398595442256275')" stroke="#000000" stroke-width="4" style="paint-order: stroke;" />
				</g>
			</g>
			<g>
				<g>
					<path d="M458.56166731391534,1028.8568244150001 C458.56166731,1028.85682442 445.64021992,1012.3555736000001 445.64021992,1012.3555736000001 C445.64021992,1012.3555736000001 371.61914922,1012.3555736000001 371.61914922,1012.3555736000001 C371.61914922,1012.3555736000001 358.53825542,1028.85682442 358.53825542,1028.85682442 C358.53825543932686,1028.85682441 91,1028.85682441 91,1028.85682441 C85.48215222,1028.85682441 81,1024.37467219 81,1018.8568244200001 C81,1018.8568244200001 81,90.85682442 81,90.85682442 C81,85.33897664 85.48215222,80.85682441 91,80.85682441 C91,80.85682441 725,80.85682441 725,80.85682441 C730.51784778,80.85682441 735,85.33897664 735,90.85682442 C735,90.85682442 735,1018.8568244200001 735,1018.8568244200001 C735,1024.37467219 730.51784778,1028.85682441 725,1028.85682441 C725,1028.85682441 458.5616673178307,1028.85682441 458.56166731391534,1028.8568244150001 ZM63,73.23291038 C63,73.23291038 63,1036.76708962 63,1036.76708962 C63,1042.18117815 67.3681992,1046.5790466400001 72.74576271000001,1046.5790466400001 C72.74576271000001,1046.5790466400001 743.25423729,1046.5790466400001 743.25423729,1046.5790466400001 C748.6318008000001,1046.5790466400001 753,1042.18117815 753,1036.76708962 C753,1036.76708962 753,73.23291038 753,73.23291038 C753,67.81882185 748.6318008000001,63.42095336 743.25423729,63.42095336 C743.25423729,63.42095336 72.74576271000001,63.42095336 72.74576271000001,63.42095336 C67.3681992,63.42095336 63,67.81882185 63,73.23291038 Z" fill="url('#17153041055984166051')" stroke="#000000" stroke-width="4" style="paint-order: stroke;" />
				</g>
				<g>
					<g transform="matrix(0.072691057,0,0,0.072691057,381.717092568,958.83494072)">
						<g transform="matrix(1,0,0,1,0,0)">
							<g>
								<g>
									<g>
										<path d="M383.3110824589945,895.5594830299418 C383.3110824589945,895.5594830299418 263.1040002034041,852.3711223469514 204.15139404729132,914.3365737541093 C150.51481202559023,970.7143186902734 309.19850655300945,1115.8841832369676 309.19850655300945,1115.8841832369676 C309.19850655300945,1115.8841832369676 239.69637138875817,1022.9404918313562 256.96909325362515,1011.0140479692471 C256.96909325362515,1011.0140479692471 271.17984305883067,1041.1629750654633 348.0846204046853,1092.5698998603339 C348.0846204046853,1092.5698998603339 355.68471734226307,1047.6032382776634 355.68471734226307,1047.6032382776634 C348.3144037399526,1043.3747264149683 165.64873323327618,944.0875949143914 383.3110824589945,895.5594830299418 C383.3110824589945,895.5594830299418 383.3110824589945,895.5594830299418 383.3110824589945,895.5594830299418 Z" fill="#40bee2"/>
									</g>
								</g>
							</g>
							<g>
								<g>
									<g>
										<path d="M510.8002775110127,961.7716179620901 C510.8002775110127,961.7716179620901 627.2357598630693,1043.5459068788255 558.3513410734182,1107.1365751162157 C516.337787290489,1145.9213737219375 410.69200320239463,1114.1092883838473 410.69200320239463,1114.1092883838473 C410.69200320239463,1114.1092883838473 435.77864136552455,1073.806245054553 435.77864136552455,1073.806245054553 C505.02462270863964,1088.8035411924452 577.4236605096103,1076.9231534495852 510.8002775110127,961.7716179620901 C510.8002775110127,961.7716179620901 510.8002775110127,961.7716179620901 510.8002775110127,961.7716179620901 Z" fill="#40bee2"/>
									</g>
								</g>
							</g>
							<g>
								<g>
									<g>
										<g>
											<path d="M394.0448499544824,1008.7558160714639 C394.0448499544824,1008.7558160714639 455.7094699248188,817.2023267458525 455.7094699248188,817.2023267458525 C455.7094699248188,817.2023267458525 501.0939089134714,762.5939762377669 501.0939089134714,762.5939762377669 C501.0939089134714,762.5939762377669 511.35505282355155,827.3956645547086 511.35505282355155,827.3956645547086 C511.35505282355155,827.3956645547086 433.9116132097166,1017.1237442786836 433.9116132097166,1017.1237442786836 C433.9116132097166,1017.1237442786836 500.1673050201713,1041.8143720870335 500.1673050201713,1041.8143720870335 C500.1673050201713,1041.8143720870335 465.868859688671,1057.5934353091538 465.868859688671,1057.5934353091538 C465.868859688671,1057.5934353091538 340.2837254311904,1014.6083848436123 340.2837254311904,1014.6083848436123 C340.2837254311904,1014.6083848436123 331.0196833363349,982.1440980385308 331.0196833363349,982.1440980385308 C331.0196833363349,982.1440980385308 394.0448499544824,1008.7558160714639 394.0448499544824,1008.7558160714639 C394.0448499544824,1008.7558160714639 394.0448499544824,1008.7558160714639 394.0448499544824,1008.7558160714639 Z" fill="#40bee2"/>
										</g>
									</g>
								</g>
								<g>
									<g>
										<g>
											<path d="M375.8082433426322,1048.1015082903727 C375.8082433426322,1048.1015082903727 366.1996047238832,1110.5368009248418 366.1996047238832,1110.5368009248418 C366.1996047238832,1110.5368009248418 338.5919430730779,1133.9204030381698 338.5919430730779,1133.9204030381698 C338.5919430730779,1133.9204030381698 355.43359237396146,1169.6081313152 356.402629816837,1169.227836588664 C357.3716672597126,1168.8475418621283 392.27363643050614,1151.7089557153167 392.27363643050614,1151.7089557153167 C392.27363643050614,1151.7089557153167 385.8890223235618,1119.8290093167566 385.8890223235618,1119.8290093167566 C385.8890223235618,1119.8290093167566 417.35613200546925,1061.3596918937646 417.35613200546925,1061.3596918937646 C417.35613200546925,1061.3596918937646 375.8082433426322,1048.1015082903727 375.8082433426322,1048.1015082903727 C375.8082433426322,1048.1015082903727 375.8082433426322,1048.1015082903727 375.8082433426322,1048.1015082903727 Z" fill="#40bee2"/>
										</g>
									</g>
								</g>
							</g>
							<g>
								<g>
									<g>
										<path d="M321.9907240252502,853.3516918932922 C59.17686767092665,783.936123171052 172.68335384263776,997.3777017006331 172.68335384263776,997.3777017006331 C159.89117476715126,942.7239893329545 158.20952858605517,901.0748551250842 201.01670877207255,874.8668621550256 C249.37059566088794,845.2629734860599 321.9907240252502,853.3516918932922 321.9907240252502,853.3516918932922 C321.9907240252502,853.3516918932922 321.9907240252502,853.3516918932922 321.9907240252502,853.3516918932922 Z" fill="#40bee2"/>
									</g>
								</g>
							</g>
							<g>
								<g>
									<g>
										<path d="M456.882445405794,1150.9058128433742 C701.9906805185472,1225.3430612500872 606.6226893108917,1037.8538811392223 606.6226893108917,1037.8538811392223 C647.2936700874446,1188.741308556598 456.882445405794,1150.9058128433742 456.882445405794,1150.9058128433742 C456.882445405794,1150.9058128433742 456.882445405794,1150.9058128433742 456.882445405794,1150.9058128433742 Z" fill="#40bee2"/>
									</g>
								</g>
							</g>
							<g>
								<g>
									<g>
										<path d="M407.839410565755,887.6118358049738 C329.1690838267433,729.6718797784023 250.0106651921029,815.020460533451 250.0106651921029,815.020460533451 C332.05450314227994,793.0951232325925 407.839410565755,887.6118358049738 407.839410565755,887.6118358049738 C407.839410565755,887.6118358049738 407.839410565755,887.6118358049738 407.839410565755,887.6118358049738 Z" fill="#40bee2"/>
									</g>
								</g>
							</g>
						</g>
					</g>
				</g>
			</g>
		</g>
	</g>
	<g>
		<g transform="matrix(1,0,0,1,0.00000001,-54.246522593)">
			<path d="M373.29386636677464,122.12398335630161 C373.29386636677464,122.12398335630161 677.0482447121124,203.40173263253632 677.0482447121124,203.40173263253632 C677.0482447121124,203.40173263253632 679.0482447121125,490.31951338452757 679.0482447121125,490.31951338452757 C679.0482447121125,490.31951338452757 373.29386636677464,572.5972626607622 373.29386636677464,572.5972626607622 C373.29386636677464,572.5972626607622 67.53948802143685,490.3195133845276 67.53948802143685,490.3195133845276 C67.53948802143685,490.3195133845276 67.53948802143668,204.40173263253644 67.53948802143668,204.40173263253644 C67.53948802143668,204.40173263253644 373.29386636677464,122.12398335630161 373.29386636677464,122.12398335630161 Z" transform="matrix(1,0,0,1,0,0)" fill="url('#3513303322871954722')" stroke="#303342" stroke-width="2"/>
		</g>
		<g transform="matrix(1,0,0,1,0.00000001,-54.246522593)">
			<path d="M294.53951253616253,612.36480158275 C294.53951253616253,612.36480158275 303.76187408,621.88352548 303.76187408,621.88352548 C303.76187408,621.88352548 329.8491018541826,621.88352548 329.8491018541826,621.88352548 C329.84910185418266,621.8835254800001 371.99999999,633.24652259 371.99999999,633.24652259 C371.99999999,633.24652259 414.1508981258174,621.88352548 414.1508981258174,621.88352548 C414.1508981258174,621.88352548 445.84276122,621.88352548 445.84276122,621.88352548 C445.84276122,621.88352548 456.86242412622977,610.369394869009 456.86242412622977,610.369394869009 C456.8624241262298,610.369394869009 699,545.09418849 699,545.09418849 C699,545.09418849 699,228.78952026000002 699,228.78952026000002 C699,228.78952026000002 371.99999999,140.63718614 371.99999999,140.63718614 C371.99999999,140.63718614 44.99999998,228.78952026000002 44.99999998,228.78952026000002 C44.99999998,228.78952026000002 44.99999998,545.09418849 44.99999998,545.09418849 C44.99999998,545.09418849 294.5395125361626,612.3648015827501 294.53951253616253,612.36480158275 ZM297.26023169163483,587.9284276976583 C297.26023169163483,587.9284276976583 70.90244997,527.01610678 70.90244997,527.01610678 C70.90244997,527.01610678 70.90244997,244.07424938 70.90244997,244.07424938 C70.90244997,244.07424938 373.47443934,162.65287313000002 373.47443934,162.65287313000002 C373.47443934,162.65287313000002 674.06724536,243.0846577 674.06724536,243.0846577 C674.06724536,243.0846577 676.04642874,527.01610678 676.04642874,527.01610678 C676.04642874,527.01610678 451.7374913667833,587.3770887294697 451.7374913667833,587.3770887294697 C451.73749136678333,587.3770887294697 445.84276122,581.21785379 445.84276122,581.21785379 C445.84276122,581.21785379 303.76187408,581.21785379 303.76187408,581.21785379 C303.76187408,581.21785379 297.26023169163483,587.9284276976583 297.26023169163483,587.9284276976583 Z" transform="matrix(1,0,0,1,0,-40)" fill="url('#10338025244074971169')"/>
			<path d="M294.53951253616253,612.36480158275 C294.53951253616253,612.36480158275 303.76187408,621.88352548 303.76187408,621.88352548 C303.76187408,621.88352548 329.8491018541826,621.88352548 329.8491018541826,621.88352548 C329.84910185418266,621.8835254800001 371.99999999,633.24652259 371.99999999,633.24652259 C371.99999999,633.24652259 414.1508981258174,621.88352548 414.1508981258174,621.88352548 C414.1508981258174,621.88352548 445.84276122,621.88352548 445.84276122,621.88352548 C445.84276122,621.88352548 456.86242412622977,610.369394869009 456.86242412622977,610.369394869009 C456.8624241262298,610.369394869009 699,545.09418849 699,545.09418849 C699,545.09418849 699,228.78952026000002 699,228.78952026000002 C699,228.78952026000002 371.99999999,140.63718614 371.99999999,140.63718614 C371.99999999,140.63718614 44.99999998,228.78952026000002 44.99999998,228.78952026000002 C44.99999998,228.78952026000002 44.99999998,545.09418849 44.99999998,545.09418849 C44.99999998,545.09418849 294.5395125361626,612.3648015827501 294.53951253616253,612.36480158275 ZM297.26023169163483,587.9284276976583 C297.26023169163483,587.9284276976583 70.90244997,527.01610678 70.90244997,527.01610678 C70.90244997,527.01610678 70.90244997,244.07424938 70.90244997,244.07424938 C70.90244997,244.07424938 373.47443934,162.65287313000002 373.47443934,162.65287313000002 C373.47443934,162.65287313000002 674.06724536,243.0846577 674.06724536,243.0846577 C674.06724536,243.0846577 676.04642874,527.01610678 676.04642874,527.01610678 C676.04642874,527.01610678 451.7374913667833,587.3770887294697 451.7374913667833,587.3770887294697 C451.73749136678333,587.3770887294697 445.84276122,581.21785379 445.84276122,581.21785379 C445.84276122,581.21785379 303.76187408,581.21785379 303.76187408,581.21785379 C303.76187408,581.21785379 297.26023169163483,587.9284276976583 297.26023169163483,587.9284276976583 Z" transform="matrix(1,0,0,1,0,-40)" clip-path="url(#alignment-11135390354854691233)" fill="none" stroke="#6f3a08" stroke-width="8"/>
		</g>
	</g>
	<g mask="url(#mask-3014038151760928153)"/>
</g></g></svg>