<svg xmlns="http://www.w3.org/2000/svg" viewBox="0 0 744 1038" width="744" height="1038"><defs><clipPath id="alignment-8734353506010325311">
<path d="M36,66 C36,49.44645666662956 49.44645666662956,36 66,36 L750,36 C766.5535433333705,36 780,49.44645666662956 780,66 L780,1044 C780,1060.5535433333705 766.5535433333705,1074 750,1074 L66,1074 C49.44645666662956,1074 36,1060.5535433333705 36,1044 L36,66 Z" fill="#000000"/></clipPath><radialGradient id="7189094865908090066" cx="629.2199299042215" cy="800.1947613873972" r="591.7984072957931" gradientTransform="matrix(0.001449275,0,0,0.00101713,-0.091304348,-0.064361752)"><stop stop-color="#5f7470" /><stop offset="1" stop-color="#889696" /></radialGradient><radialGradient id="5815983921144502949" cx="360.15086202393576" cy="476.89752435285425" r="682.272955256596" gradientTransform="matrix(0.001529052,0,0,0.001054852,-0.123853211,-0.085292009)"><stop stop-color="#f1e9d2" /><stop offset="0.197226" stop-color="#e3d6bc" /><stop offset="1" stop-color="#ae8964" /></radialGradient><clipPath id="alignment-10115175198106082287">
<path d="M81,90.85682441700942 C81,85.33897663921925 85.48215222220983,80.85682441700942 91,80.85682441700942 L725,80.85682441700942 C730.5178477777902,80.85682441700942 735,85.33897663921925 735,90.85682441700942 L735,1018.8568244170094 C735,1024.3746721947996 730.5178477777902,1028.8568244170094 725,1028.8568244170094 L91,1028.8568244170094 C85.48215222220983,1028.8568244170094 81,1024.3746721947996 81,1018.8568244170094 L81,90.85682441700942 Z" fill="#000000"/></clipPath><linearGradient id="12325704361775142502" x1="691.2589616313808" y1="813.9904743141188" x2="779.922675512868" y2="535.9459244303209" gradientTransform="matrix(0.05,0,0,0.002575594,-36.65,-1.377942616)"><stop stop-color="#63061a" /><stop offset="1" stop-color="#c4213b" /></linearGradient><linearGradient id="13206673917014688382" x1="161.13354685160306" y1="886.8424684392071" x2="-56.24360041716848" y2="517.2225444562504" gradientTransform="matrix(0.05,0,0,0.002575594,-3.15,-1.377942616)"><stop stop-color="#63061a" /><stop offset="1" stop-color="#c4213b" /></linearGradient><radialGradient id="14537968657631665857" cx="407.90099619632326" cy="1068.760557985848" r="406.2509762496041" gradientTransform="matrix(0.002104452,0,0,0.029342467,-0.358619732,-29.705009907)"><stop offset="0.00765" stop-color="#63061a" /><stop offset="1" stop-color="#c4213b" /></radialGradient></defs><g>
<g>
	<g>
		<g transform="matrix(1,0,0,1,-36,-36)">
			<path d="M36,66 C36,49.44645666662956 49.44645666662956,36 66,36 L750,36 C766.5535433333705,36 780,49.44645666662956 780,66 L780,1044 C780,1060.5535433333705 766.5535433333705,1074 750,1074 L66,1074 C49.44645666662956,1074 36,1060.5535433333705 36,1044 L36,66 Z" fill="#000000"/>
			<path d="M36,66 C36,49.44645666662956 49.44645666662956,36 66,36 L750,36 C766.5535433333705,36 780,49.44645666662956 780,66 L780,1044 C780,1060.5535433333705 766.5535433333705,1074 750,1074 L66,1074 C49.44645666662956,1074 36,1060.5535433333705 36,1044 L36,66 Z" clip-path="url(#alignment-8734353506010325311)" fill="none" stroke="#130e0a" stroke-width="4"/>
		</g>
		<g transform="matrix(1,0,0,1,-36,-36)">
			<g>
				<path d="M63.00000000015581,73.0897347965248 C63.00000000015581,67.67564627335815 67.36819919976512,63.27777777777766 72.74576271201585,63.27777777777766 L743.2542372879839,63.27777777777766 C748.6318008002345,63.27777777777766 752.9999999998438,67.67564627335815 752.9999999998438,73.0897347965248 L752.9999999998438,1036.6239140374942 C752.9999999998438,1042.0380025606607 748.6318008002345,1046.4358710562412 743.2542372879839,1046.4358710562412 L72.74576271201585,1046.4358710562412 C67.36819919976512,1046.4358710562412 63.00000000015581,1042.0380025606607 63.00000000015581,1036.6239140374942 L63.00000000015581,73.0897347965248 Z" fill="url('#7189094865908090066')"/>
			</g>
			<g>
				<path d="M81,90.85682441700942 C81,85.33897663921925 85.48215222220983,80.85682441700942 91,80.85682441700942 L725,80.85682441700942 C730.5178477777902,80.85682441700942 735,85.33897663921925 735,90.85682441700942 L735,1018.8568244170094 C735,1024.3746721947996 730.5178477777902,1028.8568244170094 725,1028.8568244170094 L91,1028.8568244170094 C85.48215222220983,1028.8568244170094 81,1024.3746721947996 81,1018.8568244170094 L81,90.85682441700942 Z" fill="url('#5815983921144502949')"/>
				<path d="M81,90.85682441700942 C81,85.33897663921925 85.48215222220983,80.85682441700942 91,80.85682441700942 L725,80.85682441700942 C730.5178477777902,80.85682441700942 735,85.33897663921925 735,90.85682441700942 L735,1018.8568244170094 C735,1024.3746721947996 730.5178477777902,1028.8568244170094 725,1028.8568244170094 L91,1028.8568244170094 C85.48215222220983,1028.8568244170094 81,1024.3746721947996 81,1018.8568244170094 L81,90.85682441700942 Z" clip-path="url(#alignment-10115175198106082287)" fill="none" stroke="#130e0a" stroke-width="4"/>
			</g>
		</g>
	</g>
	<g>
		<g>
			<g transform="matrix(1,0,0,1,-36,-36)">
				<path d="M753.0000000000048,535.0000000000031 L753.0000000000048,901.9999999999998 C753.0000000000048,901.9999999999998 733.0000000000048,923.2599999999998 733.0000000000048,923.2599999999998 C733.0000000000048,923.2599999999998 732.9999999999998,559.2599999999999 732.9999999999998,559.2599999999999 L753.0000000000048,535.0000000000031 Z" fill="url('#12325704361775142502')"/>
			</g>
			<g transform="matrix(1,0,0,1,-36,-36)">
				<path d="M62.999999999999886,535.0000000000002 C62.999999999999886,535.0000000000002 63,902.0000000000002 63,902.0000000000002 C63,902.0000000000002 82.99999999999994,923.2599999999998 82.99999999999994,923.2599999999998 C82.99999999999994,923.2599999999998 82.99999999999983,558.2645864108044 82.99999999999983,558.2645864108044 L62.999999999999886,535.0000000000002 Z" fill="url('#13206673917014688382')"/>
			</g>
			<g transform="matrix(1,0,0,1,-36,-36)">
				<path d="M360.1236981142017,1026.8568244195296 C360.1236981142018,1026.8568244195296 170.40999999999977,1026.8568244195296 170.40999999999977,1026.8568244195296 C170.40999999999977,1026.8568244195296 185.28999999703368,1046.4358710562415 185.28999999703368,1046.4358710562415 C185.28999999703368,1046.4358710562415 630.3499999974574,1046.4358710562415 630.3499999974574,1046.4358710562415 C630.3499999974574,1046.4358710562415 645.5929999991523,1026.8568244195296 645.5929999991523,1026.8568244195296 C645.5929999991523,1026.8568244195296 456.99554998188967,1026.8568244195296 456.99554998188967,1026.8568244195296 C456.99554998188967,1026.8568244195296 445.6402199194913,1012.3555735991022 445.6402199194913,1012.3555735991022 C445.6402199194913,1012.3555735991022 371.61914921271165,1012.3555735991022 371.61914921271165,1012.3555735991022 C371.61914921271165,1012.3555735991022 360.1236981142017,1026.8568244195296 360.1236981142017,1026.8568244195296 Z" fill="url('#14537968657631665857')"/>
			</g>
			<g transform="matrix(1,0,0,1,-36,-36)">
				<g transform="matrix(0.071515499,0,0,0.071515499,400.818993321,989.41690705)">
					<g>
						<g>
							<g>
								<g>
									<g>
										<path d="M0.8525763398123445,634.5243765754271 C0.8525763398123445,634.5243765754271 158.06577503633903,477.16708340226705 158.06577503633903,477.16708340226705 C158.06577503633903,477.16708340226705 230.23724724117884,446.3223526528427 230.23724724117884,446.3223526528427 C230.23724724117884,446.3223526528427 200.78833735414506,516.9836357978493 200.78833735414506,516.9836357978493 C200.78833735414506,516.9836357978493 35.85332828014717,662.8508135263501 35.85332828014717,662.8508135263501 C35.85332828014717,662.8508135263501 88.58659298760077,720.535708283227 88.58659298760077,720.535708283227 C88.58659298760077,720.535708283227 46.892496108306574,718.7703163524166 46.892496108306574,718.7703163524166 C46.892496108306574,718.7703163524166 -54.98436462237041,613.1838609764336 -54.98436462237041,613.1838609764336 C-54.98436462237041,613.1838609764336 -47.734377700892395,576.5779515773111 -47.734377700892395,576.5779515773111 C-47.734377700892395,576.5779515773111 0.8525763398123445,634.5243765754271 0.8525763398123445,634.5243765754271 C0.8525763398123445,634.5243765754271 0.8525763398123445,634.5243765754271 0.8525763398123445,634.5243765754271 Z" fill="#e1414e"/>
									</g>
								</g>
							</g>
							<g>
								<g>
									<g>
										<path d="M-36.91942407267183,664.0383068997769 C-36.91942407267183,664.0383068997769 -77.84191458587597,720.6152677522966 -77.84191458587597,720.6152677522966 C-77.84191458587597,720.6152677522966 -116.78703603999438,729.7032121413406 -116.78703603999438,729.7032121413406 C-116.78703603999438,729.7032121413406 -118.20737837461397,773.2995961853958 -117.06241198020629,773.4139215467694 C-115.91744558579862,773.528246908143 -72.94437565254552,774.260423911445 -72.94437565254552,774.260423911445 C-72.94437565254552,774.260423911445 -63.15631015222138,739.68070653264 -63.15631015222138,739.68070653264 C-63.15631015222138,739.68070653264 -2.729777870709171,698.0228494551885 -2.729777870709171,698.0228494551885 C-2.729777870709171,698.0228494551885 -36.91942407267183,664.0383068997769 -36.91942407267183,664.0383068997769 C-36.91942407267183,664.0383068997769 -36.91942407267183,664.0383068997769 -36.91942407267183,664.0383068997769 Z" fill="#e1424f"/>
									</g>
								</g>
							</g>
						</g>
						<g>
							<g>
								<path d="M279.70611368608826,394.62432663526033 C279.70611368608826,394.62432663526033 188.0394571919477,588.1308116206119 188.0394571919477,588.1308116206119 C188.0394571919477,588.1308116206119 222.17364298296332,575.7931651362369 222.17364298296332,575.7931651362369 C222.17364298296332,575.7931651362369 217.23858438921332,672.8494395502994 217.23858438921332,672.8494395502994 C217.23858438921332,672.8494395502994 331.58923136186957,342.69793503369783 331.58923136186957,342.69793503369783 C331.58923136186957,342.69793503369783 3.7970255513226903,461.8753947504947 3.7970255513226903,461.8753947504947 C3.7970255513226903,461.8753947504947 104.55462442827582,458.17413132276033 104.55462442827582,458.17413132276033 C104.55462442827582,458.17413132276033 88.06109415483832,488.80181686963533 88.06109415483832,488.80181686963533 C88.06109415483832,488.80181686963533 279.70611368608826,394.62432663526033 279.70611368608826,394.62432663526033 C279.70611368608826,394.62432663526033 279.70611368608826,394.62432663526033 279.70611368608826,394.62432663526033 Z" fill="#e1424f"/>
							</g>
						</g>
						<g>
							<g>
								<g>
									<path d="M120.26885782671332,385.3602580317447 C120.26885782671332,385.3602580317447 246.93554483843207,343.82347672070955 246.93554483843207,343.82347672070955 C246.93554483843207,343.82347672070955 36.78402506304144,346.7022532710025 36.78402506304144,346.7022532710025 C36.78402506304144,346.7022532710025 120.26885782671332,385.3602580317447 120.26885782671332,385.3602580317447 C120.26885782671332,385.3602580317447 120.26885782671332,385.3602580317447 120.26885782671332,385.3602580317447 Z" fill="#e1424f"/>
								</g>
							</g>
						</g>
						<g>
							<g>
								<g>
									<path d="M329.6511286397016,642.0471629389713 C329.6511286397016,642.0471629389713 333.7125300068891,427.5956987627933 333.7125300068891,427.5956987627933 C333.7125300068891,427.5956987627933 292.3682917256391,553.955678869147 292.3682917256391,553.955678869147 C292.3682917256391,553.955678869147 329.6511286397016,642.0471629389713 329.6511286397016,642.0471629389713 C329.6511286397016,642.0471629389713 329.6511286397016,642.0471629389713 329.6511286397016,642.0471629389713 Z" fill="#e1424f"/>
								</g>
							</g>
						</g>
						<g>
							<g>
								<g>
									<path d="M176.5459269185102,646.2044352778385 C176.5459269185102,646.2044352778385 160.3121622700727,621.4208735712955 160.3121622700727,621.4208735712955 C160.3121622700727,621.4208735712955 135.1822794575727,689.5377711543033 135.1822794575727,689.5377711543033 C135.1822794575727,689.5377711543033 176.5459269185102,646.2044352778385 176.5459269185102,646.2044352778385 C176.5459269185102,646.2044352778385 176.5459269185102,646.2044352778385 176.5459269185102,646.2044352778385 Z" fill="#e1424f"/>
								</g>
							</g>
						</g>
						<g>
							<g>
								<g>
									<path d="M54.844419350150815,515.2125872858951 C54.844419350150815,515.2125872858951 27.792661537650815,500.2994593867252 27.792661537650815,500.2994593867252 C27.792661537650815,500.2994593867252 -13.651918540474185,545.2122401484439 -13.651918540474185,545.2122401484439 C-13.651918540474185,545.2122401484439 54.844419350150815,515.2125872858951 54.844419350150815,515.2125872858951 C54.844419350150815,515.2125872858951 54.844419350150815,515.2125872858951 54.844419350150815,515.2125872858951 Z" fill="#e1424f"/>
								</g>
							</g>
						</g>
					</g>
				</g>
			</g>
		</g>
	</g>
</g></g></svg>