<svg xmlns="http://www.w3.org/2000/svg" viewBox="0 0 743 1037" width="743" height="1037"><defs><clipPath id="alignment-10534633009827800223">
<path d="M36,66 C36,49.44645666662956 49.44645666662956,36 66,36 L750,36 C766.5535433333705,36 780,49.44645666662956 780,66 L780,1044 C780,1060.5535433333705 766.5535433333705,1074 750,1074 L66,1074 C49.44645666662956,1074 36,1060.5535433333705 36,1044 L36,66 Z" fill="#000000"/></clipPath><radialGradient id="14913192773418955585" cx="629.2199299042215" cy="800.1947613873972" r="591.7984072957931" gradientTransform="matrix(0.001449275,0,0,0.00101713,-0.091304348,-0.064361752)"><stop stop-color="#5f7470" /><stop offset="1" stop-color="#889696" /></radialGradient><radialGradient id="5696135692899742302" cx="360.15086202393576" cy="476.89752435285425" r="682.272955256596" gradientTransform="matrix(0.001529052,0,0,0.001054852,-0.123853211,-0.085292009)"><stop stop-color="#f1e9d2" /><stop offset="0.197226" stop-color="#e3d6bc" /><stop offset="1" stop-color="#ae8964" /></radialGradient><clipPath id="alignment-3235033404168402969">
<path d="M81,90.85682441700942 C81,85.33897663921925 85.48215222220983,80.85682441700942 91,80.85682441700942 L725,80.85682441700942 C730.5178477777902,80.85682441700942 735,85.33897663921925 735,90.85682441700942 L735,1018.8568244170094 C735,1024.3746721947996 730.5178477777902,1028.8568244170094 725,1028.8568244170094 L91,1028.8568244170094 C85.48215222220983,1028.8568244170094 81,1024.3746721947996 81,1018.8568244170094 L81,90.85682441700942 Z" fill="#000000"/></clipPath><linearGradient id="5086441326824001305" x1="676.0384843172128" y1="868.4113673078225" x2="779.922675512868" y2="535.9459244303209" gradientTransform="matrix(0.05,0,0,0.002575594,-36.65,-1.377942616)"><stop stop-color="#3b1767" /><stop offset="1" stop-color="#7e00bc" /></linearGradient><linearGradient id="12629458517698794251" x1="136.59553032412603" y1="877.3740694557712" x2="-56.24360041716848" y2="517.2225444562504" gradientTransform="matrix(0.05,0,0,0.002575594,-3.15,-1.377942616)"><stop stop-color="#3b1767" /><stop offset="1" stop-color="#7e00bc" /></linearGradient><radialGradient id="17877018665913790011" cx="407.90099619632326" cy="1068.760557985848" r="496.69987378600166" gradientTransform="matrix(0.002104452,0,0,0.029342467,-0.358619732,-29.705009907)"><stop stop-color="#3a1767" /><stop offset="1" stop-color="#7e00bc" /></radialGradient></defs><g>
<g>
	<g>
		<g transform="matrix(1,0,0,1,-36,-36)">
			<path d="M36,66 C36,49.44645666662956 49.44645666662956,36 66,36 L750,36 C766.5535433333705,36 780,49.44645666662956 780,66 L780,1044 C780,1060.5535433333705 766.5535433333705,1074 750,1074 L66,1074 C49.44645666662956,1074 36,1060.5535433333705 36,1044 L36,66 Z" fill="#000000"/>
			<path d="M36,66 C36,49.44645666662956 49.44645666662956,36 66,36 L750,36 C766.5535433333705,36 780,49.44645666662956 780,66 L780,1044 C780,1060.5535433333705 766.5535433333705,1074 750,1074 L66,1074 C49.44645666662956,1074 36,1060.5535433333705 36,1044 L36,66 Z" clip-path="url(#alignment-10534633009827800223)" fill="none" stroke="#130e0a" stroke-width="4"/>
		</g>
		<g transform="matrix(1,0,0,1,-36,-36)">
			<g>
				<path d="M63.00000000015581,73.0897347965248 C63.00000000015581,67.67564627335815 67.36819919976512,63.27777777777766 72.74576271201585,63.27777777777766 L743.2542372879839,63.27777777777766 C748.6318008002345,63.27777777777766 752.9999999998438,67.67564627335815 752.9999999998438,73.0897347965248 L752.9999999998438,1036.6239140374942 C752.9999999998438,1042.0380025606607 748.6318008002345,1046.4358710562412 743.2542372879839,1046.4358710562412 L72.74576271201585,1046.4358710562412 C67.36819919976512,1046.4358710562412 63.00000000015581,1042.0380025606607 63.00000000015581,1036.6239140374942 L63.00000000015581,73.0897347965248 Z" fill="url('#14913192773418955585')"/>
			</g>
			<g>
				<path d="M81,90.85682441700942 C81,85.33897663921925 85.48215222220983,80.85682441700942 91,80.85682441700942 L725,80.85682441700942 C730.5178477777902,80.85682441700942 735,85.33897663921925 735,90.85682441700942 L735,1018.8568244170094 C735,1024.3746721947996 730.5178477777902,1028.8568244170094 725,1028.8568244170094 L91,1028.8568244170094 C85.48215222220983,1028.8568244170094 81,1024.3746721947996 81,1018.8568244170094 L81,90.85682441700942 Z" fill="url('#5696135692899742302')"/>
				<path d="M81,90.85682441700942 C81,85.33897663921925 85.48215222220983,80.85682441700942 91,80.85682441700942 L725,80.85682441700942 C730.5178477777902,80.85682441700942 735,85.33897663921925 735,90.85682441700942 L735,1018.8568244170094 C735,1024.3746721947996 730.5178477777902,1028.8568244170094 725,1028.8568244170094 L91,1028.8568244170094 C85.48215222220983,1028.8568244170094 81,1024.3746721947996 81,1018.8568244170094 L81,90.85682441700942 Z" clip-path="url(#alignment-3235033404168402969)" fill="none" stroke="#130e0a" stroke-width="4"/>
			</g>
		</g>
	</g>
	<g>
		<g>
			<g transform="matrix(1,0,0,1,-36,-36)">
				<path d="M753.0000000000048,535.0000000000031 L753.0000000000048,901.9999999999998 C753.0000000000048,901.9999999999998 733.0000000000048,923.2599999999998 733.0000000000048,923.2599999999998 C733.0000000000048,923.2599999999998 732.9999999999998,559.2599999999999 732.9999999999998,559.2599999999999 L753.0000000000048,535.0000000000031 Z" fill="url('#5086441326824001305')"/>
			</g>
			<g transform="matrix(1,0,0,1,-36,-36)">
				<path d="M62.999999999999886,535.0000000000002 C62.999999999999886,535.0000000000002 63,902.0000000000002 63,902.0000000000002 C63,902.0000000000002 82.99999999999994,923.2599999999998 82.99999999999994,923.2599999999998 C82.99999999999994,923.2599999999998 82.99999999999983,558.2645864108044 82.99999999999983,558.2645864108044 L62.999999999999886,535.0000000000002 Z" fill="url('#12629458517698794251')"/>
			</g>
			<g transform="matrix(1,0,0,1,-36,-36)">
				<path d="M360.1236981142017,1026.8568244195296 C360.1236981142018,1026.8568244195296 170.40999999999977,1026.8568244195296 170.40999999999977,1026.8568244195296 C170.40999999999977,1026.8568244195296 185.28999999703368,1046.4358710562415 185.28999999703368,1046.4358710562415 C185.28999999703368,1046.4358710562415 630.3499999974574,1046.4358710562415 630.3499999974574,1046.4358710562415 C630.3499999974574,1046.4358710562415 645.5929999991523,1026.8568244195296 645.5929999991523,1026.8568244195296 C645.5929999991523,1026.8568244195296 456.99554998188967,1026.8568244195296 456.99554998188967,1026.8568244195296 C456.99554998188967,1026.8568244195296 445.6402199194913,1012.3555735991022 445.6402199194913,1012.3555735991022 C445.6402199194913,1012.3555735991022 371.61914921271165,1012.3555735991022 371.61914921271165,1012.3555735991022 C371.61914921271165,1012.3555735991022 360.1236981142017,1026.8568244195296 360.1236981142017,1026.8568244195296 Z" fill="url('#17877018665913790011')"/>
			</g>
			<g transform="matrix(1,0,0,1,-36,-36)">
				<g transform="matrix(0.059098704,0,0,0.059098704,390.839580379,1002.385080162)">
					<g>
						<g>
							<g>
								<path d="M227.43544667879723,339.3622864986378 C276.2180547110238,347.5102357173878 328.3614568106332,368.2319459224659 339.0150517813363,418.7869691158253 C364.1397771231332,399.7575349117237 376.5439519278207,358.20856945762216 382.1293095938363,312.81330578574716 C382.1293095938363,312.81330578574716 313.7576970450082,211.69167607078137 313.7576970450082,211.69167607078137 C313.7576970450082,211.69167607078137 227.43544667879723,339.3622864986378 227.43544667879723,339.3622864986378 C227.43544667879723,339.3622864986378 227.43544667879723,339.3622864986378 227.43544667879723,339.3622864986378 ZM195.00908559481286,387.32087414512216 C195.00908559481286,387.32087414512216 153.60775655428552,448.5534333492237 153.60775655428552,448.5534333492237 C153.60775655428552,448.5534333492237 175.54018300692223,481.7213410640675 203.17517751375817,523.2338532710987 C217.62871450106286,476.5907563472706 244.36960500399258,439.43777172813 291.80507558504723,431.28678601035654 C287.07655996004723,392.455593993755 237.93006032625817,385.6564454341847 195.00908559481286,387.32087414512216 C195.00908559481286,387.32087414512216 195.00908559481286,387.32087414512216 195.00908559481286,387.32087414512216 ZM242.64450734774258,582.3467683101612 C278.6126164786019,636.0220612789112 312.1484441153207,685.4151887203175 313.7576970450082,685.4151887203175 C315.98593801180505,685.4151887203175 379.4251164786019,590.7166413570362 425.77683156649255,521.0755891109425 C389.7779607168832,520.0421723628956 343.7012395254769,513.4965180660206 316.1346501700082,489.5776948238331 C313.4566716543832,489.8335541988331 310.7213048330941,489.9995698238331 307.9273747793832,490.0726594234425 C265.69528859774255,491.17736523398935 248.2550420157113,532.5362824703175 242.64450734774258,582.3467683101612 C242.64450734774258,582.3467683101612 242.64450734774258,582.3467683101612 242.64450734774258,582.3467683101612 ZM458.5077580801644,471.80349438438 C468.0223454825082,457.45361035117685 473.9076299063363,448.5534333492237 473.9076299063363,448.5534333492237 C473.9076299063363,448.5534333492237 422.59335988680505,372.65961926230966 422.59335988680505,372.65961926230966 C412.4260930411019,412.2953156734425 395.6781377188363,447.4334687496144 368.7870549551644,468.71899121055185 C395.71738332430505,478.37707226523935 435.6850957266488,474.97195141563 458.5077580801644,471.80349438438 C458.5077580801644,471.80349438438 458.5077580801644,471.80349438438 458.5077580801644,471.80349438438 Z" fill="#d25be8"/>
							</g>
						</g>
					</g>
				</g>
			</g>
		</g>
	</g>
</g></g></svg>