<svg xmlns="http://www.w3.org/2000/svg" viewBox="0 0 744 1038" width="744" height="1038"><defs><clipPath id="alignment-8925967873422305767">
<path d="M36,66 C36,49.44645666662956 49.44645666662956,36 66,36 L750,36 C766.5535433333705,36 780,49.44645666662956 780,66 L780,1044 C780,1060.5535433333705 766.5535433333705,1074 750,1074 L66,1074 C49.44645666662956,1074 36,1060.5535433333705 36,1044 L36,66 Z" fill="#000000"/></clipPath><radialGradient id="16421748762278867767" cx="629.2199299042215" cy="800.1947613873972" r="591.7984072957931" gradientTransform="matrix(0.001449275,0,0,0.00101713,-0.091304348,-0.064361752)"><stop stop-color="#5f7470" /><stop offset="1" stop-color="#889696" /></radialGradient><radialGradient id="11538951455685002107" cx="360.15086202393576" cy="476.89752435285425" r="682.272955256596" gradientTransform="matrix(0.001529052,0,0,0.001054852,-0.123853211,-0.085292009)"><stop stop-color="#f1e9d2" /><stop offset="0.197226" stop-color="#e3d6bc" /><stop offset="1" stop-color="#ae8964" /></radialGradient><clipPath id="alignment-2027273388421319705">
<path d="M81,90.85682441700942 C81,85.33897663921925 85.48215222220983,80.85682441700942 91,80.85682441700942 L725,80.85682441700942 C730.5178477777902,80.85682441700942 735,85.33897663921925 735,90.85682441700942 L735,1018.8568244170094 C735,1024.3746721947996 730.5178477777902,1028.8568244170094 725,1028.8568244170094 L91,1028.8568244170094 C85.48215222220983,1028.8568244170094 81,1024.3746721947996 81,1018.8568244170094 L81,90.85682441700942 Z" fill="#000000"/></clipPath><linearGradient id="4086308596581201642" x1="676.1542120277669" y1="883.2242679635817" x2="779.922675512868" y2="535.9459244303209" gradientTransform="matrix(0.05,0,0,0.002575594,-36.65,-1.377942616)"><stop stop-color="#9b4e12" /><stop offset="1" stop-color="#ef8f1e" /></linearGradient><linearGradient id="968611309807879489" x1="162.41265740238907" y1="933.387594377471" x2="-56.24360041716848" y2="517.2225444562504" gradientTransform="matrix(0.05,0,0,0.002575594,-3.15,-1.377942616)"><stop stop-color="#9b4e12" /><stop offset="0.998634" stop-color="#ef8f1e" /></linearGradient><radialGradient id="15484003360994173119" cx="403.6013392910648" cy="966.2157507984205" r="277.85626682550037" gradientTransform="matrix(0.002104452,0,0,0.029342467,-0.358619732,-29.705009907)"><stop stop-color="#9b4e12" /><stop offset="1" stop-color="#ef8f1e" /></radialGradient><linearGradient id="15776497881397281688" x1="676.1542120277669" y1="883.2242679635817" x2="779.922675512868" y2="535.9459244303209" gradientTransform="matrix(0.05,0,0,0.002575594,-36.65,-1.377942616)"><stop stop-color="#da912a" /><stop offset="1" stop-color="#f9e85a" /></linearGradient><linearGradient id="5018885351428963747" x1="162.41265740238907" y1="933.387594377471" x2="-56.24360041716848" y2="517.2225444562504" gradientTransform="matrix(0.05,0,0,0.002575594,-3.15,-1.377942616)"><stop stop-color="#da912a" /><stop offset="0.998634" stop-color="#f9e85a" /></linearGradient><radialGradient id="5574023178739380442" cx="403.6013392910648" cy="966.2157507984205" r="277.85626682550037" gradientTransform="matrix(0.002104452,0,0,0.029342467,-0.358619732,-29.705009907)"><stop stop-color="#da912a" /><stop offset="1" stop-color="#f9e85a" /></radialGradient><linearGradient id="368666297686457762" x1="676.1542120277669" y1="883.2242679635817" x2="779.922675512868" y2="535.9459244303209" gradientTransform="matrix(0.05,0,0,0.002575594,-36.65,-1.377942616)"><stop stop-color="#9b4e12" /><stop offset="1" stop-color="#cdbc0f" /></linearGradient><linearGradient id="825363221505340605" x1="162.41265740238907" y1="933.387594377471" x2="-56.24360041716848" y2="517.2225444562504" gradientTransform="matrix(0.05,0,0,0.002575594,-3.15,-1.377942616)"><stop stop-color="#9b4e12" /><stop offset="0.998634" stop-color="#cdbc0f" /></linearGradient><radialGradient id="9050481087011787233" cx="403.6013392910648" cy="966.2157507984205" r="277.85626682550037" gradientTransform="matrix(0.002104452,0,0,0.029342467,-0.358619732,-29.705009907)"><stop stop-color="#9b4e12" /><stop offset="1" stop-color="#cdbc0f" /></radialGradient></defs><g>
<g>
	<g>
		<g transform="matrix(1,0,0,1,-36,-36)">
			<path d="M36,66 C36,49.44645666662956 49.44645666662956,36 66,36 L750,36 C766.5535433333705,36 780,49.44645666662956 780,66 L780,1044 C780,1060.5535433333705 766.5535433333705,1074 750,1074 L66,1074 C49.44645666662956,1074 36,1060.5535433333705 36,1044 L36,66 Z" fill="#000000"/>
			<path d="M36,66 C36,49.44645666662956 49.44645666662956,36 66,36 L750,36 C766.5535433333705,36 780,49.44645666662956 780,66 L780,1044 C780,1060.5535433333705 766.5535433333705,1074 750,1074 L66,1074 C49.44645666662956,1074 36,1060.5535433333705 36,1044 L36,66 Z" clip-path="url(#alignment-8925967873422305767)" fill="none" stroke="#130e0a" stroke-width="4"/>
		</g>
		<g transform="matrix(1,0,0,1,-36,-36)">
			<g>
				<path d="M63.00000000015581,73.0897347965248 C63.00000000015581,67.67564627335815 67.36819919976512,63.27777777777766 72.74576271201585,63.27777777777766 L743.2542372879839,63.27777777777766 C748.6318008002345,63.27777777777766 752.9999999998438,67.67564627335815 752.9999999998438,73.0897347965248 L752.9999999998438,1036.6239140374942 C752.9999999998438,1042.0380025606607 748.6318008002345,1046.4358710562412 743.2542372879839,1046.4358710562412 L72.74576271201585,1046.4358710562412 C67.36819919976512,1046.4358710562412 63.00000000015581,1042.0380025606607 63.00000000015581,1036.6239140374942 L63.00000000015581,73.0897347965248 Z" fill="url('#16421748762278867767')"/>
			</g>
			<g>
				<path d="M81,90.85682441700942 C81,85.33897663921925 85.48215222220983,80.85682441700942 91,80.85682441700942 L725,80.85682441700942 C730.5178477777902,80.85682441700942 735,85.33897663921925 735,90.85682441700942 L735,1018.8568244170094 C735,1024.3746721947996 730.5178477777902,1028.8568244170094 725,1028.8568244170094 L91,1028.8568244170094 C85.48215222220983,1028.8568244170094 81,1024.3746721947996 81,1018.8568244170094 L81,90.85682441700942 Z" fill="url('#11538951455685002107')"/>
				<path d="M81,90.85682441700942 C81,85.33897663921925 85.48215222220983,80.85682441700942 91,80.85682441700942 L725,80.85682441700942 C730.5178477777902,80.85682441700942 735,85.33897663921925 735,90.85682441700942 L735,1018.8568244170094 C735,1024.3746721947996 730.5178477777902,1028.8568244170094 725,1028.8568244170094 L91,1028.8568244170094 C85.48215222220983,1028.8568244170094 81,1024.3746721947996 81,1018.8568244170094 L81,90.85682441700942 Z" clip-path="url(#alignment-2027273388421319705)" fill="none" stroke="#130e0a" stroke-width="4"/>
			</g>
		</g>
	</g>
	<g>
		<g>
			<g transform="matrix(1,0,0,1,-36,-36)">
				<path d="M753.0000000000048,535.0000000000031 L753.0000000000048,901.9999999999998 C753.0000000000048,901.9999999999998 733.0000000000048,923.2599999999998 733.0000000000048,923.2599999999998 C733.0000000000048,923.2599999999998 732.9999999999998,559.2599999999999 732.9999999999998,559.2599999999999 L753.0000000000048,535.0000000000031 Z" fill="url('#4086308596581201642')"/>
			</g>
			<g transform="matrix(1,0,0,1,-36,-36)">
				<path d="M62.999999999999886,535.0000000000002 C62.999999999999886,535.0000000000002 63,902.0000000000002 63,902.0000000000002 C63,902.0000000000002 82.99999999999994,923.2599999999998 82.99999999999994,923.2599999999998 C82.99999999999994,923.2599999999998 82.99999999999983,558.2645864108044 82.99999999999983,558.2645864108044 L62.999999999999886,535.0000000000002 Z" fill="url('#968611309807879489')"/>
			</g>
			<g transform="matrix(1,0,0,1,-36,-36)">
				<path d="M360.1236981142017,1026.8568244195296 C360.1236981142018,1026.8568244195296 170.40999999999977,1026.8568244195296 170.40999999999977,1026.8568244195296 C170.40999999999977,1026.8568244195296 185.28999999703368,1046.4358710562415 185.28999999703368,1046.4358710562415 C185.28999999703368,1046.4358710562415 630.3499999974574,1046.4358710562415 630.3499999974574,1046.4358710562415 C630.3499999974574,1046.4358710562415 645.5929999991523,1026.8568244195296 645.5929999991523,1026.8568244195296 C645.5929999991523,1026.8568244195296 456.99554998188967,1026.8568244195296 456.99554998188967,1026.8568244195296 C456.99554998188967,1026.8568244195296 445.6402199194913,1012.3555735991022 445.6402199194913,1012.3555735991022 C445.6402199194913,1012.3555735991022 371.61914921271165,1012.3555735991022 371.61914921271165,1012.3555735991022 C371.61914921271165,1012.3555735991022 360.1236981142017,1026.8568244195296 360.1236981142017,1026.8568244195296 Z" fill="url('#15484003360994173119')"/>
			</g>
			<g transform="matrix(1,0,0,1,-36,-36)">
				<g transform="matrix(0.065322245,0,0,0.065322245,393.487635959,975.636104462)">
					<g>
						<g>
							<g>
								<g>
									<path d="M389.8636464808103,682.6059842930853 C389.8636464808103,682.6059842930853 363.7091218836601,750.0675551061029 268.98742227701376,774.1131750864522 C268.98742227701376,774.1131750864522 272.4426881069027,801.6222811950113 272.4426881069027,801.6222811950113 C407.3111108140626,763.5585067845011 389.8636464808103,682.6059842930853 389.8636464808103,682.6059842930853 C389.8636464808103,682.6059842930853 389.8636464808103,682.6059842930853 389.8636464808103,682.6059842930853 Z" fill="#f5ad50"/>
								</g>
							</g>
						</g>
						<g>
							<g>
								<g>
									<path d="M133.96607791439118,885.9355228866266 C133.96607791439118,885.9355228866266 75.40429577011552,893.3012866728689 74.5432881180656,856.4020451049687 C74.14287788202516,839.24250876626 107.9925678010656,802.2377955599263 191.41294118736658,786.3000884902201 C191.41294118736658,786.3000884902201 187.74288530195844,819.4563129282967 187.74288530195844,819.4563129282967 C37.56723242208379,853.0929861227235 133.96607791439118,885.9355228866266 133.96607791439118,885.9355228866266 C133.96607791439118,885.9355228866266 133.96607791439118,885.9355228866266 133.96607791439118,885.9355228866266 Z" fill="#f5ad50"/>
								</g>
							</g>
						</g>
						<g>
							<g>
								<g>
									<g>
										<path d="M246.93398475347993,732.1129577871677 C246.93398475347993,732.1129577871677 262.93399294745427,892.1129475285632 262.93399294745427,892.1129475285632 C262.93399294745427,892.1129475285632 230.93397970012643,908.1129607609344 230.93397970012643,908.1129607609344 C230.93397970012643,908.1129607609344 198.93398356440753,892.112964929607 198.93398356440753,892.112964929607 C198.93398356440753,892.112964929607 214.93396512177492,732.1129506356799 214.93396512177492,732.1129506356799 C214.93396512177492,732.1129506356799 140.41191350387157,732.1129680671818 140.41191350387157,732.1129680671818 C140.41191350387157,732.1129680671818 166.93397964268547,711.6581710731805 166.93397964268547,711.6581710731805 C166.93397964268547,711.6581710731805 299.84006426863994,711.1960521244853 299.84006426863994,711.1960521244853 C299.84006426863994,711.1960521244853 319.0176419981806,732.1129534999034 319.0176419981806,732.1129534999034 C319.0176419981806,732.1129534999034 246.93398475347993,732.1129577871677 246.93398475347993,732.1129577871677 C246.93398475347993,732.1129577871677 246.93398475347993,732.1129577871677 246.93398475347993,732.1129577871677 Z" fill="#f5ad50"/>
									</g>
								</g>
							</g>
							<g>
								<g>
									<g>
										<path d="M246.93392424280756,696.0899011060069 C246.93392424280756,696.0899011060069 242.67482292377719,642.3405879204944 242.67482292377719,642.3405879204944 C242.67482292377719,642.3405879204944 260.3668353945012,610.7816174703668 260.3668353945012,610.7816174703668 C260.3668353945012,610.7816174703668 231.70888551367705,583.7368003129678 230.9339170318798,584.4318410115676 C230.15894855008253,585.1268817101674 203.85353930835925,612.8802830336249 203.85353930835925,612.8802830336249 C203.85353930835925,612.8802830336249 220.97934601155328,640.5172347168477 220.97934601155328,640.5172347168477 C220.97934601155328,640.5172347168477 214.93391657810645,696.0899054187216 214.93391657810645,696.0899054187216 C214.93391657810645,696.0899054187216 246.93392424280756,696.0899011060069 246.93392424280756,696.0899011060069 C246.93392424280756,696.0899011060069 246.93392424280756,696.0899011060069 246.93392424280756,696.0899011060069 Z" fill="#f5ad50"/>
									</g>
								</g>
							</g>
						</g>
						<g>
							<g>
								<g>
									<path d="M436.11769541883604,932.2796360023751 C436.11769541883604,932.2796360023751 404.45107463214543,1011.4463165546065 404.45107463214543,1011.4463165546065 C404.45107463214543,1011.4463165546065 301.2177958194894,958.8796155567377 244.21780295731847,1005.1129562697931 C244.21780295731847,1005.1129562697931 241.6844771466423,925.9463249424027 241.6844771466423,925.9463249424027 C286.65114057814037,884.1462765070221 436.11769541883604,932.2796360023751 436.11769541883604,932.2796360023751 C436.11769541883604,932.2796360023751 436.11769541883604,932.2796360023751 436.11769541883604,932.2796360023751 Z" fill="#f5ad50"/>
								</g>
							</g>
						</g>
						<g>
							<g>
								<g>
									<path d="M26.14280776549944,932.5296054847968 C26.14280776549944,932.5296054847968 57.809428552190084,1011.6962860370281 57.809428552190084,1011.6962860370281 C57.809428552190084,1011.6962860370281 161.04270736484602,959.1295850391593 218.042700227017,1005.3629257522148 C218.042700227017,1005.3629257522148 220.57602603769317,926.1962944248244 220.57602603769317,926.1962944248244 C175.60936260619502,884.3962459894439 26.14280776549944,932.5296054847968 26.14280776549944,932.5296054847968 C26.14280776549944,932.5296054847968 26.14280776549944,932.5296054847968 26.14280776549944,932.5296054847968 Z" fill="#f4ad50"/>
								</g>
							</g>
						</g>
						<g>
							<g>
								<g>
									<path d="M479.1585421417655,946.5898638697658 C479.1585421417655,946.5898638697658 427.6334853032783,1063.4340714027069 427.6334853032783,1063.4340714027069 C427.6334853032783,1063.4340714027069 294.7332026393211,1004.9386611984758 245.39401664681705,1054.005401153028 C245.39401664681705,1054.005401153028 245.35114242110254,1026.9883125473796 245.35114242110254,1026.9883125473796 C282.1411727177034,974.0249041013492 413.83938319261387,1031.383027107569 413.83938319261387,1031.383027107569 C413.83938319261387,1031.383027107569 451.5703422239373,936.4471576087049 451.5703422239373,936.4471576087049 C451.5703422239373,936.4471576087049 479.1585421417655,946.5898638697658 479.1585421417655,946.5898638697658 C479.1585421417655,946.5898638697658 479.1585421417655,946.5898638697658 479.1585421417655,946.5898638697658 Z" fill="#f5ad50"/>
								</g>
							</g>
						</g>
						<g>
							<g>
								<g>
									<path d="M-17.988676164461324,946.5898638697657 C-17.988676164461324,946.5898638697657 33.536380674025935,1063.4340714027066 33.536380674025935,1063.4340714027066 C33.536380674025935,1063.4340714027066 166.43666333798305,1004.9386611984755 215.77584933048718,1054.0054011530278 C215.77584933048718,1054.0054011530278 215.81872355620166,1026.9883125473793 215.81872355620166,1026.9883125473793 C179.02869325960074,974.024904101349 47.33048278469033,1031.3830271075688 47.33048278469033,1031.3830271075688 C47.33048278469033,1031.3830271075688 9.599523753366867,936.4471576087047 9.599523753366867,936.4471576087047 C9.599523753366867,936.4471576087047 -17.988676164461324,946.5898638697657 -17.988676164461324,946.5898638697657 C-17.988676164461324,946.5898638697657 -17.988676164461324,946.5898638697657 -17.988676164461324,946.5898638697657 Z" fill="#f5ad50"/>
								</g>
							</g>
						</g>
					</g>
				</g>
			</g>
		</g>
		<g>
			<g transform="matrix(1,0,0,1,-36,-36)">
				<path d="M753.0000000000048,535.0000000000031 L753.0000000000048,901.9999999999998 C753.0000000000048,901.9999999999998 733.0000000000048,923.2599999999998 733.0000000000048,923.2599999999998 C733.0000000000048,923.2599999999998 732.9999999999998,559.2599999999999 732.9999999999998,559.2599999999999 L753.0000000000048,535.0000000000031 Z" fill="url('#15776497881397281688')"/>
			</g>
			<g transform="matrix(1,0,0,1,-36,-36)">
				<path d="M62.999999999999886,535.0000000000002 C62.999999999999886,535.0000000000002 63,902.0000000000002 63,902.0000000000002 C63,902.0000000000002 82.99999999999994,923.2599999999998 82.99999999999994,923.2599999999998 C82.99999999999994,923.2599999999998 82.99999999999983,558.2645864108044 82.99999999999983,558.2645864108044 L62.999999999999886,535.0000000000002 Z" fill="url('#5018885351428963747')"/>
			</g>
			<g transform="matrix(1,0,0,1,-36,-36)">
				<path d="M360.1236981142017,1026.8568244195296 C360.1236981142018,1026.8568244195296 170.40999999999977,1026.8568244195296 170.40999999999977,1026.8568244195296 C170.40999999999977,1026.8568244195296 185.28999999703368,1046.4358710562415 185.28999999703368,1046.4358710562415 C185.28999999703368,1046.4358710562415 630.3499999974574,1046.4358710562415 630.3499999974574,1046.4358710562415 C630.3499999974574,1046.4358710562415 645.5929999991523,1026.8568244195296 645.5929999991523,1026.8568244195296 C645.5929999991523,1026.8568244195296 456.99554998188967,1026.8568244195296 456.99554998188967,1026.8568244195296 C456.99554998188967,1026.8568244195296 445.6402199194913,1012.3555735991022 445.6402199194913,1012.3555735991022 C445.6402199194913,1012.3555735991022 371.61914921271165,1012.3555735991022 371.61914921271165,1012.3555735991022 C371.61914921271165,1012.3555735991022 360.1236981142017,1026.8568244195296 360.1236981142017,1026.8568244195296 Z" fill="url('#5574023178739380442')"/>
			</g>
			<g transform="matrix(1,0,0,1,-36,-36)">
				<g transform="matrix(0.065322245,0,0,0.065322245,393.487635959,975.636104462)">
					<g>
						<g>
							<g>
								<g>
									<path d="M389.8636464808103,682.6059842930853 C389.8636464808103,682.6059842930853 363.7091218836601,750.0675551061029 268.98742227701376,774.1131750864522 C268.98742227701376,774.1131750864522 272.4426881069027,801.6222811950113 272.4426881069027,801.6222811950113 C407.3111108140626,763.5585067845011 389.8636464808103,682.6059842930853 389.8636464808103,682.6059842930853 C389.8636464808103,682.6059842930853 389.8636464808103,682.6059842930853 389.8636464808103,682.6059842930853 Z" fill="#b36307"/>
								</g>
							</g>
						</g>
						<g>
							<g>
								<g>
									<path d="M133.96607791439118,885.9355228866266 C133.96607791439118,885.9355228866266 75.40429577011552,893.3012866728689 74.5432881180656,856.4020451049687 C74.14287788202516,839.24250876626 107.9925678010656,802.2377955599263 191.41294118736658,786.3000884902201 C191.41294118736658,786.3000884902201 187.74288530195844,819.4563129282967 187.74288530195844,819.4563129282967 C37.56723242208379,853.0929861227235 133.96607791439118,885.9355228866266 133.96607791439118,885.9355228866266 C133.96607791439118,885.9355228866266 133.96607791439118,885.9355228866266 133.96607791439118,885.9355228866266 Z" fill="#b36307"/>
								</g>
							</g>
						</g>
						<g>
							<g>
								<g>
									<g>
										<path d="M246.93398475347993,732.1129577871677 C246.93398475347993,732.1129577871677 262.93399294745427,892.1129475285632 262.93399294745427,892.1129475285632 C262.93399294745427,892.1129475285632 230.93397970012643,908.1129607609344 230.93397970012643,908.1129607609344 C230.93397970012643,908.1129607609344 198.93398356440753,892.112964929607 198.93398356440753,892.112964929607 C198.93398356440753,892.112964929607 214.93396512177492,732.1129506356799 214.93396512177492,732.1129506356799 C214.93396512177492,732.1129506356799 140.41191350387157,732.1129680671818 140.41191350387157,732.1129680671818 C140.41191350387157,732.1129680671818 166.93397964268547,711.6581710731805 166.93397964268547,711.6581710731805 C166.93397964268547,711.6581710731805 299.84006426863994,711.1960521244853 299.84006426863994,711.1960521244853 C299.84006426863994,711.1960521244853 319.0176419981806,732.1129534999034 319.0176419981806,732.1129534999034 C319.0176419981806,732.1129534999034 246.93398475347993,732.1129577871677 246.93398475347993,732.1129577871677 C246.93398475347993,732.1129577871677 246.93398475347993,732.1129577871677 246.93398475347993,732.1129577871677 Z" fill="#b36307"/>
									</g>
								</g>
							</g>
							<g>
								<g>
									<g>
										<path d="M246.93392424280756,696.0899011060069 C246.93392424280756,696.0899011060069 242.67482292377719,642.3405879204944 242.67482292377719,642.3405879204944 C242.67482292377719,642.3405879204944 260.3668353945012,610.7816174703668 260.3668353945012,610.7816174703668 C260.3668353945012,610.7816174703668 231.70888551367705,583.7368003129678 230.9339170318798,584.4318410115676 C230.15894855008253,585.1268817101674 203.85353930835925,612.8802830336249 203.85353930835925,612.8802830336249 C203.85353930835925,612.8802830336249 220.97934601155328,640.5172347168477 220.97934601155328,640.5172347168477 C220.97934601155328,640.5172347168477 214.93391657810645,696.0899054187216 214.93391657810645,696.0899054187216 C214.93391657810645,696.0899054187216 246.93392424280756,696.0899011060069 246.93392424280756,696.0899011060069 C246.93392424280756,696.0899011060069 246.93392424280756,696.0899011060069 246.93392424280756,696.0899011060069 Z" fill="#b36307"/>
									</g>
								</g>
							</g>
						</g>
						<g>
							<g>
								<g>
									<path d="M436.11769541883604,932.2796360023751 C436.11769541883604,932.2796360023751 404.45107463214543,1011.4463165546065 404.45107463214543,1011.4463165546065 C404.45107463214543,1011.4463165546065 301.2177958194894,958.8796155567377 244.21780295731847,1005.1129562697931 C244.21780295731847,1005.1129562697931 241.6844771466423,925.9463249424027 241.6844771466423,925.9463249424027 C286.65114057814037,884.1462765070221 436.11769541883604,932.2796360023751 436.11769541883604,932.2796360023751 C436.11769541883604,932.2796360023751 436.11769541883604,932.2796360023751 436.11769541883604,932.2796360023751 Z" fill="#b36307"/>
								</g>
							</g>
						</g>
						<g>
							<g>
								<g>
									<path d="M26.14280776549944,932.5296054847968 C26.14280776549944,932.5296054847968 57.809428552190084,1011.6962860370281 57.809428552190084,1011.6962860370281 C57.809428552190084,1011.6962860370281 161.04270736484602,959.1295850391593 218.042700227017,1005.3629257522148 C218.042700227017,1005.3629257522148 220.57602603769317,926.1962944248244 220.57602603769317,926.1962944248244 C175.60936260619502,884.3962459894439 26.14280776549944,932.5296054847968 26.14280776549944,932.5296054847968 C26.14280776549944,932.5296054847968 26.14280776549944,932.5296054847968 26.14280776549944,932.5296054847968 Z" fill="#b36207"/>
								</g>
							</g>
						</g>
						<g>
							<g>
								<g>
									<path d="M479.1585421417655,946.5898638697658 C479.1585421417655,946.5898638697658 427.6334853032783,1063.4340714027069 427.6334853032783,1063.4340714027069 C427.6334853032783,1063.4340714027069 294.7332026393211,1004.9386611984758 245.39401664681705,1054.005401153028 C245.39401664681705,1054.005401153028 245.35114242110254,1026.9883125473796 245.35114242110254,1026.9883125473796 C282.1411727177034,974.0249041013492 413.83938319261387,1031.383027107569 413.83938319261387,1031.383027107569 C413.83938319261387,1031.383027107569 451.5703422239373,936.4471576087049 451.5703422239373,936.4471576087049 C451.5703422239373,936.4471576087049 479.1585421417655,946.5898638697658 479.1585421417655,946.5898638697658 C479.1585421417655,946.5898638697658 479.1585421417655,946.5898638697658 479.1585421417655,946.5898638697658 Z" fill="#b36307"/>
								</g>
							</g>
						</g>
						<g>
							<g>
								<g>
									<path d="M-17.988676164461324,946.5898638697657 C-17.988676164461324,946.5898638697657 33.536380674025935,1063.4340714027066 33.536380674025935,1063.4340714027066 C33.536380674025935,1063.4340714027066 166.43666333798305,1004.9386611984755 215.77584933048718,1054.0054011530278 C215.77584933048718,1054.0054011530278 215.81872355620166,1026.9883125473793 215.81872355620166,1026.9883125473793 C179.02869325960074,974.024904101349 47.33048278469033,1031.3830271075688 47.33048278469033,1031.3830271075688 C47.33048278469033,1031.3830271075688 9.599523753366867,936.4471576087047 9.599523753366867,936.4471576087047 C9.599523753366867,936.4471576087047 -17.988676164461324,946.5898638697657 -17.988676164461324,946.5898638697657 C-17.988676164461324,946.5898638697657 -17.988676164461324,946.5898638697657 -17.988676164461324,946.5898638697657 Z" fill="#b36307"/>
								</g>
							</g>
						</g>
					</g>
				</g>
			</g>
		</g>
		<g>
			<g transform="matrix(1,0,0,1,-36,-36)">
				<path d="M753.0000000000048,535.0000000000031 L753.0000000000048,901.9999999999998 C753.0000000000048,901.9999999999998 733.0000000000048,923.2599999999998 733.0000000000048,923.2599999999998 C733.0000000000048,923.2599999999998 732.9999999999998,559.2599999999999 732.9999999999998,559.2599999999999 L753.0000000000048,535.0000000000031 Z" fill="url('#368666297686457762')"/>
			</g>
			<g transform="matrix(1,0,0,1,-36,-36)">
				<path d="M62.999999999999886,535.0000000000002 C62.999999999999886,535.0000000000002 63,902.0000000000002 63,902.0000000000002 C63,902.0000000000002 82.99999999999994,923.2599999999998 82.99999999999994,923.2599999999998 C82.99999999999994,923.2599999999998 82.99999999999983,558.2645864108044 82.99999999999983,558.2645864108044 L62.999999999999886,535.0000000000002 Z" fill="url('#825363221505340605')"/>
			</g>
			<g transform="matrix(1,0,0,1,-36,-36)">
				<path d="M360.1236981142017,1026.8568244195296 C360.1236981142018,1026.8568244195296 170.40999999999977,1026.8568244195296 170.40999999999977,1026.8568244195296 C170.40999999999977,1026.8568244195296 185.28999999703368,1046.4358710562415 185.28999999703368,1046.4358710562415 C185.28999999703368,1046.4358710562415 630.3499999974574,1046.4358710562415 630.3499999974574,1046.4358710562415 C630.3499999974574,1046.4358710562415 645.5929999991523,1026.8568244195296 645.5929999991523,1026.8568244195296 C645.5929999991523,1026.8568244195296 456.99554998188967,1026.8568244195296 456.99554998188967,1026.8568244195296 C456.99554998188967,1026.8568244195296 445.6402199194913,1012.3555735991022 445.6402199194913,1012.3555735991022 C445.6402199194913,1012.3555735991022 371.61914921271165,1012.3555735991022 371.61914921271165,1012.3555735991022 C371.61914921271165,1012.3555735991022 360.1236981142017,1026.8568244195296 360.1236981142017,1026.8568244195296 Z" fill="url('#9050481087011787233')"/>
			</g>
			<g transform="matrix(1,0,0,1,-36,-36)">
				<g transform="matrix(0.065322245,0,0,0.065322245,393.487635959,975.636104462)">
					<g>
						<g>
							<g>
								<g>
									<path d="M389.8636464808103,682.6059842930853 C389.8636464808103,682.6059842930853 363.7091218836601,750.0675551061029 268.98742227701376,774.1131750864522 C268.98742227701376,774.1131750864522 272.4426881069027,801.6222811950113 272.4426881069027,801.6222811950113 C407.3111108140626,763.5585067845011 389.8636464808103,682.6059842930853 389.8636464808103,682.6059842930853 C389.8636464808103,682.6059842930853 389.8636464808103,682.6059842930853 389.8636464808103,682.6059842930853 Z" fill="#f5d83a"/>
								</g>
							</g>
						</g>
						<g>
							<g>
								<g>
									<path d="M133.96607791439118,885.9355228866266 C133.96607791439118,885.9355228866266 75.40429577011552,893.3012866728689 74.5432881180656,856.4020451049687 C74.14287788202516,839.24250876626 107.9925678010656,802.2377955599263 191.41294118736658,786.3000884902201 C191.41294118736658,786.3000884902201 187.74288530195844,819.4563129282967 187.74288530195844,819.4563129282967 C37.56723242208379,853.0929861227235 133.96607791439118,885.9355228866266 133.96607791439118,885.9355228866266 C133.96607791439118,885.9355228866266 133.96607791439118,885.9355228866266 133.96607791439118,885.9355228866266 Z" fill="#f5d83a"/>
								</g>
							</g>
						</g>
						<g>
							<g>
								<g>
									<g>
										<path d="M246.93398475347993,732.1129577871677 C246.93398475347993,732.1129577871677 262.93399294745427,892.1129475285632 262.93399294745427,892.1129475285632 C262.93399294745427,892.1129475285632 230.93397970012643,908.1129607609344 230.93397970012643,908.1129607609344 C230.93397970012643,908.1129607609344 198.93398356440753,892.112964929607 198.93398356440753,892.112964929607 C198.93398356440753,892.112964929607 214.93396512177492,732.1129506356799 214.93396512177492,732.1129506356799 C214.93396512177492,732.1129506356799 140.41191350387157,732.1129680671818 140.41191350387157,732.1129680671818 C140.41191350387157,732.1129680671818 166.93397964268547,711.6581710731805 166.93397964268547,711.6581710731805 C166.93397964268547,711.6581710731805 299.84006426863994,711.1960521244853 299.84006426863994,711.1960521244853 C299.84006426863994,711.1960521244853 319.0176419981806,732.1129534999034 319.0176419981806,732.1129534999034 C319.0176419981806,732.1129534999034 246.93398475347993,732.1129577871677 246.93398475347993,732.1129577871677 C246.93398475347993,732.1129577871677 246.93398475347993,732.1129577871677 246.93398475347993,732.1129577871677 Z" fill="#f5d83a"/>
									</g>
								</g>
							</g>
							<g>
								<g>
									<g>
										<path d="M246.93392424280756,696.0899011060069 C246.93392424280756,696.0899011060069 242.67482292377719,642.3405879204944 242.67482292377719,642.3405879204944 C242.67482292377719,642.3405879204944 260.3668353945012,610.7816174703668 260.3668353945012,610.7816174703668 C260.3668353945012,610.7816174703668 231.70888551367705,583.7368003129678 230.9339170318798,584.4318410115676 C230.15894855008253,585.1268817101674 203.85353930835925,612.8802830336249 203.85353930835925,612.8802830336249 C203.85353930835925,612.8802830336249 220.97934601155328,640.5172347168477 220.97934601155328,640.5172347168477 C220.97934601155328,640.5172347168477 214.93391657810645,696.0899054187216 214.93391657810645,696.0899054187216 C214.93391657810645,696.0899054187216 246.93392424280756,696.0899011060069 246.93392424280756,696.0899011060069 C246.93392424280756,696.0899011060069 246.93392424280756,696.0899011060069 246.93392424280756,696.0899011060069 Z" fill="#f5d83a"/>
									</g>
								</g>
							</g>
						</g>
						<g>
							<g>
								<g>
									<path d="M436.11769541883604,932.2796360023751 C436.11769541883604,932.2796360023751 404.45107463214543,1011.4463165546065 404.45107463214543,1011.4463165546065 C404.45107463214543,1011.4463165546065 301.2177958194894,958.8796155567377 244.21780295731847,1005.1129562697931 C244.21780295731847,1005.1129562697931 241.6844771466423,925.9463249424027 241.6844771466423,925.9463249424027 C286.65114057814037,884.1462765070221 436.11769541883604,932.2796360023751 436.11769541883604,932.2796360023751 C436.11769541883604,932.2796360023751 436.11769541883604,932.2796360023751 436.11769541883604,932.2796360023751 Z" fill="#f5d83a"/>
								</g>
							</g>
						</g>
						<g>
							<g>
								<g>
									<path d="M26.14280776549944,932.5296054847968 C26.14280776549944,932.5296054847968 57.809428552190084,1011.6962860370281 57.809428552190084,1011.6962860370281 C57.809428552190084,1011.6962860370281 161.04270736484602,959.1295850391593 218.042700227017,1005.3629257522148 C218.042700227017,1005.3629257522148 220.57602603769317,926.1962944248244 220.57602603769317,926.1962944248244 C175.60936260619502,884.3962459894439 26.14280776549944,932.5296054847968 26.14280776549944,932.5296054847968 C26.14280776549944,932.5296054847968 26.14280776549944,932.5296054847968 26.14280776549944,932.5296054847968 Z" fill="#f5d83a"/>
								</g>
							</g>
						</g>
						<g>
							<g>
								<g>
									<path d="M479.1585421417655,946.5898638697658 C479.1585421417655,946.5898638697658 427.6334853032783,1063.4340714027069 427.6334853032783,1063.4340714027069 C427.6334853032783,1063.4340714027069 294.7332026393211,1004.9386611984758 245.39401664681705,1054.005401153028 C245.39401664681705,1054.005401153028 245.35114242110254,1026.9883125473796 245.35114242110254,1026.9883125473796 C282.1411727177034,974.0249041013492 413.83938319261387,1031.383027107569 413.83938319261387,1031.383027107569 C413.83938319261387,1031.383027107569 451.5703422239373,936.4471576087049 451.5703422239373,936.4471576087049 C451.5703422239373,936.4471576087049 479.1585421417655,946.5898638697658 479.1585421417655,946.5898638697658 C479.1585421417655,946.5898638697658 479.1585421417655,946.5898638697658 479.1585421417655,946.5898638697658 Z" fill="#f5d83a"/>
								</g>
							</g>
						</g>
						<g>
							<g>
								<g>
									<path d="M-17.988676164461324,946.5898638697657 C-17.988676164461324,946.5898638697657 33.536380674025935,1063.4340714027066 33.536380674025935,1063.4340714027066 C33.536380674025935,1063.4340714027066 166.43666333798305,1004.9386611984755 215.77584933048718,1054.0054011530278 C215.77584933048718,1054.0054011530278 215.81872355620166,1026.9883125473793 215.81872355620166,1026.9883125473793 C179.02869325960074,974.024904101349 47.33048278469033,1031.3830271075688 47.33048278469033,1031.3830271075688 C47.33048278469033,1031.3830271075688 9.599523753366867,936.4471576087047 9.599523753366867,936.4471576087047 C9.599523753366867,936.4471576087047 -17.988676164461324,946.5898638697657 -17.988676164461324,946.5898638697657 C-17.988676164461324,946.5898638697657 -17.988676164461324,946.5898638697657 -17.988676164461324,946.5898638697657 Z" fill="#f5d83a"/>
								</g>
							</g>
						</g>
					</g>
				</g>
			</g>
		</g>
	</g>
</g></g></svg>