<svg xmlns="http://www.w3.org/2000/svg" xmlns:graphite="https://graphite.art" viewBox="0 0 744 1038" width="744" height="1038"><defs><clipPath id="alignment-9782133303222296166">
<path d="M35.99999999999886,65.99999999999977 C35.99999999999886,49.44645666662933 49.44645666662842,35.99999999999977 65.99999999999886,35.99999999999977 L749.9999999999989,35.99999999999977 C766.5535433333694,35.99999999999977 779.9999999999989,49.44645666662933 779.9999999999989,65.99999999999977 L779.9999999999989,1043.9999999999998 C779.9999999999989,1060.5535433333703 766.5535433333694,1073.9999999999998 749.9999999999989,1073.9999999999998 L65.99999999999886,1073.9999999999998 C49.44645666662842,1073.9999999999998 35.99999999999886,1060.5535433333703 35.99999999999886,1043.9999999999998 L35.99999999999886,65.99999999999977 Z" fill="#000000"/></clipPath><radialGradient id="3465533305433840386" cx="624.090192399294" cy="778.5663998327576" r="571.4217894233807" gradientTransform="matrix(0.00148368,0,0,0.001059322,-0.105341246,-0.075211864)"><stop stop-color="#5f7470" /><stop offset="1" stop-color="#889696" /></radialGradient><radialGradient id="15899618627057664370" cx="361.32148313650004" cy="468.33012187948003" r="656.5233719072268" gradientTransform="matrix(0.001567398,0,0,0.001101322,-0.139498433,-0.098017621)"><stop stop-color="#f1e9d2" /><stop offset="0.197226" stop-color="#e4d6bc" /><stop offset="1" stop-color="#ae8964" /></radialGradient><clipPath id="alignment-8210771124051318374">
<path d="M88.99999999999994,98.99999999999989 C88.99999999999994,93.48215222220972 93.48215222220978,88.99999999999989 98.99999999999994,88.99999999999989 L717,88.99999999999989 C722.5178477777902,88.99999999999989 727,93.48215222220972 727,98.99999999999989 L727,987.0000000000001 C727,992.5178477777903 722.5178477777902,997.0000000000001 717,997.0000000000001 L98.99999999999994,997.0000000000001 C93.48215222220978,997.0000000000001 88.99999999999994,992.5178477777903 88.99999999999994,987.0000000000001 L88.99999999999994,98.99999999999989 Z" fill="#000000"/></clipPath><linearGradient id="2349388798390899526" x1="668.0384843172103" y1="868.4113673078102" x2="771.9226755128655" y2="535.9459244303085" gradientTransform="matrix(0.05,0,0,0.002575594,-36.25,-1.377942616)"><stop stop-color="#3b1767" /><stop offset="1" stop-color="#7e00bc" /></linearGradient><linearGradient id="6982518618756091809" x1="144.59553032412785" y1="877.3740694557712" x2="-48.24360041716666" y2="517.2225444562504" gradientTransform="matrix(0.05,0,0,0.002575594,-3.55,-1.377942616)"><stop stop-color="#3b1767" /><stop offset="1" stop-color="#7e00bc" /></linearGradient><radialGradient id="2617441382748082912" cx="407.900996196747" cy="1037.6942260174956" r="504.9216899223972" gradientTransform="matrix(0.002104452,0,0,0.028864672,-0.358619732,-28.297641943)"><stop stop-color="#3b1767" /><stop offset="1" stop-color="#7e00bc" /></radialGradient><mask id="mask-2735687375318694235" mask-type="alpha">
<g>
	<polyline points="10000000,10000000 -10000000,10000000 -10000000,-10000000 10000000,-10000000" fill="#000000" fill-opacity="0"/>
</g>
<g>
	<g transform="matrix(1,0,0,1,-36,-36)">
		<path d="M745.0000000000023,534.9999999999907 L745.0000000000023,901.9999999999874 C745.0000000000023,901.9999999999874 725.0000000000023,923.2599999999875 725.0000000000023,923.2599999999875 C725.0000000000023,923.2599999999875 724.9999999999973,559.2599999999875 724.9999999999973,559.2599999999875 L745.0000000000023,534.9999999999907 Z" fill="url('#2349388798390899526')"/>
	</g>
	<g transform="matrix(1,0,0,1,-36,-36)">
		<path d="M71.0000000000017,535.0000000000002 C71.0000000000017,535.0000000000002 71.00000000000182,902.0000000000002 71.00000000000182,902.0000000000002 C71.00000000000182,902.0000000000002 91.00000000000176,923.2599999999998 91.00000000000176,923.2599999999998 C91.00000000000176,923.2599999999998 91.00000000000165,558.2645864108044 91.00000000000165,558.2645864108044 L71.0000000000017,535.0000000000002 Z" fill="url('#6982518618756091809')"/>
	</g>
	<g transform="matrix(1,0,0,1,-36,-36)">
		<path d="M371.61914922,980.3555736000001 C371.61914922,980.3555736000001 445.64021992,980.3555736000001 445.64021992,980.3555736000001 C445.64021992,980.3555736000001 453.78781316,990.76040485 457.14347200000003,995.04572727 C457.14347200000003,995.04572727 645.593,995.04572727 645.593,995.04572727 C645.593,995.04572727 630.35,1015 630.35,1015 C630.35,1015 185.29,1015 185.29,1015 C185.29,1015 170.41,995.04572727 170.41,995.04572727 C170.41,995.04572727 359.97395079,995.04572727 359.97395079,995.04572727 C363.37101736,990.76040485 371.61914922,980.3555736000001 371.61914922,980.3555736000001 Z" fill="url('#2617441382748082912')"/>
	</g>
	<g transform="matrix(1,0,0,1,-36,-36)">
		<g transform="matrix(0.059098704,0,0,0.059098704,390.839580379,970.38508016)">
			<g>
				<g>
					<g>
						<path d="M227.43544667879723,339.3622864986378 C276.2180547110238,347.5102357173878 328.3614568106332,368.2319459224659 339.0150517813363,418.7869691158253 C364.1397771231332,399.7575349117237 376.5439519278207,358.20856945762216 382.1293095938363,312.81330578574716 C382.1293095938363,312.81330578574716 313.7576970450082,211.69167607078137 313.7576970450082,211.69167607078137 C313.7576970450082,211.69167607078137 227.43544667879723,339.3622864986378 227.43544667879723,339.3622864986378 C227.43544667879723,339.3622864986378 227.43544667879723,339.3622864986378 227.43544667879723,339.3622864986378 ZM195.00908559481286,387.32087414512216 C195.00908559481286,387.32087414512216 153.60775655428552,448.5534333492237 153.60775655428552,448.5534333492237 C153.60775655428552,448.5534333492237 175.54018300692223,481.7213410640675 203.17517751375817,523.2338532710987 C217.62871450106286,476.5907563472706 244.36960500399258,439.43777172813 291.80507558504723,431.28678601035654 C287.07655996004723,392.455593993755 237.93006032625817,385.6564454341847 195.00908559481286,387.32087414512216 C195.00908559481286,387.32087414512216 195.00908559481286,387.32087414512216 195.00908559481286,387.32087414512216 ZM242.64450734774258,582.3467683101612 C278.6126164786019,636.0220612789112 312.1484441153207,685.4151887203175 313.7576970450082,685.4151887203175 C315.98593801180505,685.4151887203175 379.4251164786019,590.7166413570362 425.77683156649255,521.0755891109425 C389.7779607168832,520.0421723628956 343.7012395254769,513.4965180660206 316.1346501700082,489.5776948238331 C313.4566716543832,489.8335541988331 310.7213048330941,489.9995698238331 307.9273747793832,490.0726594234425 C265.69528859774255,491.17736523398935 248.2550420157113,532.5362824703175 242.64450734774258,582.3467683101612 C242.64450734774258,582.3467683101612 242.64450734774258,582.3467683101612 242.64450734774258,582.3467683101612 ZM458.5077580801644,471.80349438438 C468.0223454825082,457.45361035117685 473.9076299063363,448.5534333492237 473.9076299063363,448.5534333492237 C473.9076299063363,448.5534333492237 422.59335988680505,372.65961926230966 422.59335988680505,372.65961926230966 C412.4260930411019,412.2953156734425 395.6781377188363,447.4334687496144 368.7870549551644,468.71899121055185 C395.71738332430505,478.37707226523935 435.6850957266488,474.97195141563 458.5077580801644,471.80349438438 C458.5077580801644,471.80349438438 458.5077580801644,471.80349438438 458.5077580801644,471.80349438438 Z" fill="#d25be9"/>
					</g>
				</g>
			</g>
		</g>
	</g>
</g></mask><linearGradient id="4075674872574870421" x1="668.0384843172103" y1="868.4113673078102" x2="771.9226755128655" y2="535.9459244303085" gradientTransform="matrix(0.05,0,0,0.002575594,-36.25,-1.377942616)"><stop stop-color="#3b1767" /><stop offset="1" stop-color="#7e00bc" /></linearGradient><linearGradient id="15288308100839931593" x1="144.59553032412785" y1="877.3740694557712" x2="-48.24360041716666" y2="517.2225444562504" gradientTransform="matrix(0.05,0,0,0.002575594,-3.55,-1.377942616)"><stop stop-color="#3b1767" /><stop offset="1" stop-color="#7e00bc" /></linearGradient><radialGradient id="16503000605060018301" cx="407.900996196747" cy="1037.6942260174956" r="504.9216899223972" gradientTransform="matrix(0.002104452,0,0,0.028864672,-0.358619732,-28.297641943)"><stop stop-color="#3b1767" /><stop offset="1" stop-color="#7e00bc" /></radialGradient></defs><g>
<rect fill="#ffffff" fill-opacity="0" x="0" y="0" width="744" height="1038"/>
<g>
	<g>
		<g transform="matrix(1,0,0,1,-36,-36)">
			<path d="M35.99999999999886,65.99999999999977 C35.99999999999886,49.44645666662933 49.44645666662842,35.99999999999977 65.99999999999886,35.99999999999977 L749.9999999999989,35.99999999999977 C766.5535433333694,35.99999999999977 779.9999999999989,49.44645666662933 779.9999999999989,65.99999999999977 L779.9999999999989,1043.9999999999998 C779.9999999999989,1060.5535433333703 766.5535433333694,1073.9999999999998 749.9999999999989,1073.9999999999998 L65.99999999999886,1073.9999999999998 C49.44645666662842,1073.9999999999998 35.99999999999886,1060.5535433333703 35.99999999999886,1043.9999999999998 L35.99999999999886,65.99999999999977 Z" fill="#000000"/>
			<path d="M35.99999999999886,65.99999999999977 C35.99999999999886,49.44645666662933 49.44645666662842,35.99999999999977 65.99999999999886,35.99999999999977 L749.9999999999989,35.99999999999977 C766.5535433333694,35.99999999999977 779.9999999999989,49.44645666662933 779.9999999999989,65.99999999999977 L779.9999999999989,1043.9999999999998 C779.9999999999989,1060.5535433333703 766.5535433333694,1073.9999999999998 749.9999999999989,1073.9999999999998 L65.99999999999886,1073.9999999999998 C49.44645666662842,1073.9999999999998 35.99999999999886,1060.5535433333703 35.99999999999886,1043.9999999999998 L35.99999999999886,65.99999999999977 Z" clip-path="url(#alignment-9782133303222296166)" fill="none" stroke="#000000" stroke-width="4"/>
		</g>
		<g transform="matrix(1,0,0,1,-36,-36)">
			<path d="M70.99999999999994,80.99999999999989 C70.99999999999994,75.48215222220972 75.48215222220978,70.99999999999989 80.99999999999994,70.99999999999989 L735,70.99999999999989 C740.5178477777902,70.99999999999989 745,75.48215222220972 745,80.99999999999989 L745,1005.0000000000001 C745,1010.5178477777903 740.5178477777902,1015.0000000000001 735,1015.0000000000001 L80.99999999999994,1015.0000000000001 C75.48215222220978,1015.0000000000001 70.99999999999994,1010.5178477777903 70.99999999999994,1005.0000000000001 L70.99999999999994,80.99999999999989 Z" fill="url('#3465533305433840386')"/>
		</g>
		<g transform="matrix(1,0,0,1,-36,-36)">
			<path d="M88.99999999999994,98.99999999999989 C88.99999999999994,93.48215222220972 93.48215222220978,88.99999999999989 98.99999999999994,88.99999999999989 L717,88.99999999999989 C722.5178477777902,88.99999999999989 727,93.48215222220972 727,98.99999999999989 L727,987.0000000000001 C727,992.5178477777903 722.5178477777902,997.0000000000001 717,997.0000000000001 L98.99999999999994,997.0000000000001 C93.48215222220978,997.0000000000001 88.99999999999994,992.5178477777903 88.99999999999994,987.0000000000001 L88.99999999999994,98.99999999999989 Z" fill="url('#15899618627057664370')"/>
			<path d="M88.99999999999994,98.99999999999989 C88.99999999999994,93.48215222220972 93.48215222220978,88.99999999999989 98.99999999999994,88.99999999999989 L717,88.99999999999989 C722.5178477777902,88.99999999999989 727,93.48215222220972 727,98.99999999999989 L727,987.0000000000001 C727,992.5178477777903 722.5178477777902,997.0000000000001 717,997.0000000000001 L98.99999999999994,997.0000000000001 C93.48215222220978,997.0000000000001 88.99999999999994,992.5178477777903 88.99999999999994,987.0000000000001 L88.99999999999994,98.99999999999989 Z" clip-path="url(#alignment-8210771124051318374)" fill="none" stroke="#000000" stroke-width="4"/>
		</g>
	</g>
	<g>
		<g>
			<polyline points="10000000,10000000 -10000000,10000000 -10000000,-10000000 10000000,-10000000" fill="#000000" fill-opacity="0"/>
		</g>
		<g>
			<g transform="matrix(1,0,0,1,-36,-36)">
				<path d="M745.0000000000023,534.9999999999907 L745.0000000000023,901.9999999999874 C745.0000000000023,901.9999999999874 725.0000000000023,923.2599999999875 725.0000000000023,923.2599999999875 C725.0000000000023,923.2599999999875 724.9999999999973,559.2599999999875 724.9999999999973,559.2599999999875 L745.0000000000023,534.9999999999907 Z" fill="url('#4075674872574870421')"/>
			</g>
			<g transform="matrix(1,0,0,1,-36,-36)">
				<path d="M71.0000000000017,535.0000000000002 C71.0000000000017,535.0000000000002 71.00000000000182,902.0000000000002 71.00000000000182,902.0000000000002 C71.00000000000182,902.0000000000002 91.00000000000176,923.2599999999998 91.00000000000176,923.2599999999998 C91.00000000000176,923.2599999999998 91.00000000000165,558.2645864108044 91.00000000000165,558.2645864108044 L71.0000000000017,535.0000000000002 Z" fill="url('#15288308100839931593')"/>
			</g>
			<g transform="matrix(1,0,0,1,-36,-36)">
				<path d="M371.61914922,980.3555736000001 C371.61914922,980.3555736000001 445.64021992,980.3555736000001 445.64021992,980.3555736000001 C445.64021992,980.3555736000001 453.78781316,990.76040485 457.14347200000003,995.04572727 C457.14347200000003,995.04572727 645.593,995.04572727 645.593,995.04572727 C645.593,995.04572727 630.35,1015 630.35,1015 C630.35,1015 185.29,1015 185.29,1015 C185.29,1015 170.41,995.04572727 170.41,995.04572727 C170.41,995.04572727 359.97395079,995.04572727 359.97395079,995.04572727 C363.37101736,990.76040485 371.61914922,980.3555736000001 371.61914922,980.3555736000001 Z" fill="url('#16503000605060018301')"/>
			</g>
			<g transform="matrix(1,0,0,1,-36,-36)">
				<g transform="matrix(0.059098704,0,0,0.059098704,390.839580379,970.38508016)">
					<g>
						<g>
							<g>
								<path d="M227.43544667879723,339.3622864986378 C276.2180547110238,347.5102357173878 328.3614568106332,368.2319459224659 339.0150517813363,418.7869691158253 C364.1397771231332,399.7575349117237 376.5439519278207,358.20856945762216 382.1293095938363,312.81330578574716 C382.1293095938363,312.81330578574716 313.7576970450082,211.69167607078137 313.7576970450082,211.69167607078137 C313.7576970450082,211.69167607078137 227.43544667879723,339.3622864986378 227.43544667879723,339.3622864986378 C227.43544667879723,339.3622864986378 227.43544667879723,339.3622864986378 227.43544667879723,339.3622864986378 ZM195.00908559481286,387.32087414512216 C195.00908559481286,387.32087414512216 153.60775655428552,448.5534333492237 153.60775655428552,448.5534333492237 C153.60775655428552,448.5534333492237 175.54018300692223,481.7213410640675 203.17517751375817,523.2338532710987 C217.62871450106286,476.5907563472706 244.36960500399258,439.43777172813 291.80507558504723,431.28678601035654 C287.07655996004723,392.455593993755 237.93006032625817,385.6564454341847 195.00908559481286,387.32087414512216 C195.00908559481286,387.32087414512216 195.00908559481286,387.32087414512216 195.00908559481286,387.32087414512216 ZM242.64450734774258,582.3467683101612 C278.6126164786019,636.0220612789112 312.1484441153207,685.4151887203175 313.7576970450082,685.4151887203175 C315.98593801180505,685.4151887203175 379.4251164786019,590.7166413570362 425.77683156649255,521.0755891109425 C389.7779607168832,520.0421723628956 343.7012395254769,513.4965180660206 316.1346501700082,489.5776948238331 C313.4566716543832,489.8335541988331 310.7213048330941,489.9995698238331 307.9273747793832,490.0726594234425 C265.69528859774255,491.17736523398935 248.2550420157113,532.5362824703175 242.64450734774258,582.3467683101612 C242.64450734774258,582.3467683101612 242.64450734774258,582.3467683101612 242.64450734774258,582.3467683101612 ZM458.5077580801644,471.80349438438 C468.0223454825082,457.45361035117685 473.9076299063363,448.5534333492237 473.9076299063363,448.5534333492237 C473.9076299063363,448.5534333492237 422.59335988680505,372.65961926230966 422.59335988680505,372.65961926230966 C412.4260930411019,412.2953156734425 395.6781377188363,447.4334687496144 368.7870549551644,468.71899121055185 C395.71738332430505,478.37707226523935 435.6850957266488,474.97195141563 458.5077580801644,471.80349438438 C458.5077580801644,471.80349438438 458.5077580801644,471.80349438438 458.5077580801644,471.80349438438 Z" fill="#d25be9"/>
							</g>
						</g>
					</g>
				</g>
			</g>
		</g>
	</g>
	<g mask="url(#mask-2735687375318694235)"/>
	<g>
		<polyline points="10000000,10000000 -10000000,10000000 -10000000,-10000000 10000000,-10000000" fill="#000000" fill-opacity="0"/>
	</g>
</g></g></svg>