<svg xmlns="http://www.w3.org/2000/svg" xmlns:graphite="https://graphite.art" viewBox="0 0 744 1038" width="744" height="1038"><defs><clipPath id="alignment-16671424750819137334">
<path d="M35.99999999999886,65.99999999999977 C35.99999999999886,49.44645666662933 49.44645666662842,35.99999999999977 65.99999999999886,35.99999999999977 L749.9999999999989,35.99999999999977 C766.5535433333694,35.99999999999977 779.9999999999989,49.44645666662933 779.9999999999989,65.99999999999977 L779.9999999999989,1043.9999999999998 C779.9999999999989,1060.5535433333703 766.5535433333694,1073.9999999999998 749.9999999999989,1073.9999999999998 L65.99999999999886,1073.9999999999998 C49.44645666662842,1073.9999999999998 35.99999999999886,1060.5535433333703 35.99999999999886,1043.9999999999998 L35.99999999999886,65.99999999999977 Z" fill="#000000"/></clipPath><radialGradient id="677944715660938863" cx="624.090192399294" cy="778.5663998327576" r="571.4217894233807" gradientTransform="matrix(0.00148368,0,0,0.001059322,-0.105341246,-0.075211864)"><stop stop-color="#5f7470" /><stop offset="1" stop-color="#889696" /></radialGradient><radialGradient id="9220738723606130389" cx="361.32148313650004" cy="468.33012187948003" r="656.5233719072268" gradientTransform="matrix(0.001567398,0,0,0.001101322,-0.139498433,-0.098017621)"><stop stop-color="#f1e9d2" /><stop offset="0.197226" stop-color="#e4d6bc" /><stop offset="1" stop-color="#ae8964" /></radialGradient><clipPath id="alignment-12675863376119898575">
<path d="M88.99999999999994,98.99999999999989 C88.99999999999994,93.48215222220972 93.48215222220978,88.99999999999989 98.99999999999994,88.99999999999989 L717,88.99999999999989 C722.5178477777902,88.99999999999989 727,93.48215222220972 727,98.99999999999989 L727,987.0000000000001 C727,992.5178477777903 722.5178477777902,997.0000000000001 717,997.0000000000001 L98.99999999999994,997.0000000000001 C93.48215222220978,997.0000000000001 88.99999999999994,992.5178477777903 88.99999999999994,987.0000000000001 L88.99999999999994,98.99999999999989 Z" fill="#000000"/></clipPath><linearGradient id="8057403468884698848" x1="647.0678893861227" y1="766.4512888968745" x2="781.3304201708818" y2="623.3845725387256" gradientTransform="matrix(0.05,0,0,0.002575594,-36.25,-1.377942616)"><stop offset="0.004645" stop-color="#525a62" /><stop offset="1" stop-color="#6b7580" /></linearGradient><linearGradient id="14446642840587260402" x1="74.29310971722863" y1="828.0800576210502" x2="-19.25060633740773" y2="646.4953342958207" gradientTransform="matrix(0.05,0,0,0.002575594,-3.55,-1.377942616)"><stop stop-color="#525a62" /><stop offset="0.996311" stop-color="#6b7580" /></linearGradient><radialGradient id="9061520587164257162" cx="382.1403638272165" cy="967.4607768415748" r="136.74189637495874" gradientTransform="matrix(0.002104452,0,0,0.028864672,-0.358619732,-28.297641943)"><stop stop-color="#6b7580" /><stop offset="0.99235" stop-color="#525a62" /></radialGradient><mask id="mask-6220323340208246210" mask-type="alpha">
<g>
	<polyline points="10000000,10000000 -10000000,10000000 -10000000,-10000000 10000000,-10000000" fill="#000000" fill-opacity="0"/>
</g>
<g>
	<g transform="matrix(1,0,0,1,-36,-36)">
		<path d="M745.0000000000023,534.9999999999907 L745.0000000000023,901.9999999999874 C745.0000000000023,901.9999999999874 725.0000000000023,923.2599999999875 725.0000000000023,923.2599999999875 C725.0000000000023,923.2599999999875 724.9999999999973,559.2599999999875 724.9999999999973,559.2599999999875 L745.0000000000023,534.9999999999907 Z" fill="url('#8057403468884698848')"/>
	</g>
	<g transform="matrix(1,0,0,1,-36,-36)">
		<path d="M71.0000000000017,535.0000000000002 C71.0000000000017,535.0000000000002 71.00000000000182,902.0000000000002 71.00000000000182,902.0000000000002 C71.00000000000182,902.0000000000002 91.00000000000176,923.2599999999998 91.00000000000176,923.2599999999998 C91.00000000000176,923.2599999999998 91.00000000000165,558.2645864108044 91.00000000000165,558.2645864108044 L71.0000000000017,535.0000000000002 Z" fill="url('#14446642840587260402')"/>
	</g>
	<g transform="matrix(1,0,0,1,-36,-36)">
		<path d="M370.98946465,980.3555736000001 C370.98946465,980.3555736000001 445.01053535,980.3555736000001 445.01053535,980.3555736000001 C445.01053535,980.3555736000001 453.15812859,990.76040485 456.51378743000004,995.04572727 C456.51378743000004,995.04572727 645.593,995.04572727 645.593,995.04572727 C645.593,995.04572727 630.35,1015 630.35,1015 C630.35,1015 185.29,1015 185.29,1015 C185.29,1015 170.41,995.04572727 170.41,995.04572727 C170.41,995.04572727 359.34426622,995.04572727 359.34426622,995.04572727 C362.74133279,990.76040485 370.98946465,980.3555736000001 370.98946465,980.3555736000001 Z" fill="url('#9061520587164257162')"/>
	</g>
</g></mask><linearGradient id="12981612638934492049" x1="647.0678893861227" y1="766.4512888968745" x2="781.3304201708818" y2="623.3845725387256" gradientTransform="matrix(0.05,0,0,0.002575594,-36.25,-1.377942616)"><stop offset="0.004645" stop-color="#525a62" /><stop offset="1" stop-color="#6b7580" /></linearGradient><linearGradient id="15131778273548606631" x1="74.29310971722863" y1="828.0800576210502" x2="-19.25060633740773" y2="646.4953342958207" gradientTransform="matrix(0.05,0,0,0.002575594,-3.55,-1.377942616)"><stop stop-color="#525a62" /><stop offset="0.996311" stop-color="#6b7580" /></linearGradient><radialGradient id="3352433501735328411" cx="382.1403638272165" cy="967.4607768415748" r="136.74189637495874" gradientTransform="matrix(0.002104452,0,0,0.028864672,-0.358619732,-28.297641943)"><stop stop-color="#6b7580" /><stop offset="0.99235" stop-color="#525a62" /></radialGradient></defs><g>
<rect fill="#ffffff" fill-opacity="0" x="0" y="0" width="744" height="1038"/>
<g>
	<g>
		<g transform="matrix(1,0,0,1,-36,-36)">
			<path d="M35.99999999999886,65.99999999999977 C35.99999999999886,49.44645666662933 49.44645666662842,35.99999999999977 65.99999999999886,35.99999999999977 L749.9999999999989,35.99999999999977 C766.5535433333694,35.99999999999977 779.9999999999989,49.44645666662933 779.9999999999989,65.99999999999977 L779.9999999999989,1043.9999999999998 C779.9999999999989,1060.5535433333703 766.5535433333694,1073.9999999999998 749.9999999999989,1073.9999999999998 L65.99999999999886,1073.9999999999998 C49.44645666662842,1073.9999999999998 35.99999999999886,1060.5535433333703 35.99999999999886,1043.9999999999998 L35.99999999999886,65.99999999999977 Z" fill="#000000"/>
			<path d="M35.99999999999886,65.99999999999977 C35.99999999999886,49.44645666662933 49.44645666662842,35.99999999999977 65.99999999999886,35.99999999999977 L749.9999999999989,35.99999999999977 C766.5535433333694,35.99999999999977 779.9999999999989,49.44645666662933 779.9999999999989,65.99999999999977 L779.9999999999989,1043.9999999999998 C779.9999999999989,1060.5535433333703 766.5535433333694,1073.9999999999998 749.9999999999989,1073.9999999999998 L65.99999999999886,1073.9999999999998 C49.44645666662842,1073.9999999999998 35.99999999999886,1060.5535433333703 35.99999999999886,1043.9999999999998 L35.99999999999886,65.99999999999977 Z" clip-path="url(#alignment-16671424750819137334)" fill="none" stroke="#000000" stroke-width="4"/>
		</g>
		<g transform="matrix(1,0,0,1,-36,-36)">
			<path d="M70.99999999999994,80.99999999999989 C70.99999999999994,75.48215222220972 75.48215222220978,70.99999999999989 80.99999999999994,70.99999999999989 L735,70.99999999999989 C740.5178477777902,70.99999999999989 745,75.48215222220972 745,80.99999999999989 L745,1005.0000000000001 C745,1010.5178477777903 740.5178477777902,1015.0000000000001 735,1015.0000000000001 L80.99999999999994,1015.0000000000001 C75.48215222220978,1015.0000000000001 70.99999999999994,1010.5178477777903 70.99999999999994,1005.0000000000001 L70.99999999999994,80.99999999999989 Z" fill="url('#677944715660938863')"/>
		</g>
		<g transform="matrix(1,0,0,1,-36,-36)">
			<path d="M88.99999999999994,98.99999999999989 C88.99999999999994,93.48215222220972 93.48215222220978,88.99999999999989 98.99999999999994,88.99999999999989 L717,88.99999999999989 C722.5178477777902,88.99999999999989 727,93.48215222220972 727,98.99999999999989 L727,987.0000000000001 C727,992.5178477777903 722.5178477777902,997.0000000000001 717,997.0000000000001 L98.99999999999994,997.0000000000001 C93.48215222220978,997.0000000000001 88.99999999999994,992.5178477777903 88.99999999999994,987.0000000000001 L88.99999999999994,98.99999999999989 Z" fill="url('#9220738723606130389')"/>
			<path d="M88.99999999999994,98.99999999999989 C88.99999999999994,93.48215222220972 93.48215222220978,88.99999999999989 98.99999999999994,88.99999999999989 L717,88.99999999999989 C722.5178477777902,88.99999999999989 727,93.48215222220972 727,98.99999999999989 L727,987.0000000000001 C727,992.5178477777903 722.5178477777902,997.0000000000001 717,997.0000000000001 L98.99999999999994,997.0000000000001 C93.48215222220978,997.0000000000001 88.99999999999994,992.5178477777903 88.99999999999994,987.0000000000001 L88.99999999999994,98.99999999999989 Z" clip-path="url(#alignment-12675863376119898575)" fill="none" stroke="#000000" stroke-width="4"/>
		</g>
	</g>
	<g>
		<g>
			<polyline points="10000000,10000000 -10000000,10000000 -10000000,-10000000 10000000,-10000000" fill="#000000" fill-opacity="0"/>
		</g>
		<g>
			<g transform="matrix(1,0,0,1,-36,-36)">
				<path d="M745.0000000000023,534.9999999999907 L745.0000000000023,901.9999999999874 C745.0000000000023,901.9999999999874 725.0000000000023,923.2599999999875 725.0000000000023,923.2599999999875 C725.0000000000023,923.2599999999875 724.9999999999973,559.2599999999875 724.9999999999973,559.2599999999875 L745.0000000000023,534.9999999999907 Z" fill="url('#12981612638934492049')"/>
			</g>
			<g transform="matrix(1,0,0,1,-36,-36)">
				<path d="M71.0000000000017,535.0000000000002 C71.0000000000017,535.0000000000002 71.00000000000182,902.0000000000002 71.00000000000182,902.0000000000002 C71.00000000000182,902.0000000000002 91.00000000000176,923.2599999999998 91.00000000000176,923.2599999999998 C91.00000000000176,923.2599999999998 91.00000000000165,558.2645864108044 91.00000000000165,558.2645864108044 L71.0000000000017,535.0000000000002 Z" fill="url('#15131778273548606631')"/>
			</g>
			<g transform="matrix(1,0,0,1,-36,-36)">
				<path d="M370.98946465,980.3555736000001 C370.98946465,980.3555736000001 445.01053535,980.3555736000001 445.01053535,980.3555736000001 C445.01053535,980.3555736000001 453.15812859,990.76040485 456.51378743000004,995.04572727 C456.51378743000004,995.04572727 645.593,995.04572727 645.593,995.04572727 C645.593,995.04572727 630.35,1015 630.35,1015 C630.35,1015 185.29,1015 185.29,1015 C185.29,1015 170.41,995.04572727 170.41,995.04572727 C170.41,995.04572727 359.34426622,995.04572727 359.34426622,995.04572727 C362.74133279,990.76040485 370.98946465,980.3555736000001 370.98946465,980.3555736000001 Z" fill="url('#3352433501735328411')"/>
			</g>
		</g>
	</g>
	<g mask="url(#mask-6220323340208246210)"/>
	<g>
		<polyline points="10000000,10000000 -10000000,10000000 -10000000,-10000000 10000000,-10000000" fill="#000000" fill-opacity="0"/>
	</g>
</g></g></svg>