<svg xmlns="http://www.w3.org/2000/svg" xmlns:graphite="https://graphite.art" viewBox="0 0 744 1038" width="744" height="1038"><defs><clipPath id="alignment-5106221685979703858">
<path d="M36,66 C36,49.44645666662956 49.44645666662956,36 66,36 L750,36 C766.5535433333705,36 780,49.44645666662956 780,66 L780,1044 C780,1060.5535433333705 766.5535433333705,1074 750,1074 L66,1074 C49.44645666662956,1074 36,1060.5535433333705 36,1044 L36,66 Z" fill="#000000"/></clipPath><radialGradient id="2444844105834165129" cx="629.2199299042215" cy="800.1947613873972" r="591.7984072957931" gradientTransform="matrix(0.001449275,0,0,0.00101713,-0.091304348,-0.064361752)"><stop stop-color="#5f7470" /><stop offset="1" stop-color="#889696" /></radialGradient><radialGradient id="4053602559960261842" cx="360.15086202393576" cy="476.89752435285425" r="682.272955256596" gradientTransform="matrix(0.001529052,0,0,0.001054852,-0.123853211,-0.085292009)"><stop stop-color="#f1e9d2" /><stop offset="0.197226" stop-color="#e4d6bc" /><stop offset="1" stop-color="#ae8964" /></radialGradient><clipPath id="alignment-303296485338530638">
<path d="M81,90.85682441700942 C81,85.33897663921925 85.48215222220983,80.85682441700942 91,80.85682441700942 L725,80.85682441700942 C730.5178477777902,80.85682441700942 735,85.33897663921925 735,90.85682441700942 L735,1018.8568244170094 C735,1024.3746721947996 730.5178477777902,1028.8568244170094 725,1028.8568244170094 L91,1028.8568244170094 C85.48215222220983,1028.8568244170094 81,1024.3746721947996 81,1018.8568244170094 L81,90.85682441700942 Z" fill="#000000"/></clipPath><linearGradient id="5415730362786954002" x1="568.9257019566758" y1="1115.4829933522137" x2="395.86892382155617" y2="272.5667493949701" gradientTransform="matrix(0.001449275,0,0,0.00101713,-0.091304348,-0.064507381)"><stop stop-color="#525a62" /><stop offset="1" stop-color="#6b7580" /></linearGradient><linearGradient id="10527041024970818909" x1="638.7925798791389" y1="510.653540880948" x2="155.7428516968344" y2="184.6756596289818" gradientTransform="matrix(0.0016353,0,0,0.002219887,-0.110447295,-0.271101504)"><stop stop-color="#181825" /><stop offset="0.998634" stop-color="#303342" /></linearGradient><linearGradient id="15070824714025665774" x1="74.05092706821802" y1="179.45921626376452" x2="719.3872711419054" y2="505.02571071621384" gradientTransform="matrix(0.001529052,0,0,0.002030006,-0.068807339,-0.204294127)"><stop stop-color="#ea8e2b" /><stop offset="0.454524" stop-color="#9a4919" /><stop offset="0.796613" stop-color="#ea8e2b" /><stop offset="1" stop-color="#9a4919" /></linearGradient><clipPath id="alignment-10187185454502969334">
<path d="M371.99999999000005,140.63719182398358 C372.1354703403487,140.67370611203648 698.99999999,228.78952026000002 698.99999999,228.78952026000002 C698.99999999,228.78952026000002 698.99999999,545.09418848 698.99999999,545.09418848 C698.99999999,545.09418848 553.7512883810731,584.250191399869 456.86242413047995,610.3693948645684 C451.6080185634812,615.8595729667801 445.84276122,621.88352548 445.84276122,621.88352548 C445.84276122,621.88352548 414.1508981197467,621.88352548 414.1508981197467,621.88352548 C388.5509968565818,628.7847213495214 372.0304668400138,633.2383093669366 371.99999998999994,633.2465150246886 C371.969533139986,633.2383093669366 355.44900312341815,628.7847213495214 329.8491018602532,621.88352548 C329.8491018602532,621.88352548 303.76187408,621.88352548 303.76187408,621.88352548 C303.76187408,621.88352548 299.24663837145334,617.2231918077229 294.5395125322183,612.3648015786794 C197.84300434827105,586.2974532707233 44.99999999,545.09418848 44.99999999,545.09418848 C44.99999999,545.09418848 44.99999999,228.78952026000002 44.99999999,228.78952026000002 C44.99999999,228.78952026000002 371.8645296396514,140.67370611203648 371.99999999000005,140.63719182398358 ZM70.90244996,244.07424938 C70.90244996,244.07424938 70.90244996,527.01610679 70.90244996,527.01610679 C70.90244996,527.01610679 207.62802835934633,563.8086227980506 297.26023169072505,587.9284276985971 C300.8472695649452,584.2261196775349 303.76187408,581.21785379 303.76187408,581.21785379 C303.76187408,581.21785379 445.84276122,581.21785379 445.84276122,581.21785379 C445.84276122,581.21785379 448.4403811041262,583.9320325142801 451.7374913697405,587.3770887325595 C541.3883285135885,563.2522695182276 676.04642873,527.01610679 676.04642873,527.01610679 C676.04642873,527.01610679 674.06724537,243.08465769 674.06724537,243.08465769 C674.06724537,243.08465769 373.6047735439116,162.68774758005648 373.4744394298245,162.65288068116425 C373.34404666238686,162.68796147071325 70.90244996,244.07424938 70.90244996,244.07424938 Z" fill="#000000"/></clipPath></defs><g>
<rect fill="#ffffff" fill-opacity="0" x="0" y="0" width="744" height="1038"/>
<g>
	<g>
		<g transform="matrix(1,0,0,1,-36,-36)">
			<path d="M36,66 C36,49.44645666662956 49.44645666662956,36 66,36 L750,36 C766.5535433333705,36 780,49.44645666662956 780,66 L780,1044 C780,1060.5535433333705 766.5535433333705,1074 750,1074 L66,1074 C49.44645666662956,1074 36,1060.5535433333705 36,1044 L36,66 Z" fill="#000000"/>
			<path d="M36,66 C36,49.44645666662956 49.44645666662956,36 66,36 L750,36 C766.5535433333705,36 780,49.44645666662956 780,66 L780,1044 C780,1060.5535433333705 766.5535433333705,1074 750,1074 L66,1074 C49.44645666662956,1074 36,1060.5535433333705 36,1044 L36,66 Z" clip-path="url(#alignment-5106221685979703858)" fill="none" stroke="#000000" stroke-width="4"/>
		</g>
		<g transform="matrix(1,0,0,1,-36,-36)">
			<g>
				<path d="M63.00000000015581,73.0897347965248 C63.00000000015581,67.67564627335815 67.36819919976512,63.27777777777766 72.74576271201585,63.27777777777766 L743.2542372879839,63.27777777777766 C748.6318008002345,63.27777777777766 752.9999999998438,67.67564627335815 752.9999999998438,73.0897347965248 L752.9999999998438,1036.6239140374942 C752.9999999998438,1042.0380025606607 748.6318008002345,1046.4358710562412 743.2542372879839,1046.4358710562412 L72.74576271201585,1046.4358710562412 C67.36819919976512,1046.4358710562412 63.00000000015581,1042.0380025606607 63.00000000015581,1036.6239140374942 L63.00000000015581,73.0897347965248 Z" fill="url('#2444844105834165129')"/>
			</g>
			<g>
				<path d="M81,90.85682441700942 C81,85.33897663921925 85.48215222220983,80.85682441700942 91,80.85682441700942 L725,80.85682441700942 C730.5178477777902,80.85682441700942 735,85.33897663921925 735,90.85682441700942 L735,1018.8568244170094 C735,1024.3746721947996 730.5178477777902,1028.8568244170094 725,1028.8568244170094 L91,1028.8568244170094 C85.48215222220983,1028.8568244170094 81,1024.3746721947996 81,1018.8568244170094 L81,90.85682441700942 Z" fill="url('#4053602559960261842')"/>
				<path d="M81,90.85682441700942 C81,85.33897663921925 85.48215222220983,80.85682441700942 91,80.85682441700942 L725,80.85682441700942 C730.5178477777902,80.85682441700942 735,85.33897663921925 735,90.85682441700942 L735,1018.8568244170094 C735,1024.3746721947996 730.5178477777902,1028.8568244170094 725,1028.8568244170094 L91,1028.8568244170094 C85.48215222220983,1028.8568244170094 81,1024.3746721947996 81,1018.8568244170094 L81,90.85682441700942 Z" clip-path="url(#alignment-303296485338530638)" fill="none" stroke="#130e0a" stroke-width="4"/>
			</g>
			<g>
				<g>
					<path d="M72.74576271000001,63.42095336 C72.74576271000001,63.42095336 743.25423729,63.42095336 743.25423729,63.42095336 C748.6318008000001,63.42095336 753,67.81882186 753,73.23291038 C753,73.23291038 753,1036.76708962 753,1036.76708962 C753,1042.18117814 748.6318008000001,1046.5790466400001 743.25423729,1046.5790466400001 C743.25423729,1046.5790466400001 72.74576271000001,1046.5790466400001 72.74576271000001,1046.5790466400001 C67.3681992,1046.5790466400001 63,1042.18117814 63,1036.76708962 C63,1036.76708962 63,73.23291038 63,73.23291038 C63,67.81882186 67.3681992,63.42095336 72.74576271000001,63.42095336 ZM81,90.85682442 C81,90.85682442 80.99999999999999,1018.8568244199998 81,1018.8568244200001 C81,1024.37467219 85.48215222,1028.85682442 91,1028.85682442 C91,1028.85682442 358.53825542,1028.85682442 358.53825542,1028.85682442 C358.53825542,1028.85682442 371.61914922,1012.3555736000001 371.61914922,1012.3555736000001 C371.61914922,1012.3555736000001 445.64021992,1012.3555736000001 445.64021992,1012.3555736000001 C445.64021992,1012.3555736000001 458.56166731,1028.85682442 458.56166731,1028.85682442 C458.56166731,1028.85682442 725,1028.85682442 725,1028.85682442 C730.51784778,1028.85682442 735,1024.37467219 735,1018.8568244200001 C735,1018.8568244200001 735,90.856829840995 735,90.85682441999998 C734.9999999999999,85.33897663999997 730.51784778,80.85682442 725,80.85682442 C725,80.85682442 91,80.85682442 91,80.85682442 C85.48215222,80.85682442 81,85.33897664 81,90.85682442 Z" fill="url('#5415730362786954002')" stroke="#000000" stroke-width="4" style="paint-order: stroke;" />
				</g>
			</g>
		</g>
	</g>
	<g>
		<g transform="matrix(1,0,0,1,0.00000001,-54.246522593)">
			<path d="M373.29386636677464,122.12398335630161 L677.0482447121124,203.40173263253632 L679.0482447121125,490.31951338452757 L373.29386636677464,572.5972626607622 L67.53948802143685,490.3195133845276 L67.53948802143668,204.40173263253644 L373.29386636677464,122.12398335630161 Z" transform="matrix(1,0,0,1,0,0)" fill="url('#10527041024970818909')" stroke="#303342" stroke-width="2"/>
		</g>
		<g transform="matrix(1,0,0,1,0.00000001,-54.246522593)">
			<path d="M371.99999999000005,140.63719182398358 C372.1354703403487,140.67370611203648 698.99999999,228.78952026000002 698.99999999,228.78952026000002 C698.99999999,228.78952026000002 698.99999999,545.09418848 698.99999999,545.09418848 C698.99999999,545.09418848 553.7512883810731,584.250191399869 456.86242413047995,610.3693948645684 C451.6080185634812,615.8595729667801 445.84276122,621.88352548 445.84276122,621.88352548 C445.84276122,621.88352548 414.1508981197467,621.88352548 414.1508981197467,621.88352548 C388.5509968565818,628.7847213495214 372.0304668400138,633.2383093669366 371.99999998999994,633.2465150246886 C371.969533139986,633.2383093669366 355.44900312341815,628.7847213495214 329.8491018602532,621.88352548 C329.8491018602532,621.88352548 303.76187408,621.88352548 303.76187408,621.88352548 C303.76187408,621.88352548 299.24663837145334,617.2231918077229 294.5395125322183,612.3648015786794 C197.84300434827105,586.2974532707233 44.99999999,545.09418848 44.99999999,545.09418848 C44.99999999,545.09418848 44.99999999,228.78952026000002 44.99999999,228.78952026000002 C44.99999999,228.78952026000002 371.8645296396514,140.67370611203648 371.99999999000005,140.63719182398358 ZM70.90244996,244.07424938 C70.90244996,244.07424938 70.90244996,527.01610679 70.90244996,527.01610679 C70.90244996,527.01610679 207.62802835934633,563.8086227980506 297.26023169072505,587.9284276985971 C300.8472695649452,584.2261196775349 303.76187408,581.21785379 303.76187408,581.21785379 C303.76187408,581.21785379 445.84276122,581.21785379 445.84276122,581.21785379 C445.84276122,581.21785379 448.4403811041262,583.9320325142801 451.7374913697405,587.3770887325595 C541.3883285135885,563.2522695182276 676.04642873,527.01610679 676.04642873,527.01610679 C676.04642873,527.01610679 674.06724537,243.08465769 674.06724537,243.08465769 C674.06724537,243.08465769 373.6047735439116,162.68774758005648 373.4744394298245,162.65288068116425 C373.34404666238686,162.68796147071325 70.90244996,244.07424938 70.90244996,244.07424938 Z" transform="matrix(1,0,0,1,0,-40)" fill="url('#15070824714025665774')"/>
			<path d="M371.99999999000005,140.63719182398358 C372.1354703403487,140.67370611203648 698.99999999,228.78952026000002 698.99999999,228.78952026000002 C698.99999999,228.78952026000002 698.99999999,545.09418848 698.99999999,545.09418848 C698.99999999,545.09418848 553.7512883810731,584.250191399869 456.86242413047995,610.3693948645684 C451.6080185634812,615.8595729667801 445.84276122,621.88352548 445.84276122,621.88352548 C445.84276122,621.88352548 414.1508981197467,621.88352548 414.1508981197467,621.88352548 C388.5509968565818,628.7847213495214 372.0304668400138,633.2383093669366 371.99999998999994,633.2465150246886 C371.969533139986,633.2383093669366 355.44900312341815,628.7847213495214 329.8491018602532,621.88352548 C329.8491018602532,621.88352548 303.76187408,621.88352548 303.76187408,621.88352548 C303.76187408,621.88352548 299.24663837145334,617.2231918077229 294.5395125322183,612.3648015786794 C197.84300434827105,586.2974532707233 44.99999999,545.09418848 44.99999999,545.09418848 C44.99999999,545.09418848 44.99999999,228.78952026000002 44.99999999,228.78952026000002 C44.99999999,228.78952026000002 371.8645296396514,140.67370611203648 371.99999999000005,140.63719182398358 ZM70.90244996,244.07424938 C70.90244996,244.07424938 70.90244996,527.01610679 70.90244996,527.01610679 C70.90244996,527.01610679 207.62802835934633,563.8086227980506 297.26023169072505,587.9284276985971 C300.8472695649452,584.2261196775349 303.76187408,581.21785379 303.76187408,581.21785379 C303.76187408,581.21785379 445.84276122,581.21785379 445.84276122,581.21785379 C445.84276122,581.21785379 448.4403811041262,583.9320325142801 451.7374913697405,587.3770887325595 C541.3883285135885,563.2522695182276 676.04642873,527.01610679 676.04642873,527.01610679 C676.04642873,527.01610679 674.06724537,243.08465769 674.06724537,243.08465769 C674.06724537,243.08465769 373.6047735439116,162.68774758005648 373.4744394298245,162.65288068116425 C373.34404666238686,162.68796147071325 70.90244996,244.07424938 70.90244996,244.07424938 Z" transform="matrix(1,0,0,1,0,-40)" clip-path="url(#alignment-10187185454502969334)" fill="none" stroke="#6f3a08" stroke-width="8"/>
		</g>
	</g>
</g></g></svg>