<svg xmlns="http://www.w3.org/2000/svg" xmlns:graphite="https://graphite.art" viewBox="0 0 744 1038" width="744" height="1038"><defs><clipPath id="alignment-10299947462586364071">
<path d="M35.99999999999886,65.99999999999977 C35.99999999999886,49.44645666662933 49.44645666662842,35.99999999999977 65.99999999999886,35.99999999999977 L749.9999999999989,35.99999999999977 C766.5535433333694,35.99999999999977 779.9999999999989,49.44645666662933 779.9999999999989,65.99999999999977 L779.9999999999989,1043.9999999999998 C779.9999999999989,1060.5535433333703 766.5535433333694,1073.9999999999998 749.9999999999989,1073.9999999999998 L65.99999999999886,1073.9999999999998 C49.44645666662842,1073.9999999999998 35.99999999999886,1060.5535433333703 35.99999999999886,1043.9999999999998 L35.99999999999886,65.99999999999977 Z" fill="#000000"/></clipPath><radialGradient id="15008876716669144625" cx="624.090192399294" cy="778.5663998327576" r="571.4217894233807" gradientTransform="matrix(0.00148368,0,0,0.001059322,-0.105341246,-0.075211864)"><stop stop-color="#5f7470" /><stop offset="1" stop-color="#889696" /></radialGradient><radialGradient id="3538668295166585667" cx="361.32148313650004" cy="468.33012187948003" r="656.5233719072268" gradientTransform="matrix(0.001567398,0,0,0.001101322,-0.139498433,-0.098017621)"><stop stop-color="#f1e9d2" /><stop offset="0.197226" stop-color="#e4d6bc" /><stop offset="1" stop-color="#ae8964" /></radialGradient><clipPath id="alignment-4311996430811290990">
<path d="M88.99999999999994,98.99999999999989 C88.99999999999994,93.48215222220972 93.48215222220978,88.99999999999989 98.99999999999994,88.99999999999989 L717,88.99999999999989 C722.5178477777902,88.99999999999989 727,93.48215222220972 727,98.99999999999989 L727,987.0000000000001 C727,992.5178477777903 722.5178477777902,997.0000000000001 717,997.0000000000001 L98.99999999999994,997.0000000000001 C93.48215222220978,997.0000000000001 88.99999999999994,992.5178477777903 88.99999999999994,987.0000000000001 L88.99999999999994,98.99999999999989 Z" fill="#000000"/></clipPath><linearGradient id="12930453340193467892" x1="565.194091476521" y1="1081.1595791571285" x2="396.1502241387375" y2="271.8157516135946" gradientTransform="matrix(0.00148368,0,0,0.001059322,-0.105341246,-0.075211864)"><stop stop-color="#1a316d" /><stop offset="1" stop-color="#0fa9c9" /></linearGradient><linearGradient id="12840106383794389328" x1="638.7925798791389" y1="510.653540880948" x2="155.7428516968344" y2="184.6756596289818" gradientTransform="matrix(0.0016353,0,0,0.002219887,-0.110447295,-0.271101504)"><stop stop-color="#181825" /><stop offset="0.998634" stop-color="#303342" /></linearGradient><linearGradient id="4007430623642724752" x1="64.93933462128318" y1="172.451311043491" x2="730.0107350886614" y2="516.1203499748367" gradientTransform="matrix(0.00148368,0,0,0.001923077,-0.051928783,-0.171627944)"><stop stop-color="#ea8e2b" /><stop offset="0.454524" stop-color="#9a4919" /><stop offset="0.796613" stop-color="#ea8e2b" /><stop offset="1" stop-color="#9a4919" /></linearGradient><clipPath id="alignment-13673228581461116920">
<path d="M378.21127583000003,129.54509705243436 C378.344676518928,129.58363852015938 715.21127583,226.92392189 715.21127583,226.92392189 C715.21127583,226.92392189 715.21127583,545.09418848 715.21127583,545.09418848 C715.21127583,545.09418848 581.094197528956,581.2384711486277 482.075942062927,607.9236917055887 C476.2175249795572,613.7595113562678 470.40868633,619.54594381 470.40868633,619.54594381 C470.40868633,619.54594381 438.95038027456815,619.54594381 438.95038027456815,619.54594381 C402.9444146799154,629.2494790696097 378.2485277385262,635.9049708956279 378.21127583,635.9150026449576 C378.1740239214738,635.9049708956279 353.4781369800846,629.2494790696097 317.47217138543186,619.54594381 C317.47217138543186,619.54594381 289.59131367000003,619.54594381 289.59131367000003,619.54594381 C289.59131367000003,619.54594381 284.28004219626456,614.4904119244942 278.57963821494326,609.0644843984123 C179.19816703435396,582.2813779374111 41.21127583,545.09418848 41.21127583,545.09418848 C41.21127583,545.09418848 41.21127582999999,226.92392189000006 41.21127582999999,226.92392189 C41.21127583,226.92392189 378.0778751410721,129.58363852015938 378.21127583000003,129.54509705243436 ZM73.21127583,260.03272428 C73.21127583,260.03272428 73.21127583,519.22580035 73.21127583,519.22580035 C73.21127583,519.22580035 193.9960332604988,553.0962161264925 283.5464074713028,578.2078980306078 C287.025419216858,574.8964019233802 289.59131367000003,572.45405619 289.59131367000003,572.45405619 C289.59131367000003,572.45405619 470.40868633,572.45405619 470.40868633,572.45405619 C470.40868633,572.45405619 472.37823843848696,574.4160112256652 475.18028118291386,577.2072457651773 C564.4834758899457,551.8383776631539 683.21127583,518.11069405 683.21127583,518.11069405 C683.21127583,518.11069405 683.21127583,249.63025591000002 683.21127583,249.63025591000002 C683.21127583,249.63025591000002 378.3381331497749,160.74228268052647 378.2112772115563,160.70530420228158 C378.0912447855962,160.7443862637482 73.21127583,260.03272428 73.21127583,260.03272428 Z" fill="#000000"/></clipPath><mask id="mask-10230758215421223991" mask-type="alpha">
<g transform="matrix(1,0,0,1,0.00000001,-54.246522593)">
	<path d="M373.29386636677464,122.12398335630161 L677.0482447121124,203.40173263253632 L679.0482447121125,520.3195133845275 L373.29386636677464,572.5972626607622 L67.53948802143685,520.3195133845277 L67.53948802143668,204.40173263253644 L373.29386636677464,122.12398335630161 Z" transform="matrix(1,0,0,1,0,0)" fill="url('#12840106383794389328')" stroke="#303342" stroke-width="2"/>
</g>
<g transform="matrix(1,0,0,1,0.00000001,-54.246522593)">
	<path d="M378.21127583000003,129.54509705243436 C378.344676518928,129.58363852015938 715.21127583,226.92392189 715.21127583,226.92392189 C715.21127583,226.92392189 715.21127583,545.09418848 715.21127583,545.09418848 C715.21127583,545.09418848 581.094197528956,581.2384711486277 482.075942062927,607.9236917055887 C476.2175249795572,613.7595113562678 470.40868633,619.54594381 470.40868633,619.54594381 C470.40868633,619.54594381 438.95038027456815,619.54594381 438.95038027456815,619.54594381 C402.9444146799154,629.2494790696097 378.2485277385262,635.9049708956279 378.21127583,635.9150026449576 C378.1740239214738,635.9049708956279 353.4781369800846,629.2494790696097 317.47217138543186,619.54594381 C317.47217138543186,619.54594381 289.59131367000003,619.54594381 289.59131367000003,619.54594381 C289.59131367000003,619.54594381 284.28004219626456,614.4904119244942 278.57963821494326,609.0644843984123 C179.19816703435396,582.2813779374111 41.21127583,545.09418848 41.21127583,545.09418848 C41.21127583,545.09418848 41.21127582999999,226.92392189000006 41.21127582999999,226.92392189 C41.21127583,226.92392189 378.0778751410721,129.58363852015938 378.21127583000003,129.54509705243436 ZM73.21127583,260.03272428 C73.21127583,260.03272428 73.21127583,519.22580035 73.21127583,519.22580035 C73.21127583,519.22580035 193.9960332604988,553.0962161264925 283.5464074713028,578.2078980306078 C287.025419216858,574.8964019233802 289.59131367000003,572.45405619 289.59131367000003,572.45405619 C289.59131367000003,572.45405619 470.40868633,572.45405619 470.40868633,572.45405619 C470.40868633,572.45405619 472.37823843848696,574.4160112256652 475.18028118291386,577.2072457651773 C564.4834758899457,551.8383776631539 683.21127583,518.11069405 683.21127583,518.11069405 C683.21127583,518.11069405 683.21127583,249.63025591000002 683.21127583,249.63025591000002 C683.21127583,249.63025591000002 378.3381331497749,160.74228268052647 378.2112772115563,160.70530420228158 C378.0912447855962,160.7443862637482 73.21127583,260.03272428 73.21127583,260.03272428 Z" transform="matrix(1,0,0,1.026917241,-6.211275843,-43.78556518)" fill="url('#4007430623642724752')"/>
	<path d="M378.21127583000003,129.54509705243436 C378.344676518928,129.58363852015938 715.21127583,226.92392189 715.21127583,226.92392189 C715.21127583,226.92392189 715.21127583,545.09418848 715.21127583,545.09418848 C715.21127583,545.09418848 581.094197528956,581.2384711486277 482.075942062927,607.9236917055887 C476.2175249795572,613.7595113562678 470.40868633,619.54594381 470.40868633,619.54594381 C470.40868633,619.54594381 438.95038027456815,619.54594381 438.95038027456815,619.54594381 C402.9444146799154,629.2494790696097 378.2485277385262,635.9049708956279 378.21127583,635.9150026449576 C378.1740239214738,635.9049708956279 353.4781369800846,629.2494790696097 317.47217138543186,619.54594381 C317.47217138543186,619.54594381 289.59131367000003,619.54594381 289.59131367000003,619.54594381 C289.59131367000003,619.54594381 284.28004219626456,614.4904119244942 278.57963821494326,609.0644843984123 C179.19816703435396,582.2813779374111 41.21127583,545.09418848 41.21127583,545.09418848 C41.21127583,545.09418848 41.21127582999999,226.92392189000006 41.21127582999999,226.92392189 C41.21127583,226.92392189 378.0778751410721,129.58363852015938 378.21127583000003,129.54509705243436 ZM73.21127583,260.03272428 C73.21127583,260.03272428 73.21127583,519.22580035 73.21127583,519.22580035 C73.21127583,519.22580035 193.9960332604988,553.0962161264925 283.5464074713028,578.2078980306078 C287.025419216858,574.8964019233802 289.59131367000003,572.45405619 289.59131367000003,572.45405619 C289.59131367000003,572.45405619 470.40868633,572.45405619 470.40868633,572.45405619 C470.40868633,572.45405619 472.37823843848696,574.4160112256652 475.18028118291386,577.2072457651773 C564.4834758899457,551.8383776631539 683.21127583,518.11069405 683.21127583,518.11069405 C683.21127583,518.11069405 683.21127583,249.63025591000002 683.21127583,249.63025591000002 C683.21127583,249.63025591000002 378.3381331497749,160.74228268052647 378.2112772115563,160.70530420228158 C378.0912447855962,160.7443862637482 73.21127583,260.03272428 73.21127583,260.03272428 Z" transform="matrix(1,0,0,1.026917241,-6.211275843,-43.78556518)" clip-path="url(#alignment-13673228581461116920)" fill="none" stroke="#6f3a08" stroke-width="8"/>
</g></mask><linearGradient id="16473553761292149492" x1="638.7925798791389" y1="510.653540880948" x2="155.7428516968344" y2="184.6756596289818" gradientTransform="matrix(0.0016353,0,0,0.002219887,-0.110447295,-0.271101504)"><stop stop-color="#181825" /><stop offset="0.998634" stop-color="#303342" /></linearGradient><linearGradient id="12384747001587344606" x1="64.93933462128318" y1="172.451311043491" x2="730.0107350886614" y2="516.1203499748367" gradientTransform="matrix(0.00148368,0,0,0.001923077,-0.051928783,-0.171627944)"><stop stop-color="#ea8e2b" /><stop offset="0.454524" stop-color="#9a4919" /><stop offset="0.796613" stop-color="#ea8e2b" /><stop offset="1" stop-color="#9a4919" /></linearGradient><clipPath id="alignment-17264384417429013032">
<path d="M378.21127583000003,129.54509705243436 C378.344676518928,129.58363852015938 715.21127583,226.92392189 715.21127583,226.92392189 C715.21127583,226.92392189 715.21127583,545.09418848 715.21127583,545.09418848 C715.21127583,545.09418848 581.094197528956,581.2384711486277 482.075942062927,607.9236917055887 C476.2175249795572,613.7595113562678 470.40868633,619.54594381 470.40868633,619.54594381 C470.40868633,619.54594381 438.95038027456815,619.54594381 438.95038027456815,619.54594381 C402.9444146799154,629.2494790696097 378.2485277385262,635.9049708956279 378.21127583,635.9150026449576 C378.1740239214738,635.9049708956279 353.4781369800846,629.2494790696097 317.47217138543186,619.54594381 C317.47217138543186,619.54594381 289.59131367000003,619.54594381 289.59131367000003,619.54594381 C289.59131367000003,619.54594381 284.28004219626456,614.4904119244942 278.57963821494326,609.0644843984123 C179.19816703435396,582.2813779374111 41.21127583,545.09418848 41.21127583,545.09418848 C41.21127583,545.09418848 41.21127582999999,226.92392189000006 41.21127582999999,226.92392189 C41.21127583,226.92392189 378.0778751410721,129.58363852015938 378.21127583000003,129.54509705243436 ZM73.21127583,260.03272428 C73.21127583,260.03272428 73.21127583,519.22580035 73.21127583,519.22580035 C73.21127583,519.22580035 193.9960332604988,553.0962161264925 283.5464074713028,578.2078980306078 C287.025419216858,574.8964019233802 289.59131367000003,572.45405619 289.59131367000003,572.45405619 C289.59131367000003,572.45405619 470.40868633,572.45405619 470.40868633,572.45405619 C470.40868633,572.45405619 472.37823843848696,574.4160112256652 475.18028118291386,577.2072457651773 C564.4834758899457,551.8383776631539 683.21127583,518.11069405 683.21127583,518.11069405 C683.21127583,518.11069405 683.21127583,249.63025591000002 683.21127583,249.63025591000002 C683.21127583,249.63025591000002 378.3381331497749,160.74228268052647 378.2112772115563,160.70530420228158 C378.0912447855962,160.7443862637482 73.21127583,260.03272428 73.21127583,260.03272428 Z" fill="#000000"/></clipPath></defs><g>
<rect fill="#ffffff" fill-opacity="0" x="0" y="0" width="744" height="1038"/>
<g>
	<g>
		<g transform="matrix(1,0,0,1,-36,-36)">
			<path d="M35.99999999999886,65.99999999999977 C35.99999999999886,49.44645666662933 49.44645666662842,35.99999999999977 65.99999999999886,35.99999999999977 L749.9999999999989,35.99999999999977 C766.5535433333694,35.99999999999977 779.9999999999989,49.44645666662933 779.9999999999989,65.99999999999977 L779.9999999999989,1043.9999999999998 C779.9999999999989,1060.5535433333703 766.5535433333694,1073.9999999999998 749.9999999999989,1073.9999999999998 L65.99999999999886,1073.9999999999998 C49.44645666662842,1073.9999999999998 35.99999999999886,1060.5535433333703 35.99999999999886,1043.9999999999998 L35.99999999999886,65.99999999999977 Z" fill="#000000"/>
			<path d="M35.99999999999886,65.99999999999977 C35.99999999999886,49.44645666662933 49.44645666662842,35.99999999999977 65.99999999999886,35.99999999999977 L749.9999999999989,35.99999999999977 C766.5535433333694,35.99999999999977 779.9999999999989,49.44645666662933 779.9999999999989,65.99999999999977 L779.9999999999989,1043.9999999999998 C779.9999999999989,1060.5535433333703 766.5535433333694,1073.9999999999998 749.9999999999989,1073.9999999999998 L65.99999999999886,1073.9999999999998 C49.44645666662842,1073.9999999999998 35.99999999999886,1060.5535433333703 35.99999999999886,1043.9999999999998 L35.99999999999886,65.99999999999977 Z" clip-path="url(#alignment-10299947462586364071)" fill="none" stroke="#000000" stroke-width="4"/>
		</g>
		<g transform="matrix(1,0,0,1,-36,-36)">
			<path d="M70.99999999999994,80.99999999999989 C70.99999999999994,75.48215222220972 75.48215222220978,70.99999999999989 80.99999999999994,70.99999999999989 L735,70.99999999999989 C740.5178477777902,70.99999999999989 745,75.48215222220972 745,80.99999999999989 L745,1005.0000000000001 C745,1010.5178477777903 740.5178477777902,1015.0000000000001 735,1015.0000000000001 L80.99999999999994,1015.0000000000001 C75.48215222220978,1015.0000000000001 70.99999999999994,1010.5178477777903 70.99999999999994,1005.0000000000001 L70.99999999999994,80.99999999999989 Z" fill="url('#15008876716669144625')"/>
		</g>
		<g transform="matrix(1,0,0,1,-36,-36)">
			<path d="M88.99999999999994,98.99999999999989 C88.99999999999994,93.48215222220972 93.48215222220978,88.99999999999989 98.99999999999994,88.99999999999989 L717,88.99999999999989 C722.5178477777902,88.99999999999989 727,93.48215222220972 727,98.99999999999989 L727,987.0000000000001 C727,992.5178477777903 722.5178477777902,997.0000000000001 717,997.0000000000001 L98.99999999999994,997.0000000000001 C93.48215222220978,997.0000000000001 88.99999999999994,992.5178477777903 88.99999999999994,987.0000000000001 L88.99999999999994,98.99999999999989 Z" fill="url('#3538668295166585667')"/>
			<path d="M88.99999999999994,98.99999999999989 C88.99999999999994,93.48215222220972 93.48215222220978,88.99999999999989 98.99999999999994,88.99999999999989 L717,88.99999999999989 C722.5178477777902,88.99999999999989 727,93.48215222220972 727,98.99999999999989 L727,987.0000000000001 C727,992.5178477777903 722.5178477777902,997.0000000000001 717,997.0000000000001 L98.99999999999994,997.0000000000001 C93.48215222220978,997.0000000000001 88.99999999999994,992.5178477777903 88.99999999999994,987.0000000000001 L88.99999999999994,98.99999999999989 Z" clip-path="url(#alignment-4311996430811290990)" fill="none" stroke="#000000" stroke-width="4"/>
		</g>
	</g>
	<g>
		<g transform="matrix(1,0,0,1,-36,-36)">
			<g>
				<path d="M81,71 C81,71 735,71 735,71 C740.51784778,71 745,75.48215222 745,81 C745,81 745,1005 745,1005 C745,1010.51784778 740.51784778,1015 735,1015 C735,1015 81,1015 81,1015 C75.48215222,1015 71,1010.51784778 71,1005 C71,1005 71,81 71,81 C71,75.48215222 75.48215222,71 81,71 ZM89,99 C89,99 89,987 89,987 C89,992.51784778 93.48215222,997 99,997 C99,997 359.2174784295482,997 359.2174784295482,997 C361.90101615501555,993.6147780289391 371.61914922,981.3555736000001 371.61914922,981.3555736000001 C371.61914922,981.3555736000001 445.64021992,981.3555736000001 445.64021992,981.3555736000001 C445.64021992,981.3555736000001 455.239896138472,993.6147780289391 457.89072352602454,997 C457.89072352602454,997 717,997 717,997 C722.51784778,997 727,992.51784778 727,987 C727,987 727,99 727,99 C727,93.48215222 722.51784778,89 717,89 C717,89 99,89 99,89 C93.48215222,89 89,93.48215222 89,99 Z" fill="url('#12930453340193467892')" stroke="#000000" stroke-width="4" style="paint-order: stroke;" />
			</g>
			<g>
				<g transform="matrix(0.072691057,0,0,0.072691057,381.717092568,926.83494072)">
					<g transform="matrix(1,0,0,1,0,0)">
						<g>
							<g>
								<g>
									<path d="M383.3110824589945,895.5594830299418 C383.3110824589945,895.5594830299418 263.1040002034041,852.3711223469514 204.15139404729132,914.3365737541093 C150.51481202559023,970.7143186902734 309.19850655300945,1115.8841832369676 309.19850655300945,1115.8841832369676 C309.19850655300945,1115.8841832369676 239.69637138875817,1022.9404918313562 256.96909325362515,1011.0140479692471 C256.96909325362515,1011.0140479692471 271.17984305883067,1041.1629750654633 348.0846204046853,1092.5698998603339 C348.0846204046853,1092.5698998603339 355.68471734226307,1047.6032382776634 355.68471734226307,1047.6032382776634 C348.3144037399526,1043.3747264149683 165.64873323327618,944.0875949143914 383.3110824589945,895.5594830299418 C383.3110824589945,895.5594830299418 383.3110824589945,895.5594830299418 383.3110824589945,895.5594830299418 Z" fill="#40bee2"/>
								</g>
							</g>
						</g>
						<g>
							<g>
								<g>
									<path d="M510.8002775110127,961.7716179620901 C510.8002775110127,961.7716179620901 627.2357598630693,1043.5459068788255 558.3513410734182,1107.1365751162157 C516.337787290489,1145.9213737219375 410.69200320239463,1114.1092883838473 410.69200320239463,1114.1092883838473 C410.69200320239463,1114.1092883838473 435.77864136552455,1073.806245054553 435.77864136552455,1073.806245054553 C505.02462270863964,1088.8035411924452 577.4236605096103,1076.9231534495852 510.8002775110127,961.7716179620901 C510.8002775110127,961.7716179620901 510.8002775110127,961.7716179620901 510.8002775110127,961.7716179620901 Z" fill="#40bee2"/>
								</g>
							</g>
						</g>
						<g>
							<g>
								<g>
									<g>
										<path d="M394.0448499544824,1008.7558160714639 C394.0448499544824,1008.7558160714639 455.7094699248188,817.2023267458525 455.7094699248188,817.2023267458525 C455.7094699248188,817.2023267458525 501.0939089134714,762.5939762377669 501.0939089134714,762.5939762377669 C501.0939089134714,762.5939762377669 511.35505282355155,827.3956645547086 511.35505282355155,827.3956645547086 C511.35505282355155,827.3956645547086 433.9116132097166,1017.1237442786836 433.9116132097166,1017.1237442786836 C433.9116132097166,1017.1237442786836 500.1673050201713,1041.8143720870335 500.1673050201713,1041.8143720870335 C500.1673050201713,1041.8143720870335 465.868859688671,1057.5934353091538 465.868859688671,1057.5934353091538 C465.868859688671,1057.5934353091538 340.2837254311904,1014.6083848436123 340.2837254311904,1014.6083848436123 C340.2837254311904,1014.6083848436123 331.0196833363349,982.1440980385308 331.0196833363349,982.1440980385308 C331.0196833363349,982.1440980385308 394.0448499544824,1008.7558160714639 394.0448499544824,1008.7558160714639 C394.0448499544824,1008.7558160714639 394.0448499544824,1008.7558160714639 394.0448499544824,1008.7558160714639 Z" fill="#40bee2"/>
									</g>
								</g>
							</g>
							<g>
								<g>
									<g>
										<path d="M375.8082433426322,1048.1015082903727 C375.8082433426322,1048.1015082903727 366.1996047238832,1110.5368009248418 366.1996047238832,1110.5368009248418 C366.1996047238832,1110.5368009248418 338.5919430730779,1133.9204030381698 338.5919430730779,1133.9204030381698 C338.5919430730779,1133.9204030381698 355.43359237396146,1169.6081313152 356.402629816837,1169.227836588664 C357.3716672597126,1168.8475418621283 392.27363643050614,1151.7089557153167 392.27363643050614,1151.7089557153167 C392.27363643050614,1151.7089557153167 385.8890223235618,1119.8290093167566 385.8890223235618,1119.8290093167566 C385.8890223235618,1119.8290093167566 417.35613200546925,1061.3596918937646 417.35613200546925,1061.3596918937646 C417.35613200546925,1061.3596918937646 375.8082433426322,1048.1015082903727 375.8082433426322,1048.1015082903727 C375.8082433426322,1048.1015082903727 375.8082433426322,1048.1015082903727 375.8082433426322,1048.1015082903727 Z" fill="#40bee2"/>
									</g>
								</g>
							</g>
						</g>
						<g>
							<g>
								<g>
									<path d="M321.9907240252502,853.3516918932922 C59.17686767092664,783.936123171052 172.68335384263776,997.3777017006331 172.68335384263776,997.3777017006331 C159.89117476715126,942.7239893329545 158.20952858605517,901.0748551250842 201.01670877207255,874.8668621550256 C249.37059566088794,845.2629734860599 321.9907240252502,853.3516918932922 321.9907240252502,853.3516918932922 C321.9907240252502,853.3516918932922 321.9907240252502,853.3516918932922 321.9907240252502,853.3516918932922 Z" fill="#40bee2"/>
								</g>
							</g>
						</g>
						<g>
							<g>
								<g>
									<path d="M456.882445405794,1150.9058128433742 C701.9906805185472,1225.3430612500872 606.6226893108917,1037.8538811392223 606.6226893108917,1037.8538811392223 C647.2936700874446,1188.741308556598 456.882445405794,1150.9058128433742 456.882445405794,1150.9058128433742 C456.882445405794,1150.9058128433742 456.882445405794,1150.9058128433742 456.882445405794,1150.9058128433742 Z" fill="#40bee2"/>
								</g>
							</g>
						</g>
						<g>
							<g>
								<g>
									<path d="M407.839410565755,887.6118358049738 C329.1690838267433,729.6718797784023 250.0106651921029,815.020460533451 250.0106651921029,815.020460533451 C332.05450314227994,793.0951232325925 407.839410565755,887.6118358049738 407.839410565755,887.6118358049738 C407.839410565755,887.6118358049738 407.839410565755,887.6118358049738 407.839410565755,887.6118358049738 Z" fill="#40bee2"/>
								</g>
							</g>
						</g>
					</g>
				</g>
			</g>
		</g>
	</g>
	<g>
		<g transform="matrix(1,0,0,1,0.00000001,-54.246522593)">
			<path d="M373.29386636677464,122.12398335630161 L677.0482447121124,203.40173263253632 L679.0482447121125,520.3195133845275 L373.29386636677464,572.5972626607622 L67.53948802143685,520.3195133845277 L67.53948802143668,204.40173263253644 L373.29386636677464,122.12398335630161 Z" transform="matrix(1,0,0,1,0,0)" fill="url('#16473553761292149492')" stroke="#303342" stroke-width="2"/>
		</g>
		<g transform="matrix(1,0,0,1,0.00000001,-54.246522593)">
			<path d="M378.21127583000003,129.54509705243436 C378.344676518928,129.58363852015938 715.21127583,226.92392189 715.21127583,226.92392189 C715.21127583,226.92392189 715.21127583,545.09418848 715.21127583,545.09418848 C715.21127583,545.09418848 581.094197528956,581.2384711486277 482.075942062927,607.9236917055887 C476.2175249795572,613.7595113562678 470.40868633,619.54594381 470.40868633,619.54594381 C470.40868633,619.54594381 438.95038027456815,619.54594381 438.95038027456815,619.54594381 C402.9444146799154,629.2494790696097 378.2485277385262,635.9049708956279 378.21127583,635.9150026449576 C378.1740239214738,635.9049708956279 353.4781369800846,629.2494790696097 317.47217138543186,619.54594381 C317.47217138543186,619.54594381 289.59131367000003,619.54594381 289.59131367000003,619.54594381 C289.59131367000003,619.54594381 284.28004219626456,614.4904119244942 278.57963821494326,609.0644843984123 C179.19816703435396,582.2813779374111 41.21127583,545.09418848 41.21127583,545.09418848 C41.21127583,545.09418848 41.21127582999999,226.92392189000006 41.21127582999999,226.92392189 C41.21127583,226.92392189 378.0778751410721,129.58363852015938 378.21127583000003,129.54509705243436 ZM73.21127583,260.03272428 C73.21127583,260.03272428 73.21127583,519.22580035 73.21127583,519.22580035 C73.21127583,519.22580035 193.9960332604988,553.0962161264925 283.5464074713028,578.2078980306078 C287.025419216858,574.8964019233802 289.59131367000003,572.45405619 289.59131367000003,572.45405619 C289.59131367000003,572.45405619 470.40868633,572.45405619 470.40868633,572.45405619 C470.40868633,572.45405619 472.37823843848696,574.4160112256652 475.18028118291386,577.2072457651773 C564.4834758899457,551.8383776631539 683.21127583,518.11069405 683.21127583,518.11069405 C683.21127583,518.11069405 683.21127583,249.63025591000002 683.21127583,249.63025591000002 C683.21127583,249.63025591000002 378.3381331497749,160.74228268052647 378.2112772115563,160.70530420228158 C378.0912447855962,160.7443862637482 73.21127583,260.03272428 73.21127583,260.03272428 Z" transform="matrix(1,0,0,1.026917241,-6.211275843,-43.78556518)" fill="url('#12384747001587344606')"/>
			<path d="M378.21127583000003,129.54509705243436 C378.344676518928,129.58363852015938 715.21127583,226.92392189 715.21127583,226.92392189 C715.21127583,226.92392189 715.21127583,545.09418848 715.21127583,545.09418848 C715.21127583,545.09418848 581.094197528956,581.2384711486277 482.075942062927,607.9236917055887 C476.2175249795572,613.7595113562678 470.40868633,619.54594381 470.40868633,619.54594381 C470.40868633,619.54594381 438.95038027456815,619.54594381 438.95038027456815,619.54594381 C402.9444146799154,629.2494790696097 378.2485277385262,635.9049708956279 378.21127583,635.9150026449576 C378.1740239214738,635.9049708956279 353.4781369800846,629.2494790696097 317.47217138543186,619.54594381 C317.47217138543186,619.54594381 289.59131367000003,619.54594381 289.59131367000003,619.54594381 C289.59131367000003,619.54594381 284.28004219626456,614.4904119244942 278.57963821494326,609.0644843984123 C179.19816703435396,582.2813779374111 41.21127583,545.09418848 41.21127583,545.09418848 C41.21127583,545.09418848 41.21127582999999,226.92392189000006 41.21127582999999,226.92392189 C41.21127583,226.92392189 378.0778751410721,129.58363852015938 378.21127583000003,129.54509705243436 ZM73.21127583,260.03272428 C73.21127583,260.03272428 73.21127583,519.22580035 73.21127583,519.22580035 C73.21127583,519.22580035 193.9960332604988,553.0962161264925 283.5464074713028,578.2078980306078 C287.025419216858,574.8964019233802 289.59131367000003,572.45405619 289.59131367000003,572.45405619 C289.59131367000003,572.45405619 470.40868633,572.45405619 470.40868633,572.45405619 C470.40868633,572.45405619 472.37823843848696,574.4160112256652 475.18028118291386,577.2072457651773 C564.4834758899457,551.8383776631539 683.21127583,518.11069405 683.21127583,518.11069405 C683.21127583,518.11069405 683.21127583,249.63025591000002 683.21127583,249.63025591000002 C683.21127583,249.63025591000002 378.3381331497749,160.74228268052647 378.2112772115563,160.70530420228158 C378.0912447855962,160.7443862637482 73.21127583,260.03272428 73.21127583,260.03272428 Z" transform="matrix(1,0,0,1.026917241,-6.211275843,-43.78556518)" clip-path="url(#alignment-17264384417429013032)" fill="none" stroke="#6f3a08" stroke-width="8"/>
		</g>
	</g>
	<g mask="url(#mask-10230758215421223991)"/>
	<g>
		<polyline points="10000000,10000000 -10000000,10000000 -10000000,-10000000 10000000,-10000000" fill="#000000" fill-opacity="0"/>
	</g>
</g></g></svg>