<svg xmlns="http://www.w3.org/2000/svg" xmlns:graphite="https://graphite.art" viewBox="0 0 744 1038" width="744" height="1038"><defs><clipPath id="alignment-11259668468306883938">
<path d="M35.99999999999886,65.99999999999977 C35.99999999999886,49.44645666662933 49.44645666662842,35.99999999999977 65.99999999999886,35.99999999999977 L749.9999999999989,35.99999999999977 C766.5535433333694,35.99999999999977 779.9999999999989,49.44645666662933 779.9999999999989,65.99999999999977 L779.9999999999989,1043.9999999999998 C779.9999999999989,1060.5535433333703 766.5535433333694,1073.9999999999998 749.9999999999989,1073.9999999999998 L65.99999999999886,1073.9999999999998 C49.44645666662842,1073.9999999999998 35.99999999999886,1060.5535433333703 35.99999999999886,1043.9999999999998 L35.99999999999886,65.99999999999977 Z" fill="#000000"/></clipPath><radialGradient id="12965532972730708141" cx="624.090192399294" cy="778.5663998327576" r="571.4217894233807" gradientTransform="matrix(0.00148368,0,0,0.001059322,-0.105341246,-0.075211864)"><stop stop-color="#5f7470" /><stop offset="1" stop-color="#889696" /></radialGradient><radialGradient id="5280728036012779711" cx="361.32148313650004" cy="468.33012187948003" r="656.5233719072268" gradientTransform="matrix(0.001567398,0,0,0.001101322,-0.139498433,-0.098017621)"><stop stop-color="#f1e9d2" /><stop offset="0.197226" stop-color="#e4d6bc" /><stop offset="1" stop-color="#ae8964" /></radialGradient><clipPath id="alignment-7740787823936273458">
<path d="M88.99999999999994,98.99999999999989 C88.99999999999994,93.48215222220972 93.48215222220978,88.99999999999989 98.99999999999994,88.99999999999989 L717,88.99999999999989 C722.5178477777902,88.99999999999989 727,93.48215222220972 727,98.99999999999989 L727,987.0000000000001 C727,992.5178477777903 722.5178477777902,997.0000000000001 717,997.0000000000001 L98.99999999999994,997.0000000000001 C93.48215222220978,997.0000000000001 88.99999999999994,992.5178477777903 88.99999999999994,987.0000000000001 L88.99999999999994,98.99999999999989 Z" fill="#000000"/></clipPath><mask id="mask-4612488867572015839" mask-type="alpha">
<g transform="matrix(1,0,0,1,-36,-36)">
	<path d="M35.99999999999886,65.99999999999977 C35.99999999999886,49.44645666662933 49.44645666662842,35.99999999999977 65.99999999999886,35.99999999999977 L749.9999999999989,35.99999999999977 C766.5535433333694,35.99999999999977 779.9999999999989,49.44645666662933 779.9999999999989,65.99999999999977 L779.9999999999989,1043.9999999999998 C779.9999999999989,1060.5535433333703 766.5535433333694,1073.9999999999998 749.9999999999989,1073.9999999999998 L65.99999999999886,1073.9999999999998 C49.44645666662842,1073.9999999999998 35.99999999999886,1060.5535433333703 35.99999999999886,1043.9999999999998 L35.99999999999886,65.99999999999977 Z" fill="#000000"/>
	<path d="M35.99999999999886,65.99999999999977 C35.99999999999886,49.44645666662933 49.44645666662842,35.99999999999977 65.99999999999886,35.99999999999977 L749.9999999999989,35.99999999999977 C766.5535433333694,35.99999999999977 779.9999999999989,49.44645666662933 779.9999999999989,65.99999999999977 L779.9999999999989,1043.9999999999998 C779.9999999999989,1060.5535433333703 766.5535433333694,1073.9999999999998 749.9999999999989,1073.9999999999998 L65.99999999999886,1073.9999999999998 C49.44645666662842,1073.9999999999998 35.99999999999886,1060.5535433333703 35.99999999999886,1043.9999999999998 L35.99999999999886,65.99999999999977 Z" clip-path="url(#alignment-11259668468306883938)" fill="none" stroke="#000000" stroke-width="4"/>
</g>
<g transform="matrix(1,0,0,1,-36,-36)">
	<path d="M70.99999999999994,80.99999999999989 C70.99999999999994,75.48215222220972 75.48215222220978,70.99999999999989 80.99999999999994,70.99999999999989 L735,70.99999999999989 C740.5178477777902,70.99999999999989 745,75.48215222220972 745,80.99999999999989 L745,1005.0000000000001 C745,1010.5178477777903 740.5178477777902,1015.0000000000001 735,1015.0000000000001 L80.99999999999994,1015.0000000000001 C75.48215222220978,1015.0000000000001 70.99999999999994,1010.5178477777903 70.99999999999994,1005.0000000000001 L70.99999999999994,80.99999999999989 Z" fill="url('#12965532972730708141')"/>
</g>
<g transform="matrix(1,0,0,1,-36,-36)">
	<path d="M88.99999999999994,98.99999999999989 C88.99999999999994,93.48215222220972 93.48215222220978,88.99999999999989 98.99999999999994,88.99999999999989 L717,88.99999999999989 C722.5178477777902,88.99999999999989 727,93.48215222220972 727,98.99999999999989 L727,987.0000000000001 C727,992.5178477777903 722.5178477777902,997.0000000000001 717,997.0000000000001 L98.99999999999994,997.0000000000001 C93.48215222220978,997.0000000000001 88.99999999999994,992.5178477777903 88.99999999999994,987.0000000000001 L88.99999999999994,98.99999999999989 Z" fill="url('#5280728036012779711')"/>
	<path d="M88.99999999999994,98.99999999999989 C88.99999999999994,93.48215222220972 93.48215222220978,88.99999999999989 98.99999999999994,88.99999999999989 L717,88.99999999999989 C722.5178477777902,88.99999999999989 727,93.48215222220972 727,98.99999999999989 L727,987.0000000000001 C727,992.5178477777903 722.5178477777902,997.0000000000001 717,997.0000000000001 L98.99999999999994,997.0000000000001 C93.48215222220978,997.0000000000001 88.99999999999994,992.5178477777903 88.99999999999994,987.0000000000001 L88.99999999999994,98.99999999999989 Z" clip-path="url(#alignment-7740787823936273458)" fill="none" stroke="#000000" stroke-width="4"/>
</g></mask><clipPath id="alignment-13408269035641196394">
<path d="M35.99999999999886,65.99999999999977 C35.99999999999886,49.44645666662933 49.44645666662842,35.99999999999977 65.99999999999886,35.99999999999977 L749.9999999999989,35.99999999999977 C766.5535433333694,35.99999999999977 779.9999999999989,49.44645666662933 779.9999999999989,65.99999999999977 L779.9999999999989,1043.9999999999998 C779.9999999999989,1060.5535433333703 766.5535433333694,1073.9999999999998 749.9999999999989,1073.9999999999998 L65.99999999999886,1073.9999999999998 C49.44645666662842,1073.9999999999998 35.99999999999886,1060.5535433333703 35.99999999999886,1043.9999999999998 L35.99999999999886,65.99999999999977 Z" fill="#000000"/></clipPath><radialGradient id="14575637555422602603" cx="624.090192399294" cy="778.5663998327576" r="571.4217894233807" gradientTransform="matrix(0.00148368,0,0,0.001059322,-0.105341246,-0.075211864)"><stop stop-color="#5f7470" /><stop offset="1" stop-color="#889696" /></radialGradient><radialGradient id="7266350740371765985" cx="361.32148313650004" cy="468.33012187948003" r="656.5233719072268" gradientTransform="matrix(0.001567398,0,0,0.001101322,-0.139498433,-0.098017621)"><stop stop-color="#f1e9d2" /><stop offset="0.197226" stop-color="#e4d6bc" /><stop offset="1" stop-color="#ae8964" /></radialGradient><clipPath id="alignment-6069456902279990730">
<path d="M88.99999999999994,98.99999999999989 C88.99999999999994,93.48215222220972 93.48215222220978,88.99999999999989 98.99999999999994,88.99999999999989 L717,88.99999999999989 C722.5178477777902,88.99999999999989 727,93.48215222220972 727,98.99999999999989 L727,987.0000000000001 C727,992.5178477777903 722.5178477777902,997.0000000000001 717,997.0000000000001 L98.99999999999994,997.0000000000001 C93.48215222220978,997.0000000000001 88.99999999999994,992.5178477777903 88.99999999999994,987.0000000000001 L88.99999999999994,98.99999999999989 Z" fill="#000000"/></clipPath><linearGradient id="11310637541889638976" x1="638.7925798791389" y1="510.653540880948" x2="155.7428516968344" y2="184.6756596289818" gradientTransform="matrix(0.0016353,0,0,0.002219887,-0.110447295,-0.271101504)"><stop stop-color="#181825" /><stop offset="0.998634" stop-color="#303342" /></linearGradient><linearGradient id="12301165692994024883" x1="64.93933462128318" y1="172.451311043491" x2="730.0107350886614" y2="516.1203499748367" gradientTransform="matrix(0.00148368,0,0,0.001923077,-0.051928783,-0.171627944)"><stop stop-color="#ea8e2b" /><stop offset="0.454524" stop-color="#9a4919" /><stop offset="0.796613" stop-color="#ea8e2b" /><stop offset="1" stop-color="#9a4919" /></linearGradient><clipPath id="alignment-7740014813745159323">
<path d="M378.21127583000003,129.54509705243436 C378.344676518928,129.58363852015938 715.21127583,226.92392189 715.21127583,226.92392189 C715.21127583,226.92392189 715.21127583,545.09418848 715.21127583,545.09418848 C715.21127583,545.09418848 581.094197528956,581.2384711486277 482.075942062927,607.9236917055887 C476.2175249795572,613.7595113562678 470.40868633,619.54594381 470.40868633,619.54594381 C470.40868633,619.54594381 438.95038027456815,619.54594381 438.95038027456815,619.54594381 C402.9444146799154,629.2494790696097 378.2485277385262,635.9049708956279 378.21127583,635.9150026449576 C378.1740239214738,635.9049708956279 353.4781369800846,629.2494790696097 317.47217138543186,619.54594381 C317.47217138543186,619.54594381 289.59131367000003,619.54594381 289.59131367000003,619.54594381 C289.59131367000003,619.54594381 284.28004219626456,614.4904119244942 278.57963821494326,609.0644843984123 C179.19816703435396,582.2813779374111 41.21127583,545.09418848 41.21127583,545.09418848 C41.21127583,545.09418848 41.21127582999999,226.92392189000006 41.21127582999999,226.92392189 C41.21127583,226.92392189 378.0778751410721,129.58363852015938 378.21127583000003,129.54509705243436 ZM73.21127583,260.03272428 C73.21127583,260.03272428 73.21127583,519.22580035 73.21127583,519.22580035 C73.21127583,519.22580035 193.9960332604988,553.0962161264925 283.5464074713028,578.2078980306078 C287.025419216858,574.8964019233802 289.59131367000003,572.45405619 289.59131367000003,572.45405619 C289.59131367000003,572.45405619 470.40868633,572.45405619 470.40868633,572.45405619 C470.40868633,572.45405619 472.37823843848696,574.4160112256652 475.18028118291386,577.2072457651773 C564.4834758899457,551.8383776631539 683.21127583,518.11069405 683.21127583,518.11069405 C683.21127583,518.11069405 683.21127583,249.63025591000002 683.21127583,249.63025591000002 C683.21127583,249.63025591000002 378.3381331497749,160.74228268052647 378.2112772115563,160.70530420228158 C378.0912447855962,160.7443862637482 73.21127583,260.03272428 73.21127583,260.03272428 Z" fill="#000000"/></clipPath><mask id="mask-16757172153743589278" mask-type="alpha">
<g transform="matrix(1,0,0,1,0.00000001,-54.246522593)">
	<path d="M373.29386636677464,122.12398335630161 L677.0482447121124,203.40173263253632 L679.0482447121125,520.3195133845275 L373.29386636677464,572.5972626607622 L67.53948802143685,520.3195133845277 L67.53948802143668,204.40173263253644 L373.29386636677464,122.12398335630161 Z" transform="matrix(1,0,0,1,0,0)" fill="url('#11310637541889638976')" stroke="#303342" stroke-width="2"/>
</g>
<g transform="matrix(1,0,0,1,0.00000001,-54.246522593)">
	<path d="M378.21127583000003,129.54509705243436 C378.344676518928,129.58363852015938 715.21127583,226.92392189 715.21127583,226.92392189 C715.21127583,226.92392189 715.21127583,545.09418848 715.21127583,545.09418848 C715.21127583,545.09418848 581.094197528956,581.2384711486277 482.075942062927,607.9236917055887 C476.2175249795572,613.7595113562678 470.40868633,619.54594381 470.40868633,619.54594381 C470.40868633,619.54594381 438.95038027456815,619.54594381 438.95038027456815,619.54594381 C402.9444146799154,629.2494790696097 378.2485277385262,635.9049708956279 378.21127583,635.9150026449576 C378.1740239214738,635.9049708956279 353.4781369800846,629.2494790696097 317.47217138543186,619.54594381 C317.47217138543186,619.54594381 289.59131367000003,619.54594381 289.59131367000003,619.54594381 C289.59131367000003,619.54594381 284.28004219626456,614.4904119244942 278.57963821494326,609.0644843984123 C179.19816703435396,582.2813779374111 41.21127583,545.09418848 41.21127583,545.09418848 C41.21127583,545.09418848 41.21127582999999,226.92392189000006 41.21127582999999,226.92392189 C41.21127583,226.92392189 378.0778751410721,129.58363852015938 378.21127583000003,129.54509705243436 ZM73.21127583,260.03272428 C73.21127583,260.03272428 73.21127583,519.22580035 73.21127583,519.22580035 C73.21127583,519.22580035 193.9960332604988,553.0962161264925 283.5464074713028,578.2078980306078 C287.025419216858,574.8964019233802 289.59131367000003,572.45405619 289.59131367000003,572.45405619 C289.59131367000003,572.45405619 470.40868633,572.45405619 470.40868633,572.45405619 C470.40868633,572.45405619 472.37823843848696,574.4160112256652 475.18028118291386,577.2072457651773 C564.4834758899457,551.8383776631539 683.21127583,518.11069405 683.21127583,518.11069405 C683.21127583,518.11069405 683.21127583,249.63025591000002 683.21127583,249.63025591000002 C683.21127583,249.63025591000002 378.3381331497749,160.74228268052647 378.2112772115563,160.70530420228158 C378.0912447855962,160.7443862637482 73.21127583,260.03272428 73.21127583,260.03272428 Z" transform="matrix(1,0,0,1.026917241,-6.211275843,-43.78556518)" fill="url('#12301165692994024883')"/>
	<path d="M378.21127583000003,129.54509705243436 C378.344676518928,129.58363852015938 715.21127583,226.92392189 715.21127583,226.92392189 C715.21127583,226.92392189 715.21127583,545.09418848 715.21127583,545.09418848 C715.21127583,545.09418848 581.094197528956,581.2384711486277 482.075942062927,607.9236917055887 C476.2175249795572,613.7595113562678 470.40868633,619.54594381 470.40868633,619.54594381 C470.40868633,619.54594381 438.95038027456815,619.54594381 438.95038027456815,619.54594381 C402.9444146799154,629.2494790696097 378.2485277385262,635.9049708956279 378.21127583,635.9150026449576 C378.1740239214738,635.9049708956279 353.4781369800846,629.2494790696097 317.47217138543186,619.54594381 C317.47217138543186,619.54594381 289.59131367000003,619.54594381 289.59131367000003,619.54594381 C289.59131367000003,619.54594381 284.28004219626456,614.4904119244942 278.57963821494326,609.0644843984123 C179.19816703435396,582.2813779374111 41.21127583,545.09418848 41.21127583,545.09418848 C41.21127583,545.09418848 41.21127582999999,226.92392189000006 41.21127582999999,226.92392189 C41.21127583,226.92392189 378.0778751410721,129.58363852015938 378.21127583000003,129.54509705243436 ZM73.21127583,260.03272428 C73.21127583,260.03272428 73.21127583,519.22580035 73.21127583,519.22580035 C73.21127583,519.22580035 193.9960332604988,553.0962161264925 283.5464074713028,578.2078980306078 C287.025419216858,574.8964019233802 289.59131367000003,572.45405619 289.59131367000003,572.45405619 C289.59131367000003,572.45405619 470.40868633,572.45405619 470.40868633,572.45405619 C470.40868633,572.45405619 472.37823843848696,574.4160112256652 475.18028118291386,577.2072457651773 C564.4834758899457,551.8383776631539 683.21127583,518.11069405 683.21127583,518.11069405 C683.21127583,518.11069405 683.21127583,249.63025591000002 683.21127583,249.63025591000002 C683.21127583,249.63025591000002 378.3381331497749,160.74228268052647 378.2112772115563,160.70530420228158 C378.0912447855962,160.7443862637482 73.21127583,260.03272428 73.21127583,260.03272428 Z" transform="matrix(1,0,0,1.026917241,-6.211275843,-43.78556518)" clip-path="url(#alignment-7740014813745159323)" fill="none" stroke="#6f3a08" stroke-width="8"/>
</g></mask><linearGradient id="9492074459754642346" x1="638.7925798791389" y1="510.653540880948" x2="155.7428516968344" y2="184.6756596289818" gradientTransform="matrix(0.0016353,0,0,0.002219887,-0.110447295,-0.271101504)"><stop stop-color="#181825" /><stop offset="0.998634" stop-color="#303342" /></linearGradient><linearGradient id="9441973031699008364" x1="64.93933462128318" y1="172.451311043491" x2="730.0107350886614" y2="516.1203499748367" gradientTransform="matrix(0.00148368,0,0,0.001923077,-0.051928783,-0.171627944)"><stop stop-color="#ea8e2b" /><stop offset="0.454524" stop-color="#9a4919" /><stop offset="0.796613" stop-color="#ea8e2b" /><stop offset="1" stop-color="#9a4919" /></linearGradient><clipPath id="alignment-10922404298301592703">
<path d="M378.21127583000003,129.54509705243436 C378.344676518928,129.58363852015938 715.21127583,226.92392189 715.21127583,226.92392189 C715.21127583,226.92392189 715.21127583,545.09418848 715.21127583,545.09418848 C715.21127583,545.09418848 581.094197528956,581.2384711486277 482.075942062927,607.9236917055887 C476.2175249795572,613.7595113562678 470.40868633,619.54594381 470.40868633,619.54594381 C470.40868633,619.54594381 438.95038027456815,619.54594381 438.95038027456815,619.54594381 C402.9444146799154,629.2494790696097 378.2485277385262,635.9049708956279 378.21127583,635.9150026449576 C378.1740239214738,635.9049708956279 353.4781369800846,629.2494790696097 317.47217138543186,619.54594381 C317.47217138543186,619.54594381 289.59131367000003,619.54594381 289.59131367000003,619.54594381 C289.59131367000003,619.54594381 284.28004219626456,614.4904119244942 278.57963821494326,609.0644843984123 C179.19816703435396,582.2813779374111 41.21127583,545.09418848 41.21127583,545.09418848 C41.21127583,545.09418848 41.21127582999999,226.92392189000006 41.21127582999999,226.92392189 C41.21127583,226.92392189 378.0778751410721,129.58363852015938 378.21127583000003,129.54509705243436 ZM73.21127583,260.03272428 C73.21127583,260.03272428 73.21127583,519.22580035 73.21127583,519.22580035 C73.21127583,519.22580035 193.9960332604988,553.0962161264925 283.5464074713028,578.2078980306078 C287.025419216858,574.8964019233802 289.59131367000003,572.45405619 289.59131367000003,572.45405619 C289.59131367000003,572.45405619 470.40868633,572.45405619 470.40868633,572.45405619 C470.40868633,572.45405619 472.37823843848696,574.4160112256652 475.18028118291386,577.2072457651773 C564.4834758899457,551.8383776631539 683.21127583,518.11069405 683.21127583,518.11069405 C683.21127583,518.11069405 683.21127583,249.63025591000002 683.21127583,249.63025591000002 C683.21127583,249.63025591000002 378.3381331497749,160.74228268052647 378.2112772115563,160.70530420228158 C378.0912447855962,160.7443862637482 73.21127583,260.03272428 73.21127583,260.03272428 Z" fill="#000000"/></clipPath></defs><g>
<rect fill="#ffffff" fill-opacity="0" x="0" y="0" width="744" height="1038"/>
<g>
	<g>
		<g transform="matrix(1,0,0,1,-36,-36)">
			<path d="M35.99999999999886,65.99999999999977 C35.99999999999886,49.44645666662933 49.44645666662842,35.99999999999977 65.99999999999886,35.99999999999977 L749.9999999999989,35.99999999999977 C766.5535433333694,35.99999999999977 779.9999999999989,49.44645666662933 779.9999999999989,65.99999999999977 L779.9999999999989,1043.9999999999998 C779.9999999999989,1060.5535433333703 766.5535433333694,1073.9999999999998 749.9999999999989,1073.9999999999998 L65.99999999999886,1073.9999999999998 C49.44645666662842,1073.9999999999998 35.99999999999886,1060.5535433333703 35.99999999999886,1043.9999999999998 L35.99999999999886,65.99999999999977 Z" fill="#000000"/>
			<path d="M35.99999999999886,65.99999999999977 C35.99999999999886,49.44645666662933 49.44645666662842,35.99999999999977 65.99999999999886,35.99999999999977 L749.9999999999989,35.99999999999977 C766.5535433333694,35.99999999999977 779.9999999999989,49.44645666662933 779.9999999999989,65.99999999999977 L779.9999999999989,1043.9999999999998 C779.9999999999989,1060.5535433333703 766.5535433333694,1073.9999999999998 749.9999999999989,1073.9999999999998 L65.99999999999886,1073.9999999999998 C49.44645666662842,1073.9999999999998 35.99999999999886,1060.5535433333703 35.99999999999886,1043.9999999999998 L35.99999999999886,65.99999999999977 Z" clip-path="url(#alignment-13408269035641196394)" fill="none" stroke="#000000" stroke-width="4"/>
		</g>
		<g transform="matrix(1,0,0,1,-36,-36)">
			<path d="M70.99999999999994,80.99999999999989 C70.99999999999994,75.48215222220972 75.48215222220978,70.99999999999989 80.99999999999994,70.99999999999989 L735,70.99999999999989 C740.5178477777902,70.99999999999989 745,75.48215222220972 745,80.99999999999989 L745,1005.0000000000001 C745,1010.5178477777903 740.5178477777902,1015.0000000000001 735,1015.0000000000001 L80.99999999999994,1015.0000000000001 C75.48215222220978,1015.0000000000001 70.99999999999994,1010.5178477777903 70.99999999999994,1005.0000000000001 L70.99999999999994,80.99999999999989 Z" fill="url('#14575637555422602603')"/>
		</g>
		<g transform="matrix(1,0,0,1,-36,-36)">
			<path d="M88.99999999999994,98.99999999999989 C88.99999999999994,93.48215222220972 93.48215222220978,88.99999999999989 98.99999999999994,88.99999999999989 L717,88.99999999999989 C722.5178477777902,88.99999999999989 727,93.48215222220972 727,98.99999999999989 L727,987.0000000000001 C727,992.5178477777903 722.5178477777902,997.0000000000001 717,997.0000000000001 L98.99999999999994,997.0000000000001 C93.48215222220978,997.0000000000001 88.99999999999994,992.5178477777903 88.99999999999994,987.0000000000001 L88.99999999999994,98.99999999999989 Z" fill="url('#7266350740371765985')"/>
			<path d="M88.99999999999994,98.99999999999989 C88.99999999999994,93.48215222220972 93.48215222220978,88.99999999999989 98.99999999999994,88.99999999999989 L717,88.99999999999989 C722.5178477777902,88.99999999999989 727,93.48215222220972 727,98.99999999999989 L727,987.0000000000001 C727,992.5178477777903 722.5178477777902,997.0000000000001 717,997.0000000000001 L98.99999999999994,997.0000000000001 C93.48215222220978,997.0000000000001 88.99999999999994,992.5178477777903 88.99999999999994,987.0000000000001 L88.99999999999994,98.99999999999989 Z" clip-path="url(#alignment-6069456902279990730)" fill="none" stroke="#000000" stroke-width="4"/>
		</g>
	</g>
	<g mask="url(#mask-4612488867572015839)"/>
	<g>
		<g transform="matrix(1,0,0,1,0.00000001,-54.246522593)">
			<path d="M373.29386636677464,122.12398335630161 L677.0482447121124,203.40173263253632 L679.0482447121125,520.3195133845275 L373.29386636677464,572.5972626607622 L67.53948802143685,520.3195133845277 L67.53948802143668,204.40173263253644 L373.29386636677464,122.12398335630161 Z" transform="matrix(1,0,0,1,0,0)" fill="url('#9492074459754642346')" stroke="#303342" stroke-width="2"/>
		</g>
		<g transform="matrix(1,0,0,1,0.00000001,-54.246522593)">
			<path d="M378.21127583000003,129.54509705243436 C378.344676518928,129.58363852015938 715.21127583,226.92392189 715.21127583,226.92392189 C715.21127583,226.92392189 715.21127583,545.09418848 715.21127583,545.09418848 C715.21127583,545.09418848 581.094197528956,581.2384711486277 482.075942062927,607.9236917055887 C476.2175249795572,613.7595113562678 470.40868633,619.54594381 470.40868633,619.54594381 C470.40868633,619.54594381 438.95038027456815,619.54594381 438.95038027456815,619.54594381 C402.9444146799154,629.2494790696097 378.2485277385262,635.9049708956279 378.21127583,635.9150026449576 C378.1740239214738,635.9049708956279 353.4781369800846,629.2494790696097 317.47217138543186,619.54594381 C317.47217138543186,619.54594381 289.59131367000003,619.54594381 289.59131367000003,619.54594381 C289.59131367000003,619.54594381 284.28004219626456,614.4904119244942 278.57963821494326,609.0644843984123 C179.19816703435396,582.2813779374111 41.21127583,545.09418848 41.21127583,545.09418848 C41.21127583,545.09418848 41.21127582999999,226.92392189000006 41.21127582999999,226.92392189 C41.21127583,226.92392189 378.0778751410721,129.58363852015938 378.21127583000003,129.54509705243436 ZM73.21127583,260.03272428 C73.21127583,260.03272428 73.21127583,519.22580035 73.21127583,519.22580035 C73.21127583,519.22580035 193.9960332604988,553.0962161264925 283.5464074713028,578.2078980306078 C287.025419216858,574.8964019233802 289.59131367000003,572.45405619 289.59131367000003,572.45405619 C289.59131367000003,572.45405619 470.40868633,572.45405619 470.40868633,572.45405619 C470.40868633,572.45405619 472.37823843848696,574.4160112256652 475.18028118291386,577.2072457651773 C564.4834758899457,551.8383776631539 683.21127583,518.11069405 683.21127583,518.11069405 C683.21127583,518.11069405 683.21127583,249.63025591000002 683.21127583,249.63025591000002 C683.21127583,249.63025591000002 378.3381331497749,160.74228268052647 378.2112772115563,160.70530420228158 C378.0912447855962,160.7443862637482 73.21127583,260.03272428 73.21127583,260.03272428 Z" transform="matrix(1,0,0,1.026917241,-6.211275843,-43.78556518)" fill="url('#9441973031699008364')"/>
			<path d="M378.21127583000003,129.54509705243436 C378.344676518928,129.58363852015938 715.21127583,226.92392189 715.21127583,226.92392189 C715.21127583,226.92392189 715.21127583,545.09418848 715.21127583,545.09418848 C715.21127583,545.09418848 581.094197528956,581.2384711486277 482.075942062927,607.9236917055887 C476.2175249795572,613.7595113562678 470.40868633,619.54594381 470.40868633,619.54594381 C470.40868633,619.54594381 438.95038027456815,619.54594381 438.95038027456815,619.54594381 C402.9444146799154,629.2494790696097 378.2485277385262,635.9049708956279 378.21127583,635.9150026449576 C378.1740239214738,635.9049708956279 353.4781369800846,629.2494790696097 317.47217138543186,619.54594381 C317.47217138543186,619.54594381 289.59131367000003,619.54594381 289.59131367000003,619.54594381 C289.59131367000003,619.54594381 284.28004219626456,614.4904119244942 278.57963821494326,609.0644843984123 C179.19816703435396,582.2813779374111 41.21127583,545.09418848 41.21127583,545.09418848 C41.21127583,545.09418848 41.21127582999999,226.92392189000006 41.21127582999999,226.92392189 C41.21127583,226.92392189 378.0778751410721,129.58363852015938 378.21127583000003,129.54509705243436 ZM73.21127583,260.03272428 C73.21127583,260.03272428 73.21127583,519.22580035 73.21127583,519.22580035 C73.21127583,519.22580035 193.9960332604988,553.0962161264925 283.5464074713028,578.2078980306078 C287.025419216858,574.8964019233802 289.59131367000003,572.45405619 289.59131367000003,572.45405619 C289.59131367000003,572.45405619 470.40868633,572.45405619 470.40868633,572.45405619 C470.40868633,572.45405619 472.37823843848696,574.4160112256652 475.18028118291386,577.2072457651773 C564.4834758899457,551.8383776631539 683.21127583,518.11069405 683.21127583,518.11069405 C683.21127583,518.11069405 683.21127583,249.63025591000002 683.21127583,249.63025591000002 C683.21127583,249.63025591000002 378.3381331497749,160.74228268052647 378.2112772115563,160.70530420228158 C378.0912447855962,160.7443862637482 73.21127583,260.03272428 73.21127583,260.03272428 Z" transform="matrix(1,0,0,1.026917241,-6.211275843,-43.78556518)" clip-path="url(#alignment-10922404298301592703)" fill="none" stroke="#6f3a08" stroke-width="8"/>
		</g>
	</g>
	<g mask="url(#mask-16757172153743589278)"/>
	<g>
		<polyline points="10000000,10000000 -10000000,10000000 -10000000,-10000000 10000000,-10000000" fill="#000000" fill-opacity="0"/>
	</g>
</g></g></svg>