<svg xmlns="http://www.w3.org/2000/svg" xmlns:graphite="https://graphite.art" viewBox="0 0 744 1038" width="744" height="1038"><defs><clipPath id="alignment-10869789947340727526">
<path d="M35.99999999999886,65.99999999999977 C35.99999999999886,49.44645666662933 49.44645666662842,35.99999999999977 65.99999999999886,35.99999999999977 L749.9999999999989,35.99999999999977 C766.5535433333694,35.99999999999977 779.9999999999989,49.44645666662933 779.9999999999989,65.99999999999977 L779.9999999999989,1043.9999999999998 C779.9999999999989,1060.5535433333703 766.5535433333694,1073.9999999999998 749.9999999999989,1073.9999999999998 L65.99999999999886,1073.9999999999998 C49.44645666662842,1073.9999999999998 35.99999999999886,1060.5535433333703 35.99999999999886,1043.9999999999998 L35.99999999999886,65.99999999999977 Z" fill="#000000"/></clipPath><radialGradient id="11990375171333027878" cx="624.090192399294" cy="778.5663998327576" r="571.4217894233807" gradientTransform="matrix(0.00148368,0,0,0.001059322,-0.105341246,-0.075211864)"><stop stop-color="#5f7470" /><stop offset="1" stop-color="#889696" /></radialGradient><radialGradient id="7234333608137589358" cx="361.32148313650004" cy="468.33012187948003" r="656.5233719072268" gradientTransform="matrix(0.001567398,0,0,0.001101322,-0.139498433,-0.098017621)"><stop stop-color="#f1e9d2" /><stop offset="0.197226" stop-color="#e4d6bc" /><stop offset="1" stop-color="#ae8964" /></radialGradient><clipPath id="alignment-18013512667319875870">
<path d="M88.99999999999994,98.99999999999989 C88.99999999999994,93.48215222220972 93.48215222220978,88.99999999999989 98.99999999999994,88.99999999999989 L717,88.99999999999989 C722.5178477777902,88.99999999999989 727,93.48215222220972 727,98.99999999999989 L727,987.0000000000001 C727,992.5178477777903 722.5178477777902,997.0000000000001 717,997.0000000000001 L98.99999999999994,997.0000000000001 C93.48215222220978,997.0000000000001 88.99999999999994,992.5178477777903 88.99999999999994,987.0000000000001 L88.99999999999994,98.99999999999989 Z" fill="#000000"/></clipPath><linearGradient id="10245776107250460320" x1="673.6401318007926" y1="839.8427666189016" x2="771.9226755128655" y2="535.9459244303209" gradientTransform="matrix(0.05,0,0,0.002575594,-36.25,-1.377942616)"><stop stop-color="#1a316d" /><stop offset="1" stop-color="#0fa9c9" /></linearGradient><linearGradient id="1419306106622881034" x1="160.84044037495067" y1="858.3283356631573" x2="-48.24360041716666" y2="517.2225444562504" gradientTransform="matrix(0.05,0,0,0.002575594,-3.55,-1.377942616)"><stop stop-color="#1a316d" /><stop offset="1" stop-color="#0fa9c9" /></linearGradient><radialGradient id="6365211418859630211" cx="407.900996196747" cy="1037.6942260174956" r="504.9216899223972" gradientTransform="matrix(0.002104452,0,0,0.028864672,-0.358619732,-28.297641943)"><stop stop-color="#1a316d" /><stop offset="1" stop-color="#0fa9c9" /></radialGradient><mask id="mask-8495743612438701351" mask-type="alpha">
<g>
	<polyline points="10000000,10000000 -10000000,10000000 -10000000,-10000000 10000000,-10000000" fill="#000000" fill-opacity="0"/>
</g>
<g>
	<g transform="matrix(1,0,0,1,-36,-36)">
		<path d="M745.0000000000023,535.0000000000031 L745.0000000000023,901.9999999999998 C745.0000000000023,901.9999999999998 725.0000000000023,923.2599999999998 725.0000000000023,923.2599999999998 C725.0000000000023,923.2599999999998 724.9999999999973,559.2599999999999 724.9999999999973,559.2599999999999 L745.0000000000023,535.0000000000031 Z" fill="url('#10245776107250460320')"/>
	</g>
	<g transform="matrix(1,0,0,1,-36,-36)">
		<path d="M71.0000000000017,535.0000000000002 C71.0000000000017,535.0000000000002 71.00000000000182,902.0000000000002 71.00000000000182,902.0000000000002 C71.00000000000182,902.0000000000002 91.00000000000176,923.2599999999998 91.00000000000176,923.2599999999998 C91.00000000000176,923.2599999999998 91.00000000000165,558.2645864108044 91.00000000000165,558.2645864108044 L71.0000000000017,535.0000000000002 Z" fill="url('#1419306106622881034')"/>
	</g>
	<g transform="matrix(1,0,0,1,-36,-36)">
		<path d="M371.61914922,980.3555736000001 C371.61914922,980.3555736000001 445.64021992,980.3555736000001 445.64021992,980.3555736000001 C445.64021992,980.3555736000001 453.78781316,990.76040485 457.14347200000003,995.04572727 C457.14347200000003,995.04572727 645.593,995.04572727 645.593,995.04572727 C645.593,995.04572727 630.35,1015 630.35,1015 C630.35,1015 185.29,1015 185.29,1015 C185.29,1015 170.41,995.04572727 170.41,995.04572727 C170.41,995.04572727 359.97395079,995.04572727 359.97395079,995.04572727 C363.37101736,990.76040485 371.61914922,980.3555736000001 371.61914922,980.3555736000001 Z" fill="url('#6365211418859630211')"/>
	</g>
	<g transform="matrix(1,0,0,1,-36,-36)">
		<g transform="matrix(0.072691057,0,0,0.072691057,381.717092568,926.83494072)">
			<g transform="matrix(1,0,0,1,0,0)">
				<g>
					<g>
						<g>
							<path d="M383.3110824589945,895.5594830299418 C383.3110824589945,895.5594830299418 263.1040002034041,852.3711223469514 204.15139404729132,914.3365737541093 C150.51481202559023,970.7143186902734 309.19850655300945,1115.8841832369676 309.19850655300945,1115.8841832369676 C309.19850655300945,1115.8841832369676 239.69637138875817,1022.9404918313562 256.96909325362515,1011.0140479692471 C256.96909325362515,1011.0140479692471 271.17984305883067,1041.1629750654633 348.0846204046853,1092.5698998603339 C348.0846204046853,1092.5698998603339 355.68471734226307,1047.6032382776634 355.68471734226307,1047.6032382776634 C348.3144037399526,1043.3747264149683 165.64873323327618,944.0875949143914 383.3110824589945,895.5594830299418 C383.3110824589945,895.5594830299418 383.3110824589945,895.5594830299418 383.3110824589945,895.5594830299418 Z" fill="#40bee2"/>
						</g>
					</g>
				</g>
				<g>
					<g>
						<g>
							<path d="M510.8002775110127,961.7716179620901 C510.8002775110127,961.7716179620901 627.2357598630693,1043.5459068788255 558.3513410734182,1107.1365751162157 C516.337787290489,1145.9213737219375 410.69200320239463,1114.1092883838473 410.69200320239463,1114.1092883838473 C410.69200320239463,1114.1092883838473 435.77864136552455,1073.806245054553 435.77864136552455,1073.806245054553 C505.02462270863964,1088.8035411924452 577.4236605096103,1076.9231534495852 510.8002775110127,961.7716179620901 C510.8002775110127,961.7716179620901 510.8002775110127,961.7716179620901 510.8002775110127,961.7716179620901 Z" fill="#40bee2"/>
						</g>
					</g>
				</g>
				<g>
					<g>
						<g>
							<g>
								<path d="M394.0448499544824,1008.7558160714639 C394.0448499544824,1008.7558160714639 455.7094699248188,817.2023267458525 455.7094699248188,817.2023267458525 C455.7094699248188,817.2023267458525 501.0939089134714,762.5939762377669 501.0939089134714,762.5939762377669 C501.0939089134714,762.5939762377669 511.35505282355155,827.3956645547086 511.35505282355155,827.3956645547086 C511.35505282355155,827.3956645547086 433.9116132097166,1017.1237442786836 433.9116132097166,1017.1237442786836 C433.9116132097166,1017.1237442786836 500.1673050201713,1041.8143720870335 500.1673050201713,1041.8143720870335 C500.1673050201713,1041.8143720870335 465.868859688671,1057.5934353091538 465.868859688671,1057.5934353091538 C465.868859688671,1057.5934353091538 340.2837254311904,1014.6083848436123 340.2837254311904,1014.6083848436123 C340.2837254311904,1014.6083848436123 331.0196833363349,982.1440980385308 331.0196833363349,982.1440980385308 C331.0196833363349,982.1440980385308 394.0448499544824,1008.7558160714639 394.0448499544824,1008.7558160714639 C394.0448499544824,1008.7558160714639 394.0448499544824,1008.7558160714639 394.0448499544824,1008.7558160714639 Z" fill="#40bee2"/>
							</g>
						</g>
					</g>
					<g>
						<g>
							<g>
								<path d="M375.8082433426322,1048.1015082903727 C375.8082433426322,1048.1015082903727 366.1996047238832,1110.5368009248418 366.1996047238832,1110.5368009248418 C366.1996047238832,1110.5368009248418 338.5919430730779,1133.9204030381698 338.5919430730779,1133.9204030381698 C338.5919430730779,1133.9204030381698 355.43359237396146,1169.6081313152 356.402629816837,1169.227836588664 C357.3716672597126,1168.8475418621283 392.27363643050614,1151.7089557153167 392.27363643050614,1151.7089557153167 C392.27363643050614,1151.7089557153167 385.8890223235618,1119.8290093167566 385.8890223235618,1119.8290093167566 C385.8890223235618,1119.8290093167566 417.35613200546925,1061.3596918937646 417.35613200546925,1061.3596918937646 C417.35613200546925,1061.3596918937646 375.8082433426322,1048.1015082903727 375.8082433426322,1048.1015082903727 C375.8082433426322,1048.1015082903727 375.8082433426322,1048.1015082903727 375.8082433426322,1048.1015082903727 Z" fill="#40bee2"/>
							</g>
						</g>
					</g>
				</g>
				<g>
					<g>
						<g>
							<path d="M321.9907240252502,853.3516918932922 C59.17686767092664,783.936123171052 172.68335384263776,997.3777017006331 172.68335384263776,997.3777017006331 C159.89117476715126,942.7239893329545 158.20952858605517,901.0748551250842 201.01670877207255,874.8668621550256 C249.37059566088794,845.2629734860599 321.9907240252502,853.3516918932922 321.9907240252502,853.3516918932922 C321.9907240252502,853.3516918932922 321.9907240252502,853.3516918932922 321.9907240252502,853.3516918932922 Z" fill="#40bee2"/>
						</g>
					</g>
				</g>
				<g>
					<g>
						<g>
							<path d="M456.882445405794,1150.9058128433742 C701.9906805185472,1225.3430612500872 606.6226893108917,1037.8538811392223 606.6226893108917,1037.8538811392223 C647.2936700874446,1188.741308556598 456.882445405794,1150.9058128433742 456.882445405794,1150.9058128433742 C456.882445405794,1150.9058128433742 456.882445405794,1150.9058128433742 456.882445405794,1150.9058128433742 Z" fill="#40bee2"/>
						</g>
					</g>
				</g>
				<g>
					<g>
						<g>
							<path d="M407.839410565755,887.6118358049738 C329.1690838267433,729.6718797784023 250.0106651921029,815.020460533451 250.0106651921029,815.020460533451 C332.05450314227994,793.0951232325925 407.839410565755,887.6118358049738 407.839410565755,887.6118358049738 C407.839410565755,887.6118358049738 407.839410565755,887.6118358049738 407.839410565755,887.6118358049738 Z" fill="#40bee2"/>
						</g>
					</g>
				</g>
			</g>
		</g>
	</g>
</g></mask><linearGradient id="15370007628730941762" x1="673.6401318007926" y1="839.8427666189016" x2="771.9226755128655" y2="535.9459244303209" gradientTransform="matrix(0.05,0,0,0.002575594,-36.25,-1.377942616)"><stop stop-color="#1a316d" /><stop offset="1" stop-color="#0fa9c9" /></linearGradient><linearGradient id="579694028005843237" x1="160.84044037495067" y1="858.3283356631573" x2="-48.24360041716666" y2="517.2225444562504" gradientTransform="matrix(0.05,0,0,0.002575594,-3.55,-1.377942616)"><stop stop-color="#1a316d" /><stop offset="1" stop-color="#0fa9c9" /></linearGradient><radialGradient id="2048149295417422076" cx="407.900996196747" cy="1037.6942260174956" r="504.9216899223972" gradientTransform="matrix(0.002104452,0,0,0.028864672,-0.358619732,-28.297641943)"><stop stop-color="#1a316d" /><stop offset="1" stop-color="#0fa9c9" /></radialGradient></defs><g>
<rect fill="#ffffff" fill-opacity="0" x="0" y="0" width="744" height="1038"/>
<g>
	<g>
		<g transform="matrix(1,0,0,1,-36,-36)">
			<path d="M35.99999999999886,65.99999999999977 C35.99999999999886,49.44645666662933 49.44645666662842,35.99999999999977 65.99999999999886,35.99999999999977 L749.9999999999989,35.99999999999977 C766.5535433333694,35.99999999999977 779.9999999999989,49.44645666662933 779.9999999999989,65.99999999999977 L779.9999999999989,1043.9999999999998 C779.9999999999989,1060.5535433333703 766.5535433333694,1073.9999999999998 749.9999999999989,1073.9999999999998 L65.99999999999886,1073.9999999999998 C49.44645666662842,1073.9999999999998 35.99999999999886,1060.5535433333703 35.99999999999886,1043.9999999999998 L35.99999999999886,65.99999999999977 Z" fill="#000000"/>
			<path d="M35.99999999999886,65.99999999999977 C35.99999999999886,49.44645666662933 49.44645666662842,35.99999999999977 65.99999999999886,35.99999999999977 L749.9999999999989,35.99999999999977 C766.5535433333694,35.99999999999977 779.9999999999989,49.44645666662933 779.9999999999989,65.99999999999977 L779.9999999999989,1043.9999999999998 C779.9999999999989,1060.5535433333703 766.5535433333694,1073.9999999999998 749.9999999999989,1073.9999999999998 L65.99999999999886,1073.9999999999998 C49.44645666662842,1073.9999999999998 35.99999999999886,1060.5535433333703 35.99999999999886,1043.9999999999998 L35.99999999999886,65.99999999999977 Z" clip-path="url(#alignment-10869789947340727526)" fill="none" stroke="#000000" stroke-width="4"/>
		</g>
		<g transform="matrix(1,0,0,1,-36,-36)">
			<path d="M70.99999999999994,80.99999999999989 C70.99999999999994,75.48215222220972 75.48215222220978,70.99999999999989 80.99999999999994,70.99999999999989 L735,70.99999999999989 C740.5178477777902,70.99999999999989 745,75.48215222220972 745,80.99999999999989 L745,1005.0000000000001 C745,1010.5178477777903 740.5178477777902,1015.0000000000001 735,1015.0000000000001 L80.99999999999994,1015.0000000000001 C75.48215222220978,1015.0000000000001 70.99999999999994,1010.5178477777903 70.99999999999994,1005.0000000000001 L70.99999999999994,80.99999999999989 Z" fill="url('#11990375171333027878')"/>
		</g>
		<g transform="matrix(1,0,0,1,-36,-36)">
			<path d="M88.99999999999994,98.99999999999989 C88.99999999999994,93.48215222220972 93.48215222220978,88.99999999999989 98.99999999999994,88.99999999999989 L717,88.99999999999989 C722.5178477777902,88.99999999999989 727,93.48215222220972 727,98.99999999999989 L727,987.0000000000001 C727,992.5178477777903 722.5178477777902,997.0000000000001 717,997.0000000000001 L98.99999999999994,997.0000000000001 C93.48215222220978,997.0000000000001 88.99999999999994,992.5178477777903 88.99999999999994,987.0000000000001 L88.99999999999994,98.99999999999989 Z" fill="url('#7234333608137589358')"/>
			<path d="M88.99999999999994,98.99999999999989 C88.99999999999994,93.48215222220972 93.48215222220978,88.99999999999989 98.99999999999994,88.99999999999989 L717,88.99999999999989 C722.5178477777902,88.99999999999989 727,93.48215222220972 727,98.99999999999989 L727,987.0000000000001 C727,992.5178477777903 722.5178477777902,997.0000000000001 717,997.0000000000001 L98.99999999999994,997.0000000000001 C93.48215222220978,997.0000000000001 88.99999999999994,992.5178477777903 88.99999999999994,987.0000000000001 L88.99999999999994,98.99999999999989 Z" clip-path="url(#alignment-18013512667319875870)" fill="none" stroke="#000000" stroke-width="4"/>
		</g>
	</g>
	<g>
		<g>
			<polyline points="10000000,10000000 -10000000,10000000 -10000000,-10000000 10000000,-10000000" fill="#000000" fill-opacity="0"/>
		</g>
		<g>
			<g transform="matrix(1,0,0,1,-36,-36)">
				<path d="M745.0000000000023,535.0000000000031 L745.0000000000023,901.9999999999998 C745.0000000000023,901.9999999999998 725.0000000000023,923.2599999999998 725.0000000000023,923.2599999999998 C725.0000000000023,923.2599999999998 724.9999999999973,559.2599999999999 724.9999999999973,559.2599999999999 L745.0000000000023,535.0000000000031 Z" fill="url('#15370007628730941762')"/>
			</g>
			<g transform="matrix(1,0,0,1,-36,-36)">
				<path d="M71.0000000000017,535.0000000000002 C71.0000000000017,535.0000000000002 71.00000000000182,902.0000000000002 71.00000000000182,902.0000000000002 C71.00000000000182,902.0000000000002 91.00000000000176,923.2599999999998 91.00000000000176,923.2599999999998 C91.00000000000176,923.2599999999998 91.00000000000165,558.2645864108044 91.00000000000165,558.2645864108044 L71.0000000000017,535.0000000000002 Z" fill="url('#579694028005843237')"/>
			</g>
			<g transform="matrix(1,0,0,1,-36,-36)">
				<path d="M371.61914922,980.3555736000001 C371.61914922,980.3555736000001 445.64021992,980.3555736000001 445.64021992,980.3555736000001 C445.64021992,980.3555736000001 453.78781316,990.76040485 457.14347200000003,995.04572727 C457.14347200000003,995.04572727 645.593,995.04572727 645.593,995.04572727 C645.593,995.04572727 630.35,1015 630.35,1015 C630.35,1015 185.29,1015 185.29,1015 C185.29,1015 170.41,995.04572727 170.41,995.04572727 C170.41,995.04572727 359.97395079,995.04572727 359.97395079,995.04572727 C363.37101736,990.76040485 371.61914922,980.3555736000001 371.61914922,980.3555736000001 Z" fill="url('#2048149295417422076')"/>
			</g>
			<g transform="matrix(1,0,0,1,-36,-36)">
				<g transform="matrix(0.072691057,0,0,0.072691057,381.717092568,926.83494072)">
					<g transform="matrix(1,0,0,1,0,0)">
						<g>
							<g>
								<g>
									<path d="M383.3110824589945,895.5594830299418 C383.3110824589945,895.5594830299418 263.1040002034041,852.3711223469514 204.15139404729132,914.3365737541093 C150.51481202559023,970.7143186902734 309.19850655300945,1115.8841832369676 309.19850655300945,1115.8841832369676 C309.19850655300945,1115.8841832369676 239.69637138875817,1022.9404918313562 256.96909325362515,1011.0140479692471 C256.96909325362515,1011.0140479692471 271.17984305883067,1041.1629750654633 348.0846204046853,1092.5698998603339 C348.0846204046853,1092.5698998603339 355.68471734226307,1047.6032382776634 355.68471734226307,1047.6032382776634 C348.3144037399526,1043.3747264149683 165.64873323327618,944.0875949143914 383.3110824589945,895.5594830299418 C383.3110824589945,895.5594830299418 383.3110824589945,895.5594830299418 383.3110824589945,895.5594830299418 Z" fill="#40bee2"/>
								</g>
							</g>
						</g>
						<g>
							<g>
								<g>
									<path d="M510.8002775110127,961.7716179620901 C510.8002775110127,961.7716179620901 627.2357598630693,1043.5459068788255 558.3513410734182,1107.1365751162157 C516.337787290489,1145.9213737219375 410.69200320239463,1114.1092883838473 410.69200320239463,1114.1092883838473 C410.69200320239463,1114.1092883838473 435.77864136552455,1073.806245054553 435.77864136552455,1073.806245054553 C505.02462270863964,1088.8035411924452 577.4236605096103,1076.9231534495852 510.8002775110127,961.7716179620901 C510.8002775110127,961.7716179620901 510.8002775110127,961.7716179620901 510.8002775110127,961.7716179620901 Z" fill="#40bee2"/>
								</g>
							</g>
						</g>
						<g>
							<g>
								<g>
									<g>
										<path d="M394.0448499544824,1008.7558160714639 C394.0448499544824,1008.7558160714639 455.7094699248188,817.2023267458525 455.7094699248188,817.2023267458525 C455.7094699248188,817.2023267458525 501.0939089134714,762.5939762377669 501.0939089134714,762.5939762377669 C501.0939089134714,762.5939762377669 511.35505282355155,827.3956645547086 511.35505282355155,827.3956645547086 C511.35505282355155,827.3956645547086 433.9116132097166,1017.1237442786836 433.9116132097166,1017.1237442786836 C433.9116132097166,1017.1237442786836 500.1673050201713,1041.8143720870335 500.1673050201713,1041.8143720870335 C500.1673050201713,1041.8143720870335 465.868859688671,1057.5934353091538 465.868859688671,1057.5934353091538 C465.868859688671,1057.5934353091538 340.2837254311904,1014.6083848436123 340.2837254311904,1014.6083848436123 C340.2837254311904,1014.6083848436123 331.0196833363349,982.1440980385308 331.0196833363349,982.1440980385308 C331.0196833363349,982.1440980385308 394.0448499544824,1008.7558160714639 394.0448499544824,1008.7558160714639 C394.0448499544824,1008.7558160714639 394.0448499544824,1008.7558160714639 394.0448499544824,1008.7558160714639 Z" fill="#40bee2"/>
									</g>
								</g>
							</g>
							<g>
								<g>
									<g>
										<path d="M375.8082433426322,1048.1015082903727 C375.8082433426322,1048.1015082903727 366.1996047238832,1110.5368009248418 366.1996047238832,1110.5368009248418 C366.1996047238832,1110.5368009248418 338.5919430730779,1133.9204030381698 338.5919430730779,1133.9204030381698 C338.5919430730779,1133.9204030381698 355.43359237396146,1169.6081313152 356.402629816837,1169.227836588664 C357.3716672597126,1168.8475418621283 392.27363643050614,1151.7089557153167 392.27363643050614,1151.7089557153167 C392.27363643050614,1151.7089557153167 385.8890223235618,1119.8290093167566 385.8890223235618,1119.8290093167566 C385.8890223235618,1119.8290093167566 417.35613200546925,1061.3596918937646 417.35613200546925,1061.3596918937646 C417.35613200546925,1061.3596918937646 375.8082433426322,1048.1015082903727 375.8082433426322,1048.1015082903727 C375.8082433426322,1048.1015082903727 375.8082433426322,1048.1015082903727 375.8082433426322,1048.1015082903727 Z" fill="#40bee2"/>
									</g>
								</g>
							</g>
						</g>
						<g>
							<g>
								<g>
									<path d="M321.9907240252502,853.3516918932922 C59.17686767092664,783.936123171052 172.68335384263776,997.3777017006331 172.68335384263776,997.3777017006331 C159.89117476715126,942.7239893329545 158.20952858605517,901.0748551250842 201.01670877207255,874.8668621550256 C249.37059566088794,845.2629734860599 321.9907240252502,853.3516918932922 321.9907240252502,853.3516918932922 C321.9907240252502,853.3516918932922 321.9907240252502,853.3516918932922 321.9907240252502,853.3516918932922 Z" fill="#40bee2"/>
								</g>
							</g>
						</g>
						<g>
							<g>
								<g>
									<path d="M456.882445405794,1150.9058128433742 C701.9906805185472,1225.3430612500872 606.6226893108917,1037.8538811392223 606.6226893108917,1037.8538811392223 C647.2936700874446,1188.741308556598 456.882445405794,1150.9058128433742 456.882445405794,1150.9058128433742 C456.882445405794,1150.9058128433742 456.882445405794,1150.9058128433742 456.882445405794,1150.9058128433742 Z" fill="#40bee2"/>
								</g>
							</g>
						</g>
						<g>
							<g>
								<g>
									<path d="M407.839410565755,887.6118358049738 C329.1690838267433,729.6718797784023 250.0106651921029,815.020460533451 250.0106651921029,815.020460533451 C332.05450314227994,793.0951232325925 407.839410565755,887.6118358049738 407.839410565755,887.6118358049738 C407.839410565755,887.6118358049738 407.839410565755,887.6118358049738 407.839410565755,887.6118358049738 Z" fill="#40bee2"/>
								</g>
							</g>
						</g>
					</g>
				</g>
			</g>
		</g>
	</g>
	<g mask="url(#mask-8495743612438701351)"/>
	<g>
		<polyline points="10000000,10000000 -10000000,10000000 -10000000,-10000000 10000000,-10000000" fill="#000000" fill-opacity="0"/>
	</g>
</g></g></svg>