<svg xmlns="http://www.w3.org/2000/svg" xmlns:graphite="https://graphite.art" viewBox="0 0 744 1038" width="744" height="1038"><defs><clipPath id="alignment-11274589430589486600">
<path d="M35.99999999999886,65.99999999999977 C35.99999999999886,49.44645666662933 49.44645666662842,35.99999999999977 65.99999999999886,35.99999999999977 L749.9999999999989,35.99999999999977 C766.5535433333694,35.99999999999977 779.9999999999989,49.44645666662933 779.9999999999989,65.99999999999977 L779.9999999999989,1043.9999999999998 C779.9999999999989,1060.5535433333703 766.5535433333694,1073.9999999999998 749.9999999999989,1073.9999999999998 L65.99999999999886,1073.9999999999998 C49.44645666662842,1073.9999999999998 35.99999999999886,1060.5535433333703 35.99999999999886,1043.9999999999998 L35.99999999999886,65.99999999999977 Z" fill="#000000"/></clipPath><radialGradient id="9386370159807487023" cx="624.090192399294" cy="778.5663998327576" r="571.4217894233807" gradientTransform="matrix(0.00148368,0,0,0.001059322,-0.105341246,-0.075211864)"><stop stop-color="#5f7470" /><stop offset="1" stop-color="#889696" /></radialGradient><radialGradient id="10309446532556273605" cx="361.32148313650004" cy="468.33012187948003" r="656.5233719072268" gradientTransform="matrix(0.001567398,0,0,0.001101322,-0.139498433,-0.098017621)"><stop stop-color="#f1e9d2" /><stop offset="0.197226" stop-color="#e4d6bc" /><stop offset="1" stop-color="#ae8964" /></radialGradient><clipPath id="alignment-10525119344651902913">
<path d="M88.99999999999994,98.99999999999989 C88.99999999999994,93.48215222220972 93.48215222220978,88.99999999999989 98.99999999999994,88.99999999999989 L717,88.99999999999989 C722.5178477777902,88.99999999999989 727,93.48215222220972 727,98.99999999999989 L727,987.0000000000001 C727,992.5178477777903 722.5178477777902,997.0000000000001 717,997.0000000000001 L98.99999999999994,997.0000000000001 C93.48215222220978,997.0000000000001 88.99999999999994,992.5178477777903 88.99999999999994,987.0000000000001 L88.99999999999994,98.99999999999989 Z" fill="#000000"/></clipPath><linearGradient id="6208598098660655672" x1="565.194091476521" y1="1081.1595791571285" x2="396.1502241387375" y2="271.8157516135946" gradientTransform="matrix(0.00148368,0,0,0.001059322,-0.105341246,-0.075211864)"><stop stop-color="#9b4e12" /><stop offset="1" stop-color="#cda90f" /></linearGradient><radialGradient id="2380769779884610883" cx="401.3201315534753" cy="435.74175622359365" r="561.8368629173784" gradientTransform="matrix(0.001489647,0,0,0.001489647,-0.054148667,-0.131610308)"><stop offset="0.020628" stop-color="#181825" /><stop offset="1" stop-color="#303342" /></radialGradient><radialGradient id="13422362065092444695" cx="367.5094689390451" cy="421.77964994535165" r="341.03393871484246" gradientTransform="matrix(0.001484872,0,0,0.001484872,-0.053028308,-0.126866864)"><stop stop-color="#a67219" /><stop offset="0.908866" stop-color="#fad369" /><stop offset="0.956168" stop-color="#c6922b" /><stop offset="1" stop-color="#a67219" /></radialGradient><clipPath id="alignment-17450485268308875714">
<path d="M372,82.26331699 C560.98628639,82.26331699 714.5,235.77703060000007 714.5,424.76331699 C714.5,613.74960338 560.98628639,767.26331699 372,767.26331699 C183.01371361000005,767.26331699 29.5,613.74960338 29.5,424.76331699 C29.5,235.77703060000007 183.01371361000005,82.26331699 372,82.26331699 ZM59.608332690000005,424.76331699 C59.608332690000005,595.65611302 199.62703327000003,734.47246975 372,734.47246975 C544.37296673,734.47246975 684.39166731,595.65611302 684.39166731,424.76331699 C684.39166731,253.87052097 544.37296673,115.05416424 372,115.05416424 C199.62703327000003,115.05416424 59.608332690000005,253.87052097 59.608332690000005,424.76331699 Z" fill="#000000"/></clipPath><mask id="mask-17888988957679228793" mask-type="alpha">
<g transform="matrix(1,0,0,1,0,-50.517756736)">
	<path d="M372,88.35000000000002 C557.206560661526,88.35000000000002 707.65,238.79343933847395 707.65,424 C707.65,609.206560661526 557.206560661526,759.65 372,759.65 C186.79343933847395,759.65 36.35000000000002,609.206560661526 36.35000000000002,424 C36.35000000000002,238.79343933847395 186.79343933847395,88.35000000000002 372,88.35000000000002 Z" fill="url('#2380769779884610883')"/>
</g>
<g transform="matrix(1,0,0,1,0,-50.517756736)">
	<path d="M372,82.26331699 C560.98628639,82.26331699 714.5,235.77703060000007 714.5,424.76331699 C714.5,613.74960338 560.98628639,767.26331699 372,767.26331699 C183.01371361000005,767.26331699 29.5,613.74960338 29.5,424.76331699 C29.5,235.77703060000007 183.01371361000005,82.26331699 372,82.26331699 ZM59.608332690000005,424.76331699 C59.608332690000005,595.65611302 199.62703327000003,734.47246975 372,734.47246975 C544.37296673,734.47246975 684.39166731,595.65611302 684.39166731,424.76331699 C684.39166731,253.87052097 544.37296673,115.05416424 372,115.05416424 C199.62703327000003,115.05416424 59.608332690000005,253.87052097 59.608332690000005,424.76331699 Z" transform="matrix(0.983151102,0,0,0.983151102,6.709407394,4.562297697)" fill="url('#13422362065092444695')"/>
	<path d="M372,82.26331699 C560.98628639,82.26331699 714.5,235.77703060000007 714.5,424.76331699 C714.5,613.74960338 560.98628639,767.26331699 372,767.26331699 C183.01371361000005,767.26331699 29.5,613.74960338 29.5,424.76331699 C29.5,235.77703060000007 183.01371361000005,82.26331699 372,82.26331699 ZM59.608332690000005,424.76331699 C59.608332690000005,595.65611302 199.62703327000003,734.47246975 372,734.47246975 C544.37296673,734.47246975 684.39166731,595.65611302 684.39166731,424.76331699 C684.39166731,253.87052097 544.37296673,115.05416424 372,115.05416424 C199.62703327000003,115.05416424 59.608332690000005,253.87052097 59.608332690000005,424.76331699 Z" transform="matrix(0.983151102,0,0,0.983151102,6.709407394,4.562297697)" clip-path="url(#alignment-17450485268308875714)" fill="none" stroke="#8c6b2a" stroke-width="8"/>
</g></mask><radialGradient id="14201509975383354177" cx="401.3201315534753" cy="435.74175622359365" r="561.8368629173784" gradientTransform="matrix(0.001489647,0,0,0.001489647,-0.054148667,-0.131610308)"><stop offset="0.020628" stop-color="#181825" /><stop offset="1" stop-color="#303342" /></radialGradient><radialGradient id="17445203755146234515" cx="367.5094689390451" cy="421.77964994535165" r="341.03393871484246" gradientTransform="matrix(0.001484872,0,0,0.001484872,-0.053028308,-0.126866864)"><stop stop-color="#a67219" /><stop offset="0.908866" stop-color="#fad369" /><stop offset="0.956168" stop-color="#c6922b" /><stop offset="1" stop-color="#a67219" /></radialGradient><clipPath id="alignment-12785624744889137042">
<path d="M372,82.26331699 C560.98628639,82.26331699 714.5,235.77703060000007 714.5,424.76331699 C714.5,613.74960338 560.98628639,767.26331699 372,767.26331699 C183.01371361000005,767.26331699 29.5,613.74960338 29.5,424.76331699 C29.5,235.77703060000007 183.01371361000005,82.26331699 372,82.26331699 ZM59.608332690000005,424.76331699 C59.608332690000005,595.65611302 199.62703327000003,734.47246975 372,734.47246975 C544.37296673,734.47246975 684.39166731,595.65611302 684.39166731,424.76331699 C684.39166731,253.87052097 544.37296673,115.05416424 372,115.05416424 C199.62703327000003,115.05416424 59.608332690000005,253.87052097 59.608332690000005,424.76331699 Z" fill="#000000"/></clipPath></defs><g>
<rect fill="#ffffff" fill-opacity="0" x="0" y="0" width="744" height="1038"/>
<g>
	<g>
		<g transform="matrix(1,0,0,1,-36,-36)">
			<path d="M35.99999999999886,65.99999999999977 C35.99999999999886,49.44645666662933 49.44645666662842,35.99999999999977 65.99999999999886,35.99999999999977 L749.9999999999989,35.99999999999977 C766.5535433333694,35.99999999999977 779.9999999999989,49.44645666662933 779.9999999999989,65.99999999999977 L779.9999999999989,1043.9999999999998 C779.9999999999989,1060.5535433333703 766.5535433333694,1073.9999999999998 749.9999999999989,1073.9999999999998 L65.99999999999886,1073.9999999999998 C49.44645666662842,1073.9999999999998 35.99999999999886,1060.5535433333703 35.99999999999886,1043.9999999999998 L35.99999999999886,65.99999999999977 Z" fill="#000000"/>
			<path d="M35.99999999999886,65.99999999999977 C35.99999999999886,49.44645666662933 49.44645666662842,35.99999999999977 65.99999999999886,35.99999999999977 L749.9999999999989,35.99999999999977 C766.5535433333694,35.99999999999977 779.9999999999989,49.44645666662933 779.9999999999989,65.99999999999977 L779.9999999999989,1043.9999999999998 C779.9999999999989,1060.5535433333703 766.5535433333694,1073.9999999999998 749.9999999999989,1073.9999999999998 L65.99999999999886,1073.9999999999998 C49.44645666662842,1073.9999999999998 35.99999999999886,1060.5535433333703 35.99999999999886,1043.9999999999998 L35.99999999999886,65.99999999999977 Z" clip-path="url(#alignment-11274589430589486600)" fill="none" stroke="#000000" stroke-width="4"/>
		</g>
		<g transform="matrix(1,0,0,1,-36,-36)">
			<path d="M70.99999999999994,80.99999999999989 C70.99999999999994,75.48215222220972 75.48215222220978,70.99999999999989 80.99999999999994,70.99999999999989 L735,70.99999999999989 C740.5178477777902,70.99999999999989 745,75.48215222220972 745,80.99999999999989 L745,1005.0000000000001 C745,1010.5178477777903 740.5178477777902,1015.0000000000001 735,1015.0000000000001 L80.99999999999994,1015.0000000000001 C75.48215222220978,1015.0000000000001 70.99999999999994,1010.5178477777903 70.99999999999994,1005.0000000000001 L70.99999999999994,80.99999999999989 Z" fill="url('#9386370159807487023')"/>
		</g>
		<g transform="matrix(1,0,0,1,-36,-36)">
			<path d="M88.99999999999994,98.99999999999989 C88.99999999999994,93.48215222220972 93.48215222220978,88.99999999999989 98.99999999999994,88.99999999999989 L717,88.99999999999989 C722.5178477777902,88.99999999999989 727,93.48215222220972 727,98.99999999999989 L727,987.0000000000001 C727,992.5178477777903 722.5178477777902,997.0000000000001 717,997.0000000000001 L98.99999999999994,997.0000000000001 C93.48215222220978,997.0000000000001 88.99999999999994,992.5178477777903 88.99999999999994,987.0000000000001 L88.99999999999994,98.99999999999989 Z" fill="url('#10309446532556273605')"/>
			<path d="M88.99999999999994,98.99999999999989 C88.99999999999994,93.48215222220972 93.48215222220978,88.99999999999989 98.99999999999994,88.99999999999989 L717,88.99999999999989 C722.5178477777902,88.99999999999989 727,93.48215222220972 727,98.99999999999989 L727,987.0000000000001 C727,992.5178477777903 722.5178477777902,997.0000000000001 717,997.0000000000001 L98.99999999999994,997.0000000000001 C93.48215222220978,997.0000000000001 88.99999999999994,992.5178477777903 88.99999999999994,987.0000000000001 L88.99999999999994,98.99999999999989 Z" clip-path="url(#alignment-10525119344651902913)" fill="none" stroke="#000000" stroke-width="4"/>
		</g>
	</g>
	<g>
		<g transform="matrix(1,0,0,1,-36,-36)">
			<g>
				<path d="M81,71 C81,71 735,71 735,71 C740.51784778,71 745,75.48215222 745,81 C745,81 745,1005 745,1005 C745,1010.51784778 740.51784778,1015 735,1015 C735,1015 81,1015 81,1015 C75.48215222,1015 71,1010.51784778 71,1005 C71,1005 71,81 71,81 C71,75.48215222 75.48215222,71 81,71 ZM89,99 C89,99 89,987 89,987 C89,992.51784778 93.48215222,997 99,997 C99,997 359.2174784295482,997 359.2174784295482,997 C361.90101615501555,993.6147780289391 371.61914922,981.3555736000001 371.61914922,981.3555736000001 C371.61914922,981.3555736000001 445.64021992,981.3555736000001 445.64021992,981.3555736000001 C445.64021992,981.3555736000001 455.239896138472,993.6147780289391 457.89072352602454,997 C457.89072352602454,997 717,997 717,997 C722.51784778,997 727,992.51784778 727,987 C727,987 727,99 727,99 C727,93.48215222 722.51784778,89 717,89 C717,89 99,89 99,89 C93.48215222,89 89,93.48215222 89,99 Z" fill="url('#6208598098660655672')" stroke="#000000" stroke-width="4" style="paint-order: stroke;" />
			</g>
			<g>
				<g transform="matrix(0.065322245,0,0,0.065322245,393.487635959,943.636104462)">
					<g>
						<g>
							<g>
								<g>
									<path d="M389.8636464808103,682.6059842930853 C389.8636464808103,682.6059842930853 363.7091218836601,750.0675551061029 268.98742227701376,774.1131750864522 C268.98742227701376,774.1131750864522 272.4426881069027,801.6222811950113 272.4426881069027,801.6222811950113 C407.3111108140626,763.5585067845011 389.8636464808103,682.6059842930853 389.8636464808103,682.6059842930853 C389.8636464808103,682.6059842930853 389.8636464808103,682.6059842930853 389.8636464808103,682.6059842930853 Z" fill="#f5d83a"/>
								</g>
							</g>
						</g>
						<g>
							<g>
								<g>
									<path d="M133.96607791439118,885.9355228866266 C133.96607791439118,885.9355228866266 75.40429577011552,893.3012866728689 74.5432881180656,856.4020451049687 C74.14287788202516,839.24250876626 107.9925678010656,802.2377955599263 191.41294118736658,786.3000884902201 C191.41294118736658,786.3000884902201 187.74288530195844,819.4563129282967 187.74288530195844,819.4563129282967 C37.56723242208379,853.0929861227235 133.96607791439118,885.9355228866266 133.96607791439118,885.9355228866266 C133.96607791439118,885.9355228866266 133.96607791439118,885.9355228866266 133.96607791439118,885.9355228866266 Z" fill="#f5d83a"/>
								</g>
							</g>
						</g>
						<g>
							<g>
								<g>
									<g>
										<path d="M246.93398475347993,732.1129577871677 C246.93398475347993,732.1129577871677 262.93399294745427,892.1129475285632 262.93399294745427,892.1129475285632 C262.93399294745427,892.1129475285632 230.93397970012643,908.1129607609344 230.93397970012643,908.1129607609344 C230.93397970012643,908.1129607609344 198.93398356440753,892.112964929607 198.93398356440753,892.112964929607 C198.93398356440753,892.112964929607 214.93396512177492,732.1129506356799 214.93396512177492,732.1129506356799 C214.93396512177492,732.1129506356799 140.41191350387157,732.1129680671818 140.41191350387157,732.1129680671818 C140.41191350387157,732.1129680671818 166.93397964268547,711.6581710731805 166.93397964268547,711.6581710731805 C166.93397964268547,711.6581710731805 299.84006426863994,711.1960521244853 299.84006426863994,711.1960521244853 C299.84006426863994,711.1960521244853 319.0176419981806,732.1129534999034 319.0176419981806,732.1129534999034 C319.0176419981806,732.1129534999034 246.93398475347993,732.1129577871677 246.93398475347993,732.1129577871677 C246.93398475347993,732.1129577871677 246.93398475347993,732.1129577871677 246.93398475347993,732.1129577871677 Z" fill="#f5d83a"/>
									</g>
								</g>
							</g>
							<g>
								<g>
									<g>
										<path d="M246.93392424280756,696.0899011060069 C246.93392424280756,696.0899011060069 242.67482292377719,642.3405879204944 242.67482292377719,642.3405879204944 C242.67482292377719,642.3405879204944 260.3668353945012,610.7816174703668 260.3668353945012,610.7816174703668 C260.3668353945012,610.7816174703668 231.70888551367705,583.7368003129678 230.9339170318798,584.4318410115676 C230.15894855008253,585.1268817101674 203.85353930835925,612.8802830336249 203.85353930835925,612.8802830336249 C203.85353930835925,612.8802830336249 220.97934601155328,640.5172347168477 220.97934601155328,640.5172347168477 C220.97934601155328,640.5172347168477 214.93391657810645,696.0899054187216 214.93391657810645,696.0899054187216 C214.93391657810645,696.0899054187216 246.93392424280756,696.0899011060069 246.93392424280756,696.0899011060069 C246.93392424280756,696.0899011060069 246.93392424280756,696.0899011060069 246.93392424280756,696.0899011060069 Z" fill="#f5d83a"/>
									</g>
								</g>
							</g>
						</g>
						<g>
							<g>
								<g>
									<path d="M436.11769541883604,932.2796360023751 C436.11769541883604,932.2796360023751 404.45107463214543,1011.4463165546065 404.45107463214543,1011.4463165546065 C404.45107463214543,1011.4463165546065 301.2177958194894,958.8796155567377 244.21780295731847,1005.1129562697931 C244.21780295731847,1005.1129562697931 241.6844771466423,925.9463249424027 241.6844771466423,925.9463249424027 C286.65114057814037,884.1462765070221 436.11769541883604,932.2796360023751 436.11769541883604,932.2796360023751 C436.11769541883604,932.2796360023751 436.11769541883604,932.2796360023751 436.11769541883604,932.2796360023751 Z" fill="#f5d83a"/>
								</g>
							</g>
						</g>
						<g>
							<g>
								<g>
									<path d="M26.14280776549944,932.5296054847968 C26.14280776549944,932.5296054847968 57.809428552190084,1011.6962860370281 57.809428552190084,1011.6962860370281 C57.809428552190084,1011.6962860370281 161.04270736484602,959.1295850391593 218.042700227017,1005.3629257522148 C218.042700227017,1005.3629257522148 220.57602603769317,926.1962944248244 220.57602603769317,926.1962944248244 C175.60936260619502,884.3962459894439 26.14280776549944,932.5296054847968 26.14280776549944,932.5296054847968 C26.14280776549944,932.5296054847968 26.14280776549944,932.5296054847968 26.14280776549944,932.5296054847968 Z" fill="#f5d83a"/>
								</g>
							</g>
						</g>
						<g>
							<g>
								<g>
									<path d="M479.1585421417655,946.5898638697658 C479.1585421417655,946.5898638697658 427.6334853032783,1063.4340714027069 427.6334853032783,1063.4340714027069 C427.6334853032783,1063.4340714027069 294.7332026393211,1004.9386611984758 245.39401664681705,1054.005401153028 C245.39401664681705,1054.005401153028 245.35114242110254,1026.9883125473796 245.35114242110254,1026.9883125473796 C282.1411727177034,974.0249041013492 413.83938319261387,1031.383027107569 413.83938319261387,1031.383027107569 C413.83938319261387,1031.383027107569 451.5703422239373,936.4471576087049 451.5703422239373,936.4471576087049 C451.5703422239373,936.4471576087049 479.1585421417655,946.5898638697658 479.1585421417655,946.5898638697658 C479.1585421417655,946.5898638697658 479.1585421417655,946.5898638697658 479.1585421417655,946.5898638697658 Z" fill="#f5d83a"/>
								</g>
							</g>
						</g>
						<g>
							<g>
								<g>
									<path d="M-17.988676164461324,946.5898638697657 C-17.988676164461324,946.5898638697657 33.536380674025935,1063.4340714027066 33.536380674025935,1063.4340714027066 C33.536380674025935,1063.4340714027066 166.43666333798305,1004.9386611984755 215.77584933048718,1054.0054011530278 C215.77584933048718,1054.0054011530278 215.81872355620166,1026.9883125473793 215.81872355620166,1026.9883125473793 C179.02869325960074,974.024904101349 47.33048278469033,1031.3830271075688 47.33048278469033,1031.3830271075688 C47.33048278469033,1031.3830271075688 9.599523753366867,936.4471576087047 9.599523753366867,936.4471576087047 C9.599523753366867,936.4471576087047 -17.988676164461324,946.5898638697657 -17.988676164461324,946.5898638697657 C-17.988676164461324,946.5898638697657 -17.988676164461324,946.5898638697657 -17.988676164461324,946.5898638697657 Z" fill="#f5d83a"/>
								</g>
							</g>
						</g>
					</g>
				</g>
			</g>
		</g>
	</g>
	<g>
		<g transform="matrix(1,0,0,1,0,-50.517756736)">
			<path d="M372,88.35000000000002 C557.206560661526,88.35000000000002 707.65,238.79343933847395 707.65,424 C707.65,609.206560661526 557.206560661526,759.65 372,759.65 C186.79343933847395,759.65 36.35000000000002,609.206560661526 36.35000000000002,424 C36.35000000000002,238.79343933847395 186.79343933847395,88.35000000000002 372,88.35000000000002 Z" fill="url('#14201509975383354177')"/>
		</g>
		<g transform="matrix(1,0,0,1,0,-50.517756736)">
			<path d="M372,82.26331699 C560.98628639,82.26331699 714.5,235.77703060000007 714.5,424.76331699 C714.5,613.74960338 560.98628639,767.26331699 372,767.26331699 C183.01371361000005,767.26331699 29.5,613.74960338 29.5,424.76331699 C29.5,235.77703060000007 183.01371361000005,82.26331699 372,82.26331699 ZM59.608332690000005,424.76331699 C59.608332690000005,595.65611302 199.62703327000003,734.47246975 372,734.47246975 C544.37296673,734.47246975 684.39166731,595.65611302 684.39166731,424.76331699 C684.39166731,253.87052097 544.37296673,115.05416424 372,115.05416424 C199.62703327000003,115.05416424 59.608332690000005,253.87052097 59.608332690000005,424.76331699 Z" transform="matrix(0.983151102,0,0,0.983151102,6.709407394,4.562297697)" fill="url('#17445203755146234515')"/>
			<path d="M372,82.26331699 C560.98628639,82.26331699 714.5,235.77703060000007 714.5,424.76331699 C714.5,613.74960338 560.98628639,767.26331699 372,767.26331699 C183.01371361000005,767.26331699 29.5,613.74960338 29.5,424.76331699 C29.5,235.77703060000007 183.01371361000005,82.26331699 372,82.26331699 ZM59.608332690000005,424.76331699 C59.608332690000005,595.65611302 199.62703327000003,734.47246975 372,734.47246975 C544.37296673,734.47246975 684.39166731,595.65611302 684.39166731,424.76331699 C684.39166731,253.87052097 544.37296673,115.05416424 372,115.05416424 C199.62703327000003,115.05416424 59.608332690000005,253.87052097 59.608332690000005,424.76331699 Z" transform="matrix(0.983151102,0,0,0.983151102,6.709407394,4.562297697)" clip-path="url(#alignment-12785624744889137042)" fill="none" stroke="#8c6b2a" stroke-width="8"/>
		</g>
	</g>
	<g mask="url(#mask-17888988957679228793)"/>
	<g>
		<polyline points="10000000,10000000 -10000000,10000000 -10000000,-10000000 10000000,-10000000" fill="#000000" fill-opacity="0"/>
	</g>
</g></g></svg>