<svg xmlns="http://www.w3.org/2000/svg" xmlns:graphite="https://graphite.art" viewBox="0 0 744 1038" width="744" height="1038"><defs><clipPath id="alignment-14780603289253464327">
<path d="M35.99999999999886,65.99999999999977 C35.99999999999886,49.44645666662933 49.44645666662842,35.99999999999977 65.99999999999886,35.99999999999977 L749.9999999999989,35.99999999999977 C766.5535433333694,35.99999999999977 779.9999999999989,49.44645666662933 779.9999999999989,65.99999999999977 L779.9999999999989,1043.9999999999998 C779.9999999999989,1060.5535433333703 766.5535433333694,1073.9999999999998 749.9999999999989,1073.9999999999998 L65.99999999999886,1073.9999999999998 C49.44645666662842,1073.9999999999998 35.99999999999886,1060.5535433333703 35.99999999999886,1043.9999999999998 L35.99999999999886,65.99999999999977 Z" fill="#000000"/></clipPath><radialGradient id="11801997165550126126" cx="624.090192399294" cy="778.5663998327576" r="571.4217894233807" gradientTransform="matrix(0.00148368,0,0,0.001059322,-0.105341246,-0.075211864)"><stop stop-color="#5f7470" /><stop offset="1" stop-color="#889696" /></radialGradient><radialGradient id="14104147783451277536" cx="361.32148313650004" cy="468.33012187948003" r="656.5233719072268" gradientTransform="matrix(0.001567398,0,0,0.001101322,-0.139498433,-0.098017621)"><stop stop-color="#f1e9d2" /><stop offset="0.197226" stop-color="#e4d6bc" /><stop offset="1" stop-color="#ae8964" /></radialGradient><clipPath id="alignment-1137147981014389006">
<path d="M88.99999999999994,98.99999999999989 C88.99999999999994,93.48215222220972 93.48215222220978,88.99999999999989 98.99999999999994,88.99999999999989 L717,88.99999999999989 C722.5178477777902,88.99999999999989 727,93.48215222220972 727,98.99999999999989 L727,987.0000000000001 C727,992.5178477777903 722.5178477777902,997.0000000000001 717,997.0000000000001 L98.99999999999994,997.0000000000001 C93.48215222220978,997.0000000000001 88.99999999999994,992.5178477777903 88.99999999999994,987.0000000000001 L88.99999999999994,98.99999999999989 Z" fill="#000000"/></clipPath><linearGradient id="2525106976146258720" x1="565.194091476521" y1="1081.1595791571285" x2="396.1502241387375" y2="271.8157516135946" gradientTransform="matrix(0.00148368,0,0,0.001059322,-0.105341246,-0.075211864)"><stop stop-color="#63061a" /><stop offset="1" stop-color="#c4213b" /></linearGradient><radialGradient id="4855527394150788676" cx="401.3201315534753" cy="435.74175622359365" r="561.8368629173784" gradientTransform="matrix(0.001489647,0,0,0.001489647,-0.054148667,-0.131610308)"><stop offset="0.020628" stop-color="#181825" /><stop offset="1" stop-color="#303342" /></radialGradient><radialGradient id="9375523797698135384" cx="367.5094689390451" cy="421.77964994535165" r="341.03393871484246" gradientTransform="matrix(0.001484872,0,0,0.001484872,-0.053028308,-0.126866864)"><stop stop-color="#a67219" /><stop offset="0.908866" stop-color="#fad369" /><stop offset="0.956168" stop-color="#c6922b" /><stop offset="1" stop-color="#a67219" /></radialGradient><clipPath id="alignment-11905346785515951371">
<path d="M372,82.26331699 C560.98628639,82.26331699 714.5,235.77703060000007 714.5,424.76331699 C714.5,613.74960338 560.98628639,767.26331699 372,767.26331699 C183.01371361000005,767.26331699 29.5,613.74960338 29.5,424.76331699 C29.5,235.77703060000007 183.01371361000005,82.26331699 372,82.26331699 ZM59.608332690000005,424.76331699 C59.608332690000005,595.65611302 199.62703327000003,734.47246975 372,734.47246975 C544.37296673,734.47246975 684.39166731,595.65611302 684.39166731,424.76331699 C684.39166731,253.87052097 544.37296673,115.05416424 372,115.05416424 C199.62703327000003,115.05416424 59.608332690000005,253.87052097 59.608332690000005,424.76331699 Z" fill="#000000"/></clipPath><mask id="mask-2965592576149296859" mask-type="alpha">
<g transform="matrix(1,0,0,1,0,-50.517756736)">
	<path d="M372,88.35000000000002 C557.206560661526,88.35000000000002 707.65,238.79343933847395 707.65,424 C707.65,609.206560661526 557.206560661526,759.65 372,759.65 C186.79343933847395,759.65 36.35000000000002,609.206560661526 36.35000000000002,424 C36.35000000000002,238.79343933847395 186.79343933847395,88.35000000000002 372,88.35000000000002 Z" fill="url('#4855527394150788676')"/>
</g>
<g transform="matrix(1,0,0,1,0,-50.517756736)">
	<path d="M372,82.26331699 C560.98628639,82.26331699 714.5,235.77703060000007 714.5,424.76331699 C714.5,613.74960338 560.98628639,767.26331699 372,767.26331699 C183.01371361000005,767.26331699 29.5,613.74960338 29.5,424.76331699 C29.5,235.77703060000007 183.01371361000005,82.26331699 372,82.26331699 ZM59.608332690000005,424.76331699 C59.608332690000005,595.65611302 199.62703327000003,734.47246975 372,734.47246975 C544.37296673,734.47246975 684.39166731,595.65611302 684.39166731,424.76331699 C684.39166731,253.87052097 544.37296673,115.05416424 372,115.05416424 C199.62703327000003,115.05416424 59.608332690000005,253.87052097 59.608332690000005,424.76331699 Z" transform="matrix(0.983151102,0,0,0.983151102,6.709407394,4.562297697)" fill="url('#9375523797698135384')"/>
	<path d="M372,82.26331699 C560.98628639,82.26331699 714.5,235.77703060000007 714.5,424.76331699 C714.5,613.74960338 560.98628639,767.26331699 372,767.26331699 C183.01371361000005,767.26331699 29.5,613.74960338 29.5,424.76331699 C29.5,235.77703060000007 183.01371361000005,82.26331699 372,82.26331699 ZM59.608332690000005,424.76331699 C59.608332690000005,595.65611302 199.62703327000003,734.47246975 372,734.47246975 C544.37296673,734.47246975 684.39166731,595.65611302 684.39166731,424.76331699 C684.39166731,253.87052097 544.37296673,115.05416424 372,115.05416424 C199.62703327000003,115.05416424 59.608332690000005,253.87052097 59.608332690000005,424.76331699 Z" transform="matrix(0.983151102,0,0,0.983151102,6.709407394,4.562297697)" clip-path="url(#alignment-11905346785515951371)" fill="none" stroke="#8c6b2a" stroke-width="8"/>
</g></mask><radialGradient id="10277183944338571047" cx="401.3201315534753" cy="435.74175622359365" r="561.8368629173784" gradientTransform="matrix(0.001489647,0,0,0.001489647,-0.054148667,-0.131610308)"><stop offset="0.020628" stop-color="#181825" /><stop offset="1" stop-color="#303342" /></radialGradient><radialGradient id="15576904256761719383" cx="367.5094689390451" cy="421.77964994535165" r="341.03393871484246" gradientTransform="matrix(0.001484872,0,0,0.001484872,-0.053028308,-0.126866864)"><stop stop-color="#a67219" /><stop offset="0.908866" stop-color="#fad369" /><stop offset="0.956168" stop-color="#c6922b" /><stop offset="1" stop-color="#a67219" /></radialGradient><clipPath id="alignment-1821644694123129530">
<path d="M372,82.26331699 C560.98628639,82.26331699 714.5,235.77703060000007 714.5,424.76331699 C714.5,613.74960338 560.98628639,767.26331699 372,767.26331699 C183.01371361000005,767.26331699 29.5,613.74960338 29.5,424.76331699 C29.5,235.77703060000007 183.01371361000005,82.26331699 372,82.26331699 ZM59.608332690000005,424.76331699 C59.608332690000005,595.65611302 199.62703327000003,734.47246975 372,734.47246975 C544.37296673,734.47246975 684.39166731,595.65611302 684.39166731,424.76331699 C684.39166731,253.87052097 544.37296673,115.05416424 372,115.05416424 C199.62703327000003,115.05416424 59.608332690000005,253.87052097 59.608332690000005,424.76331699 Z" fill="#000000"/></clipPath></defs><g>
<rect fill="#ffffff" fill-opacity="0" x="0" y="0" width="744" height="1038"/>
<g>
	<g>
		<g transform="matrix(1,0,0,1,-36,-36)">
			<path d="M35.99999999999886,65.99999999999977 C35.99999999999886,49.44645666662933 49.44645666662842,35.99999999999977 65.99999999999886,35.99999999999977 L749.9999999999989,35.99999999999977 C766.5535433333694,35.99999999999977 779.9999999999989,49.44645666662933 779.9999999999989,65.99999999999977 L779.9999999999989,1043.9999999999998 C779.9999999999989,1060.5535433333703 766.5535433333694,1073.9999999999998 749.9999999999989,1073.9999999999998 L65.99999999999886,1073.9999999999998 C49.44645666662842,1073.9999999999998 35.99999999999886,1060.5535433333703 35.99999999999886,1043.9999999999998 L35.99999999999886,65.99999999999977 Z" fill="#000000"/>
			<path d="M35.99999999999886,65.99999999999977 C35.99999999999886,49.44645666662933 49.44645666662842,35.99999999999977 65.99999999999886,35.99999999999977 L749.9999999999989,35.99999999999977 C766.5535433333694,35.99999999999977 779.9999999999989,49.44645666662933 779.9999999999989,65.99999999999977 L779.9999999999989,1043.9999999999998 C779.9999999999989,1060.5535433333703 766.5535433333694,1073.9999999999998 749.9999999999989,1073.9999999999998 L65.99999999999886,1073.9999999999998 C49.44645666662842,1073.9999999999998 35.99999999999886,1060.5535433333703 35.99999999999886,1043.9999999999998 L35.99999999999886,65.99999999999977 Z" clip-path="url(#alignment-14780603289253464327)" fill="none" stroke="#000000" stroke-width="4"/>
		</g>
		<g transform="matrix(1,0,0,1,-36,-36)">
			<path d="M70.99999999999994,80.99999999999989 C70.99999999999994,75.48215222220972 75.48215222220978,70.99999999999989 80.99999999999994,70.99999999999989 L735,70.99999999999989 C740.5178477777902,70.99999999999989 745,75.48215222220972 745,80.99999999999989 L745,1005.0000000000001 C745,1010.5178477777903 740.5178477777902,1015.0000000000001 735,1015.0000000000001 L80.99999999999994,1015.0000000000001 C75.48215222220978,1015.0000000000001 70.99999999999994,1010.5178477777903 70.99999999999994,1005.0000000000001 L70.99999999999994,80.99999999999989 Z" fill="url('#11801997165550126126')"/>
		</g>
		<g transform="matrix(1,0,0,1,-36,-36)">
			<path d="M88.99999999999994,98.99999999999989 C88.99999999999994,93.48215222220972 93.48215222220978,88.99999999999989 98.99999999999994,88.99999999999989 L717,88.99999999999989 C722.5178477777902,88.99999999999989 727,93.48215222220972 727,98.99999999999989 L727,987.0000000000001 C727,992.5178477777903 722.5178477777902,997.0000000000001 717,997.0000000000001 L98.99999999999994,997.0000000000001 C93.48215222220978,997.0000000000001 88.99999999999994,992.5178477777903 88.99999999999994,987.0000000000001 L88.99999999999994,98.99999999999989 Z" fill="url('#14104147783451277536')"/>
			<path d="M88.99999999999994,98.99999999999989 C88.99999999999994,93.48215222220972 93.48215222220978,88.99999999999989 98.99999999999994,88.99999999999989 L717,88.99999999999989 C722.5178477777902,88.99999999999989 727,93.48215222220972 727,98.99999999999989 L727,987.0000000000001 C727,992.5178477777903 722.5178477777902,997.0000000000001 717,997.0000000000001 L98.99999999999994,997.0000000000001 C93.48215222220978,997.0000000000001 88.99999999999994,992.5178477777903 88.99999999999994,987.0000000000001 L88.99999999999994,98.99999999999989 Z" clip-path="url(#alignment-1137147981014389006)" fill="none" stroke="#000000" stroke-width="4"/>
		</g>
	</g>
	<g>
		<g transform="matrix(1,0,0,1,-36,-36)">
			<g>
				<path d="M81,71 C81,71 735,71 735,71 C740.51784778,71 745,75.48215222 745,81 C745,81 745,1005 745,1005 C745,1010.51784778 740.51784778,1015 735,1015 C735,1015 81,1015 81,1015 C75.48215222,1015 71,1010.51784778 71,1005 C71,1005 71,81 71,81 C71,75.48215222 75.48215222,71 81,71 ZM89,99 C89,99 89,987 89,987 C89,992.51784778 93.48215222,997 99,997 C99,997 359.2174784295482,997 359.2174784295482,997 C361.90101615501555,993.6147780289391 371.61914922,981.3555736000001 371.61914922,981.3555736000001 C371.61914922,981.3555736000001 445.64021992,981.3555736000001 445.64021992,981.3555736000001 C445.64021992,981.3555736000001 455.239896138472,993.6147780289391 457.89072352602454,997 C457.89072352602454,997 717,997 717,997 C722.51784778,997 727,992.51784778 727,987 C727,987 727,99 727,99 C727,93.48215222 722.51784778,89 717,89 C717,89 99,89 99,89 C93.48215222,89 89,93.48215222 89,99 Z" fill="url('#2525106976146258720')" stroke="#000000" stroke-width="4" style="paint-order: stroke;" />
			</g>
			<g>
				<g transform="matrix(0.071515499,0,0,0.071515499,400.818993321,957.41690705)">
					<g>
						<g>
							<g>
								<g>
									<g>
										<path d="M0.8525763398123445,634.5243765754271 C0.8525763398123445,634.5243765754271 158.06577503633903,477.16708340226705 158.06577503633903,477.16708340226705 C158.06577503633903,477.16708340226705 230.23724724117884,446.3223526528427 230.23724724117884,446.3223526528427 C230.23724724117884,446.3223526528427 200.78833735414506,516.9836357978493 200.78833735414506,516.9836357978493 C200.78833735414506,516.9836357978493 35.85332828014717,662.8508135263501 35.85332828014717,662.8508135263501 C35.85332828014717,662.8508135263501 88.58659298760077,720.535708283227 88.58659298760077,720.535708283227 C88.58659298760077,720.535708283227 46.892496108306574,718.7703163524166 46.892496108306574,718.7703163524166 C46.892496108306574,718.7703163524166 -54.98436462237041,613.1838609764336 -54.98436462237041,613.1838609764336 C-54.98436462237041,613.1838609764336 -47.734377700892395,576.5779515773111 -47.734377700892395,576.5779515773111 C-47.734377700892395,576.5779515773111 0.8525763398123445,634.5243765754271 0.8525763398123445,634.5243765754271 C0.8525763398123445,634.5243765754271 0.8525763398123445,634.5243765754271 0.8525763398123445,634.5243765754271 Z" fill="#e1424f"/>
									</g>
								</g>
							</g>
							<g>
								<g>
									<g>
										<path d="M-36.91942407267183,664.0383068997769 C-36.91942407267183,664.0383068997769 -77.84191458587597,720.6152677522966 -77.84191458587597,720.6152677522966 C-77.84191458587597,720.6152677522966 -116.78703603999438,729.7032121413406 -116.78703603999438,729.7032121413406 C-116.78703603999438,729.7032121413406 -118.20737837461397,773.2995961853958 -117.06241198020629,773.4139215467694 C-115.91744558579862,773.528246908143 -72.94437565254552,774.260423911445 -72.94437565254552,774.260423911445 C-72.94437565254552,774.260423911445 -63.15631015222138,739.68070653264 -63.15631015222138,739.68070653264 C-63.15631015222138,739.68070653264 -2.729777870709171,698.0228494551885 -2.729777870709171,698.0228494551885 C-2.729777870709171,698.0228494551885 -36.91942407267183,664.0383068997769 -36.91942407267183,664.0383068997769 C-36.91942407267183,664.0383068997769 -36.91942407267183,664.0383068997769 -36.91942407267183,664.0383068997769 Z" fill="#e1424f"/>
									</g>
								</g>
							</g>
						</g>
						<g>
							<g>
								<path d="M279.70611368608826,394.62432663526033 C279.70611368608826,394.62432663526033 188.0394571919477,588.1308116206119 188.0394571919477,588.1308116206119 C188.0394571919477,588.1308116206119 222.17364298296332,575.7931651362369 222.17364298296332,575.7931651362369 C222.17364298296332,575.7931651362369 217.23858438921332,672.8494395502994 217.23858438921332,672.8494395502994 C217.23858438921332,672.8494395502994 331.58923136186957,342.69793503369783 331.58923136186957,342.69793503369783 C331.58923136186957,342.69793503369783 3.7970255513226903,461.8753947504947 3.7970255513226903,461.8753947504947 C3.7970255513226903,461.8753947504947 104.55462442827582,458.17413132276033 104.55462442827582,458.17413132276033 C104.55462442827582,458.17413132276033 88.06109415483832,488.80181686963533 88.06109415483832,488.80181686963533 C88.06109415483832,488.80181686963533 279.70611368608826,394.62432663526033 279.70611368608826,394.62432663526033 C279.70611368608826,394.62432663526033 279.70611368608826,394.62432663526033 279.70611368608826,394.62432663526033 Z" fill="#e1424f"/>
							</g>
						</g>
						<g>
							<g>
								<g>
									<path d="M120.26885782671332,385.3602580317447 C120.26885782671332,385.3602580317447 246.93554483843207,343.82347672070955 246.93554483843207,343.82347672070955 C246.93554483843207,343.82347672070955 36.78402506304144,346.7022532710025 36.78402506304144,346.7022532710025 C36.78402506304144,346.7022532710025 120.26885782671332,385.3602580317447 120.26885782671332,385.3602580317447 C120.26885782671332,385.3602580317447 120.26885782671332,385.3602580317447 120.26885782671332,385.3602580317447 Z" fill="#e1424f"/>
								</g>
							</g>
						</g>
						<g>
							<g>
								<g>
									<path d="M329.6511286397016,642.0471629389713 C329.6511286397016,642.0471629389713 333.7125300068891,427.5956987627933 333.7125300068891,427.5956987627933 C333.7125300068891,427.5956987627933 292.3682917256391,553.955678869147 292.3682917256391,553.955678869147 C292.3682917256391,553.955678869147 329.6511286397016,642.0471629389713 329.6511286397016,642.0471629389713 C329.6511286397016,642.0471629389713 329.6511286397016,642.0471629389713 329.6511286397016,642.0471629389713 Z" fill="#e1424f"/>
								</g>
							</g>
						</g>
						<g>
							<g>
								<g>
									<path d="M176.5459269185102,646.2044352778385 C176.5459269185102,646.2044352778385 160.3121622700727,621.4208735712955 160.3121622700727,621.4208735712955 C160.3121622700727,621.4208735712955 135.1822794575727,689.5377711543033 135.1822794575727,689.5377711543033 C135.1822794575727,689.5377711543033 176.5459269185102,646.2044352778385 176.5459269185102,646.2044352778385 C176.5459269185102,646.2044352778385 176.5459269185102,646.2044352778385 176.5459269185102,646.2044352778385 Z" fill="#e1424f"/>
								</g>
							</g>
						</g>
						<g>
							<g>
								<g>
									<path d="M54.844419350150815,515.2125872858951 C54.844419350150815,515.2125872858951 27.792661537650815,500.2994593867252 27.792661537650815,500.2994593867252 C27.792661537650815,500.2994593867252 -13.651918540474185,545.2122401484439 -13.651918540474185,545.2122401484439 C-13.651918540474185,545.2122401484439 54.844419350150815,515.2125872858951 54.844419350150815,515.2125872858951 C54.844419350150815,515.2125872858951 54.844419350150815,515.2125872858951 54.844419350150815,515.2125872858951 Z" fill="#e1424f"/>
								</g>
							</g>
						</g>
					</g>
				</g>
			</g>
		</g>
	</g>
	<g>
		<g transform="matrix(1,0,0,1,0,-50.517756736)">
			<path d="M372,88.35000000000002 C557.206560661526,88.35000000000002 707.65,238.79343933847395 707.65,424 C707.65,609.206560661526 557.206560661526,759.65 372,759.65 C186.79343933847395,759.65 36.35000000000002,609.206560661526 36.35000000000002,424 C36.35000000000002,238.79343933847395 186.79343933847395,88.35000000000002 372,88.35000000000002 Z" fill="url('#10277183944338571047')"/>
		</g>
		<g transform="matrix(1,0,0,1,0,-50.517756736)">
			<path d="M372,82.26331699 C560.98628639,82.26331699 714.5,235.77703060000007 714.5,424.76331699 C714.5,613.74960338 560.98628639,767.26331699 372,767.26331699 C183.01371361000005,767.26331699 29.5,613.74960338 29.5,424.76331699 C29.5,235.77703060000007 183.01371361000005,82.26331699 372,82.26331699 ZM59.608332690000005,424.76331699 C59.608332690000005,595.65611302 199.62703327000003,734.47246975 372,734.47246975 C544.37296673,734.47246975 684.39166731,595.65611302 684.39166731,424.76331699 C684.39166731,253.87052097 544.37296673,115.05416424 372,115.05416424 C199.62703327000003,115.05416424 59.608332690000005,253.87052097 59.608332690000005,424.76331699 Z" transform="matrix(0.983151102,0,0,0.983151102,6.709407394,4.562297697)" fill="url('#15576904256761719383')"/>
			<path d="M372,82.26331699 C560.98628639,82.26331699 714.5,235.77703060000007 714.5,424.76331699 C714.5,613.74960338 560.98628639,767.26331699 372,767.26331699 C183.01371361000005,767.26331699 29.5,613.74960338 29.5,424.76331699 C29.5,235.77703060000007 183.01371361000005,82.26331699 372,82.26331699 ZM59.608332690000005,424.76331699 C59.608332690000005,595.65611302 199.62703327000003,734.47246975 372,734.47246975 C544.37296673,734.47246975 684.39166731,595.65611302 684.39166731,424.76331699 C684.39166731,253.87052097 544.37296673,115.05416424 372,115.05416424 C199.62703327000003,115.05416424 59.608332690000005,253.87052097 59.608332690000005,424.76331699 Z" transform="matrix(0.983151102,0,0,0.983151102,6.709407394,4.562297697)" clip-path="url(#alignment-1821644694123129530)" fill="none" stroke="#8c6b2a" stroke-width="8"/>
		</g>
	</g>
	<g mask="url(#mask-2965592576149296859)"/>
	<g>
		<polyline points="10000000,10000000 -10000000,10000000 -10000000,-10000000 10000000,-10000000" fill="#000000" fill-opacity="0"/>
	</g>
</g></g></svg>