<svg xmlns="http://www.w3.org/2000/svg" xmlns:graphite="https://graphite.art" viewBox="0 0 744 1038" width="744" height="1038"><defs><clipPath id="alignment-8813478252579916435">
<path d="M35.99999999999886,65.99999999999977 C35.99999999999886,49.44645666662933 49.44645666662842,35.99999999999977 65.99999999999886,35.99999999999977 L749.9999999999989,35.99999999999977 C766.5535433333694,35.99999999999977 779.9999999999989,49.44645666662933 779.9999999999989,65.99999999999977 L779.9999999999989,1043.9999999999998 C779.9999999999989,1060.5535433333703 766.5535433333694,1073.9999999999998 749.9999999999989,1073.9999999999998 L65.99999999999886,1073.9999999999998 C49.44645666662842,1073.9999999999998 35.99999999999886,1060.5535433333703 35.99999999999886,1043.9999999999998 L35.99999999999886,65.99999999999977 Z" fill="#000000"/></clipPath><radialGradient id="14945115168594822033" cx="624.090192399294" cy="778.5663998327576" r="571.4217894233807" gradientTransform="matrix(0.00148368,0,0,0.001059322,-0.105341246,-0.075211864)"><stop stop-color="#5f7470" /><stop offset="1" stop-color="#889696" /></radialGradient><radialGradient id="3439943877626061604" cx="361.32148313650004" cy="468.33012187948003" r="656.5233719072268" gradientTransform="matrix(0.001567398,0,0,0.001101322,-0.139498433,-0.098017621)"><stop stop-color="#f1e9d2" /><stop offset="0.197226" stop-color="#e4d6bc" /><stop offset="1" stop-color="#ae8964" /></radialGradient><clipPath id="alignment-4638037487843763003">
<path d="M88.99999999999994,98.99999999999989 C88.99999999999994,93.48215222220972 93.48215222220978,88.99999999999989 98.99999999999994,88.99999999999989 L717,88.99999999999989 C722.5178477777902,88.99999999999989 727,93.48215222220972 727,98.99999999999989 L727,987.0000000000001 C727,992.5178477777903 722.5178477777902,997.0000000000001 717,997.0000000000001 L98.99999999999994,997.0000000000001 C93.48215222220978,997.0000000000001 88.99999999999994,992.5178477777903 88.99999999999994,987.0000000000001 L88.99999999999994,98.99999999999989 Z" fill="#000000"/></clipPath><linearGradient id="16419592657088391522" x1="668.1542120277669" y1="883.2242679635817" x2="771.922675512868" y2="535.9459244303209" gradientTransform="matrix(0.05,0,0,0.002575594,-36.25,-1.377942616)"><stop stop-color="#9b4e12" /><stop offset="1" stop-color="#cda90f" /></linearGradient><linearGradient id="16501513445194184284" x1="170.41265740238907" y1="933.387594377471" x2="-48.24360041716848" y2="517.2225444562504" gradientTransform="matrix(0.05,0,0,0.002575594,-3.55,-1.377942616)"><stop stop-color="#9b4e12" /><stop offset="0.998634" stop-color="#cda90f" /></linearGradient><radialGradient id="11418766128151134711" cx="403.6013392914809" cy="931.0981450961472" r="290.5923296152176" gradientTransform="matrix(0.002104452,0,0,0.028054877,-0.358619732,-27.475700201)"><stop stop-color="#9b4e12" /><stop offset="1" stop-color="#cda90f" /></radialGradient><mask id="mask-9587096814803619709" mask-type="alpha">
<g>
	<polyline points="10000000,10000000 -10000000,10000000 -10000000,-10000000 10000000,-10000000" fill="#000000" fill-opacity="0"/>
</g>
<g>
	<g transform="matrix(1,0,0,1,-36,-36)">
		<path d="M745.0000000000048,535.0000000000031 L745.0000000000048,901.9999999999998 C745.0000000000048,901.9999999999998 725.0000000000048,923.2599999999998 725.0000000000048,923.2599999999998 C725.0000000000048,923.2599999999998 724.9999999999998,559.2599999999999 724.9999999999998,559.2599999999999 L745.0000000000048,535.0000000000031 Z" fill="url('#16419592657088391522')"/>
	</g>
	<g transform="matrix(1,0,0,1,-36,-36)">
		<path d="M70.99999999999989,535.0000000000002 C70.99999999999989,535.0000000000002 71,902.0000000000002 71,902.0000000000002 C71,902.0000000000002 90.99999999999994,923.2599999999998 90.99999999999994,923.2599999999998 C90.99999999999994,923.2599999999998 90.99999999999983,558.2645864108044 90.99999999999983,558.2645864108044 L70.99999999999989,535.0000000000002 Z" fill="url('#16501513445194184284')"/>
	</g>
	<g transform="matrix(1,0,0,1,-36,-36)">
		<path d="M370.98946465,979.3555736000001 C370.98946465,979.3555736000001 445.01053535,979.3555736000001 445.01053535,979.3555736000001 C445.01053535,979.3555736000001 454.69790770000003,991.7267698 457.29684609000003,995.04572727 C457.29684609000003,995.04572727 645.593,995.04572727 645.593,995.04572727 C645.593,995.04572727 630.35,1015 630.35,1015 C630.35,1015 185.29,1015 185.29,1015 C185.29,1015 170.41,995.04572727 170.41,995.04572727 C170.41,995.04572727 358.55154488,995.04572727 358.55154488,995.04572727 C361.18255332,991.7267698 370.98946465,979.3555736000001 370.98946465,979.3555736000001 Z" fill="url('#11418766128151134711')"/>
	</g>
	<g transform="matrix(1,0,0,1,-36,-36)">
		<g transform="matrix(0.065322245,0,0,0.065322245,393.487635959,943.636104462)">
			<g>
				<g>
					<g>
						<g>
							<path d="M389.8636464808103,682.6059842930853 C389.8636464808103,682.6059842930853 363.7091218836601,750.0675551061029 268.98742227701376,774.1131750864522 C268.98742227701376,774.1131750864522 272.4426881069027,801.6222811950113 272.4426881069027,801.6222811950113 C407.3111108140626,763.5585067845011 389.8636464808103,682.6059842930853 389.8636464808103,682.6059842930853 C389.8636464808103,682.6059842930853 389.8636464808103,682.6059842930853 389.8636464808103,682.6059842930853 Z" fill="#f5d83a"/>
						</g>
					</g>
				</g>
				<g>
					<g>
						<g>
							<path d="M133.96607791439118,885.9355228866266 C133.96607791439118,885.9355228866266 75.40429577011552,893.3012866728689 74.5432881180656,856.4020451049687 C74.14287788202516,839.24250876626 107.9925678010656,802.2377955599263 191.41294118736658,786.3000884902201 C191.41294118736658,786.3000884902201 187.74288530195844,819.4563129282967 187.74288530195844,819.4563129282967 C37.56723242208379,853.0929861227235 133.96607791439118,885.9355228866266 133.96607791439118,885.9355228866266 C133.96607791439118,885.9355228866266 133.96607791439118,885.9355228866266 133.96607791439118,885.9355228866266 Z" fill="#f5d83a"/>
						</g>
					</g>
				</g>
				<g>
					<g>
						<g>
							<g>
								<path d="M246.93398475347993,732.1129577871677 C246.93398475347993,732.1129577871677 262.93399294745427,892.1129475285632 262.93399294745427,892.1129475285632 C262.93399294745427,892.1129475285632 230.93397970012643,908.1129607609344 230.93397970012643,908.1129607609344 C230.93397970012643,908.1129607609344 198.93398356440753,892.112964929607 198.93398356440753,892.112964929607 C198.93398356440753,892.112964929607 214.93396512177492,732.1129506356799 214.93396512177492,732.1129506356799 C214.93396512177492,732.1129506356799 140.41191350387157,732.1129680671818 140.41191350387157,732.1129680671818 C140.41191350387157,732.1129680671818 166.93397964268547,711.6581710731805 166.93397964268547,711.6581710731805 C166.93397964268547,711.6581710731805 299.84006426863994,711.1960521244853 299.84006426863994,711.1960521244853 C299.84006426863994,711.1960521244853 319.0176419981806,732.1129534999034 319.0176419981806,732.1129534999034 C319.0176419981806,732.1129534999034 246.93398475347993,732.1129577871677 246.93398475347993,732.1129577871677 C246.93398475347993,732.1129577871677 246.93398475347993,732.1129577871677 246.93398475347993,732.1129577871677 Z" fill="#f5d83a"/>
							</g>
						</g>
					</g>
					<g>
						<g>
							<g>
								<path d="M246.93392424280756,696.0899011060069 C246.93392424280756,696.0899011060069 242.67482292377719,642.3405879204944 242.67482292377719,642.3405879204944 C242.67482292377719,642.3405879204944 260.3668353945012,610.7816174703668 260.3668353945012,610.7816174703668 C260.3668353945012,610.7816174703668 231.70888551367705,583.7368003129678 230.9339170318798,584.4318410115676 C230.15894855008253,585.1268817101674 203.85353930835925,612.8802830336249 203.85353930835925,612.8802830336249 C203.85353930835925,612.8802830336249 220.97934601155328,640.5172347168477 220.97934601155328,640.5172347168477 C220.97934601155328,640.5172347168477 214.93391657810645,696.0899054187216 214.93391657810645,696.0899054187216 C214.93391657810645,696.0899054187216 246.93392424280756,696.0899011060069 246.93392424280756,696.0899011060069 C246.93392424280756,696.0899011060069 246.93392424280756,696.0899011060069 246.93392424280756,696.0899011060069 Z" fill="#f5d83a"/>
							</g>
						</g>
					</g>
				</g>
				<g>
					<g>
						<g>
							<path d="M436.11769541883604,932.2796360023751 C436.11769541883604,932.2796360023751 404.45107463214543,1011.4463165546065 404.45107463214543,1011.4463165546065 C404.45107463214543,1011.4463165546065 301.2177958194894,958.8796155567377 244.21780295731847,1005.1129562697931 C244.21780295731847,1005.1129562697931 241.6844771466423,925.9463249424027 241.6844771466423,925.9463249424027 C286.65114057814037,884.1462765070221 436.11769541883604,932.2796360023751 436.11769541883604,932.2796360023751 C436.11769541883604,932.2796360023751 436.11769541883604,932.2796360023751 436.11769541883604,932.2796360023751 Z" fill="#f5d83a"/>
						</g>
					</g>
				</g>
				<g>
					<g>
						<g>
							<path d="M26.14280776549944,932.5296054847968 C26.14280776549944,932.5296054847968 57.809428552190084,1011.6962860370281 57.809428552190084,1011.6962860370281 C57.809428552190084,1011.6962860370281 161.04270736484602,959.1295850391593 218.042700227017,1005.3629257522148 C218.042700227017,1005.3629257522148 220.57602603769317,926.1962944248244 220.57602603769317,926.1962944248244 C175.60936260619502,884.3962459894439 26.14280776549944,932.5296054847968 26.14280776549944,932.5296054847968 C26.14280776549944,932.5296054847968 26.14280776549944,932.5296054847968 26.14280776549944,932.5296054847968 Z" fill="#f5d83a"/>
						</g>
					</g>
				</g>
				<g>
					<g>
						<g>
							<path d="M479.1585421417655,946.5898638697658 C479.1585421417655,946.5898638697658 427.6334853032783,1063.4340714027069 427.6334853032783,1063.4340714027069 C427.6334853032783,1063.4340714027069 294.7332026393211,1004.9386611984758 245.39401664681705,1054.005401153028 C245.39401664681705,1054.005401153028 245.35114242110254,1026.9883125473796 245.35114242110254,1026.9883125473796 C282.1411727177034,974.0249041013492 413.83938319261387,1031.383027107569 413.83938319261387,1031.383027107569 C413.83938319261387,1031.383027107569 451.5703422239373,936.4471576087049 451.5703422239373,936.4471576087049 C451.5703422239373,936.4471576087049 479.1585421417655,946.5898638697658 479.1585421417655,946.5898638697658 C479.1585421417655,946.5898638697658 479.1585421417655,946.5898638697658 479.1585421417655,946.5898638697658 Z" fill="#f5d83a"/>
						</g>
					</g>
				</g>
				<g>
					<g>
						<g>
							<path d="M-17.988676164461324,946.5898638697657 C-17.988676164461324,946.5898638697657 33.536380674025935,1063.4340714027066 33.536380674025935,1063.4340714027066 C33.536380674025935,1063.4340714027066 166.43666333798305,1004.9386611984755 215.77584933048718,1054.0054011530278 C215.77584933048718,1054.0054011530278 215.81872355620166,1026.9883125473793 215.81872355620166,1026.9883125473793 C179.02869325960074,974.024904101349 47.33048278469033,1031.3830271075688 47.33048278469033,1031.3830271075688 C47.33048278469033,1031.3830271075688 9.599523753366867,936.4471576087047 9.599523753366867,936.4471576087047 C9.599523753366867,936.4471576087047 -17.988676164461324,946.5898638697657 -17.988676164461324,946.5898638697657 C-17.988676164461324,946.5898638697657 -17.988676164461324,946.5898638697657 -17.988676164461324,946.5898638697657 Z" fill="#f5d83a"/>
						</g>
					</g>
				</g>
			</g>
		</g>
	</g>
</g></mask><linearGradient id="5554231679534106019" x1="668.1542120277669" y1="883.2242679635817" x2="771.922675512868" y2="535.9459244303209" gradientTransform="matrix(0.05,0,0,0.002575594,-36.25,-1.377942616)"><stop stop-color="#9b4e12" /><stop offset="1" stop-color="#cda90f" /></linearGradient><linearGradient id="7014423338465259959" x1="170.41265740238907" y1="933.387594377471" x2="-48.24360041716848" y2="517.2225444562504" gradientTransform="matrix(0.05,0,0,0.002575594,-3.55,-1.377942616)"><stop stop-color="#9b4e12" /><stop offset="0.998634" stop-color="#cda90f" /></linearGradient><radialGradient id="15351912026016978521" cx="403.6013392914809" cy="931.0981450961472" r="290.5923296152176" gradientTransform="matrix(0.002104452,0,0,0.028054877,-0.358619732,-27.475700201)"><stop stop-color="#9b4e12" /><stop offset="1" stop-color="#cda90f" /></radialGradient></defs><g>
<rect fill="#ffffff" fill-opacity="0" x="0" y="0" width="744" height="1038"/>
<g>
	<g>
		<g transform="matrix(1,0,0,1,-36,-36)">
			<path d="M35.99999999999886,65.99999999999977 C35.99999999999886,49.44645666662933 49.44645666662842,35.99999999999977 65.99999999999886,35.99999999999977 L749.9999999999989,35.99999999999977 C766.5535433333694,35.99999999999977 779.9999999999989,49.44645666662933 779.9999999999989,65.99999999999977 L779.9999999999989,1043.9999999999998 C779.9999999999989,1060.5535433333703 766.5535433333694,1073.9999999999998 749.9999999999989,1073.9999999999998 L65.99999999999886,1073.9999999999998 C49.44645666662842,1073.9999999999998 35.99999999999886,1060.5535433333703 35.99999999999886,1043.9999999999998 L35.99999999999886,65.99999999999977 Z" fill="#000000"/>
			<path d="M35.99999999999886,65.99999999999977 C35.99999999999886,49.44645666662933 49.44645666662842,35.99999999999977 65.99999999999886,35.99999999999977 L749.9999999999989,35.99999999999977 C766.5535433333694,35.99999999999977 779.9999999999989,49.44645666662933 779.9999999999989,65.99999999999977 L779.9999999999989,1043.9999999999998 C779.9999999999989,1060.5535433333703 766.5535433333694,1073.9999999999998 749.9999999999989,1073.9999999999998 L65.99999999999886,1073.9999999999998 C49.44645666662842,1073.9999999999998 35.99999999999886,1060.5535433333703 35.99999999999886,1043.9999999999998 L35.99999999999886,65.99999999999977 Z" clip-path="url(#alignment-8813478252579916435)" fill="none" stroke="#000000" stroke-width="4"/>
		</g>
		<g transform="matrix(1,0,0,1,-36,-36)">
			<path d="M70.99999999999994,80.99999999999989 C70.99999999999994,75.48215222220972 75.48215222220978,70.99999999999989 80.99999999999994,70.99999999999989 L735,70.99999999999989 C740.5178477777902,70.99999999999989 745,75.48215222220972 745,80.99999999999989 L745,1005.0000000000001 C745,1010.5178477777903 740.5178477777902,1015.0000000000001 735,1015.0000000000001 L80.99999999999994,1015.0000000000001 C75.48215222220978,1015.0000000000001 70.99999999999994,1010.5178477777903 70.99999999999994,1005.0000000000001 L70.99999999999994,80.99999999999989 Z" fill="url('#14945115168594822033')"/>
		</g>
		<g transform="matrix(1,0,0,1,-36,-36)">
			<path d="M88.99999999999994,98.99999999999989 C88.99999999999994,93.48215222220972 93.48215222220978,88.99999999999989 98.99999999999994,88.99999999999989 L717,88.99999999999989 C722.5178477777902,88.99999999999989 727,93.48215222220972 727,98.99999999999989 L727,987.0000000000001 C727,992.5178477777903 722.5178477777902,997.0000000000001 717,997.0000000000001 L98.99999999999994,997.0000000000001 C93.48215222220978,997.0000000000001 88.99999999999994,992.5178477777903 88.99999999999994,987.0000000000001 L88.99999999999994,98.99999999999989 Z" fill="url('#3439943877626061604')"/>
			<path d="M88.99999999999994,98.99999999999989 C88.99999999999994,93.48215222220972 93.48215222220978,88.99999999999989 98.99999999999994,88.99999999999989 L717,88.99999999999989 C722.5178477777902,88.99999999999989 727,93.48215222220972 727,98.99999999999989 L727,987.0000000000001 C727,992.5178477777903 722.5178477777902,997.0000000000001 717,997.0000000000001 L98.99999999999994,997.0000000000001 C93.48215222220978,997.0000000000001 88.99999999999994,992.5178477777903 88.99999999999994,987.0000000000001 L88.99999999999994,98.99999999999989 Z" clip-path="url(#alignment-4638037487843763003)" fill="none" stroke="#000000" stroke-width="4"/>
		</g>
	</g>
	<g>
		<g>
			<polyline points="10000000,10000000 -10000000,10000000 -10000000,-10000000 10000000,-10000000" fill="#000000" fill-opacity="0"/>
		</g>
		<g>
			<g transform="matrix(1,0,0,1,-36,-36)">
				<path d="M745.0000000000048,535.0000000000031 L745.0000000000048,901.9999999999998 C745.0000000000048,901.9999999999998 725.0000000000048,923.2599999999998 725.0000000000048,923.2599999999998 C725.0000000000048,923.2599999999998 724.9999999999998,559.2599999999999 724.9999999999998,559.2599999999999 L745.0000000000048,535.0000000000031 Z" fill="url('#5554231679534106019')"/>
			</g>
			<g transform="matrix(1,0,0,1,-36,-36)">
				<path d="M70.99999999999989,535.0000000000002 C70.99999999999989,535.0000000000002 71,902.0000000000002 71,902.0000000000002 C71,902.0000000000002 90.99999999999994,923.2599999999998 90.99999999999994,923.2599999999998 C90.99999999999994,923.2599999999998 90.99999999999983,558.2645864108044 90.99999999999983,558.2645864108044 L70.99999999999989,535.0000000000002 Z" fill="url('#7014423338465259959')"/>
			</g>
			<g transform="matrix(1,0,0,1,-36,-36)">
				<path d="M370.98946465,979.3555736000001 C370.98946465,979.3555736000001 445.01053535,979.3555736000001 445.01053535,979.3555736000001 C445.01053535,979.3555736000001 454.69790770000003,991.7267698 457.29684609000003,995.04572727 C457.29684609000003,995.04572727 645.593,995.04572727 645.593,995.04572727 C645.593,995.04572727 630.35,1015 630.35,1015 C630.35,1015 185.29,1015 185.29,1015 C185.29,1015 170.41,995.04572727 170.41,995.04572727 C170.41,995.04572727 358.55154488,995.04572727 358.55154488,995.04572727 C361.18255332,991.7267698 370.98946465,979.3555736000001 370.98946465,979.3555736000001 Z" fill="url('#15351912026016978521')"/>
			</g>
			<g transform="matrix(1,0,0,1,-36,-36)">
				<g transform="matrix(0.065322245,0,0,0.065322245,393.487635959,943.636104462)">
					<g>
						<g>
							<g>
								<g>
									<path d="M389.8636464808103,682.6059842930853 C389.8636464808103,682.6059842930853 363.7091218836601,750.0675551061029 268.98742227701376,774.1131750864522 C268.98742227701376,774.1131750864522 272.4426881069027,801.6222811950113 272.4426881069027,801.6222811950113 C407.3111108140626,763.5585067845011 389.8636464808103,682.6059842930853 389.8636464808103,682.6059842930853 C389.8636464808103,682.6059842930853 389.8636464808103,682.6059842930853 389.8636464808103,682.6059842930853 Z" fill="#f5d83a"/>
								</g>
							</g>
						</g>
						<g>
							<g>
								<g>
									<path d="M133.96607791439118,885.9355228866266 C133.96607791439118,885.9355228866266 75.40429577011552,893.3012866728689 74.5432881180656,856.4020451049687 C74.14287788202516,839.24250876626 107.9925678010656,802.2377955599263 191.41294118736658,786.3000884902201 C191.41294118736658,786.3000884902201 187.74288530195844,819.4563129282967 187.74288530195844,819.4563129282967 C37.56723242208379,853.0929861227235 133.96607791439118,885.9355228866266 133.96607791439118,885.9355228866266 C133.96607791439118,885.9355228866266 133.96607791439118,885.9355228866266 133.96607791439118,885.9355228866266 Z" fill="#f5d83a"/>
								</g>
							</g>
						</g>
						<g>
							<g>
								<g>
									<g>
										<path d="M246.93398475347993,732.1129577871677 C246.93398475347993,732.1129577871677 262.93399294745427,892.1129475285632 262.93399294745427,892.1129475285632 C262.93399294745427,892.1129475285632 230.93397970012643,908.1129607609344 230.93397970012643,908.1129607609344 C230.93397970012643,908.1129607609344 198.93398356440753,892.112964929607 198.93398356440753,892.112964929607 C198.93398356440753,892.112964929607 214.93396512177492,732.1129506356799 214.93396512177492,732.1129506356799 C214.93396512177492,732.1129506356799 140.41191350387157,732.1129680671818 140.41191350387157,732.1129680671818 C140.41191350387157,732.1129680671818 166.93397964268547,711.6581710731805 166.93397964268547,711.6581710731805 C166.93397964268547,711.6581710731805 299.84006426863994,711.1960521244853 299.84006426863994,711.1960521244853 C299.84006426863994,711.1960521244853 319.0176419981806,732.1129534999034 319.0176419981806,732.1129534999034 C319.0176419981806,732.1129534999034 246.93398475347993,732.1129577871677 246.93398475347993,732.1129577871677 C246.93398475347993,732.1129577871677 246.93398475347993,732.1129577871677 246.93398475347993,732.1129577871677 Z" fill="#f5d83a"/>
									</g>
								</g>
							</g>
							<g>
								<g>
									<g>
										<path d="M246.93392424280756,696.0899011060069 C246.93392424280756,696.0899011060069 242.67482292377719,642.3405879204944 242.67482292377719,642.3405879204944 C242.67482292377719,642.3405879204944 260.3668353945012,610.7816174703668 260.3668353945012,610.7816174703668 C260.3668353945012,610.7816174703668 231.70888551367705,583.7368003129678 230.9339170318798,584.4318410115676 C230.15894855008253,585.1268817101674 203.85353930835925,612.8802830336249 203.85353930835925,612.8802830336249 C203.85353930835925,612.8802830336249 220.97934601155328,640.5172347168477 220.97934601155328,640.5172347168477 C220.97934601155328,640.5172347168477 214.93391657810645,696.0899054187216 214.93391657810645,696.0899054187216 C214.93391657810645,696.0899054187216 246.93392424280756,696.0899011060069 246.93392424280756,696.0899011060069 C246.93392424280756,696.0899011060069 246.93392424280756,696.0899011060069 246.93392424280756,696.0899011060069 Z" fill="#f5d83a"/>
									</g>
								</g>
							</g>
						</g>
						<g>
							<g>
								<g>
									<path d="M436.11769541883604,932.2796360023751 C436.11769541883604,932.2796360023751 404.45107463214543,1011.4463165546065 404.45107463214543,1011.4463165546065 C404.45107463214543,1011.4463165546065 301.2177958194894,958.8796155567377 244.21780295731847,1005.1129562697931 C244.21780295731847,1005.1129562697931 241.6844771466423,925.9463249424027 241.6844771466423,925.9463249424027 C286.65114057814037,884.1462765070221 436.11769541883604,932.2796360023751 436.11769541883604,932.2796360023751 C436.11769541883604,932.2796360023751 436.11769541883604,932.2796360023751 436.11769541883604,932.2796360023751 Z" fill="#f5d83a"/>
								</g>
							</g>
						</g>
						<g>
							<g>
								<g>
									<path d="M26.14280776549944,932.5296054847968 C26.14280776549944,932.5296054847968 57.809428552190084,1011.6962860370281 57.809428552190084,1011.6962860370281 C57.809428552190084,1011.6962860370281 161.04270736484602,959.1295850391593 218.042700227017,1005.3629257522148 C218.042700227017,1005.3629257522148 220.57602603769317,926.1962944248244 220.57602603769317,926.1962944248244 C175.60936260619502,884.3962459894439 26.14280776549944,932.5296054847968 26.14280776549944,932.5296054847968 C26.14280776549944,932.5296054847968 26.14280776549944,932.5296054847968 26.14280776549944,932.5296054847968 Z" fill="#f5d83a"/>
								</g>
							</g>
						</g>
						<g>
							<g>
								<g>
									<path d="M479.1585421417655,946.5898638697658 C479.1585421417655,946.5898638697658 427.6334853032783,1063.4340714027069 427.6334853032783,1063.4340714027069 C427.6334853032783,1063.4340714027069 294.7332026393211,1004.9386611984758 245.39401664681705,1054.005401153028 C245.39401664681705,1054.005401153028 245.35114242110254,1026.9883125473796 245.35114242110254,1026.9883125473796 C282.1411727177034,974.0249041013492 413.83938319261387,1031.383027107569 413.83938319261387,1031.383027107569 C413.83938319261387,1031.383027107569 451.5703422239373,936.4471576087049 451.5703422239373,936.4471576087049 C451.5703422239373,936.4471576087049 479.1585421417655,946.5898638697658 479.1585421417655,946.5898638697658 C479.1585421417655,946.5898638697658 479.1585421417655,946.5898638697658 479.1585421417655,946.5898638697658 Z" fill="#f5d83a"/>
								</g>
							</g>
						</g>
						<g>
							<g>
								<g>
									<path d="M-17.988676164461324,946.5898638697657 C-17.988676164461324,946.5898638697657 33.536380674025935,1063.4340714027066 33.536380674025935,1063.4340714027066 C33.536380674025935,1063.4340714027066 166.43666333798305,1004.9386611984755 215.77584933048718,1054.0054011530278 C215.77584933048718,1054.0054011530278 215.81872355620166,1026.9883125473793 215.81872355620166,1026.9883125473793 C179.02869325960074,974.024904101349 47.33048278469033,1031.3830271075688 47.33048278469033,1031.3830271075688 C47.33048278469033,1031.3830271075688 9.599523753366867,936.4471576087047 9.599523753366867,936.4471576087047 C9.599523753366867,936.4471576087047 -17.988676164461324,946.5898638697657 -17.988676164461324,946.5898638697657 C-17.988676164461324,946.5898638697657 -17.988676164461324,946.5898638697657 -17.988676164461324,946.5898638697657 Z" fill="#f5d83a"/>
								</g>
							</g>
						</g>
					</g>
				</g>
			</g>
		</g>
	</g>
	<g mask="url(#mask-9587096814803619709)"/>
	<g>
		<polyline points="10000000,10000000 -10000000,10000000 -10000000,-10000000 10000000,-10000000" fill="#000000" fill-opacity="0"/>
	</g>
</g></g></svg>