<svg xmlns="http://www.w3.org/2000/svg" viewBox="0 0 744 1038" width="744" height="1038"><defs><clipPath id="alignment-7546085763467517063">
<path d="M36,66 C36,49.44645666662956 49.44645666662956,36 66,36 L750,36 C766.5535433333705,36 780,49.44645666662956 780,66 L780,1044 C780,1060.5535433333705 766.5535433333705,1074 750,1074 L66,1074 C49.44645666662956,1074 36,1060.5535433333705 36,1044 L36,66 Z" fill="#000000"/></clipPath><radialGradient id="6004026072476970864" cx="629.2199299042215" cy="800.1947613873972" r="591.7984072957931" gradientTransform="matrix(0.001449275,0,0,0.00101713,-0.091304348,-0.064361752)"><stop stop-color="#5f7470" /><stop offset="1" stop-color="#889696" /></radialGradient><radialGradient id="17960609251673337249" cx="360.15086202393576" cy="476.89752435285425" r="682.272955256596" gradientTransform="matrix(0.001529052,0,0,0.001054852,-0.123853211,-0.085292009)"><stop stop-color="#f1e9d2" /><stop offset="0.197226" stop-color="#e3d6bc" /><stop offset="1" stop-color="#ae8964" /></radialGradient><clipPath id="alignment-14387802761903367120">
<path d="M81,90.85682441700942 C81,85.33897663921925 85.48215222220983,80.85682441700942 91,80.85682441700942 L725,80.85682441700942 C730.5178477777902,80.85682441700942 735,85.33897663921925 735,90.85682441700942 L735,1018.8568244170094 C735,1024.3746721947996 730.5178477777902,1028.8568244170094 725,1028.8568244170094 L91,1028.8568244170094 C85.48215222220983,1028.8568244170094 81,1024.3746721947996 81,1018.8568244170094 L81,90.85682441700942 Z" fill="#000000"/></clipPath><linearGradient id="548875359780910224" x1="676.0384843172128" y1="868.4113673078225" x2="779.922675512868" y2="535.9459244303209" gradientTransform="matrix(0.05,0,0,0.002575594,-36.65,-1.377942616)"><stop stop-color="#3b1767" /><stop offset="1" stop-color="#7e00bc" /></linearGradient><linearGradient id="3818888853017149073" x1="136.59553032412603" y1="877.3740694557712" x2="-56.24360041716848" y2="517.2225444562504" gradientTransform="matrix(0.05,0,0,0.002575594,-3.15,-1.377942616)"><stop stop-color="#3b1767" /><stop offset="1" stop-color="#7e00bc" /></linearGradient><radialGradient id="13661410062899830786" cx="407.90099619632326" cy="1068.760557985848" r="496.69987378600166" gradientTransform="matrix(0.002104452,0,0,0.029342467,-0.358619732,-29.705009907)"><stop stop-color="#3a1767" /><stop offset="1" stop-color="#7e00bc" /></radialGradient></defs><g>
<g>
	<g>
		<g transform="matrix(1,0,0,1,-36,-36)">
			<path d="M36,66 C36,49.44645666662956 49.44645666662956,36 66,36 L750,36 C766.5535433333705,36 780,49.44645666662956 780,66 L780,1044 C780,1060.5535433333705 766.5535433333705,1074 750,1074 L66,1074 C49.44645666662956,1074 36,1060.5535433333705 36,1044 L36,66 Z" fill="#000000"/>
			<path d="M36,66 C36,49.44645666662956 49.44645666662956,36 66,36 L750,36 C766.5535433333705,36 780,49.44645666662956 780,66 L780,1044 C780,1060.5535433333705 766.5535433333705,1074 750,1074 L66,1074 C49.44645666662956,1074 36,1060.5535433333705 36,1044 L36,66 Z" clip-path="url(#alignment-7546085763467517063)" fill="none" stroke="#130e0a" stroke-width="4"/>
		</g>
		<g transform="matrix(1,0,0,1,-36,-36)">
			<g>
				<path d="M63.00000000015581,73.0897347965248 C63.00000000015581,67.67564627335815 67.36819919976512,63.27777777777766 72.74576271201585,63.27777777777766 L743.2542372879839,63.27777777777766 C748.6318008002345,63.27777777777766 752.9999999998438,67.67564627335815 752.9999999998438,73.0897347965248 L752.9999999998438,1036.6239140374942 C752.9999999998438,1042.0380025606607 748.6318008002345,1046.4358710562412 743.2542372879839,1046.4358710562412 L72.74576271201585,1046.4358710562412 C67.36819919976512,1046.4358710562412 63.00000000015581,1042.0380025606607 63.00000000015581,1036.6239140374942 L63.00000000015581,73.0897347965248 Z" fill="url('#6004026072476970864')"/>
			</g>
			<g>
				<path d="M81,90.85682441700942 C81,85.33897663921925 85.48215222220983,80.85682441700942 91,80.85682441700942 L725,80.85682441700942 C730.5178477777902,80.85682441700942 735,85.33897663921925 735,90.85682441700942 L735,1018.8568244170094 C735,1024.3746721947996 730.5178477777902,1028.8568244170094 725,1028.8568244170094 L91,1028.8568244170094 C85.48215222220983,1028.8568244170094 81,1024.3746721947996 81,1018.8568244170094 L81,90.85682441700942 Z" fill="url('#17960609251673337249')"/>
				<path d="M81,90.85682441700942 C81,85.33897663921925 85.48215222220983,80.85682441700942 91,80.85682441700942 L725,80.85682441700942 C730.5178477777902,80.85682441700942 735,85.33897663921925 735,90.85682441700942 L735,1018.8568244170094 C735,1024.3746721947996 730.5178477777902,1028.8568244170094 725,1028.8568244170094 L91,1028.8568244170094 C85.48215222220983,1028.8568244170094 81,1024.3746721947996 81,1018.8568244170094 L81,90.85682441700942 Z" clip-path="url(#alignment-14387802761903367120)" fill="none" stroke="#130e0a" stroke-width="4"/>
			</g>
		</g>
	</g>
	<g>
		<g>
			<g transform="matrix(1,0,0,1,-36,-36)">
				<path d="M753.0000000000048,535.0000000000031 L753.0000000000048,901.9999999999998 C753.0000000000048,901.9999999999998 733.0000000000048,923.2599999999998 733.0000000000048,923.2599999999998 C733.0000000000048,923.2599999999998 732.9999999999998,559.2599999999999 732.9999999999998,559.2599999999999 L753.0000000000048,535.0000000000031 Z" fill="url('#548875359780910224')"/>
			</g>
			<g transform="matrix(1,0,0,1,-36,-36)">
				<path d="M62.999999999999886,535.0000000000002 C62.999999999999886,535.0000000000002 63,902.0000000000002 63,902.0000000000002 C63,902.0000000000002 82.99999999999994,923.2599999999998 82.99999999999994,923.2599999999998 C82.99999999999994,923.2599999999998 82.99999999999983,558.2645864108044 82.99999999999983,558.2645864108044 L62.999999999999886,535.0000000000002 Z" fill="url('#3818888853017149073')"/>
			</g>
			<g transform="matrix(1,0,0,1,-36,-36)">
				<path d="M360.1236981142017,1026.8568244195296 C360.1236981142018,1026.8568244195296 170.40999999999977,1026.8568244195296 170.40999999999977,1026.8568244195296 C170.40999999999977,1026.8568244195296 185.28999999703368,1046.4358710562415 185.28999999703368,1046.4358710562415 C185.28999999703368,1046.4358710562415 630.3499999974574,1046.4358710562415 630.3499999974574,1046.4358710562415 C630.3499999974574,1046.4358710562415 645.5929999991523,1026.8568244195296 645.5929999991523,1026.8568244195296 C645.5929999991523,1026.8568244195296 456.99554998188967,1026.8568244195296 456.99554998188967,1026.8568244195296 C456.99554998188967,1026.8568244195296 445.6402199194913,1012.3555735991022 445.6402199194913,1012.3555735991022 C445.6402199194913,1012.3555735991022 371.61914921271165,1012.3555735991022 371.61914921271165,1012.3555735991022 C371.61914921271165,1012.3555735991022 360.1236981142017,1026.8568244195296 360.1236981142017,1026.8568244195296 Z" fill="url('#13661410062899830786')"/>
			</g>
			<g transform="matrix(1,0,0,1,-36,-36)">
				<g transform="matrix(0.057547188,0,0,0.057547188,390.23637956,984.320444644)">
					<g>
						<g transform="matrix(1,0,0,1,-47.309249878,19.980133057)">
							<g>
								<path d="M231.94206869845613,736.7593901051199 C231.94206869845613,736.7593901051199 300.98562491183503,746.3147337330496 300.98562491183503,746.3147337330496 C300.98562491183503,746.3147337330496 380.0452104831241,588.5766050709402 380.0452104831241,588.5766050709402 C380.0452104831241,588.5766050709402 331.9838396335148,750.6047422779715 331.9838396335148,750.6047422779715 C331.9838396335148,750.6047422779715 380.0452104831241,757.256231535784 380.0452104831241,757.256231535784 C380.0452104831241,757.256231535784 441.02747977023347,748.6380216969168 441.02747977023347,748.6380216969168 C441.02747977023347,748.6380216969168 412.31187308078034,649.2472593678152 412.31187308078034,649.2472593678152 C412.31187308078034,649.2472593678152 467.3804460788272,744.913717497698 467.3804460788272,744.913717497698 C467.3804460788272,744.913717497698 527.8807512546084,736.3636076344168 527.8807512546084,736.3636076344168 C527.8807512546084,736.3636076344168 380.0452104831241,517.7148477924978 380.0452104831241,517.7148477924978 C380.0452104831241,517.7148477924978 231.94206869845613,736.7593901051199 231.94206869845613,736.7593901051199 C231.94206869845613,736.7593901051199 231.94206869845613,736.7593901051199 231.94206869845613,736.7593901051199 ZM224.9033418918155,762.1436521900808 C251.68489706759675,802.590215910784 376.8985735202334,991.438360442034 380.0452104831241,991.438360442034 C383.18894827609284,991.438360442034 508.1740251803897,802.9393675221121 535.1125322604678,762.2562620533621 C535.1125322604678,762.2562620533621 468.5186296725772,771.5331480396902 468.5186296725772,771.5331480396902 C468.5186296725772,771.5331480396902 413.4452348971866,877.6139280689871 413.4452348971866,877.6139280689871 C413.4452348971866,877.6139280689871 441.1494890475772,775.345831145159 441.1494890475772,775.345831145159 C441.1494890475772,775.345831145159 380.0452104831241,783.8579771412527 380.0452104831241,783.8579771412527 C380.0452104831241,783.8579771412527 332.7359606051944,777.2363645924246 332.7359606051944,777.2363645924246 C332.7359606051944,777.2363645924246 380.0452104831241,920.5766050709402 380.0452104831241,920.5766050709402 C380.0452104831241,920.5766050709402 301.55470144992097,772.8721067799246 301.55470144992097,772.8721067799246 C301.55470144992097,772.8721067799246 224.9033418918155,762.1436521900808 224.9033418918155,762.1436521900808 C224.9033418918155,762.1436521900808 224.9033418918155,762.1436521900808 224.9033418918155,762.1436521900808 Z" fill="#d25be8"/>
							</g>
						</g>
					</g>
				</g>
			</g>
		</g>
	</g>
</g></g></svg>