<svg xmlns="http://www.w3.org/2000/svg" xmlns:graphite="https://graphite.art" viewBox="0 0 744 1038" width="744" height="1038"><defs><clipPath id="alignment-9376576655050203800">
<path d="M35.99999999999886,65.99999999999977 C35.99999999999886,49.44645666662933 49.44645666662842,35.99999999999977 65.99999999999886,35.99999999999977 L749.9999999999989,35.99999999999977 C766.5535433333694,35.99999999999977 779.9999999999989,49.44645666662933 779.9999999999989,65.99999999999977 L779.9999999999989,1043.9999999999998 C779.9999999999989,1060.5535433333703 766.5535433333694,1073.9999999999998 749.9999999999989,1073.9999999999998 L65.99999999999886,1073.9999999999998 C49.44645666662842,1073.9999999999998 35.99999999999886,1060.5535433333703 35.99999999999886,1043.9999999999998 L35.99999999999886,65.99999999999977 Z" fill="#000000"/></clipPath><radialGradient id="3970105984783872342" cx="624.090192399294" cy="778.5663998327576" r="571.4217894233807" gradientTransform="matrix(0.00148368,0,0,0.001059322,-0.105341246,-0.075211864)"><stop stop-color="#5f7470" /><stop offset="1" stop-color="#889696" /></radialGradient><radialGradient id="9934605744959806016" cx="361.32148313650004" cy="468.33012187948003" r="656.5233719072268" gradientTransform="matrix(0.001567398,0,0,0.001101322,-0.139498433,-0.098017621)"><stop stop-color="#f1e9d2" /><stop offset="0.197226" stop-color="#e4d6bc" /><stop offset="1" stop-color="#ae8964" /></radialGradient><clipPath id="alignment-5438494031696697504">
<path d="M88.99999999999994,98.99999999999989 C88.99999999999994,93.48215222220972 93.48215222220978,88.99999999999989 98.99999999999994,88.99999999999989 L717,88.99999999999989 C722.5178477777902,88.99999999999989 727,93.48215222220972 727,98.99999999999989 L727,987.0000000000001 C727,992.5178477777903 722.5178477777902,997.0000000000001 717,997.0000000000001 L98.99999999999994,997.0000000000001 C93.48215222220978,997.0000000000001 88.99999999999994,992.5178477777903 88.99999999999994,987.0000000000001 L88.99999999999994,98.99999999999989 Z" fill="#000000"/></clipPath><linearGradient id="13330426543265873822" x1="565.194091476521" y1="1081.1595791571285" x2="396.1502241387375" y2="271.8157516135946" gradientTransform="matrix(0.00148368,0,0,0.001059322,-0.105341246,-0.075211864)"><stop stop-color="#103020" /><stop offset="1" stop-color="#156b2d" /></linearGradient><radialGradient id="5638909461169656788" cx="401.3201315534753" cy="435.74175622359365" r="561.8368629173784" gradientTransform="matrix(0.001489647,0,0,0.001489647,-0.054148667,-0.131610308)"><stop offset="0.020628" stop-color="#181825" /><stop offset="1" stop-color="#303342" /></radialGradient><radialGradient id="16513196632269218651" cx="367.5094689390451" cy="421.77964994535165" r="341.03393871484246" gradientTransform="matrix(0.001484872,0,0,0.001484872,-0.053028308,-0.126866864)"><stop stop-color="#a67219" /><stop offset="0.908866" stop-color="#fad369" /><stop offset="0.956168" stop-color="#c6922b" /><stop offset="1" stop-color="#a67219" /></radialGradient><clipPath id="alignment-5817916900592228443">
<path d="M372,82.26331699 C560.98628639,82.26331699 714.5,235.77703060000007 714.5,424.76331699 C714.5,613.74960338 560.98628639,767.26331699 372,767.26331699 C183.01371361000005,767.26331699 29.5,613.74960338 29.5,424.76331699 C29.5,235.77703060000007 183.01371361000005,82.26331699 372,82.26331699 ZM59.608332690000005,424.76331699 C59.608332690000005,595.65611302 199.62703327000003,734.47246975 372,734.47246975 C544.37296673,734.47246975 684.39166731,595.65611302 684.39166731,424.76331699 C684.39166731,253.87052097 544.37296673,115.05416424 372,115.05416424 C199.62703327000003,115.05416424 59.608332690000005,253.87052097 59.608332690000005,424.76331699 Z" fill="#000000"/></clipPath><mask id="mask-5879786616334749811" mask-type="alpha">
<g transform="matrix(1,0,0,1,0,-50.517756736)">
	<path d="M372,88.35000000000002 C557.206560661526,88.35000000000002 707.65,238.79343933847395 707.65,424 C707.65,609.206560661526 557.206560661526,759.65 372,759.65 C186.79343933847395,759.65 36.35000000000002,609.206560661526 36.35000000000002,424 C36.35000000000002,238.79343933847395 186.79343933847395,88.35000000000002 372,88.35000000000002 Z" fill="url('#5638909461169656788')"/>
</g>
<g transform="matrix(1,0,0,1,0,-50.517756736)">
	<path d="M372,82.26331699 C560.98628639,82.26331699 714.5,235.77703060000007 714.5,424.76331699 C714.5,613.74960338 560.98628639,767.26331699 372,767.26331699 C183.01371361000005,767.26331699 29.5,613.74960338 29.5,424.76331699 C29.5,235.77703060000007 183.01371361000005,82.26331699 372,82.26331699 ZM59.608332690000005,424.76331699 C59.608332690000005,595.65611302 199.62703327000003,734.47246975 372,734.47246975 C544.37296673,734.47246975 684.39166731,595.65611302 684.39166731,424.76331699 C684.39166731,253.87052097 544.37296673,115.05416424 372,115.05416424 C199.62703327000003,115.05416424 59.608332690000005,253.87052097 59.608332690000005,424.76331699 Z" transform="matrix(0.983151102,0,0,0.983151102,6.709407394,4.562297697)" fill="url('#16513196632269218651')"/>
	<path d="M372,82.26331699 C560.98628639,82.26331699 714.5,235.77703060000007 714.5,424.76331699 C714.5,613.74960338 560.98628639,767.26331699 372,767.26331699 C183.01371361000005,767.26331699 29.5,613.74960338 29.5,424.76331699 C29.5,235.77703060000007 183.01371361000005,82.26331699 372,82.26331699 ZM59.608332690000005,424.76331699 C59.608332690000005,595.65611302 199.62703327000003,734.47246975 372,734.47246975 C544.37296673,734.47246975 684.39166731,595.65611302 684.39166731,424.76331699 C684.39166731,253.87052097 544.37296673,115.05416424 372,115.05416424 C199.62703327000003,115.05416424 59.608332690000005,253.87052097 59.608332690000005,424.76331699 Z" transform="matrix(0.983151102,0,0,0.983151102,6.709407394,4.562297697)" clip-path="url(#alignment-5817916900592228443)" fill="none" stroke="#8c6b2a" stroke-width="8"/>
</g></mask><radialGradient id="8200643316337068465" cx="401.3201315534753" cy="435.74175622359365" r="561.8368629173784" gradientTransform="matrix(0.001489647,0,0,0.001489647,-0.054148667,-0.131610308)"><stop offset="0.020628" stop-color="#181825" /><stop offset="1" stop-color="#303342" /></radialGradient><radialGradient id="4651364311203339335" cx="367.5094689390451" cy="421.77964994535165" r="341.03393871484246" gradientTransform="matrix(0.001484872,0,0,0.001484872,-0.053028308,-0.126866864)"><stop stop-color="#a67219" /><stop offset="0.908866" stop-color="#fad369" /><stop offset="0.956168" stop-color="#c6922b" /><stop offset="1" stop-color="#a67219" /></radialGradient><clipPath id="alignment-14326076781418225742">
<path d="M372,82.26331699 C560.98628639,82.26331699 714.5,235.77703060000007 714.5,424.76331699 C714.5,613.74960338 560.98628639,767.26331699 372,767.26331699 C183.01371361000005,767.26331699 29.5,613.74960338 29.5,424.76331699 C29.5,235.77703060000007 183.01371361000005,82.26331699 372,82.26331699 ZM59.608332690000005,424.76331699 C59.608332690000005,595.65611302 199.62703327000003,734.47246975 372,734.47246975 C544.37296673,734.47246975 684.39166731,595.65611302 684.39166731,424.76331699 C684.39166731,253.87052097 544.37296673,115.05416424 372,115.05416424 C199.62703327000003,115.05416424 59.608332690000005,253.87052097 59.608332690000005,424.76331699 Z" fill="#000000"/></clipPath></defs><g>
<rect fill="#ffffff" fill-opacity="0" x="0" y="0" width="744" height="1038"/>
<g>
	<g>
		<g transform="matrix(1,0,0,1,-36,-36)">
			<path d="M35.99999999999886,65.99999999999977 C35.99999999999886,49.44645666662933 49.44645666662842,35.99999999999977 65.99999999999886,35.99999999999977 L749.9999999999989,35.99999999999977 C766.5535433333694,35.99999999999977 779.9999999999989,49.44645666662933 779.9999999999989,65.99999999999977 L779.9999999999989,1043.9999999999998 C779.9999999999989,1060.5535433333703 766.5535433333694,1073.9999999999998 749.9999999999989,1073.9999999999998 L65.99999999999886,1073.9999999999998 C49.44645666662842,1073.9999999999998 35.99999999999886,1060.5535433333703 35.99999999999886,1043.9999999999998 L35.99999999999886,65.99999999999977 Z" fill="#000000"/>
			<path d="M35.99999999999886,65.99999999999977 C35.99999999999886,49.44645666662933 49.44645666662842,35.99999999999977 65.99999999999886,35.99999999999977 L749.9999999999989,35.99999999999977 C766.5535433333694,35.99999999999977 779.9999999999989,49.44645666662933 779.9999999999989,65.99999999999977 L779.9999999999989,1043.9999999999998 C779.9999999999989,1060.5535433333703 766.5535433333694,1073.9999999999998 749.9999999999989,1073.9999999999998 L65.99999999999886,1073.9999999999998 C49.44645666662842,1073.9999999999998 35.99999999999886,1060.5535433333703 35.99999999999886,1043.9999999999998 L35.99999999999886,65.99999999999977 Z" clip-path="url(#alignment-9376576655050203800)" fill="none" stroke="#000000" stroke-width="4"/>
		</g>
		<g transform="matrix(1,0,0,1,-36,-36)">
			<path d="M70.99999999999994,80.99999999999989 C70.99999999999994,75.48215222220972 75.48215222220978,70.99999999999989 80.99999999999994,70.99999999999989 L735,70.99999999999989 C740.5178477777902,70.99999999999989 745,75.48215222220972 745,80.99999999999989 L745,1005.0000000000001 C745,1010.5178477777903 740.5178477777902,1015.0000000000001 735,1015.0000000000001 L80.99999999999994,1015.0000000000001 C75.48215222220978,1015.0000000000001 70.99999999999994,1010.5178477777903 70.99999999999994,1005.0000000000001 L70.99999999999994,80.99999999999989 Z" fill="url('#3970105984783872342')"/>
		</g>
		<g transform="matrix(1,0,0,1,-36,-36)">
			<path d="M88.99999999999994,98.99999999999989 C88.99999999999994,93.48215222220972 93.48215222220978,88.99999999999989 98.99999999999994,88.99999999999989 L717,88.99999999999989 C722.5178477777902,88.99999999999989 727,93.48215222220972 727,98.99999999999989 L727,987.0000000000001 C727,992.5178477777903 722.5178477777902,997.0000000000001 717,997.0000000000001 L98.99999999999994,997.0000000000001 C93.48215222220978,997.0000000000001 88.99999999999994,992.5178477777903 88.99999999999994,987.0000000000001 L88.99999999999994,98.99999999999989 Z" fill="url('#9934605744959806016')"/>
			<path d="M88.99999999999994,98.99999999999989 C88.99999999999994,93.48215222220972 93.48215222220978,88.99999999999989 98.99999999999994,88.99999999999989 L717,88.99999999999989 C722.5178477777902,88.99999999999989 727,93.48215222220972 727,98.99999999999989 L727,987.0000000000001 C727,992.5178477777903 722.5178477777902,997.0000000000001 717,997.0000000000001 L98.99999999999994,997.0000000000001 C93.48215222220978,997.0000000000001 88.99999999999994,992.5178477777903 88.99999999999994,987.0000000000001 L88.99999999999994,98.99999999999989 Z" clip-path="url(#alignment-5438494031696697504)" fill="none" stroke="#000000" stroke-width="4"/>
		</g>
	</g>
	<g>
		<g transform="matrix(1,0,0,1,-36,-36)">
			<g>
				<path d="M81,71 C81,71 735,71 735,71 C740.51784778,71 745,75.48215222 745,81 C745,81 745,1005 745,1005 C745,1010.51784778 740.51784778,1015 735,1015 C735,1015 81,1015 81,1015 C75.48215222,1015 71,1010.51784778 71,1005 C71,1005 71,81 71,81 C71,75.48215222 75.48215222,71 81,71 ZM89,99 C89,99 89,987 89,987 C89,992.51784778 93.48215222,997 99,997 C99,997 359.2174784295482,997 359.2174784295482,997 C361.90101615501555,993.6147780289391 371.61914922,981.3555736000001 371.61914922,981.3555736000001 C371.61914922,981.3555736000001 445.64021992,981.3555736000001 445.64021992,981.3555736000001 C445.64021992,981.3555736000001 455.239896138472,993.6147780289391 457.89072352602454,997 C457.89072352602454,997 717,997 717,997 C722.51784778,997 727,992.51784778 727,987 C727,987 727,99 727,99 C727,93.48215222 722.51784778,89 717,89 C717,89 99,89 99,89 C93.48215222,89 89,93.48215222 89,99 Z" fill="url('#13330426543265873822')" stroke="#000000" stroke-width="4" style="paint-order: stroke;" />
			</g>
			<g>
				<g transform="matrix(0.072024177,0,0,0.072024177,373.699591887,954.403292938)">
					<g>
						<g>
							<g>
								<g>
									<g>
										<path d="M566.2330557103439,482.1250444636679 C566.2330557103439,482.1250444636679 632.1941629291118,460.7611318814776 632.1941629291118,460.7611318814776 C632.1941629291118,460.7611318814776 611.0972232879642,525.3869793019279 611.0972232879642,525.3869793019279 C611.0972232879642,525.3869793019279 541.1346155871325,586.1802424996625 541.1346155871325,586.1802424996625 C541.1346155871325,586.1802424996625 501.629154807839,546.508746420814 501.629154807839,546.508746420814 C501.629154807839,546.508746420814 566.2330557103439,482.1250444636679 566.2330557103439,482.1250444636679 C566.2330557103439,482.1250444636679 566.2330557103439,482.1250444636679 566.2330557103439,482.1250444636679 Z" fill="#1ba041"/>
									</g>
								</g>
							</g>
							<g>
								<g>
									<g>
										<path d="M382.0907377780878,665.6397182772324 C382.0907377780878,665.6397182772324 333.50378373738306,607.6932932791163 333.50378373738306,607.6932932791163 C333.50378373738306,607.6932932791163 326.25379681590505,644.2992026782389 326.25379681590505,644.2992026782389 C326.25379681590505,644.2992026782389 428.13065754658203,749.8856580542218 428.13065754658203,749.8856580542218 C428.13065754658203,749.8856580542218 469.8247544258762,751.6510499850323 469.8247544258762,751.6510499850323 C469.8247544258762,751.6510499850323 417.0914897184226,693.9661552281553 417.0914897184226,693.9661552281553 C417.0914897184226,693.9661552281553 470.456112801665,647.595543682099 470.456112801665,647.595543682099 C470.456112801665,647.595543682099 432.64454033228424,615.2582481274288 432.64454033228424,615.2582481274288 C432.64454033228424,615.2582481274288 382.0907377780878,665.6397182772324 382.0907377780878,665.6397182772324 C382.0907377780878,665.6397182772324 382.0907377780878,665.6397182772324 382.0907377780878,665.6397182772324 Z" fill="#1ba041"/>
									</g>
								</g>
							</g>
							<g>
								<g>
									<g>
										<path d="M352.25855475802416,698.8954821760875 C352.25855475802416,698.8954821760875 296.813361110212,764.8919482602543 296.813361110212,764.8919482602543 C296.813361110212,764.8919482602543 257.8682396560936,773.9798926492983 257.8682396560936,773.9798926492983 C257.8682396560936,773.9798926492983 256.447897321474,817.5762766933535 257.59286371588166,817.6906020547272 C258.73783011028934,817.8049274161008 301.71090004354244,818.5371044194026 301.71090004354244,818.5371044194026 C301.71090004354244,818.5371044194026 311.4989655438666,783.9573870405976 311.4989655438666,783.9573870405976 C311.4989655438666,783.9573870405976 380.0125518473145,728.0029401189136 380.0125518473145,728.0029401189136 C380.0125518473145,728.0029401189136 352.25855475802416,698.8954821760875 352.25855475802416,698.8954821760875 C352.25855475802416,698.8954821760875 352.25855475802416,698.8954821760875 352.25855475802416,698.8954821760875 Z" fill="#1ba041"/>
									</g>
								</g>
							</g>
						</g>
						<g>
							<g>
								<g>
									<g>
										<path d="M591.7444677440773,665.6397182772325 C591.7444677440773,665.6397182772325 407.60214981182116,482.1250444636679 407.60214981182116,482.1250444636679 C407.60214981182116,482.1250444636679 341.6410425930533,460.7611318814776 341.6410425930533,460.7611318814776 C341.6410425930533,460.7611318814776 362.73798223420084,525.3869793019279 362.73798223420084,525.3869793019279 C362.73798223420084,525.3869793019279 556.7437158037425,693.9661552281553 556.7437158037425,693.9661552281553 C556.7437158037425,693.9661552281553 504.0104510962889,751.6510499850323 504.0104510962889,751.6510499850323 C504.0104510962889,751.6510499850323 545.7045479755831,749.8856580542218 545.7045479755831,749.8856580542218 C545.7045479755831,749.8856580542218 647.58140870626,644.2992026782389 647.58140870626,644.2992026782389 C647.58140870626,644.2992026782389 640.331421784782,607.6932932791163 640.331421784782,607.6932932791163 C640.331421784782,607.6932932791163 591.7444677440773,665.6397182772325 591.7444677440773,665.6397182772325 C591.7444677440773,665.6397182772325 591.7444677440773,665.6397182772325 591.7444677440773,665.6397182772325 Z" fill="#1ba041"/>
									</g>
								</g>
							</g>
							<g>
								<g>
									<g>
										<path d="M621.5766507641409,698.8954821760875 C621.5766507641409,698.8954821760875 677.0218444119531,764.8919482602543 677.0218444119531,764.8919482602543 C677.0218444119531,764.8919482602543 715.9669658660715,773.9798926492983 715.9669658660715,773.9798926492983 C715.9669658660715,773.9798926492983 717.3873082006911,817.5762766933535 716.2423418062834,817.6906020547272 C715.0973754118758,817.8049274161008 672.1243054786227,818.5371044194026 672.1243054786227,818.5371044194026 C672.1243054786227,818.5371044194026 662.3362399782985,783.9573870405976 662.3362399782985,783.9573870405976 C662.3362399782985,783.9573870405976 594.3887258591031,728.0579267179077 594.3887258591031,728.0579267179077 C594.3887258591031,728.0579267179077 621.5766507641409,698.8954821760875 621.5766507641409,698.8954821760875 C621.5766507641409,698.8954821760875 621.5766507641409,698.8954821760875 621.5766507641409,698.8954821760875 Z" fill="#1ba041"/>
									</g>
								</g>
							</g>
						</g>
						<g>
							<g>
								<g>
									<path d="M465.36638934373934,501.6316497299552 C465.36638934373934,501.6316497299552 438.60995483181307,428.13844714892855 438.60995483181307,428.13844714892855 C438.60995483181307,428.13844714892855 414.93883815493257,411.6326399442245 414.93883815493257,411.6326399442245 C414.93883815493257,411.6326399442245 412.3512097308395,442.4024417216009 412.3512097308395,442.4024417216009 C412.3512097308395,442.4024417216009 465.36638934373934,501.6316497299552 465.36638934373934,501.6316497299552 C465.36638934373934,501.6316497299552 465.36638934373934,501.6316497299552 465.36638934373934,501.6316497299552 Z" fill="#1ba041"/>
								</g>
							</g>
						</g>
						<g>
							<g>
								<g>
									<path d="M608.6923444386243,564.139878752164 C608.6923444386243,564.139878752164 686.4113846631881,562.5277256768625 686.4113846631881,562.5277256768625 C686.4113846631881,562.5277256768625 708.274450407444,537.1924532547125 708.274450407444,537.1924532547125 C708.274450407444,537.1924532547125 676.8456337632226,525.9210808893602 676.8456337632226,525.9210808893602 C676.8456337632226,525.9210808893602 608.6923444386243,564.139878752164 608.6923444386243,564.139878752164 C608.6923444386243,564.139878752164 608.6923444386243,564.139878752164 608.6923444386243,564.139878752164 Z" fill="#1ba041"/>
								</g>
							</g>
						</g>
						<g>
							<g>
								<g>
									<path d="M487.03855268658265,479.9894004850988 C487.03855268658265,479.9894004850988 501.45927960323263,403.60294262832156 501.45927960323263,403.60294262832156 C501.45927960323263,403.60294262832156 481.167071891991,376.9928695478642 481.167071891991,376.9928695478642 C481.167071891991,376.9928695478642 463.6675115986569,405.4284063081826 463.6675115986569,405.4284063081826 C463.6675115986569,405.4284063081826 487.03855268658265,479.9894004850988 487.03855268658265,479.9894004850988 C487.03855268658265,479.9894004850988 487.03855268658265,479.9894004850988 487.03855268658265,479.9894004850988 Z" fill="#1ba041"/>
								</g>
							</g>
						</g>
						<g>
							<g>
								<g>
									<path d="M642.1769684213472,586.9493964869938 C642.1769684213472,586.9493964869938 696.9637223873764,624.2302911532455 696.9637223873764,624.2302911532455 C696.9637223873764,624.2302911532455 724.3287429011847,616.966793212477 724.3287429011847,616.966793212477 C724.3287429011847,616.966793212477 708.6295779367996,592.485413877302 708.6295779367996,592.485413877302 C708.6295779367996,592.485413877302 642.1769684213472,586.9493964869938 642.1769684213472,586.9493964869938 C642.1769684213472,586.9493964869938 642.1769684213472,586.9493964869938 642.1769684213472,586.9493964869938 Z" fill="#1ba041"/>
								</g>
							</g>
						</g>
						<g>
							<g>
								<g>
									<path d="M322.12019362143815,584.9168528202113 C322.12019362143815,584.9168528202113 273.1117905630697,617.9079200818045 273.1117905630697,617.9079200818045 C273.1117905630697,617.9079200818045 243.4121108311162,613.2979125052184 243.4121108311162,613.2979125052184 C243.4121108311162,613.2979125052184 260.69180778374596,590.1208643479725 260.69180778374596,590.1208643479725 C260.69180778374596,590.1208643479725 322.12019362143815,584.9168528202113 322.12019362143815,584.9168528202113 C322.12019362143815,584.9168528202113 322.12019362143815,584.9168528202113 322.12019362143815,584.9168528202113 Z" fill="#1ba041"/>
								</g>
							</g>
						</g>
						<g>
							<g>
								<g>
									<path d="M500.60955569751206,500.21136260661785 C500.60955569751206,500.21136260661785 567.720894990977,424.5046735922527 567.720894990977,424.5046735922527 C567.720894990977,424.5046735922527 564.222331144712,394.3971387889881 564.222331144712,394.3971387889881 C564.222331144712,394.3971387889881 532.6538425790064,410.29968083755494 532.6538425790064,410.29968083755494 C532.6538425790064,410.29968083755494 500.60955569751206,500.21136260661785 500.60955569751206,500.21136260661785 C500.60955569751206,500.21136260661785 500.60955569751206,500.21136260661785 500.60955569751206,500.21136260661785 Z" fill="#1ba041"/>
								</g>
							</g>
						</g>
						<g>
							<g>
								<g>
									<path d="M357.7358395405623,565.701975575282 C357.7358395405623,565.701975575282 285.322377103999,515.4930385730411 285.322377103999,515.4930385730411 C285.322377103999,515.4930385730411 252.9949495418856,523.8767720547214 252.9949495418856,523.8767720547214 C252.9949495418856,523.8767720547214 270.61757963601815,550.3550871905375 270.61757963601815,550.3550871905375 C270.61757963601815,550.3550871905375 357.7358395405623,565.701975575282 357.7358395405623,565.701975575282 C357.7358395405623,565.701975575282 357.7358395405623,565.701975575282 357.7358395405623,565.701975575282 Z" fill="#1ba041"/>
								</g>
							</g>
						</g>
					</g>
				</g>
			</g>
		</g>
	</g>
	<g>
		<g transform="matrix(1,0,0,1,0,-50.517756736)">
			<path d="M372,88.35000000000002 C557.206560661526,88.35000000000002 707.65,238.79343933847395 707.65,424 C707.65,609.206560661526 557.206560661526,759.65 372,759.65 C186.79343933847395,759.65 36.35000000000002,609.206560661526 36.35000000000002,424 C36.35000000000002,238.79343933847395 186.79343933847395,88.35000000000002 372,88.35000000000002 Z" fill="url('#8200643316337068465')"/>
		</g>
		<g transform="matrix(1,0,0,1,0,-50.517756736)">
			<path d="M372,82.26331699 C560.98628639,82.26331699 714.5,235.77703060000007 714.5,424.76331699 C714.5,613.74960338 560.98628639,767.26331699 372,767.26331699 C183.01371361000005,767.26331699 29.5,613.74960338 29.5,424.76331699 C29.5,235.77703060000007 183.01371361000005,82.26331699 372,82.26331699 ZM59.608332690000005,424.76331699 C59.608332690000005,595.65611302 199.62703327000003,734.47246975 372,734.47246975 C544.37296673,734.47246975 684.39166731,595.65611302 684.39166731,424.76331699 C684.39166731,253.87052097 544.37296673,115.05416424 372,115.05416424 C199.62703327000003,115.05416424 59.608332690000005,253.87052097 59.608332690000005,424.76331699 Z" transform="matrix(0.983151102,0,0,0.983151102,6.709407394,4.562297697)" fill="url('#4651364311203339335')"/>
			<path d="M372,82.26331699 C560.98628639,82.26331699 714.5,235.77703060000007 714.5,424.76331699 C714.5,613.74960338 560.98628639,767.26331699 372,767.26331699 C183.01371361000005,767.26331699 29.5,613.74960338 29.5,424.76331699 C29.5,235.77703060000007 183.01371361000005,82.26331699 372,82.26331699 ZM59.608332690000005,424.76331699 C59.608332690000005,595.65611302 199.62703327000003,734.47246975 372,734.47246975 C544.37296673,734.47246975 684.39166731,595.65611302 684.39166731,424.76331699 C684.39166731,253.87052097 544.37296673,115.05416424 372,115.05416424 C199.62703327000003,115.05416424 59.608332690000005,253.87052097 59.608332690000005,424.76331699 Z" transform="matrix(0.983151102,0,0,0.983151102,6.709407394,4.562297697)" clip-path="url(#alignment-14326076781418225742)" fill="none" stroke="#8c6b2a" stroke-width="8"/>
		</g>
	</g>
	<g mask="url(#mask-5879786616334749811)"/>
	<g>
		<polyline points="10000000,10000000 -10000000,10000000 -10000000,-10000000 10000000,-10000000" fill="#000000" fill-opacity="0"/>
	</g>
</g></g></svg>