<svg xmlns="http://www.w3.org/2000/svg" viewBox="0 0 744 1038" width="744" height="1038"><defs><clipPath id="alignment-1050246480926241086">
<path d="M36,66 C36,49.44645666662956 49.44645666662956,36 66,36 L750,36 C766.5535433333705,36 780,49.44645666662956 780,66 L780,1044 C780,1060.5535433333705 766.5535433333705,1074 750,1074 L66,1074 C49.44645666662956,1074 36,1060.5535433333705 36,1044 L36,66 Z" fill="#000000"/></clipPath><radialGradient id="5083873788583831761" cx="629.2199299042215" cy="800.1947613873972" r="591.7984072957931" gradientTransform="matrix(0.001449275,0,0,0.00101713,-0.091304348,-0.064361752)"><stop stop-color="#5f7470" /><stop offset="1" stop-color="#889696" /></radialGradient><radialGradient id="2733230532690367964" cx="360.15086202393576" cy="476.89752435285425" r="682.272955256596" gradientTransform="matrix(0.001529052,0,0,0.001054852,-0.123853211,-0.085292009)"><stop stop-color="#f1e9d2" /><stop offset="0.197226" stop-color="#e3d6bc" /><stop offset="1" stop-color="#ae8964" /></radialGradient><clipPath id="alignment-15814272051165214908">
<path d="M81,90.85682441700942 C81,85.33897663921925 85.48215222220983,80.85682441700942 91,80.85682441700942 L725,80.85682441700942 C730.5178477777902,80.85682441700942 735,85.33897663921925 735,90.85682441700942 L735,1018.8568244170094 C735,1024.3746721947996 730.5178477777902,1028.8568244170094 725,1028.8568244170094 L91,1028.8568244170094 C85.48215222220983,1028.8568244170094 81,1024.3746721947996 81,1018.8568244170094 L81,90.85682441700942 Z" fill="#000000"/></clipPath><linearGradient id="7907632252109735802" x1="568.9257019566758" y1="1115.4829933522137" x2="395.86892382155617" y2="272.5667493949701" gradientTransform="matrix(0.001449275,0,0,0.00101713,-0.091304348,-0.064507381)"><stop stop-color="#525a62" /><stop offset="1" stop-color="#6b7580" /></linearGradient><linearGradient id="14318509219059458876" x1="568.9257019566758" y1="1115.4829933522137" x2="395.86892382155617" y2="272.5667493949701" gradientTransform="matrix(0.001449275,0,0,0.00101713,-0.091304348,-0.064507381)"><stop stop-color="#9b4e12" /><stop offset="1" stop-color="#cda80f" /></linearGradient><linearGradient id="10492420628720950424" x1="638.7925798791389" y1="510.653540880948" x2="155.7428516968344" y2="184.6756596289818" gradientTransform="matrix(0.0016353,0,0,0.002219887,-0.110447295,-0.271101504)"><stop stop-color="#181825" /><stop offset="0.998634" stop-color="#303342" /></linearGradient><linearGradient id="4989959080082243993" x1="74.05092705910641" y1="179.45921269979004" x2="719.3872711525289" y2="505.02571590872515" gradientTransform="matrix(0.001529052,0,0,0.002030006,-0.068807339,-0.20429411)"><stop stop-color="#ea8e2b" /><stop offset="0.454524" stop-color="#9a4819" /><stop offset="0.796613" stop-color="#ea8e2b" /><stop offset="1" stop-color="#9a4919" /></linearGradient><clipPath id="alignment-13972629692376031939">
<path d="M294.53951253616253,612.36480158275 C294.53951253616253,612.36480158275 303.76187408,621.88352548 303.76187408,621.88352548 C303.76187408,621.88352548 329.8491018541826,621.88352548 329.8491018541826,621.88352548 C329.84910185418266,621.8835254800001 371.99999999,633.24652259 371.99999999,633.24652259 C371.99999999,633.24652259 414.1508981258174,621.88352548 414.1508981258174,621.88352548 C414.1508981258174,621.88352548 445.84276122,621.88352548 445.84276122,621.88352548 C445.84276122,621.88352548 456.86242412622977,610.369394869009 456.86242412622977,610.369394869009 C456.8624241262298,610.369394869009 699,545.09418849 699,545.09418849 C699,545.09418849 699,228.78952026000002 699,228.78952026000002 C699,228.78952026000002 371.99999999,140.63718614 371.99999999,140.63718614 C371.99999999,140.63718614 44.99999998,228.78952026000002 44.99999998,228.78952026000002 C44.99999998,228.78952026000002 44.99999998,545.09418849 44.99999998,545.09418849 C44.99999998,545.09418849 294.5395125361626,612.3648015827501 294.53951253616253,612.36480158275 ZM297.26023169163483,587.9284276976583 C297.26023169163483,587.9284276976583 70.90244997,527.01610678 70.90244997,527.01610678 C70.90244997,527.01610678 70.90244997,244.07424938 70.90244997,244.07424938 C70.90244997,244.07424938 373.47443934,162.65287313000002 373.47443934,162.65287313000002 C373.47443934,162.65287313000002 674.06724536,243.0846577 674.06724536,243.0846577 C674.06724536,243.0846577 676.04642874,527.01610678 676.04642874,527.01610678 C676.04642874,527.01610678 451.7374913667833,587.3770887294697 451.7374913667833,587.3770887294697 C451.73749136678333,587.3770887294697 445.84276122,581.21785379 445.84276122,581.21785379 C445.84276122,581.21785379 303.76187408,581.21785379 303.76187408,581.21785379 C303.76187408,581.21785379 297.26023169163483,587.9284276976583 297.26023169163483,587.9284276976583 Z" fill="#000000"/></clipPath><mask id="mask-2049309916653019702" mask-type="alpha">
<g transform="matrix(1,0,0,1,0.00000001,-54.246522593)">
	<path d="M373.29386636677464,122.12398335630161 C373.29386636677464,122.12398335630161 677.0482447121124,203.40173263253632 677.0482447121124,203.40173263253632 C677.0482447121124,203.40173263253632 679.0482447121125,490.31951338452757 679.0482447121125,490.31951338452757 C679.0482447121125,490.31951338452757 373.29386636677464,572.5972626607622 373.29386636677464,572.5972626607622 C373.29386636677464,572.5972626607622 67.53948802143685,490.3195133845276 67.53948802143685,490.3195133845276 C67.53948802143685,490.3195133845276 67.53948802143668,204.40173263253644 67.53948802143668,204.40173263253644 C67.53948802143668,204.40173263253644 373.29386636677464,122.12398335630161 373.29386636677464,122.12398335630161 Z" transform="matrix(1,0,0,1,0,0)" fill="url('#10492420628720950424')" stroke="#303342" stroke-width="2"/>
</g>
<g transform="matrix(1,0,0,1,0.00000001,-54.246522593)">
	<path d="M294.53951253616253,612.36480158275 C294.53951253616253,612.36480158275 303.76187408,621.88352548 303.76187408,621.88352548 C303.76187408,621.88352548 329.8491018541826,621.88352548 329.8491018541826,621.88352548 C329.84910185418266,621.8835254800001 371.99999999,633.24652259 371.99999999,633.24652259 C371.99999999,633.24652259 414.1508981258174,621.88352548 414.1508981258174,621.88352548 C414.1508981258174,621.88352548 445.84276122,621.88352548 445.84276122,621.88352548 C445.84276122,621.88352548 456.86242412622977,610.369394869009 456.86242412622977,610.369394869009 C456.8624241262298,610.369394869009 699,545.09418849 699,545.09418849 C699,545.09418849 699,228.78952026000002 699,228.78952026000002 C699,228.78952026000002 371.99999999,140.63718614 371.99999999,140.63718614 C371.99999999,140.63718614 44.99999998,228.78952026000002 44.99999998,228.78952026000002 C44.99999998,228.78952026000002 44.99999998,545.09418849 44.99999998,545.09418849 C44.99999998,545.09418849 294.5395125361626,612.3648015827501 294.53951253616253,612.36480158275 ZM297.26023169163483,587.9284276976583 C297.26023169163483,587.9284276976583 70.90244997,527.01610678 70.90244997,527.01610678 C70.90244997,527.01610678 70.90244997,244.07424938 70.90244997,244.07424938 C70.90244997,244.07424938 373.47443934,162.65287313000002 373.47443934,162.65287313000002 C373.47443934,162.65287313000002 674.06724536,243.0846577 674.06724536,243.0846577 C674.06724536,243.0846577 676.04642874,527.01610678 676.04642874,527.01610678 C676.04642874,527.01610678 451.7374913667833,587.3770887294697 451.7374913667833,587.3770887294697 C451.73749136678333,587.3770887294697 445.84276122,581.21785379 445.84276122,581.21785379 C445.84276122,581.21785379 303.76187408,581.21785379 303.76187408,581.21785379 C303.76187408,581.21785379 297.26023169163483,587.9284276976583 297.26023169163483,587.9284276976583 Z" transform="matrix(1,0,0,1,0,-40)" fill="url('#4989959080082243993')"/>
	<path d="M294.53951253616253,612.36480158275 C294.53951253616253,612.36480158275 303.76187408,621.88352548 303.76187408,621.88352548 C303.76187408,621.88352548 329.8491018541826,621.88352548 329.8491018541826,621.88352548 C329.84910185418266,621.8835254800001 371.99999999,633.24652259 371.99999999,633.24652259 C371.99999999,633.24652259 414.1508981258174,621.88352548 414.1508981258174,621.88352548 C414.1508981258174,621.88352548 445.84276122,621.88352548 445.84276122,621.88352548 C445.84276122,621.88352548 456.86242412622977,610.369394869009 456.86242412622977,610.369394869009 C456.8624241262298,610.369394869009 699,545.09418849 699,545.09418849 C699,545.09418849 699,228.78952026000002 699,228.78952026000002 C699,228.78952026000002 371.99999999,140.63718614 371.99999999,140.63718614 C371.99999999,140.63718614 44.99999998,228.78952026000002 44.99999998,228.78952026000002 C44.99999998,228.78952026000002 44.99999998,545.09418849 44.99999998,545.09418849 C44.99999998,545.09418849 294.5395125361626,612.3648015827501 294.53951253616253,612.36480158275 ZM297.26023169163483,587.9284276976583 C297.26023169163483,587.9284276976583 70.90244997,527.01610678 70.90244997,527.01610678 C70.90244997,527.01610678 70.90244997,244.07424938 70.90244997,244.07424938 C70.90244997,244.07424938 373.47443934,162.65287313000002 373.47443934,162.65287313000002 C373.47443934,162.65287313000002 674.06724536,243.0846577 674.06724536,243.0846577 C674.06724536,243.0846577 676.04642874,527.01610678 676.04642874,527.01610678 C676.04642874,527.01610678 451.7374913667833,587.3770887294697 451.7374913667833,587.3770887294697 C451.73749136678333,587.3770887294697 445.84276122,581.21785379 445.84276122,581.21785379 C445.84276122,581.21785379 303.76187408,581.21785379 303.76187408,581.21785379 C303.76187408,581.21785379 297.26023169163483,587.9284276976583 297.26023169163483,587.9284276976583 Z" transform="matrix(1,0,0,1,0,-40)" clip-path="url(#alignment-13972629692376031939)" fill="none" stroke="#6f3a08" stroke-width="8"/>
</g></mask><linearGradient id="476299739529161389" x1="638.7925798791389" y1="510.653540880948" x2="155.7428516968344" y2="184.6756596289818" gradientTransform="matrix(0.0016353,0,0,0.002219887,-0.110447295,-0.271101504)"><stop stop-color="#181825" /><stop offset="0.998634" stop-color="#303342" /></linearGradient><linearGradient id="11288093344150100531" x1="74.05092705910641" y1="179.45921269979004" x2="719.3872711525289" y2="505.02571590872515" gradientTransform="matrix(0.001529052,0,0,0.002030006,-0.068807339,-0.20429411)"><stop stop-color="#ea8e2b" /><stop offset="0.454524" stop-color="#9a4819" /><stop offset="0.796613" stop-color="#ea8e2b" /><stop offset="1" stop-color="#9a4919" /></linearGradient><clipPath id="alignment-14735273227666162939">
<path d="M294.53951253616253,612.36480158275 C294.53951253616253,612.36480158275 303.76187408,621.88352548 303.76187408,621.88352548 C303.76187408,621.88352548 329.8491018541826,621.88352548 329.8491018541826,621.88352548 C329.84910185418266,621.8835254800001 371.99999999,633.24652259 371.99999999,633.24652259 C371.99999999,633.24652259 414.1508981258174,621.88352548 414.1508981258174,621.88352548 C414.1508981258174,621.88352548 445.84276122,621.88352548 445.84276122,621.88352548 C445.84276122,621.88352548 456.86242412622977,610.369394869009 456.86242412622977,610.369394869009 C456.8624241262298,610.369394869009 699,545.09418849 699,545.09418849 C699,545.09418849 699,228.78952026000002 699,228.78952026000002 C699,228.78952026000002 371.99999999,140.63718614 371.99999999,140.63718614 C371.99999999,140.63718614 44.99999998,228.78952026000002 44.99999998,228.78952026000002 C44.99999998,228.78952026000002 44.99999998,545.09418849 44.99999998,545.09418849 C44.99999998,545.09418849 294.5395125361626,612.3648015827501 294.53951253616253,612.36480158275 ZM297.26023169163483,587.9284276976583 C297.26023169163483,587.9284276976583 70.90244997,527.01610678 70.90244997,527.01610678 C70.90244997,527.01610678 70.90244997,244.07424938 70.90244997,244.07424938 C70.90244997,244.07424938 373.47443934,162.65287313000002 373.47443934,162.65287313000002 C373.47443934,162.65287313000002 674.06724536,243.0846577 674.06724536,243.0846577 C674.06724536,243.0846577 676.04642874,527.01610678 676.04642874,527.01610678 C676.04642874,527.01610678 451.7374913667833,587.3770887294697 451.7374913667833,587.3770887294697 C451.73749136678333,587.3770887294697 445.84276122,581.21785379 445.84276122,581.21785379 C445.84276122,581.21785379 303.76187408,581.21785379 303.76187408,581.21785379 C303.76187408,581.21785379 297.26023169163483,587.9284276976583 297.26023169163483,587.9284276976583 Z" fill="#000000"/></clipPath></defs><g>
<g>
	<g>
		<g transform="matrix(1,0,0,1,-36,-36)">
			<path d="M36,66 C36,49.44645666662956 49.44645666662956,36 66,36 L750,36 C766.5535433333705,36 780,49.44645666662956 780,66 L780,1044 C780,1060.5535433333705 766.5535433333705,1074 750,1074 L66,1074 C49.44645666662956,1074 36,1060.5535433333705 36,1044 L36,66 Z" fill="#000000"/>
			<path d="M36,66 C36,49.44645666662956 49.44645666662956,36 66,36 L750,36 C766.5535433333705,36 780,49.44645666662956 780,66 L780,1044 C780,1060.5535433333705 766.5535433333705,1074 750,1074 L66,1074 C49.44645666662956,1074 36,1060.5535433333705 36,1044 L36,66 Z" clip-path="url(#alignment-1050246480926241086)" fill="none" stroke="#130e0a" stroke-width="4"/>
		</g>
		<g transform="matrix(1,0,0,1,-36,-36)">
			<g>
				<path d="M63.00000000015581,73.0897347965248 C63.00000000015581,67.67564627335815 67.36819919976512,63.27777777777766 72.74576271201585,63.27777777777766 L743.2542372879839,63.27777777777766 C748.6318008002345,63.27777777777766 752.9999999998438,67.67564627335815 752.9999999998438,73.0897347965248 L752.9999999998438,1036.6239140374942 C752.9999999998438,1042.0380025606607 748.6318008002345,1046.4358710562412 743.2542372879839,1046.4358710562412 L72.74576271201585,1046.4358710562412 C67.36819919976512,1046.4358710562412 63.00000000015581,1042.0380025606607 63.00000000015581,1036.6239140374942 L63.00000000015581,73.0897347965248 Z" fill="url('#5083873788583831761')"/>
			</g>
			<g>
				<path d="M81,90.85682441700942 C81,85.33897663921925 85.48215222220983,80.85682441700942 91,80.85682441700942 L725,80.85682441700942 C730.5178477777902,80.85682441700942 735,85.33897663921925 735,90.85682441700942 L735,1018.8568244170094 C735,1024.3746721947996 730.5178477777902,1028.8568244170094 725,1028.8568244170094 L91,1028.8568244170094 C85.48215222220983,1028.8568244170094 81,1024.3746721947996 81,1018.8568244170094 L81,90.85682441700942 Z" fill="url('#2733230532690367964')"/>
				<path d="M81,90.85682441700942 C81,85.33897663921925 85.48215222220983,80.85682441700942 91,80.85682441700942 L725,80.85682441700942 C730.5178477777902,80.85682441700942 735,85.33897663921925 735,90.85682441700942 L735,1018.8568244170094 C735,1024.3746721947996 730.5178477777902,1028.8568244170094 725,1028.8568244170094 L91,1028.8568244170094 C85.48215222220983,1028.8568244170094 81,1024.3746721947996 81,1018.8568244170094 L81,90.85682441700942 Z" clip-path="url(#alignment-15814272051165214908)" fill="none" stroke="#130e0a" stroke-width="4"/>
			</g>
			<g>
				<g>
					<path d="M458.56166731391534,1028.8568244150001 C458.56166731,1028.85682442 445.64021992,1012.3555736000001 445.64021992,1012.3555736000001 C445.64021992,1012.3555736000001 371.61914922,1012.3555736000001 371.61914922,1012.3555736000001 C371.61914922,1012.3555736000001 358.53825542,1028.85682442 358.53825542,1028.85682442 C358.53825543932686,1028.85682441 91,1028.85682441 91,1028.85682441 C85.48215222,1028.85682441 81,1024.37467219 81,1018.8568244200001 C81,1018.8568244200001 81,90.85682442 81,90.85682442 C81,85.33897664 85.48215222,80.85682441 91,80.85682441 C91,80.85682441 725,80.85682441 725,80.85682441 C730.51784778,80.85682441 735,85.33897664 735,90.85682442 C735,90.85682442 735,1018.8568244200001 735,1018.8568244200001 C735,1024.37467219 730.51784778,1028.85682441 725,1028.85682441 C725,1028.85682441 458.5616673178307,1028.85682441 458.56166731391534,1028.8568244150001 ZM63,73.23291038 C63,73.23291038 63,1036.76708962 63,1036.76708962 C63,1042.18117815 67.3681992,1046.5790466400001 72.74576271000001,1046.5790466400001 C72.74576271000001,1046.5790466400001 743.25423729,1046.5790466400001 743.25423729,1046.5790466400001 C748.6318008000001,1046.5790466400001 753,1042.18117815 753,1036.76708962 C753,1036.76708962 753,73.23291038 753,73.23291038 C753,67.81882185 748.6318008000001,63.42095336 743.25423729,63.42095336 C743.25423729,63.42095336 72.74576271000001,63.42095336 72.74576271000001,63.42095336 C67.3681992,63.42095336 63,67.81882185 63,73.23291038 Z" fill="url('#7907632252109735802')" stroke="#000000" stroke-width="4" style="paint-order: stroke;" />
				</g>
			</g>
			<g>
				<g>
					<path d="M458.56166731391534,1028.8568244150001 C458.56166731,1028.85682442 445.64021992,1012.3555736000001 445.64021992,1012.3555736000001 C445.64021992,1012.3555736000001 371.61914922,1012.3555736000001 371.61914922,1012.3555736000001 C371.61914922,1012.3555736000001 358.53825542,1028.85682442 358.53825542,1028.85682442 C358.53825543932686,1028.85682441 91,1028.85682441 91,1028.85682441 C85.48215222,1028.85682441 81,1024.37467219 81,1018.8568244200001 C81,1018.8568244200001 81,90.85682442 81,90.85682442 C81,85.33897664 85.48215222,80.85682441 91,80.85682441 C91,80.85682441 725,80.85682441 725,80.85682441 C730.51784778,80.85682441 735,85.33897664 735,90.85682442 C735,90.85682442 735,1018.8568244200001 735,1018.8568244200001 C735,1024.37467219 730.51784778,1028.85682441 725,1028.85682441 C725,1028.85682441 458.5616673178307,1028.85682441 458.56166731391534,1028.8568244150001 ZM63,73.23291038 C63,73.23291038 63,1036.76708962 63,1036.76708962 C63,1042.18117815 67.3681992,1046.5790466400001 72.74576271000001,1046.5790466400001 C72.74576271000001,1046.5790466400001 743.25423729,1046.5790466400001 743.25423729,1046.5790466400001 C748.6318008000001,1046.5790466400001 753,1042.18117815 753,1036.76708962 C753,1036.76708962 753,73.23291038 753,73.23291038 C753,67.81882185 748.6318008000001,63.42095336 743.25423729,63.42095336 C743.25423729,63.42095336 72.74576271000001,63.42095336 72.74576271000001,63.42095336 C67.3681992,63.42095336 63,67.81882185 63,73.23291038 Z" fill="url('#14318509219059458876')" stroke="#000000" stroke-width="4" style="paint-order: stroke;" />
				</g>
				<g>
					<g transform="matrix(0.065322245,0,0,0.065322245,393.487635959,975.636104462)">
						<g>
							<g>
								<g>
									<g>
										<path d="M389.8636464808103,682.6059842930853 C389.8636464808103,682.6059842930853 363.7091218836601,750.0675551061029 268.98742227701376,774.1131750864522 C268.98742227701376,774.1131750864522 272.4426881069027,801.6222811950113 272.4426881069027,801.6222811950113 C407.3111108140626,763.5585067845011 389.8636464808103,682.6059842930853 389.8636464808103,682.6059842930853 C389.8636464808103,682.6059842930853 389.8636464808103,682.6059842930853 389.8636464808103,682.6059842930853 Z" fill="#f5d83a"/>
									</g>
								</g>
							</g>
							<g>
								<g>
									<g>
										<path d="M133.96607791439118,885.9355228866266 C133.96607791439118,885.9355228866266 75.40429577011552,893.3012866728689 74.5432881180656,856.4020451049687 C74.14287788202516,839.24250876626 107.9925678010656,802.2377955599263 191.41294118736658,786.3000884902201 C191.41294118736658,786.3000884902201 187.74288530195844,819.4563129282967 187.74288530195844,819.4563129282967 C37.56723242208379,853.0929861227235 133.96607791439118,885.9355228866266 133.96607791439118,885.9355228866266 C133.96607791439118,885.9355228866266 133.96607791439118,885.9355228866266 133.96607791439118,885.9355228866266 Z" fill="#f5d83a"/>
									</g>
								</g>
							</g>
							<g>
								<g>
									<g>
										<g>
											<path d="M246.93398475347993,732.1129577871677 C246.93398475347993,732.1129577871677 262.93399294745427,892.1129475285632 262.93399294745427,892.1129475285632 C262.93399294745427,892.1129475285632 230.93397970012643,908.1129607609344 230.93397970012643,908.1129607609344 C230.93397970012643,908.1129607609344 198.93398356440753,892.112964929607 198.93398356440753,892.112964929607 C198.93398356440753,892.112964929607 214.93396512177492,732.1129506356799 214.93396512177492,732.1129506356799 C214.93396512177492,732.1129506356799 140.41191350387157,732.1129680671818 140.41191350387157,732.1129680671818 C140.41191350387157,732.1129680671818 166.93397964268547,711.6581710731805 166.93397964268547,711.6581710731805 C166.93397964268547,711.6581710731805 299.84006426863994,711.1960521244853 299.84006426863994,711.1960521244853 C299.84006426863994,711.1960521244853 319.0176419981806,732.1129534999034 319.0176419981806,732.1129534999034 C319.0176419981806,732.1129534999034 246.93398475347993,732.1129577871677 246.93398475347993,732.1129577871677 C246.93398475347993,732.1129577871677 246.93398475347993,732.1129577871677 246.93398475347993,732.1129577871677 Z" fill="#f5d83a"/>
										</g>
									</g>
								</g>
								<g>
									<g>
										<g>
											<path d="M246.93392424280756,696.0899011060069 C246.93392424280756,696.0899011060069 242.67482292377719,642.3405879204944 242.67482292377719,642.3405879204944 C242.67482292377719,642.3405879204944 260.3668353945012,610.7816174703668 260.3668353945012,610.7816174703668 C260.3668353945012,610.7816174703668 231.70888551367705,583.7368003129678 230.9339170318798,584.4318410115676 C230.15894855008253,585.1268817101674 203.85353930835925,612.8802830336249 203.85353930835925,612.8802830336249 C203.85353930835925,612.8802830336249 220.97934601155328,640.5172347168477 220.97934601155328,640.5172347168477 C220.97934601155328,640.5172347168477 214.93391657810645,696.0899054187216 214.93391657810645,696.0899054187216 C214.93391657810645,696.0899054187216 246.93392424280756,696.0899011060069 246.93392424280756,696.0899011060069 C246.93392424280756,696.0899011060069 246.93392424280756,696.0899011060069 246.93392424280756,696.0899011060069 Z" fill="#f5d83a"/>
										</g>
									</g>
								</g>
							</g>
							<g>
								<g>
									<g>
										<path d="M436.11769541883604,932.2796360023751 C436.11769541883604,932.2796360023751 404.45107463214543,1011.4463165546065 404.45107463214543,1011.4463165546065 C404.45107463214543,1011.4463165546065 301.2177958194894,958.8796155567377 244.21780295731847,1005.1129562697931 C244.21780295731847,1005.1129562697931 241.6844771466423,925.9463249424027 241.6844771466423,925.9463249424027 C286.65114057814037,884.1462765070221 436.11769541883604,932.2796360023751 436.11769541883604,932.2796360023751 C436.11769541883604,932.2796360023751 436.11769541883604,932.2796360023751 436.11769541883604,932.2796360023751 Z" fill="#f5d83a"/>
									</g>
								</g>
							</g>
							<g>
								<g>
									<g>
										<path d="M26.14280776549944,932.5296054847968 C26.14280776549944,932.5296054847968 57.809428552190084,1011.6962860370281 57.809428552190084,1011.6962860370281 C57.809428552190084,1011.6962860370281 161.04270736484602,959.1295850391593 218.042700227017,1005.3629257522148 C218.042700227017,1005.3629257522148 220.57602603769317,926.1962944248244 220.57602603769317,926.1962944248244 C175.60936260619502,884.3962459894439 26.14280776549944,932.5296054847968 26.14280776549944,932.5296054847968 C26.14280776549944,932.5296054847968 26.14280776549944,932.5296054847968 26.14280776549944,932.5296054847968 Z" fill="#f5d83a"/>
									</g>
								</g>
							</g>
							<g>
								<g>
									<g>
										<path d="M479.1585421417655,946.5898638697658 C479.1585421417655,946.5898638697658 427.6334853032783,1063.4340714027069 427.6334853032783,1063.4340714027069 C427.6334853032783,1063.4340714027069 294.7332026393211,1004.9386611984758 245.39401664681705,1054.005401153028 C245.39401664681705,1054.005401153028 245.35114242110254,1026.9883125473796 245.35114242110254,1026.9883125473796 C282.1411727177034,974.0249041013492 413.83938319261387,1031.383027107569 413.83938319261387,1031.383027107569 C413.83938319261387,1031.383027107569 451.5703422239373,936.4471576087049 451.5703422239373,936.4471576087049 C451.5703422239373,936.4471576087049 479.1585421417655,946.5898638697658 479.1585421417655,946.5898638697658 C479.1585421417655,946.5898638697658 479.1585421417655,946.5898638697658 479.1585421417655,946.5898638697658 Z" fill="#f5d83a"/>
									</g>
								</g>
							</g>
							<g>
								<g>
									<g>
										<path d="M-17.988676164461324,946.5898638697657 C-17.988676164461324,946.5898638697657 33.536380674025935,1063.4340714027066 33.536380674025935,1063.4340714027066 C33.536380674025935,1063.4340714027066 166.43666333798305,1004.9386611984755 215.77584933048718,1054.0054011530278 C215.77584933048718,1054.0054011530278 215.81872355620166,1026.9883125473793 215.81872355620166,1026.9883125473793 C179.02869325960074,974.024904101349 47.33048278469033,1031.3830271075688 47.33048278469033,1031.3830271075688 C47.33048278469033,1031.3830271075688 9.599523753366867,936.4471576087047 9.599523753366867,936.4471576087047 C9.599523753366867,936.4471576087047 -17.988676164461324,946.5898638697657 -17.988676164461324,946.5898638697657 C-17.988676164461324,946.5898638697657 -17.988676164461324,946.5898638697657 -17.988676164461324,946.5898638697657 Z" fill="#f5d83a"/>
									</g>
								</g>
							</g>
						</g>
					</g>
				</g>
			</g>
		</g>
	</g>
	<g>
		<g transform="matrix(1,0,0,1,0.00000001,-54.246522593)">
			<path d="M373.29386636677464,122.12398335630161 C373.29386636677464,122.12398335630161 677.0482447121124,203.40173263253632 677.0482447121124,203.40173263253632 C677.0482447121124,203.40173263253632 679.0482447121125,490.31951338452757 679.0482447121125,490.31951338452757 C679.0482447121125,490.31951338452757 373.29386636677464,572.5972626607622 373.29386636677464,572.5972626607622 C373.29386636677464,572.5972626607622 67.53948802143685,490.3195133845276 67.53948802143685,490.3195133845276 C67.53948802143685,490.3195133845276 67.53948802143668,204.40173263253644 67.53948802143668,204.40173263253644 C67.53948802143668,204.40173263253644 373.29386636677464,122.12398335630161 373.29386636677464,122.12398335630161 Z" transform="matrix(1,0,0,1,0,0)" fill="url('#476299739529161389')" stroke="#303342" stroke-width="2"/>
		</g>
		<g transform="matrix(1,0,0,1,0.00000001,-54.246522593)">
			<path d="M294.53951253616253,612.36480158275 C294.53951253616253,612.36480158275 303.76187408,621.88352548 303.76187408,621.88352548 C303.76187408,621.88352548 329.8491018541826,621.88352548 329.8491018541826,621.88352548 C329.84910185418266,621.8835254800001 371.99999999,633.24652259 371.99999999,633.24652259 C371.99999999,633.24652259 414.1508981258174,621.88352548 414.1508981258174,621.88352548 C414.1508981258174,621.88352548 445.84276122,621.88352548 445.84276122,621.88352548 C445.84276122,621.88352548 456.86242412622977,610.369394869009 456.86242412622977,610.369394869009 C456.8624241262298,610.369394869009 699,545.09418849 699,545.09418849 C699,545.09418849 699,228.78952026000002 699,228.78952026000002 C699,228.78952026000002 371.99999999,140.63718614 371.99999999,140.63718614 C371.99999999,140.63718614 44.99999998,228.78952026000002 44.99999998,228.78952026000002 C44.99999998,228.78952026000002 44.99999998,545.09418849 44.99999998,545.09418849 C44.99999998,545.09418849 294.5395125361626,612.3648015827501 294.53951253616253,612.36480158275 ZM297.26023169163483,587.9284276976583 C297.26023169163483,587.9284276976583 70.90244997,527.01610678 70.90244997,527.01610678 C70.90244997,527.01610678 70.90244997,244.07424938 70.90244997,244.07424938 C70.90244997,244.07424938 373.47443934,162.65287313000002 373.47443934,162.65287313000002 C373.47443934,162.65287313000002 674.06724536,243.0846577 674.06724536,243.0846577 C674.06724536,243.0846577 676.04642874,527.01610678 676.04642874,527.01610678 C676.04642874,527.01610678 451.7374913667833,587.3770887294697 451.7374913667833,587.3770887294697 C451.73749136678333,587.3770887294697 445.84276122,581.21785379 445.84276122,581.21785379 C445.84276122,581.21785379 303.76187408,581.21785379 303.76187408,581.21785379 C303.76187408,581.21785379 297.26023169163483,587.9284276976583 297.26023169163483,587.9284276976583 Z" transform="matrix(1,0,0,1,0,-40)" fill="url('#11288093344150100531')"/>
			<path d="M294.53951253616253,612.36480158275 C294.53951253616253,612.36480158275 303.76187408,621.88352548 303.76187408,621.88352548 C303.76187408,621.88352548 329.8491018541826,621.88352548 329.8491018541826,621.88352548 C329.84910185418266,621.8835254800001 371.99999999,633.24652259 371.99999999,633.24652259 C371.99999999,633.24652259 414.1508981258174,621.88352548 414.1508981258174,621.88352548 C414.1508981258174,621.88352548 445.84276122,621.88352548 445.84276122,621.88352548 C445.84276122,621.88352548 456.86242412622977,610.369394869009 456.86242412622977,610.369394869009 C456.8624241262298,610.369394869009 699,545.09418849 699,545.09418849 C699,545.09418849 699,228.78952026000002 699,228.78952026000002 C699,228.78952026000002 371.99999999,140.63718614 371.99999999,140.63718614 C371.99999999,140.63718614 44.99999998,228.78952026000002 44.99999998,228.78952026000002 C44.99999998,228.78952026000002 44.99999998,545.09418849 44.99999998,545.09418849 C44.99999998,545.09418849 294.5395125361626,612.3648015827501 294.53951253616253,612.36480158275 ZM297.26023169163483,587.9284276976583 C297.26023169163483,587.9284276976583 70.90244997,527.01610678 70.90244997,527.01610678 C70.90244997,527.01610678 70.90244997,244.07424938 70.90244997,244.07424938 C70.90244997,244.07424938 373.47443934,162.65287313000002 373.47443934,162.65287313000002 C373.47443934,162.65287313000002 674.06724536,243.0846577 674.06724536,243.0846577 C674.06724536,243.0846577 676.04642874,527.01610678 676.04642874,527.01610678 C676.04642874,527.01610678 451.7374913667833,587.3770887294697 451.7374913667833,587.3770887294697 C451.73749136678333,587.3770887294697 445.84276122,581.21785379 445.84276122,581.21785379 C445.84276122,581.21785379 303.76187408,581.21785379 303.76187408,581.21785379 C303.76187408,581.21785379 297.26023169163483,587.9284276976583 297.26023169163483,587.9284276976583 Z" transform="matrix(1,0,0,1,0,-40)" clip-path="url(#alignment-14735273227666162939)" fill="none" stroke="#6f3a08" stroke-width="8"/>
		</g>
	</g>
	<g mask="url(#mask-2049309916653019702)"/>
</g></g></svg>