<svg xmlns="http://www.w3.org/2000/svg" viewBox="0 0 744 1038" width="744" height="1038"><defs><clipPath id="alignment-6078643931521169342">
<path d="M36,66 C36,49.44645666662956 49.44645666662956,36 66,36 L750,36 C766.5535433333705,36 780,49.44645666662956 780,66 L780,1044 C780,1060.5535433333705 766.5535433333705,1074 750,1074 L66,1074 C49.44645666662956,1074 36,1060.5535433333705 36,1044 L36,66 Z" fill="#000000"/></clipPath><linearGradient id="12061869840125062244" x1="568.9257019566016" y1="1115.482993351501" x2="395.8689238215604" y2="272.56674939532917" gradientTransform="matrix(0.001449275,0,0,0.00101713,-0.091304348,-0.064507381)"><stop stop-color="#061230" /><stop offset="1" stop-color="#1a316d" /></linearGradient><linearGradient id="15096582171981637871" x1="568.9257019566016" y1="1115.482993351501" x2="395.8689238215604" y2="272.56674939532917" gradientTransform="matrix(0.001449275,0,0,0.00101713,-0.091304348,-0.064507381)"><stop stop-color="#18274f" /><stop offset="0.996311" stop-color="#243e81" /></linearGradient><radialGradient id="18132502734904911392" cx="360.15086202393553" cy="476.89752435285425" r="682.272955256596" gradientTransform="matrix(0.001529052,0,0,0.001054852,-0.123853211,-0.085292009)"><stop stop-color="#f1e9d2" /><stop offset="0.197226" stop-color="#e3d6bc" /><stop offset="1" stop-color="#ae8964" /></radialGradient><clipPath id="alignment-2585412008928607739">
<path d="M80.99999999999977,90.85682441700942 C80.99999999999977,85.33897663921925 85.4821522222096,80.85682441700942 90.99999999999977,80.85682441700942 L724.9999999999998,80.85682441700942 C730.5178477777899,80.85682441700942 734.9999999999998,85.33897663921925 734.9999999999998,90.85682441700942 L734.9999999999998,1018.8568244170094 C734.9999999999998,1024.3746721947996 730.5178477777899,1028.8568244170094 724.9999999999998,1028.8568244170094 L90.99999999999977,1028.8568244170094 C85.4821522222096,1028.8568244170094 80.99999999999977,1024.3746721947996 80.99999999999977,1018.8568244170094 L80.99999999999977,90.85682441700942 Z" fill="#000000"/></clipPath><linearGradient id="11559413508801448561" x1="568.9257019566758" y1="1115.4829933522137" x2="395.86892382155617" y2="272.5667493949701" gradientTransform="matrix(0.001449275,0,0,0.00101713,-0.091304348,-0.064507381)"><stop stop-color="#525a62" /><stop offset="1" stop-color="#6b7580" /></linearGradient><radialGradient id="8450314484523608359" cx="398.10706204420825" cy="416.62983640391445" r="549.2796145735288" gradientTransform="matrix(0.00152367,0,0,0.001536474,-0.062907093,-0.122649767)"><stop offset="0.020628" stop-color="#181824" /><stop offset="1" stop-color="#303342" /></radialGradient><radialGradient id="16728672982039714875" cx="367.4734678555249" cy="421.77680928479856" r="343.5232375430016" gradientTransform="matrix(0.001474113,0,0,0.001474113,-0.049020856,-0.12232435)"><stop stop-color="#a67219" /><stop offset="0.908866" stop-color="#fad369" /><stop offset="0.956168" stop-color="#c6922b" /><stop offset="1" stop-color="#a67219" /></radialGradient></defs><g>
<g>
	<g>
		<g transform="matrix(1,0,0,1,-36,-36)">
			<path d="M36,66 C36,49.44645666662956 49.44645666662956,36 66,36 L750,36 C766.5535433333705,36 780,49.44645666662956 780,66 L780,1044 C780,1060.5535433333705 766.5535433333705,1074 750,1074 L66,1074 C49.44645666662956,1074 36,1060.5535433333705 36,1044 L36,66 Z" fill="#000000"/>
			<path d="M36,66 C36,49.44645666662956 49.44645666662956,36 66,36 L750,36 C766.5535433333705,36 780,49.44645666662956 780,66 L780,1044 C780,1060.5535433333705 766.5535433333705,1074 750,1074 L66,1074 C49.44645666662956,1074 36,1060.5535433333705 36,1044 L36,66 Z" clip-path="url(#alignment-6078643931521169342)" fill="none" stroke="#130e0a" stroke-width="4"/>
		</g>
		<g transform="matrix(1,0,0,1,-36,-36)">
			<g>
				<path d="M63.00000000015467,73.23291037937497 C63.00000000015467,67.81882185620674 67.36819919976398,63.42095336062499 72.74576271201471,63.42095336062499 L743.2542372879827,63.42095336062499 C748.6318008002333,63.42095336062499 752.9999999998427,67.81882185620674 752.9999999998427,73.23291037937497 L752.9999999998427,1036.767089620625 C752.9999999998427,1042.1811781437932 748.6318008002333,1046.579046639375 743.2542372879827,1046.579046639375 L72.74576271201471,1046.579046639375 C67.36819919976398,1046.579046639375 63.00000000015467,1042.1811781437932 63.00000000015467,1036.767089620625 L63.00000000015467,73.23291037937497 Z" fill="url('#12061869840125062244')"/>
			</g>
			<g>
				<path d="M63.00000000015467,73.23291037937497 C63.00000000015467,67.81882185620674 67.36819919976398,63.42095336062499 72.74576271201471,63.42095336062499 L743.2542372879827,63.42095336062499 C748.6318008002333,63.42095336062499 752.9999999998427,67.81882185620674 752.9999999998427,73.23291037937497 L752.9999999998427,1036.767089620625 C752.9999999998427,1042.1811781437932 748.6318008002333,1046.579046639375 743.2542372879827,1046.579046639375 L72.74576271201471,1046.579046639375 C67.36819919976398,1046.579046639375 63.00000000015467,1042.1811781437932 63.00000000015467,1036.767089620625 L63.00000000015467,73.23291037937497 Z" fill="url('#15096582171981637871')"/>
			</g>
			<g>
				<path d="M80.99999999999977,90.85682441700942 C80.99999999999977,85.33897663921925 85.4821522222096,80.85682441700942 90.99999999999977,80.85682441700942 L724.9999999999998,80.85682441700942 C730.5178477777899,80.85682441700942 734.9999999999998,85.33897663921925 734.9999999999998,90.85682441700942 L734.9999999999998,1018.8568244170094 C734.9999999999998,1024.3746721947996 730.5178477777899,1028.8568244170094 724.9999999999998,1028.8568244170094 L90.99999999999977,1028.8568244170094 C85.4821522222096,1028.8568244170094 80.99999999999977,1024.3746721947996 80.99999999999977,1018.8568244170094 L80.99999999999977,90.85682441700942 Z" fill="url('#18132502734904911392')"/>
				<path d="M80.99999999999977,90.85682441700942 C80.99999999999977,85.33897663921925 85.4821522222096,80.85682441700942 90.99999999999977,80.85682441700942 L724.9999999999998,80.85682441700942 C730.5178477777899,80.85682441700942 734.9999999999998,85.33897663921925 734.9999999999998,90.85682441700942 L734.9999999999998,1018.8568244170094 C734.9999999999998,1024.3746721947996 730.5178477777899,1028.8568244170094 724.9999999999998,1028.8568244170094 L90.99999999999977,1028.8568244170094 C85.4821522222096,1028.8568244170094 80.99999999999977,1024.3746721947996 80.99999999999977,1018.8568244170094 L80.99999999999977,90.85682441700942 Z" clip-path="url(#alignment-2585412008928607739)" fill="none" stroke="#130e0a" stroke-width="4"/>
			</g>
			<g>
				<g>
					<path d="M458.56166731391534,1028.8568244150001 C458.56166731,1028.85682442 445.64021992,1012.3555736000001 445.64021992,1012.3555736000001 C445.64021992,1012.3555736000001 371.61914922,1012.3555736000001 371.61914922,1012.3555736000001 C371.61914922,1012.3555736000001 358.53825542,1028.85682442 358.53825542,1028.85682442 C358.53825543932686,1028.85682441 91,1028.85682441 91,1028.85682441 C85.48215222,1028.85682441 81,1024.37467219 81,1018.8568244200001 C81,1018.8568244200001 81,90.85682442 81,90.85682442 C81,85.33897664 85.48215222,80.85682441 91,80.85682441 C91,80.85682441 725,80.85682441 725,80.85682441 C730.51784778,80.85682441 735,85.33897664 735,90.85682442 C735,90.85682442 735,1018.8568244200001 735,1018.8568244200001 C735,1024.37467219 730.51784778,1028.85682441 725,1028.85682441 C725,1028.85682441 458.5616673178307,1028.85682441 458.56166731391534,1028.8568244150001 ZM63,73.23291038 C63,73.23291038 63,1036.76708962 63,1036.76708962 C63,1042.18117815 67.3681992,1046.5790466400001 72.74576271000001,1046.5790466400001 C72.74576271000001,1046.5790466400001 743.25423729,1046.5790466400001 743.25423729,1046.5790466400001 C748.6318008000001,1046.5790466400001 753,1042.18117815 753,1036.76708962 C753,1036.76708962 753,73.23291038 753,73.23291038 C753,67.81882185 748.6318008000001,63.42095336 743.25423729,63.42095336 C743.25423729,63.42095336 72.74576271000001,63.42095336 72.74576271000001,63.42095336 C67.3681992,63.42095336 63,67.81882185 63,73.23291038 Z" fill="url('#11559413508801448561')" stroke="#000000" stroke-width="4" style="paint-order: stroke;" />
				</g>
			</g>
		</g>
	</g>
	<g>
		<g transform="matrix(1,0,0,1,0,-50.517756736)">
			<path d="M369.44163698764777,79.82548411080853 C550.5126112069645,79.82548411080853 697.5967103264676,225.68388240431577 697.5967103264676,405.2459318384715 C697.5967103264676,584.8079812726272 550.5126112069645,730.6663795661345 369.44163698764777,730.6663795661345 C188.37066276833104,730.6663795661345 41.28656364882795,584.8079812726272 41.28656364882795,405.2459318384715 C41.28656364882795,225.68388240431577 188.37066276833104,79.82548411080853 369.44163698764777,79.82548411080853 Z" fill="url('#8450314484523608359')"/>
		</g>
		<g transform="matrix(1,0,0,1,0,-50.517756736)">
			<path d="M372.0000000000031,79.76331698813152 C181.6342516613195,79.76331698813152 26.999999994556788,234.39756865489426 26.999999994556788,424.7633169935779 C26.999999994556788,615.1290653322616 181.6342516613195,769.7633169990243 372.0000000000031,769.7633169990243 C562.3657483386868,769.7633169990243 717.0000000054495,615.1290653322616 717.0000000054495,424.7633169935779 C717.0000000054495,234.39756865489426 562.3657483386868,79.76331698813152 372.0000000000031,79.76331698813152 ZM372.0000000000031,115.0541642471735 C544.3729667322184,115.0541642471735 684.3916673136929,253.870520962056 684.3916673136929,424.7633169935779 C684.3916673136929,595.6561130250998 544.3729667322184,734.4724697399823 372.0000000000031,734.4724697399823 C199.6270332677879,734.4724697399823 59.60833268631336,595.6561130250998 59.60833268631336,424.7633169935779 C59.60833268631336,253.870520962056 199.6270332677879,115.0541642471735 372.0000000000031,115.0541642471735 Z" transform="matrix(0.983151102,0,0,0.983151102,6.709407394,4.562297697)" fill="url('#16728672982039714875')" stroke="#8c6b2a" stroke-width="4"/>
		</g>
	</g>
</g></g></svg>