<svg xmlns="http://www.w3.org/2000/svg" viewBox="0 0 743 1037" width="743" height="1037"><defs><clipPath id="alignment-12105472070728119132">
<path d="M36,66 C36,49.44645666662956 49.44645666662956,36 66,36 L750,36 C766.5535433333705,36 780,49.44645666662956 780,66 L780,1044 C780,1060.5535433333705 766.5535433333705,1074 750,1074 L66,1074 C49.44645666662956,1074 36,1060.5535433333705 36,1044 L36,66 Z" fill="#000000"/></clipPath><radialGradient id="5192405299520892133" cx="629.2199299042215" cy="800.1947613873972" r="591.7984072957931" gradientTransform="matrix(0.001449275,0,0,0.00101713,-0.091304348,-0.064361752)"><stop stop-color="#5f7470" /><stop offset="1" stop-color="#889696" /></radialGradient><radialGradient id="11112970386949785275" cx="360.15086202393576" cy="476.89752435285425" r="682.272955256596" gradientTransform="matrix(0.001529052,0,0,0.001054852,-0.123853211,-0.085292009)"><stop stop-color="#f1e9d2" /><stop offset="0.197226" stop-color="#e3d6bc" /><stop offset="1" stop-color="#ae8964" /></radialGradient><clipPath id="alignment-16801832056005650407">
<path d="M81,90.85682441700942 C81,85.33897663921925 85.48215222220983,80.85682441700942 91,80.85682441700942 L725,80.85682441700942 C730.5178477777902,80.85682441700942 735,85.33897663921925 735,90.85682441700942 L735,1018.8568244170094 C735,1024.3746721947996 730.5178477777902,1028.8568244170094 725,1028.8568244170094 L91,1028.8568244170094 C85.48215222220983,1028.8568244170094 81,1024.3746721947996 81,1018.8568244170094 L81,90.85682441700942 Z" fill="#000000"/></clipPath><linearGradient id="8738893203285439276" x1="638.7925798791389" y1="510.653540880948" x2="155.7428516968344" y2="184.6756596289818" gradientTransform="matrix(0.0016353,0,0,0.002219887,-0.110447295,-0.271101504)"><stop stop-color="#181825" /><stop offset="0.998634" stop-color="#303342" /></linearGradient><linearGradient id="9934100036623797066" x1="74.05092705910641" y1="179.45921269979004" x2="719.3872711525289" y2="505.02571590872515" gradientTransform="matrix(0.001529052,0,0,0.002030006,-0.068807339,-0.20429411)"><stop stop-color="#ea8e2b" /><stop offset="0.454524" stop-color="#9a4819" /><stop offset="0.796613" stop-color="#ea8e2b" /><stop offset="1" stop-color="#9a4919" /></linearGradient><clipPath id="alignment-4117063110367959737">
<path d="M299.26557650735936,613.6388491979005 C299.26557650735936,613.6388491979005 309.19128815,623.88352548 309.19128815,623.88352548 C309.19128815,623.88352548 337.26807727550386,623.88352548 337.26807727550386,623.88352548 C337.26807727550386,623.8835254800001 371.99999999,633.24652259 371.99999999,633.24652259 C371.99999999,633.24652259 406.7319227044961,623.88352548 406.7319227044961,623.88352548 C406.73192270449607,623.88352548 436.92263686,623.88352548 436.92263686,623.88352548 C436.92263686,623.88352548 447.4203312375054,612.914784859543 447.4203312375054,612.914784859543 C447.4203312375054,612.9147848595429 699,545.09418849 699,545.09418849 C699,545.09418849 699,228.78952026000002 699,228.78952026000002 C699,228.78952026000002 371.99999999,140.63718614 371.99999999,140.63718614 C371.99999999,140.63718614 44.99999998,228.78952026000002 44.99999998,228.78952026000002 C44.99999998,228.78952026000002 44.99999998,545.09418849 44.99999998,545.09418849 C44.99999998,545.09418849 299.2655765073594,613.6388491979005 299.26557650735936,613.6388491979005 ZM306.2601141044127,590.3502738633999 C306.2601141044127,590.3502738633999 70.90244997,527.01610678 70.90244997,527.01610678 C70.90244997,527.01610678 70.90244997,244.07424938 70.90244997,244.07424938 C70.90244997,244.07424938 373.47443934,162.65287313000002 373.47443934,162.65287313000002 C373.47443934,162.65287313000002 674.06724536,243.0846577 674.06724536,243.0846577 C674.06724536,243.0846577 676.04642874,527.01610678 676.04642874,527.01610678 C676.04642874,527.01610678 439.9963956544324,590.5365886346431 439.9963956544324,590.5365886346431 C439.99639565443243,590.5365886346431 436.92263686,587.32490598 436.92263686,587.32490598 C436.92263686,587.32490598 309.19128815,587.32490598 309.19128815,587.32490598 C309.19128815,587.32490598 306.2601141044127,590.3502738633999 306.2601141044127,590.3502738633999 Z" fill="#000000"/></clipPath><mask id="mask-4530241231917485524" mask-type="alpha">
<g transform="matrix(1,0,0,1,0.00000001,-54.246522593)">
	<path d="M373.29386636677464,122.12398335630161 C373.29386636677464,122.12398335630161 677.0482447121124,203.40173263253632 677.0482447121124,203.40173263253632 C677.0482447121124,203.40173263253632 679.0482447121125,490.31951338452757 679.0482447121125,490.31951338452757 C679.0482447121125,490.31951338452757 373.29386636677464,572.5972626607622 373.29386636677464,572.5972626607622 C373.29386636677464,572.5972626607622 67.53948802143685,490.3195133845276 67.53948802143685,490.3195133845276 C67.53948802143685,490.3195133845276 67.53948802143668,204.40173263253644 67.53948802143668,204.40173263253644 C67.53948802143668,204.40173263253644 373.29386636677464,122.12398335630161 373.29386636677464,122.12398335630161 Z" transform="matrix(1,0,0,1,0,0)" fill="url('#8738893203285439276')" stroke="#303342" stroke-width="2"/>
</g>
<g transform="matrix(1,0,0,1,0.00000001,-54.246522593)">
	<path d="M299.26557650735936,613.6388491979005 C299.26557650735936,613.6388491979005 309.19128815,623.88352548 309.19128815,623.88352548 C309.19128815,623.88352548 337.26807727550386,623.88352548 337.26807727550386,623.88352548 C337.26807727550386,623.8835254800001 371.99999999,633.24652259 371.99999999,633.24652259 C371.99999999,633.24652259 406.7319227044961,623.88352548 406.7319227044961,623.88352548 C406.73192270449607,623.88352548 436.92263686,623.88352548 436.92263686,623.88352548 C436.92263686,623.88352548 447.4203312375054,612.914784859543 447.4203312375054,612.914784859543 C447.4203312375054,612.9147848595429 699,545.09418849 699,545.09418849 C699,545.09418849 699,228.78952026000002 699,228.78952026000002 C699,228.78952026000002 371.99999999,140.63718614 371.99999999,140.63718614 C371.99999999,140.63718614 44.99999998,228.78952026000002 44.99999998,228.78952026000002 C44.99999998,228.78952026000002 44.99999998,545.09418849 44.99999998,545.09418849 C44.99999998,545.09418849 299.2655765073594,613.6388491979005 299.26557650735936,613.6388491979005 ZM306.2601141044127,590.3502738633999 C306.2601141044127,590.3502738633999 70.90244997,527.01610678 70.90244997,527.01610678 C70.90244997,527.01610678 70.90244997,244.07424938 70.90244997,244.07424938 C70.90244997,244.07424938 373.47443934,162.65287313000002 373.47443934,162.65287313000002 C373.47443934,162.65287313000002 674.06724536,243.0846577 674.06724536,243.0846577 C674.06724536,243.0846577 676.04642874,527.01610678 676.04642874,527.01610678 C676.04642874,527.01610678 439.9963956544324,590.5365886346431 439.9963956544324,590.5365886346431 C439.99639565443243,590.5365886346431 436.92263686,587.32490598 436.92263686,587.32490598 C436.92263686,587.32490598 309.19128815,587.32490598 309.19128815,587.32490598 C309.19128815,587.32490598 306.2601141044127,590.3502738633999 306.2601141044127,590.3502738633999 Z" transform="matrix(1,0,0,1,0,-40)" fill="url('#9934100036623797066')"/>
	<path d="M299.26557650735936,613.6388491979005 C299.26557650735936,613.6388491979005 309.19128815,623.88352548 309.19128815,623.88352548 C309.19128815,623.88352548 337.26807727550386,623.88352548 337.26807727550386,623.88352548 C337.26807727550386,623.8835254800001 371.99999999,633.24652259 371.99999999,633.24652259 C371.99999999,633.24652259 406.7319227044961,623.88352548 406.7319227044961,623.88352548 C406.73192270449607,623.88352548 436.92263686,623.88352548 436.92263686,623.88352548 C436.92263686,623.88352548 447.4203312375054,612.914784859543 447.4203312375054,612.914784859543 C447.4203312375054,612.9147848595429 699,545.09418849 699,545.09418849 C699,545.09418849 699,228.78952026000002 699,228.78952026000002 C699,228.78952026000002 371.99999999,140.63718614 371.99999999,140.63718614 C371.99999999,140.63718614 44.99999998,228.78952026000002 44.99999998,228.78952026000002 C44.99999998,228.78952026000002 44.99999998,545.09418849 44.99999998,545.09418849 C44.99999998,545.09418849 299.2655765073594,613.6388491979005 299.26557650735936,613.6388491979005 ZM306.2601141044127,590.3502738633999 C306.2601141044127,590.3502738633999 70.90244997,527.01610678 70.90244997,527.01610678 C70.90244997,527.01610678 70.90244997,244.07424938 70.90244997,244.07424938 C70.90244997,244.07424938 373.47443934,162.65287313000002 373.47443934,162.65287313000002 C373.47443934,162.65287313000002 674.06724536,243.0846577 674.06724536,243.0846577 C674.06724536,243.0846577 676.04642874,527.01610678 676.04642874,527.01610678 C676.04642874,527.01610678 439.9963956544324,590.5365886346431 439.9963956544324,590.5365886346431 C439.99639565443243,590.5365886346431 436.92263686,587.32490598 436.92263686,587.32490598 C436.92263686,587.32490598 309.19128815,587.32490598 309.19128815,587.32490598 C309.19128815,587.32490598 306.2601141044127,590.3502738633999 306.2601141044127,590.3502738633999 Z" transform="matrix(1,0,0,1,0,-40)" clip-path="url(#alignment-4117063110367959737)" fill="none" stroke="#6f3a08" stroke-width="8"/>
</g></mask><linearGradient id="13727861937147251745" x1="638.7925798791389" y1="510.653540880948" x2="155.7428516968344" y2="184.6756596289818" gradientTransform="matrix(0.0016353,0,0,0.002219887,-0.110447295,-0.271101504)"><stop stop-color="#181825" /><stop offset="0.998634" stop-color="#303342" /></linearGradient><linearGradient id="8788156383558286654" x1="74.05092705910641" y1="179.45921269979004" x2="719.3872711525289" y2="505.02571590872515" gradientTransform="matrix(0.001529052,0,0,0.002030006,-0.068807339,-0.20429411)"><stop stop-color="#ea8e2b" /><stop offset="0.454524" stop-color="#9a4819" /><stop offset="0.796613" stop-color="#ea8e2b" /><stop offset="1" stop-color="#9a4919" /></linearGradient><clipPath id="alignment-9869590425152439500">
<path d="M299.26557650735936,613.6388491979005 C299.26557650735936,613.6388491979005 309.19128815,623.88352548 309.19128815,623.88352548 C309.19128815,623.88352548 337.26807727550386,623.88352548 337.26807727550386,623.88352548 C337.26807727550386,623.8835254800001 371.99999999,633.24652259 371.99999999,633.24652259 C371.99999999,633.24652259 406.7319227044961,623.88352548 406.7319227044961,623.88352548 C406.73192270449607,623.88352548 436.92263686,623.88352548 436.92263686,623.88352548 C436.92263686,623.88352548 447.4203312375054,612.914784859543 447.4203312375054,612.914784859543 C447.4203312375054,612.9147848595429 699,545.09418849 699,545.09418849 C699,545.09418849 699,228.78952026000002 699,228.78952026000002 C699,228.78952026000002 371.99999999,140.63718614 371.99999999,140.63718614 C371.99999999,140.63718614 44.99999998,228.78952026000002 44.99999998,228.78952026000002 C44.99999998,228.78952026000002 44.99999998,545.09418849 44.99999998,545.09418849 C44.99999998,545.09418849 299.2655765073594,613.6388491979005 299.26557650735936,613.6388491979005 ZM306.2601141044127,590.3502738633999 C306.2601141044127,590.3502738633999 70.90244997,527.01610678 70.90244997,527.01610678 C70.90244997,527.01610678 70.90244997,244.07424938 70.90244997,244.07424938 C70.90244997,244.07424938 373.47443934,162.65287313000002 373.47443934,162.65287313000002 C373.47443934,162.65287313000002 674.06724536,243.0846577 674.06724536,243.0846577 C674.06724536,243.0846577 676.04642874,527.01610678 676.04642874,527.01610678 C676.04642874,527.01610678 439.9963956544324,590.5365886346431 439.9963956544324,590.5365886346431 C439.99639565443243,590.5365886346431 436.92263686,587.32490598 436.92263686,587.32490598 C436.92263686,587.32490598 309.19128815,587.32490598 309.19128815,587.32490598 C309.19128815,587.32490598 306.2601141044127,590.3502738633999 306.2601141044127,590.3502738633999 Z" fill="#000000"/></clipPath></defs><g>
<g>
	<g>
		<g transform="matrix(1,0,0,1,-36,-36)">
			<path d="M36,66 C36,49.44645666662956 49.44645666662956,36 66,36 L750,36 C766.5535433333705,36 780,49.44645666662956 780,66 L780,1044 C780,1060.5535433333705 766.5535433333705,1074 750,1074 L66,1074 C49.44645666662956,1074 36,1060.5535433333705 36,1044 L36,66 Z" fill="#000000"/>
			<path d="M36,66 C36,49.44645666662956 49.44645666662956,36 66,36 L750,36 C766.5535433333705,36 780,49.44645666662956 780,66 L780,1044 C780,1060.5535433333705 766.5535433333705,1074 750,1074 L66,1074 C49.44645666662956,1074 36,1060.5535433333705 36,1044 L36,66 Z" clip-path="url(#alignment-12105472070728119132)" fill="none" stroke="#130e0a" stroke-width="4"/>
		</g>
		<g transform="matrix(1,0,0,1,-36,-36)">
			<g>
				<path d="M63.00000000015581,73.0897347965248 C63.00000000015581,67.67564627335815 67.36819919976512,63.27777777777766 72.74576271201585,63.27777777777766 L743.2542372879839,63.27777777777766 C748.6318008002345,63.27777777777766 752.9999999998438,67.67564627335815 752.9999999998438,73.0897347965248 L752.9999999998438,1036.6239140374942 C752.9999999998438,1042.0380025606607 748.6318008002345,1046.4358710562412 743.2542372879839,1046.4358710562412 L72.74576271201585,1046.4358710562412 C67.36819919976512,1046.4358710562412 63.00000000015581,1042.0380025606607 63.00000000015581,1036.6239140374942 L63.00000000015581,73.0897347965248 Z" fill="url('#5192405299520892133')"/>
			</g>
			<g>
				<path d="M81,90.85682441700942 C81,85.33897663921925 85.48215222220983,80.85682441700942 91,80.85682441700942 L725,80.85682441700942 C730.5178477777902,80.85682441700942 735,85.33897663921925 735,90.85682441700942 L735,1018.8568244170094 C735,1024.3746721947996 730.5178477777902,1028.8568244170094 725,1028.8568244170094 L91,1028.8568244170094 C85.48215222220983,1028.8568244170094 81,1024.3746721947996 81,1018.8568244170094 L81,90.85682441700942 Z" fill="url('#11112970386949785275')"/>
				<path d="M81,90.85682441700942 C81,85.33897663921925 85.48215222220983,80.85682441700942 91,80.85682441700942 L725,80.85682441700942 C730.5178477777902,80.85682441700942 735,85.33897663921925 735,90.85682441700942 L735,1018.8568244170094 C735,1024.3746721947996 730.5178477777902,1028.8568244170094 725,1028.8568244170094 L91,1028.8568244170094 C85.48215222220983,1028.8568244170094 81,1024.3746721947996 81,1018.8568244170094 L81,90.85682441700942 Z" clip-path="url(#alignment-16801832056005650407)" fill="none" stroke="#130e0a" stroke-width="4"/>
			</g>
		</g>
	</g>
	<g>
		<g transform="matrix(1,0,0,1,0.00000001,-54.246522593)">
			<path d="M373.29386636677464,122.12398335630161 C373.29386636677464,122.12398335630161 677.0482447121124,203.40173263253632 677.0482447121124,203.40173263253632 C677.0482447121124,203.40173263253632 679.0482447121125,490.31951338452757 679.0482447121125,490.31951338452757 C679.0482447121125,490.31951338452757 373.29386636677464,572.5972626607622 373.29386636677464,572.5972626607622 C373.29386636677464,572.5972626607622 67.53948802143685,490.3195133845276 67.53948802143685,490.3195133845276 C67.53948802143685,490.3195133845276 67.53948802143668,204.40173263253644 67.53948802143668,204.40173263253644 C67.53948802143668,204.40173263253644 373.29386636677464,122.12398335630161 373.29386636677464,122.12398335630161 Z" transform="matrix(1,0,0,1,0,0)" fill="url('#13727861937147251745')" stroke="#303342" stroke-width="2"/>
		</g>
		<g transform="matrix(1,0,0,1,0.00000001,-54.246522593)">
			<path d="M299.26557650735936,613.6388491979005 C299.26557650735936,613.6388491979005 309.19128815,623.88352548 309.19128815,623.88352548 C309.19128815,623.88352548 337.26807727550386,623.88352548 337.26807727550386,623.88352548 C337.26807727550386,623.8835254800001 371.99999999,633.24652259 371.99999999,633.24652259 C371.99999999,633.24652259 406.7319227044961,623.88352548 406.7319227044961,623.88352548 C406.73192270449607,623.88352548 436.92263686,623.88352548 436.92263686,623.88352548 C436.92263686,623.88352548 447.4203312375054,612.914784859543 447.4203312375054,612.914784859543 C447.4203312375054,612.9147848595429 699,545.09418849 699,545.09418849 C699,545.09418849 699,228.78952026000002 699,228.78952026000002 C699,228.78952026000002 371.99999999,140.63718614 371.99999999,140.63718614 C371.99999999,140.63718614 44.99999998,228.78952026000002 44.99999998,228.78952026000002 C44.99999998,228.78952026000002 44.99999998,545.09418849 44.99999998,545.09418849 C44.99999998,545.09418849 299.2655765073594,613.6388491979005 299.26557650735936,613.6388491979005 ZM306.2601141044127,590.3502738633999 C306.2601141044127,590.3502738633999 70.90244997,527.01610678 70.90244997,527.01610678 C70.90244997,527.01610678 70.90244997,244.07424938 70.90244997,244.07424938 C70.90244997,244.07424938 373.47443934,162.65287313000002 373.47443934,162.65287313000002 C373.47443934,162.65287313000002 674.06724536,243.0846577 674.06724536,243.0846577 C674.06724536,243.0846577 676.04642874,527.01610678 676.04642874,527.01610678 C676.04642874,527.01610678 439.9963956544324,590.5365886346431 439.9963956544324,590.5365886346431 C439.99639565443243,590.5365886346431 436.92263686,587.32490598 436.92263686,587.32490598 C436.92263686,587.32490598 309.19128815,587.32490598 309.19128815,587.32490598 C309.19128815,587.32490598 306.2601141044127,590.3502738633999 306.2601141044127,590.3502738633999 Z" transform="matrix(1,0,0,1,0,-40)" fill="url('#8788156383558286654')"/>
			<path d="M299.26557650735936,613.6388491979005 C299.26557650735936,613.6388491979005 309.19128815,623.88352548 309.19128815,623.88352548 C309.19128815,623.88352548 337.26807727550386,623.88352548 337.26807727550386,623.88352548 C337.26807727550386,623.8835254800001 371.99999999,633.24652259 371.99999999,633.24652259 C371.99999999,633.24652259 406.7319227044961,623.88352548 406.7319227044961,623.88352548 C406.73192270449607,623.88352548 436.92263686,623.88352548 436.92263686,623.88352548 C436.92263686,623.88352548 447.4203312375054,612.914784859543 447.4203312375054,612.914784859543 C447.4203312375054,612.9147848595429 699,545.09418849 699,545.09418849 C699,545.09418849 699,228.78952026000002 699,228.78952026000002 C699,228.78952026000002 371.99999999,140.63718614 371.99999999,140.63718614 C371.99999999,140.63718614 44.99999998,228.78952026000002 44.99999998,228.78952026000002 C44.99999998,228.78952026000002 44.99999998,545.09418849 44.99999998,545.09418849 C44.99999998,545.09418849 299.2655765073594,613.6388491979005 299.26557650735936,613.6388491979005 ZM306.2601141044127,590.3502738633999 C306.2601141044127,590.3502738633999 70.90244997,527.01610678 70.90244997,527.01610678 C70.90244997,527.01610678 70.90244997,244.07424938 70.90244997,244.07424938 C70.90244997,244.07424938 373.47443934,162.65287313000002 373.47443934,162.65287313000002 C373.47443934,162.65287313000002 674.06724536,243.0846577 674.06724536,243.0846577 C674.06724536,243.0846577 676.04642874,527.01610678 676.04642874,527.01610678 C676.04642874,527.01610678 439.9963956544324,590.5365886346431 439.9963956544324,590.5365886346431 C439.99639565443243,590.5365886346431 436.92263686,587.32490598 436.92263686,587.32490598 C436.92263686,587.32490598 309.19128815,587.32490598 309.19128815,587.32490598 C309.19128815,587.32490598 306.2601141044127,590.3502738633999 306.2601141044127,590.3502738633999 Z" transform="matrix(1,0,0,1,0,-40)" clip-path="url(#alignment-9869590425152439500)" fill="none" stroke="#6f3a08" stroke-width="8"/>
		</g>
	</g>
	<g mask="url(#mask-4530241231917485524)"/>
</g></g></svg>