<svg xmlns="http://www.w3.org/2000/svg" xmlns:graphite="https://graphite.art" viewBox="0 0 744 1038" width="744" height="1038"><defs><clipPath id="alignment-4866225253217174091">
<path d="M35.99999999999886,65.99999999999977 C35.99999999999886,49.44645666662933 49.44645666662842,35.99999999999977 65.99999999999886,35.99999999999977 L749.9999999999989,35.99999999999977 C766.5535433333694,35.99999999999977 779.9999999999989,49.44645666662933 779.9999999999989,65.99999999999977 L779.9999999999989,1043.9999999999998 C779.9999999999989,1060.5535433333703 766.5535433333694,1073.9999999999998 749.9999999999989,1073.9999999999998 L65.99999999999886,1073.9999999999998 C49.44645666662842,1073.9999999999998 35.99999999999886,1060.5535433333703 35.99999999999886,1043.9999999999998 L35.99999999999886,65.99999999999977 Z" fill="#000000"/></clipPath><radialGradient id="5911374363818154639" cx="624.090192399294" cy="778.5663998327576" r="571.4217894233807" gradientTransform="matrix(0.00148368,0,0,0.001059322,-0.105341246,-0.075211864)"><stop stop-color="#5f7470" /><stop offset="1" stop-color="#889696" /></radialGradient><radialGradient id="6630189901215644383" cx="361.32148313650004" cy="468.33012187948003" r="656.5233719072268" gradientTransform="matrix(0.001567398,0,0,0.001101322,-0.139498433,-0.098017621)"><stop stop-color="#f1e9d2" /><stop offset="0.197226" stop-color="#e4d6bc" /><stop offset="1" stop-color="#ae8964" /></radialGradient><clipPath id="alignment-4962817096565947943">
<path d="M88.99999999999994,98.99999999999989 C88.99999999999994,93.48215222220972 93.48215222220978,88.99999999999989 98.99999999999994,88.99999999999989 L717,88.99999999999989 C722.5178477777902,88.99999999999989 727,93.48215222220972 727,98.99999999999989 L727,987.0000000000001 C727,992.5178477777903 722.5178477777902,997.0000000000001 717,997.0000000000001 L98.99999999999994,997.0000000000001 C93.48215222220978,997.0000000000001 88.99999999999994,992.5178477777903 88.99999999999994,987.0000000000001 L88.99999999999994,98.99999999999989 Z" fill="#000000"/></clipPath><linearGradient id="10438945636368745633" x1="647.0678893861227" y1="766.4512888968745" x2="781.3304201708818" y2="623.3845725387256" gradientTransform="matrix(0.05,0,0,0.002575594,-36.25,-1.377942616)"><stop offset="0.004645" stop-color="#525a62" /><stop offset="1" stop-color="#6b7580" /></linearGradient><linearGradient id="9005450694088417690" x1="74.29310971722863" y1="828.0800576210502" x2="-19.25060633740773" y2="646.4953342958207" gradientTransform="matrix(0.05,0,0,0.002575594,-3.55,-1.377942616)"><stop stop-color="#525a62" /><stop offset="0.996311" stop-color="#6b7580" /></linearGradient><radialGradient id="16918795254676930904" cx="382.1403638272165" cy="967.4607768415748" r="136.74189637495874" gradientTransform="matrix(0.002104452,0,0,0.028864672,-0.358619732,-28.297641943)"><stop stop-color="#6b7580" /><stop offset="0.99235" stop-color="#525a62" /></radialGradient><linearGradient id="16892320751423035556" x1="683.2589616313783" y1="813.9904743141188" x2="771.9226755128655" y2="535.9459244303209" gradientTransform="matrix(0.05,0,0,0.002575594,-36.25,-1.377942616)"><stop stop-color="#63061a" /><stop offset="1" stop-color="#c4213b" /></linearGradient><linearGradient id="17447614053039207382" x1="169.13354685160488" y1="886.8424684392071" x2="-48.24360041716666" y2="517.2225444562504" gradientTransform="matrix(0.05,0,0,0.002575594,-3.55,-1.377942616)"><stop stop-color="#63061a" /><stop offset="1" stop-color="#c4213b" /></linearGradient><radialGradient id="12246428720648529654" cx="407.900996196747" cy="1037.6942260174956" r="412.9751282390595" gradientTransform="matrix(0.002104452,0,0,0.028864672,-0.358619732,-28.297641943)"><stop offset="0.00765" stop-color="#63061a" /><stop offset="1" stop-color="#c4213b" /></radialGradient><mask id="mask-14551119159175046511" mask-type="alpha">
<g>
	<g transform="matrix(1,0,0,1,-36,-36)">
		<path d="M745.0000000000023,534.9999999999907 L745.0000000000023,901.9999999999874 C745.0000000000023,901.9999999999874 725.0000000000023,923.2599999999875 725.0000000000023,923.2599999999875 C725.0000000000023,923.2599999999875 724.9999999999973,559.2599999999875 724.9999999999973,559.2599999999875 L745.0000000000023,534.9999999999907 Z" fill="url('#10438945636368745633')"/>
	</g>
	<g transform="matrix(1,0,0,1,-36,-36)">
		<path d="M71.0000000000017,535.0000000000002 C71.0000000000017,535.0000000000002 71.00000000000182,902.0000000000002 71.00000000000182,902.0000000000002 C71.00000000000182,902.0000000000002 91.00000000000176,923.2599999999998 91.00000000000176,923.2599999999998 C91.00000000000176,923.2599999999998 91.00000000000165,558.2645864108044 91.00000000000165,558.2645864108044 L71.0000000000017,535.0000000000002 Z" fill="url('#9005450694088417690')"/>
	</g>
	<g transform="matrix(1,0,0,1,-36,-36)">
		<path d="M370.98946465,980.3555736000001 C370.98946465,980.3555736000001 445.01053535,980.3555736000001 445.01053535,980.3555736000001 C445.01053535,980.3555736000001 453.15812859,990.76040485 456.51378743000004,995.04572727 C456.51378743000004,995.04572727 645.593,995.04572727 645.593,995.04572727 C645.593,995.04572727 630.35,1015 630.35,1015 C630.35,1015 185.29,1015 185.29,1015 C185.29,1015 170.41,995.04572727 170.41,995.04572727 C170.41,995.04572727 359.34426622,995.04572727 359.34426622,995.04572727 C362.74133279,990.76040485 370.98946465,980.3555736000001 370.98946465,980.3555736000001 Z" fill="url('#16918795254676930904')"/>
	</g>
</g>
<g>
	<g transform="matrix(1,0,0,1,-36,-36)">
		<path d="M745.0000000000023,535.0000000000031 L745.0000000000023,901.9999999999998 C745.0000000000023,901.9999999999998 725.0000000000023,923.2599999999998 725.0000000000023,923.2599999999998 C725.0000000000023,923.2599999999998 724.9999999999973,559.2599999999999 724.9999999999973,559.2599999999999 L745.0000000000023,535.0000000000031 Z" fill="url('#16892320751423035556')"/>
	</g>
	<g transform="matrix(1,0,0,1,-36,-36)">
		<path d="M71.0000000000017,535.0000000000002 C71.0000000000017,535.0000000000002 71.00000000000182,902.0000000000002 71.00000000000182,902.0000000000002 C71.00000000000182,902.0000000000002 91.00000000000176,923.2599999999998 91.00000000000176,923.2599999999998 C91.00000000000176,923.2599999999998 91.00000000000165,558.2645864108044 91.00000000000165,558.2645864108044 L71.0000000000017,535.0000000000002 Z" fill="url('#17447614053039207382')"/>
	</g>
	<g transform="matrix(1,0,0,1,-36,-36)">
		<path d="M370.98946465,980.3555736000001 C370.98946465,980.3555736000001 445.01053535,980.3555736000001 445.01053535,980.3555736000001 C445.01053535,980.3555736000001 453.15812859,990.76040485 456.51378743000004,995.04572727 C456.51378743000004,995.04572727 645.593,995.04572727 645.593,995.04572727 C645.593,995.04572727 630.35,1015 630.35,1015 C630.35,1015 185.29,1015 185.29,1015 C185.29,1015 170.41,995.04572727 170.41,995.04572727 C170.41,995.04572727 359.34426622,995.04572727 359.34426622,995.04572727 C362.74133279,990.76040485 370.98946465,980.3555736000001 370.98946465,980.3555736000001 Z" fill="url('#12246428720648529654')"/>
	</g>
	<g transform="matrix(1,0,0,1,-36,-36)">
		<g transform="matrix(0.071515499,0,0,0.071515499,400.818993321,957.41690705)">
			<g>
				<g>
					<g>
						<g>
							<g>
								<path d="M0.8525763398123445,634.5243765754271 C0.8525763398123445,634.5243765754271 158.06577503633903,477.16708340226705 158.06577503633903,477.16708340226705 C158.06577503633903,477.16708340226705 230.23724724117884,446.3223526528427 230.23724724117884,446.3223526528427 C230.23724724117884,446.3223526528427 200.78833735414506,516.9836357978493 200.78833735414506,516.9836357978493 C200.78833735414506,516.9836357978493 35.85332828014717,662.8508135263501 35.85332828014717,662.8508135263501 C35.85332828014717,662.8508135263501 88.58659298760077,720.535708283227 88.58659298760077,720.535708283227 C88.58659298760077,720.535708283227 46.892496108306574,718.7703163524166 46.892496108306574,718.7703163524166 C46.892496108306574,718.7703163524166 -54.98436462237041,613.1838609764336 -54.98436462237041,613.1838609764336 C-54.98436462237041,613.1838609764336 -47.734377700892395,576.5779515773111 -47.734377700892395,576.5779515773111 C-47.734377700892395,576.5779515773111 0.8525763398123445,634.5243765754271 0.8525763398123445,634.5243765754271 C0.8525763398123445,634.5243765754271 0.8525763398123445,634.5243765754271 0.8525763398123445,634.5243765754271 Z" fill="#e1424f"/>
							</g>
						</g>
					</g>
					<g>
						<g>
							<g>
								<path d="M-36.91942407267183,664.0383068997769 C-36.91942407267183,664.0383068997769 -77.84191458587597,720.6152677522966 -77.84191458587597,720.6152677522966 C-77.84191458587597,720.6152677522966 -116.78703603999438,729.7032121413406 -116.78703603999438,729.7032121413406 C-116.78703603999438,729.7032121413406 -118.20737837461397,773.2995961853958 -117.06241198020629,773.4139215467694 C-115.91744558579862,773.528246908143 -72.94437565254552,774.260423911445 -72.94437565254552,774.260423911445 C-72.94437565254552,774.260423911445 -63.15631015222138,739.68070653264 -63.15631015222138,739.68070653264 C-63.15631015222138,739.68070653264 -2.729777870709171,698.0228494551885 -2.729777870709171,698.0228494551885 C-2.729777870709171,698.0228494551885 -36.91942407267183,664.0383068997769 -36.91942407267183,664.0383068997769 C-36.91942407267183,664.0383068997769 -36.91942407267183,664.0383068997769 -36.91942407267183,664.0383068997769 Z" fill="#e1424f"/>
							</g>
						</g>
					</g>
				</g>
				<g>
					<g>
						<path d="M279.70611368608826,394.62432663526033 C279.70611368608826,394.62432663526033 188.0394571919477,588.1308116206119 188.0394571919477,588.1308116206119 C188.0394571919477,588.1308116206119 222.17364298296332,575.7931651362369 222.17364298296332,575.7931651362369 C222.17364298296332,575.7931651362369 217.23858438921332,672.8494395502994 217.23858438921332,672.8494395502994 C217.23858438921332,672.8494395502994 331.58923136186957,342.69793503369783 331.58923136186957,342.69793503369783 C331.58923136186957,342.69793503369783 3.7970255513226903,461.8753947504947 3.7970255513226903,461.8753947504947 C3.7970255513226903,461.8753947504947 104.55462442827582,458.17413132276033 104.55462442827582,458.17413132276033 C104.55462442827582,458.17413132276033 88.06109415483832,488.80181686963533 88.06109415483832,488.80181686963533 C88.06109415483832,488.80181686963533 279.70611368608826,394.62432663526033 279.70611368608826,394.62432663526033 C279.70611368608826,394.62432663526033 279.70611368608826,394.62432663526033 279.70611368608826,394.62432663526033 Z" fill="#e1424f"/>
					</g>
				</g>
				<g>
					<g>
						<g>
							<path d="M120.26885782671332,385.3602580317447 C120.26885782671332,385.3602580317447 246.93554483843207,343.82347672070955 246.93554483843207,343.82347672070955 C246.93554483843207,343.82347672070955 36.78402506304144,346.7022532710025 36.78402506304144,346.7022532710025 C36.78402506304144,346.7022532710025 120.26885782671332,385.3602580317447 120.26885782671332,385.3602580317447 C120.26885782671332,385.3602580317447 120.26885782671332,385.3602580317447 120.26885782671332,385.3602580317447 Z" fill="#e1424f"/>
						</g>
					</g>
				</g>
				<g>
					<g>
						<g>
							<path d="M329.6511286397016,642.0471629389713 C329.6511286397016,642.0471629389713 333.7125300068891,427.5956987627933 333.7125300068891,427.5956987627933 C333.7125300068891,427.5956987627933 292.3682917256391,553.955678869147 292.3682917256391,553.955678869147 C292.3682917256391,553.955678869147 329.6511286397016,642.0471629389713 329.6511286397016,642.0471629389713 C329.6511286397016,642.0471629389713 329.6511286397016,642.0471629389713 329.6511286397016,642.0471629389713 Z" fill="#e1424f"/>
						</g>
					</g>
				</g>
				<g>
					<g>
						<g>
							<path d="M176.5459269185102,646.2044352778385 C176.5459269185102,646.2044352778385 160.3121622700727,621.4208735712955 160.3121622700727,621.4208735712955 C160.3121622700727,621.4208735712955 135.1822794575727,689.5377711543033 135.1822794575727,689.5377711543033 C135.1822794575727,689.5377711543033 176.5459269185102,646.2044352778385 176.5459269185102,646.2044352778385 C176.5459269185102,646.2044352778385 176.5459269185102,646.2044352778385 176.5459269185102,646.2044352778385 Z" fill="#e1424f"/>
						</g>
					</g>
				</g>
				<g>
					<g>
						<g>
							<path d="M54.844419350150815,515.2125872858951 C54.844419350150815,515.2125872858951 27.792661537650815,500.2994593867252 27.792661537650815,500.2994593867252 C27.792661537650815,500.2994593867252 -13.651918540474185,545.2122401484439 -13.651918540474185,545.2122401484439 C-13.651918540474185,545.2122401484439 54.844419350150815,515.2125872858951 54.844419350150815,515.2125872858951 C54.844419350150815,515.2125872858951 54.844419350150815,515.2125872858951 54.844419350150815,515.2125872858951 Z" fill="#e1424f"/>
						</g>
					</g>
				</g>
			</g>
		</g>
	</g>
</g></mask><linearGradient id="4985583673914047685" x1="647.0678893861227" y1="766.4512888968745" x2="781.3304201708818" y2="623.3845725387256" gradientTransform="matrix(0.05,0,0,0.002575594,-36.25,-1.377942616)"><stop offset="0.004645" stop-color="#525a62" /><stop offset="1" stop-color="#6b7580" /></linearGradient><linearGradient id="1950413724823876425" x1="74.29310971722863" y1="828.0800576210502" x2="-19.25060633740773" y2="646.4953342958207" gradientTransform="matrix(0.05,0,0,0.002575594,-3.55,-1.377942616)"><stop stop-color="#525a62" /><stop offset="0.996311" stop-color="#6b7580" /></linearGradient><radialGradient id="6775970991263163115" cx="382.1403638272165" cy="967.4607768415748" r="136.74189637495874" gradientTransform="matrix(0.002104452,0,0,0.028864672,-0.358619732,-28.297641943)"><stop stop-color="#6b7580" /><stop offset="0.99235" stop-color="#525a62" /></radialGradient><linearGradient id="6322679324713229776" x1="683.2589616313783" y1="813.9904743141188" x2="771.9226755128655" y2="535.9459244303209" gradientTransform="matrix(0.05,0,0,0.002575594,-36.25,-1.377942616)"><stop stop-color="#63061a" /><stop offset="1" stop-color="#c4213b" /></linearGradient><linearGradient id="18101638455478030892" x1="169.13354685160488" y1="886.8424684392071" x2="-48.24360041716666" y2="517.2225444562504" gradientTransform="matrix(0.05,0,0,0.002575594,-3.55,-1.377942616)"><stop stop-color="#63061a" /><stop offset="1" stop-color="#c4213b" /></linearGradient><radialGradient id="9561484342304252089" cx="407.900996196747" cy="1037.6942260174956" r="412.9751282390595" gradientTransform="matrix(0.002104452,0,0,0.028864672,-0.358619732,-28.297641943)"><stop offset="0.00765" stop-color="#63061a" /><stop offset="1" stop-color="#c4213b" /></radialGradient></defs><g>
<rect fill="#ffffff" fill-opacity="0" x="0" y="0" width="744" height="1038"/>
<g>
	<g>
		<g transform="matrix(1,0,0,1,-36,-36)">
			<path d="M35.99999999999886,65.99999999999977 C35.99999999999886,49.44645666662933 49.44645666662842,35.99999999999977 65.99999999999886,35.99999999999977 L749.9999999999989,35.99999999999977 C766.5535433333694,35.99999999999977 779.9999999999989,49.44645666662933 779.9999999999989,65.99999999999977 L779.9999999999989,1043.9999999999998 C779.9999999999989,1060.5535433333703 766.5535433333694,1073.9999999999998 749.9999999999989,1073.9999999999998 L65.99999999999886,1073.9999999999998 C49.44645666662842,1073.9999999999998 35.99999999999886,1060.5535433333703 35.99999999999886,1043.9999999999998 L35.99999999999886,65.99999999999977 Z" fill="#000000"/>
			<path d="M35.99999999999886,65.99999999999977 C35.99999999999886,49.44645666662933 49.44645666662842,35.99999999999977 65.99999999999886,35.99999999999977 L749.9999999999989,35.99999999999977 C766.5535433333694,35.99999999999977 779.9999999999989,49.44645666662933 779.9999999999989,65.99999999999977 L779.9999999999989,1043.9999999999998 C779.9999999999989,1060.5535433333703 766.5535433333694,1073.9999999999998 749.9999999999989,1073.9999999999998 L65.99999999999886,1073.9999999999998 C49.44645666662842,1073.9999999999998 35.99999999999886,1060.5535433333703 35.99999999999886,1043.9999999999998 L35.99999999999886,65.99999999999977 Z" clip-path="url(#alignment-4866225253217174091)" fill="none" stroke="#000000" stroke-width="4"/>
		</g>
		<g transform="matrix(1,0,0,1,-36,-36)">
			<path d="M70.99999999999994,80.99999999999989 C70.99999999999994,75.48215222220972 75.48215222220978,70.99999999999989 80.99999999999994,70.99999999999989 L735,70.99999999999989 C740.5178477777902,70.99999999999989 745,75.48215222220972 745,80.99999999999989 L745,1005.0000000000001 C745,1010.5178477777903 740.5178477777902,1015.0000000000001 735,1015.0000000000001 L80.99999999999994,1015.0000000000001 C75.48215222220978,1015.0000000000001 70.99999999999994,1010.5178477777903 70.99999999999994,1005.0000000000001 L70.99999999999994,80.99999999999989 Z" fill="url('#5911374363818154639')"/>
		</g>
		<g transform="matrix(1,0,0,1,-36,-36)">
			<path d="M88.99999999999994,98.99999999999989 C88.99999999999994,93.48215222220972 93.48215222220978,88.99999999999989 98.99999999999994,88.99999999999989 L717,88.99999999999989 C722.5178477777902,88.99999999999989 727,93.48215222220972 727,98.99999999999989 L727,987.0000000000001 C727,992.5178477777903 722.5178477777902,997.0000000000001 717,997.0000000000001 L98.99999999999994,997.0000000000001 C93.48215222220978,997.0000000000001 88.99999999999994,992.5178477777903 88.99999999999994,987.0000000000001 L88.99999999999994,98.99999999999989 Z" fill="url('#6630189901215644383')"/>
			<path d="M88.99999999999994,98.99999999999989 C88.99999999999994,93.48215222220972 93.48215222220978,88.99999999999989 98.99999999999994,88.99999999999989 L717,88.99999999999989 C722.5178477777902,88.99999999999989 727,93.48215222220972 727,98.99999999999989 L727,987.0000000000001 C727,992.5178477777903 722.5178477777902,997.0000000000001 717,997.0000000000001 L98.99999999999994,997.0000000000001 C93.48215222220978,997.0000000000001 88.99999999999994,992.5178477777903 88.99999999999994,987.0000000000001 L88.99999999999994,98.99999999999989 Z" clip-path="url(#alignment-4962817096565947943)" fill="none" stroke="#000000" stroke-width="4"/>
		</g>
	</g>
	<g>
		<g>
			<g transform="matrix(1,0,0,1,-36,-36)">
				<path d="M745.0000000000023,534.9999999999907 L745.0000000000023,901.9999999999874 C745.0000000000023,901.9999999999874 725.0000000000023,923.2599999999875 725.0000000000023,923.2599999999875 C725.0000000000023,923.2599999999875 724.9999999999973,559.2599999999875 724.9999999999973,559.2599999999875 L745.0000000000023,534.9999999999907 Z" fill="url('#4985583673914047685')"/>
			</g>
			<g transform="matrix(1,0,0,1,-36,-36)">
				<path d="M71.0000000000017,535.0000000000002 C71.0000000000017,535.0000000000002 71.00000000000182,902.0000000000002 71.00000000000182,902.0000000000002 C71.00000000000182,902.0000000000002 91.00000000000176,923.2599999999998 91.00000000000176,923.2599999999998 C91.00000000000176,923.2599999999998 91.00000000000165,558.2645864108044 91.00000000000165,558.2645864108044 L71.0000000000017,535.0000000000002 Z" fill="url('#1950413724823876425')"/>
			</g>
			<g transform="matrix(1,0,0,1,-36,-36)">
				<path d="M370.98946465,980.3555736000001 C370.98946465,980.3555736000001 445.01053535,980.3555736000001 445.01053535,980.3555736000001 C445.01053535,980.3555736000001 453.15812859,990.76040485 456.51378743000004,995.04572727 C456.51378743000004,995.04572727 645.593,995.04572727 645.593,995.04572727 C645.593,995.04572727 630.35,1015 630.35,1015 C630.35,1015 185.29,1015 185.29,1015 C185.29,1015 170.41,995.04572727 170.41,995.04572727 C170.41,995.04572727 359.34426622,995.04572727 359.34426622,995.04572727 C362.74133279,990.76040485 370.98946465,980.3555736000001 370.98946465,980.3555736000001 Z" fill="url('#6775970991263163115')"/>
			</g>
		</g>
		<g>
			<g transform="matrix(1,0,0,1,-36,-36)">
				<path d="M745.0000000000023,535.0000000000031 L745.0000000000023,901.9999999999998 C745.0000000000023,901.9999999999998 725.0000000000023,923.2599999999998 725.0000000000023,923.2599999999998 C725.0000000000023,923.2599999999998 724.9999999999973,559.2599999999999 724.9999999999973,559.2599999999999 L745.0000000000023,535.0000000000031 Z" fill="url('#6322679324713229776')"/>
			</g>
			<g transform="matrix(1,0,0,1,-36,-36)">
				<path d="M71.0000000000017,535.0000000000002 C71.0000000000017,535.0000000000002 71.00000000000182,902.0000000000002 71.00000000000182,902.0000000000002 C71.00000000000182,902.0000000000002 91.00000000000176,923.2599999999998 91.00000000000176,923.2599999999998 C91.00000000000176,923.2599999999998 91.00000000000165,558.2645864108044 91.00000000000165,558.2645864108044 L71.0000000000017,535.0000000000002 Z" fill="url('#18101638455478030892')"/>
			</g>
			<g transform="matrix(1,0,0,1,-36,-36)">
				<path d="M370.98946465,980.3555736000001 C370.98946465,980.3555736000001 445.01053535,980.3555736000001 445.01053535,980.3555736000001 C445.01053535,980.3555736000001 453.15812859,990.76040485 456.51378743000004,995.04572727 C456.51378743000004,995.04572727 645.593,995.04572727 645.593,995.04572727 C645.593,995.04572727 630.35,1015 630.35,1015 C630.35,1015 185.29,1015 185.29,1015 C185.29,1015 170.41,995.04572727 170.41,995.04572727 C170.41,995.04572727 359.34426622,995.04572727 359.34426622,995.04572727 C362.74133279,990.76040485 370.98946465,980.3555736000001 370.98946465,980.3555736000001 Z" fill="url('#9561484342304252089')"/>
			</g>
			<g transform="matrix(1,0,0,1,-36,-36)">
				<g transform="matrix(0.071515499,0,0,0.071515499,400.818993321,957.41690705)">
					<g>
						<g>
							<g>
								<g>
									<g>
										<path d="M0.8525763398123445,634.5243765754271 C0.8525763398123445,634.5243765754271 158.06577503633903,477.16708340226705 158.06577503633903,477.16708340226705 C158.06577503633903,477.16708340226705 230.23724724117884,446.3223526528427 230.23724724117884,446.3223526528427 C230.23724724117884,446.3223526528427 200.78833735414506,516.9836357978493 200.78833735414506,516.9836357978493 C200.78833735414506,516.9836357978493 35.85332828014717,662.8508135263501 35.85332828014717,662.8508135263501 C35.85332828014717,662.8508135263501 88.58659298760077,720.535708283227 88.58659298760077,720.535708283227 C88.58659298760077,720.535708283227 46.892496108306574,718.7703163524166 46.892496108306574,718.7703163524166 C46.892496108306574,718.7703163524166 -54.98436462237041,613.1838609764336 -54.98436462237041,613.1838609764336 C-54.98436462237041,613.1838609764336 -47.734377700892395,576.5779515773111 -47.734377700892395,576.5779515773111 C-47.734377700892395,576.5779515773111 0.8525763398123445,634.5243765754271 0.8525763398123445,634.5243765754271 C0.8525763398123445,634.5243765754271 0.8525763398123445,634.5243765754271 0.8525763398123445,634.5243765754271 Z" fill="#e1424f"/>
									</g>
								</g>
							</g>
							<g>
								<g>
									<g>
										<path d="M-36.91942407267183,664.0383068997769 C-36.91942407267183,664.0383068997769 -77.84191458587597,720.6152677522966 -77.84191458587597,720.6152677522966 C-77.84191458587597,720.6152677522966 -116.78703603999438,729.7032121413406 -116.78703603999438,729.7032121413406 C-116.78703603999438,729.7032121413406 -118.20737837461397,773.2995961853958 -117.06241198020629,773.4139215467694 C-115.91744558579862,773.528246908143 -72.94437565254552,774.260423911445 -72.94437565254552,774.260423911445 C-72.94437565254552,774.260423911445 -63.15631015222138,739.68070653264 -63.15631015222138,739.68070653264 C-63.15631015222138,739.68070653264 -2.729777870709171,698.0228494551885 -2.729777870709171,698.0228494551885 C-2.729777870709171,698.0228494551885 -36.91942407267183,664.0383068997769 -36.91942407267183,664.0383068997769 C-36.91942407267183,664.0383068997769 -36.91942407267183,664.0383068997769 -36.91942407267183,664.0383068997769 Z" fill="#e1424f"/>
									</g>
								</g>
							</g>
						</g>
						<g>
							<g>
								<path d="M279.70611368608826,394.62432663526033 C279.70611368608826,394.62432663526033 188.0394571919477,588.1308116206119 188.0394571919477,588.1308116206119 C188.0394571919477,588.1308116206119 222.17364298296332,575.7931651362369 222.17364298296332,575.7931651362369 C222.17364298296332,575.7931651362369 217.23858438921332,672.8494395502994 217.23858438921332,672.8494395502994 C217.23858438921332,672.8494395502994 331.58923136186957,342.69793503369783 331.58923136186957,342.69793503369783 C331.58923136186957,342.69793503369783 3.7970255513226903,461.8753947504947 3.7970255513226903,461.8753947504947 C3.7970255513226903,461.8753947504947 104.55462442827582,458.17413132276033 104.55462442827582,458.17413132276033 C104.55462442827582,458.17413132276033 88.06109415483832,488.80181686963533 88.06109415483832,488.80181686963533 C88.06109415483832,488.80181686963533 279.70611368608826,394.62432663526033 279.70611368608826,394.62432663526033 C279.70611368608826,394.62432663526033 279.70611368608826,394.62432663526033 279.70611368608826,394.62432663526033 Z" fill="#e1424f"/>
							</g>
						</g>
						<g>
							<g>
								<g>
									<path d="M120.26885782671332,385.3602580317447 C120.26885782671332,385.3602580317447 246.93554483843207,343.82347672070955 246.93554483843207,343.82347672070955 C246.93554483843207,343.82347672070955 36.78402506304144,346.7022532710025 36.78402506304144,346.7022532710025 C36.78402506304144,346.7022532710025 120.26885782671332,385.3602580317447 120.26885782671332,385.3602580317447 C120.26885782671332,385.3602580317447 120.26885782671332,385.3602580317447 120.26885782671332,385.3602580317447 Z" fill="#e1424f"/>
								</g>
							</g>
						</g>
						<g>
							<g>
								<g>
									<path d="M329.6511286397016,642.0471629389713 C329.6511286397016,642.0471629389713 333.7125300068891,427.5956987627933 333.7125300068891,427.5956987627933 C333.7125300068891,427.5956987627933 292.3682917256391,553.955678869147 292.3682917256391,553.955678869147 C292.3682917256391,553.955678869147 329.6511286397016,642.0471629389713 329.6511286397016,642.0471629389713 C329.6511286397016,642.0471629389713 329.6511286397016,642.0471629389713 329.6511286397016,642.0471629389713 Z" fill="#e1424f"/>
								</g>
							</g>
						</g>
						<g>
							<g>
								<g>
									<path d="M176.5459269185102,646.2044352778385 C176.5459269185102,646.2044352778385 160.3121622700727,621.4208735712955 160.3121622700727,621.4208735712955 C160.3121622700727,621.4208735712955 135.1822794575727,689.5377711543033 135.1822794575727,689.5377711543033 C135.1822794575727,689.5377711543033 176.5459269185102,646.2044352778385 176.5459269185102,646.2044352778385 C176.5459269185102,646.2044352778385 176.5459269185102,646.2044352778385 176.5459269185102,646.2044352778385 Z" fill="#e1424f"/>
								</g>
							</g>
						</g>
						<g>
							<g>
								<g>
									<path d="M54.844419350150815,515.2125872858951 C54.844419350150815,515.2125872858951 27.792661537650815,500.2994593867252 27.792661537650815,500.2994593867252 C27.792661537650815,500.2994593867252 -13.651918540474185,545.2122401484439 -13.651918540474185,545.2122401484439 C-13.651918540474185,545.2122401484439 54.844419350150815,515.2125872858951 54.844419350150815,515.2125872858951 C54.844419350150815,515.2125872858951 54.844419350150815,515.2125872858951 54.844419350150815,515.2125872858951 Z" fill="#e1424f"/>
								</g>
							</g>
						</g>
					</g>
				</g>
			</g>
		</g>
	</g>
	<g mask="url(#mask-14551119159175046511)"/>
	<g>
		<polyline points="10000000,10000000 -10000000,10000000 -10000000,-10000000 10000000,-10000000" fill="#000000" fill-opacity="0"/>
	</g>
</g></g></svg>