<svg xmlns="http://www.w3.org/2000/svg" viewBox="0 0 744 1038" width="744" height="1038"><defs><clipPath id="alignment-13730472499077015651">
<path d="M36,66 C36,49.44645666662956 49.44645666662956,36 66,36 L750,36 C766.5535433333705,36 780,49.44645666662956 780,66 L780,1044 C780,1060.5535433333705 766.5535433333705,1074 750,1074 L66,1074 C49.44645666662956,1074 36,1060.5535433333705 36,1044 L36,66 Z" fill="#000000"/></clipPath><radialGradient id="6765974986622951036" cx="629.2199299042215" cy="800.1947613873972" r="591.7984072957931" gradientTransform="matrix(0.001449275,0,0,0.00101713,-0.091304348,-0.064361752)"><stop stop-color="#5f7470" /><stop offset="1" stop-color="#889696" /></radialGradient><radialGradient id="14702371639950004088" cx="360.15086202393576" cy="476.89752435285425" r="682.272955256596" gradientTransform="matrix(0.001529052,0,0,0.001054852,-0.123853211,-0.085292009)"><stop stop-color="#f1e9d2" /><stop offset="0.197226" stop-color="#e3d6bc" /><stop offset="1" stop-color="#ae8964" /></radialGradient><clipPath id="alignment-13560059809607100929">
<path d="M81,90.85682441700942 C81,85.33897663921925 85.48215222220983,80.85682441700942 91,80.85682441700942 L725,80.85682441700942 C730.5178477777902,80.85682441700942 735,85.33897663921925 735,90.85682441700942 L735,1018.8568244170094 C735,1024.3746721947996 730.5178477777902,1028.8568244170094 725,1028.8568244170094 L91,1028.8568244170094 C85.48215222220983,1028.8568244170094 81,1024.3746721947996 81,1018.8568244170094 L81,90.85682441700942 Z" fill="#000000"/></clipPath><radialGradient id="3800565374679988209" cx="629.2199299042214" cy="800.1947613873972" r="591.7984072957933" gradientTransform="matrix(0.001449275,0,0,0.00101713,-0.091304348,-0.064361752)"><stop stop-color="#5f7470" /><stop offset="1" stop-color="#889696" /></radialGradient><radialGradient id="5501596190714104935" cx="458.742326348609" cy="803.5105708442377" r="555.7334985030222" gradientTransform="matrix(0.001449275,0,0,0.00101713,-0.091304348,-0.064361752)"><stop stop-color="#08102e" /><stop offset="1" stop-color="#3950a3" /></radialGradient><linearGradient id="17349359930806625227" x1="568.9257019566016" y1="1115.482993351501" x2="395.8689238215604" y2="272.56674939532917" gradientTransform="matrix(0.001449275,0,0,0.00101713,-0.091304348,-0.064507381)"><stop stop-color="#061230" /><stop offset="1" stop-color="#1a316d" /></linearGradient><radialGradient id="16490265168472692381" cx="360.15086202393553" cy="476.89752435285425" r="682.272955256596" gradientTransform="matrix(0.001529052,0,0,0.001054852,-0.123853211,-0.085292009)"><stop stop-color="#f1e9d2" /><stop offset="0.197226" stop-color="#e3d6bc" /><stop offset="1" stop-color="#ae8964" /></radialGradient><clipPath id="alignment-15266322522731156052">
<path d="M80.99999999999977,90.85682441700942 C80.99999999999977,85.33897663921925 85.4821522222096,80.85682441700942 90.99999999999977,80.85682441700942 L724.9999999999998,80.85682441700942 C730.5178477777899,80.85682441700942 734.9999999999998,85.33897663921925 734.9999999999998,90.85682441700942 L734.9999999999998,1018.8568244170094 C734.9999999999998,1024.3746721947996 730.5178477777899,1028.8568244170094 724.9999999999998,1028.8568244170094 L90.99999999999977,1028.8568244170094 C85.4821522222096,1028.8568244170094 80.99999999999977,1024.3746721947996 80.99999999999977,1018.8568244170094 L80.99999999999977,90.85682441700942 Z" fill="#000000"/></clipPath><radialGradient id="3859492599199733909" cx="398.2448109358038" cy="416.6816143952234" r="551.918768751862" gradientTransform="matrix(0.001516383,0,0,0.001529517,-0.060215035,-0.11983056)"><stop offset="0.020628" stop-color="#181824" /><stop offset="1" stop-color="#2f3341" /></radialGradient><radialGradient id="7117878574103754711" cx="366.946708084953" cy="424.36458719500104" r="349.4104180051489" gradientTransform="matrix(0.001449275,0,0,0.001449275,-0.039130435,-0.11559901)"><stop stop-color="#a67219" /><stop offset="0.908866" stop-color="#fad369" /><stop offset="0.956168" stop-color="#c6922b" /><stop offset="1" stop-color="#a67219" /></radialGradient></defs><g>
<g>
	<g>
		<g transform="matrix(1,0,0,1,-36,-36)">
			<path d="M36,66 C36,49.44645666662956 49.44645666662956,36 66,36 L750,36 C766.5535433333705,36 780,49.44645666662956 780,66 L780,1044 C780,1060.5535433333705 766.5535433333705,1074 750,1074 L66,1074 C49.44645666662956,1074 36,1060.5535433333705 36,1044 L36,66 Z" fill="#000000"/>
			<path d="M36,66 C36,49.44645666662956 49.44645666662956,36 66,36 L750,36 C766.5535433333705,36 780,49.44645666662956 780,66 L780,1044 C780,1060.5535433333705 766.5535433333705,1074 750,1074 L66,1074 C49.44645666662956,1074 36,1060.5535433333705 36,1044 L36,66 Z" clip-path="url(#alignment-13730472499077015651)" fill="none" stroke="#130e0a" stroke-width="4"/>
		</g>
		<g transform="matrix(1,0,0,1,-36,-36)">
			<g>
				<path d="M63.00000000015581,73.0897347965248 C63.00000000015581,67.67564627335815 67.36819919976512,63.27777777777766 72.74576271201585,63.27777777777766 L743.2542372879839,63.27777777777766 C748.6318008002345,63.27777777777766 752.9999999998438,67.67564627335815 752.9999999998438,73.0897347965248 L752.9999999998438,1036.6239140374942 C752.9999999998438,1042.0380025606607 748.6318008002345,1046.4358710562412 743.2542372879839,1046.4358710562412 L72.74576271201585,1046.4358710562412 C67.36819919976512,1046.4358710562412 63.00000000015581,1042.0380025606607 63.00000000015581,1036.6239140374942 L63.00000000015581,73.0897347965248 Z" fill="url('#6765974986622951036')"/>
			</g>
			<g>
				<path d="M81,90.85682441700942 C81,85.33897663921925 85.48215222220983,80.85682441700942 91,80.85682441700942 L725,80.85682441700942 C730.5178477777902,80.85682441700942 735,85.33897663921925 735,90.85682441700942 L735,1018.8568244170094 C735,1024.3746721947996 730.5178477777902,1028.8568244170094 725,1028.8568244170094 L91,1028.8568244170094 C85.48215222220983,1028.8568244170094 81,1024.3746721947996 81,1018.8568244170094 L81,90.85682441700942 Z" fill="url('#14702371639950004088')"/>
				<path d="M81,90.85682441700942 C81,85.33897663921925 85.48215222220983,80.85682441700942 91,80.85682441700942 L725,80.85682441700942 C730.5178477777902,80.85682441700942 735,85.33897663921925 735,90.85682441700942 L735,1018.8568244170094 C735,1024.3746721947996 730.5178477777902,1028.8568244170094 725,1028.8568244170094 L91,1028.8568244170094 C85.48215222220983,1028.8568244170094 81,1024.3746721947996 81,1018.8568244170094 L81,90.85682441700942 Z" clip-path="url(#alignment-13560059809607100929)" fill="none" stroke="#130e0a" stroke-width="4"/>
			</g>
		</g>
		<g transform="matrix(1,0,0,1,-36,-36)">
			<g>
				<path d="M63.00000000015564,73.08973479652474 C63.00000000015564,67.6756462733581 67.36819919976494,63.2777777777776 72.74576271201568,63.2777777777776 L743.2542372879836,63.2777777777776 C748.6318008002344,63.2777777777776 752.9999999998437,67.6756462733581 752.9999999998437,73.08973479652474 L752.9999999998437,1036.6239140374942 C752.9999999998437,1042.0380025606607 748.6318008002344,1046.4358710562412 743.2542372879836,1046.4358710562412 L72.74576271201568,1046.4358710562412 C67.36819919976494,1046.4358710562412 63.00000000015564,1042.0380025606607 63.00000000015564,1036.6239140374942 L63.00000000015564,73.08973479652474 Z" fill="url('#3800565374679988209')"/>
			</g>
			<g>
				<path d="M63.00000000015581,73.08973479638439 C63.00000000015581,67.67564627321616 67.36819919976512,63.27777777763441 72.74576271201585,63.27777777763441 L743.2542372879839,63.27777777763441 C748.6318008002345,63.27777777763441 752.9999999998438,67.67564627321616 752.9999999998438,73.08973479638439 L752.9999999998438,1036.6239140376344 C752.9999999998438,1042.0380025608026 748.6318008002345,1046.4358710563845 743.2542372879839,1046.4358710563845 L72.74576271201585,1046.4358710563845 C67.36819919976512,1046.4358710563845 63.00000000015581,1042.0380025608026 63.00000000015581,1036.6239140376344 L63.00000000015581,73.08973479638439 Z" fill="url('#5501596190714104935')"/>
			</g>
			<g>
				<path d="M63.00000000015467,73.23291037937497 C63.00000000015467,67.81882185620674 67.36819919976398,63.42095336062499 72.74576271201471,63.42095336062499 L743.2542372879827,63.42095336062499 C748.6318008002333,63.42095336062499 752.9999999998427,67.81882185620674 752.9999999998427,73.23291037937497 L752.9999999998427,1036.767089620625 C752.9999999998427,1042.1811781437932 748.6318008002333,1046.579046639375 743.2542372879827,1046.579046639375 L72.74576271201471,1046.579046639375 C67.36819919976398,1046.579046639375 63.00000000015467,1042.1811781437932 63.00000000015467,1036.767089620625 L63.00000000015467,73.23291037937497 Z" fill="url('#17349359930806625227')"/>
			</g>
			<g>
				<path d="M80.99999999999977,90.85682441700942 C80.99999999999977,85.33897663921925 85.4821522222096,80.85682441700942 90.99999999999977,80.85682441700942 L724.9999999999998,80.85682441700942 C730.5178477777899,80.85682441700942 734.9999999999998,85.33897663921925 734.9999999999998,90.85682441700942 L734.9999999999998,1018.8568244170094 C734.9999999999998,1024.3746721947996 730.5178477777899,1028.8568244170094 724.9999999999998,1028.8568244170094 L90.99999999999977,1028.8568244170094 C85.4821522222096,1028.8568244170094 80.99999999999977,1024.3746721947996 80.99999999999977,1018.8568244170094 L80.99999999999977,90.85682441700942 Z" fill="url('#16490265168472692381')"/>
				<path d="M80.99999999999977,90.85682441700942 C80.99999999999977,85.33897663921925 85.4821522222096,80.85682441700942 90.99999999999977,80.85682441700942 L724.9999999999998,80.85682441700942 C730.5178477777899,80.85682441700942 734.9999999999998,85.33897663921925 734.9999999999998,90.85682441700942 L734.9999999999998,1018.8568244170094 C734.9999999999998,1024.3746721947996 730.5178477777899,1028.8568244170094 724.9999999999998,1028.8568244170094 L90.99999999999977,1028.8568244170094 C85.4821522222096,1028.8568244170094 80.99999999999977,1024.3746721947996 80.99999999999977,1018.8568244170094 L80.99999999999977,90.85682441700942 Z" clip-path="url(#alignment-15266322522731156052)" fill="none" stroke="#130e0a" stroke-width="4"/>
			</g>
		</g>
	</g>
	<g>
		<g transform="matrix(1,0,0,1,0,-50.517756736)">
			<path d="M369.44163698764777,78.34535776072164 C551.3827300330281,78.34535776072164 699.1736273801889,224.86717121514818 699.1736273801889,405.2459318384715 C699.1736273801889,585.6246924617949 551.3827300330281,732.1465059162214 369.44163698764777,732.1465059162214 C187.50054394226746,732.1465059162214 39.70964659510656,585.6246924617949 39.70964659510656,405.2459318384715 C39.70964659510656,224.86717121514818 187.50054394226746,78.34535776072164 369.44163698764777,78.34535776072164 Z" fill="url('#3859492599199733909')"/>
		</g>
		<g transform="matrix(1,0,0,1,0,-50.517756736)">
			<path d="M372.0000000000031,79.76331698813152 C181.6342516613195,79.76331698813152 26.999999994556788,234.39756865489426 26.999999994556788,424.7633169935779 C26.999999994556788,615.1290653322616 181.6342516613195,769.7633169990243 372.0000000000031,769.7633169990243 C562.3657483386868,769.7633169990243 717.0000000054495,615.1290653322616 717.0000000054495,424.7633169935779 C717.0000000054495,234.39756865489426 562.3657483386868,79.76331698813152 372.0000000000031,79.76331698813152 ZM372.0000000000031,115.0541642471735 C544.3729667322184,115.0541642471735 684.3916673136929,253.870520962056 684.3916673136929,424.7633169935779 C684.3916673136929,595.6561130250998 544.3729667322184,734.4724697399823 372.0000000000031,734.4724697399823 C199.6270332677879,734.4724697399823 59.60833268631336,595.6561130250998 59.60833268631336,424.7633169935779 C59.60833268631336,253.870520962056 199.6270332677879,115.0541642471735 372.0000000000031,115.0541642471735 Z" fill="url('#7117878574103754711')" stroke="#8c6b2a" stroke-width="4"/>
		</g>
	</g>
	<g>
		<g>
			<g transform="matrix(1,0,0,1,-36,-36)">
				<path d="M358.5382554162348,1028.856824417008 C358.5382554162348,1028.856824417008 371.61914921570826,1045.358075236727 371.61914921570826,1045.358075236727 C371.61914921570826,1045.358075236727 445.6402199168357,1045.358075236727 445.6402199168357,1045.358075236727 C445.6402199168357,1045.358075236727 458.5616673057741,1028.856824417008 458.5616673057741,1028.856824417008 C458.5616673057741,1028.856824417008 445.6402199168357,1012.355573597289 445.6402199168357,1012.355573597289 C445.6402199168357,1012.355573597289 371.61914921570826,1012.355573597289 371.61914921570826,1012.355573597289 C371.61914921570826,1012.355573597289 358.5382554162348,1028.856824417008 358.5382554162348,1028.856824417008 Z" fill="#081536"/>
			</g>
		</g>
	</g>
</g></g></svg>