<svg xmlns="http://www.w3.org/2000/svg" viewBox="0 0 744 1038" width="744" height="1038"><defs><linearGradient id="10885654644822403939" x1="691.2589616313808" y1="813.9904743141188" x2="779.922675512868" y2="535.9459244303209" gradientTransform="matrix(0.05,0,0,0.002575594,-36.65,-1.377942616)"><stop stop-color="#63061a" /><stop offset="1" stop-color="#c4213b" /></linearGradient><linearGradient id="5419625467696823979" x1="161.13354685160306" y1="886.8424684392071" x2="-56.24360041716848" y2="517.2225444562504" gradientTransform="matrix(0.05,0,0,0.002575594,-3.15,-1.377942616)"><stop stop-color="#63061a" /><stop offset="1" stop-color="#c4213b" /></linearGradient><radialGradient id="9685520001346449153" cx="407.90099619632326" cy="1068.760557985848" r="406.2509762496041" gradientTransform="matrix(0.002104452,0,0,0.029342467,-0.358619732,-29.705009907)"><stop offset="0.00765" stop-color="#63061a" /><stop offset="1" stop-color="#c4213b" /></radialGradient><linearGradient id="2495897069628680590" x1="321.82130533925755" y1="542.9469238685112" x2="-178.67054275498717" y2="532.1352065204607" gradientTransform="matrix(0.003506046,0,0,0.003646795,0.192777694,-1.627646296)"><stop stop-color="#63061a" /><stop offset="0.309189" stop-color="#c4213b" /><stop offset="1" stop-color="#63061a" /></linearGradient><linearGradient id="17237673703738136088" x1="87.71474203688517" y1="605.4901553795034" x2="-193.5839934378693" y2="612.4814984094222" gradientTransform="matrix(0.008712413,0,0,0.009072589,1.023782952,-6.024546841)"><stop stop-color="#63061a" /><stop offset="0.521585" stop-color="#c4213b" /><stop offset="1" stop-color="#63061a" /></linearGradient><linearGradient id="16824248276151939332" x1="36.004804481986724" y1="509.1048071699525" x2="446.13470255327576" y2="499.0182306044327" gradientTransform="matrix(0.003050713,0,0,0.003028912,-0.011583636,-1.03800204)"><stop stop-color="#63061a" /><stop offset="0.452531" stop-color="#c4213b" /><stop offset="1" stop-color="#63061a" /></linearGradient><linearGradient id="14538975104376513340" x1="87.86620835080416" y1="320.44685547437166" x2="169.29484575321285" y2="447.113523412604" gradientTransform="matrix(0.004758471,0,0,0.024075048,-0.175035732,-8.277566674)"><stop stop-color="#63061a" /><stop offset="0.475878" stop-color="#c4213b" /><stop offset="1" stop-color="#63061a" /></linearGradient><linearGradient id="4876018679423987249" x1="356.0264635878574" y1="541.7888468989322" x2="281.5892332692182" y2="541.7888468989322" gradientTransform="matrix(0.024187167,0,0,0.00466306,-7.071560727,-1.99390431)"><stop stop-color="#63061a" /><stop offset="1" stop-color="#c4213b" /><stop offset="1" stop-color="#63061a" /></linearGradient><linearGradient id="3173564983168929937" x1="192.34684368779006" y1="596.5940379389713" x2="116.26454770496082" y2="696.9403514155338" gradientTransform="matrix(0.024175818,0,0,0.014680645,-3.268142143,-9.122859314)"><stop stop-color="#63061a" /><stop offset="0.405617" stop-color="#c4213b" /><stop offset="1" stop-color="#63061a" /></linearGradient><linearGradient id="5291430336678605614" x1="-62.631514227954646" y1="559.58103745069" x2="79.66284477586842" y2="488.43385117139314" gradientTransform="matrix(0.014599321,0,0,0.022265377,0.199308736,-11.139356123)"><stop stop-color="#63061a" /><stop offset="0.743915" stop-color="#c4213b" /><stop offset="1" stop-color="#63061a" /></linearGradient></defs><g>
<g>
	<g>
		<g>
			<g transform="matrix(1,0,0,1,-36,-36)">
				<path d="M753.0000000000048,535.0000000000031 L753.0000000000048,901.9999999999998 C753.0000000000048,901.9999999999998 733.0000000000048,923.2599999999998 733.0000000000048,923.2599999999998 C733.0000000000048,923.2599999999998 732.9999999999998,559.2599999999999 732.9999999999998,559.2599999999999 L753.0000000000048,535.0000000000031 Z" fill="url('#10885654644822403939')"/>
			</g>
			<g transform="matrix(1,0,0,1,-36,-36)">
				<path d="M62.999999999999886,535.0000000000002 C62.999999999999886,535.0000000000002 63,902.0000000000002 63,902.0000000000002 C63,902.0000000000002 82.99999999999994,923.2599999999998 82.99999999999994,923.2599999999998 C82.99999999999994,923.2599999999998 82.99999999999983,558.2645864108044 82.99999999999983,558.2645864108044 L62.999999999999886,535.0000000000002 Z" fill="url('#5419625467696823979')"/>
			</g>
			<g transform="matrix(1,0,0,1,-36,-36)">
				<path d="M360.1236981142017,1026.8568244195296 C360.1236981142018,1026.8568244195296 170.40999999999977,1026.8568244195296 170.40999999999977,1026.8568244195296 C170.40999999999977,1026.8568244195296 185.28999999703368,1046.4358710562415 185.28999999703368,1046.4358710562415 C185.28999999703368,1046.4358710562415 630.3499999974574,1046.4358710562415 630.3499999974574,1046.4358710562415 C630.3499999974574,1046.4358710562415 645.5929999991523,1026.8568244195296 645.5929999991523,1026.8568244195296 C645.5929999991523,1026.8568244195296 456.99554998188967,1026.8568244195296 456.99554998188967,1026.8568244195296 C456.99554998188967,1026.8568244195296 445.6402199194913,1012.3555735991022 445.6402199194913,1012.3555735991022 C445.6402199194913,1012.3555735991022 371.61914921271165,1012.3555735991022 371.61914921271165,1012.3555735991022 C371.61914921271165,1012.3555735991022 360.1236981142017,1026.8568244195296 360.1236981142017,1026.8568244195296 Z" fill="url('#9685520001346449153')"/>
			</g>
			<g transform="matrix(1,0,0,1,-36,-36)">
				<g transform="matrix(0.06841108,0,0,0.06841108,401.989024204,991.342047648)">
					<g>
						<g>
							<g>
								<g>
									<g>
										<path d="M0.8525763398123445,634.5243765754271 C0.8525763398123445,634.5243765754271 158.06577503633903,477.16708340226705 158.06577503633903,477.16708340226705 C158.06577503633903,477.16708340226705 230.23724724117884,446.3223526528427 230.23724724117884,446.3223526528427 C230.23724724117884,446.3223526528427 200.78833735414506,516.9836357978493 200.78833735414506,516.9836357978493 C200.78833735414506,516.9836357978493 35.85332828014717,662.8508135263501 35.85332828014717,662.8508135263501 C35.85332828014717,662.8508135263501 88.58659298760077,720.535708283227 88.58659298760077,720.535708283227 C88.58659298760077,720.535708283227 46.892496108306574,718.7703163524166 46.892496108306574,718.7703163524166 C46.892496108306574,718.7703163524166 -54.98436462237041,613.1838609764336 -54.98436462237041,613.1838609764336 C-54.98436462237041,613.1838609764336 -47.734377700892395,576.5779515773111 -47.734377700892395,576.5779515773111 C-47.734377700892395,576.5779515773111 0.8525763398123445,634.5243765754271 0.8525763398123445,634.5243765754271 C0.8525763398123445,634.5243765754271 0.8525763398123445,634.5243765754271 0.8525763398123445,634.5243765754271 Z" fill="url('#2495897069628680590')"/>
									</g>
								</g>
							</g>
							<g>
								<g>
									<g>
										<path d="M-36.91942407267183,664.0383068997769 C-36.91942407267183,664.0383068997769 -77.84191458587597,720.6152677522966 -77.84191458587597,720.6152677522966 C-77.84191458587597,720.6152677522966 -116.78703603999438,729.7032121413406 -116.78703603999438,729.7032121413406 C-116.78703603999438,729.7032121413406 -118.20737837461397,773.2995961853958 -117.06241198020629,773.4139215467694 C-115.91744558579862,773.528246908143 -72.94437565254552,774.260423911445 -72.94437565254552,774.260423911445 C-72.94437565254552,774.260423911445 -63.15631015222138,739.68070653264 -63.15631015222138,739.68070653264 C-63.15631015222138,739.68070653264 -2.729777870709171,698.0228494551885 -2.729777870709171,698.0228494551885 C-2.729777870709171,698.0228494551885 -36.91942407267183,664.0383068997769 -36.91942407267183,664.0383068997769 C-36.91942407267183,664.0383068997769 -36.91942407267183,664.0383068997769 -36.91942407267183,664.0383068997769 Z" fill="url('#17237673703738136088')"/>
									</g>
								</g>
							</g>
						</g>
						<g>
							<g>
								<path d="M279.70611368608826,394.62432663526033 C279.70611368608826,394.62432663526033 188.0394571919477,588.1308116206119 188.0394571919477,588.1308116206119 C188.0394571919477,588.1308116206119 222.17364298296332,575.7931651362369 222.17364298296332,575.7931651362369 C222.17364298296332,575.7931651362369 217.23858438921332,672.8494395502994 217.23858438921332,672.8494395502994 C217.23858438921332,672.8494395502994 331.58923136186957,342.69793503369783 331.58923136186957,342.69793503369783 C331.58923136186957,342.69793503369783 3.7970255513226903,461.8753947504947 3.7970255513226903,461.8753947504947 C3.7970255513226903,461.8753947504947 104.55462442827582,458.17413132276033 104.55462442827582,458.17413132276033 C104.55462442827582,458.17413132276033 88.06109415483832,488.80181686963533 88.06109415483832,488.80181686963533 C88.06109415483832,488.80181686963533 279.70611368608826,394.62432663526033 279.70611368608826,394.62432663526033 C279.70611368608826,394.62432663526033 279.70611368608826,394.62432663526033 279.70611368608826,394.62432663526033 Z" fill="url('#16824248276151939332')"/>
							</g>
						</g>
						<g>
							<g>
								<g>
									<path d="M120.26885782671332,385.3602580317447 C120.26885782671332,385.3602580317447 246.93554483843207,343.82347672070955 246.93554483843207,343.82347672070955 C246.93554483843207,343.82347672070955 36.78402506304144,346.7022532710025 36.78402506304144,346.7022532710025 C36.78402506304144,346.7022532710025 120.26885782671332,385.3602580317447 120.26885782671332,385.3602580317447 C120.26885782671332,385.3602580317447 120.26885782671332,385.3602580317447 120.26885782671332,385.3602580317447 Z" fill="url('#14538975104376513340')"/>
								</g>
							</g>
						</g>
						<g>
							<g>
								<g>
									<path d="M329.6511286397016,642.0471629389713 C329.6511286397016,642.0471629389713 333.7125300068891,427.5956987627933 333.7125300068891,427.5956987627933 C333.7125300068891,427.5956987627933 292.3682917256391,553.955678869147 292.3682917256391,553.955678869147 C292.3682917256391,553.955678869147 329.6511286397016,642.0471629389713 329.6511286397016,642.0471629389713 C329.6511286397016,642.0471629389713 329.6511286397016,642.0471629389713 329.6511286397016,642.0471629389713 Z" fill="url('#4876018679423987249')"/>
								</g>
							</g>
						</g>
						<g>
							<g>
								<g>
									<path d="M176.5459269185102,646.2044352778385 C176.5459269185102,646.2044352778385 160.3121622700727,621.4208735712955 160.3121622700727,621.4208735712955 C160.3121622700727,621.4208735712955 135.1822794575727,689.5377711543033 135.1822794575727,689.5377711543033 C135.1822794575727,689.5377711543033 176.5459269185102,646.2044352778385 176.5459269185102,646.2044352778385 C176.5459269185102,646.2044352778385 176.5459269185102,646.2044352778385 176.5459269185102,646.2044352778385 Z" fill="url('#3173564983168929937')"/>
								</g>
							</g>
						</g>
						<g>
							<g>
								<g>
									<path d="M54.844419350150815,515.2125872858951 C54.844419350150815,515.2125872858951 27.792661537650815,500.2994593867252 27.792661537650815,500.2994593867252 C27.792661537650815,500.2994593867252 -13.651918540474185,545.2122401484439 -13.651918540474185,545.2122401484439 C-13.651918540474185,545.2122401484439 54.844419350150815,515.2125872858951 54.844419350150815,515.2125872858951 C54.844419350150815,515.2125872858951 54.844419350150815,515.2125872858951 54.844419350150815,515.2125872858951 Z" fill="url('#5291430336678605614')"/>
								</g>
							</g>
						</g>
					</g>
				</g>
			</g>
		</g>
	</g>
</g></g></svg>