<svg xmlns="http://www.w3.org/2000/svg" viewBox="0 0 744 1038" width="744" height="1038"><defs><linearGradient id="16298284796987048118" x1="691.2589616313808" y1="797.1044403648248" x2="779.922675512868" y2="476.09210344906904" gradientTransform="matrix(0.05,0,0,0.002230848,-36.65,-1.05965288)"><stop stop-color="#2f1355" /><stop offset="1" stop-color="#540fc9" /></linearGradient><linearGradient id="7651007156063843232" x1="161.13354685160306" y1="881.2146626038195" x2="-56.24360041716848" y2="454.47529433358756" gradientTransform="matrix(0.05,0,0,0.002230848,-3.15,-1.05965288)"><stop stop-color="#2f1355" /><stop offset="1" stop-color="#540fc9" /></linearGradient><radialGradient id="17479131285963115183" cx="407.9009961963232" cy="1068.760557985848" r="496.69987378600166" gradientTransform="matrix(0.002104452,0,0,0.029342467,-0.358619732,-29.705009907)"><stop stop-color="#2f1355" /><stop offset="1" stop-color="#540fc9" /></radialGradient><radialGradient id="4887815209302691243" cx="374.83590063866313" cy="786.0750427468236" r="249.0001444193516" gradientTransform="matrix(0.003223631,0,0,0.002110936,-0.725005412,-1.092862891)"><stop stop-color="#cbc3c3" /><stop offset="1" stop-color="#f5eded" /></radialGradient><linearGradient id="16802492596806619306" x1="691.2589616313808" y1="797.1044403648248" x2="779.922675512868" y2="476.09210344906904" gradientTransform="matrix(0.05,0,0,0.002230848,-36.65,-1.05965288)"><stop stop-color="#551320" /><stop offset="1" stop-color="#c90f4a" /></linearGradient><linearGradient id="2707236052084359164" x1="161.13354685160306" y1="881.2146626038195" x2="-56.24360041716848" y2="454.47529433358756" gradientTransform="matrix(0.05,0,0,0.002230848,-3.15,-1.05965288)"><stop stop-color="#551320" /><stop offset="1" stop-color="#c90f4a" /></linearGradient><radialGradient id="10303431129154467817" cx="407.9009961963232" cy="1068.760557985848" r="496.69987378600166" gradientTransform="matrix(0.002104452,0,0,0.029342467,-0.358619732,-29.705009907)"><stop stop-color="#551320" /><stop offset="1" stop-color="#c90f4a" /></radialGradient></defs><g>
<g>
	<g>
		<g transform="matrix(1,0,0,1,-36,-36)">
			<path d="M753.0000000000048,475.0000000000033 L753.0000000000048,901.9999999999998 C753.0000000000048,901.9999999999998 733.0000000000048,923.2599999999998 733.0000000000048,923.2599999999998 C733.0000000000048,923.2599999999998 732.9999999999998,499.2599999999999 732.9999999999998,499.2599999999999 L753.0000000000048,475.0000000000033 Z" fill="url('#16298284796987048118')"/>
		</g>
		<g transform="matrix(1,0,0,1,-36,-36)">
			<path d="M62.999999999999886,475 C62.999999999999886,475 63,902.0000000000002 63,902.0000000000002 C63,902.0000000000002 82.99999999999994,923.2599999999998 82.99999999999994,923.2599999999998 C82.99999999999994,923.2599999999998 82.99999999999983,498.2645864108045 82.99999999999983,498.2645864108045 L62.999999999999886,475 Z" fill="url('#7651007156063843232')"/>
		</g>
		<g transform="matrix(1,0,0,1,-36,-36)">
			<path d="M360.1236981142017,1026.8568244195296 C360.1236981142018,1026.8568244195296 170.40999999999977,1026.8568244195296 170.40999999999977,1026.8568244195296 C170.40999999999977,1026.8568244195296 185.28999999703368,1046.4358710562415 185.28999999703368,1046.4358710562415 C185.28999999703368,1046.4358710562415 630.3499999974574,1046.4358710562415 630.3499999974574,1046.4358710562415 C630.3499999974574,1046.4358710562415 645.5929999991523,1026.8568244195296 645.5929999991523,1026.8568244195296 C645.5929999991523,1026.8568244195296 456.99554998188967,1026.8568244195296 456.99554998188967,1026.8568244195296 C456.99554998188967,1026.8568244195296 445.6402199194913,1012.3555735991022 445.6402199194913,1012.3555735991022 C445.6402199194913,1012.3555735991022 371.61914921271165,1012.3555735991022 371.61914921271165,1012.3555735991022 C371.61914921271165,1012.3555735991022 360.1236981142017,1026.8568244195296 360.1236981142017,1026.8568244195296 Z" fill="url('#17479131285963115183')"/>
		</g>
		<g transform="matrix(1,0,0,1,-36,-36)">
			<g transform="matrix(0.057547188,0,0,0.057547188,390.23637956,984.320444644)">
				<g>
					<g transform="matrix(1,0,0,1,-47.309249878,19.980133057)">
						<g>
							<path d="M231.94206869845613,736.7593901051199 C231.94206869845613,736.7593901051199 300.98562491183503,746.3147337330496 300.98562491183503,746.3147337330496 C300.98562491183503,746.3147337330496 380.0452104831241,588.5766050709402 380.0452104831241,588.5766050709402 C380.0452104831241,588.5766050709402 331.9838396335148,750.6047422779715 331.9838396335148,750.6047422779715 C331.9838396335148,750.6047422779715 380.0452104831241,757.256231535784 380.0452104831241,757.256231535784 C380.0452104831241,757.256231535784 441.02747977023347,748.6380216969168 441.02747977023347,748.6380216969168 C441.02747977023347,748.6380216969168 412.31187308078034,649.2472593678152 412.31187308078034,649.2472593678152 C412.31187308078034,649.2472593678152 467.3804460788272,744.913717497698 467.3804460788272,744.913717497698 C467.3804460788272,744.913717497698 527.8807512546084,736.3636076344168 527.8807512546084,736.3636076344168 C527.8807512546084,736.3636076344168 380.0452104831241,517.7148477924978 380.0452104831241,517.7148477924978 C380.0452104831241,517.7148477924978 231.94206869845613,736.7593901051199 231.94206869845613,736.7593901051199 C231.94206869845613,736.7593901051199 231.94206869845613,736.7593901051199 231.94206869845613,736.7593901051199 ZM224.9033418918155,762.1436521900808 C251.68489706759675,802.590215910784 376.8985735202334,991.438360442034 380.0452104831241,991.438360442034 C383.18894827609284,991.438360442034 508.1740251803897,802.9393675221121 535.1125322604678,762.2562620533621 C535.1125322604678,762.2562620533621 468.5186296725772,771.5331480396902 468.5186296725772,771.5331480396902 C468.5186296725772,771.5331480396902 413.4452348971866,877.6139280689871 413.4452348971866,877.6139280689871 C413.4452348971866,877.6139280689871 441.1494890475772,775.345831145159 441.1494890475772,775.345831145159 C441.1494890475772,775.345831145159 380.0452104831241,783.8579771412527 380.0452104831241,783.8579771412527 C380.0452104831241,783.8579771412527 332.7359606051944,777.2363645924246 332.7359606051944,777.2363645924246 C332.7359606051944,777.2363645924246 380.0452104831241,920.5766050709402 380.0452104831241,920.5766050709402 C380.0452104831241,920.5766050709402 301.55470144992097,772.8721067799246 301.55470144992097,772.8721067799246 C301.55470144992097,772.8721067799246 224.9033418918155,762.1436521900808 224.9033418918155,762.1436521900808 C224.9033418918155,762.1436521900808 224.9033418918155,762.1436521900808 224.9033418918155,762.1436521900808 Z" fill="url('#4887815209302691243')"/>
						</g>
					</g>
				</g>
			</g>
		</g>
	</g>
	<g>
		<g transform="matrix(1,0,0,1,-36,-36)">
			<path d="M753.0000000000048,475.0000000000033 L753.0000000000048,901.9999999999998 C753.0000000000048,901.9999999999998 733.0000000000048,923.2599999999998 733.0000000000048,923.2599999999998 C733.0000000000048,923.2599999999998 732.9999999999998,499.2599999999999 732.9999999999998,499.2599999999999 L753.0000000000048,475.0000000000033 Z" fill="url('#16802492596806619306')"/>
		</g>
		<g transform="matrix(1,0,0,1,-36,-36)">
			<path d="M62.999999999999886,475 C62.999999999999886,475 63,902.0000000000002 63,902.0000000000002 C63,902.0000000000002 82.99999999999994,923.2599999999998 82.99999999999994,923.2599999999998 C82.99999999999994,923.2599999999998 82.99999999999983,498.2645864108045 82.99999999999983,498.2645864108045 L62.999999999999886,475 Z" fill="url('#2707236052084359164')"/>
		</g>
		<g transform="matrix(1,0,0,1,-36,-36)">
			<path d="M360.1236981142017,1026.8568244195296 C360.1236981142018,1026.8568244195296 170.40999999999977,1026.8568244195296 170.40999999999977,1026.8568244195296 C170.40999999999977,1026.8568244195296 185.28999999703368,1046.4358710562415 185.28999999703368,1046.4358710562415 C185.28999999703368,1046.4358710562415 630.3499999974574,1046.4358710562415 630.3499999974574,1046.4358710562415 C630.3499999974574,1046.4358710562415 645.5929999991523,1026.8568244195296 645.5929999991523,1026.8568244195296 C645.5929999991523,1026.8568244195296 456.99554998188967,1026.8568244195296 456.99554998188967,1026.8568244195296 C456.99554998188967,1026.8568244195296 445.6402199194913,1012.3555735991022 445.6402199194913,1012.3555735991022 C445.6402199194913,1012.3555735991022 371.61914921271165,1012.3555735991022 371.61914921271165,1012.3555735991022 C371.61914921271165,1012.3555735991022 360.1236981142017,1026.8568244195296 360.1236981142017,1026.8568244195296 Z" fill="url('#10303431129154467817')"/>
		</g>
	</g>
</g></g></svg>