<svg xmlns="http://www.w3.org/2000/svg" viewBox="0 0 743 1037" width="743" height="1037"><defs><linearGradient id="559988810790037094" x1="655.0678893861252" y1="766.451288896887" x2="789.3304201708843" y2="623.384572538738" gradientTransform="matrix(0.05,0,0,0.002575594,-36.65,-1.377942616)"><stop stop-color="#adb5bd" /><stop offset="0.538552" stop-color="#e9ecef" /><stop offset="1" stop-color="#adb5bd" /></linearGradient><linearGradient id="3277627438671174502" x1="66.29310971722681" y1="828.0800576210502" x2="-27.25060633740955" y2="646.4953342958207" gradientTransform="matrix(0.05,0,0,0.002575594,-3.15,-1.377942616)"><stop stop-color="#adb5bd" /><stop offset="0.614171" stop-color="#e9ecef" /><stop offset="1" stop-color="#adb5bd" /></linearGradient><radialGradient id="15137075732541785256" cx="382.14036382683867" cy="999.6707479332777" r="134.65494785509267" gradientTransform="matrix(0.002104452,0,0,0.029342467,-0.358619732,-29.705009907)"><stop stop-color="#e9ecef" /><stop offset="0.99235" stop-color="#adb5bd" /></radialGradient><linearGradient id="8588479343633923111" x1="655.0678893861252" y1="766.451288896887" x2="789.3304201708843" y2="623.384572538738" gradientTransform="matrix(0.05,0,0,0.002575594,-36.65,-1.377942616)"><stop offset="0.004645" stop-color="#525a62" /><stop offset="1" stop-color="#6b7580" /></linearGradient><linearGradient id="15272725248626819217" x1="66.29310971722681" y1="828.0800576210502" x2="-27.25060633740955" y2="646.4953342958207" gradientTransform="matrix(0.05,0,0,0.002575594,-3.15,-1.377942616)"><stop stop-color="#525a62" /><stop offset="0.996311" stop-color="#6b7580" /></linearGradient><radialGradient id="12504958232159474281" cx="382.14036382683867" cy="999.6707479332777" r="134.65494785509267" gradientTransform="matrix(0.002104452,0,0,0.029342467,-0.358619732,-29.705009907)"><stop stop-color="#6b7580" /><stop offset="0.99235" stop-color="#525a62" /></radialGradient></defs><g>
<g>
	<g>
		<g>
			<g transform="matrix(1,0,0,1,-36,-36)">
				<path d="M753.0000000000048,535.0000000000031 L753.0000000000048,901.9999999999998 C753.0000000000048,901.9999999999998 733.0000000000048,923.2599999999998 733.0000000000048,923.2599999999998 C733.0000000000048,923.2599999999998 732.9999999999998,559.2599999999999 732.9999999999998,559.2599999999999 L753.0000000000048,535.0000000000031 Z" fill="url('#559988810790037094')"/>
			</g>
			<g transform="matrix(1,0,0,1,-36,-36)">
				<path d="M62.999999999999886,535.0000000000002 C62.999999999999886,535.0000000000002 63,902.0000000000002 63,902.0000000000002 C63,902.0000000000002 82.99999999999994,923.2599999999998 82.99999999999994,923.2599999999998 C82.99999999999994,923.2599999999998 82.99999999999983,558.2645864108044 82.99999999999983,558.2645864108044 L62.999999999999886,535.0000000000002 Z" fill="url('#3277627438671174502')"/>
			</g>
			<g transform="matrix(1,0,0,1,-36,-36)">
				<path d="M360.1236981142017,1026.8568244195296 C360.1236981142018,1026.8568244195296 170.40999999999977,1026.8568244195296 170.40999999999977,1026.8568244195296 C170.40999999999977,1026.8568244195296 185.28999999703368,1046.4358710562415 185.28999999703368,1046.4358710562415 C185.28999999703368,1046.4358710562415 630.3499999974574,1046.4358710562415 630.3499999974574,1046.4358710562415 C630.3499999974574,1046.4358710562415 645.5929999991523,1026.8568244195296 645.5929999991523,1026.8568244195296 C645.5929999991523,1026.8568244195296 456.99554998188967,1026.8568244195296 456.99554998188967,1026.8568244195296 C456.99554998188967,1026.8568244195296 445.6402199194913,1012.3555735991022 445.6402199194913,1012.3555735991022 C445.6402199194913,1012.3555735991022 371.61914921271165,1012.3555735991022 371.61914921271165,1012.3555735991022 C371.61914921271165,1012.3555735991022 360.1236981142017,1026.8568244195296 360.1236981142017,1026.8568244195296 Z" fill="url('#15137075732541785256')"/>
			</g>
		</g>
		<g>
			<g transform="matrix(1,0,0,1,-36,-36)">
				<path d="M753.0000000000048,535.0000000000031 L753.0000000000048,901.9999999999998 C753.0000000000048,901.9999999999998 733.0000000000048,923.2599999999998 733.0000000000048,923.2599999999998 C733.0000000000048,923.2599999999998 732.9999999999998,559.2599999999999 732.9999999999998,559.2599999999999 L753.0000000000048,535.0000000000031 Z" fill="url('#8588479343633923111')"/>
			</g>
			<g transform="matrix(1,0,0,1,-36,-36)">
				<path d="M62.999999999999886,535.0000000000002 C62.999999999999886,535.0000000000002 63,902.0000000000002 63,902.0000000000002 C63,902.0000000000002 82.99999999999994,923.2599999999998 82.99999999999994,923.2599999999998 C82.99999999999994,923.2599999999998 82.99999999999983,558.2645864108044 82.99999999999983,558.2645864108044 L62.999999999999886,535.0000000000002 Z" fill="url('#15272725248626819217')"/>
			</g>
			<g transform="matrix(1,0,0,1,-36,-36)">
				<path d="M360.1236981142017,1026.8568244195296 C360.1236981142018,1026.8568244195296 170.40999999999977,1026.8568244195296 170.40999999999977,1026.8568244195296 C170.40999999999977,1026.8568244195296 185.28999999703368,1046.4358710562415 185.28999999703368,1046.4358710562415 C185.28999999703368,1046.4358710562415 630.3499999974574,1046.4358710562415 630.3499999974574,1046.4358710562415 C630.3499999974574,1046.4358710562415 645.5929999991523,1026.8568244195296 645.5929999991523,1026.8568244195296 C645.5929999991523,1026.8568244195296 456.99554998188967,1026.8568244195296 456.99554998188967,1026.8568244195296 C456.99554998188967,1026.8568244195296 445.6402199194913,1012.3555735991022 445.6402199194913,1012.3555735991022 C445.6402199194913,1012.3555735991022 371.61914921271165,1012.3555735991022 371.61914921271165,1012.3555735991022 C371.61914921271165,1012.3555735991022 360.1236981142017,1026.8568244195296 360.1236981142017,1026.8568244195296 Z" fill="url('#12504958232159474281')"/>
			</g>
		</g>
	</g>
</g></g></svg>