<svg xmlns="http://www.w3.org/2000/svg" viewBox="0 0 744 1038" width="744" height="1038"><defs><linearGradient id="9529184727116749527" x1="691.2589616313808" y1="797.1044403648248" x2="779.922675512868" y2="476.09210344906904" gradientTransform="matrix(0.05,0,0,0.002230848,-36.65,-1.05965288)"><stop stop-color="#1a316d" /><stop offset="1" stop-color="#0fa9c9" /></linearGradient><linearGradient id="12714698083102004146" x1="161.13354685160306" y1="881.2146626038195" x2="-56.24360041716848" y2="454.47529433358756" gradientTransform="matrix(0.05,0,0,0.002230848,-3.15,-1.05965288)"><stop stop-color="#1a316d" /><stop offset="1" stop-color="#0fa9c9" /></linearGradient><radialGradient id="7834663487928588503" cx="407.90099619632326" cy="1068.760557985848" r="496.69987378600166" gradientTransform="matrix(0.002104452,0,0,0.029342467,-0.358619732,-29.705009907)"><stop stop-color="#1a316d" /><stop offset="1" stop-color="#0fa9c9" /></radialGradient></defs><g>
<g>
	<g>
		<g transform="matrix(1,0,0,1,-36,-36)">
			<path d="M753.0000000000048,475.0000000000033 L753.0000000000048,901.9999999999998 C753.0000000000048,901.9999999999998 733.0000000000048,923.2599999999998 733.0000000000048,923.2599999999998 C733.0000000000048,923.2599999999998 732.9999999999998,499.2599999999999 732.9999999999998,499.2599999999999 L753.0000000000048,475.0000000000033 Z" fill="url('#9529184727116749527')"/>
		</g>
		<g transform="matrix(1,0,0,1,-36,-36)">
			<path d="M62.999999999999886,475 C62.999999999999886,475 63,902.0000000000002 63,902.0000000000002 C63,902.0000000000002 82.99999999999994,923.2599999999998 82.99999999999994,923.2599999999998 C82.99999999999994,923.2599999999998 82.99999999999983,498.2645864108045 82.99999999999983,498.2645864108045 L62.999999999999886,475 Z" fill="url('#12714698083102004146')"/>
		</g>
		<g transform="matrix(1,0,0,1,-36,-36)">
			<path d="M360.1236981142017,1026.8568244195296 C360.1236981142018,1026.8568244195296 170.40999999999977,1026.8568244195296 170.40999999999977,1026.8568244195296 C170.40999999999977,1026.8568244195296 185.28999999703368,1046.4358710562415 185.28999999703368,1046.4358710562415 C185.28999999703368,1046.4358710562415 630.3499999974574,1046.4358710562415 630.3499999974574,1046.4358710562415 C630.3499999974574,1046.4358710562415 645.5929999991523,1026.8568244195296 645.5929999991523,1026.8568244195296 C645.5929999991523,1026.8568244195296 456.99554998188967,1026.8568244195296 456.99554998188967,1026.8568244195296 C456.99554998188967,1026.8568244195296 445.6402199194913,1012.3555735991022 445.6402199194913,1012.3555735991022 C445.6402199194913,1012.3555735991022 371.61914921271165,1012.3555735991022 371.61914921271165,1012.3555735991022 C371.61914921271165,1012.3555735991022 360.1236981142017,1026.8568244195296 360.1236981142017,1026.8568244195296 Z" fill="url('#7834663487928588503')"/>
		</g>
	</g>
</g></g></svg>