<svg xmlns="http://www.w3.org/2000/svg" viewBox="0 0 744 1038" width="744" height="1038"><defs><linearGradient id="10456669380620571822" x1="740.3999707829062" y1="1063.350047254594" x2="147.09997705693732" y2="225.24998699371082" gradientTransform="matrix(0.001344086,0,0,0.000963391,-0.048387097,-0.034682081)"><stop stop-color="#5f7470" /><stop offset="1" stop-color="#889696" /></linearGradient><clipPath id="alignment-13717723252052803996">
<path d="M36,46 C36,40.482152222209834 40.482152222209834,36 46,36 L770,36 C775.5178477777902,36 780,40.482152222209834 780,46 L780,1064 C780,1069.5178477777902 775.5178477777902,1074 770,1074 L46,1074 C40.482152222209834,1074 36,1069.5178477777902 36,1064 L36,46 Z" fill="#000000"/></clipPath><radialGradient id="12107889918241009544" cx="356.2000157690314" cy="472.59998031193726" r="725.5341487763977" gradientTransform="matrix(0.001412429,0,0,0.000998004,-0.076271186,-0.053892216)"><stop stop-color="#f1e9d2" /><stop offset="1" stop-color="#ae8964" /></radialGradient><linearGradient id="17175426537948130430" x1="460.75003512507845" y1="644.2999942359686" x2="311.15002752556285" y2="288.1500120367736" gradientTransform="matrix(0.001369863,0,0,0.0125,-0.059657481,-5.4375)"><stop stop-color="#adb5bd" /><stop offset="1" stop-color="#e9ecef" /></linearGradient><linearGradient id="5408803720517298409" x1="122.4500439491097" y1="241.39998105169508" x2="48.499969967421436" y2="174.24998648371079" gradientTransform="matrix(0.011135863,0,0,0.008403361,-0.400891054,-1.31092437)"><stop stop-color="#a47d1b" /><stop offset="1" stop-color="#c9a227" /></linearGradient><linearGradient id="17450517492702783283" x1="56.150024975562744" y1="52.699929487976036" x2="148.80001979854705" y2="106.24998357815956" gradientTransform="matrix(0.005681818,0,0,0.008333328,-0.204545455,-0.299999144)"><stop stop-color="#3950a3" /><stop offset="1" stop-color="#1e3175" /></linearGradient><linearGradient id="2861956897533680921" x1="692.8000557561256" y1="234.59999319072648" x2="777.7999955709688" y2="159.79998939096865" gradientTransform="matrix(0.011135863,0,0,0.008403361,-7.68597283,-1.31092437)"><stop stop-color="#a47d1b" /><stop offset="1" stop-color="#c9a226" /></linearGradient><linearGradient id="6300315252555616259" x1="625.6534697999848" y1="130.05001961104705" x2="780.3784329601677" y2="37.40000189987891" gradientTransform="matrix(0.0056809,0,0,0.008333333,-3.431263447,-0.3)"><stop stop-color="#5a2332" /><stop offset="1" stop-color="#8d213f" /></linearGradient></defs><g transform="matrix(1,0,0,1,-36,-35.999921022)">
<g>
	<g>
		<path d="M36,46 C36,40.482152222209834 40.482152222209834,36 46,36 L770,36 C775.5178477777902,36 780,40.482152222209834 780,46 L780,1064 C780,1069.5178477777902 775.5178477777902,1074 770,1074 L46,1074 C40.482152222209834,1074 36,1069.5178477777902 36,1064 L36,46 Z" fill="url('#10456669380620571822')"/>
		<path d="M36,46 C36,40.482152222209834 40.482152222209834,36 46,36 L770,36 C775.5178477777902,36 780,40.482152222209834 780,46 L780,1064 C780,1069.5178477777902 775.5178477777902,1074 770,1074 L46,1074 C40.482152222209834,1074 36,1069.5178477777902 36,1064 L36,46 Z" clip-path="url(#alignment-13717723252052803996)" fill="none" stroke="#130e0a" stroke-width="4"/>
	</g>
	<g>
		<path d="M54,84 C54,67.44645666662956 67.44645666662956,54 84,54 L732,54 C748.5535433333705,54 762,67.44645666662956 762,84 L762,1026 C762,1042.5535433333705 748.5535433333705,1056 732,1056 L84,1056 C67.44645666662956,1056 54,1042.5535433333705 54,1026 L54,84 Z" fill="url('#12107889918241009544')" stroke="#130e0a" stroke-width="2"/>
	</g>
	<g>
		<path d="M43.54996136089039,475 C43.54996136089039,452.92860888883945 61.47857024972984,435 83.54996136089039,435 L733.5499613608904,435 C755.621352472051,435 773.5499613608904,452.92860888883945 773.5499613608904,475 L773.5499613608904,475 C773.5499613608904,497.07139111116055 755.621352472051,515 733.5499613608904,515 L83.54996136089039,515 C61.47857024972984,515 43.54996136089039,497.07139111116055 43.54996136089039,475 L43.54996136089039,475 Z" fill="url('#17175426537948130430')" stroke="#000000" stroke-width="2"/>
	</g>
	<g>
		<path d="M36,155.99999999999997 C36,155.99999999999997 125.79995853339022,155.99999999999997 125.79995853339022,155.99999999999997 C125.79995853339022,155.99999999999997 125.79995853339022,235.99999999999997 125.79995853339022,235.99999999999997 C125.79995853339022,235.99999999999997 125.79995853339022,258.44998427395313 36,274.99999999999994 C36,274.99999999999994 36,155.99999999999997 36,155.99999999999997 Z" fill="url('#5408803720517298409')" stroke="#000000" stroke-width="2"/>
	</g>
	<g>
		<path d="M125.79995853339028,155.99999999999997 C125.79995853339028,155.99999999999997 125.8,53.99999999999994 194,54.00000000000006 L212,35.99999999999997 L46,36.00000000000011 C40.9769202688597,35.981211872972175 37.64358693552638,39.31454520630547 36.00000000000005,46 C36.00000000000005,46 36.00000000000008,155.99999999999997 36.00000000000008,155.99999999999997" fill="url('#17450517492702783283')" stroke="#130e0a" stroke-width="2"/>
	</g>
	<g>
		<path d="M690.2000414666098,155.99999999999994 C690.2000414666098,155.99999999999994 780,155.99999999999994 780,155.99999999999994 C780,155.99999999999994 779.9999999999999,275 779.9999999999999,275 C779.9999999999999,275 713.1500315455628,275 690.2000414666097,236 C690.2000414666097,236 690.2000414666098,155.99999999999994 690.2000414666098,155.99999999999994 Z" fill="url('#2861956897533680921')" stroke="#130e0a" stroke-width="2"/>
	</g>
	<g>
		<path d="M622,53.99999999999994 C622,53.99999999999994 688.3042968750002,53.99999999999994 690.2000414666097,155.99999999999994 C690.2000414666097,155.99999999999994 780,155.99999999999994 780,155.99999999999994 C780,155.99999999999994 780.0000000000001,45.99999999999989 780.0000000000001,45.99999999999989 C780.0000000000001,45.99999999999989 781.0756404653417,35.999999999999886 770.0000000000001,35.999999999999886 C700.4408165475918,35.99999999999992 604,35.99999999999999 604,35.99999999999999 C604,35.99999999999999 622,53.99999999999994 622,53.99999999999994 Z" transform="matrix(1,0,0,1,0,0)" fill="url('#6300315252555616259')" stroke="#000000" stroke-width="2"/>
	</g>
</g></g></svg>