<svg xmlns="http://www.w3.org/2000/svg" viewBox="0 0 744 1038" width="744" height="1038"><defs><clipPath id="alignment-13201817014849525628">
<path d="M36,66 C36,49.44645666662956 49.44645666662956,36 66,36 L750,36 C766.5535433333705,36 780,49.44645666662956 780,66 L780,1044 C780,1060.5535433333705 766.5535433333705,1074 750,1074 L66,1074 C49.44645666662956,1074 36,1060.5535433333705 36,1044 L36,66 Z" fill="#000000"/></clipPath><radialGradient id="18241876344166168219" cx="629.2199299043216" cy="800.1947613873972" r="591.7984072958794" gradientTransform="matrix(0.001449275,0,0,0.00101713,-0.091304348,-0.064361752)"><stop stop-color="#5f7470" /><stop offset="1" stop-color="#889696" /></radialGradient><radialGradient id="2951898710895494521" cx="360.15086202393564" cy="476.8296558028834" r="682.2729552565959" gradientTransform="matrix(0.001529052,0,0,0.001054852,-0.123853211,-0.085220418)"><stop stop-color="#f1e9d2" /><stop offset="1" stop-color="#ae8964" /></radialGradient><clipPath id="alignment-12988304167659385445">
<path d="M80.99999999999989,80.78895586703857 L734.9999999999999,80.78895586703857 L734.9999999999999,1028.7889558670386 L80.99999999999989,1028.7889558670386 L80.99999999999989,80.78895586703857 Z" fill="#000000"/></clipPath><linearGradient id="10588757065321876430" x1="424.87532329282755" y1="549.8307082768999" x2="260.701482341741" y2="379.490639230899" gradientTransform="matrix(0.00147929,0,0,0.014084507,-0.104363848,-6.190140845)"><stop stop-color="#adb5bd" /><stop offset="0.483791" stop-color="#e9ecef" /><stop offset="1" stop-color="#adb5bd" /></linearGradient><linearGradient id="9145790532787332336" x1="148.354263029416" y1="274.3911638156296" x2="54.03357155171878" y2="199.77930975232152" gradientTransform="matrix(-0.011135863,0,0,0.008403361,1.701559344,-1.537815126)"><stop stop-color="#a47d1b" /><stop offset="1" stop-color="#c9a226" /></linearGradient><linearGradient id="17767134249476896586" x1="675.9371567991242" y1="289.1313590419587" x2="769.5539828877031" y2="204.66508627145606" gradientTransform="matrix(0.011135863,0,0,0.008403361,-7.38498768,-1.537815126)"><stop stop-color="#a47d1b" /><stop offset="1" stop-color="#c9a226" /></linearGradient><linearGradient id="14067056079143449156" x1="598.6250157662749" y1="157.05001961104898" x2="753.3499789264538" y2="64.40000189987958" gradientTransform="matrix(0.0056809,0,0,0.008333333,-3.27771751,-0.525)"><stop stop-color="#5a2332" /><stop offset="1" stop-color="#8d213f" /></linearGradient><linearGradient id="2090350576367312068" x1="182.58762777679968" y1="132.65524783284485" x2="82.30857608780536" y2="83.11257212154464" gradientTransform="matrix(-0.0056809,0,0,0.008333333,1.357896684,-0.525)"><stop stop-color="#1f3176" /><stop offset="1" stop-color="#3950a3" /></linearGradient></defs><g transform="matrix(1,0,0,1,-36,-36)">
<g>
	<g>
		<path d="M36,66 C36,49.44645666662956 49.44645666662956,36 66,36 L750,36 C766.5535433333705,36 780,49.44645666662956 780,66 L780,1044 C780,1060.5535433333705 766.5535433333705,1074 750,1074 L66,1074 C49.44645666662956,1074 36,1060.5535433333705 36,1044 L36,66 Z" fill="#000000"/>
		<path d="M36,66 C36,49.44645666662956 49.44645666662956,36 66,36 L750,36 C766.5535433333705,36 780,49.44645666662956 780,66 L780,1044 C780,1060.5535433333705 766.5535433333705,1074 750,1074 L66,1074 C49.44645666662956,1074 36,1060.5535433333705 36,1044 L36,66 Z" clip-path="url(#alignment-13201817014849525628)" fill="none" stroke="#130e0a" stroke-width="4"/>
	</g>
	<g>
		<path d="M62.99999999999994,63.27777777777766 L752.9999999999998,63.27777777777766 L752.9999999999998,1046.4358710562412 L62.99999999999994,1046.4358710562412 L62.99999999999994,63.27777777777766 Z" fill="url('#18241876344166168219')"/>
	</g>
	<g>
		<path d="M80.99999999999989,80.78895586703857 L734.9999999999999,80.78895586703857 L734.9999999999999,1028.7889558670386 L80.99999999999989,1028.7889558670386 L80.99999999999989,80.78895586703857 Z" fill="url('#2951898710895494521')"/>
		<path d="M80.99999999999989,80.78895586703857 L734.9999999999999,80.78895586703857 L734.9999999999999,1028.7889558670386 L80.99999999999989,1028.7889558670386 L80.99999999999989,80.78895586703857 Z" clip-path="url(#alignment-12988304167659385445)" fill="none" stroke="#130e0a" stroke-width="4"/>
	</g>
	<g>
		<path d="M70.54996136089039,475 C70.54996136089039,455.411640388845 86.4616017497354,439.5 106.04996136089039,439.5 L711.0499613608904,439.5 C730.6383209720454,439.5 746.5499613608904,455.411640388845 746.5499613608904,475 L746.5499613608904,475 C746.5499613608904,494.588359611155 730.6383209720454,510.5 711.0499613608904,510.5 L106.04996136089039,510.5 C86.4616017497354,510.5 70.54996136089039,494.588359611155 70.54996136089039,475 L70.54996136089039,475 Z" fill="url('#10588757065321876430')" stroke="#000000" stroke-width="2"/>
	</g>
	<g>
		<path d="M690.2000414666098,155.99999999999994 C690.2000414666098,155.99999999999994 780,155.99999999999994 780,155.99999999999994 C780,155.99999999999994 779.9999999999999,275 779.9999999999999,275 C779.9999999999999,275 713.1500315455628,275 690.2000414666097,236 C690.2000414666097,236 690.2000414666098,155.99999999999994 690.2000414666098,155.99999999999994 Z" transform="matrix(-1,0,0,1,843,27)" fill="url('#9145790532787332336')" stroke="#130e0a" stroke-width="4" style="paint-order: stroke;" />
	</g>
	<g>
		<path d="M690.2000414666098,155.99999999999994 C690.2000414666098,155.99999999999994 780,155.99999999999994 780,155.99999999999994 C780,155.99999999999994 779.9999999999999,275 779.9999999999999,275 C779.9999999999999,275 713.1500315455628,275 690.2000414666097,236 C690.2000414666097,236 690.2000414666098,155.99999999999994 690.2000414666098,155.99999999999994 Z" transform="matrix(1,0,0,1,-27.028454034,27)" fill="url('#17767134249476896586')" stroke="#130e0a" stroke-width="4" style="paint-order: stroke;" />
	</g>
	<g>
		<path d="M622,53.99999999999994 C622,53.99999999999994 688.3042968750002,53.99999999999994 690.2000414666097,155.99999999999994 C690.2000414666097,155.99999999999994 780,155.99999999999994 780,155.99999999999994 C780,155.99999999999994 780.0284540337068,36.277777777777075 780.0284540337068,36.277777777777075 C710.4692705812985,36.27777777777711 604,35.99999999999999 604,35.99999999999999 C604,35.99999999999999 622,53.99999999999994 622,53.99999999999994 Z" transform="matrix(1,0,0,1,-27.028454034,27)" fill="url('#14067056079143449156')" stroke="#000000" stroke-width="4" style="paint-order: stroke;" />
	</g>
	<g>
		<path d="M622,53.99999999999994 C622,53.99999999999994 688.3042968750002,53.99999999999994 690.2000414666097,155.99999999999994 C690.2000414666097,155.99999999999994 780,155.99999999999994 780,155.99999999999994 C780,155.99999999999994 780.0284540337068,36.277777777777075 780.0284540337068,36.277777777777075 C710.4692705812985,36.27777777777711 604,35.99999999999999 604,35.99999999999999 C604,35.99999999999999 622,53.99999999999994 622,53.99999999999994 Z" transform="matrix(-1,0,0,1,843.028454034,27)" fill="url('#2090350576367312068')" stroke="#000000" stroke-width="4" style="paint-order: stroke;" />
	</g>
</g></g></svg>