<svg xmlns="http://www.w3.org/2000/svg" viewBox="0 0 744 1038" width="744" height="1038"><defs><clipPath id="alignment-17273341217576969817">
<path d="M36,66 C36,49.44645666662956 49.44645666662956,36 66,36 L750,36 C766.5535433333705,36 780,49.44645666662956 780,66 L780,1044 C780,1060.5535433333705 766.5535433333705,1074 750,1074 L66,1074 C49.44645666662956,1074 36,1060.5535433333705 36,1044 L36,66 Z" fill="#000000"/></clipPath><clipPath id="alignment-5825040172788783602">
<path d="M80.99999999999994,80.78895586703862 L734.9999999999998,80.78895586703862 L734.9999999999998,1028.7889558670386 L80.99999999999994,1028.7889558670386 L80.99999999999994,80.78895586703862 Z" fill="#000000"/></clipPath><linearGradient id="7803193965950050874" x1="456.15949785319043" y1="535.0500250050242" x2="421.47486953638787" y2="426.3715727570436" gradientTransform="matrix(0.00147929,0,0,0.014084507,-0.104363848,-6.190140845)"><stop stop-color="#bababa" /><stop offset="1" stop-color="#ececec" /></linearGradient></defs><g transform="matrix(1,0,0,1,-36,-36)">
<g>
	<g>
		<path d="M36,66 C36,49.44645666662956 49.44645666662956,36 66,36 L750,36 C766.5535433333705,36 780,49.44645666662956 780,66 L780,1044 C780,1060.5535433333705 766.5535433333705,1074 750,1074 L66,1074 C49.44645666662956,1074 36,1060.5535433333705 36,1044 L36,66 Z" fill="#444444"/>
		<path d="M36,66 C36,49.44645666662956 49.44645666662956,36 66,36 L750,36 C766.5535433333705,36 780,49.44645666662956 780,66 L780,1044 C780,1060.5535433333705 766.5535433333705,1074 750,1074 L66,1074 C49.44645666662956,1074 36,1060.5535433333705 36,1044 L36,66 Z" clip-path="url(#alignment-17273341217576969817)" fill="none" stroke="#130e0a" stroke-width="4"/>
	</g>
	<g>
		<path d="M62.99999999999994,63.277777777777715 L752.9999999999998,63.277777777777715 L752.9999999999998,1046.435871056241 L62.99999999999994,1046.435871056241 L62.99999999999994,63.277777777777715 Z" fill="#7a7a7a"/>
	</g>
	<g>
		<path d="M80.99999999999994,80.78895586703862 L734.9999999999998,80.78895586703862 L734.9999999999998,1028.7889558670386 L80.99999999999994,1028.7889558670386 L80.99999999999994,80.78895586703862 Z" transform="matrix(1,0,0,1,0,0)" fill="#ffffff"/>
		<path d="M80.99999999999994,80.78895586703862 L734.9999999999998,80.78895586703862 L734.9999999999998,1028.7889558670386 L80.99999999999994,1028.7889558670386 L80.99999999999994,80.78895586703862 Z" transform="matrix(1,0,0,1,0,0)" clip-path="url(#alignment-5825040172788783602)" fill="none" stroke="#130e0a" stroke-width="4"/>
	</g>
	<g>
		<path d="M70.54996136099999,475 C70.54996136099999,455.411640388845 86.46160174984499,439.5 106.04996136099999,439.5 L711.049961361,439.5 C730.638320972155,439.5 746.549961361,455.411640388845 746.549961361,475 L746.549961361,475 C746.549961361,494.588359611155 730.638320972155,510.5 711.049961361,510.5 L106.04996136099999,510.5 C86.46160174984499,510.5 70.54996136099999,494.588359611155 70.54996136099999,475 L70.54996136099999,475 Z" fill="url('#7803193965950050874')" stroke="#000000" stroke-width="2"/>
	</g>
	<g>
		<path d="M690.2000414666098,155.99999999999994 C690.2000414666098,155.99999999999994 780,155.99999999999994 780,155.99999999999994 C780,155.99999999999994 779.9999999999999,275 779.9999999999999,275 C779.9999999999999,275 713.1500315455628,275 690.2000414666097,236 C690.2000414666097,236 690.2000414666098,155.99999999999994 690.2000414666098,155.99999999999994 Z" transform="matrix(-1,0,0,1,843,27)" fill="#565656" stroke="#130e0a" stroke-width="4" style="paint-order: stroke;" />
	</g>
	<g>
		<path d="M690.2000414666098,155.99999999999994 C690.2000414666098,155.99999999999994 780,155.99999999999994 780,155.99999999999994 C780,155.99999999999994 779.9999999999999,275 779.9999999999999,275 C779.9999999999999,275 713.1500315455628,275 690.2000414666097,236 C690.2000414666097,236 690.2000414666098,155.99999999999994 690.2000414666098,155.99999999999994 Z" transform="matrix(1,0,0,1,-27.028454034,27)" fill="#565656" stroke="#130e0a" stroke-width="4" style="paint-order: stroke;" />
	</g>
	<g>
		<path d="M622,53.99999999999994 C622,53.99999999999994 688.3042968750002,53.99999999999994 690.2000414666097,155.99999999999994 C690.2000414666097,155.99999999999994 780,155.99999999999994 780,155.99999999999994 C780,155.99999999999994 780.0284540337068,36.277777777777075 780.0284540337068,36.277777777777075 C710.4692705812985,36.27777777777711 604,35.99999999999999 604,35.99999999999999 C604,35.99999999999999 622,53.99999999999994 622,53.99999999999994 Z" transform="matrix(1,0,0,1,-27.028454034,27)" fill="#565656" stroke="#000000" stroke-width="4" style="paint-order: stroke;" />
	</g>
	<g>
		<path d="M622,53.99999999999994 C622,53.99999999999994 688.3042968750002,53.99999999999994 690.2000414666097,155.99999999999994 C690.2000414666097,155.99999999999994 780,155.99999999999994 780,155.99999999999994 C780,155.99999999999994 780.0284540337068,36.277777777777075 780.0284540337068,36.277777777777075 C710.4692705812985,36.27777777777711 604,35.99999999999999 604,35.99999999999999 C604,35.99999999999999 622,53.99999999999994 622,53.99999999999994 Z" transform="matrix(-1,0,0,1,843.028454034,27)" fill="#555555" stroke="#000000" stroke-width="4" style="paint-order: stroke;" />
	</g>
</g></g></svg>