<svg xmlns="http://www.w3.org/2000/svg" viewBox="0 0 744 1038" width="744" height="1038"><defs><clipPath id="alignment-11250151272384066352">
<path d="M36,66 C36,49.44645666662956 49.44645666662956,36 66,36 L750,36 C766.5535433333705,36 780,49.44645666662956 780,66 L780,1044 C780,1060.5535433333705 766.5535433333705,1074 750,1074 L66,1074 C49.44645666662956,1074 36,1060.5535433333705 36,1044 L36,66 Z" fill="#000000"/></clipPath><radialGradient id="11968196531331016523" cx="629.2199299043216" cy="800.1947613873972" r="591.7984072958794" gradientTransform="matrix(0.001449275,0,0,0.00101713,-0.091304348,-0.064361752)"><stop stop-color="#5f7470" /><stop offset="1" stop-color="#889696" /></radialGradient><radialGradient id="7248688095303202799" cx="360.15086202393564" cy="476.89752435285425" r="682.272955256596" gradientTransform="matrix(0.001529052,0,0,0.001054852,-0.123853211,-0.085292009)"><stop stop-color="#f1e9d2" /><stop offset="0.197226" stop-color="#e3d6bc" /><stop offset="1" stop-color="#ae8964" /></radialGradient><clipPath id="alignment-13724597223646470943">
<path d="M80.99999999999989,80.85682441700942 L734.9999999999999,80.85682441700942 L734.9999999999999,1028.8568244170094 L80.99999999999989,1028.8568244170094 L80.99999999999989,80.85682441700942 Z" fill="#000000"/></clipPath><linearGradient id="3407636851704166171" x1="176.26733224562727" y1="223.7816160575186" x2="54.03357155171878" y2="199.77930975232152" gradientTransform="matrix(-0.011135863,0,0,0.008403361,1.701559344,-1.537815126)"><stop stop-color="#73512c" /><stop offset="1" stop-color="#b48049" /></linearGradient><linearGradient id="6514773509715286885" x1="643.7996974988224" y1="231.3573778949126" x2="769.5539828877031" y2="204.66508627145606" gradientTransform="matrix(0.011135863,0,0,0.008403361,-7.38498768,-1.537815126)"><stop stop-color="#73512c" /><stop offset="1" stop-color="#b48049" /></linearGradient><linearGradient id="12634575436991114475" x1="598.6250157662749" y1="157.05001961104898" x2="753.3499789264538" y2="64.40000189987958" gradientTransform="matrix(0.0056809,0,0,0.008333333,-3.27771751,-0.525)"><stop stop-color="#5a2332" /><stop offset="1" stop-color="#8d213f" /></linearGradient><linearGradient id="5651949130719777356" x1="182.58762777679968" y1="132.65524783284485" x2="82.30857608780536" y2="83.11257212154464" gradientTransform="matrix(-0.0056809,0,0,0.008333333,1.357896684,-0.525)"><stop stop-color="#1f3176" /><stop offset="1" stop-color="#3950a3" /></linearGradient></defs><g>
<g>
	<g>
		<g transform="matrix(1,0,0,1,-36,-36)">
			<path d="M36,66 C36,49.44645666662956 49.44645666662956,36 66,36 L750,36 C766.5535433333705,36 780,49.44645666662956 780,66 L780,1044 C780,1060.5535433333705 766.5535433333705,1074 750,1074 L66,1074 C49.44645666662956,1074 36,1060.5535433333705 36,1044 L36,66 Z" fill="#000000"/>
			<path d="M36,66 C36,49.44645666662956 49.44645666662956,36 66,36 L750,36 C766.5535433333705,36 780,49.44645666662956 780,66 L780,1044 C780,1060.5535433333705 766.5535433333705,1074 750,1074 L66,1074 C49.44645666662956,1074 36,1060.5535433333705 36,1044 L36,66 Z" clip-path="url(#alignment-11250151272384066352)" fill="none" stroke="#130e0a" stroke-width="4"/>
		</g>
		<g transform="matrix(1,0,0,1,-36,-36)">
			<path d="M62.99999999999994,63.27777777777766 L752.9999999999998,63.27777777777766 L752.9999999999998,1046.4358710562412 L62.99999999999994,1046.4358710562412 L62.99999999999994,63.27777777777766 Z" fill="url('#11968196531331016523')"/>
		</g>
		<g transform="matrix(1,0,0,1,-36,-36)">
			<path d="M80.99999999999989,80.85682441700942 L734.9999999999999,80.85682441700942 L734.9999999999999,1028.8568244170094 L80.99999999999989,1028.8568244170094 L80.99999999999989,80.85682441700942 Z" fill="url('#7248688095303202799')"/>
			<path d="M80.99999999999989,80.85682441700942 L734.9999999999999,80.85682441700942 L734.9999999999999,1028.8568244170094 L80.99999999999989,1028.8568244170094 L80.99999999999989,80.85682441700942 Z" clip-path="url(#alignment-13724597223646470943)" fill="none" stroke="#130e0a" stroke-width="4"/>
		</g>
		<g transform="matrix(1,0,0,1,-36,-36)">
			<path d="M690.2000414666098,155.99999999999994 C690.2000414666098,155.99999999999994 780,155.99999999999994 780,155.99999999999994 C780,155.99999999999994 779.9999999999999,275 779.9999999999999,275 C779.9999999999999,275 713.1500315455628,275 690.2000414666097,236 C690.2000414666097,236 690.2000414666098,155.99999999999994 690.2000414666098,155.99999999999994 Z" transform="matrix(-1,0,0,1,843,27)" fill="url('#3407636851704166171')" stroke="#130e0a" stroke-width="4" style="paint-order: stroke;" />
		</g>
		<g transform="matrix(1,0,0,1,-36,-36)">
			<path d="M690.2000414666098,155.99999999999994 C690.2000414666098,155.99999999999994 780,155.99999999999994 780,155.99999999999994 C780,155.99999999999994 779.9999999999999,275 779.9999999999999,275 C779.9999999999999,275 713.1500315455628,275 690.2000414666097,236 C690.2000414666097,236 690.2000414666098,155.99999999999994 690.2000414666098,155.99999999999994 Z" transform="matrix(1,0,0,1,-27.028454034,27)" fill="url('#6514773509715286885')" stroke="#130e0a" stroke-width="4" style="paint-order: stroke;" />
		</g>
		<g transform="matrix(1,0,0,1,-36,-36)">
			<path d="M622,53.99999999999994 C622,53.99999999999994 688.3042968750002,53.99999999999994 690.2000414666097,155.99999999999994 C690.2000414666097,155.99999999999994 780,155.99999999999994 780,155.99999999999994 C780,155.99999999999994 780.0284540337068,36.277777777777075 780.0284540337068,36.277777777777075 C710.4692705812985,36.27777777777711 604,35.99999999999999 604,35.99999999999999 C604,35.99999999999999 622,53.99999999999994 622,53.99999999999994 Z" transform="matrix(1,0,0,1,-27.028454034,27)" fill="url('#12634575436991114475')" stroke="#000000" stroke-width="4" style="paint-order: stroke;" />
		</g>
		<g transform="matrix(1,0,0,1,-36,-36)">
			<path d="M622,53.99999999999994 C622,53.99999999999994 688.3042968750002,53.99999999999994 690.2000414666097,155.99999999999994 C690.2000414666097,155.99999999999994 780,155.99999999999994 780,155.99999999999994 C780,155.99999999999994 780.0284540337068,36.277777777777075 780.0284540337068,36.277777777777075 C710.4692705812985,36.27777777777711 604,35.99999999999999 604,35.99999999999999 C604,35.99999999999999 622,53.99999999999994 622,53.99999999999994 Z" transform="matrix(-1,0,0,1,843.028454034,27)" fill="url('#5651949130719777356')" stroke="#000000" stroke-width="4" style="paint-order: stroke;" />
		</g>
	</g>
</g></g></svg>