<svg xmlns="http://www.w3.org/2000/svg" viewBox="0 0 744 1038" width="744" height="1038"><defs><clipPath id="alignment-13240216638999144409">
<path d="M36,66 C36,49.44645666662956 49.44645666662956,36 66,36 L750,36 C766.5535433333705,36 780,49.44645666662956 780,66 L780,1044 C780,1060.5535433333705 766.5535433333705,1074 750,1074 L66,1074 C49.44645666662956,1074 36,1060.5535433333705 36,1044 L36,66 Z" fill="#000000"/></clipPath><radialGradient id="771068527098913559" cx="629.2199299043216" cy="800.1947613873972" r="591.7984072958794" gradientTransform="matrix(0.001449275,0,0,0.00101713,-0.091304348,-0.064361752)"><stop stop-color="#5f7470" /><stop offset="1" stop-color="#889696" /></radialGradient><clipPath id="mask-7291165362169292740">
<path d="M62.99999999999994,73.0897347965248 C62.99999999999994,67.67564627335815 67.36819919961118,63.27777777777766 72.7457627118643,63.27777777777766 L743.2542372881353,63.27777777777766 C748.6318008003884,63.27777777777766 752.9999999999998,67.67564627335815 752.9999999999998,73.0897347965248 L752.9999999999998,1036.6239140374942 C752.9999999999998,1042.0380025606607 748.6318008003884,1046.4358710562412 743.2542372881353,1046.4358710562412 L72.7457627118643,1046.4358710562412 C67.36819919961118,1046.4358710562412 62.99999999999994,1042.0380025606607 62.99999999999994,1036.6239140374942 L62.99999999999994,73.0897347965248 Z" fill="url('#771068527098913559')"/></clipPath><radialGradient id="8680949891722390291" cx="629.2199299043216" cy="800.1947613873972" r="591.7984072958794" gradientTransform="matrix(0.001449275,0,0,0.00101713,-0.091304348,-0.064361752)"><stop stop-color="#5f7470" /><stop offset="1" stop-color="#889696" /></radialGradient><radialGradient id="9009158490442448173" cx="360.15086202393564" cy="476.89752435285425" r="682.272955256596" gradientTransform="matrix(0.001529052,0,0,0.001054852,-0.123853211,-0.085292009)"><stop stop-color="#f1e9d2" /><stop offset="0.197226" stop-color="#e3d6bc" /><stop offset="1" stop-color="#ae8964" /></radialGradient><clipPath id="alignment-7550217510240196739">
<path d="M80.99999999999989,90.85682441700942 C80.99999999999989,85.33897663921925 85.48215222220972,80.85682441700942 90.99999999999989,80.85682441700942 L724.9999999999999,80.85682441700942 C730.51784777779,80.85682441700942 734.9999999999999,85.33897663921925 734.9999999999999,90.85682441700942 L734.9999999999999,1018.8568244170094 C734.9999999999999,1024.3746721947996 730.51784777779,1028.8568244170094 724.9999999999999,1028.8568244170094 L90.99999999999989,1028.8568244170094 C85.48215222220972,1028.8568244170094 80.99999999999989,1024.3746721947996 80.99999999999989,1018.8568244170094 L80.99999999999989,90.85682441700942 Z" fill="#000000"/></clipPath></defs><g>
<g>
	<g>
		<g transform="matrix(1,0,0,1,-36,-36)">
			<path d="M36,66 C36,49.44645666662956 49.44645666662956,36 66,36 L750,36 C766.5535433333705,36 780,49.44645666662956 780,66 L780,1044 C780,1060.5535433333705 766.5535433333705,1074 750,1074 L66,1074 C49.44645666662956,1074 36,1060.5535433333705 36,1044 L36,66 Z" fill="#000000"/>
			<path d="M36,66 C36,49.44645666662956 49.44645666662956,36 66,36 L750,36 C766.5535433333705,36 780,49.44645666662956 780,66 L780,1044 C780,1060.5535433333705 766.5535433333705,1074 750,1074 L66,1074 C49.44645666662956,1074 36,1060.5535433333705 36,1044 L36,66 Z" clip-path="url(#alignment-13240216638999144409)" fill="none" stroke="#130e0a" stroke-width="4"/>
		</g>
		<g transform="matrix(1,0,0,1,-36,-36)">
			<path d="M62.99999999999994,73.0897347965248 C62.99999999999994,67.67564627335815 67.36819919961118,63.27777777777766 72.7457627118643,63.27777777777766 L743.2542372881353,63.27777777777766 C748.6318008003884,63.27777777777766 752.9999999999998,67.67564627335815 752.9999999999998,73.0897347965248 L752.9999999999998,1036.6239140374942 C752.9999999999998,1042.0380025606607 748.6318008003884,1046.4358710562412 743.2542372881353,1046.4358710562412 L72.7457627118643,1046.4358710562412 C67.36819919961118,1046.4358710562412 62.99999999999994,1042.0380025606607 62.99999999999994,1036.6239140374942 L62.99999999999994,73.0897347965248 Z" fill="url('#8680949891722390291')"/>
		</g>
		<g transform="matrix(1,0,0,1,-36,-36)" clip-path="url(#mask-7291165362169292740)"/>
		<g transform="matrix(1,0,0,1,-36,-36)">
			<path d="M80.99999999999989,90.85682441700942 C80.99999999999989,85.33897663921925 85.48215222220972,80.85682441700942 90.99999999999989,80.85682441700942 L724.9999999999999,80.85682441700942 C730.51784777779,80.85682441700942 734.9999999999999,85.33897663921925 734.9999999999999,90.85682441700942 L734.9999999999999,1018.8568244170094 C734.9999999999999,1024.3746721947996 730.51784777779,1028.8568244170094 724.9999999999999,1028.8568244170094 L90.99999999999989,1028.8568244170094 C85.48215222220972,1028.8568244170094 80.99999999999989,1024.3746721947996 80.99999999999989,1018.8568244170094 L80.99999999999989,90.85682441700942 Z" fill="url('#9009158490442448173')"/>
			<path d="M80.99999999999989,90.85682441700942 C80.99999999999989,85.33897663921925 85.48215222220972,80.85682441700942 90.99999999999989,80.85682441700942 L724.9999999999999,80.85682441700942 C730.51784777779,80.85682441700942 734.9999999999999,85.33897663921925 734.9999999999999,90.85682441700942 L734.9999999999999,1018.8568244170094 C734.9999999999999,1024.3746721947996 730.51784777779,1028.8568244170094 724.9999999999999,1028.8568244170094 L90.99999999999989,1028.8568244170094 C85.48215222220972,1028.8568244170094 80.99999999999989,1024.3746721947996 80.99999999999989,1018.8568244170094 L80.99999999999989,90.85682441700942 Z" clip-path="url(#alignment-7550217510240196739)" fill="none" stroke="#130e0a" stroke-width="4"/>
		</g>
	</g>
</g></g></svg>