<svg xmlns="http://www.w3.org/2000/svg" viewBox="0 0 683 512" width="683" height="512"><defs><linearGradient id="14263710505429538921" x1="182.44370973265012" y1="349.6506149490157" x2="253.10510287904052" y2="231.1054331333649" gradientTransform="matrix(0.005017346,0.000709461,-0.000853649,0.004169878,-0.499128346,-0.867535034)"><stop stop-color="#1a316d" /><stop offset="1" stop-color="#0fa9c9" /></linearGradient><linearGradient id="10826891307850034233" x1="371.98533880442017" y1="454.140541253431" x2="439.42964888294415" y2="320.85352058200743" gradientTransform="matrix(0.005580731,0.001037577,-0.000949503,0.006098388,-1.612753706,-2.000582626)"><stop stop-color="#1a316d" /><stop offset="1" stop-color="#0fa9c9" /></linearGradient><linearGradient id="17215814527496849560" x1="435.2547623988062" y1="460.30836963258884" x2="-122.36955222009209" y2="99.4134074068732" gradientTransform="matrix(0.00055802,0.002880434,-0.003022733,0.000531751,1.186048861,-0.049008068)"><stop stop-color="#1a316d" /><stop offset="0.567103" stop-color="#0fa9c9" /><stop offset="1" stop-color="#1a316d" /></linearGradient><linearGradient id="7619181526498532729" x1="408.5778793180201" y1="507.8483385263755" x2="200.1819261508512" y2="358.5803893766805" gradientTransform="matrix(0.001558961,0.007003949,-0.007413471,0.001472844,3.329432505,-2.212509736)"><stop stop-color="#1a316d" /><stop offset="1" stop-color="#0fa9c9" /></linearGradient><linearGradient id="9112881133586106748" x1="74.69480123148334" y1="254.2393489689021" x2="184.0887260932426" y2="114.00124844637777" gradientTransform="matrix(0.005405199,0.001133364,-0.000919638,0.006661383,-0.322381799,-1.039249755)"><stop stop-color="#1a316d" /><stop offset="1" stop-color="#0fa9c9" /></linearGradient><linearGradient id="791800975928722594" x1="447.7250897296061" y1="477.00990117060667" x2="511.8809259588067" y2="358.5683268757609" gradientTransform="matrix(-0.006135796,0.000970424,-0.000831482,-0.007161092,3.84209631,2.799488867)"><stop stop-color="#1a316d" /><stop offset="1" stop-color="#0fa9c9" /></linearGradient><linearGradient id="15808429210067816788" x1="229.17749974634722" y1="35.97402201070411" x2="275.6493506493505" y2="139.1991157036323" gradientTransform="matrix(0.003203865,-0.008229343,0.006404665,0.00411664,-1.263625139,2.193614094)"><stop stop-color="#1a316d" /><stop offset="1" stop-color="#0fa9c9" /></linearGradient></defs><g>
<g>
	<g>
		<path d="M298.7659300713093,201.30688120837323 C298.7659300713093,201.30688120837323 174.9221277256339,131.47233631496007 98.66265605155417,188.46256730664524 C29.279845635663193,240.31373157058442 176.30535861149744,429.239386153977 176.30535861149744,429.239386153977 C176.30535861149744,429.239386153977 117.39099586269415,314.27330797450617 138.5715683520416,304.41086979566126 C138.5715683520416,304.41086979566126 148.5366864922577,340.14736561917596 223.3290829534429,410.91590629107014 C223.3290829534429,410.91590629107014 240.06416354944332,362.99148354602056 240.06416354944332,362.99148354602056 C232.76594787763162,356.97536549603575 50.857970645475206,213.92088948217702 298.7659300713093,201.30688120837323 Z" transform="matrix(0.885663797,-0.150686372,0.150686372,0.885663797,35.152078178,50.71594542)" fill="url('#14263710505429538921')" stroke="#000000" stroke-width="12" stroke-linecap="square" stroke-linejoin="round"/>
	</g>
	<g>
		<path d="M426.30210551152817,297.76570709297835 C426.30210551152817,297.76570709297835 538.8032351241416,409.2376728692958 451.3418340260062,466.15703127350025 C397.9979161580472,500.8729349943193 288.00876137014046,446.24051692321257 288.00876137014046,446.24051692321257 C288.00876137014046,446.24051692321257 323.0616824831654,406.698354334033 323.0616824831654,406.698354334033 C396.2474912220704,436.0835547127825 477.911302184776,436.563684986959 426.30210551152817,297.76570709297835 Z" transform="matrix(0.885663797,-0.150686372,0.150686372,0.885663797,35.152078178,50.71594542)" fill="url('#10826891307850034233')" stroke="#000000" stroke-width="12" stroke-linecap="square" stroke-linejoin="round"/>
	</g>
	<g>
		<g transform="matrix(0.415235122,0.632065806,-0.632065806,0.415235122,485.14719701,21.589680681)">
			<path d="M226.5622472208171,238.5993842213055 C226.5622472208171,238.5993842213055 364.4108704023053,78.26609361774189 364.4108704023053,78.26609361774189 C364.4108704023053,78.26609361774189 430.6333618164061,43.900024414062464 430.6333618164061,43.900024414062464 C430.6333618164061,43.900024414062464 414.13618186172033,110.83509331313672 414.13618186172033,110.83509331313672 C414.13618186172033,110.83509331313672 261.75304309358535,262.9644137798299 261.75304309358535,262.9644137798299 C261.75304309358535,262.9644137798299 315.8388353796787,313.89956700122013 315.8388353796787,313.89956700122013 C315.8388353796787,313.89956700122013 276.19014115000385,315.18817624409877 276.19014115000385,315.18817624409877 C276.19014115000385,315.18817624409877 172.11639432091607,222.33681183967963 172.11639432091607,222.33681183967963 C172.11639432091607,222.33681183967963 176.3883118756379,187.1217515204769 176.3883118756379,187.1217515204769 C176.3883118756379,187.1217515204769 226.5622472208171,238.5993842213055 226.5622472208171,238.5993842213055 Z" transform="matrix(0.228458363,-1.237533814,1.237533814,0.228458363,-147.244277487,585.45284395)" fill="url('#17215814527496849560')" stroke="#000000" stroke-width="12" stroke-linecap="square" stroke-linejoin="round"/>
		</g>
		<g transform="matrix(0.415235122,0.632065806,-0.632065806,0.415235122,485.14719701,21.589680681)">
			<path d="M151.17928647062854,323.0113133640328 C151.17928647062854,323.0113133640328 116.61007951541924,382.46358584678035 116.61007951541924,382.46358584678035 C116.61007951541924,382.46358584678035 79.33160922436855,395.1812277405215 79.33160922436855,395.1812277405215 C79.33160922436855,395.1812277405215 82.20584836546213,438.0464227175794 83.33914914671213,438.0464227175794 C84.47244992796213,438.0464227175794 126.65943942269251,434.55874304155736 126.65943942269251,434.55874304155736 C126.65943942269251,434.55874304155736 132.86825060153444,399.71138132505865 132.86825060153444,399.71138132505865 C132.86825060153444,399.71138132505865 188.01216051587488,352.97184350105874 188.01216051587488,352.97184350105874 C188.01216051587488,352.97184350105874 151.17928647062854,323.0113133640328 151.17928647062854,323.0113133640328 Z" transform="matrix(0.249946991,-1.188595881,1.188595881,0.249946991,-191.683547429,507.26005485)" fill="url('#7619181526498532729')" stroke="#000000" stroke-width="12" stroke-linecap="square" stroke-linejoin="round"/>
		</g>
	</g>
	<g>
		<path d="M233.22009473611251,210.4193063611776 C-42.214028172836095,85.18021500563657 42.49081456710587,340.58800345000054 42.49081456710587,340.58800345000054 C38.6573680013602,278.2264829875661 44.587913180620866,232.2096006664531 96.45460260822,211.44280336988737 C155.04188050192238,187.9851634548811 233.22009473611251,210.4193063611776 233.22009473611251,210.4193063611776 Z" transform="matrix(0.885663797,-0.150686372,0.150686372,0.885663797,30.510176426,-9.439255949)" fill="url('#9112881133586106748')" stroke="#000000" stroke-width="12" stroke-linecap="square" stroke-linejoin="round"/>
	</g>
	<g>
		<path d="M336.5588045936971,19.965246706882688 C55.073332212550724,-25.503189203577413 188.29076680288435,167.04593219807288 188.29076680288435,167.04593219807288 C120.87618369215203,6.693469636855525 336.5588045936971,19.965246706882688 336.5588045936971,19.965246706882688 Z" transform="matrix(-0.890254127,-0.120641342,0.120641342,-0.890254127,700.87806149,497.709580502)" fill="url('#791800975928722594')" stroke="#000000" stroke-width="12" stroke-linecap="square" stroke-linejoin="round"/>
	</g>
	<g>
		<path d="M313.21617737985275,50.105804473884135 C116.81156898981098,49.769881061752194 162.355780436999,171.0737439680263 162.355780436999,171.0737439680263 C181.3858238895408,78.48125415664369 313.21617737985275,50.105804473884135 313.21617737985275,50.105804473884135 Z" transform="matrix(0.401926554,0.803468599,-0.803468599,0.401926554,268.989308032,-95.759651955)" fill="url('#15808429210067816788')" stroke="#000000" stroke-width="12" stroke-linecap="square" stroke-linejoin="round"/>
	</g>
</g></g></svg>