<svg xmlns="http://www.w3.org/2000/svg" viewBox="0 0 512 512" width="512" height="512"><defs><linearGradient id="11937830911734472646" x1="484.9323430517338" y1="476.9852374821507" x2="68.82191483047635" y2="70.78220733834462" gradientTransform="matrix(0.002222222,0,0,0.002222222,-0.068888889,-0.068888889)"><stop stop-color="#b88922" /><stop offset="1" stop-color="#f0bf56" /></linearGradient><linearGradient id="4992282961020043225" x1="454.3095997348773" y1="463.47515801385936" x2="154.38571912613233" y2="163.55147142624645" gradientTransform="matrix(0.004166667,0,0,0.004166667,-0.566666667,-0.566666667)"><stop stop-color="#b88822" /><stop offset="1" stop-color="#f0bf56" /></linearGradient></defs><g>
<g>
	<g>
		<path d="M346.508530356188,100.419279966186 C346.50853035,100.41927995999998 369.2015195,61.56254633999998 369.2015195,61.56254633999998 C335.9378220784257,42.13598488922139 297.25551281941546,31 256,31 C131.848425,31 31,131.848425 31,256 C31,297.24857480000003 42.132239690000006,335.92481145 61.55274596000001,369.18473686 C61.55274596000001,369.18473686 100.41759983,346.50565119 100.41759983,346.50565119 C84.89639245999999,319.90718444 76,288.98144153 76,256 C76,156.67874 156.67874,76 256,76 C288.9826315709317,76 319.9094161729448,84.8970344720118 346.508530356188,100.419279966186 ZM411.58072003381403,165.49146964381202 C427.1029655279882,192.09058382705518 436,223.0173684290683 436,256 C436,355.32126 355.32126,436 256,436 C223.01855847000002,436 192.09281556,427.10360754 165.49434881,411.58240017 C165.49434881,411.58240017 142.81524772,450.44724503 142.81524772,450.44724503 C176.07517659,469.86775687 214.75141882,481 256,481 C380.151575,481 481,380.151575 481,256 C481,214.74918479535705 469.86655099436007,176.0709871818741 450.4440895089705,142.80984368544148 C450.35734654928626,142.8612971342523 450.27050651995364,142.9127807368144 450.18356934999997,142.96429451 C450.18356934999997,142.96429451 411.58072004,165.49146965 411.58072003381403,165.49146964381202 Z" fill="url('#11937830911734472646')" stroke="#000000" stroke-width="16"/>
	</g>
	<g>
		<path d="M415.4425132222852,97.6888686791211 C415.4425132222852,97.6888686791211 383.6917803596254,129.14589584368122 383.6917803596254,129.14589584368122" transform="matrix(0.965925826,-0.258819045,0.258819045,0.965925826,-57.534687076,74.980664016)" fill="none" stroke="#000000" stroke-width="12"/>
	</g>
	<g>
		<path d="M128.3105658465468,382.8564722245238 C128.3105658465468,382.8564722245238 96.12734817003724,414.74316459108013 96.12734817003724,414.74316459108013" transform="matrix(0.965925826,-0.258819045,0.258819045,0.965925826,-57.534687076,74.980664016)" fill="none" stroke="#000000" stroke-width="12"/>
	</g>
	<g>
		<path d="M414.31113132087876,96.55748677771471 C414.31113132087876,96.55748677771471 382.8541041563185,128.30821964037455 382.8541041563185,128.30821964037455" transform="matrix(0.965925826,0.258819045,-0.258819045,0.965925826,74.980664016,-57.534687076)" fill="none" stroke="#000000" stroke-width="12"/>
	</g>
	<g>
		<path d="M129.14352777547577,383.68943415345296 C129.14352777547577,383.68943415345296 97.25683540891956,415.87265182996265 97.25683540891956,415.87265182996265 C97.25683540891956,415.87265182996265 129.14352777547577,383.68943415345296 129.14352777547577,383.68943415345296 Z" transform="matrix(0.965925826,0.258819045,-0.258819045,0.965925826,74.980664016,-57.534687076)" fill="none" stroke="#000000" stroke-width="12"/>
	</g>
	<g>
		<path d="M256,136 C322.21417333348165,136 376,189.78582666651832 376,256 C376,322.21417333348165 322.21417333348165,376 256,376 C189.78582666651832,376 136,322.21417333348165 136,256 C136,189.78582666651832 189.78582666651832,136 256,136 Z" fill="url('#4992282961020043225')" stroke="#000000" stroke-width="16"/>
	</g>
</g></g></svg>