<svg xmlns="http://www.w3.org/2000/svg" viewBox="0 0 512 512" width="512" height="512"><defs><linearGradient id="3820586097378449097" x1="448.38409953550104" y1="351.7275604387739" x2="232.48412089778367" y2="68.6041838974068" gradientTransform="matrix(0.003236246,0,0,0.003183866,-0.520255986,-0.185734024)"><stop stop-color="#2499bf" /><stop offset="1" stop-color="#89d9f3" /></linearGradient><linearGradient id="7444341440051302552" x1="253.38112728246784" y1="267.64157297770635" x2="252.66433221927213" y2="428.92509465084714" gradientTransform="matrix(0.01068712,0.002437555,-0.003087101,0.008438481,-1.177556734,-3.394128846)"><stop stop-color="#89d9f3" /><stop offset="1" stop-color="#2599c0" /></linearGradient><linearGradient id="9982113653931409939" x1="128.6880253820674" y1="361.47256777309775" x2="130.12166698017109" y2="114.88796937144468" gradientTransform="matrix(0.006187556,0.00094726,-0.001787349,0.003279285,0.006023383,-0.398271578)"><stop stop-color="#2599c0" /><stop offset="1" stop-color="#89d9f3" /></linearGradient></defs><g>
<g>
	<g>
		<path d="M163.2735045667468,235.78120817642755 C168.99464734629277,235.05835723209023 174.82583701132222,234.68567885098 180.74427230587236,234.68567885098 C256.1028207408706,234.68567885098 317.3166307083691,295.1063355584786 317.3166307083691,369.48845597847674 C317.3166307083691,373.25575971596186 317.15960398279424,376.98724926493315 316.85166588951176,380.67688850480477 C316.85166588951176,380.6768885048048 396.7162394508672,338.7432718634775 396.7162394508672,338.7432718634775 C396.7162394508672,338.7432718634775 445.46623945086594,109.99327186348302 445.46623945086594,109.99327186348302 C445.46623945086594,109.99327186348302 290.9662394508697,66.59327033848406 290.9662394508697,66.59327033848406 C290.9662394508697,66.59327033848406 136.46623945087342,109.99327186348302 136.46623945087342,109.99327186348302 C136.46623945087342,109.99327186348302 163.27350456674696,235.781208176428 163.2735045667468,235.78120817642755 Z" transform="matrix(1,0,0,1,24.292860085,-8.257256073)" fill="url('#3820586097378449097')" stroke="#000000" stroke-width="16" stroke-linecap="round" stroke-linejoin="bevel"/>
	</g>
	<g>
		<path d="M139.86663818359375,351.433299609375 C112.66668701171875,372.9666748046875 108.90475400039226,375.1464418969906 108.90475400039226,375.1464418969906 C108.90475400039226,375.1464418969906 142.70001220703125,423.34996032714895 142.70001220703125,423.34996032714895 C142.70001220703125,423.34996032714895 143.26666259765625,456.21659851074264 143.26666259765625,456.21659851074264 C143.26666259765625,456.21659851074264 184.63336181640625,465.2833099365239 184.63336181640625,465.2833099365239 C184.63336181640625,465.2833099365239 198.79998779296875,423.3499603271489 198.79998779296875,423.3499603271489 C198.79998779296875,423.3499603271489 166.5,413.71659851074264 166.5,413.71659851074264 C166.5,413.71659851074264 139.86663818359375,351.433299609375 139.86663818359375,351.433299609375 Z" transform="matrix(0.960721113,-0.277515663,0.277515663,0.960721113,6.781509093,34.45987507)" fill="url('#7444341440051302552')" stroke="#000000" stroke-width="16" stroke-linejoin="bevel"/>
	</g>
	<g>
		<path d="M93.3999744140625,332.16668701171875 C93.3999744140625,332.73333740234375 51.4666748046875,361.066650390625 51.4666748046875,361.066650390625 C51.4666748046875,361.066650390625 76.9666748046875,372.9666748046875 76.9666748046875,372.9666748046875 C76.9666748046875,372.9666748046875 166.5,304.9666248046875 166.5,304.9666248046875 C166.5,304.9666248046875 166.5,274.36666870116585 166.5,274.36666870116585 C166.5,274.36666870116585 122.30003779296877,304.9666248046875 122.30003779296877,304.9666248046875 C122.30003779296877,304.9666248046875 71.86663818359375,135.5333251953125 71.86663818359375,135.5333251953125 C71.86663818359375,135.5333251953125 11.23333740234375,80 11.23333740234375,80 C11.23333740234375,80 11.23333740234375,171.23333740234375 11.23333740234375,171.23333740234375 C11.23333740234375,171.23333740234375 93.3999744140625,332.16668701171875 93.3999744140625,332.16668701171875" transform="matrix(0.960721113,-0.277515663,0.277515663,0.960721113,-1.511242409,38.616506591)" fill="url('#9982113653931409939')" stroke="#000000" stroke-width="16" stroke-linejoin="round"/>
	</g>
	<g>
		<path d="" transform="matrix(1,0,0,1,1.839773996,-15.966022974)" fill="none" stroke="#fe0000" stroke-width="2"/>
	</g>
	<g>
		<path d="" transform="matrix(1,0,0,1,1.839773996,-15.966022974)" fill="none" stroke="#fe0000" stroke-width="2"/>
	</g>
</g></g></svg>