<svg xmlns="http://www.w3.org/2000/svg" viewBox="0 0 512 512" width="512" height="512"><defs><linearGradient id="13315957626349671555" x1="123.80089299566995" y1="466.6279244295196" x2="116.42396240234396" y2="208.72132080078117" gradientTransform="matrix(0.000572133,0.003211969,-0.003099181,0.000592954,1.129749559,-0.120816094)"><stop stop-color="#570f04" /><stop offset="1" stop-color="#ee1a0f" /></linearGradient><linearGradient id="12388687533732564941" x1="237.88865063867837" y1="496.5169564758052" x2="230.36954956054694" y2="316.4980456542967" gradientTransform="matrix(0.001617034,0.007532963,-0.007689628,0.001584089,3.188658525,-2.235357339)"><stop stop-color="#570f04" /><stop offset="1" stop-color="#ee1a0f" /></linearGradient><linearGradient id="13975041651573412937" x1="450.36935431030327" y1="408.822105485066" x2="408.75552319731116" y2="193.12875696076267" gradientTransform="matrix(0.002487323,0,0,0.002274102,-0.230223364,-0.036156662)"><stop stop-color="#570f04" /><stop offset="0.995014" stop-color="#ee1a0f" /></linearGradient></defs><g>
<g>
	<g>
		<path d="M226.5622472208171,238.5993842213055 C226.5622472208171,238.5993842213055 346.16030305165503,103.9340713106996 346.16030305165503,103.9340713106996 C346.16030305165503,103.9340713106996 424.2564075992506,71.90200804834295 424.2564075992506,71.90200804834295 C424.2564075992506,71.90200804834295 389.92503028053113,157.50688559529624 389.92503028053113,157.50688559529624 C389.92503028053113,157.50688559529624 261.75304309358535,262.9644137798299 261.75304309358535,262.9644137798299 C261.75304309358535,262.9644137798299 315.8388353796787,313.89956700122013 315.8388353796787,313.89956700122013 C315.8388353796787,313.89956700122013 276.19014115000385,315.18817624409877 276.19014115000385,315.18817624409877 C276.19014115000385,315.18817624409877 172.11639432091607,222.33681183967963 172.11639432091607,222.33681183967963 C172.11639432091607,222.33681183967963 176.3883118756379,187.12175152047686 176.3883118756379,187.12175152047686 C176.3883118756379,187.12175152047686 226.5622472208171,238.5993842213055 226.5622472208171,238.5993842213055 Z" transform="matrix(0.228458363,-1.237533814,1.237533814,0.228458363,-157.005430281,555.806072557)" fill="url('#13315957626349671555')" stroke="#000000" stroke-width="12" stroke-linecap="square" stroke-linejoin="round"/>
	</g>
	<g>
		<path d="M147.22294418975756,331.0898329936069 C147.22294418975756,331.0898329936069 116.61007951541923,382.46358584678035 116.61007951541923,382.46358584678035 C116.61007951541923,382.46358584678035 79.33160922436855,395.1812277405215 79.33160922436855,395.1812277405215 C79.33160922436855,395.1812277405215 82.20584836546213,438.0464227175794 83.33914914671213,438.0464227175794 C84.47244992796213,438.0464227175794 126.65943942269251,434.55874304155736 126.65943942269251,434.55874304155736 C126.65943942269251,434.55874304155736 132.86825060153444,399.71138132505865 132.86825060153444,399.71138132505865 C132.86825060153444,399.71138132505865 184.10912007780803,361.2642591118546 184.10912007780803,361.2642591118546 C184.10912007780803,361.2642591118546 147.22294418975756,331.0898329936069 147.22294418975756,331.0898329936069 Z" transform="matrix(0.249946991,-1.188595881,1.188595881,0.249946991,-212.691054377,468.406723097)" fill="url('#12388687533732564941')" stroke="#000000" stroke-width="12" stroke-linecap="square" stroke-linejoin="round"/>
	</g>
	<g>
		<path d="M317.52122355192665,125.51962056221646 C335.3797065797098,142.90914721330572 352.49049817457,163.45597825507917 367.98327636528427,187.73333739655828 C380.46648462159476,207.29466632291366 390.1800743741503,226.9803735073686 397.67962961996034,246.29230417227112 C397.67962961996034,246.29230417227112 366.0301830278074,276.23096140526434 366.0301830278074,276.23096140526434 C366.0301830278074,276.23096140526434 408.97700036797346,280.7997471603053 408.97700036797346,280.7997471603053 C433.26670803287163,371.07590925143916 413.6813597685184,445.58443455962407 412.95256752461387,448.0781104259699 C413.9654397240822,445.5015723990004 453.3906015800451,363.2601393892324 449.5930194428963,270.23515360523743 C467.9520901289849,257.4884226767755 493.22991775909566,239.76922749204127 493.07558046675604,238.94591709740337 C492.93381796658844,238.18968682090104 466.9359025793176,234.53371449657737 445.3994185433297,231.63173745080815 C439.55626838807984,199.37107911036122 427.39936445748344,166.95239098590076 405.69995117617964,137.1000061057913 C390.56908195856965,116.28411926611525 371.7948546415928,99.43940441032298 351.044359364485,85.81787510171077 C361.8655682030866,58.63434359019672 377.63915462028785,18.657224935517547 377.0776648586003,17.997521749026873 C376.4355055077077,17.24303858846926 330.4820511387376,47.77491705067932 307.88787800162686,62.858313789894424 C211.75039249442037,21.673961481100946 99.79198120498896,29.747665104672052 99.79198120498901,29.747665104672052 C99.79198120498901,29.747665104672052 196.9755408360098,30.279410211900142 287.6099065024871,99.6648269424031 C287.6099065024865,99.66482694240749 272.34997558164446,154.16665649860784 272.34997558164446,154.16665649860784 C272.34997558164446,154.16665649860784 317.52122355192625,125.51962056221768 317.52122355192665,125.51962056221646 ZM412.95256752461387,448.0781104259699 C412.9417331556406,448.105670842309 412.93529387660874,448.1241160751343 412.9333496113676,448.1333618181856 C412.92862418136633,448.15583308942615 412.93530789835927,448.13716692994973 412.95256752461387,448.0781104259699 Z" transform="matrix(1.022259748,0,0,1.022259748,-9.454620744,-2.484793055)" fill="url('#13975041651573412937')" stroke="#000000" stroke-width="12" stroke-linecap="square" stroke-linejoin="round"/>
	</g>
</g></g></svg>