<svg xmlns="http://www.w3.org/2000/svg" xmlns:graphite="https://graphite.art" viewBox="0 0 512 512" width="512" height="512"><defs><linearGradient id="9922797381505221484" x1="123.80089299566995" y1="466.6279244295196" x2="116.42396240234396" y2="208.72132080078117" gradientTransform="matrix(0.000572133,0.003211969,-0.003099181,0.000592954,1.129749559,-0.120816094)"><stop stop-color="#960018" /><stop offset="1" stop-color="#e60012" /></linearGradient><linearGradient id="951047330765316693" x1="237.88865063867837" y1="496.5169564758052" x2="230.36954956054694" y2="316.4980456542967" gradientTransform="matrix(0.001617034,0.007532963,-0.007689628,0.001584089,3.188658525,-2.235357339)"><stop stop-color="#960018" /><stop offset="1" stop-color="#e60012" /></linearGradient><linearGradient id="7992962873943208784" x1="450.369354303676" y1="408.822105488669" x2="408.7555231908616" y2="193.12875696288796" gradientTransform="matrix(0.002487323,0,0,0.002274102,-0.230223364,-0.036156662)"><stop offset="0.004986" stop-color="#960018" /><stop offset="1" stop-color="#e60012" /></linearGradient></defs><g>
<rect fill="#000000" fill-opacity="0" x="0" y="0" width="512" height="512"/>
<g>
	<g>
		<path d="M226.5622472208171,238.5993842213055 C226.5622472208171,238.5993842213055 346.16030305165503,103.9340713106996 346.16030305165503,103.9340713106996 C346.16030305165503,103.9340713106996 424.2564075992506,71.90200804834295 424.2564075992506,71.90200804834295 C424.2564075992506,71.90200804834295 389.92503028053113,157.50688559529624 389.92503028053113,157.50688559529624 C389.92503028053113,157.50688559529624 261.75304309358535,262.9644137798299 261.75304309358535,262.9644137798299 C261.75304309358535,262.9644137798299 315.8388353796787,313.89956700122013 315.8388353796787,313.89956700122013 C315.8388353796787,313.89956700122013 276.19014115000385,315.18817624409877 276.19014115000385,315.18817624409877 C276.19014115000385,315.18817624409877 172.11639432091607,222.33681183967963 172.11639432091607,222.33681183967963 C172.11639432091607,222.33681183967963 176.3883118756379,187.1217515204769 176.3883118756379,187.1217515204769 C176.3883118756379,187.1217515204769 226.5622472208171,238.5993842213055 226.5622472208171,238.5993842213055 Z" transform="matrix(0.228458363,-1.237533814,1.237533814,0.228458363,-157.005430281,555.806072557)" fill="url('#9922797381505221484')" stroke="#000000" stroke-width="12" stroke-linecap="square" stroke-linejoin="round"/>
	</g>
	<g>
		<path d="M147.22294418975756,331.0898329936069 C147.22294418975756,331.0898329936069 116.61007951541924,382.46358584678035 116.61007951541924,382.46358584678035 C116.61007951541924,382.46358584678035 79.33160922436855,395.1812277405215 79.33160922436855,395.1812277405215 C79.33160922436855,395.1812277405215 82.20584836546213,438.0464227175794 83.33914914671213,438.0464227175794 C84.47244992796213,438.0464227175794 126.65943942269251,434.55874304155736 126.65943942269251,434.55874304155736 C126.65943942269251,434.55874304155736 132.86825060153444,399.71138132505865 132.86825060153444,399.71138132505865 C132.86825060153444,399.71138132505865 184.10912007780803,361.2642591118546 184.10912007780803,361.2642591118546 C184.10912007780803,361.2642591118546 147.22294418975756,331.0898329936069 147.22294418975756,331.0898329936069 Z" transform="matrix(0.249946991,-1.188595881,1.188595881,0.249946991,-212.691054377,468.406723097)" fill="url('#951047330765316693')" stroke="#000000" stroke-width="12" stroke-linecap="square" stroke-linejoin="round"/>
	</g>
	<g>
		<path d="M307.88787800838503,62.85831379007277 C330.4820511410851,47.774917051669775 376.4355055085526,17.243038587146486 377.07766486,17.99752175 C377.6391546157875,18.657224938739592 361.86556818642214,58.63434362393801 351.04435941745305,85.81787513446403 C371.7948546718177,99.43940443622289 390.5690819676459,116.2841192798577 405.69995117,137.1000061 C427.3993644577009,166.95239098312354 439.55626838561346,199.3710791114226 445.3994185491265,231.63173744944604 C466.9359025830825,234.5337144991436 492.9338179644096,238.18968682259566 493.07558046,238.9459171 C493.22991776208204,239.76922749293647 467.9520901297575,257.4884226709271 449.59301944635064,270.23515360589556 C453.3905480068257,363.258826911397 413.9665522170382,445.49925171949667 412.95260491419026,448.07800132880885 C412.9525961130241,448.07803771354156 412.9525818098304,448.07807409827427 412.95256750960226,448.0781104830069 C412.9525781432664,448.07807409827427 412.95258877646467,448.07803771354156 412.95260491419026,448.07800132880885 C413.68193078119265,445.5822621900031 433.26635393401966,371.0745932080376 408.9770003655873,280.7997471632233 C390.14551979225536,278.7964089490883 366.03018303,276.2309614 366.03018303,276.2309614 C366.03018303,276.2309614 383.23679755118246,259.95443875048704 397.6796296634691,246.2923041625326 C390.1800744131601,226.98037358332888 380.4664846523654,207.29466636361414 367.98327637,187.7333374 C352.4904981783913,163.4559782558353 335.37970658229335,142.9091472120105 317.52122355311644,125.51962055937136 C297.6200387917654,138.14070101664848 272.38064538301074,154.14720609396244 272.34998655219823,154.16664468244164 C272.3574856994064,154.13983364887005 280.88244887647227,123.69237668641411 287.60990651066453,99.66482694463258 C196.9755408398492,30.279410206287096 99.7919812,29.7476651 99.7919812,29.7476651 C99.7919812,29.7476651 211.75039250045987,21.673961478593846 307.88787800838503,62.85831379007277 ZM412.95256750960226,448.0781104830069 C412.93530789279123,448.13716694122326 412.9286241802152,448.1558330897292 412.93334961,448.13336182 C412.93529130707145,448.12412828972833 412.9417161427672,448.1057195719982 412.95252459919385,448.07821963720517 C412.9525388996939,448.07818325247246 412.95255320316335,448.0781468677397 412.95256750960226,448.0781104830069 Z" transform="matrix(1.022259748,0,0,1.022259748,-9.454620744,-2.484793055)" fill="url('#7992962873943208784')" stroke="#000000" stroke-width="12" stroke-linecap="square" stroke-linejoin="round" fill-rule="evenodd"/>
	</g>
</g></g></svg>