<svg xmlns="http://www.w3.org/2000/svg" viewBox="0 0 511 511" width="511" height="511"><defs><linearGradient id="14420784098148839707" x1="134.57590079839466" y1="114.44352676261622" x2="194.471165237558" y2="401.40746994015785" gradientTransform="matrix(0.004438812,0.000780557,-0.001029035,0.003366983,0.071724758,-0.461353217)"><stop stop-color="#a926e9" /><stop offset="0.170687" stop-color="#9313d2" /><stop offset="1" stop-color="#5d0b84" /></linearGradient><linearGradient id="5283457251624641241" x1="448.0177667765071" y1="155.16968403724252" x2="319.0352199048407" y2="361.5774303408368" gradientTransform="matrix(0.003678487,0,0,0.003010551,-0.83002211,-0.254462016)"><stop stop-color="#a926e9" /><stop offset="0.193326" stop-color="#9313d2" /><stop offset="1" stop-color="#5d0b84" /></linearGradient></defs><g>
<g>
	<g>
		<path d="M266.78241161043974,201.22820471210682 C244.47467349911165,193.29640536453545 218.06561011966815,189.63786055603353 193.47914117044496,200.7382420010663 C193.47914117044496,200.7382420010663 215.91306783044286,141.22412277107193 215.91306783044286,141.22412277107193 C234.67042979723874,134.91041110523008 251.70143976948413,133.37088598728937 266.782411610443,134.7113413473585 C266.7824116104381,134.71134134736567 266.7824116104381,43.71340301108113 266.7824116104381,43.71340301108113 C266.7824116104381,43.71340301108113 227.10551946044177,43.71340301108113 227.10551946044177,43.71340301108113 C227.10551946044177,43.71340301108113 126.63762364045127,304.31728233105656 126.63762364045127,304.31728233105656 C184.99690708044577,304.28216342105657 266.7824116104381,303.75265672105655 266.7824116104381,303.75265672105655 C266.7824116104381,303.75265672105655 266.7824116104381,201.22820471210858 266.78241161043974,201.22820471210682 ZM195.67264136044477,43.71340301108113 C195.67264136044477,43.71340301108113 69.1058941604567,43.71340301108113 69.1058941604567,43.71340301108113 C69.1058941604567,43.71340301108113 69.1058941604567,303.75265672105655 69.1058941604567,303.75265672105655 C69.28426240045668,304.03013152105655 78.75431022045579,304.18678860105655 93.4618125704544,304.26208269105655 C93.4618125704544,304.26208269105655 195.67264136044477,43.71340301108113 195.67264136044477,43.71340301108113 Z" transform="matrix(1.081541533,-0.250730236,0.250730236,1.081541533,-70.890181129,103.638217289)" fill="url('#14420784098148839707')" stroke="#000000" stroke-width="16" stroke-linecap="round" stroke-linejoin="round"/>
	</g>
	<g>
		<path d="M296.59479225205075,132.4013007658987 C339.56919825762975,130.7263499488696 369.79435272,154.1767867 369.79435272,154.1767867 C369.79435272,154.1767867 384.18450166,102.31227165 384.18450166,102.31227165 C384.18450166,102.31227165 433.91410343,222.13317012000002 433.91410343,222.13317012000002 C433.91410343,222.13317012000002 344.63576621,273.82064241 344.63576621,273.82064241 C344.63576621,273.82064241 359.06211304,215.08490417000002 359.06211304,215.08490417000002 C359.06211304,215.08490417000002 322.8676047010723,197.05807700330558 283.7239016384995,197.26425731282018 C283.72390163849906,197.2642573128229 262.13183177,306.07766671 262.13183177,306.07766671 C262.74737542,307.63947818 455.22792374,344.39412359 455.22792374,344.39412359 C455.22792374,344.39412359 506.99308577,83.52317408 506.99308577,83.52317408 C506.99308577,83.52317408 313.8969938,45.2067172 313.8969938,45.2067172 C313.8969938,45.2067172 296.59479225204956,132.40130076590097 296.59479225205075,132.4013007658987 Z" transform="matrix(1.110224185,0,0,1.110224185,-65.382853143,34.333808933)" fill="url('#5283457251624641241')" stroke="#000000" stroke-width="16" stroke-linecap="round" stroke-linejoin="round"/>
	</g>
</g></g></svg>