<svg xmlns="http://www.w3.org/2000/svg" viewBox="0 0 511 511" width="511" height="511"><defs><linearGradient id="15382865307833196530" x1="272.67078865014867" y1="54.28463408066071" x2="263.1091868661275" y2="488.12072745649306" gradientTransform="matrix(0.003078166,0,0,0.002334878,-0.288010549,-0.097727664)"><stop stop-color="#a926e9" /><stop offset="0.170687" stop-color="#9313d2" /><stop offset="1" stop-color="#5d0b84" /></linearGradient></defs><g>
<g>
	<g>
		<path d="M93.56562638416193,142.03853852729424 C137.96512016733078,140.73302361834413 264.00615804370943,144.37052648251608 281.2573466097928,226.23353142852505 C320.7966646071501,196.28652888454383 328.83226847892234,110.56778320858105 328.36609386728117,41.85557205115637 C328.36609386728117,41.85557205115637 93.56562638420453,41.85557205115637 93.56562638420453,41.85557205115637 C93.56562638420453,41.85557205115637 93.5656263842045,142.0385385272968 93.56562638416193,142.03853852729424 ZM93.56562638419099,199.07332736168445 C93.5656263842045,199.07332736168416 93.56562638420448,469.21349840350365 93.56562638420448,469.21349840350365 C93.84488539274938,469.6479217847259 107.98278670451367,469.9021442258395 130.21868527940407,470.03222690232724 C128.0013778804301,378.48579373355255 142.40078651954357,254.48126827353929 234.04737119851623,238.73335987024922 C227.5101786613971,185.04898900557328 136.07588608636377,192.58821203988003 93.56562638419099,199.07332736168445 ZM311.02936627981,276.1655575286005 C350.63368991161053,290.36894865506054 418.4343736241789,276.32019225090903 418.4343736241789,276.32019225090903 C418.43437362417893,276.3201922509091 418.43437362417893,41.85557205115637 418.43437362417893,41.85557205115637 C418.43437362417893,41.85557205115637 379.23351371147834,41.85557205115637 379.23351371147834,41.85557205115637 C379.58154595681367,122.50212647987526 368.3441366280477,230.79827257451905 311.02936627981,276.1655575286005 ZM258.376947621687,297.024247842523 C255.69897484783016,297.2801313732763 252.96360750155256,297.4461510185377 250.16967546265397,297.51923395229676 C185.90327941652933,299.2002973112173 179.0473944972034,394.09818979019315 183.92479836079025,470.1434330047348 C280.05744767254214,470.1093968984293 418.4343736241789,469.21349840350365 418.4343736241789,469.21349840350365 C418.4343736241789,469.21349840350365 418.43437362417893,326.71896106892706 418.43437362417893,326.71896106892706 C403.0142747806188,328.3780262166847 304.6349441505942,337.1611351578369 258.376947621687,297.024247842523 Z" fill="url('#15382865307833196530')" stroke="#000000" stroke-width="16" stroke-linecap="round" stroke-linejoin="round"/>
	</g>
</g></g></svg>