<svg xmlns="http://www.w3.org/2000/svg" viewBox="0 0 683 512" width="683" height="512"><defs><linearGradient id="10126037900768329149" x1="186.5975255900599" y1="95.88430391001512" x2="21.11293090631475" y2="387.3493789049895" gradientTransform="matrix(0.001225896,0.006233557,-0.006640544,0.001150763,1.251892699,0.031788116)"><stop stop-color="#103020" /><stop offset="0.309189" stop-color="#156b2d" /><stop offset="1" stop-color="#103020" /></linearGradient><linearGradient id="98984201776214531" x1="221.41311055322615" y1="234.63295640766316" x2="178.2629614567937" y2="478.05820159842676" gradientTransform="matrix(0.001003724,0.006101737,-0.005437061,0.001126428,2.13337425,-1.222155109)"><stop stop-color="#103020" /><stop offset="0.338902" stop-color="#156b2d" /><stop offset="1" stop-color="#103020" /></linearGradient><linearGradient id="11259076507474947065" x1="210.33345845471624" y1="387.0944764115975" x2="270.16619591141716" y2="583.282482418923" gradientTransform="matrix(0.001470644,0.00641033,-0.00699349,0.001348013,3.185636404,-2.04798363)"><stop stop-color="#103020" /><stop offset="0.283393" stop-color="#156b2d" /><stop offset="1" stop-color="#103020" /></linearGradient><linearGradient id="7023262689722345918" x1="42.49537670653869" y1="-32.47571950256372" x2="223.72714051218048" y2="441.2630285117564" gradientTransform="matrix(0.000520838,0.002707946,-0.002821321,0.000499908,1.107019892,0.013809212)"><stop stop-color="#103020" /><stop offset="0.450765" stop-color="#156b2d" /><stop offset="1" stop-color="#103020" /></linearGradient><linearGradient id="9287688629420473244" x1="190.77382476901556" y1="290.52502485483313" x2="272.65039592306044" y2="549.8767425666874" gradientTransform="matrix(0.001477691,0.00641033,-0.007026999,0.001348013,3.200900517,-2.04798363)"><stop stop-color="#103020" /><stop offset="0.441426" stop-color="#156b2d" /><stop offset="1" stop-color="#103020" /></linearGradient><linearGradient id="5892908576950642564" x1="267.0962300551604" y1="77.07852494540288" x2="347.92260715511514" y2="122.33314469072207" gradientTransform="matrix(0.023066587,0.001660836,-0.003763004,0.010180647,-6.07480861,-1.003793805)"><stop stop-color="#103020" /><stop offset="0.494808" stop-color="#156b2d" /><stop offset="1" stop-color="#103020" /></linearGradient><linearGradient id="1493890575086971085" x1="563.4947275826274" y1="202.0139049105834" x2="441.22148763306274" y2="185.90265938693318" gradientTransform="matrix(-0.001930148,-0.010278217,0.022723214,-0.000873049,-2.755748626,6.044741537)"><stop stop-color="#103020" /><stop offset="0.399038" stop-color="#156b2d" /><stop offset="1" stop-color="#103020" /></linearGradient><linearGradient id="15717247633795350052" x1="345.2345641273163" y1="20.93833459535066" x2="325.92514886952995" y2="148.76226934548438" gradientTransform="matrix(0.021839253,-0.002970108,0.006566352,0.009878381,-7.477852351,0.845971782)"><stop stop-color="#103020" /><stop offset="0.493256" stop-color="#156b2d" /><stop offset="1" stop-color="#103020" /></linearGradient><linearGradient id="15387573166263496095" x1="578.8317613512852" y1="262.9818151491067" x2="486.8371827199759" y2="210.9016650157343" gradientTransform="matrix(-0.016790254,-0.00941128,0.02090965,-0.00755717,4.736438518,7.495398585)"><stop stop-color="#103020" /><stop offset="0.392335" stop-color="#156b2d" /><stop offset="1" stop-color="#103020" /></linearGradient><linearGradient id="16082831578931837772" x1="109.41895394927509" y1="255.01340226798095" x2="199.98224939243295" y2="198.77423855753773" gradientTransform="matrix(0.018199163,0.00985243,0.022664228,-0.007911409,-7.527639407,0.949742625)"><stop stop-color="#103020" /><stop offset="0.535673" stop-color="#156b2d" /><stop offset="1" stop-color="#103020" /></linearGradient><linearGradient id="15344103151552579849" x1="336.46259734414605" y1="111.19436242547317" x2="447.98111481092366" y2="36.632540016532296" gradientTransform="matrix(0.011850142,-0.006881103,0.015345382,0.005313784,-5.500961289,2.761306499)"><stop stop-color="#103020" /><stop offset="0.373053" stop-color="#156b2d" /><stop offset="1" stop-color="#103020" /></linearGradient><linearGradient id="7798119805076700785" x1="117.68886058533663" y1="163.29907897195136" x2="256.02649606388377" y2="217.37101185119906" gradientTransform="matrix(0.01399502,0.006862538,-0.014284442,0.006723494,0.845036322,-1.918398952)"><stop stop-color="#103020" /><stop offset="0.452531" stop-color="#156b2d" /><stop offset="1" stop-color="#103020" /></linearGradient></defs><g>
<g>
	<g>
		<g transform="matrix(0.089895177,0.831085198,-0.831085198,0.089895177,527.647503999,108.622731118)">
			<path d="M388.07958707140676,51.55748263601564 C388.07958707140676,51.55748263601564 449.08861233011214,26.619814464252606 449.08861233011214,26.619814464252606 C449.08861233011214,26.619814464252606 433.681347033694,89.37965820197672 433.681347033694,89.37965820197672 L371.68031952024126,151.9780376418597 C371.68031952024126,151.9780376418597 331.4133599496302,117.17866539153586 331.4133599496302,117.17866539153586 L388.07958707140676,51.55748263601564 Z" transform="matrix(0.228458363,-1.237533814,1.237533814,0.228458363,-147.244277487,585.45284395)" fill="url('#10126037900768329149')" stroke="#000000" stroke-width="12" stroke-linecap="square" stroke-linejoin="round"/>
		</g>
		<g transform="matrix(0.089895177,0.831085198,-0.831085198,0.089895177,527.647503999,108.622731118)">
			<path d="M226.5622472208171,238.5993842213055 C226.5622472208171,238.5993842213055 176.3883118756379,187.1217515204769 176.3883118756379,187.1217515204769 C176.3883118756379,187.1217515204769 172.11639432091607,222.33681183967963 172.11639432091607,222.33681183967963 C172.11639432091607,222.33681183967963 276.19014115000385,315.18817624409877 276.19014115000385,315.18817624409877 C276.19014115000385,315.18817624409877 315.8388353796787,313.89956700122013 315.8388353796787,313.89956700122013 C315.8388353796787,313.89956700122013 261.75304309358535,262.9644137798299 261.75304309358535,262.9644137798299 L309.04489114895654,215.21693010561043 C309.04489114895654,215.21693010561043 270.9046557524369,187.2495513160698 270.9046557524369,187.2495513160698 L226.5622472208171,238.5993842213055 Z" transform="matrix(0.228458363,-1.237533814,1.237533814,0.228458363,-147.244277487,585.45284395)" fill="url('#98984201776214531')" stroke="#000000" stroke-width="12" stroke-linecap="square" stroke-linejoin="round"/>
		</g>
		<g transform="matrix(0.089895177,0.831085198,-0.831085198,0.089895177,527.647503999,108.622731118)">
			<path d="M164.49036009481688,312.35866235625696 C164.49036009481688,312.35866235625696 116.61007951541924,382.46358584678035 116.61007951541924,382.46358584678035 C116.61007951541924,382.46358584678035 79.33160922436855,395.1812277405215 79.33160922436855,395.1812277405215 C79.33160922436855,395.1812277405215 82.20584836546213,438.0464227175794 83.33914914671213,438.0464227175794 C84.47244992796213,438.0464227175794 126.65943942269251,434.55874304155736 126.65943942269251,434.55874304155736 C126.65943942269251,434.55874304155736 132.86825060153444,399.71138132505865 132.86825060153444,399.71138132505865 C132.86825060153444,399.71138132505865 194.53876820416414,338.16921073959344 194.53876820416414,338.16921073959344 C194.53876820416414,338.16921073959344 164.49036009481688,312.35866235625696 164.49036009481688,312.35866235625696 Z" transform="matrix(0.249946991,-1.188595881,1.188595881,0.249946991,-176.877214908,516.78242945)" fill="url('#11259076507474947065')" stroke="#000000" stroke-width="12" stroke-linecap="square" stroke-linejoin="round"/>
		</g>
	</g>
	<g>
		<g transform="matrix(-0.089895177,0.831085198,0.831085198,0.089895177,175.53107841,108.622731118)">
			<path d="M226.5622472208171,238.5993842213055 C226.5622472208171,238.5993842213055 388.07958707140676,51.55748263601564 388.07958707140676,51.55748263601564 C388.07958707140676,51.55748263601564 449.08861233011214,26.619814464252606 449.08861233011214,26.619814464252606 C449.08861233011214,26.619814464252606 433.681347033694,89.37965820197672 433.681347033694,89.37965820197672 C433.681347033694,89.37965820197672 261.75304309358535,262.9644137798299 261.75304309358535,262.9644137798299 C261.75304309358535,262.9644137798299 315.8388353796787,313.89956700122013 315.8388353796787,313.89956700122013 C315.8388353796787,313.89956700122013 276.19014115000385,315.18817624409877 276.19014115000385,315.18817624409877 C276.19014115000385,315.18817624409877 172.11639432091607,222.33681183967963 172.11639432091607,222.33681183967963 C172.11639432091607,222.33681183967963 176.3883118756379,187.1217515204769 176.3883118756379,187.1217515204769 C176.3883118756379,187.1217515204769 226.5622472208171,238.5993842213055 226.5622472208171,238.5993842213055 Z" transform="matrix(0.228458363,-1.237533814,1.237533814,0.228458363,-147.244277487,585.45284395)" fill="url('#7023262689722345918')" stroke="#000000" stroke-width="12" stroke-linecap="square" stroke-linejoin="round"/>
		</g>
		<g transform="matrix(-0.089895177,0.831085198,0.831085198,0.089895177,175.53107841,108.622731118)">
			<path d="M164.49036009481688,312.35866235625696 C164.49036009481688,312.35866235625696 116.61007951541924,382.46358584678035 116.61007951541924,382.46358584678035 C116.61007951541924,382.46358584678035 79.33160922436855,395.1812277405215 79.33160922436855,395.1812277405215 C79.33160922436855,395.1812277405215 82.20584836546213,438.0464227175794 83.33914914671213,438.0464227175794 C84.47244992796213,438.0464227175794 126.65943942269251,434.55874304155736 126.65943942269251,434.55874304155736 C126.65943942269251,434.55874304155736 132.86825060153444,399.71138132505865 132.86825060153444,399.71138132505865 C132.86825060153444,399.71138132505865 193.9893805976102,338.2785184042827 193.9893805976102,338.2785184042827 C193.9893805976102,338.2785184042827 164.49036009481688,312.35866235625696 164.49036009481688,312.35866235625696 Z" transform="matrix(0.249946991,-1.188595881,1.188595881,0.249946991,-176.877214908,516.78242945)" fill="url('#9287688629420473244')" stroke="#000000" stroke-width="12" stroke-linecap="square" stroke-linejoin="round"/>
		</g>
	</g>
	<g>
		<path d="M553.4338559248679,204.23086429122506 L538.8594889067567,127.3885170611052 C538.8594889067567,127.3885170611052 518.154815377786,107.28682250382477 518.154815377786,107.28682250382477 C518.154815377786,107.28682250382477 510.64672509046375,137.23853608473934 510.64672509046375,137.23853608473934 L553.4338559248679,204.23086429122506 Z" transform="matrix(0.986953076,-0.161008152,0.161008152,0.986953076,-249.057984557,30.523611172)" fill="url('#5892908576950642564')" stroke="#000000" stroke-width="12" stroke-linecap="square" stroke-linejoin="round"/>
	</g>
	<g>
		<path d="M553.4338559248679,204.23086429122506 L545.2495667103624,126.927136363634 C545.2495667103624,126.927136363634 518.154815377786,107.28682250382477 518.154815377786,107.28682250382477 C518.154815377786,107.28682250382477 509.5839036150203,139.55683270171605 509.5839036150203,139.55683270171605 L553.4338559248679,204.23086429122506 Z" transform="matrix(-0.084636878,0.996411862,-0.996411862,-0.084636878,723.703001066,-328.671815167)" fill="url('#1493890575086971085')" stroke="#000000" stroke-width="12" stroke-linecap="square" stroke-linejoin="round"/>
	</g>
	<g>
		<path d="M553.4338559248679,204.23086429122506 L545.2495667103624,126.927136363634 C545.2495667103624,126.927136363634 518.154815377786,107.28682250382477 518.154815377786,107.28682250382477 C518.154815377786,107.28682250382477 509.5839036150203,139.55683270171605 509.5839036150203,139.55683270171605 L553.4338559248679,204.23086429122506 Z" transform="matrix(0.957650186,0.287934231,-0.287934231,0.957650186,-119.480712963,-233.593995857)" fill="url('#15717247633795350052')" stroke="#000000" stroke-width="12" stroke-linecap="square" stroke-linejoin="round"/>
	</g>
	<g>
		<path d="M546.8743411464254,194.83812652796314 L541.6405186262326,128.77708112918663 C541.6405186262326,128.77708112918663 518.843251445334,111.98754570160995 518.843251445334,111.98754570160995 C518.843251445334,111.98754570160995 509.5839036150203,139.55683270171605 509.5839036150203,139.55683270171605 L546.8743411464254,194.83812652796314 Z" transform="matrix(-0.626115901,0.779730004,-0.779730004,-0.626115901,1001.176515719,-76.122801804)" fill="url('#15387573166263496095')" stroke="#000000" stroke-width="12" stroke-linecap="square" stroke-linejoin="round"/>
	</g>
	<g>
		<path d="M545.3056079630838,186.42770373168273 L540.3447681149909,127.55815308544412 C540.3447681149909,127.55815308544412 518.154815377786,107.28682250382477 518.154815377786,107.28682250382477 C518.154815377786,107.28682250382477 510.90205315183164,135.27184039630387 510.90205315183164,135.27184039630387 L545.3056079630838,186.42770373168273 Z" transform="matrix(0.626115901,0.779730004,0.779730004,-0.626115901,-299.99590004,-82.198061857)" fill="url('#16082831578931837772')" stroke="#000000" stroke-width="12" stroke-linecap="square" stroke-linejoin="round"/>
	</g>
	<g>
		<path d="M558.3362075849581,212.75778762302235 L539.434645848986,113.36881714964431 C539.434645848986,113.36881714964431 513.4669189323595,97.73611134356096 513.4669189323595,97.73611134356096 C513.4669189323595,97.73611134356096 506.7587382891103,132.44144464609943 506.7587382891103,132.44144464609943 L558.3362075849581,212.75778762302235 Z" transform="matrix(0.61120031,0.791475951,-0.791475951,0.61120031,192.418654009,-430.385050701)" fill="url('#15344103151552579849')" stroke="#000000" stroke-width="12" stroke-linecap="square" stroke-linejoin="round"/>
	</g>
	<g>
		<path d="M556.8920748153342,201.82385951553232 L542.0793124041628,114.96057649863388 C542.0793124041628,114.96057649863388 513.4669189323595,97.73611134356096 513.4669189323595,97.73611134356096 C513.4669189323595,97.73611134356096 506.8861913912704,128.85447203122175 506.8861913912704,128.85447203122175 L556.8920748153342,201.82385951553232 Z" transform="matrix(0.699833363,-0.714306142,0.714306142,0.699833363,-311.488126923,463.601215864)" fill="url('#7798119805076700785')" stroke="#000000" stroke-width="12" stroke-linecap="square" stroke-linejoin="round"/>
	</g>
</g></g></svg>