<svg xmlns="http://www.w3.org/2000/svg" viewBox="0 0 683 512" width="683" height="512"><defs><linearGradient id="16919627694274939684" x1="390.4391325646692" y1="161.30980958963949" x2="473.2205651610142" y2="220.9235056910515" gradientTransform="matrix(0.007275097,-0.005651072,0.014543235,0.002826888,-5.20758772,2.484531681)"><stop stop-color="#9b4e12" /><stop offset="0.542721" stop-color="#ef8f1e" /><stop offset="1" stop-color="#9b4e12" /></linearGradient><linearGradient id="2705563784062078325" x1="200.33556114160405" y1="216.50399092982548" x2="266.6133254129714" y2="274.5575098024066" gradientTransform="matrix(0.006011674,-0.006448637,0.012017598,0.003225861,-4.208376582,1.220947188)"><stop stop-color="#9b4e12" /><stop offset="0.56449" stop-color="#ef8f1e" /><stop offset="1" stop-color="#9b4e12" /></linearGradient><linearGradient id="1851384058381737160" x1="386.33089682107993" y1="419.5599645098076" x2="34.69426327082982" y2="168.09431001652956" gradientTransform="matrix(0.000695087,0.003709742,-0.003765207,0.000684847,1.546029453,-0.461407522)"><stop stop-color="#9b4e12" /><stop offset="0.477644" stop-color="#ef8f1e" /><stop offset="1" stop-color="#9b4e12" /></linearGradient><linearGradient id="11202751428040134603" x1="176.87113230546294" y1="384.4904073266239" x2="402.860579126085" y2="507.57559639511146" gradientTransform="matrix(0.001714328,0.007889303,-0.008152301,0.001659023,3.723452276,-2.69595208)"><stop stop-color="#9b4e12" /><stop offset="1" stop-color="#ef8f1e" /></linearGradient><linearGradient id="5553771361759466109" x1="589.7779013710222" y1="478.22858031507667" x2="307.7345524069025" y2="313.25982463583296" gradientTransform="matrix(0.002960348,-0.00437955,0.005917863,0.002190823,-3.108262583,1.581079587)"><stop stop-color="#9b4e12" /><stop offset="0.609765" stop-color="#ef8f1e" /><stop offset="1" stop-color="#9b4e12" /></linearGradient><linearGradient id="15344087645516166958" x1="375.9474277576969" y1="475.8097147770135" x2="71.65025475772364" y2="272.6223987229796" gradientTransform="matrix(-0.002960348,0.00437955,0.005917863,0.002190823,-1.119226119,-1.364244587)"><stop stop-color="#9b4e12" /><stop offset="0.508901" stop-color="#ef8f1e" /><stop offset="1" stop-color="#9b4e12" /></linearGradient><linearGradient id="2252920364543768894" x1="329.98842306519816" y1="353.41354271249224" x2="595.0994801506675" y2="491.2906034124304" gradientTransform="matrix(0.003740275,-0.003478285,0.007476971,0.001739975,-4.666036081,1.380519234)"><stop stop-color="#9b4e12" /><stop offset="0.408707" stop-color="#ef8f1e" /><stop offset="1" stop-color="#9b4e12" /></linearGradient><linearGradient id="4596823505009337203" x1="340.6315806244893" y1="528.0579004113135" x2="21.03190330641152" y2="318.217869873968" gradientTransform="matrix(-0.003740275,0.003478285,0.007476971,0.001739975,-2.155182645,-0.954460298)"><stop stop-color="#9b4e12" /><stop offset="0.492823" stop-color="#ef8f1e" /><stop offset="1" stop-color="#9b4e12" /></linearGradient></defs><g>
<g>
	<g>
		<path d="M394.1135904069331,-298.9377737367196 C394.1135904069331,-298.9377737367196 452.8246724629374,-239.7103838468479 425.01382910771497,-133.03726286573328 C425.01382910771497,-133.03726286573328 454.11960907746,-122.77784897947306 454.11960907746,-122.77784897947306 C491.2079708301496,-269.60761169921136 394.1135904069331,-298.9377737367196 394.1135904069331,-298.9377737367196 Z" transform="matrix(0.401926554,0.803468599,-0.803468599,0.401926554,96.337853927,-86.013826989)" fill="url('#16919627694274939684')" stroke="#000000" stroke-width="12" stroke-linecap="square" stroke-linejoin="round"/>
	</g>
	<g>
		<path d="M469.093583653544,57.06124283252687 C469.093583653544,57.06124283252687 447.2633069210055,119.02708490238271 410.1016193158598,101.50896336977569 C392.820051763134,93.36238499369868 372.83873553394346,41.23751198414161 398.5149228792411,-49.74356416242846 C398.5149228792411,-49.74356416242846 429.6940694213628,-29.57876959033259 429.6940694213628,-29.57876959033259 C388.3939913425173,136.67048830310674 469.093583653544,57.06124283252687 469.093583653544,57.06124283252687 Z" transform="matrix(0.401926554,0.803468599,-0.803468599,0.401926554,96.337853927,-86.013826989)" fill="url('#2705563784062078325')" stroke="#000000" stroke-width="12" stroke-linecap="square" stroke-linejoin="round"/>
	</g>
	<g>
		<g transform="matrix(-0.60998479,-0.447041324,0.447041324,-0.60998479,319.062677809,493.228354103)">
			<path d="M227.39168004274637,243.00742131409035 C227.39168004274637,243.00742131409035 330.46415550103995,109.1324154119134 330.46415550103995,109.1324154119134 C330.46415550103995,109.1324154119134 366.4637092397728,119.95936528722795 366.4637092397728,119.95936528722795 C366.4637092397728,119.95936528722795 379.4018815827609,155.2551782034035 379.4018815827609,155.2551782034035 C379.4018815827609,155.2551782034035 251.8605430836068,266.0688027098354 251.8605430836068,266.0688027098354 C251.8605430836068,266.0688027098354 308.8439812873351,319.77447752858825 308.8439812873351,319.77447752858825 C308.8439812873351,319.77447752858825 273.8227179716929,316.3016741191063 273.8227179716929,316.3016741191063 C273.8227179716929,316.3016741191063 171.86279396082534,220.87384458817223 171.86279396082534,220.87384458817223 C171.86279396082534,220.87384458817223 172.27276724504847,191.0590219126188 172.27276724504847,191.0590219126188 C172.27276724504847,191.0590219126188 227.39168004274637,243.00742131409035 227.39168004274637,243.00742131409035 Z" transform="matrix(0.228458363,-1.237533814,1.237533814,0.228458363,-127.343871206,607.03510043)" fill="url('#1851384058381737160')" stroke="#000000" stroke-width="12" stroke-linecap="square" stroke-linejoin="round"/>
		</g>
		<g transform="matrix(-0.60998479,-0.447041324,0.447041324,-0.60998479,319.062677809,493.228354103)">
			<path d="M152.22755456071735,335.8055068912148 C152.22755456071735,335.8055068912148 116.61007951541924,382.46358584678035 116.61007951541924,382.46358584678035 C116.61007951541924,382.46358584678035 79.33160922436855,395.1812277405215 79.33160922436855,395.1812277405215 C79.33160922436855,395.1812277405215 82.89966890120411,437.93113791376953 84.03296968245411,437.93113791376953 C85.16627046370411,437.93113791376953 126.65943942269251,434.55874304155736 126.65943942269251,434.55874304155736 C126.65943942269251,434.55874304155736 132.86825060153444,399.71138132505865 132.86825060153444,399.71138132505865 C132.86825060153444,399.71138132505865 178.16260557851717,359.06569830573676 178.16260557851717,359.06569830573676 C178.16260557851717,359.06569830573676 152.22755456071735,335.8055068912148 152.22755456071735,335.8055068912148 Z" transform="matrix(0.249946991,-1.188595881,1.188595881,0.249946991,-183.693236448,516.570872642)" fill="url('#11202751428040134603')" stroke="#000000" stroke-width="12" stroke-linecap="square" stroke-linejoin="round"/>
		</g>
	</g>
	<g>
		<path d="M349.37170130446316,59.920786489259854 C349.37170130446316,59.920786489259854 412.4120483354739,130.8684445228178 412.4120483354739,130.8684445228178 C412.4120483354739,130.8684445228178 308.6737292377281,207.45898127925344 326.31355366663155,287.2255258754937 C326.31355366663155,287.2255258754937 246.24222582608755,250.3236883968686 246.24222582608755,250.3236883968686 C227.02329829169125,184.74393559136038 349.37170130446316,59.920786489259854 349.37170130446316,59.920786489259854 Z" transform="matrix(0.401926554,0.803468599,-0.803468599,0.401926554,448.906435665,55.373740379)" fill="url('#5553771361759466109')" stroke="#000000" stroke-width="12" stroke-linecap="square" stroke-linejoin="round"/>
	</g>
	<g>
		<path d="M349.37170130446316,59.920786489259854 C349.37170130446316,59.920786489259854 412.4120483354739,130.8684445228178 412.4120483354739,130.8684445228178 C412.4120483354739,130.8684445228178 308.6737292377281,207.45898127925344 326.31355366663155,287.2255258754937 C326.31355366663155,287.2255258754937 246.24222582608755,250.3236883968686 246.24222582608755,250.3236883968686 C227.02329829169125,184.74393559136038 349.37170130446316,59.920786489259854 349.37170130446316,59.920786489259854 Z" transform="matrix(-0.401926554,0.803468599,0.803468599,0.401926554,223.486129641,55.623709862)" fill="url('#15344087645516166958')" stroke="#000000" stroke-width="12" stroke-linecap="square" stroke-linejoin="round"/>
	</g>
	<g>
		<path d="M328.14659892102003,-16.287146591762006 C328.14659892102003,-16.287146591762006 418.8054453560459,93.19224372234082 418.8054453560459,93.19224372234082 C418.8054453560459,93.19224372234082 294.39144001905424,196.36366459890803 318.66686212929,269.91490229432327 C318.66686212929,269.91490229432327 291.7502250348487,256.5034988754254 291.7502250348487,256.5034988754254 C257.34641920188807,193.50436268601908 380.0296273076249,90.96324583940518 380.0296273076249,90.96324583940518 C380.0296273076249,90.96324583940518 304.31111253911723,6.125785720187075 304.31111253911723,6.125785720187075 C304.31111253911723,6.125785720187075 328.14659892102003,-16.287146591762006 328.14659892102003,-16.287146591762006 Z" transform="matrix(0.401926554,0.803468599,-0.803468599,0.401926554,439.247516868,117.367658922)" fill="url('#2252920364543768894')" stroke="#000000" stroke-width="12" stroke-linecap="square" stroke-linejoin="round"/>
	</g>
	<g>
		<path d="M328.14659892102003,-16.287146591762006 C328.14659892102003,-16.287146591762006 418.8054453560459,93.19224372234082 418.8054453560459,93.19224372234082 C418.8054453560459,93.19224372234082 294.39144001905424,196.36366459890803 318.66686212929,269.91490229432327 C318.66686212929,269.91490229432327 291.7502250348487,256.5034988754254 291.7502250348487,256.5034988754254 C257.34641920188807,193.50436268601908 380.0296273076249,90.96324583940518 380.0296273076249,90.96324583940518 C380.0296273076249,90.96324583940518 304.31111253911723,6.125785720187075 304.31111253911723,6.125785720187075 C304.31111253911723,6.125785720187075 328.14659892102003,-16.287146591762006 328.14659892102003,-16.287146591762006 Z" transform="matrix(-0.401926554,0.803468599,0.803468599,0.401926554,232.054395466,117.367658922)" fill="url('#4596823505009337203')" stroke="#000000" stroke-width="12" stroke-linecap="square" stroke-linejoin="round"/>
	</g>
</g></g></svg>