<svg xmlns="http://www.w3.org/2000/svg" viewBox="0 0 512 512" width="512" height="512"><defs><linearGradient id="13432191858040005135" x1="52.395522397551815" y1="418.48083279256355" x2="241.87386910325142" y2="166.66009664862003" gradientTransform="matrix(0.00208036,-0.000704145,0.000557583,0.002627187,-0.265795836,0.013661624)"><stop stop-color="#c2530b" /><stop offset="0.998634" stop-color="#e8a415" /></linearGradient><linearGradient id="3299587079682502356" x1="30.226215388592436" y1="421.3407363555468" x2="128.43500558044582" y2="338.5408316007472" gradientTransform="matrix(0.004483137,-0.003022805,0.002252555,0.006016124,-1.008057774,-1.367275084)"><stop stop-color="#c2530b" /><stop offset="0.998634" stop-color="#e8a415" /></linearGradient><linearGradient id="11112437764100451884" x1="74.67493678405584" y1="347.6206673503242" x2="143.26088827593082" y2="289.79580014698473" gradientTransform="matrix(0.006419442,-0.004328379,0.003225452,0.008614538,-1.524061506,-1.595174798)"><stop stop-color="#c2530b" /><stop offset="0.998634" stop-color="#e8a415" /></linearGradient></defs><g>
<g>
	<g>
		<path d="M321.9406145936071,210.62196382876866 C321.9406145936071,210.62196382876866 358.4297482124177,364.356959939323 358.4297482124177,364.356959939323 C358.4297482124177,364.356959939323 441.75868295888955,370.9492024908042 441.75868295888955,370.9492024908042 C441.75868295888955,370.9492024908042 514.061206159726,388.6707533296614 514.061206159726,388.6707533296614 C514.061206159726,388.6707533296614 443.43964601876183,433.28106197422096 443.43964601876183,433.28106197422096 C443.43964601876183,433.28106197422096 348.7936364705378,454.6212990005564 348.7936364705378,454.6212990005564 C348.7936364705378,454.6212990005564 299.387057149001,433.3879179735892 299.387057149001,433.3879179735892 C299.387057149001,433.3879179735892 301.31004931878743,394.99523467341237 301.31004931878743,394.99523467341237 C301.31004931878743,394.99523467341237 254.57259150776036,325.06936746328677 254.57259150776036,325.06936746328677 C254.57259150776048,325.0693674632867 242.3607534735018,298.32979756595097 231.60987327487447,266.8779873552278 C231.60987327487447,266.8779873552278 59.59768210125196,220.94124837173388 55.158216746596906,198.01931646247198 C55.158216746596906,198.01931646247198 49.76269231743959,142.50633105203966 49.76269231743959,142.50633105203966 C49.76269231743959,142.50633105203966 59.07945225886863,106.3220089481757 97.58252454194468,90.93660045769997 C125.19341071244475,79.9035909494843 186.217050730358,95.34482404174965 186.217050730358,95.34482404174965 C186.217050730358,95.34482404174965 321.9406145936071,210.62196382876866 321.9406145936071,210.62196382876866 Z" transform="matrix(0.965908132,0.258885073,-0.258885073,0.965908132,94.948853747,-69.783670317)" fill="url('#13432191858040005135')" stroke="#000000" stroke-width="16" stroke-linejoin="round"/>
	</g>
	<g>
		<path d="M545.0310479568034,201.55612055205745 C545.0310479568034,201.55612055205745 578.8939980985407,239.95168703395294 578.8939980985407,239.95168703395294 C578.8939980985407,239.95168703395294 373.98115468774,370.9442629433858 373.98115468774,370.9442629433858 C373.98115468774,370.9442629433858 545.0310479568034,201.55612055205745 545.0310479568034,201.55612055205745 Z" transform="matrix(0.869132714,0.436696203,-0.393668685,0.783497384,-157.335147138,-49.570995093)" fill="url('#3299587079682502356')" stroke="#000000" stroke-width="16" stroke-linejoin="round"/>
	</g>
	<g>
		<path d="M545.0310479568034,201.55612055205745 C545.0310479568034,201.55612055205745 578.8939980985407,239.95168703395296 578.8939980985407,239.95168703395296 C578.8939980985407,239.95168703395296 373.98115468774,370.9442629433858 373.98115468774,370.9442629433858 C373.98115468774,370.9442629433858 545.0310479568034,201.55612055205745 545.0310479568034,201.55612055205745 Z" transform="matrix(0.60697514,0.304974988,-0.274925913,0.547170101,-56.312060275,18.750623162)" fill="url('#11112437764100451884')" stroke="#000000" stroke-width="16" stroke-linejoin="round"/>
	</g>
</g></g></svg>