<svg xmlns="http://www.w3.org/2000/svg" xmlns:graphite="https://graphite.art" viewBox="0 0 512 512" width="512" height="512"><defs><linearGradient id="9874753713862689811" x1="265.9237725453302" y1="31.821026853241925" x2="271.84384809997107" y2="479.84288704435426" gradientTransform="matrix(0.002228213,0,0,0.002228213,-0.070422465,-0.070422465)"><stop stop-color="#3950a3" /><stop offset="1" stop-color="#0d1b51" /></linearGradient><linearGradient id="18042000863807833092" x1="52.39547530494477" y1="418.48078104922297" x2="241.87382622456838" y2="166.66008588246206" gradientTransform="matrix(0.002538623,0,0,0.002378179,-0.246117672,-0.10234756)"><stop stop-color="#c2530b" /><stop offset="0.998634" stop-color="#e8a415" /></linearGradient><linearGradient id="3858784146514529114" x1="30.226193176745596" y1="421.3407317311371" x2="128.4349808878762" y2="338.54081430980716" gradientTransform="matrix(0.004354185,0,0,0.017235934,-0.09437673,-5.969850196)"><stop stop-color="#c2530b" /><stop offset="0.998634" stop-color="#e8a415" /></linearGradient><linearGradient id="18392106750246659057" x1="74.67491291303129" y1="347.6206995471844" x2="143.26088081636394" y2="289.7958325882578" gradientTransform="matrix(0.006234793,0,0,0.024680276,-0.428348948,-7.287022687)"><stop stop-color="#c2530b" /><stop offset="0.998634" stop-color="#e8a415" /></linearGradient></defs><g>
<rect fill="#ffffff" fill-opacity="0" x="0" y="0" width="512" height="512"/>
<g>
	<g>
		<path d="M256.0000000000005,31.6049108351003 C379.81779440955677,31.6049108351003 480.39508916490024,132.18220559044374 480.39508916490024,255.99999999999991 C480.39508916490024,379.8177944095561 379.81779440955677,480.39508916489956 256.0000000000005,480.39508916489956 C132.18220559044428,480.39508916489956 31.60491083510078,379.8177944095561 31.60491083510078,255.99999999999991 C31.60491083510078,132.18220559044374 132.18220559044428,31.6049108351003 256.0000000000005,31.6049108351003 Z" fill="url('#9874753713862689811')" stroke="#000000" stroke-width="40" style="paint-order: stroke;" />
	</g>
	<g>
		<g transform="matrix(0.720062887,0,0,0.720062887,22.094558403,101.740252653)">
			<g transform="matrix(1.04302297,0,0,1.04302297,47.970602038,-64.812906224)">
				<g>
					<g>
						<g>
							<path d="M351.38701637324357,217.00341729697266 C351.38701637324357,217.00341729697266 346.83246972861343,374.94379422861493 346.83246972861343,374.94379422861493 C346.83246972861343,374.94379422861493 425.6139488470071,402.88389905786244 425.6139488470071,402.88389905786244 C425.6139488470071,402.88389905786244 490.8636930646262,438.71933955736495 490.8636930646262,438.71933955736495 C490.8636930646262,438.71933955736495 411.10078744801285,463.5259361425342 411.10078744801285,463.5259361425342 C411.10078744801285,463.5259361425342 314.1567822459783,459.6362106943143 314.1567822459783,459.6362106943143 C314.1567822459783,459.6362106943143 271.9315706020534,426.3360707720858 271.9315706020534,426.3360707720858 C271.9315706020534,426.3360707720858 283.7283054820218,389.7501168544186 283.7283054820218,389.7501168544186 C283.7283054820218,389.7501168544186 256.6869672787134,310.108514628585 256.6869672787134,310.108514628585 C256.6869672787134,310.108514628585 251.8139281909971,281.1190912107231 249.57198114145012,247.95629036692753 C249.57198114145012,247.95629036692753 95.31634248583555,159.05423151084074 96.96237502604617,135.76443642942195 C96.96237502604617,135.76443642942195 106.12227578047418,80.74717233843353 106.12227578047418,80.74717233843353 C106.12227578047418,80.74717233843353 124.48899318465737,48.208408702204906 165.66247752757909,43.315391566613926 C195.1883382331025,39.806561906465504 250.13406406847344,70.51949047928929 250.13406406847344,70.51949047928929 C250.13406406847344,70.51949047928929 351.38701637324357,217.00341729697266 351.38701637324357,217.00341729697266 C351.38701637324357,217.00341729697266 351.38701637324357,217.00341729697266 351.38701637324357,217.00341729697266 Z" fill="url('#18042000863807833092')"/>
						</g>
					</g>
				</g>
				<g>
					<g>
						<g>
							<path d="M237.02284468919697,346.36069733624754 C237.02284468919697,346.36069733624754 251.3390784258836,391.23133180758305 251.3390784258836,391.23133180758305 C251.3390784258836,391.23133180758305 21.67494956151316,404.37902040600056 21.67494956151316,404.37902040600056 C21.67494956151316,404.37902040600056 237.02284468919697,346.36069733624754 237.02284468919697,346.36069733624754 C237.02284468919697,346.36069733624754 237.02284468919697,346.36069733624754 237.02284468919697,346.36069733624754 Z" fill="url('#3858784146514529114')"/>
						</g>
					</g>
				</g>
				<g>
					<g>
						<g>
							<path d="M219.09524413689633,295.2569425818201 C219.09524413689633,295.2569425818201 229.0932546831218,326.5931915340061 229.0932546831218,326.5931915340061 C229.0932546831218,326.5931915340061 68.7029978271694,335.7751288499785 68.7029978271694,335.7751288499785 C68.7029978271694,335.7751288499785 219.09524413689633,295.2569425818201 219.09524413689633,295.2569425818201 C219.09524413689633,295.2569425818201 219.09524413689633,295.2569425818201 219.09524413689633,295.2569425818201 Z" fill="url('#18392106750246659057')"/>
						</g>
					</g>
				</g>
			</g>
		</g>
	</g>
</g></g></svg>