<svg xmlns="http://www.w3.org/2000/svg" viewBox="0 0 512 512" width="512" height="512"><defs><linearGradient id="2465318864647488475" x1="257.22535180695576" y1="476.5673308191987" x2="255.27132016552878" y2="36.975033462712986" gradientTransform="matrix(0.002817209,0,0,0.00403558,-0.222965861,-0.912999478)"><stop offset="0.010246" stop-color="#232723" /><stop offset="1" stop-color="#313430" /></linearGradient><linearGradient id="8681163079849494767" x1="255.51162852437133" y1="467.9673211132136" x2="255.74039694209293" y2="27.885616082305773" gradientTransform="matrix(0.002427184,0,0,0.004466945,-0.121359223,-0.121203087)"><stop offset="0.010246" stop-color="#0e5321" /><stop offset="1" stop-color="#17a151" /></linearGradient></defs><g>
<g>
	<g>
		<path d="M256.00000000000193,290.00000000003524 C256.00000000000193,290.00000000003524 79.14424160403472,226.2374785426309 79.14424160403472,226.2374785426309 C79.14424160403472,226.2374785426309 115.00000000000607,400.00000000003183 115.00000000000607,400.00000000003183 L256.000000000002,474.0333251953422 L398.77031081718866,405.1752934311971 C398.77031081718866,405.1752934311971 434.1054956320598,226.24901192066835 434.1054956320598,226.24901192066835 C434.1054956320598,226.24901192066835 256.00000000000193,290.00000000003524 256.00000000000193,290.00000000003524 Z" fill="url('#2465318864647488475')" stroke="#000000" stroke-width="16" stroke-linecap="round" stroke-linejoin="round"/>
	</g>
	<g>
		<path d="M256,27.133331298828125 C256,27.133331298828125 50,85 50,85 C50,85 70.67358968794541,185.18739618004383 70.67358968794541,185.18739618004383 L256.0000000000019,251.00000000000023 L442.2148586743807,185.18574361788743 C442.2148586743807,185.18574361788743 462,85 462,85 C462,85 256,27.133331298828125 256,27.133331298828125 Z" fill="url('#8681163079849494767')" stroke="#000000" stroke-width="16" stroke-linecap="round" stroke-linejoin="round"/>
	</g>
</g></g></svg>