<svg xmlns="http://www.w3.org/2000/svg" xmlns:graphite="https://graphite.art" viewBox="0 0 415 256" width="415" height="256"><defs></defs><g>
<rect fill="#ffffff" fill-opacity="0" x="0" y="0" width="415" height="256"/>
<g>
	<g>
		<g transform="matrix(0.915443571,0,0,0.915443571,-6.162906578,10.96421317)">
			<path d="M12.657552792314391,128.66828897634346 C12.657552792314391,128.66828897634346 94.80787535813829,31.61869826098534 94.80787535813829,31.61869826098534 L376.3311896217591,30.206250552803013 C376.3311896217591,30.206250552803013 455.47455303357225,127.25584126816115 455.47455303357225,127.25584126816115 C455.47455303357225,127.25584126816115 376.3311896217591,224.30543198351896 376.3311896217591,224.30543198351896 L94.80787535813829,225.71787969170128 C94.80787535813829,225.71787969170128 12.657552792314391,128.66828897634346 12.657552792314391,128.66828897634346 Z" fill="#36312c"/>
		</g>
		<g transform="matrix(0.915443571,0,0,0.915443571,-6.162906578,10.96421317)">
			<path d="M22.70643362718897,128.62366807607532 C22.70643362718897,128.62366807607532 99.66630371949964,37.70590097928368 99.66630371949964,37.70590097928368 L371.28277444001515,36.38269507164047 C371.28277444001515,36.38269507164047 445.4256721987099,127.3004621684321 445.4256721987099,127.3004621684321 C445.4256721987099,127.3004621684321 371.28277444001515,218.21822926522344 371.28277444001515,218.21822926522344 L99.66630371949964,219.54143517286667 C99.66630371949964,219.54143517286667 22.70643362718897,128.62366807607532 22.70643362718897,128.62366807607532 Z" fill="#c59f4e"/>
		</g>
		<g transform="matrix(0.915443571,0,0,0.915443571,-6.162906578,10.96421317)">
			<path d="M36.27664712791011,128.27297983481992 C36.27664712791011,128.27297983481992 105.73874950846619,46.673201797545076 105.73874950846619,46.673201797545076 L365.98869841265304,47.536037646779434 C365.98869841265304,47.536037646779434 431.9288255229213,127.93954624654795 431.9288255229213,127.93954624654795 C431.9288255229213,127.93954624654795 365.98869841265304,210.02671948181376 365.98869841265304,210.02671948181376 C365.98869841265304,210.02671948181376 105.31368634674538,209.22026325603568 105.31368634674538,209.22026325603568 C105.31368634674538,209.22026325603568 36.27664712791011,128.27297983481992 36.27664712791011,128.27297983481992 Z" fill="#36312c"/>
		</g>
	</g>
	<g>
		<path d="M207.88497731785714,2.1036205610102456 C277.15961954263094,2.1036205610102456 333.43146757010874,58.37546858848799 333.43146757010874,127.65011081326173 C333.43146757010874,196.92475303803548 277.15961954263094,253.19660106551322 207.88497731785714,253.19660106551322 C138.61033509308334,253.19660106551322 82.33848706560555,196.92475303803548 82.33848706560555,127.65011081326173 C82.33848706560555,58.37546858848799 138.61033509308334,2.1036205610102456 207.88497731785714,2.1036205610102456 Z" fill="#36312c"/>
	</g>
	<g>
		<path d="M208.11135679112328,10.018983757883346 C273.27011994449964,10.018983757883346 326.1986360739218,62.94749988730552 326.1986360739218,128.1062630406819 C326.1986360739218,193.2650261940583 273.27011994449964,246.19354232348047 208.11135679112328,246.19354232348047 C142.95259363774693,246.19354232348047 90.02407750832484,193.2650261940583 90.02407750832484,128.1062630406819 C90.02407750832484,62.94749988730552 142.95259363774693,10.018983757883346 208.11135679112328,10.018983757883346 ZM100.63495188589248,128.1062630406819 C100.63495188589248,187.41010723468486 148.80751259712036,235.5826679459128 208.11135679112328,235.5826679459128 C267.41520098512626,235.5826679459128 315.5877616963541,187.4101072346849 315.5877616963541,128.1062630406819 C315.5877616963541,68.80241884667893 269.3359114123895,24.45487598270433 210.03206721838654,24.454875982704316 C150.72822302438362,24.454875982704316 100.63495188589248,68.8024188466789 100.63495188589248,128.1062630406819 Z" fill="#c59f4e"/>
	</g>
	<g>
		<g>
			<g transform="matrix(-0.707106781,0.707106781,-0.707106781,-0.707106781,188.671753883,42.663415551)">
				<polyline points="10000000,10000000 -10000000,10000000 -10000000,-10000000 10000000,-10000000" fill="#000000" fill-opacity="0"/>
			</g>
			<g transform="matrix(-0.707106781,0.707106781,-0.707106781,-0.707106781,188.671753883,42.663415551)">
				<path d="M40.577823926188785,-8.65411337580555 L62.62133988020735,65.80089887305077 L18.5343079721702,65.8008988730508 L40.577823926188785,-8.65411337580555 Z" fill="#36312c"/>
			</g>
			<g transform="matrix(-0.707106781,0.707106781,-0.707106781,-0.707106781,188.671753883,42.663415551)">
				<path d="M40.577823926188806,13.67216905271982 L54.007638183324154,59.72294800678803 L27.148009669053465,59.722948006788044 L40.577823926188806,13.67216905271982 Z" fill="#c59f4e"/>
			</g>
		</g>
		<g>
			<g transform="matrix(-0.707106781,-0.707106781,0.707106781,-0.707106781,285.069106588,99.15779212)">
				<polyline points="10000000,10000000 -10000000,10000000 -10000000,-10000000 10000000,-10000000" fill="#000000" fill-opacity="0"/>
			</g>
			<g transform="matrix(-0.707106781,-0.707106781,0.707106781,-0.707106781,285.069106588,99.15779212)">
				<path d="M40.577823926188785,-8.65411337580555 L62.62133988020735,65.80089887305077 L18.5343079721702,65.8008988730508 L40.577823926188785,-8.65411337580555 Z" fill="#36312c"/>
			</g>
			<g transform="matrix(-0.707106781,-0.707106781,0.707106781,-0.707106781,285.069106588,99.15779212)">
				<path d="M40.577823926188806,13.67216905271982 L54.007638183324154,59.72294800678803 L27.148009669053465,59.722948006788044 L40.577823926188806,13.67216905271982 Z" fill="#c59f4e"/>
			</g>
		</g>
		<g>
			<g transform="matrix(0.707106781,-0.707106781,0.707106781,0.707106781,229.73230475,214.14031354)">
				<polyline points="10000000,10000000 -10000000,10000000 -10000000,-10000000 10000000,-10000000" fill="#000000" fill-opacity="0"/>
			</g>
			<g transform="matrix(0.707106781,-0.707106781,0.707106781,0.707106781,229.73230475,214.14031354)">
				<path d="M40.577823926188785,-8.65411337580555 L62.62133988020735,65.80089887305077 L18.5343079721702,65.8008988730508 L40.577823926188785,-8.65411337580555 Z" fill="#36312c"/>
			</g>
			<g transform="matrix(0.707106781,-0.707106781,0.707106781,0.707106781,229.73230475,214.14031354)">
				<path d="M40.577823926188806,13.67216905271982 L54.007638183324154,59.72294800678803 L27.148009669053465,59.722948006788044 L40.577823926188806,13.67216905271982 Z" fill="#c59f4e"/>
			</g>
		</g>
		<g>
			<g transform="matrix(0.707106781,0.707106781,-0.707106781,0.707106781,133.334952045,157.882205631)">
				<polyline points="10000000,10000000 -10000000,10000000 -10000000,-10000000 10000000,-10000000" fill="#000000" fill-opacity="0"/>
			</g>
			<g transform="matrix(0.707106781,0.707106781,-0.707106781,0.707106781,133.334952045,157.882205631)">
				<path d="M40.577823926188785,-8.65411337580555 L62.62133988020735,65.80089887305077 L18.5343079721702,65.8008988730508 L40.577823926188785,-8.65411337580555 Z" fill="#36312c"/>
			</g>
			<g transform="matrix(0.707106781,0.707106781,-0.707106781,0.707106781,133.334952045,157.882205631)">
				<path d="M40.577823926188806,13.67216905271982 L54.007638183324154,59.72294800678803 L27.148009669053465,59.722948006788044 L40.577823926188806,13.67216905271982 Z" fill="#c59f4e"/>
			</g>
		</g>
	</g>
</g></g></svg>