<svg xmlns="http://www.w3.org/2000/svg" xmlns:graphite="https://graphite.art" viewBox="0 0 451 256" width="451" height="256"><defs></defs><g>
<rect fill="#ffffff" fill-opacity="0" x="0" y="0" width="451" height="256"/>
<g>
	<g>
		<g transform="matrix(1,0,0,1,-8.602736325,0)">
			<path d="M23.581218996209714,128.66828897634346 C23.581218996209714,128.66828897634346 105.73154156203361,31.61869826098534 105.73154156203361,31.61869826098534 L365.4075234178637,30.206250552803013 C365.4075234178637,30.206250552803013 444.55088682967676,127.25584126816115 444.55088682967676,127.25584126816115 C444.55088682967676,127.25584126816115 365.4075234178637,224.30543198351896 365.4075234178637,224.30543198351896 L105.73154156203361,225.71787969170128 C105.73154156203361,225.71787969170128 23.581218996209714,128.66828897634346 23.581218996209714,128.66828897634346 Z" fill="#443f3b"/>
		</g>
		<g transform="matrix(1,0,0,1,-8.602736325,0)">
			<path d="M33.63009983108418,128.62366807607532 C33.63009983108418,128.62366807607532 110.58996992339485,37.70590097928368 110.58996992339485,37.70590097928368 L360.3591082361197,36.38269507164047 C360.3591082361197,36.38269507164047 434.50200599481445,127.3004621684321 434.50200599481445,127.3004621684321 C434.50200599481445,127.3004621684321 360.3591082361197,218.21822926522344 360.3591082361197,218.21822926522344 L110.58996992339485,219.54143517286667 C110.58996992339485,219.54143517286667 33.63009983108418,128.62366807607532 33.63009983108418,128.62366807607532 Z" fill="#c59f4e"/>
		</g>
		<g transform="matrix(1,0,0,1,-8.602736325,0)">
			<path d="M47.20031333180543,128.27297983481992 C47.20031333180543,128.27297983481992 116.01545704467435,47.110694868890405 116.01545704467435,47.110694868890405 L355.5101347038334,47.08832637549831 C355.5101347038334,47.08832637549831 421.005159319026,127.93954624654795 421.005159319026,127.93954624654795 C421.005159319026,127.93954624654795 355.83738776550024,208.3702516883669 355.83738776550024,208.3702516883669 C355.83738776550024,208.3702516883669 116.01545704467424,209.06476083070794 116.01545704467424,209.06476083070794 C116.01545704467424,209.06476083070794 47.20031333180543,128.27297983481992 47.20031333180543,128.27297983481992 Z" fill="#443f3b"/>
		</g>
	</g>
	<g>
		<path d="M225.27362052673342,2.103620561009393 C294.5482627515082,2.103620561009393 350.8201107789868,58.37546858848796 350.8201107789868,127.6501108132627 C350.8201107789868,196.92475303803744 294.5482627515082,253.196601065516 225.27362052673342,253.196601065516 C155.99897830195863,253.196601065516 99.72713027448002,196.92475303803744 99.72713027448002,127.6501108132627 C99.72713027448002,58.37546858848796 155.99897830195863,2.103620561009393 225.27362052673342,2.103620561009393 Z" fill="#443f3b"/>
	</g>
	<g>
		<path d="M225.5000000000008,10.018983757883442 C290.6587631533781,10.018983757883442 343.58727928280115,62.947499887306435 343.58727928280115,128.1062630406838 C343.58727928280115,193.26502619406122 290.6587631533781,246.1935423234842 225.5000000000008,246.1935423234842 C160.34123684662345,246.1935423234842 107.41272071720053,193.26502619406122 107.41272071720053,128.1062630406838 C107.41272071720053,62.947499887306435 160.34123684662345,10.018983757883442 225.5000000000008,10.018983757883442 ZM118.02359509476832,128.1062630406838 C118.02359509476832,187.41010723468767 166.19615580599694,235.58266794591637 225.5000000000008,235.58266794591637 C284.8038441940047,235.58266794591637 332.97640490523327,187.4101072346877 332.97640490523327,128.1062630406838 C332.97640490523327,68.80241884667993 286.724554621268,24.454875982704642 227.42071042726408,24.45487598270463 C168.11686623326023,24.45487598270463 118.02359509476832,68.80241884667991 118.02359509476832,128.1062630406838 Z" fill="#c59f4e"/>
	</g>
</g></g></svg>