<svg xmlns="http://www.w3.org/2000/svg" viewBox="0 0 451 256" width="451" height="256"><defs><linearGradient id="16076384823385854578" x1="498.74999999999983" y1="291.08337402343733" x2="-45.00000000000012" y2="-30.666687011718793" gradientTransform="matrix(0.002217663,0,0,0.005016745,0,-0.143738918)"><stop stop-color="#383635" /><stop offset="0.5" stop-color="#474340" /><stop offset="1" stop-color="#383635" /></linearGradient><linearGradient id="14327875898417393983" x1="416.06665039062494" y1="188.61663818359366" x2="-7.599975585937479" y2="9.333343505859307" gradientTransform="matrix(0.002323233,0,0,0.005355092,-0.023802131,-0.187155003)"><stop stop-color="#9f7533" /><stop offset="0.071489" stop-color="#c59f4e" /><stop offset="0.443648" stop-color="#9f7533" /><stop offset="0.806858" stop-color="#c59f4e" /><stop offset="1" stop-color="#9f7533" /></linearGradient><linearGradient id="11960772882826746792" x1="476.2285344423618" y1="271.25987377789374" x2="-22.6369106963325" y2="-11.013014437121996" gradientTransform="matrix(0.002417193,0,0,0.00571836,-0.045077038,-0.234609482)"><stop stop-color="#383635" /><stop offset="0.5" stop-color="#474340" /><stop offset="1" stop-color="#383635" /></linearGradient><radialGradient id="13768141699996520469" cx="240.0833129882812" cy="138" r="274.4570811229452" gradientTransform="matrix(0.00390625,0,0,0.00390625,-0.379957799,0)"><stop offset="0.014003" stop-color="#383635" /><stop offset="1" stop-color="#474340" /></radialGradient><linearGradient id="345627336133168369" x1="382.4832763671872" y1="226.33331298828122" x2="78.68334960937489" y2="23.283325195312486" gradientTransform="matrix(0.004152996,0,0,0.004152996,-0.436500558,-0.033514885)"><stop stop-color="#9f7533" /><stop offset="0.533722" stop-color="#c59f4e" /><stop offset="1" stop-color="#9f7533" /></linearGradient><radialGradient id="12740865293990930206" cx="238.35785357579834" cy="136.83525999623217" r="242.48996695225978" gradientTransform="matrix(0.004421205,0,0,0.004421205,-0.495961408,-0.065914303)"><stop offset="0.014003" stop-color="#383635" /><stop offset="1" stop-color="#464340" /></radialGradient></defs><g>
<g>
	<g>
		<path d="M-0.0000000000004547473508864641,129.03807605144866 C-0.0000000000004547473508864641,129.03807605144866 83.75575667067847,30.091880211116006 83.75575667067847,30.091880211116006 L370.2351657945097,28.6518295471422 C370.2351657945097,28.6518295471422 450.9251993936791,127.59802538747483 450.9251993936791,127.59802538747483 C450.9251993936791,127.59802538747483 370.2351657945097,226.54422122780716 370.2351657945097,226.54422122780716 L83.75575667067847,227.98427189178096 C83.75575667067847,227.98427189178096 -0.0000000000004547473508864641,129.03807605144866 -0.0000000000004547473508864641,129.03807605144866 Z" fill="url('#16076384823385854578')"/>
	</g>
	<g>
		<path d="M10.24526248626671,128.9925831410307 C10.24526248626671,128.9925831410307 88.70913154403979,36.298042935192626 88.70913154403979,36.298042935192626 L365.0880912569032,34.948978092057416 C365.0880912569032,34.948978092057416 440.67993690742406,127.6435182978955 440.67993690742406,127.6435182978955 C440.67993690742406,127.6435182978955 365.0880912569032,220.3380585037333 365.0880912569032,220.3380585037333 L88.70913154403979,221.6871233468685 C88.70913154403979,221.6871233468685 10.24526248626671,128.9925831410307 10.24526248626671,128.9925831410307 Z" fill="url('#14327875898417393983')"/>
	</g>
	<g>
		<path d="M18.648505453076382,128.63504152604415 C18.648505453076382,128.63504152604415 92.51866136038711,41.36735744434108 92.51866136038711,41.36735744434108 L361.18521775507406,41.02740768379374 C361.18521775507406,41.02740768379374 432.3514945469292,128.2950917654968 432.3514945469292,128.2950917654968 C432.3514945469292,128.2950917654968 361.18521775507406,215.5627758471996 361.18521775507406,215.5627758471996 L92.51866136038711,215.90272560774693 C92.51866136038711,215.90272560774693 18.648505453076382,128.63504152604415 18.648505453076382,128.63504152604415 Z" fill="url('#11960772882826746792')"/>
	</g>
	<g>
		<path d="M225.2691964743928,-0.0000000000006394884621840902 C295.89764803010684,-0.0000000000006394884621840902 353.26919647439325,57.37154844428568 353.26919647439325,127.99999999999962 C353.26919647439325,198.62845155571355 295.89764803010684,255.9999999999999 225.2691964743928,255.9999999999999 C154.64074491867876,255.9999999999999 97.26919647439234,198.62845155571355 97.26919647439234,127.99999999999962 C97.26919647439234,57.37154844428568 154.64074491867876,-0.0000000000006394884621840902 225.2691964743928,-0.0000000000006394884621840902 Z" fill="url('#13768141699996520469')"/>
	</g>
	<g>
		<path d="M225.50000000000443,8.070050285177786 C291.9321373482354,8.070050285177786 345.8950163605982,62.03292929754048 345.8950163605982,128.46506664577137 C345.8950163605982,194.89720399400227 291.9321373482354,248.86008300636496 225.50000000000443,248.86008300636496 C159.06786265177345,248.86008300636496 105.10498363941065,194.89720399400227 105.10498363941065,128.46506664577137 C105.10498363941065,62.03292929754048 159.06786265177345,8.070050285177786 225.50000000000443,8.070050285177786 Z" fill="url('#345627336133168369')"/>
	</g>
	<g>
		<path d="M225.26919647439544,14.908672048238316 C287.6712697366872,14.908672048238316 338.3605244256049,65.59792673740378 338.3605244256049,128.00000000000045 C338.3605244256049,190.40207326259713 287.6712697366872,241.0913279517626 225.26919647439544,241.0913279517626 C162.86712321210373,241.0913279517626 112.17786852318598,190.40207326259713 112.17786852318598,128.00000000000045 C112.17786852318598,65.59792673740378 162.86712321210373,14.908672048238316 225.26919647439544,14.908672048238316 Z" fill="url('#12740865293990930206')"/>
	</g>
</g></g></svg>