<svg xmlns="http://www.w3.org/2000/svg" viewBox="0 0 512 512" width="512" height="512"><defs><linearGradient id="16544519228159455157" x1="357.5073303808415" y1="375.18529370617955" x2="117.84497639046539" y2="84.76906578949473" gradientTransform="matrix(0.002220544,0,0,0.002220544,-0.06845915,-0.06845915)"><stop stop-color="#c2530b" /><stop offset="1" stop-color="#e8a415" /></linearGradient></defs><g>
<g>
	<g>
		<path d="M400.5051642652518,379.29196082525175 C400.50516426525144,379.2919608252514 366.43164131000003,345.21843787 366.43164131000003,345.21843787 C386.16997115000004,320.82702083 398,289.78029892 398,256 C398,222.21970108 386.16997115000004,191.17297917000002 366.43164131000003,166.78156213 C366.43164131000003,166.78156213 400.50516426525144,132.7080391747486 400.50516426525144,132.7080391747486 C428.86503984798844,165.90593664792718 446,208.97327183010682 446,256 C446,303.02672816989315 428.86503984798844,346.0940633520728 400.5051642652518,379.29196082525175 ZM379.29196082525175,111.49483573474822 C379.2919608252514,111.49483573474859 345.21843787,145.56835869 345.21843787,145.56835869 C320.82702083,125.83002884999999 289.78029892,114 256,114 C222.21970108,114 191.17297917000002,125.83002884999999 166.78156213,145.56835869 C166.78156213,145.56835869 132.7080391747486,111.49483573474859 132.7080391747486,111.49483573474859 C165.90593664792718,83.13496015201156 208.97327183010682,66 256,66 C303.02672816989315,66 346.0940633520728,83.13496015201156 379.29196082525175,111.49483573474822 ZM111.49483573474822,132.70803917474828 C111.49483573474859,132.7080391747486 145.56835869,166.78156213 145.56835869,166.78156213 C125.83002884999999,191.17297917000002 114,222.21970108 114,256 C114,289.78029892 125.83002884999999,320.82702083 145.56835869,345.21843787 C145.56835869,345.21843787 111.49483573474859,379.2919608252514 111.49483573474859,379.2919608252514 C83.13496015201156,346.0940633520728 66,303.02672816989315 66,256 C66,208.97327183010685 83.13496015201156,165.9059366479272 111.49483573474822,132.70803917474828 ZM132.70803917474828,400.5051642652518 C132.7080391747486,400.50516426525144 166.78156213,366.43164131000003 166.78156213,366.43164131000003 C191.17297917000002,386.16997115000004 222.21970108,398 256,398 C289.78029892,398 320.82702083,386.16997115000004 345.21843787,366.43164131000003 C345.21843787,366.43164131000003 379.2919608252514,400.50516426525144 379.2919608252514,400.50516426525144 C346.0940633520728,428.86503984798844 303.02672816989315,446 256,446 C208.97327183010685,446 165.9059366479272,428.86503984798844 132.70803917474828,400.5051642652518 ZM107.9009672851004,425.31223615489967 C147.4892237965779,459.97724327202087 199.31573681449063,481 256,481 C312.6842631855094,481 364.5107762034221,459.97724327202087 404.0990327149003,425.31223615490046 C404.09903271489884,425.31223615489887 459.95689014000004,481.17009358 459.95689014000004,481.17009358 C459.95689014000004,481.17009358 481.17009358,459.95689014000004 481.17009358,459.95689014000004 C481.17009358,459.95689014000004 425.31223615489887,404.09903271489884 425.31223615489887,404.09903271489884 C459.97724327202087,364.5107762034221 481,312.6842631855094 481,256 C481,199.31573681449063 459.97724327202087,147.4892237965779 425.31223615490046,107.90096728509968 C425.31223615489887,107.90096728510113 481.17009358,52.04310985999999 481.17009358,52.04310985999999 C481.17009358,52.04310985999999 459.95689014000004,30.829906419999986 459.95689014000004,30.829906419999986 C459.95689014000004,30.829906419999986 404.09903271489884,86.68776384510113 404.09903271489884,86.68776384510113 C364.5107762034221,52.02275672797913 312.6842631855094,31 256,31 C199.31573681449063,31 147.4892237965779,52.02275672797913 107.90096728509968,86.68776384509951 C107.90096728510113,86.68776384510113 52.04310985999999,30.829906419999986 52.04310985999999,30.829906419999986 C52.04310985999999,30.829906419999986 30.829906419999986,52.04310985999999 30.829906419999986,52.04310985999999 C30.829906419999986,52.04310985999999 86.68776384510113,107.90096728510113 86.68776384510113,107.90096728510113 C52.02275672797913,147.4892237965779 31,199.31573681449063 31,256 C31,312.6842631855094 52.02275672797913,364.5107762034221 86.68776384509951,404.0990327149003 C86.68776384510113,404.09903271489884 30.829906419999986,459.95689014000004 30.829906419999986,459.95689014000004 C30.829906419999986,459.95689014000004 52.04310985999999,481.17009358 52.04310985999999,481.17009358 C52.04310985999999,481.17009358 107.90096728510113,425.31223615489887 107.9009672851004,425.31223615489967 ZM341.50539643,191.70780701 C354.99723692,209.6135408 363,231.88216702 363,256 C363,280.11783298 354.99723692,302.3864592 341.50539643,320.29219299 C341.50539643,320.29219299 325.60660172,304.39339828 325.60660172,304.39339828 C325.60660172,304.39339828 304.39339828,325.60660172 304.39339828,325.60660172 C304.39339828,325.60660172 320.29219299,341.50539643 320.29219299,341.50539643 C302.3864592,354.99723692 280.11783298,363 256,363 C231.88216702,363 209.6135408,354.99723692 191.70780701,341.50539643 C191.70780701,341.50539643 207.60660172000001,325.60660172 207.60660172000001,325.60660172 C207.60660172000001,325.60660172 186.39339827999999,304.39339828 186.39339827999999,304.39339828 C186.39339827999999,304.39339828 170.49460356999998,320.29219299 170.49460356999998,320.29219299 C157.00276308,302.3864592 149,280.11783298 149,256 C149,231.88216702 157.00276308,209.6135408 170.49460356999998,191.70780701 C170.49460356999998,191.70780701 186.39339827999999,207.60660172000001 186.39339827999999,207.60660172000001 C186.39339827999999,207.60660172000001 207.60660172000001,186.39339827999999 207.60660172000001,186.39339827999999 C207.60660172000001,186.39339827999999 191.70780701,170.49460356999998 191.70780701,170.49460356999998 C209.6135408,157.00276308 231.88216702,149 256,149 C280.11783298,149 302.3864592,157.00276308 320.29219299,170.49460356999998 C320.29219299,170.49460356999998 304.39339828,186.39339827999999 304.39339828,186.39339827999999 C304.39339828,186.39339827999999 325.60660172,207.60660172000001 325.60660172,207.60660172000001 C325.60660172,207.60660172000001 341.50539643,191.70780701 341.50539643,191.70780701 Z" fill="url('#16544519228159455157')" stroke="#000000" stroke-width="16" stroke-linejoin="round"/>
	</g>
</g></g></svg>