<svg xmlns="http://www.w3.org/2000/svg" viewBox="0 0 511 511" width="511" height="511"><defs><linearGradient id="4585901909270921585" x1="88.35463924844444" y1="526.2450506412491" x2="192.52288792318825" y2="154.11528720190915" gradientTransform="matrix(0.002436176,0,0,0.002136353,-0.138703822,-0.048050054)"><stop stop-color="#c2530b" /><stop offset="0.998634" stop-color="#e8a415" /></linearGradient></defs><g>
<g>
	<g>
		<path d="M289.26683948472,41.07987531080041 C289.26683948472,41.07987531080041 210.76563249308415,151.163243590002 210.76563249308415,151.163243590002 C210.76563249308415,151.163243590002 255.34346807308148,202.1578858558047 255.34346807308148,202.1578858558047 C255.34346807308148,202.1578858558047 252.79943706489863,204.38179391032284 252.79943706489863,204.38179391032284 C252.79943706489863,204.38179391032284 192.22245547127127,296.5330403130363 192.22245547127127,296.5330403130363 C192.22245547127127,296.5330403130363 195.93680407358076,222.11561320388392 195.93680407358076,222.11561320388392 C195.93680407358076,222.11561320388392 137.0992601113231,154.80863280674282 137.0992601113231,154.80863280674282 C137.0992601113231,154.80863280674282 231.4554262596238,22.4916279659708 231.4554262596238,22.4916279659708 C176.2386331228275,23.97645744510306 105.18286859585035,76.28310770954519 105.18286859585035,76.28310770954519 C105.18286859585035,76.28310770954519 60.58519570687227,109.6468605500157 57.182255169585716,165.5120757710394 C52.90266230222841,235.76907089915534 105.60834942949086,309.00942790723445 105.60834942949086,309.00942790723445 C105.60834942949086,309.00942790723445 139.585277992173,351.7408264457246 139.585277992173,351.7408264457246 C139.585277992173,351.7408264457246 102.49898968222064,483.42674104062667 102.49898968222064,483.42674104062667 C102.49898968222064,483.42674104062667 149.4976396634622,448.10559950882663 198.76738497604973,438.2635475953733 C247.4031585906562,428.548136937087 247.15664825303045,428.74038819885266 298.25851006434607,444.05391713746394 C349.1069115128573,459.2914924137916 394.6925033198912,490.5790933067158 394.6925033198912,490.5790933067158 C394.6925033198912,490.5790933067158 357.74947066733523,433.59460109428807 348.299685456028,405.5006376362891 C338.2483715970152,375.61834526110863 351.4620473321788,345.416102706907 351.4620473321788,345.416102706907 C351.4620473321788,345.416102706907 467.41444546638616,237.33935443988702 467.41444546638616,237.33935443988702 C467.41444546638616,237.33935443988702 455.6990605316025,219.22117599014723 436.78798792665964,193.50820708442805 C436.7876569457969,193.5082928173359 404.99121549933864,201.746166449001 368.2529740589615,201.74616645696094 C330.0578069748458,201.7461664515901 285.38669948474626,188.4373303686673 285.38669948474626,188.4373303686673 C285.38669948474626,188.4373303686673 284.7332763627626,163.82629298257686 284.7332763627626,163.82629298257686 C284.7332763627626,163.82629298257686 414.21048745022415,163.8262929799041 414.21048745022415,163.8262929799041 C379.8451665230027,120.17573522000151 333.44814857429867,68.20266513275539 289.26683948472,41.07987531080041 Z" fill="url('#4585901909270921585')" stroke="#000000" stroke-width="16" stroke-linejoin="round"/>
	</g>
</g></g></svg>