<svg xmlns="http://www.w3.org/2000/svg" viewBox="0 0 512 512" width="512" height="512"><defs></defs><g>
<g>
	<g>
		<path d="M76.5645619498111,209.64909837988316 C76.5645619498111,209.64909837988316 114.99999999999996,389.9999999999999 114.99999999999996,389.9999999999999 C114.99999999999996,389.9999999999999 256,464.0333251953125 256,464.0333251953125 C256,464.0333251953125 396.99999999999994,389.99999999999994 396.99999999999994,389.99999999999994 C396.99999999999994,389.99999999999994 435.4354380501889,209.64909837988327 435.4354380501889,209.64909837988327 C435.4354380501889,209.64909837988327 256,274.9999999999999 256,274.9999999999999 C256,274.9999999999999 76.5645619498111,209.64909837988316 76.5645619498111,209.64909837988316 Z" transform="matrix(1,0,0,1,0,13.67545081)" fill="#2e2e2e" stroke="#000000" stroke-width="12" stroke-linecap="round" stroke-linejoin="bevel"/>
	</g>
	<g>
		<path d="M49.99999999999994,84.99999999999997 C49.99999999999994,84.99999999999997 72.76810242530081,190.64909837988316 72.76810242530081,190.64909837988316 C72.76810242530081,190.64909837988316 255.99999999999991,255.99999999999991 255.99999999999991,255.99999999999991 C255.99999999999991,255.99999999999991 439.5806374478421,190.19854736012527 439.5806374478421,190.19854736012527 C439.5806374478421,190.19854736012527 461.99999999999994,84.99999999999999 461.99999999999994,84.99999999999999 C461.99999999999994,84.99999999999999 255.99999999999997,27.13333129882812 255.99999999999997,27.13333129882812 C255.99999999999997,27.13333129882812 49.99999999999994,84.99999999999997 49.99999999999994,84.99999999999997 Z" transform="matrix(1,0,0,1,0,13.67545081)" fill="#2f2f2f" stroke="#000000" stroke-width="12" stroke-linecap="round" stroke-linejoin="bevel"/>
	</g>
</g></g></svg>