<svg xmlns="http://www.w3.org/2000/svg" xmlns:graphite="https://graphite.art" viewBox="0 0 512 512" width="512" height="512"><defs><linearGradient id="14382539670585028001" x1="244.70354800151338" y1="61.66815229872246" x2="244.17762201128312" y2="450.33184770127775" gradientTransform="matrix(0.002228213,0,0,0.002572918,-0.070422465,-0.158667128)"><stop stop-color="#8d213f" /><stop offset="1" stop-color="#5b2333" /></linearGradient><linearGradient id="12238469222066149677" x1="265.9237725453302" y1="31.821026853241925" x2="271.84384809997107" y2="479.84288704435426" gradientTransform="matrix(0.002228213,0,0,0.002228213,-0.070422465,-0.070422465)"><stop stop-color="#8d213f" /><stop offset="1" stop-color="#3b111d" /></linearGradient></defs><g>
<rect fill="#ffffff" fill-opacity="0" x="0" y="0" width="512" height="512"/>
<g>
	<g>
		<path d="M368.1975445824503,61.66815229872239 L480.39508916490024,256 L368.1975445824503,450.33184770127775 L143.80245541755022,450.33184770127787 L31.604910835100185,256.0000000000003 L143.80245541755008,61.66815229872253 L368.1975445824503,61.66815229872239 Z" transform="matrix(1,0,0,1,0,0)" fill="url('#14382539670585028001')" stroke="#000000" stroke-width="16"/>
	</g>
	<g>
		<path d="M256.0000000000005,31.6049108351003 C379.81779440955677,31.6049108351003 480.39508916490024,132.18220559044374 480.39508916490024,255.99999999999991 C480.39508916490024,379.8177944095561 379.81779440955677,480.39508916489956 256.0000000000005,480.39508916489956 C132.18220559044428,480.39508916489956 31.60491083510078,379.8177944095561 31.60491083510078,255.99999999999991 C31.60491083510078,132.18220559044374 132.18220559044428,31.6049108351003 256.0000000000005,31.6049108351003 Z" fill="url('#12238469222066149677')" stroke="#000000" stroke-width="40" style="paint-order: stroke;" />
	</g>
</g></g></svg>