<svg xmlns="http://www.w3.org/2000/svg" viewBox="0 0 512 256" width="512" height="256"><defs><linearGradient id="12195523812269409067" x1="537.7088855073773" y1="350.7954837043895" x2="-98.68590086826624" y2="-3.7602155496337843" gradientTransform="matrix(0.002033973,0,0,0.00542519,-0.020697178,-0.194424313)"><stop stop-color="#c43228" /><stop offset="0.483791" stop-color="#f29225" /><stop offset="1" stop-color="#c43228" /></linearGradient><linearGradient id="15173160531283727667" x1="537.7088855073773" y1="350.7954837043895" x2="-98.68590086826624" y2="-3.7602155496337843" gradientTransform="matrix(0.002033973,0,0,0.00542519,-0.020697178,-0.194424313)"><stop stop-color="#a67219" /><stop offset="0.348361" stop-color="#c6922b" /><stop offset="0.54112" stop-color="#fad369" /><stop offset="0.652595" stop-color="#c6922b" /><stop offset="0.998634" stop-color="#a67219" /></linearGradient></defs><g>
<g>
	<g>
		<g>
			<path d="M10.175737089755074,128.0000000000004 C10.175737089755074,128.0000000000004 99.46895417568606,35.83732833388443 99.46895417568606,35.83732833388443 C99.46895417568606,35.83732833388443 413.61946403107873,35.83732833388443 413.61946403107873,35.83732833388443 C413.61946403107873,35.83732833388443 501.8242629102449,128.0000000000004 501.8242629102449,128.0000000000004 C501.8242629102449,128.0000000000004 413.61946403107726,220.162671666116 413.61946403107726,220.162671666116 L99.46895417568606,220.162671666116 C99.46895417568606,220.162671666116 10.175737089755074,128.0000000000004 10.175737089755074,128.0000000000004 Z" transform="matrix(1,0,0,1,0,0)" fill="url('#12195523812269409067')" stroke="#b73527" stroke-width="12"/>
		</g>
		<g>
			<path d="M219.7743059650029,172.21780441881873 Q215.25243195786263,175.23238709024557 210.82476365920445,177.77594121926197 Q206.4913010690284,180.31949534827837 202.4404556042986,182.20360951792014 Q198.48381584805085,184.18192939604398 194.9039989257315,185.31239789782904 Q191.32418200341215,186.5370721080962 188.40380504046738,186.91389494202457 Q185.38922236904057,187.19651206747082 183.12828536547042,187.10230635898873 Q180.8673483619003,187.10230635898873 179.3600570261869,186.06604356568576 Q177.85276569047346,185.1239864808649 177.00491431413468,182.95725518577683 Q176.25126864627796,180.7905238906888 176.25126864627796,177.02229555140525 Q176.25126864627796,175.0439756732814 176.25126864627796,170.33369024917695 Q176.34547435476006,165.62340482507253 176.34547435476006,159.12321093980842 Q176.43968006324215,152.6230170545443 176.53388577172421,144.89814895901304 Q176.6280914802063,137.07907515499969 176.6280914802063,129.16579564250424 Q176.7222971886884,121.1583104215267 176.8165028971705,113.62185374295962 Q176.9107086056526,105.99119135591044 177.00491431413468,99.77361459609259 Q177.09912002261677,93.55603783627474 177.09912002261677,89.41098666306284 Q177.19332573109884,85.17172978136885 177.28753143958093,83.94705557110171 Q177.38173714806302,81.21509002512113 175.0265944360108,80.17882723181816 Q172.6714517239586,79.0483587300331 169.28004621860342,79.0483587300331 Q166.45387496414077,79.0483587300331 163.34508658423184,79.61359298092563 Q160.330503912805,80.08462152333607 157.50433265834235,80.74406148271069 Q161.46097241459006,78.20050735369429 165.2292007538736,76.03377605860626 Q168.99742909315714,73.77283905503613 172.85986314092278,72.17134201084062 Q176.7222971886884,70.56984496664512 180.67893694493614,69.72199359030633 Q184.72978240966594,68.87414221396753 188.96903929135993,68.87414221396753 Q190.6647420440375,68.87414221396753 192.17203337975093,69.0625536309317 Q193.67932471546436,69.25096504789587 194.71558750876733,69.72199359030633 Q195.8460560105524,70.09881642423468 196.505495969927,70.75825638360931 Q197.16493592930163,71.41769634298392 197.16493592930163,72.4539591362869 Q197.16493592930163,75.46854180771373 197.07073022081954,86.86743253404646 Q197.07073022081954,91.76612937511506 197.07073022081954,99.11417463671798 Q197.07073022081954,106.36801418983879 196.97652451233745,116.63643641438645 Q196.97652451233745,126.90485863893412 196.88231880385536,140.56468636883696 Q196.88231880385536,154.2245140987398 196.88231880385536,171.7467758764083 Q201.02736997706725,172.5946272527471 204.41877548242243,172.87724437819335 Q207.81018098777764,173.06565579515754 210.5421465337582,173.06565579515754 Q212.70887782884623,173.06565579515754 214.40458058152382,172.97145008667545 Q216.1944890426835,172.78303866971126 217.41916325295065,172.5946272527471 Q218.7380431716999,172.40621583578292 219.7743059650029,172.21780441881873 Q219.7743059650029,172.21780441881873 219.7743059650029,172.21780441881873 ZM283.38082276075306,172.21780441881873 Q278.85894875361276,175.23238709024557 274.4312804549546,177.77594121926197 Q270.09781786477856,180.31949534827837 266.04697240004873,182.20360951792014 Q262.09033264380105,184.18192939604398 258.5105157214816,185.31239789782904 Q254.93069879916231,186.5370721080962 252.01032183621754,186.91389494202457 Q248.99573916479073,187.19651206747082 246.73480216122059,187.10230635898873 Q244.47386515765047,187.10230635898873 242.96657382193706,186.06604356568576 Q241.45928248622363,185.1239864808649 240.61143110988485,182.95725518577683 Q239.85778544202813,180.7905238906888 239.85778544202813,177.02229555140525 Q239.85778544202813,175.0439756732814 239.85778544202813,170.33369024917695 Q239.9519911505102,165.62340482507253 239.9519911505102,159.12321093980842 Q240.0461968589923,152.6230170545443 240.14040256747438,144.89814895901304 Q240.23460827595648,137.07907515499969 240.23460827595648,129.16579564250424 Q240.32881398443857,121.1583104215267 240.42301969292066,113.62185374295962 Q240.51722540140275,105.99119135591044 240.61143110988485,99.77361459609259 Q240.70563681836694,93.55603783627474 240.70563681836694,89.41098666306284 Q240.79984252684903,85.17172978136885 240.8940482353311,83.94705557110171 Q240.9882539438132,81.21509002512113 238.63311123176098,80.17882723181816 Q236.27796851970876,79.0483587300331 232.88656301435356,79.0483587300331 Q230.06039175989093,79.0483587300331 226.95160337998198,79.61359298092563 Q223.93702070855517,80.08462152333607 221.1108494540925,80.74406148271069 Q225.06748921034023,78.20050735369429 228.83571754962378,76.03377605860626 Q232.6039458889073,73.77283905503613 236.46637993667292,72.17134201084062 Q240.32881398443857,70.56984496664512 244.2854537406863,69.72199359030633 Q248.33629920541608,68.87414221396753 252.5755560871101,68.87414221396753 Q254.27125883978766,68.87414221396753 255.7785501755011,69.0625536309317 Q257.2858415112145,69.25096504789587 258.3221043045175,69.72199359030633 Q259.45257280630256,70.09881642423468 260.11201276567715,70.75825638360931 Q260.7714527250518,71.41769634298392 260.7714527250518,72.4539591362869 Q260.7714527250518,75.46854180771373 260.6772470165697,86.86743253404646 Q260.6772470165697,91.76612937511506 260.6772470165697,99.11417463671798 Q260.6772470165697,106.36801418983879 260.5830413080876,116.63643641438645 Q260.5830413080876,126.90485863893412 260.4888355996055,140.56468636883696 Q260.4888355996055,154.2245140987398 260.4888355996055,171.7467758764083 Q264.6338867728174,172.5946272527471 268.0252922781726,172.87724437819335 Q271.4166977835278,173.06565579515754 274.14866332950834,173.06565579515754 Q276.31539462459637,173.06565579515754 278.011097377274,172.97145008667545 Q279.80100583843364,172.78303866971126 281.0256800487008,172.5946272527471 Q282.3445599674501,172.40621583578292 283.38082276075306,172.21780441881873 Q283.38082276075306,172.21780441881873 283.38082276075306,172.21780441881873 ZM346.98733955650323,172.21780441881873 Q342.465465549363,175.23238709024557 338.0377972507048,177.77594121926197 Q333.70433466052873,180.31949534827837 329.6534891957989,182.20360951792014 Q325.6968494395512,184.18192939604398 322.1170325172318,185.31239789782904 Q318.5372155949125,186.5370721080962 315.6168386319677,186.91389494202457 Q312.6022559605409,187.19651206747082 310.3413189569708,187.10230635898873 Q308.08038195340066,187.10230635898873 306.57309061768717,186.06604356568576 Q305.0657992819738,185.1239864808649 304.217947905635,182.95725518577683 Q303.46430223777827,180.7905238906888 303.46430223777827,177.02229555140525 Q303.46430223777827,175.0439756732814 303.46430223777827,170.33369024917695 Q303.5585079462604,165.62340482507253 303.5585079462604,159.12321093980842 Q303.65271365474246,152.6230170545443 303.74691936322455,144.89814895901304 Q303.84112507170664,137.07907515499969 303.84112507170664,129.16579564250424 Q303.93533078018874,121.1583104215267 304.02953648867083,113.62185374295962 Q304.1237421971529,105.99119135591044 304.217947905635,99.77361459609259 Q304.31215361411705,93.55603783627474 304.31215361411705,89.41098666306284 Q304.4063593225992,85.17172978136885 304.50056503108124,83.94705557110171 Q304.5947707395634,81.21509002512113 302.2396280275111,80.17882723181816 Q299.88448531545896,79.0483587300331 296.4930798101037,79.0483587300331 Q293.66690855564104,79.0483587300331 290.55812017573214,79.61359298092563 Q287.54353750430533,80.08462152333607 284.71736624984266,80.74406148271069 Q288.6740060060904,78.20050735369429 292.4422343453739,76.03377605860626 Q296.2104626846575,73.77283905503613 300.0728967324231,72.17134201084062 Q303.93533078018874,70.56984496664512 307.8919705364365,69.72199359030633 Q311.94281600116625,68.87414221396753 316.1820728828602,68.87414221396753 Q317.87777563553783,68.87414221396753 319.38506697125126,69.0625536309317 Q320.89235830696464,69.25096504789587 321.9286211002676,69.72199359030633 Q323.0590896020527,70.09881642423468 323.7185295614273,70.75825638360931 Q324.3779695208019,71.41769634298392 324.3779695208019,72.4539591362869 Q324.3779695208019,75.46854180771373 324.2837638123199,86.86743253404646 Q324.2837638123199,91.76612937511506 324.2837638123199,99.11417463671798 Q324.2837638123199,106.36801418983879 324.1895581038378,116.63643641438645 Q324.1895581038378,126.90485863893412 324.0953523953557,140.56468636883696 Q324.0953523953557,154.2245140987398 324.0953523953557,171.7467758764083 Q328.24040356856756,172.5946272527471 331.6318090739228,172.87724437819335 Q335.0232145792779,173.06565579515754 337.75518012525856,173.06565579515754 Q339.92191142034653,173.06565579515754 341.61761417302415,172.97145008667545 Q343.4075226341838,172.78303866971126 344.63219684445096,172.5946272527471 Q345.95107676320026,172.40621583578292 346.98733955650323,172.21780441881873 Q346.98733955650323,172.21780441881873 346.98733955650323,172.21780441881873 Z" fill="#000000"/>
		</g>
	</g>
	<g>
		<g>
			<path d="M10.175737089755074,128.0000000000004 C10.175737089755074,128.0000000000004 99.46895417568606,35.83732833388443 99.46895417568606,35.83732833388443 C99.46895417568606,35.83732833388443 413.61946403107873,35.83732833388443 413.61946403107873,35.83732833388443 C413.61946403107873,35.83732833388443 501.8242629102449,128.0000000000004 501.8242629102449,128.0000000000004 C501.8242629102449,128.0000000000004 413.61946403107726,220.162671666116 413.61946403107726,220.162671666116 L99.46895417568606,220.162671666116 C99.46895417568606,220.162671666116 10.175737089755074,128.0000000000004 10.175737089755074,128.0000000000004 Z" transform="matrix(1,0,0,1,0,0)" fill="url('#15173160531283727667')" stroke="#8c6b2a" stroke-width="12"/>
		</g>
		<g>
			<path d="M255.33172825545915,172.21780441878414 Q250.8098542483188,175.23238709021103 246.38218594966054,177.7759412192275 Q242.04872335948437,180.31949534824395 237.99787789475445,182.20360951788575 Q234.04123813850663,184.18192939600968 230.4614212161872,185.31239789779477 Q226.88160429386775,186.53707210806195 223.96122733092292,186.9138949419903 Q220.94664465949603,187.19651206743657 218.68570765592585,187.10230635895448 Q216.42477065235568,187.10230635895448 214.91747931664221,186.06604356565148 Q213.41018798092875,185.12398648083058 212.56233660458994,182.9572551857425 Q211.80869093673323,180.7905238906544 211.80869093673323,177.02229555137077 Q211.80869093673323,175.04397567324685 211.80869093673323,170.3336902491423 Q211.90289664521532,165.62340482503777 211.90289664521532,159.12321093977351 Q211.99710235369741,152.62301705450923 212.0913080621795,144.8981489589778 Q212.1855137706616,137.07907515496424 212.1855137706616,129.16579564246862 Q212.2797194791437,121.15831042149091 212.37392518762576,113.62185374292363 Q212.46813089610785,105.99119135587426 212.56233660458994,99.77361459605629 Q212.65654231307204,93.55603783623829 212.65654231307204,89.41098666302629 Q212.75074802155413,85.1717297813322 212.84495373003622,83.94705557106502 Q212.93915943851832,81.2150900250844 210.58401672646605,80.17882723178138 Q208.22887401441378,79.0483587299963 204.8374685090585,79.0483587299963 Q202.01129725459577,79.0483587299963 198.9025088746868,79.61359298088885 Q195.8879262032599,80.08462152329929 193.06175494879716,80.74406148267394 Q197.01839470504498,78.20050735365749 200.78662304432862,76.0337760585694 Q204.55485138361223,73.77283905499922 208.41728543137796,72.17134201080367 Q212.2797194791437,70.56984496660813 216.2363592353915,69.7219935902693 Q220.28720470012138,68.8741422139305 224.52646158181548,68.8741422139305 Q226.2221643344931,68.8741422139305 227.72945567020656,69.06255363089468 Q229.23674700592002,69.25096504785886 230.27300979922302,69.7219935902693 Q231.4034783010081,70.09881642419768 232.06291826038273,70.7582563835723 Q232.72235821975738,71.41769634294695 232.72235821975738,72.45395913624995 Q232.72235821975738,75.46854180767684 232.6281525112753,86.86743253400984 Q232.6281525112753,91.76612937507856 232.6281525112753,99.11417463668164 Q232.6281525112753,106.36801418980264 232.5339468027932,116.63643641435053 Q232.5339468027932,126.90485863889845 232.4397410943111,140.5646863688016 Q232.4397410943111,154.2245140987048 232.4397410943111,171.74677587637368 Q236.58479226752308,172.59462725271248 239.97619777287835,172.87724437815876 Q243.36760327823362,173.06565579512295 246.09956882421426,173.06565579512295 Q248.26630011930234,173.06565579512295 249.96200287197996,172.97145008664086 Q251.7519113331397,172.78303866967667 252.97658554340688,172.59462725271248 Q254.29546546215616,172.40621583574833 255.33172825545915,172.21780441878414 Q255.33172825545915,172.21780441878414 255.33172825545915,172.21780441878414 ZM318.9382450512108,172.21780441878414 Q314.41637104407044,175.23238709021103 309.9887027454122,177.7759412192275 Q305.655240155236,180.31949534824395 301.60439469050607,182.20360951788575 Q297.6477549342583,184.18192939600968 294.06793801193885,185.31239789779477 Q290.48812108961937,186.53707210806195 287.5677441266746,186.9138949419903 Q284.5531614552477,187.19651206743657 282.2922244516775,187.10230635895448 Q280.0312874481073,187.10230635895448 278.5239961123939,186.06604356565148 Q277.0167047766804,185.12398648083058 276.1688534003416,182.9572551857425 Q275.4152077324849,180.7905238906544 275.4152077324849,177.02229555137077 Q275.4152077324849,175.04397567324685 275.4152077324849,170.3336902491423 Q275.50941344096697,165.62340482503777 275.50941344096697,159.12321093977351 Q275.60361914944906,152.62301705450923 275.69782485793115,144.8981489589778 Q275.79203056641325,137.07907515496424 275.79203056641325,129.16579564246862 Q275.88623627489534,121.15831042149091 275.98044198337743,113.62185374292363 Q276.0746476918595,105.99119135587426 276.1688534003416,99.77361459605629 Q276.26305910882365,93.55603783623829 276.26305910882365,89.41098666302629 Q276.3572648173058,85.1717297813322 276.45147052578784,83.94705557106502 Q276.54567623427,81.2150900250844 274.1905335222177,80.17882723178138 Q271.83539081016545,79.0483587299963 268.44398530481016,79.0483587299963 Q265.6178140503474,79.0483587299963 262.5090256704384,79.61359298088885 Q259.49444299901154,80.08462152329929 256.6682717445488,80.74406148267394 Q260.62491150079666,78.20050735365749 264.39313984008027,76.0337760585694 Q268.1613681793639,73.77283905499922 272.02380222712964,72.17134201080367 Q275.88623627489534,70.56984496660813 279.84287603114313,69.7219935902693 Q283.893721495873,68.8741422139305 288.1329783775671,68.8741422139305 Q289.8286811302447,68.8741422139305 291.3359724659582,69.06255363089468 Q292.84326380167164,69.25096504785886 293.87952659497466,69.7219935902693 Q295.0099950967597,70.09881642419768 295.6694350561344,70.7582563835723 Q296.328875015509,71.41769634294695 296.328875015509,72.45395913624995 Q296.328875015509,75.46854180767684 296.23466930702693,86.86743253400984 Q296.23466930702693,91.76612937507856 296.23466930702693,99.11417463668164 Q296.23466930702693,106.36801418980264 296.14046359854484,116.63643641435053 Q296.14046359854484,126.90485863889845 296.04625789006275,140.5646863688016 Q296.04625789006275,154.2245140987048 296.04625789006275,171.74677587637368 Q300.19130906327473,172.59462725271248 303.58271456862997,172.87724437815876 Q306.97412007398526,173.06565579512295 309.7060856199659,173.06565579512295 Q311.872816915054,173.06565579512295 313.5685196677316,172.97145008664086 Q315.3584281288913,172.78303866967667 316.58310233915853,172.59462725271248 Q317.9019822579078,172.40621583574833 318.9382450512108,172.21780441878414 Q318.9382450512108,172.21780441878414 318.9382450512108,172.21780441878414 Z" fill="#000000"/>
		</g>
	</g>
</g></g></svg>