<svg xmlns="http://www.w3.org/2000/svg" viewBox="0 0 512 256" width="512" height="256"><defs><linearGradient id="10285076507043315475" x1="537.7088855073773" y1="350.7954837043895" x2="-98.68590086826624" y2="-3.7602155496337843" gradientTransform="matrix(0.002033973,0,0,0.00542519,-0.020697178,-0.194424313)"><stop stop-color="#adb5bd" /><stop offset="0.483791" stop-color="#e9ecef" /><stop offset="1" stop-color="#adb5bd" /></linearGradient></defs><g>
<g>
	<g>
		<g>
			<path d="M10.175737089755074,128.0000000000004 C10.175737089755074,128.0000000000004 99.46895417568606,35.83732833388443 99.46895417568606,35.83732833388443 C99.46895417568606,35.83732833388443 413.61946403107873,35.83732833388443 413.61946403107873,35.83732833388443 C413.61946403107873,35.83732833388443 501.8242629102449,128.0000000000004 501.8242629102449,128.0000000000004 C501.8242629102449,128.0000000000004 413.61946403107726,220.162671666116 413.61946403107726,220.162671666116 L99.46895417568606,220.162671666116 C99.46895417568606,220.162671666116 10.175737089755074,128.0000000000004 10.175737089755074,128.0000000000004 Z" transform="matrix(1,0,0,1,0,0)" fill="url('#10285076507043315475')" stroke="#3f3f3f" stroke-width="12"/>
		</g>
		<g>
			<path d="M287.13498665333543,172.21780441878403 Q282.613112646195,175.23238709021098 278.1854443475367,177.77594121922746 Q273.8519817573605,180.31949534824398 269.8011362926305,182.2036095178858 Q265.8444965363826,184.18192939600974 262.2646796140631,185.31239789779485 Q258.6848626917436,186.53707210806206 255.76448572879875,186.91389494199043 Q252.7499030573718,187.19651206743671 250.48896605380156,187.10230635895462 Q248.22802905023136,187.10230635895462 246.7207377145179,186.0660435656516 Q245.2134463788044,185.12398648083067 244.36559500246557,182.95725518574255 Q243.61194933460882,180.7905238906544 243.61194933460882,177.02229555137072 Q243.61194933460882,175.0439756732468 243.61194933460882,170.33369024914217 Q243.70615504309092,165.62340482503757 243.70615504309092,159.1232109397732 Q243.800360751573,152.62301705450884 243.8945664600551,144.89814895897726 Q243.9887721685372,137.0790751549636 243.9887721685372,129.16579564246783 Q244.0829778770193,121.15831042148999 244.17718358550138,113.6218537429226 Q244.27138929398347,105.99119135587311 244.36559500246557,99.77361459605503 Q244.45980071094766,93.55603783623694 244.45980071094766,89.41098666302487 Q244.55400641942975,85.17172978133073 244.64821212791185,83.94705557106352 Q244.74241783639394,81.21509002508284 242.38727512434164,80.17882723177982 Q240.03213241228934,79.04835872999472 236.64072690693402,79.04835872999472 Q233.81455565247126,79.04835872999472 230.7057672725622,79.61359298088728 Q227.69118460113526,80.08462152329773 224.86501334667247,80.74406148267238 Q228.82165310292035,78.2005073536559 232.58988144220405,76.03377605856777 Q236.35810978148774,73.77283905499755 240.22054382925353,72.17134201080198 Q244.0829778770193,70.56984496660641 248.03961763326717,69.72199359026757 Q252.09046309799714,68.87414221392875 256.3297199796913,68.87414221392875 Q258.02542273236895,68.87414221392875 259.53271406808244,69.06255363089294 Q261.04000540379593,69.25096504785712 262.0762681970989,69.72199359026757 Q263.206736698884,70.09881642419595 263.86617665825867,70.7582563835706 Q264.5256166176333,71.41769634294523 264.5256166176333,72.45395913624826 Q264.5256166176333,75.46854180767521 264.4314109091512,86.86743253400839 Q264.4314109091512,91.76612937507718 264.4314109091512,99.11417463668037 Q264.4314109091512,106.36801418980149 264.33720520066913,116.63643641434955 Q264.33720520066913,126.90485863889762 264.24299949218704,140.564686368801 Q264.24299949218704,154.2245140987044 264.24299949218704,171.74677587637356 Q268.3880506653991,172.5946272527124 271.77945617075443,172.87724437815868 Q275.1708616761097,173.06565579512286 277.9028272220904,173.06565579512286 Q280.0695585171785,173.06565579512286 281.7652612698562,172.97145008664077 Q283.55516973101595,172.78303866967659 284.77984394128316,172.5946272527124 Q286.09872386003246,172.4062158357482 287.13498665333543,172.21780441878403 Q287.13498665333543,172.21780441878403 287.13498665333543,172.21780441878403 Z" fill="#000000"/>
		</g>
	</g>
</g></g></svg>