<svg xmlns="http://www.w3.org/2000/svg" viewBox="0 0 743 1037" width="743" height="1037"><defs><linearGradient id="9352455517586466429" x1="584.662743793207" y1="528.7697212252592" x2="267.5233297794033" y2="404.5995950182355" gradientTransform="matrix(0.002564103,0,0,0.024390244,-0.546153846,-11.817073171)"><stop stop-color="#b73527" /><stop offset="0.348777" stop-color="#db7627" /><stop offset="0.729425" stop-color="#f29225" /><stop offset="0.930084" stop-color="#db7627" /><stop offset="1" stop-color="#b73527" /></linearGradient><clipPath id="alignment-7738008308266932913">
<path d="M235.0952268090289,499.3974522364914 C235.09522680908555,499.39745223649345 213.0000000008904,525.5 213.0000000008904,525.5 C213.0000000008904,525.5 603.0000000008904,525.5 603.0000000008904,525.5 C603.0000000008904,525.5 582.7275667608903,500.64091816 582.7275667608903,500.64091816 C582.7275667608903,500.64091816 582.9397440308904,500.64082805 582.9397440308904,500.64082805 C582.9397440308904,492.58515051 571.0358456508905,484.5 571.0358456508905,484.5 C571.0358456508905,484.5 569.3221449208904,487.71319464 561.4589542308904,490 C561.4589542308904,490 256.4846031953221,490 256.4846031953221,490 C248.62141251022103,487.71319464063396 246.9077117808904,484.5 246.9077117808904,484.5 C246.9077117808904,484.5 236.19801268189445,491.7740480719269 235.0952268090289,499.3974522364914 Z" fill="#000000"/></clipPath><linearGradient id="6651461703870222708" x1="659.3022432692505" y1="597.5684218708243" x2="42.66982513845039" y2="538.9901241601289" gradientTransform="matrix(0.002564103,0,0,0.023997907,-0.546153846,-13.030863392)"><stop stop-color="#b73527" /><stop offset="0.483791" stop-color="#f29225" /><stop offset="1" stop-color="#b73527" /></linearGradient><linearGradient id="14900273343831947212" x1="570.0038640649115" y1="698.665592467749" x2="159.46435268506113" y2="361.13588405596875" gradientTransform="matrix(0.001449275,0,0,0.014084507,-0.091304348,-7.035211268)"><stop stop-color="#b73527" /><stop offset="0.378825" stop-color="#db7627" /><stop offset="0.483791" stop-color="#f29225" /><stop offset="0.583563" stop-color="#db7627" /><stop offset="1" stop-color="#b73527" /></linearGradient><clipPath id="alignment-760062050983052513">
<path d="M62.999999999999886,535.0000000000001 C62.999999999999886,535.0000000000001 93.04996136089039,499.5 93.04996136089039,499.5 L724.0499613608904,499.5 C724.0499613608904,499.5 752.9999999999998,535 752.9999999999998,535 C752.9999999999998,535 724.0499613608904,570.5 724.0499613608904,570.5 L93.04996136089039,570.5 C93.04996136089039,570.5 62.999999999999886,535.0000000000001 62.999999999999886,535.0000000000001 Z" fill="#000000"/></clipPath><linearGradient id="7211538193569224958" x1="449.81853846071317" y1="532.1381348610471" x2="356.59071122987444" y2="480.19795844633234" gradientTransform="matrix(0.013884374,0,0,0.037033606,-5.172460533,-17.998286073)"><stop stop-color="#b73527" /><stop offset="0.483791" stop-color="#f29225" /><stop offset="1" stop-color="#b73527" /></linearGradient></defs><g>
<g>
	<g>
		<g transform="matrix(1,0,0,1,-36,-36)">
			<path d="M235.0952268090289,499.3974522364914 C235.09522680908555,499.39745223649345 213.0000000008904,525.5 213.0000000008904,525.5 C213.0000000008904,525.5 603.0000000008904,525.5 603.0000000008904,525.5 C603.0000000008904,525.5 582.7275667608903,500.64091816 582.7275667608903,500.64091816 C582.7275667608903,500.64091816 582.9397440308904,500.64082805 582.9397440308904,500.64082805 C582.9397440308904,492.58515051 571.0358456508905,484.5 571.0358456508905,484.5 C571.0358456508905,484.5 569.3221449208904,487.71319464 561.4589542308904,490 C561.4589542308904,490 256.4846031953221,490 256.4846031953221,490 C248.62141251022103,487.71319464063396 246.9077117808904,484.5 246.9077117808904,484.5 C246.9077117808904,484.5 236.19801268189445,491.7740480719269 235.0952268090289,499.3974522364914 Z" fill="url('#9352455517586466429')"/>
			<path d="M235.0952268090289,499.3974522364914 C235.09522680908555,499.39745223649345 213.0000000008904,525.5 213.0000000008904,525.5 C213.0000000008904,525.5 603.0000000008904,525.5 603.0000000008904,525.5 C603.0000000008904,525.5 582.7275667608903,500.64091816 582.7275667608903,500.64091816 C582.7275667608903,500.64091816 582.9397440308904,500.64082805 582.9397440308904,500.64082805 C582.9397440308904,492.58515051 571.0358456508905,484.5 571.0358456508905,484.5 C571.0358456508905,484.5 569.3221449208904,487.71319464 561.4589542308904,490 C561.4589542308904,490 256.4846031953221,490 256.4846031953221,490 C248.62141251022103,487.71319464063396 246.9077117808904,484.5 246.9077117808904,484.5 C246.9077117808904,484.5 236.19801268189445,491.7740480719269 235.0952268090289,499.3974522364914 Z" clip-path="url(#alignment-7738008308266932913)" fill="none" stroke="#b73527" stroke-width="8"/>
		</g>
		<g transform="matrix(1,0,0,1,-36,-36)">
			<path d="M434.99111154084983,578.499999998046 C434.99111154084983,578.499999998046 518.1775492520263,578.499999998046 518.1775492520263,578.499999998046 C518.1775492520263,578.499999998046 556.8390054948231,578.499999998046 556.8390054948231,578.499999998046 C566.9523624563961,580.7637630085823 569.0358456517774,584.670301012796 569.0358456517774,584.670301012796 C569.0358456517774,584.670301012796 579.2865764915705,577.7079850553425 580.7633461316029,570.267708416685 C580.7633461315809,570.2677084166837 603.0000000003014,542.9999999986875 603.0000000003014,542.9999999986875 C603.0000000003014,542.9999999986875 212.9999999997372,542.9999999986875 212.9999999997372,542.9999999986875 C212.9999999997372,542.9999999986875 236.21209823050734,570.4219815876429 236.21209823050734,570.4219815876429 C237.7982541286376,577.8039380769982 247.90771177654045,584.670301012796 247.90771177654045,584.670301012796 C247.90771177654045,584.670301012796 249.99119497192177,580.7637630085823 260.1045519334938,578.4999999980457 C260.10455193349475,578.499999998046 298.76600817629145,578.499999998046 298.76600817629145,578.499999998046 C298.76600817629145,578.499999998046 382.2269086912708,578.499999998046 382.2269086912708,578.499999998046 C382.22690869127086,578.499999998046 385.6191492159651,582.0012508198332 385.6191492159651,582.0012508198332 C385.6191492159651,582.0012508198332 431.64021991659206,582.0012508198332 431.64021991659206,582.0012508198332 C431.64021991659206,582.0012508198332 434.99111154084983,578.499999998046 434.99111154084983,578.499999998046 Z" fill="url('#6651461703870222708')" stroke="#b84437" stroke-width="4"/>
		</g>
		<g transform="matrix(1,0,0,1,-36,-36)">
			<path d="M62.999999999999886,535.0000000000001 C62.999999999999886,535.0000000000001 93.04996136089039,499.5 93.04996136089039,499.5 L724.0499613608904,499.5 C724.0499613608904,499.5 752.9999999999998,535 752.9999999999998,535 C752.9999999999998,535 724.0499613608904,570.5 724.0499613608904,570.5 L93.04996136089039,570.5 C93.04996136089039,570.5 62.999999999999886,535.0000000000001 62.999999999999886,535.0000000000001 Z" fill="url('#14900273343831947212')"/>
			<path d="M62.999999999999886,535.0000000000001 C62.999999999999886,535.0000000000001 93.04996136089039,499.5 93.04996136089039,499.5 L724.0499613608904,499.5 C724.0499613608904,499.5 752.9999999999998,535 752.9999999999998,535 C752.9999999999998,535 724.0499613608904,570.5 724.0499613608904,570.5 L93.04996136089039,570.5 C93.04996136089039,570.5 62.999999999999886,535.0000000000001 62.999999999999886,535.0000000000001 Z" clip-path="url(#alignment-760062050983052513)" fill="none" stroke="#b73527" stroke-width="8"/>
		</g>
		<g transform="matrix(1,0,0,1,-36,-36)">
			<path d="M372.5382554161116,499.4999999999944 C372.5382554161116,499.4999999999944 385.6191492159851,485.9987491802752 385.6191492159851,485.9987491802752 C385.6191492159851,485.9987491802752 431.64021991657205,485.9987491802752 431.64021991657205,485.9987491802752 C431.64021991657205,485.9987491802752 444.56166730565224,499.4999999999944 444.56166730565224,499.4999999999944 C444.56166730565224,499.4999999999944 431.6402199165718,513.0012508197135 431.6402199165718,513.0012508197135 L385.6191492159851,513.0012508197135 C385.6191492159851,513.0012508197135 372.5382554161116,499.4999999999944 372.5382554161116,499.4999999999944 Z" transform="matrix(1,0,0,1,0,0)" fill="url('#7211538193569224958')" stroke="#b84437" stroke-width="4"/>
		</g>
		<g transform="matrix(1,0,0,1,-36,-36)">
			<path d="M403.2431253887556,505.97762979699803 Q402.5806993322849,506.4192471679784 401.93207381865744,506.79186182474314 Q401.29724884787305,507.1644764815079 400.7038255056181,507.44048733837064 Q400.1242027062063,507.73029873807656 399.59978207816704,507.8959052521942 Q399.0753614501278,508.07531230915504 398.6475446219905,508.13051448052755 Q398.20592725101005,508.171916109057 397.87471422277474,508.15811556621384 Q397.54350119453943,508.15811556621384 397.3226925090492,508.00630959493935 Q397.10188382355904,507.8683041665079 396.9776789379708,507.5508916811158 Q396.8672745952257,507.2334791957236 396.8672745952257,506.68145748199805 Q396.8672745952257,506.39164608229214 396.8672745952257,505.70161894013523 Q396.8810751380688,505.0115917979783 396.8810751380688,504.0593543418018 Q396.8948756809119,503.10711688562526 396.9086762237551,501.9754723724879 Q396.9224767665982,500.8300273165074 396.9224767665982,499.6707817176838 Q396.9362773094414,498.4977355760171 396.9500778522845,497.393692148566 Q396.9638783951276,496.2758481782718 396.9776789379708,495.3650123506247 Q396.9914794808139,494.45417652297755 396.9914794808139,493.84695263787944 Q397.00528002365706,493.2259282099382 397.0190805665002,493.04652115297745 Q397.03288110934335,492.6463054105264 396.68786753826487,492.4944994392519 Q396.3428539671864,492.32889292513426 395.8460344248334,492.32889292513426 Q395.4320181395393,492.32889292513426 394.97660022571574,492.41169618219305 Q394.5349828547353,492.48069889640874 394.1209665694411,492.5773026963107 Q394.70058936885295,492.204688039546 395.2526110825785,491.8872755541538 Q395.804632796304,491.5560625259185 396.37045505287267,491.32145329758515 Q396.9362773094414,491.0868440692518 397.51590010885315,490.96263918366355 Q398.10932345110814,490.8384342980753 398.73034787904936,490.8384342980753 Q398.9787576502258,490.8384342980753 399.19956633571604,490.8660353837616 Q399.42037502120627,490.89363646944787 399.57218099248075,490.96263918366355 Q399.7377875065984,491.0178413550361 399.8343913065004,491.1144451549381 Q399.93099510640235,491.21104895484007 399.93099510640235,491.36285492611455 Q399.93099510640235,491.804472297095 399.91719456355924,493.47433798111473 Q399.91719456355924,494.1919662089579 399.91719456355924,495.2684085507227 Q399.91719456355924,496.33105034964433 399.90339402071606,497.8353095195464 Q399.90339402071606,499.33956868944847 399.88959347787295,501.34064740170356 Q399.88959347787295,503.3417261139586 399.88959347787295,505.9086270827823 Q400.49681736297106,506.03283196837054 400.993636905324,506.07423359689994 Q401.490456447677,506.10183468258623 401.890672190128,506.10183468258623 Q402.2080846755202,506.10183468258623 402.4564944466967,506.0880341397431 Q402.7187047607163,506.06043305405683 402.8981118176771,506.03283196837054 Q403.09131941748103,506.00523088268426 403.2431253887556,505.97762979699803 Q403.2431253887556,505.97762979699803 403.2431253887556,505.97762979699803 ZM412.561079409657,505.97762979699803 Q411.8986533531863,506.4192471679784 411.25002783955887,506.79186182474314 Q410.6152028687745,507.1644764815079 410.02177952651954,507.44048733837064 Q409.4421567271077,507.73029873807656 408.91773609906846,507.8959052521942 Q408.3933154710292,508.07531230915504 407.96549864289193,508.13051448052755 Q407.52388127191153,508.171916109057 407.19266824367617,508.15811556621384 Q406.86145521544086,508.15811556621384 406.6406465299507,508.00630959493935 Q406.41983784446046,507.8683041665079 406.2956329588722,507.5508916811158 Q406.1852286161271,507.2334791957236 406.1852286161271,506.68145748199805 Q406.1852286161271,506.39164608229214 406.1852286161271,505.70161894013523 Q406.19902915897023,505.0115917979783 406.19902915897023,504.0593543418018 Q406.21282970181335,503.10711688562526 406.2266302446565,501.9754723724879 Q406.24043078749963,500.8300273165074 406.24043078749963,499.6707817176838 Q406.2542313303428,498.4977355760171 406.2680318731859,497.393692148566 Q406.2818324160291,496.2758481782718 406.2956329588722,495.3650123506247 Q406.3094335017153,494.45417652297755 406.3094335017153,493.84695263787944 Q406.3232340445585,493.2259282099382 406.3370345874016,493.04652115297745 Q406.3508351302448,492.6463054105264 406.0058215591663,492.4944994392519 Q405.66080798808787,492.32889292513426 405.16398844573484,492.32889292513426 Q404.74997216044073,492.32889292513426 404.29455424661717,492.41169618219305 Q403.8529368756367,492.48069889640874 403.4389205903426,492.5773026963107 Q404.01854338975437,492.204688039546 404.5705651034799,491.8872755541538 Q405.12258681720544,491.5560625259185 405.6884090737741,491.32145329758515 Q406.2542313303428,491.0868440692518 406.83385412975457,490.96263918366355 Q407.42727747200956,490.8384342980753 408.0483018999508,490.8384342980753 Q408.29671167112724,490.8384342980753 408.51752035661747,490.8660353837616 Q408.7383290421077,490.89363646944787 408.8901350133822,490.96263918366355 Q409.0557415274999,491.0178413550361 409.1523453274018,491.1144451549381 Q409.2489491273038,491.21104895484007 409.2489491273038,491.36285492611455 Q409.2489491273038,491.804472297095 409.23514858446066,493.47433798111473 Q409.23514858446066,494.1919662089579 409.23514858446066,495.2684085507227 Q409.23514858446066,496.33105034964433 409.22134804161755,497.8353095195464 Q409.22134804161755,499.33956868944847 409.2075474987744,501.34064740170356 Q409.2075474987744,503.3417261139586 409.2075474987744,505.9086270827823 Q409.8147713838725,506.03283196837054 410.31159092622545,506.07423359689994 Q410.8084104685784,506.10183468258623 411.2086262110294,506.10183468258623 Q411.5260386964216,506.10183468258623 411.7744484675981,506.0880341397431 Q412.03665878161775,506.06043305405683 412.2160658385785,506.03283196837054 Q412.40927343838246,506.00523088268426 412.561079409657,505.97762979699803 Q412.561079409657,505.97762979699803 412.561079409657,505.97762979699803 ZM421.8790334305584,505.97762979699803 Q421.2166073740878,506.4192471679784 420.5679818604603,506.79186182474314 Q419.9331568896759,507.1644764815079 419.33973354742096,507.44048733837064 Q418.76011074800914,507.73029873807656 418.2356901199699,507.8959052521942 Q417.71126949193064,508.07531230915504 417.28345266379335,508.13051448052755 Q416.84183529281296,508.171916109057 416.51062226457765,508.15811556621384 Q416.1794092363423,508.15811556621384 415.9586005508521,508.00630959493935 Q415.7377918653619,507.8683041665079 415.61358697977363,507.5508916811158 Q415.50318263702854,507.2334791957236 415.50318263702854,506.68145748199805 Q415.50318263702854,506.39164608229214 415.50318263702854,505.70161894013523 Q415.51698317987166,505.0115917979783 415.51698317987166,504.0593543418018 Q415.53078372271483,503.10711688562526 415.54458426555794,501.9754723724879 Q415.55838480840106,500.8300273165074 415.55838480840106,499.6707817176838 Q415.57218535124423,498.4977355760171 415.58598589408734,497.393692148566 Q415.5997864369305,496.2758481782718 415.61358697977363,495.3650123506247 Q415.6273875226168,494.45417652297755 415.6273875226168,493.84695263787944 Q415.6411880654599,493.2259282099382 415.65498860830303,493.04652115297745 Q415.6687891511462,492.6463054105264 415.3237755800677,492.4944994392519 Q414.9787620089893,492.32889292513426 414.48194246663627,492.32889292513426 Q414.06792618134216,492.32889292513426 413.6125082675186,492.41169618219305 Q413.17089089653814,492.48069889640874 412.75687461124403,492.5773026963107 Q413.3364974106558,492.204688039546 413.88851912438133,491.8872755541538 Q414.44054083810687,491.5560625259185 415.0063630946756,491.32145329758515 Q415.57218535124423,491.0868440692518 416.15180815065605,490.96263918366355 Q416.745231492911,490.8384342980753 417.3662559208522,490.8384342980753 Q417.61466569202867,490.8384342980753 417.8354743775189,490.8660353837616 Q418.0562830630091,490.89363646944787 418.20808903428366,490.96263918366355 Q418.3736955484013,491.0178413550361 418.4702993483033,491.1144451549381 Q418.56690314820526,491.21104895484007 418.56690314820526,491.36285492611455 Q418.56690314820526,491.804472297095 418.5531026053621,493.47433798111473 Q418.5531026053621,494.1919662089579 418.5531026053621,495.2684085507227 Q418.5531026053621,496.33105034964433 418.53930206251897,497.8353095195464 Q418.53930206251897,499.33956868944847 418.5255015196758,501.34064740170356 Q418.5255015196758,503.3417261139586 418.5255015196758,505.9086270827823 Q419.1327254047739,506.03283196837054 419.6295449471269,506.07423359689994 Q420.12636448947984,506.10183468258623 420.5265802319309,506.10183468258623 Q420.84399271732303,506.10183468258623 421.09240248849954,506.0880341397431 Q421.35461280251917,506.06043305405683 421.53401985947994,506.03283196837054 Q421.7272274592839,506.00523088268426 421.8790334305584,505.97762979699803 Q421.8790334305584,505.97762979699803 421.8790334305584,505.97762979699803 Z" fill="#000000"/>
		</g>
	</g>
</g></g></svg>