<svg xmlns="http://www.w3.org/2000/svg" viewBox="0 0 744 1038" width="744" height="1038"><defs><linearGradient id="1889224134508907494" x1="665.0529003530435" y1="543.229133667192" x2="138.90510098066986" y2="440.2908342908611" gradientTransform="matrix(0.002564103,0,0,0.028169014,-0.546153846,-13.802816901)"><stop stop-color="#a67219" /><stop offset="0.253579" stop-color="#c6922b" /><stop offset="0.649575" stop-color="#fad369" /><stop offset="0.831804" stop-color="#c6922b" /><stop offset="1" stop-color="#a67219" /></linearGradient><clipPath id="alignment-4944964937314404232">
<path d="M212.9999999999999,525.5000000000001 C212.9999999999999,525.5000000000001 243.0499613608904,490 243.0499613608904,490 L574.0499613608904,490 C574.0499613608904,490 602.9999999999998,525.5 602.9999999999998,525.5 C602.9999999999998,525.5 212.9999999999999,525.5000000000001 212.9999999999999,525.5000000000001 Z" fill="#000000"/></clipPath><linearGradient id="10473419197202552467" x1="1041.2415940471583" y1="611.0214027353499" x2="-355.96051479524874" y2="517.7032217925553" gradientTransform="matrix(0.002570694,0,0,0.0243895,-0.550128535,-13.19471941)"><stop stop-color="#a67219" /><stop offset="0.342127" stop-color="#c6922b" /><stop offset="0.550303" stop-color="#fad369" /><stop offset="0.810257" stop-color="#c6922b" /><stop offset="1" stop-color="#a67219" /></linearGradient><linearGradient id="6232026121664234477" x1="715.0762860245763" y1="796.9189052030881" x2="155.52947231549751" y2="397.44684988726243" gradientTransform="matrix(0.001449275,0,0,0.014084507,-0.091304348,-7.035211268)"><stop stop-color="#a67219" /><stop offset="0.424481" stop-color="#c6922b" /><stop offset="0.678345" stop-color="#fad369" /><stop offset="0.905507" stop-color="#c6922b" /><stop offset="1" stop-color="#a67219" /></linearGradient><clipPath id="alignment-5433170150320941148">
<path d="M62.999999999999886,535.0000000000001 C62.999999999999886,535.0000000000001 93.04996136089039,499.5 93.04996136089039,499.5 L724.0499613608904,499.5 C724.0499613608904,499.5 752.9999999999998,535 752.9999999999998,535 C752.9999999999998,535 724.0499613608904,570.5 724.0499613608904,570.5 L93.04996136089039,570.5 C93.04996136089039,570.5 62.999999999999886,535.0000000000001 62.999999999999886,535.0000000000001 Z" fill="#000000"/></clipPath><linearGradient id="2235363709304482202" x1="443.0791638673733" y1="506.59378145414905" x2="377.93198670647763" y2="469.52728753561365" gradientTransform="matrix(0.013884374,0,0,0.037033606,-5.172460533,-17.998286073)"><stop stop-color="#c6922b" /><stop offset="0.524688" stop-color="#fad369" /><stop offset="1" stop-color="#c6922b" /></linearGradient><linearGradient id="4105094409106806549" x1="584.6627437932071" y1="528.7697212252592" x2="267.5233297794033" y2="404.5995950182355" gradientTransform="matrix(0.002564103,0,0,0.024390244,-0.546153846,-11.817073171)"><stop stop-color="#b73527" /><stop offset="0.348777" stop-color="#db7627" /><stop offset="0.729425" stop-color="#f29225" /><stop offset="0.930084" stop-color="#db7627" /><stop offset="1" stop-color="#b73527" /></linearGradient><clipPath id="alignment-14114976464036053080">
<path d="M235.0952268090289,499.3974522364914 C235.09522680908555,499.39745223649345 213.0000000008904,525.5 213.0000000008904,525.5 C213.0000000008904,525.5 603.0000000008904,525.5 603.0000000008904,525.5 C603.0000000008904,525.5 582.7275667608903,500.64091816 582.7275667608903,500.64091816 C582.7275667608903,500.64091816 582.9397440308904,500.64082805 582.9397440308904,500.64082805 C582.9397440308904,492.58515051 571.0358456508905,484.5 571.0358456508905,484.5 C571.0358456508905,484.5 569.3221449208904,487.71319464 561.4589542308904,490 C561.4589542308904,490 256.4846031953221,490 256.4846031953221,490 C248.62141251022103,487.71319464063396 246.9077117808904,484.5 246.9077117808904,484.5 C246.9077117808904,484.5 236.19801268189445,491.7740480719269 235.0952268090289,499.3974522364914 Z" fill="#000000"/></clipPath><linearGradient id="6316170317235266728" x1="659.3022432692505" y1="597.5684218708242" x2="42.66982513845039" y2="538.990124160129" gradientTransform="matrix(0.002564103,0,0,0.023997907,-0.546153846,-13.030863392)"><stop stop-color="#b73527" /><stop offset="0.483791" stop-color="#f29225" /><stop offset="1" stop-color="#b73527" /></linearGradient><linearGradient id="2019162330452744136" x1="570.0038640649115" y1="698.665592467749" x2="159.46435268506113" y2="361.13588405596875" gradientTransform="matrix(0.001449275,0,0,0.014084507,-0.091304348,-7.035211268)"><stop stop-color="#b73527" /><stop offset="0.378825" stop-color="#db7627" /><stop offset="0.483791" stop-color="#f29225" /><stop offset="0.583563" stop-color="#db7627" /><stop offset="1" stop-color="#b73527" /></linearGradient><clipPath id="alignment-9402115186036753953">
<path d="M62.999999999999886,535.0000000000001 C62.999999999999886,535.0000000000001 93.04996136089039,499.5 93.04996136089039,499.5 L724.0499613608904,499.5 C724.0499613608904,499.5 752.9999999999998,535 752.9999999999998,535 C752.9999999999998,535 724.0499613608904,570.5 724.0499613608904,570.5 L93.04996136089039,570.5 C93.04996136089039,570.5 62.999999999999886,535.0000000000001 62.999999999999886,535.0000000000001 Z" fill="#000000"/></clipPath><linearGradient id="16187289215504019118" x1="449.81853846071317" y1="532.1381348610471" x2="356.59071122987444" y2="480.19795844633234" gradientTransform="matrix(0.013884374,0,0,0.037033606,-5.172460533,-17.998286073)"><stop stop-color="#b73527" /><stop offset="0.483791" stop-color="#f29225" /><stop offset="1" stop-color="#b73527" /></linearGradient><linearGradient id="785775233563908574" x1="584.6627437932071" y1="528.7697212252592" x2="267.5233297794033" y2="404.5995950182355" gradientTransform="matrix(0.002564103,0,0,0.024390244,-0.546153846,-11.817073171)"><stop stop-color="#c43228" /><stop offset="0.348777" stop-color="#db7627" /><stop offset="0.729425" stop-color="#f29225" /><stop offset="0.930084" stop-color="#db7627" /><stop offset="1" stop-color="#c43228" /></linearGradient><clipPath id="alignment-4075133515580063511">
<path d="M235.0952268090289,499.3974522364914 C235.09522680908555,499.39745223649345 213.0000000008904,525.5 213.0000000008904,525.5 C213.0000000008904,525.5 603.0000000008904,525.5 603.0000000008904,525.5 C603.0000000008904,525.5 582.7275667608903,500.64091816 582.7275667608903,500.64091816 C582.7275667608903,500.64091816 582.9397440308904,500.64082805 582.9397440308904,500.64082805 C582.9397440308904,492.58515051 571.0358456508905,484.5 571.0358456508905,484.5 C571.0358456508905,484.5 569.3221449208904,487.71319464 561.4589542308904,490 C561.4589542308904,490 256.4846031953221,490 256.4846031953221,490 C248.62141251022103,487.71319464063396 246.9077117808904,484.5 246.9077117808904,484.5 C246.9077117808904,484.5 236.19801268189445,491.7740480719269 235.0952268090289,499.3974522364914 Z" fill="#000000"/></clipPath><linearGradient id="1360932936279449558" x1="659.3022432692505" y1="597.5684218708242" x2="42.66982513845039" y2="538.990124160129" gradientTransform="matrix(0.002564103,0,0,0.023997907,-0.546153846,-13.030863392)"><stop stop-color="#c43228" /><stop offset="0.483791" stop-color="#f29225" /><stop offset="1" stop-color="#c43228" /></linearGradient><linearGradient id="1994521955350260017" x1="570.0038640649115" y1="698.665592467749" x2="159.46435268506113" y2="361.13588405596875" gradientTransform="matrix(0.001449275,0,0,0.014084507,-0.091304348,-7.035211268)"><stop stop-color="#c43228" /><stop offset="0.378825" stop-color="#db7627" /><stop offset="0.483791" stop-color="#f29225" /><stop offset="0.583563" stop-color="#db7627" /><stop offset="1" stop-color="#c43228" /></linearGradient><clipPath id="alignment-15235829392284922819">
<path d="M62.999999999999886,535.0000000000001 C62.999999999999886,535.0000000000001 93.04996136089039,499.5 93.04996136089039,499.5 L724.0499613608904,499.5 C724.0499613608904,499.5 752.9999999999998,535 752.9999999999998,535 C752.9999999999998,535 724.0499613608904,570.5 724.0499613608904,570.5 L93.04996136089039,570.5 C93.04996136089039,570.5 62.999999999999886,535.0000000000001 62.999999999999886,535.0000000000001 Z" fill="#000000"/></clipPath><linearGradient id="700989555349907582" x1="449.81853846071317" y1="532.1381348610471" x2="356.59071122987444" y2="480.19795844633234" gradientTransform="matrix(0.013884374,0,0,0.037033606,-5.172460533,-17.998286073)"><stop stop-color="#c43228" /><stop offset="0.483791" stop-color="#f29225" /><stop offset="1" stop-color="#c43228" /></linearGradient></defs><g>
<g>
	<g>
		<g transform="matrix(1,0,0,1,-36,-36)">
			<path d="M212.9999999999999,525.5000000000001 C212.9999999999999,525.5000000000001 243.0499613608904,490 243.0499613608904,490 L574.0499613608904,490 C574.0499613608904,490 602.9999999999998,525.5 602.9999999999998,525.5 C602.9999999999998,525.5 212.9999999999999,525.5000000000001 212.9999999999999,525.5000000000001 Z" fill="url('#1889224134508907494')"/>
			<path d="M212.9999999999999,525.5000000000001 C212.9999999999999,525.5000000000001 243.0499613608904,490 243.0499613608904,490 L574.0499613608904,490 C574.0499613608904,490 602.9999999999998,525.5 602.9999999999998,525.5 C602.9999999999998,525.5 212.9999999999999,525.5000000000001 212.9999999999999,525.5000000000001 Z" clip-path="url(#alignment-4944964937314404232)" fill="none" stroke="#8c6b2a" stroke-width="8"/>
		</g>
		<g transform="matrix(1,0,0,1,-36,-36)">
			<path d="M434.99111154085097,578.4999999980461 C434.99111154085097,578.4999999980461 572.9500386383166,578.4999999980461 572.9500386383166,578.4999999980461 C572.9500386383166,578.4999999980461 603.0000000003026,541.0000000018663 603.0000000003026,541.0000000018663 C603.0000000003026,541.0000000018663 214.00000000006685,541.0000000018663 214.00000000006685,541.0000000018663 C214.00000000006685,541.0000000018663 243.95003863894829,578.4999999980461 243.95003863894829,578.4999999980461 C243.95003863894829,578.4999999980461 382.226908691272,578.4999999980461 382.226908691272,578.4999999980461 C382.226908691272,578.4999999980461 385.6191492159662,582.0012508198333 385.6191492159662,582.0012508198333 C385.6191492159662,582.0012508198333 431.6402199165932,582.0012508198333 431.6402199165932,582.0012508198333 C431.6402199165932,582.0012508198333 434.99111154085097,578.4999999980461 434.99111154085097,578.4999999980461 Z" fill="url('#10473419197202552467')" stroke="#8c6b2a" stroke-width="4"/>
		</g>
		<g transform="matrix(1,0,0,1,-36,-36)">
			<path d="M62.999999999999886,535.0000000000001 C62.999999999999886,535.0000000000001 93.04996136089039,499.5 93.04996136089039,499.5 L724.0499613608904,499.5 C724.0499613608904,499.5 752.9999999999998,535 752.9999999999998,535 C752.9999999999998,535 724.0499613608904,570.5 724.0499613608904,570.5 L93.04996136089039,570.5 C93.04996136089039,570.5 62.999999999999886,535.0000000000001 62.999999999999886,535.0000000000001 Z" fill="url('#6232026121664234477')"/>
			<path d="M62.999999999999886,535.0000000000001 C62.999999999999886,535.0000000000001 93.04996136089039,499.5 93.04996136089039,499.5 L724.0499613608904,499.5 C724.0499613608904,499.5 752.9999999999998,535 752.9999999999998,535 C752.9999999999998,535 724.0499613608904,570.5 724.0499613608904,570.5 L93.04996136089039,570.5 C93.04996136089039,570.5 62.999999999999886,535.0000000000001 62.999999999999886,535.0000000000001 Z" clip-path="url(#alignment-5433170150320941148)" fill="none" stroke="#8c6b2a" stroke-width="8"/>
		</g>
		<g transform="matrix(1,0,0,1,-36,-36)">
			<path d="M372.5382554161116,499.4999999999944 C372.5382554161116,499.4999999999944 385.6191492159851,485.9987491802752 385.6191492159851,485.9987491802752 C385.6191492159851,485.9987491802752 431.64021991657205,485.9987491802752 431.64021991657205,485.9987491802752 C431.64021991657205,485.9987491802752 444.56166730565224,499.4999999999944 444.56166730565224,499.4999999999944 C444.56166730565224,499.4999999999944 431.6402199165718,513.0012508197135 431.6402199165718,513.0012508197135 L385.6191492159851,513.0012508197135 C385.6191492159851,513.0012508197135 372.5382554161116,499.4999999999944 372.5382554161116,499.4999999999944 Z" transform="matrix(1,0,0,1,0,0)" fill="url('#2235363709304482202')" stroke="#8c6b2a" stroke-width="4"/>
		</g>
		<g transform="matrix(1,0,0,1,-36,-36)">
			<path d="M408.4520637600969,505.97762979699803 Q407.7896377036262,506.4192471679785 407.1410121899988,506.7918618247432 Q406.5061872192144,507.16447648150796 405.91276387695945,507.4404873383707 Q405.3331410775476,507.7302987380766 404.80872044950837,507.89590525219427 Q404.2842998214691,508.0753123091551 403.85648299333184,508.1305144805276 Q403.4148656223514,508.17191610905707 403.0836525941161,508.1581155662139 Q402.75243956588076,508.1581155662139 402.53163088039054,508.0063095949394 Q402.31082219490037,507.868304166508 402.1866173093121,507.55089168111584 Q402.076212966567,507.23347919572365 402.076212966567,506.6814574819981 Q402.076212966567,506.3916460822922 402.076212966567,505.7016189401353 Q402.09001350941014,505.0115917979784 402.09001350941014,504.05935434180185 Q402.10381405225326,503.1071168856253 402.1176145950964,501.97547237248796 Q402.13141513793954,500.8300273165075 402.13141513793954,499.67078171768384 Q402.1452156807827,498.49773557601713 402.1590162236258,497.39369214856606 Q402.17281676646894,496.2758481782719 402.1866173093121,495.36501235062474 Q402.2004178521552,494.4541765229776 402.2004178521552,493.8469526378795 Q402.2142183949984,493.2259282099383 402.2280189378415,493.0465211529775 Q402.2418194806847,492.64630541052645 401.8968059096062,492.49449943925197 Q401.5517923385277,492.3288929251343 401.05497279617475,492.3288929251343 Q400.64095651088064,492.3288929251343 400.1855385970571,492.4116961821931 Q399.7439212260766,492.4806988964088 399.32990494078246,492.57730269631077 Q399.9095277401943,492.20468803954606 400.4615494539198,491.88727555415386 Q401.01357116764535,491.55606252591855 401.579393424214,491.3214532975852 Q402.1452156807827,491.08684406925187 402.7248384801945,490.9626391836636 Q403.3182618224495,490.83843429807536 403.9392862503907,490.83843429807536 Q404.18769602156715,490.83843429807536 404.4085047070574,490.86603538376164 Q404.6293133925476,490.8936364694479 404.7811193638221,490.9626391836636 Q404.94672587793974,491.0178413550362 405.0433296778417,491.11444515493815 Q405.1399334777437,491.21104895484007 405.1399334777437,491.3628549261146 Q405.1399334777437,491.80447229709506 405.12613293490057,493.4743379811148 Q405.12613293490057,494.191966208958 405.12613293490057,495.26840855072277 Q405.12613293490057,496.3310503496444 405.1123323920574,497.83530951954646 Q405.1123323920574,499.3395686894485 405.0985318492143,501.3406474017036 Q405.0985318492143,503.34172611395866 405.0985318492143,505.90862708278235 Q405.7057557343124,506.0328319683706 406.20257527666536,506.07423359690006 Q406.6993948190183,506.1018346825863 407.0996105614693,506.1018346825863 Q407.4170230468615,506.1018346825863 407.665432818038,506.0880341397432 Q407.92764313205765,506.0604330540569 408.1070501890184,506.0328319683706 Q408.30025778882236,506.0052308826843 408.4520637600969,505.97762979699803 Q408.4520637600969,505.97762979699803 408.4520637600969,505.97762979699803 ZM417.77001778099833,505.97762979699803 Q417.10759172452765,506.4192471679785 416.4589662109002,506.7918618247432 Q415.8241412401158,507.16447648150796 415.23071789786087,507.4404873383707 Q414.65109509844905,507.7302987380766 414.1266744704098,507.89590525219427 Q413.60225384237054,508.0753123091551 413.17443701423326,508.1305144805276 Q412.73281964325287,508.17191610905707 412.4016066150175,508.1581155662139 Q412.0703935867822,508.1581155662139 411.849584901292,508.0063095949394 Q411.6287762158018,507.868304166508 411.50457133021354,507.55089168111584 Q411.39416698746845,507.23347919572365 411.39416698746845,506.6814574819981 Q411.39416698746845,506.3916460822922 411.39416698746845,505.7016189401353 Q411.40796753031157,505.0115917979784 411.40796753031157,504.05935434180185 Q411.4217680731547,503.1071168856253 411.43556861599785,501.97547237248796 Q411.44936915884097,500.8300273165075 411.44936915884097,499.67078171768384 Q411.46316970168414,498.49773557601713 411.47697024452725,497.39369214856606 Q411.4907707873704,496.2758481782719 411.50457133021354,495.36501235062474 Q411.51837187305665,494.4541765229776 411.51837187305665,493.8469526378795 Q411.5321724158998,493.2259282099383 411.54597295874294,493.0465211529775 Q411.5597735015861,492.64630541052645 411.2147599305076,492.49449943925197 Q410.8697463594292,492.3288929251343 410.3729268170762,492.3288929251343 Q409.95891053178207,492.3288929251343 409.5034926179585,492.4116961821931 Q409.06187524697805,492.4806988964088 408.64785896168394,492.57730269631077 Q409.2274817610957,492.20468803954606 409.77950347482124,491.88727555415386 Q410.3315251885468,491.55606252591855 410.89734744511543,491.3214532975852 Q411.46316970168414,491.08684406925187 412.0427925010959,490.9626391836636 Q412.6362158433509,490.83843429807536 413.2572402712921,490.83843429807536 Q413.5056500424686,490.83843429807536 413.7264587279588,490.86603538376164 Q413.947267413449,490.8936364694479 414.0990733847235,490.9626391836636 Q414.2646798988412,491.0178413550362 414.36128369874314,491.11444515493815 Q414.4578874986451,491.21104895484007 414.4578874986451,491.3628549261146 Q414.4578874986451,491.80447229709506 414.444086955802,493.4743379811148 Q414.444086955802,494.191966208958 414.444086955802,495.26840855072277 Q414.444086955802,496.3310503496444 414.4302864129589,497.83530951954646 Q414.4302864129589,499.3395686894485 414.4164858701157,501.3406474017036 Q414.4164858701157,503.34172611395866 414.4164858701157,505.90862708278235 Q415.0237097552138,506.0328319683706 415.5205292975668,506.07423359690006 Q416.01734883991975,506.1018346825863 416.41756458237074,506.1018346825863 Q416.73497706776294,506.1018346825863 416.98338683893945,506.0880341397432 Q417.2455971529591,506.0604330540569 417.42500420991985,506.0328319683706 Q417.6182118097238,506.0052308826843 417.77001778099833,505.97762979699803 Q417.77001778099833,505.97762979699803 417.77001778099833,505.97762979699803 Z" fill="#000000"/>
		</g>
	</g>
	<g>
		<g transform="matrix(1,0,0,1,-36,-36)">
			<path d="M235.0952268090289,499.3974522364914 C235.09522680908555,499.39745223649345 213.0000000008904,525.5 213.0000000008904,525.5 C213.0000000008904,525.5 603.0000000008904,525.5 603.0000000008904,525.5 C603.0000000008904,525.5 582.7275667608903,500.64091816 582.7275667608903,500.64091816 C582.7275667608903,500.64091816 582.9397440308904,500.64082805 582.9397440308904,500.64082805 C582.9397440308904,492.58515051 571.0358456508905,484.5 571.0358456508905,484.5 C571.0358456508905,484.5 569.3221449208904,487.71319464 561.4589542308904,490 C561.4589542308904,490 256.4846031953221,490 256.4846031953221,490 C248.62141251022103,487.71319464063396 246.9077117808904,484.5 246.9077117808904,484.5 C246.9077117808904,484.5 236.19801268189445,491.7740480719269 235.0952268090289,499.3974522364914 Z" fill="url('#4105094409106806549')"/>
			<path d="M235.0952268090289,499.3974522364914 C235.09522680908555,499.39745223649345 213.0000000008904,525.5 213.0000000008904,525.5 C213.0000000008904,525.5 603.0000000008904,525.5 603.0000000008904,525.5 C603.0000000008904,525.5 582.7275667608903,500.64091816 582.7275667608903,500.64091816 C582.7275667608903,500.64091816 582.9397440308904,500.64082805 582.9397440308904,500.64082805 C582.9397440308904,492.58515051 571.0358456508905,484.5 571.0358456508905,484.5 C571.0358456508905,484.5 569.3221449208904,487.71319464 561.4589542308904,490 C561.4589542308904,490 256.4846031953221,490 256.4846031953221,490 C248.62141251022103,487.71319464063396 246.9077117808904,484.5 246.9077117808904,484.5 C246.9077117808904,484.5 236.19801268189445,491.7740480719269 235.0952268090289,499.3974522364914 Z" clip-path="url(#alignment-14114976464036053080)" fill="none" stroke="#b73527" stroke-width="8"/>
		</g>
		<g transform="matrix(1,0,0,1,-36,-36)">
			<path d="M434.99111154084983,578.499999998046 C434.99111154084983,578.499999998046 518.1775492520263,578.499999998046 518.1775492520263,578.499999998046 C518.1775492520263,578.499999998046 556.8390054948231,578.499999998046 556.8390054948231,578.499999998046 C566.9523624563961,580.7637630085823 569.0358456517774,584.670301012796 569.0358456517774,584.670301012796 C569.0358456517774,584.670301012796 579.2865764915705,577.7079850553425 580.7633461316029,570.267708416685 C580.7633461315809,570.2677084166837 603.0000000003014,542.9999999986876 603.0000000003014,542.9999999986876 C603.0000000003014,542.9999999986876 212.9999999997372,542.9999999986876 212.9999999997372,542.9999999986876 C212.9999999997372,542.9999999986876 236.21209823050734,570.4219815876429 236.21209823050734,570.4219815876429 C237.7982541286376,577.8039380769982 247.90771177654045,584.670301012796 247.90771177654045,584.670301012796 C247.90771177654045,584.670301012796 249.99119497192177,580.7637630085823 260.1045519334938,578.4999999980457 C260.10455193349475,578.499999998046 298.76600817629145,578.499999998046 298.76600817629145,578.499999998046 C298.76600817629145,578.499999998046 382.2269086912708,578.499999998046 382.2269086912708,578.499999998046 C382.22690869127086,578.499999998046 385.6191492159651,582.0012508198332 385.6191492159651,582.0012508198332 C385.6191492159651,582.0012508198332 431.64021991659206,582.0012508198332 431.64021991659206,582.0012508198332 C431.64021991659206,582.0012508198332 434.99111154084983,578.499999998046 434.99111154084983,578.499999998046 Z" fill="url('#6316170317235266728')" stroke="#b84437" stroke-width="4"/>
		</g>
		<g transform="matrix(1,0,0,1,-36,-36)">
			<path d="M62.999999999999886,535.0000000000001 C62.999999999999886,535.0000000000001 93.04996136089039,499.5 93.04996136089039,499.5 L724.0499613608904,499.5 C724.0499613608904,499.5 752.9999999999998,535 752.9999999999998,535 C752.9999999999998,535 724.0499613608904,570.5 724.0499613608904,570.5 L93.04996136089039,570.5 C93.04996136089039,570.5 62.999999999999886,535.0000000000001 62.999999999999886,535.0000000000001 Z" fill="url('#2019162330452744136')"/>
			<path d="M62.999999999999886,535.0000000000001 C62.999999999999886,535.0000000000001 93.04996136089039,499.5 93.04996136089039,499.5 L724.0499613608904,499.5 C724.0499613608904,499.5 752.9999999999998,535 752.9999999999998,535 C752.9999999999998,535 724.0499613608904,570.5 724.0499613608904,570.5 L93.04996136089039,570.5 C93.04996136089039,570.5 62.999999999999886,535.0000000000001 62.999999999999886,535.0000000000001 Z" clip-path="url(#alignment-9402115186036753953)" fill="none" stroke="#b73527" stroke-width="8"/>
		</g>
		<g transform="matrix(1,0,0,1,-36,-36)">
			<path d="M372.5382554161116,499.4999999999944 C372.5382554161116,499.4999999999944 385.6191492159851,485.9987491802752 385.6191492159851,485.9987491802752 C385.6191492159851,485.9987491802752 431.64021991657205,485.9987491802752 431.64021991657205,485.9987491802752 C431.64021991657205,485.9987491802752 444.56166730565224,499.4999999999944 444.56166730565224,499.4999999999944 C444.56166730565224,499.4999999999944 431.6402199165718,513.0012508197135 431.6402199165718,513.0012508197135 L385.6191492159851,513.0012508197135 C385.6191492159851,513.0012508197135 372.5382554161116,499.4999999999944 372.5382554161116,499.4999999999944 Z" transform="matrix(1,0,0,1,0,0)" fill="url('#16187289215504019118')" stroke="#b84437" stroke-width="4"/>
		</g>
		<g transform="matrix(1,0,0,1,-36,-36)">
			<path d="M403.2431253887556,505.97762979699803 Q402.5806993322849,506.4192471679784 401.93207381865744,506.79186182474314 Q401.29724884787305,507.1644764815079 400.7038255056181,507.44048733837064 Q400.1242027062063,507.73029873807656 399.59978207816704,507.8959052521942 Q399.0753614501278,508.07531230915504 398.6475446219905,508.13051448052755 Q398.20592725101005,508.171916109057 397.87471422277474,508.15811556621384 Q397.54350119453943,508.15811556621384 397.3226925090492,508.00630959493935 Q397.10188382355904,507.8683041665079 396.9776789379708,507.5508916811158 Q396.8672745952257,507.2334791957236 396.8672745952257,506.68145748199805 Q396.8672745952257,506.39164608229214 396.8672745952257,505.70161894013523 Q396.8810751380688,505.0115917979783 396.8810751380688,504.0593543418018 Q396.8948756809119,503.10711688562526 396.9086762237551,501.9754723724879 Q396.9224767665982,500.8300273165074 396.9224767665982,499.6707817176838 Q396.9362773094414,498.4977355760171 396.9500778522845,497.393692148566 Q396.9638783951276,496.2758481782718 396.9776789379708,495.3650123506247 Q396.9914794808139,494.45417652297755 396.9914794808139,493.84695263787944 Q397.00528002365706,493.2259282099382 397.0190805665002,493.04652115297745 Q397.03288110934335,492.6463054105264 396.68786753826487,492.4944994392519 Q396.3428539671864,492.32889292513426 395.8460344248334,492.32889292513426 Q395.4320181395393,492.32889292513426 394.97660022571574,492.41169618219305 Q394.5349828547353,492.48069889640874 394.1209665694411,492.5773026963107 Q394.70058936885295,492.204688039546 395.2526110825785,491.8872755541538 Q395.804632796304,491.5560625259185 396.37045505287267,491.32145329758515 Q396.9362773094414,491.0868440692518 397.51590010885315,490.96263918366355 Q398.10932345110814,490.8384342980753 398.73034787904936,490.8384342980753 Q398.9787576502258,490.8384342980753 399.19956633571604,490.8660353837616 Q399.42037502120627,490.89363646944787 399.57218099248075,490.96263918366355 Q399.7377875065984,491.0178413550361 399.8343913065004,491.1144451549381 Q399.93099510640235,491.21104895484007 399.93099510640235,491.36285492611455 Q399.93099510640235,491.804472297095 399.91719456355924,493.47433798111473 Q399.91719456355924,494.1919662089579 399.91719456355924,495.2684085507227 Q399.91719456355924,496.33105034964433 399.90339402071606,497.8353095195464 Q399.90339402071606,499.33956868944847 399.88959347787295,501.34064740170356 Q399.88959347787295,503.3417261139586 399.88959347787295,505.9086270827823 Q400.49681736297106,506.03283196837054 400.993636905324,506.07423359689994 Q401.490456447677,506.10183468258623 401.890672190128,506.10183468258623 Q402.2080846755202,506.10183468258623 402.4564944466967,506.0880341397431 Q402.7187047607163,506.06043305405683 402.8981118176771,506.03283196837054 Q403.09131941748103,506.00523088268426 403.2431253887556,505.97762979699803 Q403.2431253887556,505.97762979699803 403.2431253887556,505.97762979699803 ZM412.561079409657,505.97762979699803 Q411.8986533531863,506.4192471679784 411.25002783955887,506.79186182474314 Q410.6152028687745,507.1644764815079 410.02177952651954,507.44048733837064 Q409.4421567271077,507.73029873807656 408.91773609906846,507.8959052521942 Q408.3933154710292,508.07531230915504 407.96549864289193,508.13051448052755 Q407.52388127191153,508.171916109057 407.19266824367617,508.15811556621384 Q406.86145521544086,508.15811556621384 406.6406465299507,508.00630959493935 Q406.41983784446046,507.8683041665079 406.2956329588722,507.5508916811158 Q406.1852286161271,507.2334791957236 406.1852286161271,506.68145748199805 Q406.1852286161271,506.39164608229214 406.1852286161271,505.70161894013523 Q406.19902915897023,505.0115917979783 406.19902915897023,504.0593543418018 Q406.21282970181335,503.10711688562526 406.2266302446565,501.9754723724879 Q406.24043078749963,500.8300273165074 406.24043078749963,499.6707817176838 Q406.2542313303428,498.4977355760171 406.2680318731859,497.393692148566 Q406.2818324160291,496.2758481782718 406.2956329588722,495.3650123506247 Q406.3094335017153,494.45417652297755 406.3094335017153,493.84695263787944 Q406.3232340445585,493.2259282099382 406.3370345874016,493.04652115297745 Q406.3508351302448,492.6463054105264 406.0058215591663,492.4944994392519 Q405.66080798808787,492.32889292513426 405.16398844573484,492.32889292513426 Q404.74997216044073,492.32889292513426 404.29455424661717,492.41169618219305 Q403.8529368756367,492.48069889640874 403.4389205903426,492.5773026963107 Q404.01854338975437,492.204688039546 404.5705651034799,491.8872755541538 Q405.12258681720544,491.5560625259185 405.6884090737741,491.32145329758515 Q406.2542313303428,491.0868440692518 406.83385412975457,490.96263918366355 Q407.42727747200956,490.8384342980753 408.0483018999508,490.8384342980753 Q408.29671167112724,490.8384342980753 408.51752035661747,490.8660353837616 Q408.7383290421077,490.89363646944787 408.8901350133822,490.96263918366355 Q409.0557415274999,491.0178413550361 409.1523453274018,491.1144451549381 Q409.2489491273038,491.21104895484007 409.2489491273038,491.36285492611455 Q409.2489491273038,491.804472297095 409.23514858446066,493.47433798111473 Q409.23514858446066,494.1919662089579 409.23514858446066,495.2684085507227 Q409.23514858446066,496.33105034964433 409.22134804161755,497.8353095195464 Q409.22134804161755,499.33956868944847 409.2075474987744,501.34064740170356 Q409.2075474987744,503.3417261139586 409.2075474987744,505.9086270827823 Q409.8147713838725,506.03283196837054 410.31159092622545,506.07423359689994 Q410.8084104685784,506.10183468258623 411.2086262110294,506.10183468258623 Q411.5260386964216,506.10183468258623 411.7744484675981,506.0880341397431 Q412.03665878161775,506.06043305405683 412.2160658385785,506.03283196837054 Q412.40927343838246,506.00523088268426 412.561079409657,505.97762979699803 Q412.561079409657,505.97762979699803 412.561079409657,505.97762979699803 ZM421.8790334305584,505.97762979699803 Q421.2166073740878,506.4192471679784 420.5679818604603,506.79186182474314 Q419.9331568896759,507.1644764815079 419.33973354742096,507.44048733837064 Q418.76011074800914,507.73029873807656 418.2356901199699,507.8959052521942 Q417.71126949193064,508.07531230915504 417.28345266379335,508.13051448052755 Q416.84183529281296,508.171916109057 416.51062226457765,508.15811556621384 Q416.1794092363423,508.15811556621384 415.9586005508521,508.00630959493935 Q415.7377918653619,507.8683041665079 415.61358697977363,507.5508916811158 Q415.50318263702854,507.2334791957236 415.50318263702854,506.68145748199805 Q415.50318263702854,506.39164608229214 415.50318263702854,505.70161894013523 Q415.51698317987166,505.0115917979783 415.51698317987166,504.0593543418018 Q415.53078372271483,503.10711688562526 415.54458426555794,501.9754723724879 Q415.55838480840106,500.8300273165074 415.55838480840106,499.6707817176838 Q415.57218535124423,498.4977355760171 415.58598589408734,497.393692148566 Q415.5997864369305,496.2758481782718 415.61358697977363,495.3650123506247 Q415.6273875226168,494.45417652297755 415.6273875226168,493.84695263787944 Q415.6411880654599,493.2259282099382 415.65498860830303,493.04652115297745 Q415.6687891511462,492.6463054105264 415.3237755800677,492.4944994392519 Q414.9787620089893,492.32889292513426 414.48194246663627,492.32889292513426 Q414.06792618134216,492.32889292513426 413.6125082675186,492.41169618219305 Q413.17089089653814,492.48069889640874 412.75687461124403,492.5773026963107 Q413.3364974106558,492.204688039546 413.88851912438133,491.8872755541538 Q414.44054083810687,491.5560625259185 415.0063630946756,491.32145329758515 Q415.57218535124423,491.0868440692518 416.15180815065605,490.96263918366355 Q416.745231492911,490.8384342980753 417.3662559208522,490.8384342980753 Q417.61466569202867,490.8384342980753 417.8354743775189,490.8660353837616 Q418.0562830630091,490.89363646944787 418.20808903428366,490.96263918366355 Q418.3736955484013,491.0178413550361 418.4702993483033,491.1144451549381 Q418.56690314820526,491.21104895484007 418.56690314820526,491.36285492611455 Q418.56690314820526,491.804472297095 418.5531026053621,493.47433798111473 Q418.5531026053621,494.1919662089579 418.5531026053621,495.2684085507227 Q418.5531026053621,496.33105034964433 418.53930206251897,497.8353095195464 Q418.53930206251897,499.33956868944847 418.5255015196758,501.34064740170356 Q418.5255015196758,503.3417261139586 418.5255015196758,505.9086270827823 Q419.1327254047739,506.03283196837054 419.6295449471269,506.07423359689994 Q420.12636448947984,506.10183468258623 420.5265802319309,506.10183468258623 Q420.84399271732303,506.10183468258623 421.09240248849954,506.0880341397431 Q421.35461280251917,506.06043305405683 421.53401985947994,506.03283196837054 Q421.7272274592839,506.00523088268426 421.8790334305584,505.97762979699803 Q421.8790334305584,505.97762979699803 421.8790334305584,505.97762979699803 Z" fill="#000000"/>
		</g>
	</g>
	<g>
		<g transform="matrix(1,0,0,1,-36,-36)">
			<path d="M235.0952268090289,499.3974522364914 C235.09522680908555,499.39745223649345 213.0000000008904,525.5 213.0000000008904,525.5 C213.0000000008904,525.5 603.0000000008904,525.5 603.0000000008904,525.5 C603.0000000008904,525.5 582.7275667608903,500.64091816 582.7275667608903,500.64091816 C582.7275667608903,500.64091816 582.9397440308904,500.64082805 582.9397440308904,500.64082805 C582.9397440308904,492.58515051 571.0358456508905,484.5 571.0358456508905,484.5 C571.0358456508905,484.5 569.3221449208904,487.71319464 561.4589542308904,490 C561.4589542308904,490 256.4846031953221,490 256.4846031953221,490 C248.62141251022103,487.71319464063396 246.9077117808904,484.5 246.9077117808904,484.5 C246.9077117808904,484.5 236.19801268189445,491.7740480719269 235.0952268090289,499.3974522364914 Z" fill="url('#785775233563908574')"/>
			<path d="M235.0952268090289,499.3974522364914 C235.09522680908555,499.39745223649345 213.0000000008904,525.5 213.0000000008904,525.5 C213.0000000008904,525.5 603.0000000008904,525.5 603.0000000008904,525.5 C603.0000000008904,525.5 582.7275667608903,500.64091816 582.7275667608903,500.64091816 C582.7275667608903,500.64091816 582.9397440308904,500.64082805 582.9397440308904,500.64082805 C582.9397440308904,492.58515051 571.0358456508905,484.5 571.0358456508905,484.5 C571.0358456508905,484.5 569.3221449208904,487.71319464 561.4589542308904,490 C561.4589542308904,490 256.4846031953221,490 256.4846031953221,490 C248.62141251022103,487.71319464063396 246.9077117808904,484.5 246.9077117808904,484.5 C246.9077117808904,484.5 236.19801268189445,491.7740480719269 235.0952268090289,499.3974522364914 Z" clip-path="url(#alignment-4075133515580063511)" fill="none" stroke="#b22819" stroke-width="8"/>
		</g>
		<g transform="matrix(1,0,0,1,-36,-36)">
			<path d="M434.99111154084983,578.499999998046 C434.99111154084983,578.499999998046 518.1775492520263,578.499999998046 518.1775492520263,578.499999998046 C518.1775492520263,578.499999998046 556.8390054948231,578.499999998046 556.8390054948231,578.499999998046 C566.9523624563961,580.7637630085823 569.0358456517774,584.670301012796 569.0358456517774,584.670301012796 C569.0358456517774,584.670301012796 579.2865764915705,577.7079850553425 580.7633461316029,570.267708416685 C580.7633461315809,570.2677084166837 603.0000000003014,542.9999999986876 603.0000000003014,542.9999999986876 C603.0000000003014,542.9999999986876 212.9999999997372,542.9999999986876 212.9999999997372,542.9999999986876 C212.9999999997372,542.9999999986876 236.21209823050734,570.4219815876429 236.21209823050734,570.4219815876429 C237.7982541286376,577.8039380769982 247.90771177654045,584.670301012796 247.90771177654045,584.670301012796 C247.90771177654045,584.670301012796 249.99119497192177,580.7637630085823 260.1045519334938,578.4999999980457 C260.10455193349475,578.499999998046 298.76600817629145,578.499999998046 298.76600817629145,578.499999998046 C298.76600817629145,578.499999998046 382.2269086912708,578.499999998046 382.2269086912708,578.499999998046 C382.22690869127086,578.499999998046 385.6191492159651,582.0012508198332 385.6191492159651,582.0012508198332 C385.6191492159651,582.0012508198332 431.64021991659206,582.0012508198332 431.64021991659206,582.0012508198332 C431.64021991659206,582.0012508198332 434.99111154084983,578.499999998046 434.99111154084983,578.499999998046 Z" fill="url('#1360932936279449558')" stroke="#b73527" stroke-width="4"/>
		</g>
		<g transform="matrix(1,0,0,1,-36,-36)">
			<path d="M62.999999999999886,535.0000000000001 C62.999999999999886,535.0000000000001 93.04996136089039,499.5 93.04996136089039,499.5 L724.0499613608904,499.5 C724.0499613608904,499.5 752.9999999999998,535 752.9999999999998,535 C752.9999999999998,535 724.0499613608904,570.5 724.0499613608904,570.5 L93.04996136089039,570.5 C93.04996136089039,570.5 62.999999999999886,535.0000000000001 62.999999999999886,535.0000000000001 Z" fill="url('#1994521955350260017')"/>
			<path d="M62.999999999999886,535.0000000000001 C62.999999999999886,535.0000000000001 93.04996136089039,499.5 93.04996136089039,499.5 L724.0499613608904,499.5 C724.0499613608904,499.5 752.9999999999998,535 752.9999999999998,535 C752.9999999999998,535 724.0499613608904,570.5 724.0499613608904,570.5 L93.04996136089039,570.5 C93.04996136089039,570.5 62.999999999999886,535.0000000000001 62.999999999999886,535.0000000000001 Z" clip-path="url(#alignment-15235829392284922819)" fill="none" stroke="#b22719" stroke-width="8"/>
		</g>
		<g transform="matrix(1,0,0,1,-36,-36)">
			<path d="M372.5382554161116,499.4999999999944 C372.5382554161116,499.4999999999944 385.6191492159851,485.9987491802752 385.6191492159851,485.9987491802752 C385.6191492159851,485.9987491802752 431.64021991657205,485.9987491802752 431.64021991657205,485.9987491802752 C431.64021991657205,485.9987491802752 444.56166730565224,499.4999999999944 444.56166730565224,499.4999999999944 C444.56166730565224,499.4999999999944 431.6402199165718,513.0012508197135 431.6402199165718,513.0012508197135 L385.6191492159851,513.0012508197135 C385.6191492159851,513.0012508197135 372.5382554161116,499.4999999999944 372.5382554161116,499.4999999999944 Z" transform="matrix(1,0,0,1,0,0)" fill="url('#700989555349907582')" stroke="#b73527" stroke-width="4"/>
		</g>
		<g transform="matrix(1,0,0,1,-36,-36)">
			<path d="M403.2431253887556,505.97762979699803 Q402.5806993322849,506.4192471679784 401.93207381865744,506.79186182474314 Q401.29724884787305,507.1644764815079 400.7038255056181,507.44048733837064 Q400.1242027062063,507.73029873807656 399.59978207816704,507.8959052521942 Q399.0753614501278,508.07531230915504 398.6475446219905,508.13051448052755 Q398.20592725101005,508.171916109057 397.87471422277474,508.15811556621384 Q397.54350119453943,508.15811556621384 397.3226925090492,508.00630959493935 Q397.10188382355904,507.8683041665079 396.9776789379708,507.5508916811158 Q396.8672745952257,507.2334791957236 396.8672745952257,506.68145748199805 Q396.8672745952257,506.39164608229214 396.8672745952257,505.70161894013523 Q396.8810751380688,505.0115917979783 396.8810751380688,504.0593543418018 Q396.8948756809119,503.10711688562526 396.9086762237551,501.9754723724879 Q396.9224767665982,500.8300273165074 396.9224767665982,499.6707817176838 Q396.9362773094414,498.4977355760171 396.9500778522845,497.393692148566 Q396.9638783951276,496.2758481782718 396.9776789379708,495.3650123506247 Q396.9914794808139,494.45417652297755 396.9914794808139,493.84695263787944 Q397.00528002365706,493.2259282099382 397.0190805665002,493.04652115297745 Q397.03288110934335,492.6463054105264 396.68786753826487,492.4944994392519 Q396.3428539671864,492.32889292513426 395.8460344248334,492.32889292513426 Q395.4320181395393,492.32889292513426 394.97660022571574,492.41169618219305 Q394.5349828547353,492.48069889640874 394.1209665694411,492.5773026963107 Q394.70058936885295,492.204688039546 395.2526110825785,491.8872755541538 Q395.804632796304,491.5560625259185 396.37045505287267,491.32145329758515 Q396.9362773094414,491.0868440692518 397.51590010885315,490.96263918366355 Q398.10932345110814,490.8384342980753 398.73034787904936,490.8384342980753 Q398.9787576502258,490.8384342980753 399.19956633571604,490.8660353837616 Q399.42037502120627,490.89363646944787 399.57218099248075,490.96263918366355 Q399.7377875065984,491.0178413550361 399.8343913065004,491.1144451549381 Q399.93099510640235,491.21104895484007 399.93099510640235,491.36285492611455 Q399.93099510640235,491.804472297095 399.91719456355924,493.47433798111473 Q399.91719456355924,494.1919662089579 399.91719456355924,495.2684085507227 Q399.91719456355924,496.33105034964433 399.90339402071606,497.8353095195464 Q399.90339402071606,499.33956868944847 399.88959347787295,501.34064740170356 Q399.88959347787295,503.3417261139586 399.88959347787295,505.9086270827823 Q400.49681736297106,506.03283196837054 400.993636905324,506.07423359689994 Q401.490456447677,506.10183468258623 401.890672190128,506.10183468258623 Q402.2080846755202,506.10183468258623 402.4564944466967,506.0880341397431 Q402.7187047607163,506.06043305405683 402.8981118176771,506.03283196837054 Q403.09131941748103,506.00523088268426 403.2431253887556,505.97762979699803 Q403.2431253887556,505.97762979699803 403.2431253887556,505.97762979699803 ZM412.561079409657,505.97762979699803 Q411.8986533531863,506.4192471679784 411.25002783955887,506.79186182474314 Q410.6152028687745,507.1644764815079 410.02177952651954,507.44048733837064 Q409.4421567271077,507.73029873807656 408.91773609906846,507.8959052521942 Q408.3933154710292,508.07531230915504 407.96549864289193,508.13051448052755 Q407.52388127191153,508.171916109057 407.19266824367617,508.15811556621384 Q406.86145521544086,508.15811556621384 406.6406465299507,508.00630959493935 Q406.41983784446046,507.8683041665079 406.2956329588722,507.5508916811158 Q406.1852286161271,507.2334791957236 406.1852286161271,506.68145748199805 Q406.1852286161271,506.39164608229214 406.1852286161271,505.70161894013523 Q406.19902915897023,505.0115917979783 406.19902915897023,504.0593543418018 Q406.21282970181335,503.10711688562526 406.2266302446565,501.9754723724879 Q406.24043078749963,500.8300273165074 406.24043078749963,499.6707817176838 Q406.2542313303428,498.4977355760171 406.2680318731859,497.393692148566 Q406.2818324160291,496.2758481782718 406.2956329588722,495.3650123506247 Q406.3094335017153,494.45417652297755 406.3094335017153,493.84695263787944 Q406.3232340445585,493.2259282099382 406.3370345874016,493.04652115297745 Q406.3508351302448,492.6463054105264 406.0058215591663,492.4944994392519 Q405.66080798808787,492.32889292513426 405.16398844573484,492.32889292513426 Q404.74997216044073,492.32889292513426 404.29455424661717,492.41169618219305 Q403.8529368756367,492.48069889640874 403.4389205903426,492.5773026963107 Q404.01854338975437,492.204688039546 404.5705651034799,491.8872755541538 Q405.12258681720544,491.5560625259185 405.6884090737741,491.32145329758515 Q406.2542313303428,491.0868440692518 406.83385412975457,490.96263918366355 Q407.42727747200956,490.8384342980753 408.0483018999508,490.8384342980753 Q408.29671167112724,490.8384342980753 408.51752035661747,490.8660353837616 Q408.7383290421077,490.89363646944787 408.8901350133822,490.96263918366355 Q409.0557415274999,491.0178413550361 409.1523453274018,491.1144451549381 Q409.2489491273038,491.21104895484007 409.2489491273038,491.36285492611455 Q409.2489491273038,491.804472297095 409.23514858446066,493.47433798111473 Q409.23514858446066,494.1919662089579 409.23514858446066,495.2684085507227 Q409.23514858446066,496.33105034964433 409.22134804161755,497.8353095195464 Q409.22134804161755,499.33956868944847 409.2075474987744,501.34064740170356 Q409.2075474987744,503.3417261139586 409.2075474987744,505.9086270827823 Q409.8147713838725,506.03283196837054 410.31159092622545,506.07423359689994 Q410.8084104685784,506.10183468258623 411.2086262110294,506.10183468258623 Q411.5260386964216,506.10183468258623 411.7744484675981,506.0880341397431 Q412.03665878161775,506.06043305405683 412.2160658385785,506.03283196837054 Q412.40927343838246,506.00523088268426 412.561079409657,505.97762979699803 Q412.561079409657,505.97762979699803 412.561079409657,505.97762979699803 ZM421.8790334305584,505.97762979699803 Q421.2166073740878,506.4192471679784 420.5679818604603,506.79186182474314 Q419.9331568896759,507.1644764815079 419.33973354742096,507.44048733837064 Q418.76011074800914,507.73029873807656 418.2356901199699,507.8959052521942 Q417.71126949193064,508.07531230915504 417.28345266379335,508.13051448052755 Q416.84183529281296,508.171916109057 416.51062226457765,508.15811556621384 Q416.1794092363423,508.15811556621384 415.9586005508521,508.00630959493935 Q415.7377918653619,507.8683041665079 415.61358697977363,507.5508916811158 Q415.50318263702854,507.2334791957236 415.50318263702854,506.68145748199805 Q415.50318263702854,506.39164608229214 415.50318263702854,505.70161894013523 Q415.51698317987166,505.0115917979783 415.51698317987166,504.0593543418018 Q415.53078372271483,503.10711688562526 415.54458426555794,501.9754723724879 Q415.55838480840106,500.8300273165074 415.55838480840106,499.6707817176838 Q415.57218535124423,498.4977355760171 415.58598589408734,497.393692148566 Q415.5997864369305,496.2758481782718 415.61358697977363,495.3650123506247 Q415.6273875226168,494.45417652297755 415.6273875226168,493.84695263787944 Q415.6411880654599,493.2259282099382 415.65498860830303,493.04652115297745 Q415.6687891511462,492.6463054105264 415.3237755800677,492.4944994392519 Q414.9787620089893,492.32889292513426 414.48194246663627,492.32889292513426 Q414.06792618134216,492.32889292513426 413.6125082675186,492.41169618219305 Q413.17089089653814,492.48069889640874 412.75687461124403,492.5773026963107 Q413.3364974106558,492.204688039546 413.88851912438133,491.8872755541538 Q414.44054083810687,491.5560625259185 415.0063630946756,491.32145329758515 Q415.57218535124423,491.0868440692518 416.15180815065605,490.96263918366355 Q416.745231492911,490.8384342980753 417.3662559208522,490.8384342980753 Q417.61466569202867,490.8384342980753 417.8354743775189,490.8660353837616 Q418.0562830630091,490.89363646944787 418.20808903428366,490.96263918366355 Q418.3736955484013,491.0178413550361 418.4702993483033,491.1144451549381 Q418.56690314820526,491.21104895484007 418.56690314820526,491.36285492611455 Q418.56690314820526,491.804472297095 418.5531026053621,493.47433798111473 Q418.5531026053621,494.1919662089579 418.5531026053621,495.2684085507227 Q418.5531026053621,496.33105034964433 418.53930206251897,497.8353095195464 Q418.53930206251897,499.33956868944847 418.5255015196758,501.34064740170356 Q418.5255015196758,503.3417261139586 418.5255015196758,505.9086270827823 Q419.1327254047739,506.03283196837054 419.6295449471269,506.07423359689994 Q420.12636448947984,506.10183468258623 420.5265802319309,506.10183468258623 Q420.84399271732303,506.10183468258623 421.09240248849954,506.0880341397431 Q421.35461280251917,506.06043305405683 421.53401985947994,506.03283196837054 Q421.7272274592839,506.00523088268426 421.8790334305584,505.97762979699803 Q421.8790334305584,505.97762979699803 421.8790334305584,505.97762979699803 Z" fill="#000000"/>
		</g>
	</g>
</g></g></svg>