<svg xmlns="http://www.w3.org/2000/svg" viewBox="0 0 511 255" width="511" height="255"><defs><linearGradient id="15889902628550694650" x1="523.4973583984378" y1="242.39603759765623" x2="-46.35396240234354" y2="30.338018798828195" gradientTransform="matrix(0.002033973,0,0,0.00542519,-0.020697178,-0.194424313)"><stop stop-color="#c43228" /><stop offset="0.389558" stop-color="#db7627" /><stop offset="0.538712" stop-color="#f29225" /><stop offset="0.675134" stop-color="#db7627" /><stop offset="1" stop-color="#c43228" /></linearGradient></defs><g>
<g>
	<g>
		<g>
			<path d="M10.175737089755074,128.0000000000004 C10.175737089755074,128.0000000000004 99.46895417568606,35.83732833388443 99.46895417568606,35.83732833388443 C99.46895417568606,35.83732833388443 413.61946403107873,35.83732833388443 413.61946403107873,35.83732833388443 C413.61946403107873,35.83732833388443 501.8242629102449,128.0000000000004 501.8242629102449,128.0000000000004 C501.8242629102449,128.0000000000004 413.61946403107726,220.162671666116 413.61946403107726,220.162671666116 L99.46895417568606,220.162671666116 C99.46895417568606,220.162671666116 10.175737089755074,128.0000000000004 10.175737089755074,128.0000000000004 Z" transform="matrix(1,0,0,1,0,0)" fill="url('#15889902628550694650')" stroke="#b73527" stroke-width="12"/>
		</g>
		<g>
			<path d="M219.7743059650029,172.21780441881873 Q215.25243195786263,175.23238709024557 210.82476365920445,177.77594121926197 Q206.4913010690284,180.31949534827837 202.4404556042986,182.20360951792014 Q198.48381584805085,184.18192939604398 194.9039989257315,185.31239789782904 Q191.32418200341215,186.5370721080962 188.40380504046738,186.91389494202457 Q185.38922236904057,187.19651206747082 183.12828536547042,187.10230635898873 Q180.8673483619003,187.10230635898873 179.3600570261869,186.06604356568576 Q177.85276569047346,185.1239864808649 177.00491431413468,182.95725518577683 Q176.25126864627796,180.7905238906888 176.25126864627796,177.02229555140525 Q176.25126864627796,175.0439756732814 176.25126864627796,170.33369024917695 Q176.34547435476006,165.62340482507253 176.34547435476006,159.12321093980842 Q176.43968006324215,152.6230170545443 176.53388577172421,144.89814895901304 Q176.6280914802063,137.07907515499969 176.6280914802063,129.16579564250424 Q176.7222971886884,121.1583104215267 176.8165028971705,113.62185374295962 Q176.9107086056526,105.99119135591044 177.00491431413468,99.77361459609259 Q177.09912002261677,93.55603783627474 177.09912002261677,89.41098666306284 Q177.19332573109884,85.17172978136885 177.28753143958093,83.94705557110171 Q177.38173714806302,81.21509002512113 175.0265944360108,80.17882723181816 Q172.6714517239586,79.0483587300331 169.28004621860342,79.0483587300331 Q166.45387496414077,79.0483587300331 163.34508658423184,79.61359298092563 Q160.330503912805,80.08462152333607 157.50433265834235,80.74406148271069 Q161.46097241459006,78.20050735369429 165.2292007538736,76.03377605860626 Q168.99742909315714,73.77283905503613 172.85986314092278,72.17134201084062 Q176.7222971886884,70.56984496664512 180.67893694493614,69.72199359030633 Q184.72978240966594,68.87414221396753 188.96903929135993,68.87414221396753 Q190.6647420440375,68.87414221396753 192.17203337975093,69.0625536309317 Q193.67932471546436,69.25096504789587 194.71558750876733,69.72199359030633 Q195.8460560105524,70.09881642423468 196.505495969927,70.75825638360931 Q197.16493592930163,71.41769634298392 197.16493592930163,72.4539591362869 Q197.16493592930163,75.46854180771373 197.07073022081954,86.86743253404646 Q197.07073022081954,91.76612937511506 197.07073022081954,99.11417463671798 Q197.07073022081954,106.36801418983879 196.97652451233745,116.63643641438645 Q196.97652451233745,126.90485863893412 196.88231880385536,140.56468636883696 Q196.88231880385536,154.2245140987398 196.88231880385536,171.7467758764083 Q201.02736997706725,172.5946272527471 204.41877548242243,172.87724437819335 Q207.81018098777764,173.06565579515754 210.5421465337582,173.06565579515754 Q212.70887782884623,173.06565579515754 214.40458058152382,172.97145008667545 Q216.1944890426835,172.78303866971126 217.41916325295065,172.5946272527471 Q218.7380431716999,172.40621583578292 219.7743059650029,172.21780441881873 Q219.7743059650029,172.21780441881873 219.7743059650029,172.21780441881873 ZM283.38082276075306,172.21780441881873 Q278.85894875361276,175.23238709024557 274.4312804549546,177.77594121926197 Q270.09781786477856,180.31949534827837 266.04697240004873,182.20360951792014 Q262.09033264380105,184.18192939604398 258.5105157214816,185.31239789782904 Q254.93069879916231,186.5370721080962 252.01032183621754,186.91389494202457 Q248.99573916479073,187.19651206747082 246.73480216122059,187.10230635898873 Q244.47386515765047,187.10230635898873 242.96657382193706,186.06604356568576 Q241.45928248622363,185.1239864808649 240.61143110988485,182.95725518577683 Q239.85778544202813,180.7905238906888 239.85778544202813,177.02229555140525 Q239.85778544202813,175.0439756732814 239.85778544202813,170.33369024917695 Q239.9519911505102,165.62340482507253 239.9519911505102,159.12321093980842 Q240.0461968589923,152.6230170545443 240.14040256747438,144.89814895901304 Q240.23460827595648,137.07907515499969 240.23460827595648,129.16579564250424 Q240.32881398443857,121.1583104215267 240.42301969292066,113.62185374295962 Q240.51722540140275,105.99119135591044 240.61143110988485,99.77361459609259 Q240.70563681836694,93.55603783627474 240.70563681836694,89.41098666306284 Q240.79984252684903,85.17172978136885 240.8940482353311,83.94705557110171 Q240.9882539438132,81.21509002512113 238.63311123176098,80.17882723181816 Q236.27796851970876,79.0483587300331 232.88656301435356,79.0483587300331 Q230.06039175989093,79.0483587300331 226.95160337998198,79.61359298092563 Q223.93702070855517,80.08462152333607 221.1108494540925,80.74406148271069 Q225.06748921034023,78.20050735369429 228.83571754962378,76.03377605860626 Q232.6039458889073,73.77283905503613 236.46637993667292,72.17134201084062 Q240.32881398443857,70.56984496664512 244.2854537406863,69.72199359030633 Q248.33629920541608,68.87414221396753 252.5755560871101,68.87414221396753 Q254.27125883978766,68.87414221396753 255.7785501755011,69.0625536309317 Q257.2858415112145,69.25096504789587 258.3221043045175,69.72199359030633 Q259.45257280630256,70.09881642423468 260.11201276567715,70.75825638360931 Q260.7714527250518,71.41769634298392 260.7714527250518,72.4539591362869 Q260.7714527250518,75.46854180771373 260.6772470165697,86.86743253404646 Q260.6772470165697,91.76612937511506 260.6772470165697,99.11417463671798 Q260.6772470165697,106.36801418983879 260.5830413080876,116.63643641438645 Q260.5830413080876,126.90485863893412 260.4888355996055,140.56468636883696 Q260.4888355996055,154.2245140987398 260.4888355996055,171.7467758764083 Q264.6338867728174,172.5946272527471 268.0252922781726,172.87724437819335 Q271.4166977835278,173.06565579515754 274.14866332950834,173.06565579515754 Q276.31539462459637,173.06565579515754 278.011097377274,172.97145008667545 Q279.80100583843364,172.78303866971126 281.0256800487008,172.5946272527471 Q282.3445599674501,172.40621583578292 283.38082276075306,172.21780441881873 Q283.38082276075306,172.21780441881873 283.38082276075306,172.21780441881873 ZM346.98733955650323,172.21780441881873 Q342.465465549363,175.23238709024557 338.0377972507048,177.77594121926197 Q333.70433466052873,180.31949534827837 329.6534891957989,182.20360951792014 Q325.6968494395512,184.18192939604398 322.1170325172318,185.31239789782904 Q318.5372155949125,186.5370721080962 315.6168386319677,186.91389494202457 Q312.6022559605409,187.19651206747082 310.3413189569708,187.10230635898873 Q308.08038195340066,187.10230635898873 306.57309061768717,186.06604356568576 Q305.0657992819738,185.1239864808649 304.217947905635,182.95725518577683 Q303.46430223777827,180.7905238906888 303.46430223777827,177.02229555140525 Q303.46430223777827,175.0439756732814 303.46430223777827,170.33369024917695 Q303.5585079462604,165.62340482507253 303.5585079462604,159.12321093980842 Q303.65271365474246,152.6230170545443 303.74691936322455,144.89814895901304 Q303.84112507170664,137.07907515499969 303.84112507170664,129.16579564250424 Q303.93533078018874,121.1583104215267 304.02953648867083,113.62185374295962 Q304.1237421971529,105.99119135591044 304.217947905635,99.77361459609259 Q304.31215361411705,93.55603783627474 304.31215361411705,89.41098666306284 Q304.4063593225992,85.17172978136885 304.50056503108124,83.94705557110171 Q304.5947707395634,81.21509002512113 302.2396280275111,80.17882723181816 Q299.88448531545896,79.0483587300331 296.4930798101037,79.0483587300331 Q293.66690855564104,79.0483587300331 290.55812017573214,79.61359298092563 Q287.54353750430533,80.08462152333607 284.71736624984266,80.74406148271069 Q288.6740060060904,78.20050735369429 292.4422343453739,76.03377605860626 Q296.2104626846575,73.77283905503613 300.0728967324231,72.17134201084062 Q303.93533078018874,70.56984496664512 307.8919705364365,69.72199359030633 Q311.94281600116625,68.87414221396753 316.1820728828602,68.87414221396753 Q317.87777563553783,68.87414221396753 319.38506697125126,69.0625536309317 Q320.89235830696464,69.25096504789587 321.9286211002676,69.72199359030633 Q323.0590896020527,70.09881642423468 323.7185295614273,70.75825638360931 Q324.3779695208019,71.41769634298392 324.3779695208019,72.4539591362869 Q324.3779695208019,75.46854180771373 324.2837638123199,86.86743253404646 Q324.2837638123199,91.76612937511506 324.2837638123199,99.11417463671798 Q324.2837638123199,106.36801418983879 324.1895581038378,116.63643641438645 Q324.1895581038378,126.90485863893412 324.0953523953557,140.56468636883696 Q324.0953523953557,154.2245140987398 324.0953523953557,171.7467758764083 Q328.24040356856756,172.5946272527471 331.6318090739228,172.87724437819335 Q335.0232145792779,173.06565579515754 337.75518012525856,173.06565579515754 Q339.92191142034653,173.06565579515754 341.61761417302415,172.97145008667545 Q343.4075226341838,172.78303866971126 344.63219684445096,172.5946272527471 Q345.95107676320026,172.40621583578292 346.98733955650323,172.21780441881873 Q346.98733955650323,172.21780441881873 346.98733955650323,172.21780441881873 Z" fill="#000000"/>
		</g>
	</g>
</g></g></svg>