<svg xmlns="http://www.w3.org/2000/svg" viewBox="0 0 744 1038" width="744" height="1038"><defs><linearGradient id="17196895692481323329" x1="424.66346114354513" y1="549.8307082768999" x2="257.0895702319332" y2="379.490639230899" gradientTransform="matrix(0.001449275,0,0,0.014084507,-0.091304348,-6.190140845)"><stop stop-color="#adb5bd" /><stop offset="0.483791" stop-color="#e9ecef" /><stop offset="1" stop-color="#adb5bd" /></linearGradient><clipPath id="alignment-1910543706435034448">
<path d="M62.999999999999886,475.00000000000006 C62.999999999999886,475.00000000000006 93.04996136089039,439.5 93.04996136089039,439.5 L724.0499613608904,439.5 C724.0499613608904,439.5 752.9999999999998,475.00000000000006 752.9999999999998,475.00000000000006 C752.9999999999998,475.00000000000006 724.0499613608904,510.5 724.0499613608904,510.5 L93.04996136089039,510.5 C93.04996136089039,510.5 62.999999999999886,475.00000000000006 62.999999999999886,475.00000000000006 Z" fill="#000000"/></clipPath><linearGradient id="4647989938224551329" x1="410.2893227021093" y1="467.9593848299566" x2="392.79766564839923" y2="403.1761736514118" gradientTransform="matrix(0.013884374,0,0,0.037033606,-5.172460533,-15.776269727)"><stop stop-color="#adb5bd" /><stop offset="0.483791" stop-color="#e9ecef" /><stop offset="1" stop-color="#adb5bd" /></linearGradient></defs><g>
<g>
	<g>
		<g transform="matrix(1,0,0,1,-36,-36)">
			<path d="M62.999999999999886,475.00000000000006 C62.999999999999886,475.00000000000006 93.04996136089039,439.5 93.04996136089039,439.5 L724.0499613608904,439.5 C724.0499613608904,439.5 752.9999999999998,475.00000000000006 752.9999999999998,475.00000000000006 C752.9999999999998,475.00000000000006 724.0499613608904,510.5 724.0499613608904,510.5 L93.04996136089039,510.5 C93.04996136089039,510.5 62.999999999999886,475.00000000000006 62.999999999999886,475.00000000000006 Z" fill="url('#17196895692481323329')"/>
			<path d="M62.999999999999886,475.00000000000006 C62.999999999999886,475.00000000000006 93.04996136089039,439.5 93.04996136089039,439.5 L724.0499613608904,439.5 C724.0499613608904,439.5 752.9999999999998,475.00000000000006 752.9999999999998,475.00000000000006 C752.9999999999998,475.00000000000006 724.0499613608904,510.5 724.0499613608904,510.5 L93.04996136089039,510.5 C93.04996136089039,510.5 62.999999999999886,475.00000000000006 62.999999999999886,475.00000000000006 Z" clip-path="url(#alignment-1910543706435034448)" fill="none" stroke="#3f3f3f" stroke-width="4"/>
		</g>
		<g transform="matrix(1,0,0,1,-36,-36)">
			<path d="M372.5382554161116,439.4999999999944 C372.5382554161116,439.4999999999944 385.6191492159851,425.9987491802752 385.6191492159851,425.9987491802752 C385.6191492159851,425.9987491802752 431.64021991657205,425.9987491802752 431.64021991657205,425.9987491802752 C431.64021991657205,425.9987491802752 444.56166730565224,439.4999999999944 444.56166730565224,439.4999999999944 C444.56166730565224,439.4999999999944 431.6402199165718,453.00125081971356 431.6402199165718,453.00125081971356 L385.6191492159851,453.00125081971356 C385.6191492159851,453.00125081971356 372.5382554161116,439.4999999999944 372.5382554161116,439.4999999999944 Z" transform="matrix(1,0,0,1,0,0)" fill="url('#4647989938224551329')" stroke="#3f3f3f" stroke-width="4"/>
		</g>
		<g transform="matrix(1,0,0,1,-36,-36)">
			<path d="M413.1110407705477,445.97762979699803 Q412.448614714077,446.4192471679785 411.79998920044955,446.7918618247432 Q411.16516422966515,447.16447648150796 410.5717408874102,447.4404873383707 Q409.9921180879984,447.7302987380766 409.46769745995914,447.89590525219427 Q408.9432768319199,448.0753123091551 408.5154600037826,448.1305144805276 Q408.0738426328022,448.17191610905707 407.74262960456684,448.1581155662139 Q407.41141657633153,448.1581155662139 407.1906078908413,448.0063095949394 Q406.96979920535114,447.868304166508 406.8455943197629,447.55089168111584 Q406.7351899770178,447.23347919572365 406.7351899770178,446.6814574819981 Q406.7351899770178,446.3916460822922 406.7351899770178,445.7016189401353 Q406.7489905198609,445.0115917979784 406.7489905198609,444.05935434180185 Q406.762791062704,443.1071168856253 406.7765916055472,441.97547237248796 Q406.7903921483903,440.8300273165075 406.7903921483903,439.67078171768384 Q406.8041926912335,438.49773557601713 406.8179932340766,437.39369214856606 Q406.8317937769197,436.2758481782719 406.8455943197629,435.36501235062474 Q406.859394862606,434.4541765229776 406.859394862606,433.8469526378795 Q406.87319540544917,433.2259282099383 406.8869959482923,433.0465211529775 Q406.90079649113545,432.64630541052645 406.55578292005697,432.49449943925197 Q406.2107693489785,432.3288929251343 405.7139498066255,432.3288929251343 Q405.2999335213314,432.3288929251343 404.84451560750784,432.4116961821931 Q404.4028982365274,432.4806988964088 403.9888819512332,432.57730269631077 Q404.56850475064505,432.20468803954606 405.1205264643706,431.88727555415386 Q405.6725481780961,431.55606252591855 406.2383704346648,431.3214532975852 Q406.8041926912335,431.08684406925187 407.38381549064525,430.9626391836636 Q407.97723883290024,430.83843429807536 408.59826326084146,430.83843429807536 Q408.8466730320179,430.83843429807536 409.06748171750814,430.86603538376164 Q409.28829040299837,430.8936364694479 409.44009637427285,430.9626391836636 Q409.6057028883905,431.0178413550362 409.7023066882925,431.11444515493815 Q409.79891048819445,431.21104895484007 409.79891048819445,431.3628549261146 Q409.79891048819445,431.80447229709506 409.78510994535134,433.4743379811148 Q409.78510994535134,434.191966208958 409.78510994535134,435.26840855072277 Q409.78510994535134,436.3310503496444 409.77130940250817,437.83530951954646 Q409.77130940250817,439.3395686894485 409.75750885966505,441.3406474017036 Q409.75750885966505,443.34172611395866 409.75750885966505,445.90862708278235 Q410.36473274476316,446.0328319683706 410.8615522871161,446.07423359690006 Q411.3583718294691,446.1018346825863 411.7585875719201,446.1018346825863 Q412.0760000573123,446.1018346825863 412.3244098284888,446.0880341397432 Q412.5866201425084,446.0604330540569 412.7660271994692,446.0328319683706 Q412.95923479927313,446.0052308826843 413.1110407705477,445.97762979699803 Q413.1110407705477,445.97762979699803 413.1110407705477,445.97762979699803 Z" fill="#000000"/>
		</g>
	</g>
</g></g></svg>