<svg xmlns="http://www.w3.org/2000/svg" viewBox="0 0 744 1038" width="744" height="1038"><defs><linearGradient id="10960760712895424396" x1="424.66346114354513" y1="549.8307082768999" x2="257.0895702319332" y2="379.490639230899" gradientTransform="matrix(0.001449275,0,0,0.014084507,-0.091304348,-6.190140845)"><stop stop-color="#adb5bd" /><stop offset="0.483791" stop-color="#e9ecef" /><stop offset="1" stop-color="#adb5bd" /></linearGradient><clipPath id="alignment-8157948118625411050">
<path d="M62.999999999999886,475.00000000000006 C62.999999999999886,475.00000000000006 93.04996136089039,439.5 93.04996136089039,439.5 L724.0499613608904,439.5 C724.0499613608904,439.5 752.9999999999998,475.00000000000006 752.9999999999998,475.00000000000006 C752.9999999999998,475.00000000000006 724.0499613608904,510.5 724.0499613608904,510.5 L93.04996136089039,510.5 C93.04996136089039,510.5 62.999999999999886,475.00000000000006 62.999999999999886,475.00000000000006 Z" fill="#000000"/></clipPath></defs><g>
<g>
	<g>
		<g transform="matrix(1,0,0,1,-36,-36)">
			<path d="M62.999999999999886,475.00000000000006 C62.999999999999886,475.00000000000006 93.04996136089039,439.5 93.04996136089039,439.5 L724.0499613608904,439.5 C724.0499613608904,439.5 752.9999999999998,475.00000000000006 752.9999999999998,475.00000000000006 C752.9999999999998,475.00000000000006 724.0499613608904,510.5 724.0499613608904,510.5 L93.04996136089039,510.5 C93.04996136089039,510.5 62.999999999999886,475.00000000000006 62.999999999999886,475.00000000000006 Z" fill="url('#10960760712895424396')"/>
			<path d="M62.999999999999886,475.00000000000006 C62.999999999999886,475.00000000000006 93.04996136089039,439.5 93.04996136089039,439.5 L724.0499613608904,439.5 C724.0499613608904,439.5 752.9999999999998,475.00000000000006 752.9999999999998,475.00000000000006 C752.9999999999998,475.00000000000006 724.0499613608904,510.5 724.0499613608904,510.5 L93.04996136089039,510.5 C93.04996136089039,510.5 62.999999999999886,475.00000000000006 62.999999999999886,475.00000000000006 Z" clip-path="url(#alignment-8157948118625411050)" fill="none" stroke="#3f3f3f" stroke-width="4"/>
		</g>
	</g>
</g></g></svg>