<svg xmlns="http://www.w3.org/2000/svg" viewBox="0 0 744 1038" width="744" height="1038"><defs><linearGradient id="11656242481487196412" x1="665.0529003530435" y1="543.229133667192" x2="138.90510098066986" y2="440.2908342908611" gradientTransform="matrix(0.002564103,0,0,0.028169014,-0.546153846,-13.802816901)"><stop stop-color="#a67219" /><stop offset="0.253579" stop-color="#c6922b" /><stop offset="0.649575" stop-color="#fad369" /><stop offset="0.831804" stop-color="#c6922b" /><stop offset="1" stop-color="#a67219" /></linearGradient><clipPath id="alignment-2802882948335344267">
<path d="M212.9999999999999,525.5000000000001 C212.9999999999999,525.5000000000001 243.0499613608904,490 243.0499613608904,490 L574.0499613608904,490 C574.0499613608904,490 602.9999999999998,525.5 602.9999999999998,525.5 C602.9999999999998,525.5 212.9999999999999,525.5000000000001 212.9999999999999,525.5000000000001 Z" fill="#000000"/></clipPath><linearGradient id="9605812688221727603" x1="1041.2415940471583" y1="611.0214027353499" x2="-355.96051479524874" y2="517.7032217925553" gradientTransform="matrix(0.002570694,0,0,0.0243895,-0.550128535,-13.19471941)"><stop stop-color="#a67219" /><stop offset="0.342127" stop-color="#c6922b" /><stop offset="0.550303" stop-color="#fad369" /><stop offset="0.810257" stop-color="#c6922b" /><stop offset="1" stop-color="#a67219" /></linearGradient><linearGradient id="14047726286408797632" x1="715.0762860245763" y1="796.9189052030881" x2="155.52947231549751" y2="397.44684988726243" gradientTransform="matrix(0.001449275,0,0,0.014084507,-0.091304348,-7.035211268)"><stop stop-color="#a67219" /><stop offset="0.424481" stop-color="#c6922b" /><stop offset="0.678345" stop-color="#fad369" /><stop offset="0.905507" stop-color="#c6922b" /><stop offset="1" stop-color="#a67219" /></linearGradient><clipPath id="alignment-3899495637576364992">
<path d="M62.999999999999886,535.0000000000001 C62.999999999999886,535.0000000000001 93.04996136089039,499.5 93.04996136089039,499.5 L724.0499613608904,499.5 C724.0499613608904,499.5 752.9999999999998,535 752.9999999999998,535 C752.9999999999998,535 724.0499613608904,570.5 724.0499613608904,570.5 L93.04996136089039,570.5 C93.04996136089039,570.5 62.999999999999886,535.0000000000001 62.999999999999886,535.0000000000001 Z" fill="#000000"/></clipPath><linearGradient id="4461688302638875135" x1="443.0791638673733" y1="506.59378145414905" x2="377.93198670647763" y2="469.52728753561365" gradientTransform="matrix(0.013884374,0,0,0.037033606,-5.172460533,-17.998286073)"><stop stop-color="#c6922b" /><stop offset="0.524688" stop-color="#fad369" /><stop offset="1" stop-color="#c6922b" /></linearGradient></defs><g>
<g>
	<g/>
	<g>
		<g transform="matrix(1,0,0,1,0,187.12874918)">
			<g transform="matrix(1,0,0,1,-36,-36)">
				<path d="M212.9999999999999,525.5000000000001 C212.9999999999999,525.5000000000001 243.0499613608904,490 243.0499613608904,490 L574.0499613608904,490 C574.0499613608904,490 602.9999999999998,525.5 602.9999999999998,525.5 C602.9999999999998,525.5 212.9999999999999,525.5000000000001 212.9999999999999,525.5000000000001 Z" fill="url('#11656242481487196412')"/>
				<path d="M212.9999999999999,525.5000000000001 C212.9999999999999,525.5000000000001 243.0499613608904,490 243.0499613608904,490 L574.0499613608904,490 C574.0499613608904,490 602.9999999999998,525.5 602.9999999999998,525.5 C602.9999999999998,525.5 212.9999999999999,525.5000000000001 212.9999999999999,525.5000000000001 Z" clip-path="url(#alignment-2802882948335344267)" fill="none" stroke="#8c6b2a" stroke-width="8"/>
			</g>
			<g transform="matrix(1,0,0,1,-36,-36)">
				<path d="M434.99111154085097,578.4999999980461 C434.99111154085097,578.4999999980461 572.9500386383166,578.4999999980461 572.9500386383166,578.4999999980461 C572.9500386383166,578.4999999980461 603.0000000003026,541.0000000018663 603.0000000003026,541.0000000018663 C603.0000000003026,541.0000000018663 214.00000000006685,541.0000000018663 214.00000000006685,541.0000000018663 C214.00000000006685,541.0000000018663 243.95003863894829,578.4999999980461 243.95003863894829,578.4999999980461 C243.95003863894829,578.4999999980461 382.226908691272,578.4999999980461 382.226908691272,578.4999999980461 C382.226908691272,578.4999999980461 385.6191492159662,582.0012508198333 385.6191492159662,582.0012508198333 C385.6191492159662,582.0012508198333 431.6402199165932,582.0012508198333 431.6402199165932,582.0012508198333 C431.6402199165932,582.0012508198333 434.99111154085097,578.4999999980461 434.99111154085097,578.4999999980461 Z" fill="url('#9605812688221727603')" stroke="#8c6b2a" stroke-width="4"/>
			</g>
			<g transform="matrix(1,0,0,1,-36,-36)">
				<path d="M62.999999999999886,535.0000000000001 C62.999999999999886,535.0000000000001 93.04996136089039,499.5 93.04996136089039,499.5 L724.0499613608904,499.5 C724.0499613608904,499.5 752.9999999999998,535 752.9999999999998,535 C752.9999999999998,535 724.0499613608904,570.5 724.0499613608904,570.5 L93.04996136089039,570.5 C93.04996136089039,570.5 62.999999999999886,535.0000000000001 62.999999999999886,535.0000000000001 Z" fill="url('#14047726286408797632')"/>
				<path d="M62.999999999999886,535.0000000000001 C62.999999999999886,535.0000000000001 93.04996136089039,499.5 93.04996136089039,499.5 L724.0499613608904,499.5 C724.0499613608904,499.5 752.9999999999998,535 752.9999999999998,535 C752.9999999999998,535 724.0499613608904,570.5 724.0499613608904,570.5 L93.04996136089039,570.5 C93.04996136089039,570.5 62.999999999999886,535.0000000000001 62.999999999999886,535.0000000000001 Z" clip-path="url(#alignment-3899495637576364992)" fill="none" stroke="#8c6b2a" stroke-width="8"/>
			</g>
			<g transform="matrix(1,0,0,1,-36,-36)">
				<path d="M372.5382554161116,499.4999999999944 C372.5382554161116,499.4999999999944 385.6191492159851,485.9987491802752 385.6191492159851,485.9987491802752 C385.6191492159851,485.9987491802752 431.64021991657205,485.9987491802752 431.64021991657205,485.9987491802752 C431.64021991657205,485.9987491802752 444.56166730565224,499.4999999999944 444.56166730565224,499.4999999999944 C444.56166730565224,499.4999999999944 431.6402199165718,513.0012508197135 431.6402199165718,513.0012508197135 L385.6191492159851,513.0012508197135 C385.6191492159851,513.0012508197135 372.5382554161116,499.4999999999944 372.5382554161116,499.4999999999944 Z" transform="matrix(1,0,0,1,0,0)" fill="url('#4461688302638875135')" stroke="#8c6b2a" stroke-width="4"/>
			</g>
			<g transform="matrix(1,0,0,1,-36,-36)">
				<path d="M408.4520637600969,505.97762979699803 Q407.7896377036262,506.4192471679785 407.1410121899988,506.7918618247432 Q406.5061872192144,507.16447648150796 405.91276387695945,507.4404873383707 Q405.3331410775476,507.7302987380766 404.80872044950837,507.89590525219427 Q404.2842998214691,508.0753123091551 403.85648299333184,508.1305144805276 Q403.4148656223514,508.17191610905707 403.0836525941161,508.1581155662139 Q402.75243956588076,508.1581155662139 402.53163088039054,508.0063095949394 Q402.31082219490037,507.868304166508 402.1866173093121,507.55089168111584 Q402.076212966567,507.23347919572365 402.076212966567,506.6814574819981 Q402.076212966567,506.3916460822922 402.076212966567,505.7016189401353 Q402.09001350941014,505.0115917979784 402.09001350941014,504.05935434180185 Q402.10381405225326,503.1071168856253 402.1176145950964,501.97547237248796 Q402.13141513793954,500.8300273165075 402.13141513793954,499.67078171768384 Q402.1452156807827,498.49773557601713 402.1590162236258,497.39369214856606 Q402.17281676646894,496.2758481782719 402.1866173093121,495.36501235062474 Q402.2004178521552,494.4541765229776 402.2004178521552,493.8469526378795 Q402.2142183949984,493.2259282099383 402.2280189378415,493.0465211529775 Q402.2418194806847,492.64630541052645 401.8968059096062,492.49449943925197 Q401.5517923385277,492.3288929251343 401.05497279617475,492.3288929251343 Q400.64095651088064,492.3288929251343 400.1855385970571,492.4116961821931 Q399.7439212260766,492.4806988964088 399.32990494078246,492.57730269631077 Q399.9095277401943,492.20468803954606 400.4615494539198,491.88727555415386 Q401.01357116764535,491.55606252591855 401.579393424214,491.3214532975852 Q402.1452156807827,491.08684406925187 402.7248384801945,490.9626391836636 Q403.3182618224495,490.83843429807536 403.9392862503907,490.83843429807536 Q404.18769602156715,490.83843429807536 404.4085047070574,490.86603538376164 Q404.6293133925476,490.8936364694479 404.7811193638221,490.9626391836636 Q404.94672587793974,491.0178413550362 405.0433296778417,491.11444515493815 Q405.1399334777437,491.21104895484007 405.1399334777437,491.3628549261146 Q405.1399334777437,491.80447229709506 405.12613293490057,493.4743379811148 Q405.12613293490057,494.191966208958 405.12613293490057,495.26840855072277 Q405.12613293490057,496.3310503496444 405.1123323920574,497.83530951954646 Q405.1123323920574,499.3395686894485 405.0985318492143,501.3406474017036 Q405.0985318492143,503.34172611395866 405.0985318492143,505.90862708278235 Q405.7057557343124,506.0328319683706 406.20257527666536,506.07423359690006 Q406.6993948190183,506.1018346825863 407.0996105614693,506.1018346825863 Q407.4170230468615,506.1018346825863 407.665432818038,506.0880341397432 Q407.92764313205765,506.0604330540569 408.1070501890184,506.0328319683706 Q408.30025778882236,506.0052308826843 408.4520637600969,505.97762979699803 Q408.4520637600969,505.97762979699803 408.4520637600969,505.97762979699803 ZM417.77001778099833,505.97762979699803 Q417.10759172452765,506.4192471679785 416.4589662109002,506.7918618247432 Q415.8241412401158,507.16447648150796 415.23071789786087,507.4404873383707 Q414.65109509844905,507.7302987380766 414.1266744704098,507.89590525219427 Q413.60225384237054,508.0753123091551 413.17443701423326,508.1305144805276 Q412.73281964325287,508.17191610905707 412.4016066150175,508.1581155662139 Q412.0703935867822,508.1581155662139 411.849584901292,508.0063095949394 Q411.6287762158018,507.868304166508 411.50457133021354,507.55089168111584 Q411.39416698746845,507.23347919572365 411.39416698746845,506.6814574819981 Q411.39416698746845,506.3916460822922 411.39416698746845,505.7016189401353 Q411.40796753031157,505.0115917979784 411.40796753031157,504.05935434180185 Q411.4217680731547,503.1071168856253 411.43556861599785,501.97547237248796 Q411.44936915884097,500.8300273165075 411.44936915884097,499.67078171768384 Q411.46316970168414,498.49773557601713 411.47697024452725,497.39369214856606 Q411.4907707873704,496.2758481782719 411.50457133021354,495.36501235062474 Q411.51837187305665,494.4541765229776 411.51837187305665,493.8469526378795 Q411.5321724158998,493.2259282099383 411.54597295874294,493.0465211529775 Q411.5597735015861,492.64630541052645 411.2147599305076,492.49449943925197 Q410.8697463594292,492.3288929251343 410.3729268170762,492.3288929251343 Q409.95891053178207,492.3288929251343 409.5034926179585,492.4116961821931 Q409.06187524697805,492.4806988964088 408.64785896168394,492.57730269631077 Q409.2274817610957,492.20468803954606 409.77950347482124,491.88727555415386 Q410.3315251885468,491.55606252591855 410.89734744511543,491.3214532975852 Q411.46316970168414,491.08684406925187 412.0427925010959,490.9626391836636 Q412.6362158433509,490.83843429807536 413.2572402712921,490.83843429807536 Q413.5056500424686,490.83843429807536 413.7264587279588,490.86603538376164 Q413.947267413449,490.8936364694479 414.0990733847235,490.9626391836636 Q414.2646798988412,491.0178413550362 414.36128369874314,491.11444515493815 Q414.4578874986451,491.21104895484007 414.4578874986451,491.3628549261146 Q414.4578874986451,491.80447229709506 414.444086955802,493.4743379811148 Q414.444086955802,494.191966208958 414.444086955802,495.26840855072277 Q414.444086955802,496.3310503496444 414.4302864129589,497.83530951954646 Q414.4302864129589,499.3395686894485 414.4164858701157,501.3406474017036 Q414.4164858701157,503.34172611395866 414.4164858701157,505.90862708278235 Q415.0237097552138,506.0328319683706 415.5205292975668,506.07423359690006 Q416.01734883991975,506.1018346825863 416.41756458237074,506.1018346825863 Q416.73497706776294,506.1018346825863 416.98338683893945,506.0880341397432 Q417.2455971529591,506.0604330540569 417.42500420991985,506.0328319683706 Q417.6182118097238,506.0052308826843 417.77001778099833,505.97762979699803 Q417.77001778099833,505.97762979699803 417.77001778099833,505.97762979699803 Z" fill="#000000"/>
			</g>
		</g>
	</g>
</g></g></svg>