<svg xmlns="http://www.w3.org/2000/svg" viewBox="0 0 744 1038" width="744" height="1038"><defs><linearGradient id="3061568693596999281" x1="611.5631969767005" y1="746.5114301352689" x2="99.93333207608772" y2="320.24679983073753" gradientTransform="matrix(0.001449275,0,0,0.014084507,-0.091304348,-7.035211268)"><stop stop-color="#4a6a77" /><stop offset="0.42652" stop-color="#9dbfcb" /><stop offset="0.498003" stop-color="#b6dae6" /><stop offset="0.573157" stop-color="#9dbfcb" /><stop offset="1" stop-color="#4a6a77" /></linearGradient><clipPath id="alignment-10910307015277641624">
<path d="M62.999999999999886,535.0000000000001 C62.999999999999886,535.0000000000001 93.04996136089039,499.5 93.04996136089039,499.5 L724.0499613608904,499.5 C724.0499613608904,499.5 752.9999999999998,535 752.9999999999998,535 C752.9999999999998,535 724.0499613608904,570.5 724.0499613608904,570.5 L93.04996136089039,570.5 C93.04996136089039,570.5 62.999999999999886,535.0000000000001 62.999999999999886,535.0000000000001 Z" fill="#000000"/></clipPath></defs><g>
<g>
	<g>
		<g transform="matrix(1,0,0,1,-36,-36)">
			<path d="M62.999999999999886,535.0000000000001 C62.999999999999886,535.0000000000001 93.04996136089039,499.5 93.04996136089039,499.5 L724.0499613608904,499.5 C724.0499613608904,499.5 752.9999999999998,535 752.9999999999998,535 C752.9999999999998,535 724.0499613608904,570.5 724.0499613608904,570.5 L93.04996136089039,570.5 C93.04996136089039,570.5 62.999999999999886,535.0000000000001 62.999999999999886,535.0000000000001 Z" fill="url('#3061568693596999281')"/>
			<path d="M62.999999999999886,535.0000000000001 C62.999999999999886,535.0000000000001 93.04996136089039,499.5 93.04996136089039,499.5 L724.0499613608904,499.5 C724.0499613608904,499.5 752.9999999999998,535 752.9999999999998,535 C752.9999999999998,535 724.0499613608904,570.5 724.0499613608904,570.5 L93.04996136089039,570.5 C93.04996136089039,570.5 62.999999999999886,535.0000000000001 62.999999999999886,535.0000000000001 Z" clip-path="url(#alignment-10910307015277641624)" fill="none" stroke="#4a6a77" stroke-width="8"/>
		</g>
	</g>
</g></g></svg>