<svg xmlns="http://www.w3.org/2000/svg" xmlns:graphite="https://graphite.art" viewBox="0 0 744 1038" width="744" height="1038"><defs><linearGradient id="11620656570470742372" x1="606.8428909598495" y1="746.5114301352689" x2="107.0769069844683" y2="320.24679983073753" gradientTransform="matrix(0.00148368,0,0,0.014084507,-0.105341246,-7.035211268)"><stop stop-color="#4a6a77" /><stop offset="0.42652" stop-color="#9dbfcb" /><stop offset="0.498003" stop-color="#b6dae6" /><stop offset="0.573157" stop-color="#9dbfcb" /><stop offset="1" stop-color="#4a6a77" /></linearGradient><clipPath id="alignment-13813963552345907994">
<path d="M70.99999999999989,535.0000000000001 C70.99999999999989,535.0000000000001 101.04996136089039,499.5 101.04996136089039,499.5 L716.0499613608904,499.5 C716.0499613608904,499.5 744.9999999999998,535 744.9999999999998,535 C744.9999999999998,535 716.0499613608904,570.5 716.0499613608904,570.5 L101.04996136089039,570.5 C101.04996136089039,570.5 70.99999999999989,535.0000000000001 70.99999999999989,535.0000000000001 Z" fill="#000000"/></clipPath><mask id="mask-41648716001646815" mask-type="alpha">
<g transform="matrix(1,0,0,1,0,187.12874918)">
	<g transform="matrix(1,0,0,1,-36,-47)">
		<path d="M70.99999999999989,535.0000000000001 C70.99999999999989,535.0000000000001 101.04996136089039,499.5 101.04996136089039,499.5 L716.0499613608904,499.5 C716.0499613608904,499.5 744.9999999999998,535 744.9999999999998,535 C744.9999999999998,535 716.0499613608904,570.5 716.0499613608904,570.5 L101.04996136089039,570.5 C101.04996136089039,570.5 70.99999999999989,535.0000000000001 70.99999999999989,535.0000000000001 Z" fill="url('#11620656570470742372')"/>
		<path d="M70.99999999999989,535.0000000000001 C70.99999999999989,535.0000000000001 101.04996136089039,499.5 101.04996136089039,499.5 L716.0499613608904,499.5 C716.0499613608904,499.5 744.9999999999998,535 744.9999999999998,535 C744.9999999999998,535 716.0499613608904,570.5 716.0499613608904,570.5 L101.04996136089039,570.5 C101.04996136089039,570.5 70.99999999999989,535.0000000000001 70.99999999999989,535.0000000000001 Z" clip-path="url(#alignment-13813963552345907994)" fill="none" stroke="#4a6a77" stroke-width="8"/>
	</g>
</g></mask><linearGradient id="5067667864860453781" x1="606.8428909598495" y1="746.5114301352689" x2="107.0769069844683" y2="320.24679983073753" gradientTransform="matrix(0.00148368,0,0,0.014084507,-0.105341246,-7.035211268)"><stop stop-color="#4a6a77" /><stop offset="0.42652" stop-color="#9dbfcb" /><stop offset="0.498003" stop-color="#b6dae6" /><stop offset="0.573157" stop-color="#9dbfcb" /><stop offset="1" stop-color="#4a6a77" /></linearGradient><clipPath id="alignment-6205994034822914508">
<path d="M70.99999999999989,535.0000000000001 C70.99999999999989,535.0000000000001 101.04996136089039,499.5 101.04996136089039,499.5 L716.0499613608904,499.5 C716.0499613608904,499.5 744.9999999999998,535 744.9999999999998,535 C744.9999999999998,535 716.0499613608904,570.5 716.0499613608904,570.5 L101.04996136089039,570.5 C101.04996136089039,570.5 70.99999999999989,535.0000000000001 70.99999999999989,535.0000000000001 Z" fill="#000000"/></clipPath></defs><g>
<rect fill="#ffffff" fill-opacity="0" x="0" y="0" width="744" height="1038"/>
<g>
	<g>
		<g transform="matrix(1,0,0,1,0,187.12874918)">
			<g transform="matrix(1,0,0,1,-36,-47)">
				<path d="M70.99999999999989,535.0000000000001 C70.99999999999989,535.0000000000001 101.04996136089039,499.5 101.04996136089039,499.5 L716.0499613608904,499.5 C716.0499613608904,499.5 744.9999999999998,535 744.9999999999998,535 C744.9999999999998,535 716.0499613608904,570.5 716.0499613608904,570.5 L101.04996136089039,570.5 C101.04996136089039,570.5 70.99999999999989,535.0000000000001 70.99999999999989,535.0000000000001 Z" fill="url('#5067667864860453781')"/>
				<path d="M70.99999999999989,535.0000000000001 C70.99999999999989,535.0000000000001 101.04996136089039,499.5 101.04996136089039,499.5 L716.0499613608904,499.5 C716.0499613608904,499.5 744.9999999999998,535 744.9999999999998,535 C744.9999999999998,535 716.0499613608904,570.5 716.0499613608904,570.5 L101.04996136089039,570.5 C101.04996136089039,570.5 70.99999999999989,535.0000000000001 70.99999999999989,535.0000000000001 Z" clip-path="url(#alignment-6205994034822914508)" fill="none" stroke="#4a6a77" stroke-width="8"/>
			</g>
		</g>
	</g>
	<g mask="url(#mask-41648716001646815)"/>
	<g>
		<polyline points="10000000,10000000 -10000000,10000000 -10000000,-10000000 10000000,-10000000" fill="#000000" fill-opacity="0"/>
	</g>
</g></g></svg>