<svg xmlns="http://www.w3.org/2000/svg" viewBox="0 0 744 1038" width="744" height="1038"><defs><linearGradient id="9477731247076729493" x1="529.0060738289974" y1="654.49945057553" x2="174.06631991315857" y2="314.16169706020565" gradientTransform="matrix(0.001449275,0,0,0.014084507,-0.091304348,-6.190140845)"><stop stop-color="#4a6a77" /><stop offset="0.422456" stop-color="#9dbfcb" /><stop offset="0.527418" stop-color="#b6dae6" /><stop offset="0.627738" stop-color="#9dbfcb" /><stop offset="1" stop-color="#4a6a77" /></linearGradient><clipPath id="alignment-18152978868591070316">
<path d="M62.999999999999886,475.00000000000006 C62.999999999999886,475.00000000000006 93.04996136089039,439.5 93.04996136089039,439.5 L724.0499613608904,439.5 C724.0499613608904,439.5 752.9999999999998,475.00000000000006 752.9999999999998,475.00000000000006 C752.9999999999998,475.00000000000006 724.0499613608904,510.5 724.0499613608904,510.5 L93.04996136089039,510.5 C93.04996136089039,510.5 62.999999999999886,475.00000000000006 62.999999999999886,475.00000000000006 Z" fill="#000000"/></clipPath></defs><g>
<g>
	<g>
		<g transform="matrix(1,0,0,1,-36,-36)">
			<path d="M62.999999999999886,475.00000000000006 C62.999999999999886,475.00000000000006 93.04996136089039,439.5 93.04996136089039,439.5 L724.0499613608904,439.5 C724.0499613608904,439.5 752.9999999999998,475.00000000000006 752.9999999999998,475.00000000000006 C752.9999999999998,475.00000000000006 724.0499613608904,510.5 724.0499613608904,510.5 L93.04996136089039,510.5 C93.04996136089039,510.5 62.999999999999886,475.00000000000006 62.999999999999886,475.00000000000006 Z" fill="url('#9477731247076729493')"/>
			<path d="M62.999999999999886,475.00000000000006 C62.999999999999886,475.00000000000006 93.04996136089039,439.5 93.04996136089039,439.5 L724.0499613608904,439.5 C724.0499613608904,439.5 752.9999999999998,475.00000000000006 752.9999999999998,475.00000000000006 C752.9999999999998,475.00000000000006 724.0499613608904,510.5 724.0499613608904,510.5 L93.04996136089039,510.5 C93.04996136089039,510.5 62.999999999999886,475.00000000000006 62.999999999999886,475.00000000000006 Z" clip-path="url(#alignment-18152978868591070316)" fill="none" stroke="#4a6a77" stroke-width="4"/>
		</g>
	</g>
</g></g></svg>