<svg xmlns="http://www.w3.org/2000/svg" viewBox="0 0 744 1038" width="744" height="1038"><defs><linearGradient id="13285295611274740687" x1="523.7996634648073" y1="128.0382121274614" x2="598.6369382781771" y2="123.8846212434127" gradientTransform="matrix(0.011189976,0,0,0.005745372,-5.70662416,-0.244301911)"><stop stop-color="#be894e" /><stop offset="0.996585" stop-color="#efc183" /></linearGradient><radialGradient id="7663732057808608582" cx="518.8348122046576" cy="159.6506577342971" r="79.31733648723093" gradientTransform="matrix(0.056157939,0,0,0.011044151,-28.640949689,-1.262190169)"><stop stop-color="#a87036" /><stop offset="0.996585" stop-color="#be894e" /></radialGradient><linearGradient id="9434597353393825546" x1="523.7996634648073" y1="128.0382121274614" x2="598.6369382781771" y2="123.8846212434127" gradientTransform="matrix(0.011189976,0,0,0.005745372,-5.70662416,-0.244301911)"><stop stop-color="#be894e" /><stop offset="0.996585" stop-color="#efc183" /></linearGradient><radialGradient id="14272796830984807013" cx="518.8348122046576" cy="159.6506577342971" r="79.31733648723093" gradientTransform="matrix(0.056157939,0,0,0.011044151,-28.640949689,-1.262190169)"><stop stop-color="#a87036" /><stop offset="0.996585" stop-color="#be894e" /></radialGradient><radialGradient id="4262510416787639321" cx="348.4790223394584" cy="93.39885448179096" r="358.9177422628506" gradientTransform="matrix(0.002819326,0,0,0.005910787,-0.486731901,-0.051044936)"><stop stop-color="#dda75c" /><stop offset="0.996585" stop-color="#efc183" /></radialGradient><mask id="mask-15606594375037203196" mask-type="alpha">
<g transform="matrix(1,0,0,1,0,-50.517756736)">
	<g transform="matrix(1.247911746,0,0,0.429441816,-63.280466259,82.617300422)">
		<g transform="matrix(1,0,0,1,-0.478072242,0.071035146)">
			<path d="M511.82422399795064,42.521513213626335 L599.3421627445589,47.88480569859401 L574.0815488621562,133.47462575344088 L597.9817651703954,216.57464723387227 L509.9764627436448,207.57160498989498 L511.82422399795064,42.521513213626335 Z" transform="matrix(1,0,0,1,0,0)" fill="url('#13285295611274740687')" stroke="#130e0a" stroke-width="2"/>
		</g>
		<g transform="matrix(1,0,0,1,-0.478072242,0.071035146)">
			<path d="M510.9090732697062,114.28584953574591 L527.8140598166506,124.97676110576779 L527.8140598166505,177.7470722150314 L510.0071384675933,204.83151557564048 L510.9090732697062,114.28584953574591 Z" transform="matrix(1,0,0,1,0,0)" fill="url('#7663732057808608582')" stroke="#130e0a" stroke-width="2"/>
		</g>
	</g>
	<g transform="matrix(1.247911746,0,0,0.429441816,-63.280466259,82.617300422)">
		<g transform="matrix(-1,0,0,1,700.45530566,0.071035146)">
			<path d="M511.82422399795064,42.521513213626335 L599.3421627445589,47.88480569859401 L574.0815488621562,133.47462575344088 L597.9817651703954,216.57464723387227 L509.9764627436448,207.57160498989498 L511.82422399795064,42.521513213626335 Z" transform="matrix(1,0,0,1,0,0)" fill="url('#9434597353393825546')" stroke="#130e0a" stroke-width="2"/>
		</g>
		<g transform="matrix(-1,0,0,1,700.45530566,0.071035146)">
			<path d="M510.9090732697062,114.28584953574591 L527.8140598166506,124.97676110576779 L527.8140598166505,177.7470722150314 L510.0071384675933,204.83151557564048 L510.9090732697062,114.28584953574591 Z" transform="matrix(1,0,0,1,0,0)" fill="url('#14272796830984807013')" stroke="#130e0a" stroke-width="2"/>
		</g>
	</g>
	<g transform="matrix(1.247911746,0,0,0.429441816,-63.280466259,82.617300422)">
		<path d="M172.64124584365527,8.635895163946358 L527.3359875746921,8.635895163946358 L527.3359875746921,177.81810736145843 L172.64124584365527,177.81810736145843 L172.64124584365527,8.635895163946358 Z" transform="matrix(1,0,0,1,0,0)" fill="url('#4262510416787639321')" stroke="#130e0a" stroke-width="2"/>
	</g>
</g></mask><linearGradient id="4079644453696632406" x1="523.7996634648073" y1="128.0382121274614" x2="598.6369382781771" y2="123.8846212434127" gradientTransform="matrix(0.011189976,0,0,0.005745372,-5.70662416,-0.244301911)"><stop stop-color="#be894e" /><stop offset="0.996585" stop-color="#efc183" /></linearGradient><radialGradient id="8181255492466211764" cx="518.8348122046576" cy="159.6506577342971" r="79.31733648723093" gradientTransform="matrix(0.056157939,0,0,0.011044151,-28.640949689,-1.262190169)"><stop stop-color="#a87036" /><stop offset="0.996585" stop-color="#be894e" /></radialGradient><linearGradient id="1779332841532140835" x1="523.7996634648073" y1="128.0382121274614" x2="598.6369382781771" y2="123.8846212434127" gradientTransform="matrix(0.011189976,0,0,0.005745372,-5.70662416,-0.244301911)"><stop stop-color="#be894e" /><stop offset="0.996585" stop-color="#efc183" /></linearGradient><radialGradient id="17168521355402982441" cx="518.8348122046576" cy="159.6506577342971" r="79.31733648723093" gradientTransform="matrix(0.056157939,0,0,0.011044151,-28.640949689,-1.262190169)"><stop stop-color="#a87036" /><stop offset="0.996585" stop-color="#be894e" /></radialGradient><radialGradient id="12207166968345548697" cx="348.4790223394584" cy="93.39885448179096" r="358.9177422628506" gradientTransform="matrix(0.002819326,0,0,0.005910787,-0.486731901,-0.051044936)"><stop stop-color="#dda75c" /><stop offset="0.996585" stop-color="#efc183" /></radialGradient></defs><g>
<g>
	<g>
		<g transform="matrix(1,0,0,1,0,-50.517756736)">
			<g transform="matrix(1.247911746,0,0,0.429441816,-63.280466259,82.617300422)">
				<g transform="matrix(1,0,0,1,-0.478072242,0.071035146)">
					<path d="M511.82422399795064,42.521513213626335 L599.3421627445589,47.88480569859401 L574.0815488621562,133.47462575344088 L597.9817651703954,216.57464723387227 L509.9764627436448,207.57160498989498 L511.82422399795064,42.521513213626335 Z" transform="matrix(1,0,0,1,0,0)" fill="url('#4079644453696632406')" stroke="#130e0a" stroke-width="2"/>
				</g>
				<g transform="matrix(1,0,0,1,-0.478072242,0.071035146)">
					<path d="M510.9090732697062,114.28584953574591 L527.8140598166506,124.97676110576779 L527.8140598166505,177.7470722150314 L510.0071384675933,204.83151557564048 L510.9090732697062,114.28584953574591 Z" transform="matrix(1,0,0,1,0,0)" fill="url('#8181255492466211764')" stroke="#130e0a" stroke-width="2"/>
				</g>
			</g>
			<g transform="matrix(1.247911746,0,0,0.429441816,-63.280466259,82.617300422)">
				<g transform="matrix(-1,0,0,1,700.45530566,0.071035146)">
					<path d="M511.82422399795064,42.521513213626335 L599.3421627445589,47.88480569859401 L574.0815488621562,133.47462575344088 L597.9817651703954,216.57464723387227 L509.9764627436448,207.57160498989498 L511.82422399795064,42.521513213626335 Z" transform="matrix(1,0,0,1,0,0)" fill="url('#1779332841532140835')" stroke="#130e0a" stroke-width="2"/>
				</g>
				<g transform="matrix(-1,0,0,1,700.45530566,0.071035146)">
					<path d="M510.9090732697062,114.28584953574591 L527.8140598166506,124.97676110576779 L527.8140598166505,177.7470722150314 L510.0071384675933,204.83151557564048 L510.9090732697062,114.28584953574591 Z" transform="matrix(1,0,0,1,0,0)" fill="url('#17168521355402982441')" stroke="#130e0a" stroke-width="2"/>
				</g>
			</g>
			<g transform="matrix(1.247911746,0,0,0.429441816,-63.280466259,82.617300422)">
				<path d="M172.64124584365527,8.635895163946358 L527.3359875746921,8.635895163946358 L527.3359875746921,177.81810736145843 L172.64124584365527,177.81810736145843 L172.64124584365527,8.635895163946358 Z" transform="matrix(1,0,0,1,0,0)" fill="url('#12207166968345548697')" stroke="#130e0a" stroke-width="2"/>
			</g>
		</g>
	</g>
	<g mask="url(#mask-15606594375037203196)"/>
</g></g></svg>