<svg xmlns="http://www.w3.org/2000/svg" viewBox="0 0 511 511" width="511" height="511"><defs><linearGradient id="10152042742626499213" x1="357.8571270006995" y1="119.89177356962625" x2="205.8874353164779" y2="414.26407455186927" gradientTransform="matrix(0.003122074,0,0,0.002110936,-0.299250982,-0.040399604)"><stop stop-color="#a926e9" /><stop offset="0.193326" stop-color="#9313d2" /><stop offset="1" stop-color="#5d0b84" /></linearGradient></defs><g>
<g>
	<g>
		<path d="M169.6777422695264,146.80885639372434 C218.4603598882356,154.9568098043624 270.60376517498486,175.67851101134806 281.2573466150114,226.23353143279033 C306.38209423152284,207.2040964518128 318.78626442718644,165.6551333304484 324.3716231897042,120.25986901022623 C324.371623189703,120.2598690102256 255.9999999975454,19.138242479885445 255.9999999975454,19.138242479885445 C255.9999999975454,19.138242479885445 169.67774226952662,146.80885639372522 169.6777422695264,146.80885639372434 ZM137.2513871434229,194.76743364713354 C137.25138714342307,194.76743364713374 95.85005591998663,256.0000000009988 95.85005591998663,256.0000000009988 C95.85005591998663,256.0000000009988 117.78248552293256,289.16790573523826 145.41748098466897,330.68041253485296 C159.8710128502994,284.037329444268 186.61190938952285,246.8843380116873 234.04737118842456,238.73335987689958 C229.31886170407688,199.90215536783765 180.1723680679474,193.10300634377126 137.2513871434229,194.76743364713354 ZM184.88680829822047,389.7933445123622 C220.85492466031081,443.46862045702517 254.39074661949678,492.86175752211216 255.9999999975454,492.86175752211216 C258.2282443088995,492.86175752211216 321.66742108587556,398.1632004305244 368.0191387627756,328.52216428530136 C332.02025863024704,327.48875328316893 285.9435569157796,320.9430937495167 258.37694760827833,297.0242478368788 C255.69897484044708,297.28013136858294 252.96360750065298,297.44615101387376 250.16967546657605,297.5192339523775 C207.9375964040761,298.62392948662927 190.4973393517227,339.9828396324605 184.88680829822047,389.7933445123622 ZM400.75005861890946,279.25007300612936 C410.26465313390725,264.90018929609806 416.1499440751042,256.00000000099885 416.1499440751042,256.0000000009988 C416.1499440751042,256.0000000009988 364.83566641459606,180.1061864714223 364.83566641459606,180.1061864714223 C354.6683990995354,219.74187825915592 337.9204294637108,254.88004040022696 311.0293662798041,276.16555752625726 C337.9596864116545,285.82364117039856 377.92740320798185,282.4185332184461 400.75005861890946,279.25007300612936 Z" fill="url('#10152042742626499213')" stroke="#000000" stroke-width="16" stroke-linecap="round" stroke-linejoin="round"/>
	</g>
</g></g></svg>