<svg xmlns="http://www.w3.org/2000/svg" viewBox="0 0 511 511" width="511" height="511"><defs><linearGradient id="10565463131097551915" x1="354.6109479914153" y1="119.89177356962627" x2="207.42889811463453" y2="414.26407455186927" gradientTransform="matrix(0.003223631,0,0,0.002110936,-0.325129407,-0.040399604)"><stop stop-color="#a926e9" /><stop offset="0.193326" stop-color="#9313d2" /><stop offset="1" stop-color="#5d0b84" /></linearGradient></defs><g>
<g>
	<g>
		<path d="M107.89685536673684,238.18278435414385 C107.89685536673683,238.18278435414385 176.94041669470016,247.73812215942283 176.94041669470016,247.73812215942283 C176.94041669470016,247.73812215942283 255.9999999975454,90.00000000118246 255.9999999975454,90.00000000118246 C255.9999999975454,90.00000000118246 207.93863062521888,252.02814428979622 207.93863062521888,252.02814428979622 C207.93863062521888,252.02814428979622 255.9999999975454,258.6796351852121 255.9999999975454,258.6796351852121 C255.9999999975454,258.6796351852121 316.98227127984694,250.0614107195124 316.98227127984694,250.0614107195124 C316.98227127984694,250.0614107195124 288.2666625966017,150.67066112868494 288.2666625966017,150.67066112868494 C288.2666625966017,150.67066112868494 343.3352353172526,246.33711915701963 343.3352353172526,246.33711915701963 C343.3352353172526,246.33711915701963 403.8355466363194,237.787006940249 403.8355466363194,237.787006940249 C403.83554663631946,237.787006940249 255.9999999975454,19.138242479885445 255.9999999975454,19.138242479885445 C255.9999999975454,19.138242479885445 107.89685536673684,238.18278435414385 107.89685536673684,238.18278435414385 ZM100.85812809361374,263.56704700428963 C127.63968448412538,304.01360464753867 252.85335683848302,492.86175752211216 255.9999999975454,492.86175752211216 C259.1437329835602,492.86175752211216 384.1288115309199,304.3627565432082 411.06731251395956,263.6796488619351 C411.0673125139403,263.6796488619641 344.47343321841726,272.9565398124678 344.47343321841726,272.9565398124678 C344.47343321841726,272.9565398124678 289.4000244064783,379.03732982752206 289.4000244064783,379.03732982752206 C289.4000244064783,379.03732982752206 317.1042793696091,276.7692123635133 317.1042793696091,276.7692123635133 C317.1042793696091,276.7692123635133 255.9999999975454,285.2813720695219 255.9999999975454,285.2813720695219 C255.9999999975454,285.2813720695219 208.6907560516433,278.65976638489735 208.6907560516433,278.65976638489735 C208.6907560516433,278.65976638489735 255.9999999975454,422.0000000008152 255.9999999975454,422.0000000008152 C255.9999999975454,422.0000000008152 177.50948570802979,274.2955013900416 177.50948570802979,274.2955013900416 C177.50948570802979,274.2955013900416 100.85812809362073,263.5670470043002 100.85812809361374,263.56704700428963 Z" fill="url('#10565463131097551915')" stroke="#000000" stroke-width="16" stroke-linecap="round" stroke-linejoin="round"/>
	</g>
</g></g></svg>