<svg xmlns="http://www.w3.org/2000/svg" viewBox="0 0 744 1038" width="744" height="1038"><defs><clipPath id="alignment-12243002029721640293">
<path d="M36,66 C36,49.44645666662956 49.44645666662956,36 66,36 L750,36 C766.5535433333705,36 780,49.44645666662956 780,66 L780,1044 C780,1060.5535433333705 766.5535433333705,1074 750,1074 L66,1074 C49.44645666662956,1074 36,1060.5535433333705 36,1044 L36,66 Z" fill="#000000"/></clipPath><radialGradient id="14423082402899391514" cx="629.2199299042214" cy="800.1947613873972" r="591.7984072957933" gradientTransform="matrix(0.001449275,0,0,0.00101713,-0.091304348,-0.064361752)"><stop stop-color="#5f7470" /><stop offset="1" stop-color="#889696" /></radialGradient><radialGradient id="10850064913215951389" cx="458.742326348609" cy="803.5105708442377" r="555.7334985030222" gradientTransform="matrix(0.001449275,0,0,0.00101713,-0.091304348,-0.064361752)"><stop stop-color="#08102e" /><stop offset="1" stop-color="#3950a3" /></radialGradient><linearGradient id="9968696040937679332" x1="568.9257019566016" y1="1115.482993351501" x2="395.8689238215604" y2="272.56674939532917" gradientTransform="matrix(0.001449275,0,0,0.00101713,-0.091304348,-0.064507381)"><stop stop-color="#061230" /><stop offset="1" stop-color="#1a316d" /></linearGradient><radialGradient id="4000543223862353141" cx="360.15086202393553" cy="476.89752435285425" r="682.272955256596" gradientTransform="matrix(0.001529052,0,0,0.001054852,-0.123853211,-0.085292009)"><stop stop-color="#f1e9d2" /><stop offset="0.197226" stop-color="#e3d6bc" /><stop offset="1" stop-color="#ae8964" /></radialGradient><clipPath id="alignment-13072787272675212646">
<path d="M80.99999999999977,90.85682441700942 C80.99999999999977,85.33897663921925 85.4821522222096,80.85682441700942 90.99999999999977,80.85682441700942 L724.9999999999998,80.85682441700942 C730.5178477777899,80.85682441700942 734.9999999999998,85.33897663921925 734.9999999999998,90.85682441700942 L734.9999999999998,1018.8568244170094 C734.9999999999998,1024.3746721947996 730.5178477777899,1028.8568244170094 724.9999999999998,1028.8568244170094 L90.99999999999977,1028.8568244170094 C85.4821522222096,1028.8568244170094 80.99999999999977,1024.3746721947996 80.99999999999977,1018.8568244170094 L80.99999999999977,90.85682441700942 Z" fill="#000000"/></clipPath><radialGradient id="8811283208890617865" cx="398.10706204420825" cy="416.62983640391445" r="549.2796145735288" gradientTransform="matrix(0.00152367,0,0,0.001536474,-0.062907093,-0.122649767)"><stop offset="0.020628" stop-color="#181824" /><stop offset="1" stop-color="#303342" /></radialGradient><radialGradient id="15697810919184697235" cx="367.4734678555249" cy="421.77680928479856" r="343.5232375430016" gradientTransform="matrix(0.001474113,0,0,0.001474113,-0.049020856,-0.12232435)"><stop stop-color="#a67219" /><stop offset="0.908866" stop-color="#fad369" /><stop offset="0.956168" stop-color="#c6922b" /><stop offset="1" stop-color="#a67219" /></radialGradient><linearGradient id="5914330906766633447" x1="691.2589616313808" y1="866.6186134560851" x2="779.922675512868" y2="722.4903331552224" gradientTransform="matrix(0.05,0,0,0.004968697,-36.65,-3.587399384)"><stop stop-color="#63061a" /><stop offset="1" stop-color="#c4213b" /></linearGradient><linearGradient id="17014494974055723926" x1="161.13354685160306" y1="904.3824632928315" x2="-56.24360041716848" y2="712.7848073385476" gradientTransform="matrix(0.05,0,0,0.004968697,-3.15,-3.587399384)"><stop stop-color="#63061a" /><stop offset="1" stop-color="#c4213b" /></linearGradient><radialGradient id="2704142148038175219" cx="407.90099619632326" cy="1068.760557985848" r="406.2509762496041" gradientTransform="matrix(0.002104452,0,0,0.029342467,-0.358619732,-29.705009907)"><stop offset="0.00765" stop-color="#63061a" /><stop offset="1" stop-color="#c4213b" /></radialGradient></defs><g>
<g>
	<g>
		<g transform="matrix(1,0,0,1,-36,-36)">
			<path d="M36,66 C36,49.44645666662956 49.44645666662956,36 66,36 L750,36 C766.5535433333705,36 780,49.44645666662956 780,66 L780,1044 C780,1060.5535433333705 766.5535433333705,1074 750,1074 L66,1074 C49.44645666662956,1074 36,1060.5535433333705 36,1044 L36,66 Z" fill="#000000"/>
			<path d="M36,66 C36,49.44645666662956 49.44645666662956,36 66,36 L750,36 C766.5535433333705,36 780,49.44645666662956 780,66 L780,1044 C780,1060.5535433333705 766.5535433333705,1074 750,1074 L66,1074 C49.44645666662956,1074 36,1060.5535433333705 36,1044 L36,66 Z" clip-path="url(#alignment-12243002029721640293)" fill="none" stroke="#130e0a" stroke-width="4"/>
		</g>
		<g transform="matrix(1,0,0,1,-36,-36)">
			<g>
				<path d="M63.00000000015564,73.08973479652474 C63.00000000015564,67.6756462733581 67.36819919976494,63.2777777777776 72.74576271201568,63.2777777777776 L743.2542372879836,63.2777777777776 C748.6318008002344,63.2777777777776 752.9999999998437,67.6756462733581 752.9999999998437,73.08973479652474 L752.9999999998437,1036.6239140374942 C752.9999999998437,1042.0380025606607 748.6318008002344,1046.4358710562412 743.2542372879836,1046.4358710562412 L72.74576271201568,1046.4358710562412 C67.36819919976494,1046.4358710562412 63.00000000015564,1042.0380025606607 63.00000000015564,1036.6239140374942 L63.00000000015564,73.08973479652474 Z" fill="url('#14423082402899391514')"/>
			</g>
			<g>
				<path d="M63.00000000015581,73.08973479638439 C63.00000000015581,67.67564627321616 67.36819919976512,63.27777777763441 72.74576271201585,63.27777777763441 L743.2542372879839,63.27777777763441 C748.6318008002345,63.27777777763441 752.9999999998438,67.67564627321616 752.9999999998438,73.08973479638439 L752.9999999998438,1036.6239140376344 C752.9999999998438,1042.0380025608026 748.6318008002345,1046.4358710563845 743.2542372879839,1046.4358710563845 L72.74576271201585,1046.4358710563845 C67.36819919976512,1046.4358710563845 63.00000000015581,1042.0380025608026 63.00000000015581,1036.6239140376344 L63.00000000015581,73.08973479638439 Z" fill="url('#10850064913215951389')"/>
			</g>
			<g>
				<path d="M63.00000000015467,73.23291037937497 C63.00000000015467,67.81882185620674 67.36819919976398,63.42095336062499 72.74576271201471,63.42095336062499 L743.2542372879827,63.42095336062499 C748.6318008002333,63.42095336062499 752.9999999998427,67.81882185620674 752.9999999998427,73.23291037937497 L752.9999999998427,1036.767089620625 C752.9999999998427,1042.1811781437932 748.6318008002333,1046.579046639375 743.2542372879827,1046.579046639375 L72.74576271201471,1046.579046639375 C67.36819919976398,1046.579046639375 63.00000000015467,1042.1811781437932 63.00000000015467,1036.767089620625 L63.00000000015467,73.23291037937497 Z" fill="url('#9968696040937679332')"/>
			</g>
			<g>
				<path d="M80.99999999999977,90.85682441700942 C80.99999999999977,85.33897663921925 85.4821522222096,80.85682441700942 90.99999999999977,80.85682441700942 L724.9999999999998,80.85682441700942 C730.5178477777899,80.85682441700942 734.9999999999998,85.33897663921925 734.9999999999998,90.85682441700942 L734.9999999999998,1018.8568244170094 C734.9999999999998,1024.3746721947996 730.5178477777899,1028.8568244170094 724.9999999999998,1028.8568244170094 L90.99999999999977,1028.8568244170094 C85.4821522222096,1028.8568244170094 80.99999999999977,1024.3746721947996 80.99999999999977,1018.8568244170094 L80.99999999999977,90.85682441700942 Z" fill="url('#4000543223862353141')"/>
				<path d="M80.99999999999977,90.85682441700942 C80.99999999999977,85.33897663921925 85.4821522222096,80.85682441700942 90.99999999999977,80.85682441700942 L724.9999999999998,80.85682441700942 C730.5178477777899,80.85682441700942 734.9999999999998,85.33897663921925 734.9999999999998,90.85682441700942 L734.9999999999998,1018.8568244170094 C734.9999999999998,1024.3746721947996 730.5178477777899,1028.8568244170094 724.9999999999998,1028.8568244170094 L90.99999999999977,1028.8568244170094 C85.4821522222096,1028.8568244170094 80.99999999999977,1024.3746721947996 80.99999999999977,1018.8568244170094 L80.99999999999977,90.85682441700942 Z" clip-path="url(#alignment-13072787272675212646)" fill="none" stroke="#130e0a" stroke-width="4"/>
			</g>
		</g>
	</g>
	<g>
		<g transform="matrix(1,0,0,1,0,-50.517756736)">
			<path d="M369.44163698764777,79.82548411080853 C550.5126112069645,79.82548411080853 697.5967103264676,225.68388240431577 697.5967103264676,405.2459318384715 C697.5967103264676,584.8079812726272 550.5126112069645,730.6663795661345 369.44163698764777,730.6663795661345 C188.37066276833104,730.6663795661345 41.28656364882795,584.8079812726272 41.28656364882795,405.2459318384715 C41.28656364882795,225.68388240431577 188.37066276833104,79.82548411080853 369.44163698764777,79.82548411080853 Z" fill="url('#8811283208890617865')"/>
		</g>
		<g transform="matrix(1,0,0,1,0,-50.517756736)">
			<path d="M372.0000000000031,79.76331698813152 C181.6342516613195,79.76331698813152 26.999999994556788,234.39756865489426 26.999999994556788,424.7633169935779 C26.999999994556788,615.1290653322616 181.6342516613195,769.7633169990243 372.0000000000031,769.7633169990243 C562.3657483386868,769.7633169990243 717.0000000054495,615.1290653322616 717.0000000054495,424.7633169935779 C717.0000000054495,234.39756865489426 562.3657483386868,79.76331698813152 372.0000000000031,79.76331698813152 ZM372.0000000000031,115.0541642471735 C544.3729667322184,115.0541642471735 684.3916673136929,253.870520962056 684.3916673136929,424.7633169935779 C684.3916673136929,595.6561130250998 544.3729667322184,734.4724697399823 372.0000000000031,734.4724697399823 C199.6270332677879,734.4724697399823 59.60833268631336,595.6561130250998 59.60833268631336,424.7633169935779 C59.60833268631336,253.870520962056 199.6270332677879,115.0541642471735 372.0000000000031,115.0541642471735 Z" transform="matrix(0.983151102,0,0,0.983151102,6.709407394,4.562297697)" fill="url('#15697810919184697235')" stroke="#8c6b2a" stroke-width="4"/>
		</g>
	</g>
	<g>
		<g>
			<g transform="matrix(1,0,0,1,-36,-36)">
				<path d="M753.0000000000048,722.0000000000023 L753.0000000000048,901.9999999999998 C753.0000000000048,901.9999999999998 733.0000000000048,923.2599999999998 733.0000000000048,923.2599999999998 C733.0000000000048,923.2599999999998 732.9999999999998,746.26 732.9999999999998,746.26 L753.0000000000048,722.0000000000023 Z" fill="url('#5914330906766633447')"/>
			</g>
			<g transform="matrix(1,0,0,1,-36,-36)">
				<path d="M62.999999999999886,721.999999999999 C62.999999999999886,721.999999999999 63,902.0000000000002 63,902.0000000000002 C63,902.0000000000002 82.99999999999994,923.2599999999998 82.99999999999994,923.2599999999998 C82.99999999999994,923.2599999999998 82.99999999999983,745.2645864108044 82.99999999999983,745.2645864108044 L62.999999999999886,721.999999999999 Z" fill="url('#17014494974055723926')"/>
			</g>
			<g transform="matrix(1,0,0,1,-36,-36)">
				<path d="M360.1236981142017,1026.8568244195296 C360.1236981142018,1026.8568244195296 170.40999999999977,1026.8568244195296 170.40999999999977,1026.8568244195296 C170.40999999999977,1026.8568244195296 185.28999999703368,1046.4358710562415 185.28999999703368,1046.4358710562415 C185.28999999703368,1046.4358710562415 630.3499999974574,1046.4358710562415 630.3499999974574,1046.4358710562415 C630.3499999974574,1046.4358710562415 645.5929999991523,1026.8568244195296 645.5929999991523,1026.8568244195296 C645.5929999991523,1026.8568244195296 456.99554998188967,1026.8568244195296 456.99554998188967,1026.8568244195296 C456.99554998188967,1026.8568244195296 445.6402199194913,1012.3555735991022 445.6402199194913,1012.3555735991022 C445.6402199194913,1012.3555735991022 371.61914921271165,1012.3555735991022 371.61914921271165,1012.3555735991022 C371.61914921271165,1012.3555735991022 360.1236981142017,1026.8568244195296 360.1236981142017,1026.8568244195296 Z" fill="url('#2704142148038175219')"/>
			</g>
			<g transform="matrix(1,0,0,1,-36,-36)">
				<g transform="matrix(0.071515499,0,0,0.071515499,400.818993321,989.41690705)">
					<g>
						<g>
							<g>
								<g>
									<g>
										<path d="M0.8525763398123445,634.5243765754271 C0.8525763398123445,634.5243765754271 158.06577503633903,477.16708340226705 158.06577503633903,477.16708340226705 C158.06577503633903,477.16708340226705 230.23724724117884,446.3223526528427 230.23724724117884,446.3223526528427 C230.23724724117884,446.3223526528427 200.78833735414506,516.9836357978493 200.78833735414506,516.9836357978493 C200.78833735414506,516.9836357978493 35.85332828014717,662.8508135263501 35.85332828014717,662.8508135263501 C35.85332828014717,662.8508135263501 88.58659298760077,720.535708283227 88.58659298760077,720.535708283227 C88.58659298760077,720.535708283227 46.892496108306574,718.7703163524166 46.892496108306574,718.7703163524166 C46.892496108306574,718.7703163524166 -54.98436462237041,613.1838609764336 -54.98436462237041,613.1838609764336 C-54.98436462237041,613.1838609764336 -47.734377700892395,576.5779515773111 -47.734377700892395,576.5779515773111 C-47.734377700892395,576.5779515773111 0.8525763398123445,634.5243765754271 0.8525763398123445,634.5243765754271 C0.8525763398123445,634.5243765754271 0.8525763398123445,634.5243765754271 0.8525763398123445,634.5243765754271 Z" fill="#e1414e"/>
									</g>
								</g>
							</g>
							<g>
								<g>
									<g>
										<path d="M-36.91942407267183,664.0383068997769 C-36.91942407267183,664.0383068997769 -77.84191458587597,720.6152677522966 -77.84191458587597,720.6152677522966 C-77.84191458587597,720.6152677522966 -116.78703603999438,729.7032121413406 -116.78703603999438,729.7032121413406 C-116.78703603999438,729.7032121413406 -118.20737837461397,773.2995961853958 -117.06241198020629,773.4139215467694 C-115.91744558579862,773.528246908143 -72.94437565254552,774.260423911445 -72.94437565254552,774.260423911445 C-72.94437565254552,774.260423911445 -63.15631015222138,739.68070653264 -63.15631015222138,739.68070653264 C-63.15631015222138,739.68070653264 -2.729777870709171,698.0228494551885 -2.729777870709171,698.0228494551885 C-2.729777870709171,698.0228494551885 -36.91942407267183,664.0383068997769 -36.91942407267183,664.0383068997769 C-36.91942407267183,664.0383068997769 -36.91942407267183,664.0383068997769 -36.91942407267183,664.0383068997769 Z" fill="#e1424f"/>
									</g>
								</g>
							</g>
						</g>
						<g>
							<g>
								<path d="M279.70611368608826,394.62432663526033 C279.70611368608826,394.62432663526033 188.0394571919477,588.1308116206119 188.0394571919477,588.1308116206119 C188.0394571919477,588.1308116206119 222.17364298296332,575.7931651362369 222.17364298296332,575.7931651362369 C222.17364298296332,575.7931651362369 217.23858438921332,672.8494395502994 217.23858438921332,672.8494395502994 C217.23858438921332,672.8494395502994 331.58923136186957,342.69793503369783 331.58923136186957,342.69793503369783 C331.58923136186957,342.69793503369783 3.7970255513226903,461.8753947504947 3.7970255513226903,461.8753947504947 C3.7970255513226903,461.8753947504947 104.55462442827582,458.17413132276033 104.55462442827582,458.17413132276033 C104.55462442827582,458.17413132276033 88.06109415483832,488.80181686963533 88.06109415483832,488.80181686963533 C88.06109415483832,488.80181686963533 279.70611368608826,394.62432663526033 279.70611368608826,394.62432663526033 C279.70611368608826,394.62432663526033 279.70611368608826,394.62432663526033 279.70611368608826,394.62432663526033 Z" fill="#e1424f"/>
							</g>
						</g>
						<g>
							<g>
								<g>
									<path d="M120.26885782671332,385.3602580317447 C120.26885782671332,385.3602580317447 246.93554483843207,343.82347672070955 246.93554483843207,343.82347672070955 C246.93554483843207,343.82347672070955 36.78402506304144,346.7022532710025 36.78402506304144,346.7022532710025 C36.78402506304144,346.7022532710025 120.26885782671332,385.3602580317447 120.26885782671332,385.3602580317447 C120.26885782671332,385.3602580317447 120.26885782671332,385.3602580317447 120.26885782671332,385.3602580317447 Z" fill="#e1424f"/>
								</g>
							</g>
						</g>
						<g>
							<g>
								<g>
									<path d="M329.6511286397016,642.0471629389713 C329.6511286397016,642.0471629389713 333.7125300068891,427.5956987627933 333.7125300068891,427.5956987627933 C333.7125300068891,427.5956987627933 292.3682917256391,553.955678869147 292.3682917256391,553.955678869147 C292.3682917256391,553.955678869147 329.6511286397016,642.0471629389713 329.6511286397016,642.0471629389713 C329.6511286397016,642.0471629389713 329.6511286397016,642.0471629389713 329.6511286397016,642.0471629389713 Z" fill="#e1424f"/>
								</g>
							</g>
						</g>
						<g>
							<g>
								<g>
									<path d="M176.5459269185102,646.2044352778385 C176.5459269185102,646.2044352778385 160.3121622700727,621.4208735712955 160.3121622700727,621.4208735712955 C160.3121622700727,621.4208735712955 135.1822794575727,689.5377711543033 135.1822794575727,689.5377711543033 C135.1822794575727,689.5377711543033 176.5459269185102,646.2044352778385 176.5459269185102,646.2044352778385 C176.5459269185102,646.2044352778385 176.5459269185102,646.2044352778385 176.5459269185102,646.2044352778385 Z" fill="#e1424f"/>
								</g>
							</g>
						</g>
						<g>
							<g>
								<g>
									<path d="M54.844419350150815,515.2125872858951 C54.844419350150815,515.2125872858951 27.792661537650815,500.2994593867252 27.792661537650815,500.2994593867252 C27.792661537650815,500.2994593867252 -13.651918540474185,545.2122401484439 -13.651918540474185,545.2122401484439 C-13.651918540474185,545.2122401484439 54.844419350150815,515.2125872858951 54.844419350150815,515.2125872858951 C54.844419350150815,515.2125872858951 54.844419350150815,515.2125872858951 54.844419350150815,515.2125872858951 Z" fill="#e1424f"/>
								</g>
							</g>
						</g>
					</g>
				</g>
			</g>
		</g>
	</g>
</g></g></svg>