<svg xmlns="http://www.w3.org/2000/svg" viewBox="0 0 744 1038" width="744" height="1038"><defs><clipPath id="alignment-9879293865540011115">
<path d="M36,66 C36,49.44645666662956 49.44645666662956,36 66,36 L750,36 C766.5535433333705,36 780,49.44645666662956 780,66 L780,1044 C780,1060.5535433333705 766.5535433333705,1074 750,1074 L66,1074 C49.44645666662956,1074 36,1060.5535433333705 36,1044 L36,66 Z" fill="#000000"/></clipPath><radialGradient id="1081034665834999659" cx="629.2199299042214" cy="800.1947613873972" r="591.7984072957933" gradientTransform="matrix(0.001449275,0,0,0.00101713,-0.091304348,-0.064361752)"><stop stop-color="#5f7470" /><stop offset="1" stop-color="#889696" /></radialGradient><radialGradient id="112827899394593739" cx="458.742326348609" cy="803.5105708442377" r="555.7334985030222" gradientTransform="matrix(0.001449275,0,0,0.00101713,-0.091304348,-0.064361752)"><stop stop-color="#08102e" /><stop offset="1" stop-color="#3950a3" /></radialGradient><linearGradient id="1085386202620024265" x1="568.9257019566016" y1="1115.482993351501" x2="395.8689238215604" y2="272.56674939532917" gradientTransform="matrix(0.001449275,0,0,0.00101713,-0.091304348,-0.064507381)"><stop stop-color="#061230" /><stop offset="1" stop-color="#1a316d" /></linearGradient><radialGradient id="10799015622134650548" cx="360.15086202393553" cy="476.89752435285425" r="682.272955256596" gradientTransform="matrix(0.001529052,0,0,0.001054852,-0.123853211,-0.085292009)"><stop stop-color="#f1e9d2" /><stop offset="0.197226" stop-color="#e3d6bc" /><stop offset="1" stop-color="#ae8964" /></radialGradient><clipPath id="alignment-3314286177018266938">
<path d="M80.99999999999977,90.85682441700942 C80.99999999999977,85.33897663921925 85.4821522222096,80.85682441700942 90.99999999999977,80.85682441700942 L724.9999999999998,80.85682441700942 C730.5178477777899,80.85682441700942 734.9999999999998,85.33897663921925 734.9999999999998,90.85682441700942 L734.9999999999998,1018.8568244170094 C734.9999999999998,1024.3746721947996 730.5178477777899,1028.8568244170094 724.9999999999998,1028.8568244170094 L90.99999999999977,1028.8568244170094 C85.4821522222096,1028.8568244170094 80.99999999999977,1024.3746721947996 80.99999999999977,1018.8568244170094 L80.99999999999977,90.85682441700942 Z" fill="#000000"/></clipPath><radialGradient id="10791193404769816196" cx="398.10706204420825" cy="416.62983640391445" r="549.2796145735288" gradientTransform="matrix(0.00152367,0,0,0.001536474,-0.062907093,-0.122649767)"><stop offset="0.020628" stop-color="#181824" /><stop offset="1" stop-color="#303342" /></radialGradient><radialGradient id="16870050407722210400" cx="367.4734678555249" cy="421.77680928479856" r="343.5232375430016" gradientTransform="matrix(0.001474113,0,0,0.001474113,-0.049020856,-0.12232435)"><stop stop-color="#a67219" /><stop offset="0.908866" stop-color="#fad369" /><stop offset="0.956168" stop-color="#c6922b" /><stop offset="1" stop-color="#a67219" /></radialGradient><linearGradient id="5061271907300027512" x1="681.6401318007951" y1="880.019510662237" x2="779.922675512868" y2="722.4903331552224" gradientTransform="matrix(0.05,0,0,0.004968697,-36.65,-3.587399384)"><stop stop-color="#1a316d" /><stop offset="1" stop-color="#0fa9c9" /></linearGradient><linearGradient id="2410915638455222340" x1="152.84044037494886" y1="889.4345262742236" x2="-56.24360041716848" y2="711.7390198365031" gradientTransform="matrix(0.05,0,0,0.004944131,-3.15,-3.564718679)"><stop stop-color="#1a316d" /><stop offset="1" stop-color="#0fa9c9" /></linearGradient><radialGradient id="990505703279400719" cx="407.90099619632326" cy="1068.760557985848" r="496.69987378600166" gradientTransform="matrix(0.002104452,0,0,0.029342467,-0.358619732,-29.705009907)"><stop stop-color="#1a316d" /><stop offset="1" stop-color="#0fa9c9" /></radialGradient></defs><g>
<g>
	<g>
		<g transform="matrix(1,0,0,1,-36,-36)">
			<path d="M36,66 C36,49.44645666662956 49.44645666662956,36 66,36 L750,36 C766.5535433333705,36 780,49.44645666662956 780,66 L780,1044 C780,1060.5535433333705 766.5535433333705,1074 750,1074 L66,1074 C49.44645666662956,1074 36,1060.5535433333705 36,1044 L36,66 Z" fill="#000000"/>
			<path d="M36,66 C36,49.44645666662956 49.44645666662956,36 66,36 L750,36 C766.5535433333705,36 780,49.44645666662956 780,66 L780,1044 C780,1060.5535433333705 766.5535433333705,1074 750,1074 L66,1074 C49.44645666662956,1074 36,1060.5535433333705 36,1044 L36,66 Z" clip-path="url(#alignment-9879293865540011115)" fill="none" stroke="#130e0a" stroke-width="4"/>
		</g>
		<g transform="matrix(1,0,0,1,-36,-36)">
			<g>
				<path d="M63.00000000015564,73.08973479652474 C63.00000000015564,67.6756462733581 67.36819919976494,63.2777777777776 72.74576271201568,63.2777777777776 L743.2542372879836,63.2777777777776 C748.6318008002344,63.2777777777776 752.9999999998437,67.6756462733581 752.9999999998437,73.08973479652474 L752.9999999998437,1036.6239140374942 C752.9999999998437,1042.0380025606607 748.6318008002344,1046.4358710562412 743.2542372879836,1046.4358710562412 L72.74576271201568,1046.4358710562412 C67.36819919976494,1046.4358710562412 63.00000000015564,1042.0380025606607 63.00000000015564,1036.6239140374942 L63.00000000015564,73.08973479652474 Z" fill="url('#1081034665834999659')"/>
			</g>
			<g>
				<path d="M63.00000000015581,73.08973479638439 C63.00000000015581,67.67564627321616 67.36819919976512,63.27777777763441 72.74576271201585,63.27777777763441 L743.2542372879839,63.27777777763441 C748.6318008002345,63.27777777763441 752.9999999998438,67.67564627321616 752.9999999998438,73.08973479638439 L752.9999999998438,1036.6239140376344 C752.9999999998438,1042.0380025608026 748.6318008002345,1046.4358710563845 743.2542372879839,1046.4358710563845 L72.74576271201585,1046.4358710563845 C67.36819919976512,1046.4358710563845 63.00000000015581,1042.0380025608026 63.00000000015581,1036.6239140376344 L63.00000000015581,73.08973479638439 Z" fill="url('#112827899394593739')"/>
			</g>
			<g>
				<path d="M63.00000000015467,73.23291037937497 C63.00000000015467,67.81882185620674 67.36819919976398,63.42095336062499 72.74576271201471,63.42095336062499 L743.2542372879827,63.42095336062499 C748.6318008002333,63.42095336062499 752.9999999998427,67.81882185620674 752.9999999998427,73.23291037937497 L752.9999999998427,1036.767089620625 C752.9999999998427,1042.1811781437932 748.6318008002333,1046.579046639375 743.2542372879827,1046.579046639375 L72.74576271201471,1046.579046639375 C67.36819919976398,1046.579046639375 63.00000000015467,1042.1811781437932 63.00000000015467,1036.767089620625 L63.00000000015467,73.23291037937497 Z" fill="url('#1085386202620024265')"/>
			</g>
			<g>
				<path d="M80.99999999999977,90.85682441700942 C80.99999999999977,85.33897663921925 85.4821522222096,80.85682441700942 90.99999999999977,80.85682441700942 L724.9999999999998,80.85682441700942 C730.5178477777899,80.85682441700942 734.9999999999998,85.33897663921925 734.9999999999998,90.85682441700942 L734.9999999999998,1018.8568244170094 C734.9999999999998,1024.3746721947996 730.5178477777899,1028.8568244170094 724.9999999999998,1028.8568244170094 L90.99999999999977,1028.8568244170094 C85.4821522222096,1028.8568244170094 80.99999999999977,1024.3746721947996 80.99999999999977,1018.8568244170094 L80.99999999999977,90.85682441700942 Z" fill="url('#10799015622134650548')"/>
				<path d="M80.99999999999977,90.85682441700942 C80.99999999999977,85.33897663921925 85.4821522222096,80.85682441700942 90.99999999999977,80.85682441700942 L724.9999999999998,80.85682441700942 C730.5178477777899,80.85682441700942 734.9999999999998,85.33897663921925 734.9999999999998,90.85682441700942 L734.9999999999998,1018.8568244170094 C734.9999999999998,1024.3746721947996 730.5178477777899,1028.8568244170094 724.9999999999998,1028.8568244170094 L90.99999999999977,1028.8568244170094 C85.4821522222096,1028.8568244170094 80.99999999999977,1024.3746721947996 80.99999999999977,1018.8568244170094 L80.99999999999977,90.85682441700942 Z" clip-path="url(#alignment-3314286177018266938)" fill="none" stroke="#130e0a" stroke-width="4"/>
			</g>
		</g>
	</g>
	<g>
		<g transform="matrix(1,0,0,1,0,-50.517756736)">
			<path d="M369.44163698764777,79.82548411080853 C550.5126112069645,79.82548411080853 697.5967103264676,225.68388240431577 697.5967103264676,405.2459318384715 C697.5967103264676,584.8079812726272 550.5126112069645,730.6663795661345 369.44163698764777,730.6663795661345 C188.37066276833104,730.6663795661345 41.28656364882795,584.8079812726272 41.28656364882795,405.2459318384715 C41.28656364882795,225.68388240431577 188.37066276833104,79.82548411080853 369.44163698764777,79.82548411080853 Z" fill="url('#10791193404769816196')"/>
		</g>
		<g transform="matrix(1,0,0,1,0,-50.517756736)">
			<path d="M372.0000000000031,79.76331698813152 C181.6342516613195,79.76331698813152 26.999999994556788,234.39756865489426 26.999999994556788,424.7633169935779 C26.999999994556788,615.1290653322616 181.6342516613195,769.7633169990243 372.0000000000031,769.7633169990243 C562.3657483386868,769.7633169990243 717.0000000054495,615.1290653322616 717.0000000054495,424.7633169935779 C717.0000000054495,234.39756865489426 562.3657483386868,79.76331698813152 372.0000000000031,79.76331698813152 ZM372.0000000000031,115.0541642471735 C544.3729667322184,115.0541642471735 684.3916673136929,253.870520962056 684.3916673136929,424.7633169935779 C684.3916673136929,595.6561130250998 544.3729667322184,734.4724697399823 372.0000000000031,734.4724697399823 C199.6270332677879,734.4724697399823 59.60833268631336,595.6561130250998 59.60833268631336,424.7633169935779 C59.60833268631336,253.870520962056 199.6270332677879,115.0541642471735 372.0000000000031,115.0541642471735 Z" transform="matrix(0.983151102,0,0,0.983151102,6.709407394,4.562297697)" fill="url('#16870050407722210400')" stroke="#8c6b2a" stroke-width="4"/>
		</g>
	</g>
	<g>
		<g>
			<g transform="matrix(1,0,0,1,-36,-36)">
				<path d="M753.0000000000048,722.0000000000023 L753.0000000000048,901.9999999999998 C753.0000000000048,901.9999999999998 733.0000000000048,923.2599999999998 733.0000000000048,923.2599999999998 C733.0000000000048,923.2599999999998 732.9999999999998,746.26 732.9999999999998,746.26 L753.0000000000048,722.0000000000023 Z" fill="url('#5061271907300027512')"/>
			</g>
			<g transform="matrix(1,0,0,1,-36,-36)">
				<path d="M62.999999999999886,720.9999999999989 C62.999999999999886,720.9999999999989 63,902.0000000000002 63,902.0000000000002 C63,902.0000000000002 82.99999999999994,923.2599999999998 82.99999999999994,923.2599999999998 C82.99999999999994,923.2599999999998 82.99999999999983,744.2645864108044 82.99999999999983,744.2645864108044 L62.999999999999886,720.9999999999989 Z" fill="url('#2410915638455222340')"/>
			</g>
			<g transform="matrix(1,0,0,1,-36,-36)">
				<path d="M360.1236981142017,1026.8568244195296 C360.1236981142018,1026.8568244195296 170.40999999999977,1026.8568244195296 170.40999999999977,1026.8568244195296 C170.40999999999977,1026.8568244195296 185.28999999703368,1046.4358710562415 185.28999999703368,1046.4358710562415 C185.28999999703368,1046.4358710562415 630.3499999974574,1046.4358710562415 630.3499999974574,1046.4358710562415 C630.3499999974574,1046.4358710562415 645.5929999991523,1026.8568244195296 645.5929999991523,1026.8568244195296 C645.5929999991523,1026.8568244195296 456.99554998188967,1026.8568244195296 456.99554998188967,1026.8568244195296 C456.99554998188967,1026.8568244195296 445.6402199194913,1012.3555735991022 445.6402199194913,1012.3555735991022 C445.6402199194913,1012.3555735991022 371.61914921271165,1012.3555735991022 371.61914921271165,1012.3555735991022 C371.61914921271165,1012.3555735991022 360.1236981142017,1026.8568244195296 360.1236981142017,1026.8568244195296 Z" fill="url('#990505703279400719')"/>
			</g>
			<g transform="matrix(1,0,0,1,-36,-36)">
				<g transform="matrix(0.072691057,0,0,0.072691057,381.717092568,958.83494072)">
					<g transform="matrix(1,0,0,1,0,0)">
						<g>
							<g>
								<g>
									<path d="M383.3110824589945,895.5594830299418 C383.3110824589945,895.5594830299418 263.1040002034041,852.3711223469514 204.15139404729132,914.3365737541093 C150.51481202559023,970.7143186902734 309.19850655300945,1115.8841832369676 309.19850655300945,1115.8841832369676 C309.19850655300945,1115.8841832369676 239.69637138875817,1022.9404918313562 256.96909325362515,1011.0140479692471 C256.96909325362515,1011.0140479692471 271.17984305883067,1041.1629750654633 348.0846204046853,1092.5698998603339 C348.0846204046853,1092.5698998603339 355.68471734226307,1047.6032382776634 355.68471734226307,1047.6032382776634 C348.3144037399526,1043.3747264149683 165.64873323327618,944.0875949143914 383.3110824589945,895.5594830299418 C383.3110824589945,895.5594830299418 383.3110824589945,895.5594830299418 383.3110824589945,895.5594830299418 Z" fill="#40bee2"/>
								</g>
							</g>
						</g>
						<g>
							<g>
								<g>
									<path d="M510.8002775110127,961.7716179620901 C510.8002775110127,961.7716179620901 627.2357598630693,1043.5459068788255 558.3513410734182,1107.1365751162157 C516.337787290489,1145.9213737219375 410.69200320239463,1114.1092883838473 410.69200320239463,1114.1092883838473 C410.69200320239463,1114.1092883838473 435.77864136552455,1073.806245054553 435.77864136552455,1073.806245054553 C505.02462270863964,1088.8035411924452 577.4236605096103,1076.9231534495852 510.8002775110127,961.7716179620901 C510.8002775110127,961.7716179620901 510.8002775110127,961.7716179620901 510.8002775110127,961.7716179620901 Z" fill="#40bee2"/>
								</g>
							</g>
						</g>
						<g>
							<g>
								<g>
									<g>
										<path d="M394.0448499544824,1008.7558160714639 C394.0448499544824,1008.7558160714639 455.7094699248188,817.2023267458525 455.7094699248188,817.2023267458525 C455.7094699248188,817.2023267458525 501.0939089134714,762.5939762377669 501.0939089134714,762.5939762377669 C501.0939089134714,762.5939762377669 511.35505282355155,827.3956645547086 511.35505282355155,827.3956645547086 C511.35505282355155,827.3956645547086 433.9116132097166,1017.1237442786836 433.9116132097166,1017.1237442786836 C433.9116132097166,1017.1237442786836 500.1673050201713,1041.8143720870335 500.1673050201713,1041.8143720870335 C500.1673050201713,1041.8143720870335 465.868859688671,1057.5934353091538 465.868859688671,1057.5934353091538 C465.868859688671,1057.5934353091538 340.2837254311904,1014.6083848436123 340.2837254311904,1014.6083848436123 C340.2837254311904,1014.6083848436123 331.0196833363349,982.1440980385308 331.0196833363349,982.1440980385308 C331.0196833363349,982.1440980385308 394.0448499544824,1008.7558160714639 394.0448499544824,1008.7558160714639 C394.0448499544824,1008.7558160714639 394.0448499544824,1008.7558160714639 394.0448499544824,1008.7558160714639 Z" fill="#40bee2"/>
									</g>
								</g>
							</g>
							<g>
								<g>
									<g>
										<path d="M375.8082433426322,1048.1015082903727 C375.8082433426322,1048.1015082903727 366.1996047238832,1110.5368009248418 366.1996047238832,1110.5368009248418 C366.1996047238832,1110.5368009248418 338.5919430730779,1133.9204030381698 338.5919430730779,1133.9204030381698 C338.5919430730779,1133.9204030381698 355.43359237396146,1169.6081313152 356.402629816837,1169.227836588664 C357.3716672597126,1168.8475418621283 392.27363643050614,1151.7089557153167 392.27363643050614,1151.7089557153167 C392.27363643050614,1151.7089557153167 385.8890223235618,1119.8290093167566 385.8890223235618,1119.8290093167566 C385.8890223235618,1119.8290093167566 417.35613200546925,1061.3596918937646 417.35613200546925,1061.3596918937646 C417.35613200546925,1061.3596918937646 375.8082433426322,1048.1015082903727 375.8082433426322,1048.1015082903727 C375.8082433426322,1048.1015082903727 375.8082433426322,1048.1015082903727 375.8082433426322,1048.1015082903727 Z" fill="#40bee2"/>
									</g>
								</g>
							</g>
						</g>
						<g>
							<g>
								<g>
									<path d="M321.9907240252502,853.3516918932922 C59.17686767092665,783.936123171052 172.68335384263776,997.3777017006331 172.68335384263776,997.3777017006331 C159.89117476715126,942.7239893329545 158.20952858605517,901.0748551250842 201.01670877207255,874.8668621550256 C249.37059566088794,845.2629734860599 321.9907240252502,853.3516918932922 321.9907240252502,853.3516918932922 C321.9907240252502,853.3516918932922 321.9907240252502,853.3516918932922 321.9907240252502,853.3516918932922 Z" fill="#40bee2"/>
								</g>
							</g>
						</g>
						<g>
							<g>
								<g>
									<path d="M456.882445405794,1150.9058128433742 C701.9906805185472,1225.3430612500872 606.6226893108917,1037.8538811392223 606.6226893108917,1037.8538811392223 C647.2936700874446,1188.741308556598 456.882445405794,1150.9058128433742 456.882445405794,1150.9058128433742 C456.882445405794,1150.9058128433742 456.882445405794,1150.9058128433742 456.882445405794,1150.9058128433742 Z" fill="#40bee2"/>
								</g>
							</g>
						</g>
						<g>
							<g>
								<g>
									<path d="M407.839410565755,887.6118358049738 C329.1690838267433,729.6718797784023 250.0106651921029,815.020460533451 250.0106651921029,815.020460533451 C332.05450314227994,793.0951232325925 407.839410565755,887.6118358049738 407.839410565755,887.6118358049738 C407.839410565755,887.6118358049738 407.839410565755,887.6118358049738 407.839410565755,887.6118358049738 Z" fill="#40bee2"/>
								</g>
							</g>
						</g>
					</g>
				</g>
			</g>
		</g>
	</g>
</g></g></svg>